<?xml version="1.0" encoding="utf-8"?>
<!-- Generator: Adobe Illustrator 23.0.0, SVG Export Plug-In . SVG Version: 6.00 Build 0)  -->
<svg version="1.1" id="Layer_1" xmlns="http://www.w3.org/2000/svg" xmlns:xlink="http://www.w3.org/1999/xlink" x="0px" y="0px"
	 viewBox="0 0 576 512" style="enable-background:new 0 0 576 512;" xml:space="preserve">
<style type="text/css">
	.st0{fill:#FFFFFF;}
</style>
<path class="st0" d="M560.8,139L536,114.2c-20.2-20.2-53-20.3-73.3,0L384,192.7V135c0-12.7-5.1-25-14.1-34L286,17.1
	C277,8.1,264.8,3,252.1,3H48C21.5,3.1,0,24.6,0,51.1V467c0,26.5,21.5,48,48,48h288c26.5,0,48-21.5,48-48v-80.5
	c6.3-4.7,12.6-9.4,18.2-15l158.6-159.3c9.8-9.8,15.2-22.8,15.2-36.6S570.6,148.7,560.8,139L560.8,139z M256,35.6
	c2.8,0.7,5.3,2.1,7.4,4.2l83.9,83.9c2.1,2.1,3.5,4.6,4.2,7.4H256V35.6z M256,419c5,4.9,70,2.9,96-13.6V467c0,8.8-7.2,16-16,16H48
	c-8.8,0-16-7.2-16-16V51.1C32,42.3,39.2,35,48,35h176v104.1c0,13.3,10.7,23.9,24,23.9h104v61.5l-48.5,48.2
	C254,309.9,251,414.1,256,419z M379.5,349c-24.2,24.4-57.1,38-91.5,38l0,0c0-34.4,13.7-67.3,38.1-91.5l120.5-119.9l52.8,52.8
	L379.5,349L379.5,349z M538.2,189.6L517,210.8L464.2,158l21.2-21.2c7.7-7.7,20.3-7.7,28,0l24.8,24.8
	C545.9,169.3,545.9,181.9,538.2,189.6L538.2,189.6z"/>
<path class="st0" d="M288,236v8c0,6.6-5.4,12-12,12H108c-6.6,0-12-5.4-12-12v-8c0-6.6,5.4-12,12-12h168C282.6,224,288,229.4,288,236
	z"/>
<path class="st0" d="M288,300v8c0,6.6-5.4,12-12,12H108c-6.6,0-12-5.4-12-12v-8c0-6.6,5.4-12,12-12h168C282.6,288,288,293.4,288,300
	z"/>
<path class="st0" d="M288,364v8c0,6.6-5.4,12-12,12H108c-6.6,0-12-5.4-12-12v-8c0-6.6,5.4-12,12-12h168C282.6,352,288,357.4,288,364
	z"/>
</svg>
