<?xml version="1.0" encoding="utf-8"?>
<!-- Generator: Adobe Illustrator 16.0.3, SVG Export Plug-In . SVG Version: 6.00 Build 0)  -->
<!DOCTYPE svg PUBLIC "-//W3C//DTD SVG 1.1//EN" "http://www.w3.org/Graphics/SVG/1.1/DTD/svg11.dtd">
<svg version="1.1" id="Layer_2" xmlns="http://www.w3.org/2000/svg" xmlns:xlink="http://www.w3.org/1999/xlink" x="0px" y="0px"
	 width="160px" height="110px" viewBox="0 0 160 110" enable-background="new 0 0 160 110" xml:space="preserve">
<g>
	<polygon fill-rule="evenodd" clip-rule="evenodd" points="68.422,61.384 69.721,61.384 69.721,63.115 68.422,63.115 68.422,69.392 
		68.206,69.392 68.206,69.823 67.991,69.823 67.991,70.257 67.774,70.257 67.774,70.472 66.692,70.472 66.692,70.688 66.475,70.688 
		65.393,70.688 65.393,70.04 65.176,70.04 65.176,69.174 64.961,69.174 64.961,68.74 65.176,68.74 65.393,68.74 66.475,68.74 
		66.475,68.309 66.692,68.309 66.692,63.115 66.475,63.115 65.393,63.115 65.176,63.115 64.961,63.115 60.849,63.115 60.849,61.384 
		64.961,61.384 65.176,61.384 65.393,61.384 66.475,61.384 66.692,61.384 67.774,61.384 67.991,61.384 68.206,61.384 	"/>
	<polygon fill-rule="evenodd" clip-rule="evenodd" points="60.417,61.168 60.632,61.168 60.632,61.601 60.417,61.601 60.417,62.033 
		60.201,62.033 60.201,62.25 59.983,62.25 59.983,62.682 59.766,62.682 59.766,63.115 59.551,63.115 59.551,63.331 59.766,63.331 
		59.766,70.472 59.551,70.472 59.118,70.472 58.901,70.472 58.686,70.472 58.469,70.472 58.252,70.472 58.036,70.472 58.036,68.957 
		58.252,68.957 58.252,65.062 58.036,65.062 58.036,65.278 57.82,65.278 57.82,65.495 57.604,65.495 57.604,65.712 57.386,65.712 
		57.386,65.928 57.17,65.928 57.17,66.144 56.954,66.144 56.954,65.928 56.739,65.928 56.739,65.495 56.52,65.495 56.52,65.062 
		56.305,65.062 56.088,65.062 56.088,64.847 55.874,64.847 55.874,64.63 56.088,64.63 56.088,64.413 56.305,64.413 56.305,64.197 
		56.52,64.197 56.52,63.981 56.739,63.981 56.739,63.765 56.954,63.765 56.954,63.548 57.17,63.548 57.17,63.331 57.386,63.331 
		57.386,63.115 57.604,63.115 57.604,62.682 57.82,62.682 57.82,62.466 58.036,62.466 58.036,62.033 58.252,62.033 58.252,61.601 
		58.469,61.601 58.469,61.168 58.686,61.168 58.686,60.735 58.901,60.735 58.901,60.302 59.118,60.302 59.118,60.519 59.551,60.519 
		59.551,60.735 59.766,60.735 59.983,60.735 59.983,60.951 60.201,60.951 60.417,60.951 	"/>
	<path fill-rule="evenodd" clip-rule="evenodd" d="M105.86,61.384h-0.217h-0.215h-0.219h-0.215h-0.217h-0.216h-0.218h-0.216h-0.217
		h-0.215h-0.218h-0.217h-0.432h-0.217v1.298h0.217h0.432h0.217h0.218h0.215h0.217h0.216h0.218h0.216h0.217h0.215h0.219h0.215h0.217
		V61.384z M105.86,58.787h-0.217h-0.215h-0.219h-0.215h-0.217h-0.216h-0.218h-0.216h-0.217h-0.215h-0.218h-0.217h-0.432h-0.217
		v1.298h0.217h0.432h0.217h0.218h0.215h0.217h0.216h0.218h0.216h0.217h0.215h0.219h0.215h0.217V58.787z M106.725,63.981h-0.217
		h-0.215h-0.218h-0.216h-0.217h-0.215h-0.219h-0.215h-0.217v0.865h0.217v1.297h0.215v-0.216h0.219v-0.216h0.215v-0.434h0.217v-0.216
		h0.216v-0.216h0.218V64.63h0.215v-0.217h0.217V63.981z M108.024,69.606h0.217v0.217h-0.217v0.217h-0.217v0.217h-0.217v0.215h-0.216
		v0.217h-0.216v0.217h-0.218v-0.217h-0.216v-0.217h-0.217v-0.215h-0.215V70.04h-0.218v-0.217h-0.216v-0.217h-0.217v-0.215h-0.215
		v-0.218h-0.219v-0.217h-0.215V68.74h-0.217v-0.215h-0.216v-0.217h-0.218v-0.434h-0.216v-0.648h-0.217V66.36h-0.215v-0.648h-0.218
		v-0.865h-0.217v-0.865h-0.432h-0.217v4.759h0.217v-0.215h0.432v-0.217h0.217h0.218v-0.217h0.215v-0.217h0.217v0.65h0.216v0.648
		h-0.216v0.218h-0.217v0.215h-0.215h-0.218v0.217h-0.217v0.217h-0.432v0.217h-0.217h-0.217v0.215h-0.217v0.217h-0.433v0.217h-0.433
		v-0.217h-0.217v-0.432h-0.216V70.04h-0.216v-0.648h0.216v-0.435h0.216V57.488h0.217h0.433h0.433h0.217h0.217h0.217h0.432h0.217
		h0.218h0.215h0.217h0.216h0.218h0.216h0.217h0.215h0.219h0.215h0.217h0.216h0.218h0.215h0.217h0.216h0.218h0.216v6.925h0.216v0.217
		h0.217v0.217h0.217v0.432h-0.217v0.217h-0.217v0.217h-0.216v0.216h-0.216v0.216h-0.218v0.217h-0.216v0.217h-0.217v0.217h-0.215
		v0.216h-0.218v0.217h-0.216v0.434h0.216v0.215h0.218v0.217h0.215v0.217h0.217v0.217h0.216v0.215h0.218v0.217h0.216v0.217h0.216
		h0.217v0.218h0.217V69.606z"/>
	<polygon fill-rule="evenodd" clip-rule="evenodd" points="127.282,61.601 127.715,61.601 127.715,63.331 127.282,63.331 
		125.12,63.331 125.12,69.823 124.903,69.823 124.903,70.257 124.685,70.257 124.685,70.472 124.253,70.472 124.253,70.688 
		123.387,70.688 123.172,70.688 122.954,70.688 122.307,70.688 122.307,69.606 122.088,69.606 122.088,68.957 122.307,68.957 
		122.954,68.957 122.954,68.74 123.172,68.74 123.172,68.309 123.387,68.309 123.387,63.331 123.172,63.331 122.954,63.331 
		122.307,63.331 122.088,63.331 119.709,63.331 119.493,63.331 119.493,61.601 119.709,61.601 119.709,61.816 122.088,61.816 
		122.307,61.816 122.954,61.816 123.172,61.816 123.387,61.816 124.253,61.816 124.685,61.816 124.903,61.816 125.12,61.816 
		127.282,61.816 	"/>
	<polygon fill-rule="evenodd" clip-rule="evenodd" points="119.276,61.168 119.493,61.168 119.493,61.601 119.276,61.601 
		119.276,61.816 119.06,61.816 119.06,62.033 118.843,62.033 118.843,62.25 118.626,62.25 118.626,62.466 118.411,62.466 
		118.411,62.682 118.195,62.682 118.195,62.898 117.978,62.898 117.978,63.115 117.761,63.115 117.761,70.688 117.545,70.688 
		117.329,70.688 117.112,70.688 116.895,70.688 116.68,70.688 116.463,70.688 116.247,70.688 116.247,65.062 116.03,65.062 
		116.03,65.278 115.814,65.278 115.814,65.495 115.597,65.495 115.597,65.712 115.381,65.712 115.381,65.928 115.165,65.928 
		115.165,66.144 114.949,66.144 114.949,66.36 114.731,66.36 114.516,66.36 114.516,65.928 114.299,65.928 114.299,65.278 
		114.083,65.278 114.083,64.413 114.299,64.413 114.299,64.197 114.516,64.197 114.516,63.981 114.731,63.981 114.731,63.765 
		114.949,63.765 114.949,63.548 115.165,63.548 115.381,63.548 115.381,63.331 115.597,63.331 115.597,63.115 115.814,63.115 
		115.814,62.898 116.03,62.898 116.03,62.682 116.247,62.682 116.247,62.466 116.463,62.466 116.463,62.25 116.68,62.25 
		116.68,62.033 116.895,62.033 116.895,61.601 117.112,61.601 117.112,61.384 117.329,61.384 117.329,61.168 117.545,61.168 
		117.545,60.735 117.761,60.735 117.761,60.519 117.978,60.519 117.978,60.085 118.195,60.085 118.195,60.302 118.411,60.302 
		118.411,60.519 118.626,60.519 118.626,60.735 118.843,60.735 118.843,60.951 119.06,60.951 119.276,60.951 	"/>
	<polygon fill-rule="evenodd" clip-rule="evenodd" points="125.985,57.705 127.067,57.705 127.067,59.437 125.985,59.437 
		125.985,59.22 121.007,59.22 121.007,59.437 120.141,59.437 120.141,57.705 121.007,57.705 	"/>
	<polygon fill-rule="evenodd" clip-rule="evenodd" points="118.843,58.138 119.06,58.138 119.06,58.571 118.843,58.571 
		118.843,58.787 118.626,58.787 118.626,59.003 118.411,59.003 118.195,59.003 118.195,59.22 117.978,59.22 117.978,59.437 
		117.761,59.437 117.545,59.437 117.545,59.652 117.329,59.652 117.329,59.868 117.112,59.868 116.895,59.868 116.895,60.085 
		116.68,60.085 116.68,60.302 116.463,60.302 116.247,60.302 116.247,60.519 116.03,60.519 116.03,60.735 115.814,60.735 
		115.597,60.735 115.597,60.951 115.381,60.951 115.381,61.168 114.949,61.168 114.949,60.951 114.731,60.951 114.731,60.519 
		114.516,60.519 114.516,60.085 114.299,60.085 114.299,59.652 114.516,59.652 114.516,59.437 114.731,59.437 114.949,59.437 
		114.949,59.22 115.381,59.22 115.381,59.003 115.597,59.003 115.814,59.003 115.814,58.787 116.03,58.787 116.03,58.571 
		116.247,58.571 116.463,58.571 116.463,58.354 116.68,58.354 116.68,58.138 116.895,58.138 116.895,57.921 117.112,57.921 
		117.112,57.705 117.329,57.705 117.329,57.488 117.545,57.488 117.545,57.271 117.761,57.271 117.761,57.056 117.978,57.056 
		117.978,57.271 118.195,57.271 118.195,57.488 118.411,57.488 118.411,57.705 118.626,57.705 118.626,57.921 118.843,57.921 	"/>
	<polygon fill-rule="evenodd" clip-rule="evenodd" points="100.45,59.652 100.667,59.652 100.667,59.868 100.45,59.868 
		100.45,60.085 100.233,60.085 100.233,60.302 100.016,60.302 100.016,60.519 99.801,60.519 99.801,60.735 99.584,60.735 
		99.368,60.735 99.368,60.519 99.151,60.519 99.151,60.302 98.935,60.302 98.935,60.085 98.718,60.085 98.718,59.868 98.501,59.868 
		98.501,59.652 98.286,59.652 98.07,59.652 98.07,59.437 97.853,59.437 97.853,59.22 97.636,59.22 97.636,59.652 97.42,59.652 
		97.42,60.085 97.204,60.085 97.204,60.302 96.987,60.302 96.987,60.735 96.77,60.735 96.77,60.951 96.987,60.951 97.204,60.951 
		97.42,60.951 97.636,60.951 97.853,60.951 98.07,60.951 98.286,60.951 98.501,60.951 98.718,60.951 98.935,60.951 99.151,60.951 
		99.368,60.951 99.584,60.951 99.801,60.951 100.016,60.951 100.016,62.25 99.801,62.25 99.584,62.25 99.368,62.25 99.151,62.25 
		98.935,62.25 98.718,62.25 98.501,62.25 98.286,62.25 98.286,63.548 98.501,63.548 98.718,63.548 98.935,63.548 99.151,63.548 
		99.368,63.548 99.584,63.548 99.801,63.548 100.016,63.548 100.233,63.548 100.45,63.548 100.667,63.548 100.667,65.062 
		100.45,65.062 100.233,65.062 100.016,65.062 99.801,65.062 99.801,64.847 99.584,64.847 99.368,64.847 99.151,64.847 
		98.935,64.847 98.718,64.847 98.501,64.847 98.286,64.847 98.286,66.577 98.501,66.577 98.501,66.144 98.718,66.144 98.718,65.712 
		98.935,65.712 98.935,65.278 99.151,65.278 99.151,65.495 99.368,65.495 99.584,65.495 99.801,65.495 99.801,65.712 
		100.016,65.712 100.233,65.712 100.233,66.144 100.016,66.144 100.016,66.577 99.801,66.577 99.801,67.01 99.584,67.01 
		99.584,67.443 99.368,67.443 99.368,67.66 99.151,67.66 98.935,67.66 98.718,67.66 98.718,67.443 98.501,67.443 98.286,67.443 
		98.286,68.092 98.501,68.092 98.718,68.092 98.935,68.092 99.151,68.092 99.368,68.092 99.368,67.875 99.584,67.875 99.801,67.875 
		100.016,67.875 100.016,67.66 100.233,67.66 100.45,67.66 100.45,67.443 100.667,67.443 100.667,68.957 100.45,68.957 
		100.45,69.174 100.233,69.174 100.016,69.174 99.801,69.174 99.584,69.174 99.584,69.392 99.368,69.392 99.151,69.392 
		98.935,69.392 98.718,69.392 98.718,69.606 98.501,69.606 98.286,69.606 98.07,69.606 97.853,69.606 97.853,69.823 97.636,69.823 
		97.42,69.823 97.204,69.823 96.987,69.823 96.987,70.04 96.77,70.04 96.555,70.04 96.338,70.04 96.122,70.04 95.905,70.04 
		95.905,70.257 95.689,70.257 95.473,70.257 95.256,70.257 95.04,70.257 95.04,69.392 94.824,69.392 94.824,68.525 95.04,68.525 
		95.256,68.525 95.473,68.525 95.689,68.525 95.905,68.525 96.122,68.525 96.338,68.525 96.555,68.525 96.555,68.309 96.77,68.309 
		96.77,67.66 96.555,67.66 96.555,67.875 96.338,67.875 96.122,67.875 96.122,68.092 95.905,68.092 95.689,68.092 95.689,67.66 
		95.473,67.66 95.473,67.01 95.256,67.01 95.256,66.577 95.04,66.577 95.04,65.928 95.256,65.928 95.473,65.928 95.473,65.712 
		95.689,65.712 95.905,65.712 95.905,65.495 96.122,65.495 96.122,65.928 96.338,65.928 96.338,66.36 96.555,66.36 96.555,66.794 
		96.77,66.794 96.77,64.847 96.555,64.847 96.338,64.847 96.122,64.847 95.905,64.847 95.689,64.847 95.473,64.847 95.473,65.062 
		95.256,65.062 95.04,65.062 94.824,65.062 94.824,63.548 95.04,63.548 95.256,63.548 95.473,63.548 95.689,63.548 95.905,63.548 
		96.122,63.548 96.338,63.548 96.555,63.548 96.77,63.548 96.77,62.25 96.555,62.25 96.338,62.25 96.122,62.25 95.905,62.25 
		95.905,62.033 95.689,62.033 95.689,62.466 95.473,62.466 95.473,62.682 95.256,62.682 95.256,62.466 95.04,62.466 95.04,62.033 
		94.824,62.033 94.824,61.601 94.608,61.601 94.608,60.951 94.824,60.951 94.824,60.735 95.04,60.735 95.04,60.519 95.256,60.519 
		95.256,60.302 95.473,60.302 95.473,60.085 95.689,60.085 95.689,59.652 95.905,59.652 95.905,59.437 96.122,59.437 96.122,59.003 
		96.338,59.003 96.338,58.571 96.555,58.571 96.555,58.138 96.77,58.138 96.77,57.705 96.987,57.705 96.987,56.84 97.204,56.84 
		97.204,57.056 97.42,57.056 97.636,57.056 97.636,57.271 97.853,57.271 98.07,57.271 98.07,57.488 98.286,57.488 98.501,57.488 
		98.501,58.138 98.718,58.138 98.718,58.354 98.935,58.354 98.935,58.571 99.151,58.571 99.368,58.571 99.368,58.787 99.584,58.787 
		99.584,59.003 99.801,59.003 99.801,59.22 100.016,59.22 100.233,59.22 100.233,59.437 100.45,59.437 	"/>
	<path fill-rule="evenodd" clip-rule="evenodd" d="M80.108,61.816h-0.217h-0.215h-0.217h-0.217h-0.217h-0.433h-0.216h-0.217h-0.216
		h-0.218h-0.215v0.649h0.215h0.218h0.216h0.217h0.216h0.433h0.217h0.217h0.217h0.215h0.217V61.816z M80.108,60.735h-0.217h-0.215
		h-0.217h-0.217h-0.217h-0.433h-0.216h-0.217h-0.216h-0.218h-0.215v0.433h0.215h0.218h0.216h0.217h0.216h0.433h0.217h0.217h0.217
		h0.215h0.217V60.735z M80.325,65.712h-0.217h-0.217h-0.215v1.082h0.215h0.217h0.217v-0.217h-0.217V66.36h-0.217v-0.217h0.217
		v-0.216h0.217V65.712z M81.407,65.712h-0.216h-0.217h-0.217h-0.216v0.432h0.216v0.217h0.217v0.434h0.217h0.216V65.712z
		 M81.407,64.63h-0.216h-0.217h-0.217h-0.216h-0.217h-0.217h-0.217h-0.215h-0.217h-0.217h-0.217h-0.433h-0.216h-0.217v-0.865h0.217
		h0.216h0.433h0.217h0.217h0.217h0.215h0.217h0.217h0.217h0.216h0.217h0.217v-0.434h-0.217h-0.217h-0.216h-0.217h-0.217h-0.217
		h-0.215h-0.217h-0.217h-0.217h-0.433h-0.216h-0.217h-0.216h-0.218h-0.215v5.626h0.215h0.218V68.74h0.216h0.217h0.216v-0.215h0.433
		v-0.217h0.217h0.217v-0.217h0.217h0.215v-0.217h0.217h0.217V67.66h-0.217h-0.217h-0.215h-0.217h-0.217h-0.217h-0.433h-0.216v-0.866
		h0.216v-1.082h-0.216v-0.865h0.216h0.433h0.217h0.217h0.217h0.215h0.217h0.217h0.217h0.216h0.217h0.217h0.216V64.63z
		 M83.138,65.712h-0.216h-0.217v1.082h0.217v-0.65h0.216V65.712z M83.138,59.003h-0.216h-0.217h-0.217h-0.865h-0.217h-0.216h-0.217
		v0.649h0.217h0.216h0.217v3.679h0.865V62.25h0.217v-1.515h-0.217v-1.083h0.217h0.217h0.216V59.003z M84.219,65.712h-0.216h-0.216
		h-0.217h-0.217v0.216h0.217h0.217v0.433h-0.217v0.434h0.217h0.216h0.216V65.712z M86.6,63.331h-0.433h-0.217h-0.216h-0.217h-0.217
		H84.87h-0.217h-0.217h-0.217h-0.216h-0.216h-0.217h-0.217h-0.216h-0.216h-0.217v0.434h0.217h0.216h0.216h0.217h0.217h0.216h0.216
		h0.217h0.217h0.217h0.432h0.217h0.217h0.216v0.865h-0.216h-0.217h-0.217H84.87h-0.217h-0.217h-0.217h-0.216h-0.216h-0.217h-0.217
		h-0.216h-0.216h-0.217v0.217h0.217h0.216h0.216h0.217h0.217h0.216h0.216h0.217h0.217h0.217h0.432h0.217v2.813h-0.217H84.87h-0.217
		h-0.217h-0.217h-0.216v0.215h0.216h0.217v0.217h0.217h0.217v0.217h0.432v0.217h0.217h0.217v0.215h0.216v0.434h0.217H86.6V63.331z
		 M86.6,62.033h-0.433h-0.217h-0.216h-0.217h-0.217H84.87h-0.217h-0.217h-0.217h-0.216v0.433h0.216h0.217h0.217h0.217h0.432h0.217
		h0.217h0.216h0.217H86.6V62.033z M86.6,60.735h-0.433h-0.217h-0.216h-0.217h-0.217H84.87h-0.217h-0.217h-0.217h-0.216v0.433h0.216
		h0.217h0.217h0.217h0.432h0.217h0.217h0.216h0.217H86.6V60.735z M88.116,57.705h0.648v1.298h-0.648h-0.217h-0.217H87.25H86.6
		h-0.433h-0.217h-0.216h-0.217h-0.217H84.87h-0.217v0.649h0.217h0.432h0.217h0.217h0.216h0.217H86.6h0.649h0.433h0.217h0.217V70.04
		h-0.217v0.217h-0.217v0.215H87.25v0.217H86.6h-0.433v0.217h-0.217h-0.216h-0.217V70.04h-0.217v-0.434H84.87h-0.217v-0.215h-0.217
		h-0.217v-0.218h-0.216h-0.216v-0.217h-0.217h-0.217V68.74h-0.216h-0.216v-0.648h0.216V67.66h-0.216h-0.217v2.812h-0.217h-0.865
		h-0.217h-0.216v-1.515h0.216v-0.648h-0.216v0.217h-0.217v0.215h-0.217h-0.216v0.217h-0.217v0.217h-0.217h-0.217v0.218h-0.215v0.215
		h-0.217h-0.217v0.217h-0.217v0.217h-0.433v0.217h-0.216h-0.217V70.04h-0.216v-0.434h-0.218v-0.215h-0.215v1.297h-1.516V59.652
		h1.516h0.215h0.218h0.216h0.217h0.216h0.433h0.217h0.217v-0.649h-0.217h-0.217h-0.433h-0.216h-0.217h-0.216h-0.218h-0.215h-1.516
		h-0.433v-1.298h0.433h1.516h0.215h0.218h0.216h0.217h0.216h0.433h0.217h0.217V56.84h0.217h0.215h0.217h0.217h0.217h0.216h0.217
		v0.865h0.217h0.216h0.217h0.865h0.217h0.217h0.216V56.84h0.216h0.217h0.217h0.216h0.216h0.217h0.217v0.865h0.217h0.432h0.217h0.217
		h0.216h0.217H86.6h0.649h0.433h0.217H88.116z"/>
	<polygon fill-rule="evenodd" clip-rule="evenodd" points="68.422,58.138 69.721,58.138 69.721,59.868 68.422,59.868 68.422,59.652 
		66.259,59.652 66.259,60.735 64.528,60.735 64.528,59.652 61.715,59.652 61.715,60.735 59.983,60.735 59.983,59.652 57.604,59.652 
		57.604,59.868 56.52,59.868 56.52,58.138 57.604,58.138 59.983,58.138 59.983,57.056 61.715,57.056 61.715,58.138 64.528,58.138 
		64.528,57.056 66.259,57.056 66.259,58.138 	"/>
	<path fill-rule="evenodd" clip-rule="evenodd" d="M64.311,65.495h-1.73v1.082h1.73V65.495z M64.311,63.981h1.516v4.11h-1.516h-1.73
		h-1.515v-4.11h1.515H64.311z"/>
	<path fill-rule="evenodd" clip-rule="evenodd" d="M60.849,46.02h-0.217v-1.082h-0.216v-1.081h-0.216v-1.083h-0.435v1.083h-0.215
		v1.081h-0.217v1.082h-0.217v1.082h0.217h0.217h0.215h0.435h0.216h0.216h0.217V46.02z M63.878,50.348h0.217v0.648h-0.217h-0.216
		h-0.217h-0.217h-0.216h-0.216h-0.217h-0.217h-0.217h-0.215v-0.648h-0.217v-0.865h-0.217v-0.866h-0.649h-0.217h-0.216h-0.216h-0.435
		h-0.215h-0.217h-0.217h-0.432h-0.217v0.866h-0.217v0.865h-0.217v0.648H57.82h-0.216h-0.218H57.17h-0.217h-0.215H56.52h-0.215
		h-0.217h-0.215v-0.648h0.215v-0.649h0.217v-0.866h0.215v-0.648h0.219v-0.649h0.215v-0.865h0.217V46.02h0.216V45.37h0.218v-0.865
		h0.216v-0.648h0.216v-0.65h0.217v-0.865h0.217v-0.649h0.217v-0.865h0.432h0.217h0.217h0.215h0.435h0.216h0.216h0.217h0.649h0.217
		v0.865h0.217v0.865h0.215v0.866h0.217v0.865h0.217v0.865h0.217v0.866h0.216v0.866h0.216v0.865h0.217v0.865h0.217v0.866h0.216
		V50.348z"/>
	<path fill-rule="evenodd" clip-rule="evenodd" d="M70.586,42.773h-0.215h-0.217v-0.217h-0.434v-0.216h-0.216h-1.083v2.597h1.083
		h0.216h0.434h0.217v-0.216h0.215V42.773z M70.803,46.886h-0.217h-0.215h-0.217v-0.217h-0.434h-0.216v-0.217h-1.083v3.03h1.083
		h0.216h0.434v-0.217h0.217V49.05h0.215v-0.218h0.217V46.886z M72.967,47.318h0.217v0.865h-0.217v0.866h-0.216v0.648h-0.218v0.217
		h-0.216v0.216h-0.216v0.217h-0.216v0.216h-0.218v0.217h-0.217h-0.215v0.216h-0.434h-0.217h-0.215h-0.217h-0.434h-0.216h-1.083
		h-2.163v-10.17h2.163h1.083h0.216h0.434h0.217h0.215h0.217h0.434v0.217h0.215h0.217v0.217h0.218h0.216v0.432h0.216v0.217h0.216
		v0.217h0.218v2.163h-0.218v0.649h-0.216v0.216h-0.216h-0.216v0.217h-0.218h-0.217v0.217h-0.215v0.216h0.215h0.217v0.217h0.218
		h0.216v0.216h0.216v0.217h0.216h0.218v0.434h0.216V47.318z"/>
	<polygon fill-rule="evenodd" clip-rule="evenodd" points="81.191,40.826 83.354,40.826 83.354,50.996 81.191,50.996 80.974,50.996 
		80.757,50.996 80.542,50.996 80.325,50.996 80.325,50.563 80.108,50.563 80.108,49.915 79.891,49.915 79.891,49.266 79.676,49.266 
		79.676,48.832 79.459,48.832 79.459,48.184 79.243,48.184 79.243,47.534 79.026,47.534 79.026,47.102 78.81,47.102 78.81,46.452 
		78.593,46.452 78.593,45.803 78.377,45.803 78.377,45.37 78.161,45.37 78.161,44.722 77.945,44.722 77.945,44.072 77.727,44.072 
		77.727,50.996 75.564,50.996 75.564,40.826 77.727,40.826 77.945,40.826 78.161,40.826 78.377,40.826 78.593,40.826 78.593,41.476 
		78.81,41.476 78.81,42.125 79.026,42.125 79.026,42.557 79.243,42.557 79.243,43.206 79.459,43.206 79.459,43.856 79.676,43.856 
		79.676,44.288 79.891,44.288 79.891,44.938 80.108,44.938 80.108,45.587 80.325,45.587 80.325,46.02 80.542,46.02 80.542,46.669 
		80.757,46.669 80.757,47.318 80.974,47.318 80.974,47.751 81.191,47.751 	"/>
	<polyline fill-rule="evenodd" clip-rule="evenodd" points="86.6,46.452 88.116,45.153 86.6,43.64 85.301,45.153 86.6,46.452 	"/>
	<path fill-rule="evenodd" clip-rule="evenodd" d="M93.526,46.02h-0.217v-1.082h-0.217v-1.081h-0.216v-1.083H92.66v0.866h-0.217
		v0.865h-0.216v0.865h-0.216v0.865h-0.218v0.866h0.218h0.216h0.216h0.217h0.217h0.216h0.217h0.217V46.02z M96.77,50.348h0.217v0.648
		H96.77h-0.215h-0.217h-0.217h-0.217h-0.216h-0.216h-0.217H95.04h-0.216h-0.216v-1.081h-0.217v-1.299h-0.865h-0.217h-0.217h-0.216
		H92.66h-0.217h-0.216h-0.216h-0.218h-0.432h-0.217v0.866h-0.217v0.865h-0.217v0.648h-0.215h-0.219h-0.215h-0.217H89.63h-0.218
		h-0.216h-0.216h-0.217v-0.648h0.217v-0.865h0.216v-0.65h0.216v-0.865h0.218v-0.865h0.216v-0.649h0.217v-0.865h0.215v-0.649h0.219
		v-0.865h0.215v-0.866h0.217v-0.649h0.217v-0.865h0.217v-0.865h0.432h0.218h0.216h0.216h0.217h0.217h0.216h0.217h0.217h0.865v0.865
		h0.217v0.865h0.216v0.649h0.216v0.866h0.217v0.865h0.217v0.649h0.216v0.865h0.216v0.649h0.217v0.865h0.217v0.865h0.217v0.65h0.215
		V50.348z"/>
	<polygon fill-rule="evenodd" clip-rule="evenodd" points="106.941,40.826 108.889,40.826 108.889,50.996 106.941,50.996 
		106.941,42.99 106.725,42.99 106.725,44.072 106.508,44.072 106.508,44.938 106.293,44.938 106.293,45.803 106.076,45.803 
		106.076,46.669 105.86,46.669 105.86,47.534 105.643,47.534 105.643,48.399 105.428,48.399 105.428,49.266 105.209,49.266 
		105.209,50.131 104.995,50.131 104.995,50.996 104.778,50.996 104.562,50.996 104.344,50.996 104.128,50.996 103.912,50.996 
		103.697,50.996 103.479,50.996 103.262,50.996 103.045,50.996 102.831,50.996 102.614,50.996 102.614,50.131 102.397,50.131 
		102.397,49.266 102.18,49.266 102.18,48.399 101.965,48.399 101.965,47.534 101.748,47.534 101.748,46.669 101.532,46.669 
		101.532,45.803 101.315,45.803 101.315,44.938 101.098,44.938 101.098,44.072 100.882,44.072 100.882,50.996 98.935,50.996 
		98.935,40.826 100.882,40.826 101.098,40.826 101.315,40.826 101.532,40.826 101.748,40.826 101.965,40.826 102.18,40.826 
		102.397,40.826 102.397,41.908 102.614,41.908 102.614,42.99 102.831,42.99 102.831,43.856 103.045,43.856 103.045,44.938 
		103.262,44.938 103.262,45.803 103.479,45.803 103.479,46.886 103.697,46.886 103.697,47.751 103.912,47.751 103.912,46.886 
		104.128,46.886 104.128,46.02 104.344,46.02 104.344,45.153 104.562,45.153 104.562,44.288 104.778,44.288 104.778,43.423 
		104.995,43.423 104.995,42.557 105.209,42.557 105.209,41.691 105.428,41.691 105.428,40.826 105.643,40.826 105.86,40.826 
		106.076,40.826 106.293,40.826 106.508,40.826 106.725,40.826 	"/>
	<path fill-rule="evenodd" clip-rule="evenodd" d="M115.814,43.206h-0.217v-0.649h-0.216h-0.217h-0.216v-0.216h-0.433h-0.65v2.812
		h0.65h0.433h0.216v-0.216h0.217h0.216v-0.216h0.217V43.206z M117.978,49.482h0.217v1.514h-0.217h-0.217h-0.216h-0.217h-0.217
		h-0.217h-0.215h-0.217h-0.434V49.05h-0.216v-1.731h-0.217v-0.217h-0.216v-0.216h-0.217h-0.216h-0.433v-0.217h-0.65v4.327h-2.164
		v-10.17h2.164h0.65h0.433h0.216h0.217h0.216h0.217h0.216h0.434h0.217v0.217h0.215v0.217h0.217v0.216h0.217h0.217v0.433h0.216v0.433
		h0.217v1.947h-0.217v0.865h-0.216v0.217h-0.217v0.217h-0.217h-0.217v0.216h-0.215h-0.217v0.433h0.217h0.215h0.217h0.217v0.434
		h0.217v0.217h0.216v1.081h0.217V49.482z"/>
	<path fill-rule="evenodd" clip-rule="evenodd" d="M125.12,42.99h-0.217v-0.217h-0.218v-0.433h-0.215h-0.65v-0.216h-0.216v0.216
		h-0.432h-0.219v0.433h-0.215v0.217h-0.217v5.626h0.217v0.434h0.215v0.433h0.219v0.216h0.432h0.216h0.65v-0.216h0.215V49.05h0.218
		v-0.434h0.217V42.99z M127.067,43.856h0.215v3.895h-0.215v1.731h-0.217v0.433h-0.216v0.216h-0.218v0.217h-0.215v0.216h-0.217v0.217
		h-0.217v0.216h-0.648h-0.217h-0.218v0.217h-0.215h-0.65h-0.216h-0.432h-0.219v-0.217h-0.215h-0.217h-0.649V50.78h-0.216v-0.217
		h-0.217v-0.216h-0.217v-0.217h-0.216v-0.216h-0.216v-0.433h-0.217v-0.866h-0.217V42.99h0.217v-0.865h0.217v-0.217h0.216v-0.217
		h0.216v-0.216h0.217V41.26h0.217v-0.217h0.216h0.649v-0.217h0.217h0.215h0.219h0.432V40.61h0.216v0.216h0.65h0.215h0.218v0.217
		h0.217h0.648h0.217v0.217h0.217v0.216h0.215v0.216h0.218v0.217h0.216v0.217h0.217V43.856z"/>
	<polyline fill-rule="evenodd" clip-rule="evenodd" fill="#FFFFFF" points="32.285,39.312 50.03,39.312 50.03,53.81 41.157,62.682 
		32.285,53.81 32.285,39.312 	"/>
	<polygon fill-rule="evenodd" clip-rule="evenodd" fill="#ABA9A9" points="49.596,53.593 49.813,53.593 49.813,54.026 
		49.596,54.026 49.596,54.242 49.38,54.242 49.38,54.458 49.164,54.458 49.164,54.675 48.947,54.675 48.947,54.892 48.731,54.892 
		48.731,55.108 48.514,55.108 48.514,55.325 48.297,55.325 48.297,55.541 48.081,55.541 48.081,55.758 47.866,55.758 47.866,55.974 
		47.649,55.974 47.649,56.19 47.432,56.19 47.432,56.406 47.215,56.406 47.215,56.623 47,56.623 47,56.84 46.784,56.84 
		46.784,57.056 46.567,57.056 46.567,57.271 46.35,57.271 46.35,57.488 46.134,57.488 46.134,57.705 45.918,57.705 45.918,57.921 
		45.702,57.921 45.702,58.138 45.485,58.138 45.485,58.354 45.268,58.354 45.268,58.571 45.053,58.571 45.053,58.787 44.836,58.787 
		44.836,59.003 44.62,59.003 44.62,59.22 44.403,59.22 44.403,59.437 44.187,59.437 44.187,59.652 43.97,59.652 43.97,59.868 
		43.753,59.868 43.753,60.085 43.538,60.085 43.538,60.302 43.322,60.302 43.322,60.519 43.105,60.519 43.105,60.735 42.888,60.735 
		42.888,60.951 42.672,60.951 42.672,61.168 42.456,61.168 42.456,61.384 42.239,61.384 42.239,61.601 42.022,61.601 42.022,61.816 
		41.807,61.816 41.807,62.033 41.588,62.033 41.588,62.25 41.374,62.25 41.374,62.466 41.157,62.466 41.157,45.153 41.374,45.153 
		41.374,45.37 41.588,45.37 41.588,45.587 41.807,45.587 41.807,45.803 42.022,45.803 42.022,46.02 42.239,46.02 42.239,46.235 
		42.456,46.235 42.456,46.452 42.672,46.452 42.672,46.669 42.888,46.669 42.888,46.886 43.105,46.886 43.105,47.102 43.322,47.102 
		43.322,47.318 43.538,47.318 43.538,47.534 43.753,47.534 43.753,47.751 43.97,47.751 43.97,47.967 44.187,47.967 44.187,48.184 
		44.403,48.184 44.403,48.399 44.62,48.399 44.62,48.616 44.836,48.616 44.836,48.832 45.053,48.832 45.053,49.05 45.268,49.05 
		45.268,49.266 45.485,49.266 45.485,49.482 45.702,49.482 45.702,49.698 45.918,49.698 45.918,49.915 46.134,49.915 46.134,50.131 
		46.35,50.131 46.35,50.348 46.567,50.348 46.567,50.563 46.784,50.563 46.784,50.78 47,50.78 47,50.996 47.215,50.996 
		47.215,51.213 47.432,51.213 47.432,51.43 47.649,51.43 47.649,51.646 47.866,51.646 47.866,51.862 48.081,51.862 48.081,52.079 
		48.297,52.079 48.297,52.296 48.514,52.296 48.514,52.512 48.731,52.512 48.731,52.728 48.947,52.728 48.947,52.944 49.164,52.944 
		49.164,53.161 49.38,53.161 49.38,53.377 49.596,53.377 	"/>
	<polygon fill-rule="evenodd" clip-rule="evenodd" points="49.596,39.095 50.03,39.095 50.03,53.81 49.596,53.81 49.596,53.593 
		49.38,53.593 49.38,53.377 49.164,53.377 49.164,53.161 48.947,53.161 48.947,52.944 48.731,52.944 48.731,52.728 48.514,52.728 
		48.514,52.512 48.297,52.512 48.297,52.296 48.081,52.296 48.081,52.079 47.866,52.079 47.866,51.862 47.649,51.862 47.649,51.646 
		47.432,51.646 47.432,51.43 47.215,51.43 47.215,51.213 47,51.213 47,50.996 46.784,50.996 46.784,50.78 46.567,50.78 
		46.567,50.563 46.35,50.563 46.35,50.348 46.134,50.348 46.134,50.131 45.918,50.131 45.918,49.915 45.702,49.915 45.702,49.698 
		45.485,49.698 45.485,49.482 45.268,49.482 45.268,49.266 45.053,49.266 45.053,49.05 44.836,49.05 44.836,48.832 44.62,48.832 
		44.62,48.616 44.403,48.616 44.403,48.399 44.187,48.399 44.187,48.184 43.97,48.184 43.97,47.967 43.753,47.967 43.753,47.751 
		43.538,47.751 43.538,47.534 43.322,47.534 43.322,47.318 43.105,47.318 43.105,47.102 42.888,47.102 42.888,46.886 42.672,46.886 
		42.672,46.669 42.456,46.669 42.456,46.452 42.239,46.452 42.239,46.235 42.022,46.235 42.022,46.02 41.807,46.02 41.807,45.803 
		41.588,45.803 41.588,45.587 41.374,45.587 41.374,45.37 41.157,45.37 41.157,62.682 40.941,62.682 40.941,62.466 40.723,62.466 
		40.723,62.25 40.508,62.25 40.508,62.033 40.292,62.033 40.292,61.816 40.076,61.816 40.076,61.601 39.858,61.601 39.858,61.384 
		39.643,61.384 39.643,61.168 39.426,61.168 39.426,60.951 39.209,60.951 39.209,60.735 38.993,60.735 38.993,60.519 38.778,60.519 
		38.778,60.302 38.561,60.302 38.561,60.085 38.344,60.085 38.344,59.868 38.126,59.868 38.126,59.652 37.912,59.652 37.912,59.437 
		37.695,59.437 37.695,59.22 37.479,59.22 37.479,59.003 37.261,59.003 37.261,58.787 37.045,58.787 37.045,58.571 36.829,58.571 
		36.829,58.354 36.614,58.354 36.614,58.138 36.395,58.138 36.395,57.921 36.18,57.921 36.18,57.705 35.963,57.705 35.963,57.488 
		35.747,57.488 35.747,57.271 35.53,57.271 35.53,57.056 35.314,57.056 35.314,56.84 35.098,56.84 35.098,56.623 34.881,56.623 
		34.881,56.406 34.665,56.406 34.665,56.19 34.449,56.19 34.449,55.974 34.233,55.974 34.233,55.758 34.016,55.758 34.016,55.541 
		33.799,55.541 33.799,55.325 33.583,55.325 33.583,55.108 33.368,55.108 33.368,54.892 33.151,54.892 33.151,54.675 32.934,54.675 
		32.934,54.458 32.717,54.458 32.717,54.242 32.501,54.242 32.501,54.026 32.285,54.026 32.285,39.095 32.501,39.095 32.717,39.095 
		32.934,39.095 33.151,39.095 33.368,39.095 33.583,39.095 33.799,39.095 34.016,39.095 34.233,39.095 34.449,39.095 34.665,39.095 
		34.881,39.095 35.098,39.095 35.314,39.095 35.53,39.095 35.747,39.095 35.963,39.095 36.18,39.095 36.395,39.095 36.614,39.095 
		36.829,39.095 37.045,39.095 37.261,39.095 37.479,39.095 37.695,39.095 37.912,39.095 38.126,39.095 38.344,39.095 38.561,39.095 
		38.778,39.095 38.993,39.095 39.209,39.095 39.426,39.095 39.643,39.095 39.858,39.095 40.076,39.095 40.292,39.095 40.508,39.095 
		40.723,39.095 40.941,39.095 41.157,39.095 41.374,39.095 41.588,39.095 41.807,39.095 42.022,39.095 42.239,39.095 42.456,39.095 
		42.672,39.095 42.888,39.095 43.105,39.095 43.322,39.095 43.538,39.095 43.753,39.095 43.97,39.095 44.187,39.095 44.403,39.095 
		44.62,39.095 44.836,39.095 45.053,39.095 45.268,39.095 45.485,39.095 45.702,39.095 45.918,39.095 46.134,39.095 46.35,39.095 
		46.567,39.095 46.784,39.095 47,39.095 47.215,39.095 47.432,39.095 47.649,39.095 47.866,39.095 48.081,39.095 48.297,39.095 
		48.514,39.095 48.731,39.095 48.947,39.095 49.164,39.095 49.38,39.095 	"/>
</g>
</svg>
