<?xml version="1.0" encoding="utf-8"?>
<!-- Generator: Adobe Illustrator 16.0.3, SVG Export Plug-In . SVG Version: 6.00 Build 0)  -->
<!DOCTYPE svg PUBLIC "-//W3C//DTD SVG 1.1//EN" "http://www.w3.org/Graphics/SVG/1.1/DTD/svg11.dtd">
<svg version="1.1" id="Layer_2" xmlns="http://www.w3.org/2000/svg" xmlns:xlink="http://www.w3.org/1999/xlink" x="0px" y="0px"
	 width="160px" height="110px" viewBox="0 0 160 110" enable-background="new 0 0 160 110" xml:space="preserve">
<g>
	<path d="M63.813,45.465l-9.164,19.078h3.201l2.195-4.634h8.426l2.068,4.634h3.251L64.95,45.465H63.813z M64.341,50.717l2.921,6.487
		h-5.98L64.341,50.717z"/>
	<rect x="76.885" y="45.465" width="2.971" height="19.079"/>
	<path d="M95.44,54.609h8.135v0.632c0,1.43-0.172,2.701-0.521,3.804c-0.341,1.021-0.915,1.977-1.722,2.867
		c-1.828,1.994-4.154,2.988-6.975,2.988c-2.756,0-5.115-0.962-7.078-2.89c-1.965-1.937-2.946-4.259-2.946-6.969
		c0-2.767,1.001-5.114,2.997-7.042c1.999-1.938,4.429-2.903,7.293-2.903c1.541,0,2.977,0.303,4.311,0.909
		c1.276,0.606,2.529,1.593,3.763,2.958l-2.118,1.964c-1.615-2.083-3.583-3.125-5.904-3.125c-2.082,0-3.83,0.695-5.24,2.087
		c-1.409,1.369-2.117,3.081-2.117,5.139c0,2.127,0.787,3.878,2.361,5.253c1.469,1.277,3.064,1.916,4.78,1.916
		c1.464,0,2.775-0.479,3.941-1.43c1.165-0.962,1.814-2.113,1.951-3.451H95.44V54.609z"/>
	<path d="M47.573,71.993h64.854V38.007H47.573V71.993z M50.27,40.628h59.46v28.744H50.27V40.628z"/>
</g>
</svg>
