<?xml version="1.0" encoding="utf-8"?>
<!-- Generator: Adobe Illustrator 22.0.1, SVG Export Plug-In . SVG Version: 6.00 Build 0)  -->
<svg version="1.1" id="Layer_2_1_" xmlns="http://www.w3.org/2000/svg" xmlns:xlink="http://www.w3.org/1999/xlink" x="0px" y="0px"
	 viewBox="0 0 160 110" style="enable-background:new 0 0 160 110;" xml:space="preserve">
<g>
	<g>
		<path d="M42.3,38.8h-11l-10.5,30h7.6c2.1,0,3.9-1.3,4.6-3.2L42.3,38.8z"/>
		<path d="M42.3,60.6h1.4v7h4.2v1.2h-5.6V60.6z"/>
		<path d="M61.3,68.8H60V68h0c-0.2,0.3-0.4,0.5-0.7,0.7s-0.6,0.3-1,0.3c-0.8,0-1.3-0.2-1.7-0.6c-0.4-0.4-0.5-1-0.5-1.8v-3.8h1.3v3.6
			c0,0.5,0.1,0.9,0.3,1.1s0.5,0.3,0.8,0.3c0.3,0,0.5,0,0.7-0.1c0.2-0.1,0.3-0.2,0.5-0.3c0.1-0.1,0.2-0.3,0.2-0.5s0.1-0.4,0.1-0.6
			v-3.5h1.3L61.3,68.8L61.3,68.8z"/>
		<path d="M62.8,62.9H64v0.9l0,0c0.2-0.3,0.5-0.6,0.8-0.8c0.3-0.2,0.7-0.3,1.1-0.3c0.6,0,1.2,0.2,1.5,0.5c0.4,0.3,0.6,0.8,0.6,1.5
			v4.1h-1.3v-3.7c0-0.5-0.1-0.8-0.3-1c-0.2-0.2-0.5-0.3-0.9-0.3c-0.2,0-0.4,0-0.6,0.1c-0.2,0.1-0.3,0.2-0.5,0.3
			c-0.1,0.1-0.2,0.3-0.3,0.5s-0.1,0.4-0.1,0.6v3.5h-1.3V62.9L62.8,62.9z"/>
		<path d="M75.2,68.8h-1.2V68h0c-0.2,0.3-0.4,0.6-0.8,0.7S72.4,69,72,69c-0.5,0-0.9-0.1-1.2-0.2c-0.4-0.2-0.6-0.4-0.9-0.7
			c-0.2-0.3-0.4-0.6-0.5-1c-0.1-0.4-0.2-0.8-0.2-1.2c0-0.5,0.1-1,0.2-1.4c0.1-0.4,0.3-0.7,0.6-1c0.2-0.3,0.5-0.4,0.8-0.6
			c0.3-0.1,0.6-0.2,1-0.2c0.2,0,0.4,0,0.6,0c0.2,0,0.4,0.1,0.6,0.2c0.2,0.1,0.3,0.2,0.5,0.3c0.1,0.1,0.3,0.3,0.4,0.4h0v-3h1.3
			L75.2,68.8L75.2,68.8z M70.6,65.9c0,0.3,0,0.5,0.1,0.7c0.1,0.2,0.2,0.5,0.3,0.6c0.1,0.2,0.3,0.3,0.5,0.5c0.2,0.1,0.5,0.2,0.7,0.2
			c0.3,0,0.6-0.1,0.7-0.2c0.2-0.1,0.4-0.3,0.5-0.5c0.1-0.2,0.2-0.4,0.3-0.7c0.1-0.2,0.1-0.5,0.1-0.8c0-0.6-0.1-1.2-0.4-1.5
			c-0.3-0.4-0.7-0.6-1.2-0.6c-0.3,0-0.6,0.1-0.8,0.2c-0.2,0.1-0.4,0.3-0.5,0.5c-0.1,0.2-0.2,0.4-0.3,0.7
			C70.6,65.4,70.6,65.7,70.6,65.9z"/>
		<path d="M76.7,62.9h1.2V64h0c0-0.2,0.1-0.3,0.2-0.5c0.1-0.1,0.2-0.3,0.4-0.4c0.2-0.1,0.3-0.2,0.5-0.3c0.2-0.1,0.4-0.1,0.6-0.1
			c0.1,0,0.3,0,0.3,0s0.1,0,0.2,0V64c-0.1,0-0.2,0-0.3,0c-0.1,0-0.2,0-0.3,0c-0.2,0-0.4,0-0.6,0.1c-0.2,0.1-0.4,0.2-0.5,0.4
			c-0.1,0.2-0.3,0.4-0.3,0.6C78,65.4,78,65.7,78,66v2.8h-1.3V62.9z"/>
		<path d="M80.8,62.9h1.4l1.6,4.4h0l1.5-4.4h1.4l-2.3,6.3c-0.1,0.3-0.2,0.5-0.3,0.8c-0.1,0.2-0.2,0.5-0.4,0.6
			c-0.1,0.2-0.3,0.3-0.6,0.5s-0.5,0.2-0.8,0.2c-0.3,0-0.6,0-0.9-0.1V70c0.1,0,0.2,0,0.3,0c0.1,0,0.2,0,0.3,0c0.1,0,0.3,0,0.4,0
			c0.1,0,0.2-0.1,0.2-0.2c0.1-0.1,0.1-0.2,0.2-0.3s0.1-0.2,0.1-0.3l0.1-0.5L80.8,62.9z"/>
		<path d="M92.3,66.1c0,0.3,0,0.6,0.2,0.8c0.1,0.2,0.3,0.4,0.5,0.6c0.2,0.1,0.4,0.2,0.7,0.3c0.2,0.1,0.5,0.1,0.8,0.1
			c0.3,0,0.6,0,0.8-0.1c0.2-0.1,0.4-0.2,0.6-0.3c0.1-0.1,0.2-0.2,0.3-0.4c0.1-0.1,0.1-0.3,0.1-0.5c0-0.3-0.1-0.6-0.2-0.7
			s-0.3-0.3-0.5-0.3c-0.3-0.1-0.6-0.2-1-0.3c-0.4-0.1-0.9-0.2-1.4-0.4c-0.4-0.1-0.6-0.2-0.9-0.4c-0.2-0.1-0.4-0.3-0.6-0.5
			c-0.1-0.2-0.2-0.4-0.3-0.6c0-0.2-0.1-0.4-0.1-0.6c0-0.4,0.1-0.8,0.3-1.1c0.2-0.3,0.4-0.6,0.7-0.7c0.3-0.2,0.6-0.3,1-0.4
			s0.7-0.1,1.1-0.1c0.4,0,0.8,0,1.2,0.2c0.4,0.1,0.7,0.3,1,0.5c0.3,0.2,0.5,0.5,0.7,0.8c0.2,0.3,0.3,0.7,0.3,1.1h-1.4
			c0-0.5-0.2-0.9-0.6-1.1c-0.3-0.2-0.7-0.3-1.2-0.3c-0.2,0-0.3,0-0.5,0c-0.2,0-0.3,0.1-0.5,0.2c-0.1,0.1-0.3,0.2-0.4,0.3
			c-0.1,0.1-0.1,0.3-0.1,0.5c0,0.3,0.1,0.5,0.3,0.7c0.2,0.2,0.4,0.3,0.7,0.4c0,0,0.1,0,0.4,0.1c0.2,0,0.5,0.1,0.7,0.2
			c0.3,0.1,0.5,0.1,0.8,0.2c0.2,0.1,0.4,0.1,0.5,0.1c0.3,0.1,0.5,0.2,0.7,0.3c0.2,0.1,0.4,0.3,0.5,0.5c0.1,0.2,0.2,0.4,0.3,0.6
			c0.1,0.2,0.1,0.4,0.1,0.6c0,0.5-0.1,0.9-0.3,1.2c-0.2,0.3-0.4,0.6-0.7,0.8c-0.3,0.2-0.6,0.4-1.1,0.5C95,69,94.6,69,94.2,69
			c-0.5,0-0.9,0-1.3-0.2c-0.4-0.1-0.8-0.3-1.1-0.5c-0.3-0.2-0.6-0.6-0.7-0.9c-0.2-0.4-0.3-0.8-0.3-1.3L92.3,66.1L92.3,66.1z"/>
		<path d="M98.2,62.9h1.4l1.6,4.4h0l1.5-4.4h1.4l-2.3,6.3c-0.1,0.3-0.2,0.5-0.3,0.8c-0.1,0.2-0.2,0.5-0.4,0.6
			c-0.1,0.2-0.3,0.3-0.6,0.5s-0.5,0.2-0.8,0.2c-0.3,0-0.6,0-0.9-0.1V70c0.1,0,0.2,0,0.3,0c0.1,0,0.2,0,0.3,0c0.1,0,0.3,0,0.4,0
			c0.1,0,0.2-0.1,0.2-0.2c0.1-0.1,0.1-0.2,0.2-0.3s0.1-0.2,0.1-0.3l0.1-0.5L98.2,62.9z"/>
		<path d="M105.9,66.9c0,0.4,0.2,0.6,0.4,0.8c0.3,0.1,0.6,0.2,0.9,0.2c0.1,0,0.3,0,0.4,0c0.2,0,0.3,0,0.4-0.1c0.1,0,0.2-0.1,0.3-0.2
			c0.1-0.1,0.1-0.2,0.1-0.4c0-0.2-0.1-0.3-0.2-0.4c-0.1-0.1-0.3-0.2-0.4-0.3c-0.2-0.1-0.4-0.1-0.6-0.2c-0.2,0-0.5-0.1-0.7-0.1
			c-0.2,0-0.5-0.1-0.7-0.2s-0.4-0.2-0.6-0.3c-0.2-0.1-0.3-0.3-0.4-0.5c-0.1-0.2-0.2-0.5-0.2-0.7c0-0.3,0.1-0.6,0.2-0.8
			c0.2-0.2,0.4-0.4,0.6-0.5c0.2-0.1,0.5-0.2,0.8-0.3c0.3,0,0.6-0.1,0.8-0.1c0.3,0,0.6,0,0.9,0.1c0.3,0.1,0.5,0.2,0.8,0.3
			c0.2,0.1,0.4,0.3,0.6,0.6c0.1,0.2,0.2,0.5,0.3,0.8h-1.4c-0.1-0.3-0.2-0.5-0.4-0.6c-0.2-0.1-0.5-0.2-0.8-0.2c-0.1,0-0.2,0-0.3,0
			c-0.1,0-0.2,0-0.4,0.1c-0.1,0-0.2,0.1-0.3,0.2c-0.1,0.1-0.1,0.2-0.1,0.3c0,0.2,0,0.3,0.2,0.4c0.1,0.1,0.3,0.2,0.4,0.2
			c0.2,0.1,0.4,0.1,0.6,0.2c0.2,0,0.5,0.1,0.7,0.1c0.2,0,0.5,0.1,0.7,0.2c0.2,0.1,0.4,0.2,0.6,0.3s0.3,0.3,0.4,0.5
			c0.1,0.2,0.2,0.5,0.2,0.7c0,0.4-0.1,0.6-0.2,0.9c-0.2,0.2-0.4,0.5-0.6,0.6s-0.6,0.3-0.9,0.3c-0.3,0.1-0.6,0.1-0.9,0.1
			c-0.4,0-0.7,0-1-0.1s-0.6-0.2-0.8-0.4c-0.2-0.2-0.4-0.4-0.6-0.6s-0.2-0.6-0.2-0.9L105.9,66.9L105.9,66.9z"/>
		<path d="M110.5,62.9h1v-1.8h1.3v1.8h1.2v1h-1.2V67c0,0.1,0,0.3,0,0.4c0,0.1,0,0.2,0.1,0.3c0,0.1,0.1,0.1,0.2,0.1s0.2,0,0.3,0
			c0.1,0,0.2,0,0.3,0s0.2,0,0.3,0v1c-0.1,0-0.3,0-0.4,0c-0.1,0-0.3,0-0.4,0c-0.3,0-0.6,0-0.8-0.1s-0.4-0.2-0.5-0.3s-0.2-0.3-0.2-0.5
			c0-0.2-0.1-0.4-0.1-0.6v-3.5h-1V62.9z"/>
		<path d="M116,66.2c0,0.2,0,0.5,0.1,0.7c0.1,0.2,0.2,0.4,0.3,0.6c0.1,0.2,0.3,0.3,0.5,0.4c0.2,0.1,0.4,0.1,0.7,0.1
			c0.4,0,0.7-0.1,0.9-0.2c0.2-0.2,0.4-0.4,0.5-0.7h1.2c-0.1,0.3-0.2,0.6-0.4,0.9c-0.2,0.3-0.4,0.5-0.6,0.6c-0.2,0.2-0.5,0.3-0.8,0.4
			c-0.3,0.1-0.6,0.1-0.9,0.1c-0.5,0-0.9-0.1-1.2-0.2c-0.4-0.1-0.7-0.4-0.9-0.6c-0.2-0.3-0.4-0.6-0.6-1c-0.1-0.4-0.2-0.8-0.2-1.3
			c0-0.4,0.1-0.8,0.2-1.2c0.1-0.4,0.3-0.7,0.6-1c0.2-0.3,0.6-0.5,0.9-0.7c0.4-0.2,0.7-0.3,1.2-0.3c0.5,0,0.9,0.1,1.2,0.3
			c0.4,0.2,0.7,0.5,0.9,0.8s0.4,0.7,0.5,1.1c0.1,0.4,0.1,0.8,0.1,1.3L116,66.2L116,66.2z M119,65.3c0-0.2,0-0.4-0.1-0.6
			c-0.1-0.2-0.2-0.4-0.3-0.5c-0.1-0.1-0.3-0.3-0.5-0.3c-0.2-0.1-0.4-0.1-0.6-0.1c-0.2,0-0.4,0-0.6,0.1s-0.4,0.2-0.5,0.3
			c-0.1,0.1-0.2,0.3-0.3,0.5c-0.1,0.2-0.1,0.4-0.1,0.6H119z"/>
		<path d="M121.6,62.9h1.2v0.8h0c0.1-0.1,0.2-0.3,0.3-0.4c0.1-0.1,0.2-0.2,0.4-0.3s0.3-0.1,0.5-0.2c0.2,0,0.4-0.1,0.6-0.1
			c0.4,0,0.7,0.1,1,0.2c0.3,0.2,0.5,0.4,0.7,0.7c0.2-0.3,0.5-0.6,0.8-0.7c0.3-0.2,0.6-0.3,1.1-0.3c0.6,0,1.1,0.1,1.5,0.5
			c0.4,0.3,0.5,0.8,0.5,1.5v4.1h-1.3v-3.5c0-0.2,0-0.5,0-0.6c0-0.2,0-0.4-0.1-0.5c-0.1-0.1-0.2-0.2-0.3-0.3
			c-0.1-0.1-0.3-0.1-0.6-0.1c-0.5,0-0.8,0.1-1,0.4c-0.2,0.3-0.3,0.7-0.3,1.2v3.5h-1.3V65c0-0.4-0.1-0.7-0.2-0.9
			c-0.1-0.2-0.4-0.3-0.8-0.3c-0.2,0-0.3,0-0.5,0.1c-0.2,0.1-0.3,0.2-0.4,0.3s-0.2,0.3-0.3,0.5c-0.1,0.2-0.1,0.4-0.1,0.6v3.5h-1.3
			L121.6,62.9L121.6,62.9z"/>
		<path d="M132.7,66.9c0,0.4,0.2,0.6,0.4,0.8c0.3,0.1,0.6,0.2,0.9,0.2c0.1,0,0.3,0,0.4,0c0.2,0,0.3,0,0.4-0.1c0.1,0,0.2-0.1,0.3-0.2
			c0.1-0.1,0.1-0.2,0.1-0.4c0-0.2-0.1-0.3-0.2-0.4s-0.3-0.2-0.4-0.3c-0.2-0.1-0.4-0.1-0.6-0.2s-0.5-0.1-0.7-0.1s-0.5-0.1-0.7-0.2
			c-0.2-0.1-0.4-0.2-0.6-0.3c-0.2-0.1-0.3-0.3-0.4-0.5c-0.1-0.2-0.2-0.5-0.2-0.7c0-0.3,0.1-0.6,0.2-0.8c0.2-0.2,0.4-0.4,0.6-0.5
			c0.2-0.1,0.5-0.2,0.8-0.3c0.3,0,0.6-0.1,0.8-0.1c0.3,0,0.6,0,0.9,0.1c0.3,0.1,0.5,0.2,0.8,0.3c0.2,0.1,0.4,0.3,0.6,0.6
			s0.2,0.5,0.3,0.8h-1.4c-0.1-0.3-0.2-0.5-0.4-0.6c-0.2-0.1-0.5-0.2-0.8-0.2c-0.1,0-0.2,0-0.3,0c-0.1,0-0.2,0-0.4,0.1
			c-0.1,0-0.2,0.1-0.3,0.2c-0.1,0.1-0.1,0.2-0.1,0.3c0,0.2,0,0.3,0.2,0.4c0.1,0.1,0.3,0.2,0.4,0.2c0.2,0.1,0.4,0.1,0.6,0.2
			c0.2,0,0.5,0.1,0.7,0.1c0.2,0,0.5,0.1,0.7,0.2c0.2,0.1,0.4,0.2,0.6,0.3c0.2,0.1,0.3,0.3,0.4,0.5c0.1,0.2,0.2,0.5,0.2,0.7
			c0,0.4-0.1,0.6-0.2,0.9c-0.2,0.2-0.4,0.5-0.6,0.6s-0.6,0.3-0.9,0.3S134.4,69,134,69c-0.4,0-0.7,0-1-0.1c-0.3-0.1-0.6-0.2-0.8-0.4
			c-0.2-0.2-0.4-0.4-0.6-0.6c-0.1-0.3-0.2-0.6-0.2-0.9L132.7,66.9L132.7,66.9z"/>
		<path d="M53.2,62.9v0.8h0c-0.1-0.2-0.2-0.3-0.4-0.4c-0.1-0.1-0.3-0.2-0.5-0.3c-0.2-0.1-0.4-0.1-0.6-0.2c-0.2,0-0.4,0-0.6,0
			c-0.3,0-0.6,0-1,0.2c-0.3,0.1-0.6,0.3-0.8,0.6c-0.2,0.3-0.4,0.6-0.6,1c-0.1,0.4-0.2,0.9-0.2,1.4c0,0.5,0,0.9,0.2,1.2
			c0.1,0.4,0.3,0.7,0.5,1s0.5,0.5,0.9,0.7c0.4,0.2,0.8,0.2,1.2,0.2c0.4,0,0.7-0.1,1.1-0.2c0.3-0.1,0.6-0.4,0.8-0.7h0v0.8h1.2v-5.9
			L53.2,62.9L53.2,62.9z M53.1,66.6c-0.1,0.2-0.2,0.5-0.3,0.7c-0.1,0.2-0.3,0.4-0.5,0.5S51.9,68,51.6,68c-0.3,0-0.5,0-0.7-0.2
			c-0.2-0.1-0.4-0.3-0.5-0.5c-0.1-0.2-0.2-0.4-0.3-0.6c-0.1-0.2-0.1-0.5-0.1-0.7c0-0.3,0-0.5,0.1-0.8c0-0.3,0.1-0.5,0.3-0.7
			c0.1-0.2,0.3-0.4,0.5-0.5s0.5-0.2,0.8-0.2c0.5,0,0.9,0.2,1.2,0.6c0.3,0.4,0.4,0.9,0.4,1.5C53.2,66.1,53.2,66.4,53.1,66.6z"/>
		<path d="M100.6,42.7c-1.5,0-2.9,0.5-4.1,1.4v-1h-2.7V56l0,0h2.7h0.7v-6.4l0,0c0-1.9,1.5-3.4,3.4-3.4c1.9,0,3.4,1.5,3.4,3.4V56h3.4
			v-6.4l0,0C107.5,45.8,104.4,42.7,100.6,42.7z"/>
		<path d="M88.5,44.1c-1.1-0.9-2.5-1.4-4.1-1.4c-3.7,0-6.8,3-6.8,6.8s3,6.8,6.8,6.8c1.5,0,2.9-0.5,4.1-1.4v1h2.7V43.1h-2.7V44.1z
			 M84.4,52.9c-1.9,0-3.4-1.5-3.4-3.4c0-1.9,1.5-3.4,3.4-3.4c1.9,0,3.4,1.5,3.4,3.4C87.8,51.4,86.3,52.9,84.4,52.9z"/>
		<path d="M48.3,38.8l-6,17.2h2.5c0.7,0,1.3-0.4,1.5-1.1l0.8-2.3h6.4l1.2,3.4h3.7l-6-17.2H48.3z M48.1,49.8l2.3-6.5l2.3,6.5H48.1z"
			/>
		<rect x="72.2" y="43.1" width="3.4" height="12.9"/>
		<rect x="72.2" y="38.8" width="3.4" height="2.7"/>
		<rect x="66.2" y="38.8" width="3.4" height="17.2"/>
		<rect x="60.2" y="38.8" width="3.4" height="17.2"/>
		<path d="M116,46.1c1,0,2,0.5,2.6,1.2l3.5-0.8c-1.1-2.3-3.4-3.8-6.1-3.8c-3.7,0-6.8,3-6.8,6.8l0,0c0,3.7,3,6.8,6.8,6.8
			c2.7,0,5-1.6,6.1-3.8l-3.5-0.8c-0.6,0.7-1.6,1.2-2.6,1.2c-1.9,0-3.4-1.5-3.4-3.4C112.6,47.7,114.1,46.1,116,46.1z"/>
		<path d="M136.8,49.2C136.8,49.2,136.8,49.2,136.8,49.2c-0.2-3.6-3.1-6.5-6.8-6.5c-3.7,0-6.8,3-6.8,6.8l0,0l0,0
			c0,3.7,3,6.8,6.8,6.8c2.7,0,5-1.6,6.1-3.8l-3.5-0.8c-0.6,0.7-1.6,1.2-2.6,1.2c-1.4,0-2.6-0.8-3.1-2h9.8c0.1-0.4,0.1-0.9,0.1-1.4
			l0,0l0,0C136.8,49.4,136.8,49.3,136.8,49.2z M130,46.1c1.4,0,2.6,0.8,3.1,2h-6.2C127.5,47,128.6,46.1,130,46.1z"/>
	</g>
	<g>
		<path d="M136.8,40.7v-0.2h1.8v0.2h-0.7v2h-0.3v-2H136.8z"/>
		<path d="M139.3,40.5l0.7,1.9l0.7-1.9h0.4v2.3h-0.3v-1.9l0,0l-0.7,1.9h-0.3l-0.7-1.9l0,0v1.9h-0.3v-2.2H139.3z"/>
	</g>
</g>
</svg>
