<?xml version="1.0" encoding="utf-8"?>
<!-- Generator: Adobe Illustrator 16.0.3, SVG Export Plug-In . SVG Version: 6.00 Build 0)  -->
<!DOCTYPE svg PUBLIC "-//W3C//DTD SVG 1.1//EN" "http://www.w3.org/Graphics/SVG/1.1/DTD/svg11.dtd">
<svg version="1.1" id="Layer_2" xmlns="http://www.w3.org/2000/svg" xmlns:xlink="http://www.w3.org/1999/xlink" x="0px" y="0px"
	 width="160px" height="110px" viewBox="0 0 160 110" enable-background="new 0 0 160 110" xml:space="preserve">
<g>
	<path d="M40.118,55.944h-3.24l1.725-5.689L40.118,55.944z M35.204,62.319l1.104-3.777h4.363l1.032,3.777h4.042l-4.019-14.342
		c-0.23-0.84-0.735-1.238-1.608-1.238h-5.719v1.331h0.485c0.592,0,0.917,0.231,0.917,0.697c0,0.302-0.069,0.56-0.299,1.265
		l-4.02,12.287H35.204z"/>
	<path d="M50.71,62.319v-14.39c0-0.749-0.431-1.19-1.132-1.19h-3.489v1.331h0.231c0.598,0,0.85,0.258,0.85,0.866v13.383H50.71z"/>
	<path d="M56.966,62.319v-14.39c0-0.749-0.432-1.19-1.132-1.19h-3.489v1.331h0.232c0.598,0,0.849,0.258,0.849,0.866v13.383H56.966z"
		/>
	<path d="M63.222,48.154c0-1.032-0.736-1.651-2.009-1.651c-1.256,0-2.014,0.619-2.014,1.651c0,1.033,0.758,1.653,2.014,1.653
		C62.485,49.807,63.222,49.187,63.222,48.154z M63.222,62.319V51.717c0-0.752-0.433-1.203-1.135-1.203h-3.46v1.416h0.205
		c0.598,0,0.849,0.281,0.849,0.895v9.494H63.222z"/>
	<path d="M71.21,56.737v2.25c-0.606,0.626-1.351,1-1.978,1c-0.653,0-0.887-0.324-0.887-1.185c0-0.858,0.185-1.255,0.838-1.507
		C69.674,57.084,70.301,56.899,71.21,56.737z M66.396,54.019c1.187-0.583,2.485-0.908,3.511-0.908c0.959,0,1.304,0.352,1.304,1.373
		v0.255c-1.45,0.231-1.905,0.324-2.724,0.512c-0.475,0.113-0.907,0.256-1.335,0.443c-1.432,0.579-2.109,1.717-2.109,3.463
		c0,2.209,0.929,3.279,2.857,3.279c0.701,0,1.337-0.141,1.904-0.373c0.497-0.236,0.793-0.424,1.52-1.008v0.164
		c0,0.727,0.373,1.1,1.091,1.1h3.317v-1.333h-0.163c-0.619,0-0.849-0.257-0.849-0.95v-5.531c0-2.965-1.011-3.99-3.92-3.99
		c-0.94,0-1.858,0.119-2.752,0.33c-0.893,0.209-1.354,0.394-2.43,0.934L66.396,54.019z"/>
	<path d="M81.195,62.319v-7.928c0.639-0.679,1.303-0.984,2.062-0.984c0.812,0,1.007,0.306,1.007,1.479v7.434h3.542v-8.026
		c0-1.864-0.142-2.454-0.731-3.093c-0.489-0.541-1.242-0.826-2.209-0.826c-1.432,0-2.44,0.467-3.807,1.793v-0.482
		c0-0.771-0.365-1.17-1.092-1.17h-3.366v1.416h0.205c0.598,0,0.848,0.281,0.848,0.895v9.494H81.195z"/>
	<path d="M98.715,59.934h-5.003l4.775-6.8v-2.383h-7.562c-0.855,0-1.25,0.394-1.25,1.254v2.109h1.416v-0.21
		c0-0.535,0.276-0.794,0.848-0.794h2.575l-4.839,6.867v2.341h9.04V59.934z"/>
	<path d="M117.895,61.588V48.592c0-1.036-0.335-1.382-1.339-1.382h-2.926v1.416h0.173h0.308c0.11,0,0.217,0.069,0.306,0.163
		c0.129,0.161,0.173,0.323,0.173,0.67v12.129H117.895z M119.546,61.588h3.306V51.75c0-0.992-0.361-1.386-1.356-1.386h-1.949V61.588z
		 M113.173,61.588V50.364h-1.955c-0.966,0-1.351,0.394-1.351,1.386v9.839H113.173z M126.156,54.99
		c0,5.881-4.199,10.159-9.914,10.159c-5.744,0-9.915-4.278-9.915-10.159c0-5.861,4.171-10.14,9.915-10.14
		C121.957,44.85,126.156,49.128,126.156,54.99z M128.517,54.99c0-7.16-5.241-12.501-12.264-12.501s-12.286,5.341-12.286,12.501
		c0,7.181,5.264,12.521,12.286,12.521S128.517,62.17,128.517,54.99z"/>
</g>
</svg>
