<?xml version="1.0" encoding="utf-8"?>
<!-- Generator: Adobe Illustrator 16.0.3, SVG Export Plug-In . SVG Version: 6.00 Build 0)  -->
<!DOCTYPE svg PUBLIC "-//W3C//DTD SVG 1.1//EN" "http://www.w3.org/Graphics/SVG/1.1/DTD/svg11.dtd">
<svg version="1.1" id="Layer_2" xmlns="http://www.w3.org/2000/svg" xmlns:xlink="http://www.w3.org/1999/xlink" x="0px" y="0px"
	 width="160px" height="110px" viewBox="0 0 160 110" enable-background="new 0 0 160 110" xml:space="preserve">
<g>
	<g>
		<path fill="#231F20" d="M25.757,60.671l-1.985-4.927h-0.281l-1.967,4.895l-0.52,0.086v0.327h1.662v-0.311l-0.684-0.093
			l0.516-1.308h1.975l0.525,1.331l-0.702,0.068v0.312h1.964v-0.311L25.757,60.671z M24.323,58.959h-1.672l0.828-2.151L24.323,58.959
			z"/>
		<path fill="#231F20" d="M30.608,59.079c-0.066-0.153-0.162-0.291-0.287-0.416c-0.123-0.124-0.274-0.239-0.453-0.346
			c-0.176-0.106-0.377-0.212-0.6-0.322c-0.262-0.131-0.475-0.242-0.637-0.332c-0.159-0.091-0.287-0.179-0.377-0.263
			s-0.149-0.169-0.183-0.258c-0.032-0.088-0.05-0.197-0.05-0.325c0-0.124,0.025-0.237,0.08-0.338
			c0.053-0.104,0.123-0.192,0.213-0.266c0.088-0.072,0.193-0.127,0.312-0.167c0.123-0.038,0.247-0.058,0.377-0.058
			c0.201,0,0.383,0.034,0.543,0.1c0.158,0.067,0.298,0.182,0.415,0.344l0.153,0.763h0.311l0.035-1.588h-0.308l-0.101,0.233
			c-0.149-0.075-0.305-0.134-0.468-0.173c-0.171-0.04-0.369-0.061-0.591-0.061c-0.219,0-0.424,0.033-0.617,0.097
			c-0.192,0.062-0.363,0.153-0.511,0.275c-0.147,0.121-0.265,0.268-0.349,0.433c-0.083,0.169-0.125,0.358-0.125,0.566
			c0,0.19,0.027,0.359,0.082,0.507c0.056,0.147,0.14,0.285,0.257,0.408c0.115,0.125,0.261,0.243,0.438,0.354
			c0.18,0.113,0.395,0.227,0.646,0.349c0.233,0.108,0.428,0.209,0.585,0.298c0.154,0.09,0.283,0.184,0.381,0.271
			c0.098,0.09,0.166,0.184,0.209,0.285c0.041,0.099,0.062,0.216,0.062,0.351c0,0.297-0.107,0.532-0.321,0.708
			c-0.216,0.176-0.49,0.266-0.823,0.266c-0.232,0-0.437-0.052-0.619-0.151c-0.184-0.104-0.342-0.24-0.477-0.416l-0.18-0.829
			l-0.31,0.029l0.052,1.781h0.307l0.1-0.256c0.15,0.08,0.318,0.143,0.506,0.188c0.197,0.046,0.438,0.068,0.725,0.068
			c0.225,0,0.439-0.04,0.643-0.121c0.205-0.08,0.386-0.188,0.541-0.328c0.157-0.139,0.28-0.305,0.373-0.499
			c0.092-0.191,0.138-0.402,0.138-0.627C30.707,59.411,30.673,59.233,30.608,59.079z"/>
		<polygon fill="#231F20" points="34.147,56.056 34.147,55.745 32.106,55.745 32.106,56.056 32.774,56.123 32.774,60.672 
			32.106,60.741 32.106,61.052 34.147,61.052 34.147,60.741 33.478,60.672 33.478,56.123 		"/>
		<path fill="#231F20" d="M39.887,60.671l-1.984-4.927H37.62l-1.967,4.895l-0.52,0.086v0.327h1.664v-0.311l-0.686-0.093l0.516-1.308
			h1.977l0.525,1.331l-0.701,0.068v0.312h1.961v-0.311L39.887,60.671z M38.451,58.959h-1.669l0.826-2.151L38.451,58.959z"/>
		<polygon fill="#231F20" points="45.013,55.745 45.013,56.055 45.681,56.156 45.681,59.746 42.432,55.745 41.3,55.745 41.3,56.055 
			41.814,56.132 41.968,56.317 41.968,60.64 41.3,60.742 41.3,61.052 43.084,61.052 43.084,60.742 42.417,60.64 42.417,56.835 
			45.887,61.085 46.129,61.085 46.129,56.156 46.795,56.055 46.795,55.745 		"/>
		<path fill="#231F20" d="M54.381,56.559c-0.094-0.175-0.223-0.323-0.387-0.444c-0.166-0.121-0.357-0.212-0.58-0.277
			c-0.221-0.062-0.461-0.093-0.719-0.093h-2.133v0.312l0.668,0.066v4.55l-0.668,0.068v0.312h2.125v-0.312l-0.752-0.069v-1.73
			c0.043,0.005,0.096,0.009,0.156,0.011c0.07,0.003,0.125,0.004,0.168,0.004c0.365,0,0.691-0.046,0.973-0.139
			c0.28-0.091,0.516-0.216,0.707-0.375c0.189-0.157,0.334-0.349,0.434-0.571c0.096-0.222,0.146-0.463,0.146-0.722
			C54.52,56.93,54.473,56.731,54.381,56.559z M51.936,56.123c0.062-0.005,0.122-0.011,0.179-0.016
			c0.058-0.005,0.116-0.01,0.181-0.013c0.061-0.003,0.124-0.003,0.187-0.003c0.39,0,0.704,0.092,0.94,0.276
			c0.238,0.184,0.357,0.464,0.357,0.846c0,0.19-0.027,0.371-0.08,0.539c-0.055,0.168-0.14,0.315-0.258,0.441
			c-0.117,0.125-0.268,0.226-0.45,0.297c-0.183,0.073-0.4,0.11-0.655,0.11c-0.047,0-0.109-0.002-0.191-0.005
			c-0.076-0.002-0.146-0.005-0.209-0.011V56.123z"/>
		<path fill="#231F20" d="M59.932,60.647l-1.543-2.067c0.351-0.11,0.631-0.293,0.843-0.546c0.218-0.261,0.325-0.58,0.325-0.953
			c0-0.236-0.046-0.44-0.138-0.613c-0.095-0.17-0.222-0.309-0.384-0.416s-0.35-0.185-0.562-0.233s-0.436-0.073-0.671-0.073h-2.134
			v0.312l0.668,0.066v4.55l-0.668,0.068v0.312h2.128v-0.312l-0.753-0.069v-1.854l0.697-0.066l1.607,2.302h1.115v-0.31L59.932,60.647
			z M58.817,57.192c0,0.419-0.123,0.725-0.368,0.927c-0.247,0.2-0.583,0.304-1.007,0.304h-0.398v-2.3
			c0.096-0.011,0.185-0.018,0.268-0.024c0.088-0.005,0.18-0.007,0.277-0.007c0.391,0,0.692,0.087,0.906,0.26
			S58.817,56.801,58.817,57.192z"/>
		<polygon fill="#231F20" points="63.44,56.056 63.44,55.745 61.4,55.745 61.4,56.056 62.067,56.123 62.067,60.672 61.4,60.741 
			61.4,61.052 63.44,61.052 63.44,60.741 62.774,60.672 62.774,56.123 		"/>
		<polygon fill="#231F20" points="68.002,55.745 68.002,56.055 68.688,56.147 67.209,59.868 65.725,56.123 66.433,56.056 
			66.433,55.745 64.446,55.745 64.446,56.055 64.965,56.123 66.983,61.12 67.163,61.12 69.148,56.157 69.683,56.054 69.683,55.745 
					"/>
		<path fill="#231F20" d="M74.391,60.671l-1.984-4.927h-0.283l-1.969,4.894l-0.519,0.087v0.327h1.665v-0.311l-0.686-0.093
			l0.518-1.308h1.975l0.524,1.331l-0.702,0.068v0.312h1.963v-0.311L74.391,60.671z M72.956,58.959h-1.671l0.827-2.15L72.956,58.959z
			"/>
		<polygon fill="#231F20" points="75.351,55.745 75.351,57.152 75.695,57.152 75.815,56.124 77.215,56.124 77.215,60.671 
			76.463,60.741 76.463,61.052 78.674,61.052 78.674,60.741 77.921,60.671 77.921,56.124 79.322,56.124 79.442,57.152 
			79.786,57.152 79.786,55.745 		"/>
		<polygon fill="#231F20" points="84.418,59.729 84.299,60.653 82.299,60.653 82.299,58.476 83.667,58.476 83.751,59.065 
			84.079,59.065 84.079,57.506 83.751,57.506 83.667,58.095 82.299,58.095 82.299,56.124 84.198,56.124 84.316,56.98 84.662,56.98 
			84.662,55.745 80.926,55.745 80.926,56.056 81.594,56.123 81.594,60.672 80.926,60.741 80.926,61.052 84.781,61.052 
			84.781,59.729 		"/>
		<path fill="#231F20" d="M92.762,58.958c-0.078-0.158-0.185-0.293-0.321-0.398c-0.136-0.107-0.291-0.188-0.468-0.244
			c-0.17-0.053-0.35-0.088-0.537-0.106l0,0c0.137-0.029,0.27-0.075,0.396-0.14c0.128-0.067,0.242-0.151,0.342-0.252
			c0.099-0.101,0.176-0.221,0.234-0.357c0.059-0.136,0.087-0.287,0.087-0.455c0-0.442-0.151-0.769-0.453-0.966
			s-0.71-0.294-1.226-0.294h-2.133v0.312l0.669,0.066v4.55l-0.669,0.068v0.312h1.938c0.394,0,0.733-0.038,1.017-0.108
			c0.284-0.072,0.519-0.173,0.704-0.307c0.184-0.133,0.321-0.294,0.408-0.482c0.087-0.188,0.131-0.395,0.131-0.62
			C92.881,59.312,92.843,59.118,92.762,58.958z M90.049,58.46h0.664c0.484,0,0.844,0.107,1.084,0.318
			c0.239,0.214,0.359,0.487,0.359,0.825c0,0.337-0.116,0.603-0.347,0.803c-0.232,0.198-0.568,0.297-1.009,0.297
			c-0.092,0-0.184-0.002-0.273-0.008c-0.09-0.005-0.174-0.014-0.248-0.025c-0.08-0.011-0.156-0.021-0.23-0.031V58.46z
			 M91.458,57.835c-0.207,0.178-0.521,0.27-0.941,0.27h-0.467v-1.982c0.09-0.011,0.174-0.018,0.251-0.024
			c0.083-0.005,0.183-0.007,0.302-0.007c0.363,0,0.648,0.076,0.857,0.228c0.207,0.149,0.312,0.402,0.312,0.766
			C91.772,57.407,91.667,57.654,91.458,57.835z"/>
		<path fill="#231F20" d="M98.521,60.672l-1.985-4.928h-0.283l-1.969,4.895l-0.518,0.086v0.327h1.662v-0.311l-0.684-0.093
			l0.516-1.308h1.976l0.525,1.331l-0.704,0.068v0.312h1.965v-0.311L98.521,60.672z M97.084,58.959h-1.673l0.829-2.15L97.084,58.959z
			"/>
		<polygon fill="#231F20" points="103.645,55.745 103.645,56.055 104.311,56.156 104.311,59.746 101.063,55.745 99.931,55.745 
			99.931,56.055 100.447,56.132 100.598,56.317 100.598,60.64 99.931,60.743 99.931,61.052 101.717,61.052 101.717,60.742 
			101.048,60.64 101.048,56.835 104.518,61.085 104.762,61.085 104.762,56.156 105.428,56.055 105.428,55.745 		"/>
		<polygon fill="#231F20" points="110.995,60.647 108.762,58.167 110.721,56.123 111.346,56.056 111.346,55.745 109.787,55.745 
			109.787,56.055 110.202,56.119 108.129,58.274 108.046,58.274 108.046,56.123 108.711,56.056 108.711,55.745 106.671,55.745 
			106.671,56.056 107.338,56.123 107.338,60.672 106.671,60.741 106.671,61.052 108.711,61.052 108.711,60.741 108.046,60.672 
			108.046,58.613 108.274,58.613 110.403,61.052 111.527,61.052 111.527,60.743 		"/>
		<polygon fill="#231F20" points="115.99,59.729 115.868,60.653 113.871,60.653 113.871,58.477 115.237,58.477 115.323,59.065 
			115.65,59.065 115.65,57.506 115.323,57.506 115.237,58.095 113.871,58.095 113.871,56.124 115.767,56.124 115.885,56.98 
			116.231,56.98 116.231,55.745 112.497,55.745 112.497,56.056 113.164,56.123 113.164,60.672 112.497,60.741 112.497,61.052 
			116.35,61.052 116.35,59.729 		"/>
		<path fill="#231F20" d="M121.996,60.647l-1.544-2.067c0.349-0.11,0.63-0.292,0.842-0.546c0.218-0.261,0.325-0.58,0.325-0.953
			c0-0.236-0.046-0.44-0.139-0.613c-0.093-0.17-0.22-0.309-0.382-0.416c-0.163-0.107-0.35-0.185-0.562-0.233
			s-0.438-0.073-0.672-0.073h-2.131v0.312l0.665,0.066v4.55l-0.665,0.068v0.312h2.123v-0.312l-0.752-0.069v-1.854l0.699-0.066
			l1.607,2.302h1.115v-0.31L121.996,60.647z M119.104,56.123c0.098-0.011,0.186-0.018,0.27-0.024
			c0.088-0.005,0.18-0.007,0.276-0.007c0.39,0,0.691,0.087,0.907,0.26c0.215,0.173,0.322,0.45,0.322,0.841
			c0,0.419-0.125,0.726-0.37,0.927c-0.247,0.2-0.581,0.304-1.004,0.304h-0.401V56.123z"/>
	</g>
	<g>
		<path fill="#231F20" d="M131.868,62.108c-3.918-0.012-7.088-3.192-7.088-7.108l0,0c0-0.004,0-0.013,0-0.026l0,0
			c0.015-3.915,3.193-7.081,7.106-7.081l0,0c0.007,0,0.015,0,0.022,0l0,0c3.919,0.011,7.087,3.191,7.087,7.107l0,0
			c0,0.009,0,0.013,0,0.015l0,0v0.007c-0.011,3.919-3.192,7.087-7.107,7.087l0,0C131.88,62.108,131.875,62.108,131.868,62.108
			L131.868,62.108z"/>
		<path fill="#FFFFFF" d="M134.217,55.007c0.004-1.281-1.035-2.322-2.322-2.325s-2.332,1.031-2.338,2.311
			c-0.002,1.279,1.037,2.321,2.323,2.324C133.167,57.322,134.213,56.286,134.217,55.007z M131.901,48.197h-0.015
			c-3.747,0-6.79,3.033-6.801,6.783v0.005v0.006c0,0,0,0,0,0.009c0,3.748,3.031,6.793,6.776,6.804c0.012,0,0.021,0,0.026,0
			c3.746,0,6.79-3.03,6.803-6.778c0-0.013,0-0.021,0-0.025C138.691,51.251,135.659,48.208,131.901,48.197z M136.364,50.399
			l-3.044,2.258l-0.002-0.001l-1.373-4.049l-0.007-0.021C133.66,48.599,135.219,49.288,136.364,50.399z M136.186,50.694
			c-0.727,0.721-2.094,2.081-2.367,2.352c-0.117-0.115-0.244-0.221-0.379-0.314L136.186,50.694z M131.886,48.773v3.479
			c-0.488,0-0.945,0.129-1.343,0.353L131.886,48.773z M131.815,48.587l-1.443,4.115l-3.001-2.267
			C128.515,49.307,130.084,48.606,131.815,48.587z M129.95,53.053c-0.113,0.111-0.213,0.232-0.305,0.361l-2.077-2.715
			C128.313,51.434,129.676,52.78,129.95,53.053z M127.278,50.534l2.291,2.996l-0.004,0.007l-4.102,1.382
			C125.484,53.213,126.171,51.67,127.278,50.534z M129.478,56.314l-3.828-1.333l3.489,0.003v0.003c0,0.009,0,0.013,0,0.013
			C129.139,55.476,129.264,55.923,129.478,56.314z M125.461,55.054l4.123,1.435c0,0,0.002,0.002,0.002,0.003l-2.327,2.958
			C126.157,58.309,125.476,56.76,125.461,55.054z M129.899,56.886c0.128,0.135,0.269,0.256,0.419,0.362l-2.849,2.053
			C128.196,58.58,129.61,57.173,129.899,56.886z M127.354,59.546l3.08-2.223c0.004,0.003,0.008,0.005,0.012,0.009l1.349,4.081
			C130.061,61.389,128.495,60.681,127.354,59.546z M129.27,55L129.27,55v-0.004v-0.005c0.006-1.443,1.176-2.61,2.618-2.61l0,0
			c0.935,0.002,1.747,0.49,2.212,1.221l-0.004,0.008l0.011,0.004c0.251,0.402,0.399,0.876,0.399,1.385c0,0,0,0.004,0,0.009
			c-0.004,1.448-1.182,2.611-2.618,2.611h-0.002c-0.002,0-0.006,0-0.011,0C130.458,57.613,129.27,56.44,129.27,55z M134.637,55.001
			v-0.003c0-0.478-0.123-0.926-0.338-1.316l3.832,1.338l-3.494-0.001c0-0.005,0-0.009,0-0.012V55.001z M134.137,56.568l2.074,2.746
			c-0.728-0.729-2.109-2.108-2.378-2.377C133.946,56.824,134.045,56.699,134.137,56.568z M131.88,61.205v-3.456h0.008
			c0.483,0,0.94-0.127,1.336-0.349L131.88,61.205z M131.945,61.415l1.452-4.113l3.005,2.266
			C135.253,60.697,133.681,61.399,131.945,61.415z M136.495,59.473l-2.279-3.019c0.002-0.003,0.006-0.006,0.007-0.011l4.092-1.355
			C138.291,56.793,137.601,58.336,136.495,59.473z M134.2,53.509l2.248-3.009l0.012-0.01c1.136,1.146,1.84,2.719,1.855,4.455
			L134.2,53.509z"/>
	</g>
</g>
</svg>
