<?xml version="1.0" encoding="utf-8"?>
<!-- Generator: Adobe Illustrator 21.0.2, SVG Export Plug-In . SVG Version: 6.00 Build 0)  -->
<svg version="1.1" id="Layer_2" xmlns="http://www.w3.org/2000/svg" xmlns:xlink="http://www.w3.org/1999/xlink" x="0px" y="0px"
	 viewBox="0 0 160 110" style="enable-background:new 0 0 160 110;" xml:space="preserve">
<style type="text/css">
	.st0{fill:none;}
	.st1{fill:#231F20;}
</style>
<rect class="st0" width="160" height="110"/>
<g>
	<g>
		<path class="st1" d="M69,46c0.3-0.4,0.9-0.8,1.4-0.8h1.7c0.5,0,1,0.4,1.2,0.9l5.2,17.8c0.1,0.5-0.2,0.9-0.7,0.9h-3
			c-0.5,0-1-0.4-1.2-0.9L73,61.7c-0.1-0.5-0.6-0.9-1.2-0.9l-6.1,0c-0.5,0-1.1,0.4-1.4,0.8L63,64c-0.2,0.4-0.9,0.8-1.4,0.8h-2.6
			c-0.5,0-0.7-0.4-0.5-0.8L69,46z M70.5,51.8c-0.1-0.5-0.4-0.5-0.7-0.1L67,57h4.8L70.5,51.8z"/>
		<path class="st1" d="M105.9,46c0.3-0.4,0.9-0.8,1.4-0.8h1.7c0.5,0,1,0.4,1.2,0.9l5.2,17.8c0.1,0.5-0.2,0.9-0.7,0.9h-3
			c-0.5,0-1-0.4-1.2-0.9l-0.6-2.2c-0.1-0.5-0.6-0.9-1.2-0.9l-6.1,0c-0.5,0-1.1,0.4-1.4,0.8L99.9,64c-0.2,0.4-0.9,0.8-1.4,0.8h-2.6
			c-0.5,0-0.7-0.4-0.5-0.8L105.9,46z M107.4,51.8c-0.1-0.5-0.4-0.5-0.7-0.1l-2.8,5.3h4.8L107.4,51.8z"/>
		<path class="st1" d="M87,49h-4.7c-0.5,0-0.9-0.4-0.8-0.9l0.3-2c0.1-0.5,0.5-0.9,1.1-0.9h13.7c0.5,0,0.9,0.4,0.8,0.9l-0.3,2
			C97,48.6,96.5,49,96,49h-4.7l-2.2,14.9c-0.1,0.5-0.5,0.9-1.1,0.9h-2.5c-0.5,0-0.9-0.4-0.8-0.9L87,49z"/>
		<path class="st1" d="M123.2,46.1c0.1-0.5,0.5-0.9,1.1-0.9h2.5c0.5,0,0.9,0.4,0.8,0.9L125.4,61h7.1c0.5,0,0.9,0.4,0.8,0.9l-0.3,2
			c-0.1,0.5-0.5,0.9-1.1,0.9h-11.4L123.2,46.1z"/>
	</g>
	<g>
		<g>
			<path class="st1" d="M50.1,67.1c0.1-0.2,0-0.3-0.2-0.3l-13.4,0c-0.3,0-0.5-0.1-0.8-0.2c-0.2-0.1-0.4-0.3-0.6-0.6L31,58.6
				c-0.1-0.2-0.2-0.5-0.2-0.8c0-0.3,0.1-0.5,0.2-0.8l4.2-7.3c0.1-0.2,0.3-0.4,0.6-0.6c0.2-0.1,0.5-0.2,0.8-0.2H45
				c0.5,0,1,0.3,1.3,0.8l3.3,5.8c0.1,0.2,0.3,0.2,0.4,0l2-3.4c0-0.1,0-0.2,0-0.2l-2.6-4.5c-0.8-1.4-2.3-2.3-4-2.3h-9.4
				c-1.6,0-3.1,0.9-4,2.3l-4.8,8.2c-0.2,0.3-0.3,0.7-0.4,1.1c-0.1,0.4-0.1,0.7-0.1,1.1c0,0.4,0,0.7,0.1,1.1c0.1,0.4,0.2,0.7,0.4,1.1
				l4.8,8.2c0.8,1.4,2.3,2.3,4,2.3h11.9c0.1,0,0.2,0,0.2-0.1L50.1,67.1z"/>
		</g>
		<g>
			<path class="st1" d="M34.7,42.9c-0.1,0.2,0,0.3,0.2,0.3l13.4,0c0.3,0,0.5,0.1,0.8,0.2c0.2,0.1,0.4,0.3,0.6,0.6l4.2,7.3
				c0.1,0.2,0.2,0.5,0.2,0.8c0,0.3-0.1,0.5-0.2,0.8l-4.2,7.3c-0.1,0.2-0.3,0.4-0.6,0.6c-0.2,0.1-0.5,0.2-0.8,0.2h-8.5
				c-0.5,0-1-0.3-1.3-0.8l-3.3-5.8c-0.1-0.2-0.3-0.2-0.4,0l-2,3.4c0,0.1,0,0.2,0,0.2l2.6,4.5c0.8,1.4,2.3,2.3,4,2.3h9.4
				c1.6,0,3.1-0.9,4-2.3l4.8-8.2c0.2-0.3,0.3-0.7,0.4-1.1c0.1-0.4,0.1-0.7,0.1-1.1c0-0.4,0-0.7-0.1-1.1c-0.1-0.4-0.2-0.7-0.4-1.1
				l-4.8-8.2c-0.8-1.4-2.3-2.3-4-2.3H36.9c-0.1,0-0.2,0-0.2,0.1L34.7,42.9z"/>
		</g>
	</g>
</g>
</svg>
