<svg id="Layer_2" data-name="Layer 2" xmlns="http://www.w3.org/2000/svg" viewBox="0 0 160 110"><defs><style>.cls-1{fill:#9b9fa2;}</style></defs><title>basf</title><g id="g3049"><g id="text3111"><g id="g3366"><path id="path3368" d="M49,66.3l-1.29-4.74h0l-1.3,4.74H45.61l-1.45-5.64h0.77L46,65.35h0l1.26-4.69h0.81l1.25,4.69h0l1.15-4.69h0.75L49.78,66.3H49Z"/><path id="path3370" d="M54.33,66a1.86,1.86,0,0,1-1.15.35,2.09,2.09,0,0,1-.85-0.16,1.68,1.68,0,0,1-.6-0.44,1.9,1.9,0,0,1-.37-0.68,3.27,3.27,0,0,1-.14-0.86,2.46,2.46,0,0,1,.14-0.85,2,2,0,0,1,.4-0.67,1.84,1.84,0,0,1,.61-0.44,1.87,1.87,0,0,1,.77-0.16,1.68,1.68,0,0,1,.91.23,1.79,1.79,0,0,1,.58.57,2.27,2.27,0,0,1,.3.76,3.3,3.3,0,0,1,.07.78H51.93A1.63,1.63,0,0,0,52,65a1.12,1.12,0,0,0,.63.72,1.4,1.4,0,0,0,.58.11,1.16,1.16,0,0,0,.7-0.2,1,1,0,0,0,.36-0.6h0.66a1.63,1.63,0,0,1-.59,1h0Zm-0.16-2.62a1.13,1.13,0,0,0-.61-0.61,1.15,1.15,0,0,0-.46-0.09,1.17,1.17,0,0,0-.47.09,1.08,1.08,0,0,0-.36.25,1.2,1.2,0,0,0-.24.37,1.42,1.42,0,0,0-.1.45h2.35A1.4,1.4,0,0,0,54.17,63.41Z"/><path id="path3372" d="M60.32,62.93a1,1,0,0,0-.68-0.21,1.26,1.26,0,0,0-.61.13,1.08,1.08,0,0,0-.39.36,1.49,1.49,0,0,0-.21.51,2.76,2.76,0,0,0-.06.6,2.29,2.29,0,0,0,.07.55,1.49,1.49,0,0,0,.21.48,1.07,1.07,0,0,0,.37.34,1.27,1.27,0,0,0,1.32-.13,1.18,1.18,0,0,0,.34-0.73h0.69A1.88,1.88,0,0,1,60.8,66a1.77,1.77,0,0,1-1.24.41,2.13,2.13,0,0,1-.83-0.15,1.6,1.6,0,0,1-.6-0.43,1.85,1.85,0,0,1-.36-0.66,2.74,2.74,0,0,1-.12-0.84,3,3,0,0,1,.12-0.86,2,2,0,0,1,.36-0.7,1.69,1.69,0,0,1,.6-0.47,2,2,0,0,1,.84-0.17,2.46,2.46,0,0,1,.65.08,1.57,1.57,0,0,1,.54.26,1.38,1.38,0,0,1,.38.44,1.61,1.61,0,0,1,.19.63H60.65A1,1,0,0,0,60.32,62.93Z"/><path id="path3374" d="M62.73,62.21v0.86h0a1.82,1.82,0,0,1,.6-0.74,1.51,1.51,0,0,1,.9-0.22v0.71a1.89,1.89,0,0,0-.69.11,1.08,1.08,0,0,0-.46.32,1.34,1.34,0,0,0-.25.52,2.78,2.78,0,0,0-.08.7V66.3H62.1V62.21h0.63Z"/><path id="path3376" d="M67.5,66a1.86,1.86,0,0,1-1.15.35,2.1,2.1,0,0,1-.85-0.16,1.68,1.68,0,0,1-.6-0.44,1.9,1.9,0,0,1-.37-0.68,3.32,3.32,0,0,1-.14-0.86,2.45,2.45,0,0,1,.14-0.85,2,2,0,0,1,.4-0.67,1.84,1.84,0,0,1,.61-0.44,1.87,1.87,0,0,1,.77-0.16,1.67,1.67,0,0,1,.9.23,1.78,1.78,0,0,1,.58.57,2.27,2.27,0,0,1,.3.76,3.28,3.28,0,0,1,.07.78H65.1a1.6,1.6,0,0,0,.06.51,1.11,1.11,0,0,0,.63.72,1.39,1.39,0,0,0,.58.11,1.16,1.16,0,0,0,.7-0.2,1,1,0,0,0,.36-0.6h0.66a1.63,1.63,0,0,1-.59,1h0Zm-0.16-2.62a1.19,1.19,0,0,0-1.54-.61,1.08,1.08,0,0,0-.36.25,1.2,1.2,0,0,0-.24.37,1.4,1.4,0,0,0-.1.45h2.35A1.39,1.39,0,0,0,67.34,63.41Z"/><path id="path3378" d="M72.47,66.28a1,1,0,0,1-.48.1,0.58,0.58,0,0,1-.41-0.15,0.63,0.63,0,0,1-.15-0.48,1.59,1.59,0,0,1-.64.48,2.22,2.22,0,0,1-1.32.08,1.2,1.2,0,0,1-.43-0.2,1,1,0,0,1-.29-0.35,1.38,1.38,0,0,1,0-1.09,1,1,0,0,1,.31-0.36,1.45,1.45,0,0,1,.44-0.21L70,64l0.53-.08A3,3,0,0,0,71,63.83a0.74,0.74,0,0,0,.3-0.15,0.37,0.37,0,0,0,.11-0.29A0.67,0.67,0,0,0,71.3,63a0.57,0.57,0,0,0-.21-0.21,0.85,0.85,0,0,0-.29-0.09l-0.32,0a1.43,1.43,0,0,0-.71.16,0.69,0.69,0,0,0-.31.61H68.79a1.46,1.46,0,0,1,.16-0.64,1.2,1.2,0,0,1,.38-0.42,1.6,1.6,0,0,1,.54-0.23,2.84,2.84,0,0,1,.65-0.07,3.81,3.81,0,0,1,.55,0,1.43,1.43,0,0,1,.49.16,0.94,0.94,0,0,1,.36.34,1.1,1.1,0,0,1,.13.58v2.1a1.6,1.6,0,0,0,0,.35,0.16,0.16,0,0,0,.19.11l0.21,0v0.52Zm-1.09-2.09a0.82,0.82,0,0,1-.33.14l-0.43.07-0.45.06a1.7,1.7,0,0,0-.41.11,0.74,0.74,0,0,0-.3.22,0.62,0.62,0,0,0-.11.4,0.54,0.54,0,0,0,.07.28,0.57,0.57,0,0,0,.17.19,0.75,0.75,0,0,0,.25.1,1.36,1.36,0,0,0,.3,0,1.61,1.61,0,0,0,.57-0.09,1.2,1.2,0,0,0,.39-0.23,0.9,0.9,0,0,0,.22-0.3,0.76,0.76,0,0,0,.07-0.3V64.19Z"/><path id="path3380" d="M74.84,62.21v0.59H74v2.54a0.71,0.71,0,0,0,0,.19,0.2,0.2,0,0,0,.07.11,0.33,0.33,0,0,0,.15.05h0.56V66.3H74.32a2.44,2.44,0,0,1-.45,0,0.66,0.66,0,0,1-.3-0.13,0.55,0.55,0,0,1-.17-0.27,1.54,1.54,0,0,1-.06-0.46v-2.6h-0.7V62.21h0.7V61H74v1.22h0.81Z"/><path id="path3382" d="M78.47,66a1.86,1.86,0,0,1-1.15.35,2.09,2.09,0,0,1-.85-0.16,1.67,1.67,0,0,1-.6-0.44,1.89,1.89,0,0,1-.37-0.68,3.29,3.29,0,0,1-.14-0.86,2.46,2.46,0,0,1,.14-0.85,2.05,2.05,0,0,1,.4-0.67,1.84,1.84,0,0,1,.61-0.44,1.87,1.87,0,0,1,.77-0.16,1.67,1.67,0,0,1,.9.23,1.78,1.78,0,0,1,.58.57,2.27,2.27,0,0,1,.3.76,3.28,3.28,0,0,1,.07.78H76.07a1.63,1.63,0,0,0,.06.51,1.12,1.12,0,0,0,.63.72,1.4,1.4,0,0,0,.58.11,1.16,1.16,0,0,0,.7-0.2A1,1,0,0,0,78.4,65h0.66A1.64,1.64,0,0,1,78.47,66Zm-0.16-2.62a1.19,1.19,0,0,0-1.54-.61,1.08,1.08,0,0,0-.36.25,1.19,1.19,0,0,0-.24.37,1.41,1.41,0,0,0-.1.45h2.35A1.41,1.41,0,0,0,78.31,63.41Z"/><path id="path3384" d="M84.46,62.93a1,1,0,0,0-.68-0.21,1.26,1.26,0,0,0-.61.13,1.1,1.1,0,0,0-.39.36,1.51,1.51,0,0,0-.21.51,2.79,2.79,0,0,0-.06.6,2.27,2.27,0,0,0,.07.55,1.49,1.49,0,0,0,.21.48,1.07,1.07,0,0,0,.37.34,1.27,1.27,0,0,0,1.32-.13,1.17,1.17,0,0,0,.34-0.73h0.69A1.89,1.89,0,0,1,84.95,66a1.77,1.77,0,0,1-1.24.41,2.14,2.14,0,0,1-.83-0.15,1.61,1.61,0,0,1-.6-0.43,1.86,1.86,0,0,1-.36-0.66,2.77,2.77,0,0,1-.12-0.84,3,3,0,0,1,.12-0.86,2,2,0,0,1,.36-0.7,1.68,1.68,0,0,1,.6-0.47,2,2,0,0,1,.85-0.17,2.46,2.46,0,0,1,.65.08,1.58,1.58,0,0,1,.54.26,1.37,1.37,0,0,1,.38.44,1.6,1.6,0,0,1,.19.63h-0.7A1,1,0,0,0,84.46,62.93Z"/><path id="path3386" d="M86.93,60.66v2.16h0a0.89,0.89,0,0,1,.22-0.32,1.23,1.23,0,0,1,.32-0.21,1.64,1.64,0,0,1,.37-0.12,1.87,1.87,0,0,1,.37,0,1.78,1.78,0,0,1,.67.11,1.1,1.1,0,0,1,.43.31,1.14,1.14,0,0,1,.23.47,2.52,2.52,0,0,1,.07.6V66.3H89V63.53a0.76,0.76,0,0,0-.83-0.82,1.37,1.37,0,0,0-.53.09,1,1,0,0,0-.37.27,1.15,1.15,0,0,0-.22.41,1.64,1.64,0,0,0-.08.51V66.3H86.26V60.66h0.67Z"/><path id="path3388" d="M93.54,66a1.86,1.86,0,0,1-1.15.35,2.1,2.1,0,0,1-.85-0.16,1.69,1.69,0,0,1-.6-0.44,1.9,1.9,0,0,1-.37-0.68,3.27,3.27,0,0,1-.14-0.86,2.46,2.46,0,0,1,.14-0.85,2.06,2.06,0,0,1,.4-0.67,1.84,1.84,0,0,1,.61-0.44,1.87,1.87,0,0,1,.77-0.16,1.68,1.68,0,0,1,.91.23,1.79,1.79,0,0,1,.58.57,2.27,2.27,0,0,1,.3.76,3.22,3.22,0,0,1,.07.78H91.14a1.62,1.62,0,0,0,.06.51,1.11,1.11,0,0,0,.63.72,1.4,1.4,0,0,0,.58.11,1.16,1.16,0,0,0,.7-0.2,1,1,0,0,0,.36-0.6h0.66a1.63,1.63,0,0,1-.59,1h0Zm-0.16-2.62a1.13,1.13,0,0,0-.61-0.61,1.15,1.15,0,0,0-.46-0.09,1.17,1.17,0,0,0-.47.09,1.07,1.07,0,0,0-.36.25,1.2,1.2,0,0,0-.24.37,1.4,1.4,0,0,0-.1.45h2.35a1.36,1.36,0,0,0-.11-0.45h0Z"/><path id="path3390" d="M95.53,62.21v0.6h0a1.59,1.59,0,0,1,2-.54,0.89,0.89,0,0,1,.43.54,1.42,1.42,0,0,1,.54-0.51,1.53,1.53,0,0,1,.74-0.18,2.12,2.12,0,0,1,.56.07,1.13,1.13,0,0,1,.43.21,1,1,0,0,1,.28.37,1.35,1.35,0,0,1,.1.54v3H100V63.62a1.86,1.86,0,0,0,0-.36A0.71,0.71,0,0,0,99.8,63a0.59,0.59,0,0,0-.24-0.19,1,1,0,0,0-.4-0.07,1.05,1.05,0,0,0-.78.28,1,1,0,0,0-.29.76V66.3H97.42V63.62a1.75,1.75,0,0,0,0-.36A0.79,0.79,0,0,0,97.26,63,0.59,0.59,0,0,0,97,62.78a0.9,0.9,0,0,0-.38-0.07,1,1,0,0,0-.5.12,1.14,1.14,0,0,0-.34.28,1.12,1.12,0,0,0-.19.34,1,1,0,0,0-.06.3V66.3H94.89V62.21h0.63Z"/><path id="path3392" d="M101.67,61.48V60.66h0.67v0.82h-0.67Zm0.67,0.73V66.3h-0.67V62.21h0.67Z"/><path id="path3394" d="M103.9,65.39a0.72,0.72,0,0,0,.25.24,1.14,1.14,0,0,0,.35.13,2,2,0,0,0,.4,0l0.33,0a1.23,1.23,0,0,0,.32-0.09,0.59,0.59,0,0,0,.24-0.19,0.49,0.49,0,0,0,.09-0.31,0.45,0.45,0,0,0-.2-0.4,1.67,1.67,0,0,0-.49-0.22l-0.64-.15a3.32,3.32,0,0,1-.64-0.19,1.32,1.32,0,0,1-.49-0.34,0.9,0.9,0,0,1-.2-0.62,1,1,0,0,1,.14-0.53,1.12,1.12,0,0,1,.35-0.36,1.6,1.6,0,0,1,.49-0.21,2.24,2.24,0,0,1,.54-0.07,3.27,3.27,0,0,1,.64.06,1.49,1.49,0,0,1,.52.21,1.05,1.05,0,0,1,.36.39,1.49,1.49,0,0,1,.16.62h-0.67a0.68,0.68,0,0,0-.1-0.33,0.66,0.66,0,0,0-.22-0.21,1,1,0,0,0-.3-0.11,1.48,1.48,0,0,0-.33,0l-0.3,0a1,1,0,0,0-.28.08A0.58,0.58,0,0,0,104,63a0.4,0.4,0,0,0-.08.26,0.38,0.38,0,0,0,.12.29,1,1,0,0,0,.31.19,2.66,2.66,0,0,0,.43.13l0.47,0.11,0.49,0.13a1.59,1.59,0,0,1,.43.21,1,1,0,0,1,.3.33,1,1,0,0,1,.11.49,1.13,1.13,0,0,1-.15.62,1.2,1.2,0,0,1-.4.4,1.65,1.65,0,0,1-.56.21,3.27,3.27,0,0,1-.62.06,2.9,2.9,0,0,1-.65-0.07,1.58,1.58,0,0,1-.54-0.23,1.19,1.19,0,0,1-.38-0.43,1.47,1.47,0,0,1-.16-0.64h0.67a0.74,0.74,0,0,0,.1.38h0Z"/><path id="path3396" d="M109.08,62.21v0.59h-0.81v2.54a0.75,0.75,0,0,0,0,.19,0.21,0.21,0,0,0,.08.11,0.33,0.33,0,0,0,.15.05h0.56V66.3h-0.51a2.44,2.44,0,0,1-.45,0,0.66,0.66,0,0,1-.3-0.13,0.56,0.56,0,0,1-.17-0.27,1.54,1.54,0,0,1-.05-0.46v-2.6h-0.7V62.21h0.7V61h0.67v1.22h0.81Z"/><path id="path3398" d="M110.43,62.21v0.86h0a1.81,1.81,0,0,1,.6-0.74,1.51,1.51,0,0,1,.9-0.22v0.71a1.88,1.88,0,0,0-.69.11,1.09,1.09,0,0,0-.46.32,1.32,1.32,0,0,0-.25.52,2.78,2.78,0,0,0-.08.7V66.3H109.8V62.21h0.63Z"/><path id="path3400" d="M114.06,66.84a4.31,4.31,0,0,1-.23.51,1.42,1.42,0,0,1-.25.34,0.87,0.87,0,0,1-.31.19,1.19,1.19,0,0,1-.39.06l-0.24,0-0.23-.05V67.25l0.2,0.07,0.19,0a0.58,0.58,0,0,0,.34-0.1,0.6,0.6,0,0,0,.21-0.28l0.28-.69L112,62.21h0.76L114,65.56h0l1.15-3.34h0.71l-1.78,4.63h0Z"/></g></g></g><g id="g3087"><g id="g3089"><g id="g3091"><path id="path3093" d="M69.84,42.45H77c2.62,0,3.82,1.75,3.82,3.35a2.72,2.72,0,0,1-1.63,2.59,3.11,3.11,0,0,1,2.31,3.09c0,1.84-1.34,3.8-4.49,3.8H69.84V42.45Zm3.9,9.93h2.59a1.24,1.24,0,0,0,1.34-1.24,1.11,1.11,0,0,0-1.2-1.06H73.74v2.3Zm0-4.88h2.08a1.09,1.09,0,0,0,1.33-1.09,1,1,0,0,0-1.06-1H73.75V47.5Z"/><path id="path3095" d="M85.55,42.45h4.13l4.71,12.81H90.15l-0.62-1.92h-4L85,55.25H80.84Zm1.9,3.8-1.09,4.28h2.33Z"/><path id="path3097" d="M101,46.26h3.94c0-2.17-1.64-4.19-5.52-4.19-4.26,0-5.58,2.35-5.58,4.07,0,2.77,3.4,3.51,3.5,3.54,0.51,0.16,2.62.72,3.14,0.91a1.2,1.2,0,0,1,.89,1c0,0.75-.89,1.11-1.63,1.11a1.88,1.88,0,0,1-2.08-1.86H93.57c0,2.26,1.55,4.78,5.91,4.78,4.8,0,5.81-2.87,5.81-4.39A3.53,3.53,0,0,0,103,48c-1-.39-2.6-0.74-3.41-1-0.41-.12-1.78-0.4-1.78-1.23,0-1.07,1.76-.93,1.5-0.93A1.55,1.55,0,0,1,101,46.26Z"/><polygon id="polygon3099" points="105.96 42.45 115.79 42.45 115.79 45.83 109.89 45.83 109.89 48.09 115.15 48.09 115.15 51.32 109.87 51.32 109.87 55.27 105.94 55.27 105.96 42.45"/></g><path id="path3101" class="cls-1" d="M44.19,42.45V55.28H57V42.45H44.19Zm8.88,8.88H48.14V46.4h4.93v4.93Z"/><rect id="rect3103" class="cls-1" x="60.96" y="46.4" width="4.93" height="4.93"/></g></g></svg>