<svg id="Layer_1" data-name="Layer 1" xmlns="http://www.w3.org/2000/svg" viewBox="0 0 160 110"><defs><style>.cls-1{fill:#fff;}</style></defs><title>bloomberg-businessweek-logo</title><rect class="cls-1" width="160" height="110"/><path d="M192.31,177.52a3,3,0,0,1,.53,1.78,2.6,2.6,0,0,1-.54,1.72,2.79,2.79,0,0,1-.89.66,2.6,2.6,0,0,1,1.35,1,3.08,3.08,0,0,1,.45,1.71,3.41,3.41,0,0,1-.52,1.86,3.21,3.21,0,0,1-2.14,1.5,8.07,8.07,0,0,1-1.65.16h-5.25V176.28h5.63A3.57,3.57,0,0,1,192.31,177.52Zm-6.33.78v2.57h2.83a2.34,2.34,0,0,0,1.23-.29,1.1,1.1,0,0,0,.47-1,1,1,0,0,0-.63-1.08,4.38,4.38,0,0,0-1.38-.18H186Zm0,4.5v3.11h2.83a2.75,2.75,0,0,0,1.18-.21,1.47,1.47,0,0,0,.77-1.45A1.25,1.25,0,0,0,190,183a2.94,2.94,0,0,0-1.16-.2H186Z" transform="translate(-158.66 -135.35)"/><path d="M197.4,187.93h-2.25V176.28h2.25v11.65Z" transform="translate(-158.66 -135.35)"/><path d="M206.75,186.88a4.75,4.75,0,0,1-6.62,0,5.35,5.35,0,0,1,0-6.47,4.7,4.7,0,0,1,6.62,0A5.35,5.35,0,0,1,206.75,186.88Zm-1.8-1.25a4,4,0,0,0,0-4,2,2,0,0,0-3,0,4,4,0,0,0,0,4A2,2,0,0,0,204.95,185.64Z" transform="translate(-158.66 -135.35)"/><path d="M216.61,186.88a4.75,4.75,0,0,1-6.62,0,5.35,5.35,0,0,1,0-6.47,4.7,4.7,0,0,1,6.62,0A5.35,5.35,0,0,1,216.61,186.88Zm-1.8-1.25a4,4,0,0,0,0-4,2,2,0,0,0-3,0,4,4,0,0,0,0,4A2,2,0,0,0,214.8,185.64Z" transform="translate(-158.66 -135.35)"/><path d="M230,179.35a2.51,2.51,0,0,1,1,.77,2.48,2.48,0,0,1,.49,1.11,7.65,7.65,0,0,1,.08,1.27l0,5.43h-2.31v-5.49a1.8,1.8,0,0,0-.16-0.81A1.12,1.12,0,0,0,228,181a1.29,1.29,0,0,0-1.29.77,2.44,2.44,0,0,0-.18,1v5.13h-2.27V182.8a2.88,2.88,0,0,0-.16-1.11,1.1,1.1,0,0,0-1.11-.62,1.33,1.33,0,0,0-1.3.62,2.4,2.4,0,0,0-.18,1.06v5.19h-2.28v-8.6h2.19v1.26a3.62,3.62,0,0,1,.79-1,3.13,3.13,0,0,1,3.3-.07,2.53,2.53,0,0,1,.74,1,2.87,2.87,0,0,1,1.1-1.11,3.35,3.35,0,0,1,1.55-.36A3,3,0,0,1,230,179.35Z" transform="translate(-158.66 -135.35)"/><path d="M241,180.35a5,5,0,0,1,1,3.16,5.54,5.54,0,0,1-1,3.33,3.46,3.46,0,0,1-4.39.89,3.43,3.43,0,0,1-.84-0.89v1.08h-2.22V176.3h2.25v4.14a3.3,3.3,0,0,1,.95-0.92,2.83,2.83,0,0,1,1.56-.39A3.22,3.22,0,0,1,241,180.35Zm-1.88,5.25a3.19,3.19,0,0,0,.49-1.85,4.14,4.14,0,0,0-.24-1.52,1.67,1.67,0,0,0-1.67-1.14,1.69,1.69,0,0,0-1.7,1.11,4.15,4.15,0,0,0-.24,1.53,3.19,3.19,0,0,0,.49,1.83,1.7,1.7,0,0,0,1.51.73A1.56,1.56,0,0,0,239.11,185.6Z" transform="translate(-158.66 -135.35)"/><path d="M249.11,179.49a3.51,3.51,0,0,1,1.49,1.27,4.24,4.24,0,0,1,.69,1.78,11,11,0,0,1,.07,1.71h-6.28a2.07,2.07,0,0,0,.9,1.82,2.29,2.29,0,0,0,1.24.32,1.75,1.75,0,0,0,1.71-1h2.3a2.81,2.81,0,0,1-.84,1.56,4.19,4.19,0,0,1-3.24,1.26,4.7,4.7,0,0,1-3-1.06,4.18,4.18,0,0,1-1.31-3.45,4.66,4.66,0,0,1,1.19-3.43,4.15,4.15,0,0,1,3.08-1.19A4.9,4.9,0,0,1,249.11,179.49Zm-3.37,1.95a2.34,2.34,0,0,0-.6,1.33H249a1.88,1.88,0,0,0-.6-1.36,2,2,0,0,0-1.34-.46A1.79,1.79,0,0,0,245.74,181.44Z" transform="translate(-158.66 -135.35)"/><path d="M257.25,179.12h0.19v2.31l-0.38,0H256.8a1.87,1.87,0,0,0-1.83.89,3.45,3.45,0,0,0-.26,1.53v4.12h-2.27v-8.62h2.15v1.5a4.77,4.77,0,0,1,.91-1.18,2.48,2.48,0,0,1,1.64-.53h0.11Z" transform="translate(-158.66 -135.35)"/><path d="M263,179.31a2.71,2.71,0,0,1,1.33,1.25v-1.24h2.2v8.17A4.58,4.58,0,0,1,266,190q-1,1.45-3.7,1.45a5,5,0,0,1-2.7-.65,2.39,2.39,0,0,1-1.15-1.94h2.45a1,1,0,0,0,.31.57,1.9,1.9,0,0,0,1.23.31,1.65,1.65,0,0,0,1.63-.81,4.13,4.13,0,0,0,.27-1.75v-0.55a2.75,2.75,0,0,1-.7.83,2.8,2.8,0,0,1-1.75.51,3.3,3.3,0,0,1-2.65-1.17,4.71,4.71,0,0,1-1-3.16,5.33,5.33,0,0,1,1-3.23,3.15,3.15,0,0,1,2.71-1.31A3,3,0,0,1,263,179.31Zm0.77,6.18a2.77,2.77,0,0,0,.54-1.9,2.92,2.92,0,0,0-.52-1.87,1.68,1.68,0,0,0-1.38-.64,1.63,1.63,0,0,0-1.63,1.11,4,4,0,0,0-.24,1.46,3.35,3.35,0,0,0,.25,1.34,1.64,1.64,0,0,0,1.64,1.09A1.73,1.73,0,0,0,263.76,185.49Z" transform="translate(-158.66 -135.35)"/><path d="M192.31,193.71a3,3,0,0,1,.53,1.78,2.6,2.6,0,0,1-.54,1.72,2.79,2.79,0,0,1-.89.66,2.6,2.6,0,0,1,1.35,1,3.08,3.08,0,0,1,.45,1.71,3.41,3.41,0,0,1-.52,1.86,3.21,3.21,0,0,1-2.14,1.5,8.07,8.07,0,0,1-1.65.16h-5.25V192.47h5.63A3.57,3.57,0,0,1,192.31,193.71Zm-6.33.78v2.57h2.83a2.34,2.34,0,0,0,1.23-.29,1.1,1.1,0,0,0,.47-1,1,1,0,0,0-.63-1.08,4.38,4.38,0,0,0-1.38-.18H186Zm0,4.5v3.11h2.83a2.75,2.75,0,0,0,1.18-.21,1.47,1.47,0,0,0,.77-1.45,1.25,1.25,0,0,0-.74-1.25,2.94,2.94,0,0,0-1.16-.2H186Z" transform="translate(-158.66 -135.35)"/><path d="M197.34,195.51v5.19a2.73,2.73,0,0,0,.17,1.11,1.2,1.2,0,0,0,1.2.66,1.57,1.57,0,0,0,1.57-.93,3.39,3.39,0,0,0,.22-1.34v-4.69h2.28v8.62h-2.19v-1.22l-0.16.24a1.58,1.58,0,0,1-.3.35,3.12,3.12,0,0,1-1,.65,3.48,3.48,0,0,1-1.15.17,2.57,2.57,0,0,1-2.57-1.38,5.28,5.28,0,0,1-.37-2.24v-5.19h2.31Z" transform="translate(-158.66 -135.35)"/><path d="M206.7,201.37a1.5,1.5,0,0,0,.31.85,2.1,2.1,0,0,0,1.56.45,2.39,2.39,0,0,0,1.06-.2,0.66,0.66,0,0,0,.08-1.17,12.92,12.92,0,0,0-2.36-.68,4.89,4.89,0,0,1-2.07-.91,2,2,0,0,1-.6-1.55,2.68,2.68,0,0,1,.94-2.05,3.77,3.77,0,0,1,2.64-.86,4.85,4.85,0,0,1,2.63.64,2.76,2.76,0,0,1,1.17,2.23h-2.25a1.33,1.33,0,0,0-.25-0.69,1.55,1.55,0,0,0-1.27-.46,1.83,1.83,0,0,0-1.05.23,0.66,0.66,0,0,0-.31.54,0.59,0.59,0,0,0,.33.56,14.41,14.41,0,0,0,2.35.62,4.31,4.31,0,0,1,2,1,2.17,2.17,0,0,1,.66,1.62,2.62,2.62,0,0,1-1,2.09,5.74,5.74,0,0,1-6,0,2.79,2.79,0,0,1-1-2.19h2.28Z" transform="translate(-158.66 -135.35)"/><path d="M216.24,194.48H214V192.4h2.28v2.08Zm-2.28,1h2.28v8.62H214v-8.62Z" transform="translate(-158.66 -135.35)"/><path d="M225.34,196a2.85,2.85,0,0,1,.85,2.32v5.8h-2.31v-5.24a2.41,2.41,0,0,0-.18-1,1.27,1.27,0,0,0-1.26-.66,1.56,1.56,0,0,0-1.56,1,3.37,3.37,0,0,0-.22,1.31v4.66h-2.25v-8.6h2.18v1.26a3.83,3.83,0,0,1,.82-1,2.84,2.84,0,0,1,1.76-.52A3.3,3.3,0,0,1,225.34,196Z" transform="translate(-158.66 -135.35)"/><path d="M233.86,195.68a3.51,3.51,0,0,1,1.49,1.27,4.24,4.24,0,0,1,.69,1.78,11,11,0,0,1,.07,1.71h-6.28a2.07,2.07,0,0,0,.9,1.82,2.29,2.29,0,0,0,1.24.32,1.75,1.75,0,0,0,1.71-1H236a2.81,2.81,0,0,1-.84,1.56,4.19,4.19,0,0,1-3.24,1.26,4.7,4.7,0,0,1-3-1.06,4.18,4.18,0,0,1-1.31-3.45,4.66,4.66,0,0,1,1.19-3.43,4.15,4.15,0,0,1,3.08-1.19A4.9,4.9,0,0,1,233.86,195.68Zm-3.37,1.95a2.34,2.34,0,0,0-.6,1.33h3.88a1.88,1.88,0,0,0-.6-1.36,2,2,0,0,0-1.34-.46A1.79,1.79,0,0,0,230.49,197.63Z" transform="translate(-158.66 -135.35)"/><path d="M239,201.37a1.5,1.5,0,0,0,.31.85,2.1,2.1,0,0,0,1.56.45,2.39,2.39,0,0,0,1.06-.2,0.66,0.66,0,0,0,.08-1.17,12.92,12.92,0,0,0-2.36-.68,4.89,4.89,0,0,1-2.07-.91,2,2,0,0,1-.6-1.55,2.68,2.68,0,0,1,.94-2.05,3.77,3.77,0,0,1,2.64-.86,4.85,4.85,0,0,1,2.63.64,2.76,2.76,0,0,1,1.17,2.23h-2.25a1.33,1.33,0,0,0-.25-0.69,1.55,1.55,0,0,0-1.27-.46,1.83,1.83,0,0,0-1.05.23,0.66,0.66,0,0,0-.31.54,0.59,0.59,0,0,0,.33.56,14.41,14.41,0,0,0,2.35.62,4.31,4.31,0,0,1,2,1,2.17,2.17,0,0,1,.66,1.62,2.62,2.62,0,0,1-1,2.09,5.74,5.74,0,0,1-6,0,2.79,2.79,0,0,1-1-2.19H239Z" transform="translate(-158.66 -135.35)"/><path d="M247.94,201.37a1.5,1.5,0,0,0,.31.85,2.1,2.1,0,0,0,1.56.45,2.39,2.39,0,0,0,1.06-.2,0.66,0.66,0,0,0,.08-1.17,12.92,12.92,0,0,0-2.36-.68,4.89,4.89,0,0,1-2.07-.91,2,2,0,0,1-.6-1.55,2.68,2.68,0,0,1,.94-2.05,3.77,3.77,0,0,1,2.64-.86,4.85,4.85,0,0,1,2.63.64,2.76,2.76,0,0,1,1.17,2.23H251a1.33,1.33,0,0,0-.25-0.69,1.55,1.55,0,0,0-1.27-.46,1.83,1.83,0,0,0-1.05.23,0.66,0.66,0,0,0-.31.54,0.59,0.59,0,0,0,.33.56,14.41,14.41,0,0,0,2.35.62,4.31,4.31,0,0,1,2,1,2.17,2.17,0,0,1,.66,1.62,2.62,2.62,0,0,1-1,2.09,5.74,5.74,0,0,1-6,0,2.79,2.79,0,0,1-1-2.19h2.28Z" transform="translate(-158.66 -135.35)"/><path d="M259.22,195.51h2.28l1.31,6.21,1.34-6.21h2.35l-2.5,8.62H261.7l-1.35-6.28L259,204.12h-2.34l-2.42-8.62h2.42l1.34,6.18Z" transform="translate(-158.66 -135.35)"/><path d="M273.34,195.68a3.51,3.51,0,0,1,1.49,1.27,4.24,4.24,0,0,1,.69,1.78,11,11,0,0,1,.07,1.71h-6.28a2.07,2.07,0,0,0,.9,1.82,2.29,2.29,0,0,0,1.24.32,1.75,1.75,0,0,0,1.71-1h2.3a2.81,2.81,0,0,1-.84,1.56,4.19,4.19,0,0,1-3.24,1.26,4.7,4.7,0,0,1-3-1.06,4.18,4.18,0,0,1-1.31-3.45,4.66,4.66,0,0,1,1.19-3.43,4.15,4.15,0,0,1,3.08-1.19A4.9,4.9,0,0,1,273.34,195.68ZM270,197.63a2.34,2.34,0,0,0-.6,1.33h3.88a1.88,1.88,0,0,0-.6-1.36,2,2,0,0,0-1.34-.46A1.79,1.79,0,0,0,270,197.63Z" transform="translate(-158.66 -135.35)"/><path d="M282.31,195.68A3.51,3.51,0,0,1,283.8,197a4.24,4.24,0,0,1,.69,1.78,11,11,0,0,1,.07,1.71h-6.28a2.07,2.07,0,0,0,.9,1.82,2.29,2.29,0,0,0,1.24.32,1.75,1.75,0,0,0,1.71-1h2.3a2.81,2.81,0,0,1-.84,1.56,4.19,4.19,0,0,1-3.24,1.26,4.7,4.7,0,0,1-3-1.06,4.18,4.18,0,0,1-1.31-3.45,4.66,4.66,0,0,1,1.19-3.43,4.15,4.15,0,0,1,3.08-1.19A4.9,4.9,0,0,1,282.31,195.68Zm-3.37,1.95a2.34,2.34,0,0,0-.6,1.33h3.88a1.88,1.88,0,0,0-.6-1.36,2,2,0,0,0-1.34-.46A1.79,1.79,0,0,0,278.94,197.63Z" transform="translate(-158.66 -135.35)"/><path d="M285.69,192.51h2.21v6.29l2.84-3.25h2.8l-3.09,3.21,3.21,5.37h-2.74l-2.09-3.68-0.93,1v2.71h-2.21V192.51Z" transform="translate(-158.66 -135.35)"/></svg>