<?xml version="1.0" encoding="utf-8"?>
<!-- Generator: Adobe Illustrator 16.0.3, SVG Export Plug-In . SVG Version: 6.00 Build 0)  -->
<!DOCTYPE svg PUBLIC "-//W3C//DTD SVG 1.1//EN" "http://www.w3.org/Graphics/SVG/1.1/DTD/svg11.dtd">
<svg version="1.1" id="Layer_2" xmlns="http://www.w3.org/2000/svg" xmlns:xlink="http://www.w3.org/1999/xlink" x="0px" y="0px"
	 width="160px" height="110px" viewBox="0 0 160 110" enable-background="new 0 0 160 110" xml:space="preserve">
<g>
	<path d="M59.502,38.023h-1.515l-0.517,2.914c0,0,0.576,0,1.021,0c0.588,0,0.87-0.023,1.047-0.066
		C61.32,40.429,61.503,38.023,59.502,38.023z"/>
	<path d="M60.133,36.908c1.41-0.465,1.54-2.699-0.102-2.699h-1.369l-0.491,2.781c0,0,0.601,0,1.047,0
		C59.684,36.99,59.941,36.973,60.133,36.908z"/>
	<path d="M64.148,54.111c0,0,0.232-1.256,0.225-1.266h-2.02c-0.231,0-0.452,0.186-0.492,0.418c0,0-0.209,1.268-0.225,1.268h2.02
		C63.889,54.531,64.109,54.344,64.148,54.111z"/>
	<path d="M53.13,28.131v53.738h53.74V28.131H53.13z M77.95,38.943c0.195-1.726,1.36-3.346,3.325-3.346
		c1.113,0,1.802,0.588,2.047,1.076l0.181-0.947h1.351l-1.092,6.212h-0.393c-0.453,0-0.934-0.354-0.819-0.934l0.021-0.093
		c-0.396,0.616-1.052,1.156-2.271,1.156C79,42.068,77.727,40.916,77.95,38.943z M69.859,43.223c0.162-0.805,1.329-7.489,1.329-7.489
		h0.431c0.434,0,0.943,0.333,0.817,0.933l-0.018,0.084c0.401-0.584,1.186-1.144,2.337-1.144c1.327,0,2.471,1.121,2.339,3.069
		c-0.125,1.832-1.365,3.397-3.371,3.397c-1.114,0-1.812-0.62-2.058-1.11l-0.63,3.426c-0.188,0-0.127,0-0.354,0
		C70.438,44.389,69.67,44.17,69.859,43.223z M57.279,33.247c0.559,0,2.093,0.002,3.068,0.002c1.583,0,2.484,0.654,2.484,2.06
		c0,1.316-1.12,1.962-1.746,2.098c0.834,0.187,1.569,0.955,1.394,2.119c-0.128,0.84-0.767,1.985-2.342,2.318
		c-0.345,0.072-0.955,0.094-1.597,0.094c-0.945,0-2.617,0.001-2.808,0.001L57.279,33.247z M57.037,59.691l0.589-3.33l0.212-1.197
		l-0.467,0.561h-1.638l2.617-3.132c0.229-0.262,0.427-0.429,0.727-0.429l1.262-0.003l-1.68,2.014l0.709-0.005l-0.411,2.385
		l-0.723,4.088C58.234,60.643,56.87,60.648,57.037,59.691z M64.832,60.033c-0.334,0-0.512-0.342-0.512-0.342l-0.973-2.469h1.179
		l1.113,2.811H64.832z M63.366,55.849h2.3c0,0-0.157,0.923-0.982,0.923h-1.565l-0.715,4.043c0,0-1.364,0.006-1.198-0.949
		l0.404-2.268l-1.566,2.094c0,0-0.297,0.342-0.629,0.342h-0.885l2.098-2.811h1.048l0.082-0.451h-2.642c0,0,0.16-0.923,0.974-0.923
		h1.828l0.1-0.549h-1.897l0.419-2.375c0.076-0.433,0.491-0.784,0.923-0.784h4.377c0.017,0.021-0.42,2.377-0.42,2.377
		c-0.076,0.432-0.489,0.782-0.922,0.782h-1.117l-0.1,0.549H63.366z M63.486,40.208c-0.026-0.226-0.004-0.575,0.056-0.919
		c0.149-0.855,0.542-3.037,0.63-3.556c0,0,0.29,0,0.355,0c0.473,0,1.044,0.262,0.924,0.933c-0.037,0.199-0.463,2.68-0.521,3.017
		c-0.146,0.871,0.481,1.261,1.125,1.261c1.132,0,1.534-0.572,1.679-1.408c0.066-0.389,0.662-3.802,0.662-3.802s0.257,0,0.404,0
		c0.416,0,0.969,0.262,0.875,0.933c-0.032,0.227-0.443,2.479-0.529,2.924c-0.26,1.349-1.078,2.483-3.25,2.483
		C64.637,42.073,63.619,41.367,63.486,40.208z M76.841,58.687c-0.073,0.429-0.462,2.055-2.294,2.055h-3.069
		c0,0,0.202-1.138,0.434-2.444l-0.452-0.01c-0.327-0.007-0.402-0.351-0.402-0.351l-0.164-2.443l-0.229,1.28l-0.715,4.041
		c0,0-1.342,0.006-1.174-0.938l0.57-3.293l0.152-0.854l-1.627,3.938c0,0-0.195,0.344-0.525,0.35
		c-0.331,0.008-0.762,0.018-0.762,0.018l2.256-5.423h0.857l0.074-0.423h-1.829c0,0,0.157-0.912,0.972-0.912h1.021l0.203-1.147h1.352
		l-0.203,1.147h1.558c0,0-0.159,0.912-0.973,0.912h-0.748l-0.075,0.425h0.843l0.186,2.742l0.507-2.868
		c0.031-0.178,0.118-0.342,0.244-0.473l1.563-1.879c0,0,1.766-0.014,1.759,0c-0.374,0.752-1.146,1.279-1.708,1.58h3.274
		C77.731,53.734,76.841,58.687,76.841,58.687z M104.007,45.859c-0.11,0.007-0.481,0.021-0.831,0.021c-0.543,0-1.315-0.035-1.917-0.2
		c-0.906-0.249-1.714-0.731-2.196-1.081c-0.091-0.066-0.17-0.123-0.235-0.168c-0.452-0.309-0.771-0.308-1.048-0.014
		c-0.186,0.199-0.813,1.134-1.369,1.958c-0.224,0.335-0.438,0.651-0.604,0.894c-0.331,0.482-0.795,0.794-1.183,0.794
		c-0.335,0-0.604-0.224-0.778-0.651c-0.317-0.769-0.53-8.265-0.605-12.533v-0.017c-0.003-0.096-0.06-0.139-0.112-0.139
		c-0.058,0-0.106,0.049-0.124,0.123c-0.002,0.008-0.024,0.105-0.064,0.278c-0.981,4.219-3.306,14.29-3.692,15.517
		c-0.292,0.919-0.803,1.514-1.305,1.514c-0.328,0-0.615-0.27-0.809-0.759c-0.416-1.048-0.743-2.625-0.959-3.626
		c-0.066-0.302-0.122-0.562-0.168-0.752c-0.094-0.386-0.208-0.642-0.46-0.642c-0.182,0-0.41,0.138-0.741,0.373
		c-0.651,0.468-1.742,1.145-2.917,1.145H70.392l0.268-1.448h10.927c1.117,0,1.791-0.581,2.386-1.093
		c0.208-0.181,0.406-0.35,0.61-0.486c0.928-0.614,1.691-0.568,2.209,0.161c0.455,0.643,0.684,1.81,0.949,3.161
		c0.085,0.428,0.172,0.936,0.271,1.385c0.026,0.12,0.162,0.12,0.188,0c0.89-4.383,2.96-13.009,3.929-16.89
		c0.382-1.523,0.992-2.065,1.399-2.065c0.506,0,0.869,0.727,0.946,1.895c0.179,2.643,0.432,11.49,0.452,13.111
		c0,0.041,0,0.165,0.095,0.165c0.05,0,0.083-0.04,0.106-0.077c0.388-0.579,1.354-1.996,1.961-2.619
		c0.448-0.463,0.816-0.669,1.195-0.669c0.28,0,0.577,0.11,0.931,0.346c0.291,0.193,0.56,0.4,0.821,0.601
		c0.519,0.4,1.009,0.778,1.566,0.969c0.471,0.16,1.262,0.193,1.842,0.193c0.327,0,0.68-0.011,0.812-0.017L104.007,45.859z"/>
	<path d="M73.528,41.061c2.212,0.123,2.859-4.224,0.776-4.34C72,36.593,71.264,40.936,73.528,41.061z"/>
	<path d="M80.695,40.938c2.303,0.128,3.04-4.202,0.775-4.327C79.26,36.488,78.612,40.822,80.695,40.938z"/>
	<path d="M73.902,54.941l-0.283,1.619h2.25c0,0,0.382-2.043,0.378-2.049h-1.841C74.17,54.512,73.943,54.704,73.902,54.941z"/>
	<path d="M73.021,59.852h1.39c0.719,0,1.048-0.77,1.09-1.008c0,0,0.229-1.385,0.226-1.389h-2.258L73.021,59.852z"/>
</g>
</svg>
