<?xml version="1.0" encoding="utf-8"?>
<!-- Generator: Adobe Illustrator 16.0.3, SVG Export Plug-In . SVG Version: 6.00 Build 0)  -->
<!DOCTYPE svg PUBLIC "-//W3C//DTD SVG 1.1//EN" "http://www.w3.org/Graphics/SVG/1.1/DTD/svg11.dtd">
<svg version="1.1" id="Layer_2" xmlns="http://www.w3.org/2000/svg" xmlns:xlink="http://www.w3.org/1999/xlink" x="0px" y="0px"
	 width="160px" height="110px" viewBox="0 0 160 110" enable-background="new 0 0 160 110" xml:space="preserve">
<g>
	<g>
		<g>
			<g>
				<path fill="#231F20" d="M66.162,57.812v-0.011c-0.281,0.017-0.42,0.146-0.42,0.389v3.873c0,0.335-0.062,0.677-0.191,1.021
					c-0.129,0.345-0.318,0.704-0.568,1.078c-0.254,0.37-0.4,0.573-0.439,0.601c-0.035,0.029-0.084,0.045-0.139,0.045
					c-0.08,0-0.152-0.026-0.221-0.082c-0.068-0.057-0.102-0.121-0.102-0.198c0-0.073,0.119-0.268,0.355-0.589
					c0.365-0.501,0.596-1.17,0.699-2.004L64.43,62.53c-0.072,0.019-0.141,0.029-0.205,0.029c-0.217,0-0.324-0.077-0.324-0.235
					c0-0.155,0.361-0.492,1.082-1.017c0.107-0.08,0.16-0.146,0.16-0.2V57.99c0-0.164,0.078-0.324,0.227-0.473
					c0.154-0.146,0.334-0.222,0.543-0.222h2.174c0.002-0.124,0.002-0.239-0.004-0.343c-0.008-0.102,0.021-0.182,0.084-0.243
					c0.062-0.061,0.141-0.089,0.23-0.089c0.084,0,0.154,0.024,0.207,0.073c0.051,0.05,0.078,0.104,0.078,0.161l-0.008,0.44h3.178
					c0.152,0,0.23,0.091,0.23,0.27c0,0.165-0.078,0.246-0.24,0.246H66.162z M64.549,59.93l-0.207-1.233
					c-0.135-0.772-0.201-1.159-0.201-1.159c-0.01-0.03-0.01-0.059-0.01-0.085c0-0.197,0.09-0.295,0.273-0.295
					c0.092,0,0.166,0.038,0.221,0.114c0.057,0.075,0.143,0.474,0.26,1.196c0.115,0.724,0.172,1.137,0.172,1.243
					c0,0.078-0.043,0.144-0.135,0.206c-0.09,0.062-0.178,0.093-0.26,0.093C64.59,60.01,64.549,59.983,64.549,59.93 M68.137,60.365
					c0.117,0,0.244,0.06,0.377,0.17c0.129,0.111,0.195,0.238,0.197,0.379c0.006,0.139,0.006,0.327,0.006,0.563
					c0,0.419-0.016,0.676-0.041,0.769c-0.029,0.093-0.102,0.179-0.225,0.26s-0.254,0.119-0.393,0.119l-1.617,0.008
					c-0.102,0-0.211-0.045-0.324-0.137c-0.117-0.091-0.184-0.186-0.205-0.291c-0.025-0.1-0.033-0.357-0.033-0.77
					c0-0.262,0-0.449,0.002-0.561c0.002-0.113,0.078-0.225,0.225-0.338c0.145-0.112,0.277-0.172,0.402-0.172H68.137z M71.369,64.67
					h-4.746c-0.119,0.012-0.24-0.019-0.367-0.082c-0.127-0.064-0.213-0.135-0.262-0.208c-0.045-0.075-0.068-0.204-0.068-0.393
					l0.014-0.707c0-0.067,0.025-0.132,0.074-0.197c0.053-0.063,0.121-0.096,0.213-0.096c0.088,0,0.164,0.029,0.23,0.089
					c0.066,0.061,0.1,0.137,0.1,0.229v0.633c0,0.163,0.107,0.246,0.32,0.246h1.76l0.01-1.297c-0.01-0.211,0.094-0.318,0.307-0.318
					c0.191,0,0.291,0.112,0.291,0.336v1.279h1.705c0.178-0.013,0.299-0.043,0.365-0.097c0.064-0.048,0.096-0.14,0.092-0.274
					c-0.002-0.131-0.002-0.24-0.002-0.328c0-0.221,0.027-0.364,0.084-0.438c0.061-0.071,0.139-0.105,0.242-0.105
					c0.184,0,0.273,0.091,0.273,0.276v0.839c0,0.128-0.068,0.262-0.207,0.404C71.658,64.6,71.516,64.67,71.369,64.67 M70.904,60.018
					h-3.893c-0.156,0-0.305-0.041-0.445-0.122c-0.141-0.084-0.209-0.175-0.209-0.271l0.014-0.98c0-0.062,0.092-0.148,0.271-0.26
					c0.182-0.113,0.328-0.169,0.439-0.169h3.754c0.16,0,0.303,0.056,0.426,0.165c0.123,0.112,0.191,0.197,0.203,0.26
					c0.01,0.059,0.018,0.291,0.018,0.691c0,0.216-0.064,0.385-0.188,0.506C71.172,59.957,71.041,60.018,70.904,60.018
					 M67.787,60.877h-0.945c-0.084-0.016-0.156,0.003-0.219,0.053c-0.064,0.05-0.096,0.123-0.096,0.223v0.654
					c0.029,0.182,0.129,0.273,0.297,0.273l0.928,0.009c0.232-0.015,0.35-0.12,0.35-0.318v-0.589
					C68.102,60.979,67.998,60.877,67.787,60.877 M70.564,58.74H67.35c-0.23,0.02-0.352,0.087-0.357,0.203
					c-0.004,0.115-0.006,0.229-0.006,0.343c0,0.156,0.143,0.234,0.434,0.234h3.109c0.131,0,0.221-0.022,0.268-0.064
					c0.045-0.044,0.068-0.129,0.068-0.254l0.01-0.112c0-0.125-0.02-0.217-0.061-0.27C70.777,58.766,70.691,58.74,70.564,58.74
					 M71.236,62.655h-0.008c-0.453,0.007-0.992,0.011-1.617,0.011c-0.096,0-0.211-0.054-0.346-0.158s-0.201-0.279-0.205-0.52
					c-0.004-0.243-0.004-0.614-0.004-1.111c0-0.088,0.07-0.19,0.211-0.308s0.277-0.178,0.412-0.178h1.625
					c0.119,0,0.246,0.057,0.377,0.17c0.133,0.11,0.197,0.237,0.199,0.378c0.004,0.142,0.004,0.328,0.004,0.565
					c0,0.419-0.01,0.675-0.041,0.768c-0.027,0.092-0.1,0.181-0.219,0.262C71.504,62.614,71.373,62.655,71.236,62.655 M70.949,60.904
					h-0.943c-0.088-0.016-0.162,0.001-0.225,0.053c-0.061,0.049-0.092,0.126-0.092,0.225v0.65c0.027,0.184,0.127,0.275,0.295,0.279
					l0.932,0.008c0.23-0.018,0.348-0.124,0.348-0.322v-0.59C71.264,61.006,71.16,60.904,70.949,60.904"/>
				<path fill="#231F20" d="M81.879,58.2h-5.615c-0.18,0-0.268,0.085-0.262,0.258c0.002,0.172,0.004,0.735,0.004,1.688
					c0,1.119-0.096,1.942-0.291,2.473c-0.186,0.529-0.436,1.008-0.738,1.427c-0.307,0.419-0.539,0.63-0.715,0.63
					c-0.078,0-0.15-0.034-0.213-0.1c-0.062-0.068-0.09-0.145-0.09-0.232c0-0.074,0.023-0.135,0.074-0.186
					c0.629-0.65,1.035-1.439,1.219-2.369l-0.715,0.373c-0.189,0.103-0.309,0.154-0.363,0.154c-0.18,0-0.268-0.117-0.268-0.354
					c0-0.173,0.082-0.284,0.25-0.33c0.166-0.046,0.572-0.271,1.213-0.668v-2.703c0-0.178,0.09-0.341,0.26-0.491
					c0.174-0.149,0.355-0.225,0.543-0.225l2.066,0.007c0-0.284,0.002-0.466,0.012-0.554c0.006-0.082,0.041-0.148,0.104-0.198
					c0.059-0.045,0.127-0.07,0.211-0.07c0.215,0,0.326,0.102,0.326,0.306c0,0.257,0,0.428,0.008,0.51l2.98,0.007
					c0.088,0,0.162,0.036,0.217,0.104c0.059,0.068,0.086,0.149,0.086,0.241C82.182,58.1,82.082,58.2,81.879,58.2 M74.682,60.057
					h0.01c-0.158-0.611-0.303-1.09-0.436-1.43s-0.197-0.527-0.197-0.557c0-0.076,0.033-0.145,0.102-0.203
					c0.068-0.062,0.146-0.09,0.234-0.09c0.092,0,0.164,0.03,0.219,0.095c0.049,0.064,0.17,0.384,0.357,0.955
					c0.188,0.572,0.281,0.923,0.281,1.056c0,0.1-0.033,0.179-0.096,0.24c-0.066,0.061-0.143,0.092-0.23,0.092
					C74.805,60.215,74.725,60.161,74.682,60.057 M75.531,64.807v-0.01c-0.18,0-0.27-0.098-0.27-0.296
					c0-0.093,0.025-0.175,0.082-0.242c0.053-0.069,0.121-0.101,0.205-0.101h1.109l0.01-3.569c0.008-0.2,0.117-0.299,0.322-0.299
					c0.09,0,0.17,0.029,0.232,0.087c0.062,0.062,0.094,0.134,0.094,0.22l-0.01,3.562h1.27v-4.586l-2.199-0.008
					c-0.174,0-0.258-0.105-0.258-0.314c0-0.215,0.098-0.321,0.299-0.321h5.141c0.207,0,0.309,0.108,0.309,0.326
					c0,0.206-0.105,0.31-0.318,0.31l-2.311,0.008v1.814h2.215c0.172,0,0.258,0.104,0.258,0.313c0,0.214-0.094,0.318-0.287,0.318
					l-2.186-0.008v2.147l2.525,0.006c0.188,0,0.283,0.109,0.283,0.329c0,0.208-0.096,0.313-0.293,0.313H75.531z"/>
				<path fill="#231F20" d="M84.459,64.576c-0.172,0-0.254-0.093-0.254-0.271c0-0.096,0.025-0.183,0.086-0.259
					c0.059-0.078,0.131-0.118,0.221-0.118h2.932V63h-1.766c-0.082,0-0.154-0.035-0.211-0.102c-0.053-0.068-0.082-0.149-0.082-0.243
					c0-0.218,0.137-0.323,0.4-0.312h1.658l0.006-0.511c0-0.172,0.08-0.283,0.242-0.333h-1.238c-0.391,0.371-0.863,0.766-1.422,1.191
					c-0.557,0.423-0.908,0.631-1.049,0.631c-0.082,0-0.158-0.034-0.217-0.104c-0.061-0.068-0.09-0.146-0.09-0.232
					c0-0.095,0.035-0.165,0.109-0.215c0.754-0.501,1.318-0.924,1.697-1.271h-1.598c-0.182,0-0.273-0.104-0.273-0.323
					c0-0.216,0.094-0.325,0.281-0.325h1.322v-2.651h-1.25c-0.082,0-0.146-0.035-0.201-0.106c-0.053-0.07-0.078-0.154-0.078-0.247
					c0-0.195,0.092-0.294,0.27-0.294c0.568,0,0.986-0.001,1.26-0.007v-0.58c0-0.188,0.113-0.283,0.338-0.283
					c0.227,0,0.338,0.108,0.33,0.326l-0.008,0.537h3.76v-0.57c0-0.196,0.111-0.293,0.332-0.293c0.209,0,0.312,0.101,0.312,0.301
					v0.562h1.367c0.176,0,0.264,0.115,0.264,0.341c0,0.217-0.119,0.322-0.359,0.313c-0.24-0.01-0.662-0.01-1.264,0v2.651h1.459
					c0.174,0,0.26,0.109,0.26,0.325c0,0.219-0.086,0.323-0.26,0.323c-0.734,0-1.275-0.002-1.629-0.008
					c0.496,0.412,1.041,0.763,1.629,1.046c0.105,0.027,0.156,0.11,0.156,0.255c0,0.225-0.092,0.335-0.275,0.335
					c-0.135,0-0.428-0.132-0.881-0.393c-0.451-0.262-0.986-0.673-1.6-1.235h-1.295c0.158,0.039,0.24,0.151,0.24,0.343v0.509h1.838
					c0.189,0,0.283,0.106,0.283,0.318c0,0.221-0.094,0.331-0.283,0.331l-1.838-0.009v0.937h3.381c0.176,0,0.264,0.111,0.264,0.329
					c0,0.212-0.096,0.319-0.287,0.319H84.459z M89.646,58.199h-3.764v0.383h3.764V58.199z M89.646,59.25h-3.764v0.441h3.764V59.25z
					 M89.646,60.34h-3.764v0.511h3.764V60.34z"/>
				<path fill="#231F20" d="M101.33,59.661V59.65c-1.32-0.426-2.525-1.176-3.631-2.25c-0.041-0.033-0.08-0.052-0.131-0.052
					c-0.049,0-0.08,0.019-0.107,0.052c-0.658,0.715-1.387,1.248-2.193,1.599c-0.807,0.354-1.303,0.531-1.486,0.531
					c-0.088,0-0.164-0.036-0.221-0.111c-0.055-0.071-0.08-0.157-0.08-0.257c0-0.136,0.045-0.223,0.139-0.262
					c0.756-0.202,1.41-0.465,1.965-0.783c0.555-0.32,1.08-0.742,1.59-1.262c0.115-0.101,0.252-0.153,0.414-0.153
					c0.131,0,0.24,0.026,0.33,0.081s0.268,0.193,0.533,0.422c0.896,0.842,1.963,1.465,3.195,1.874
					c0.074,0.019,0.113,0.089,0.113,0.21c0,0.103-0.029,0.191-0.09,0.27c-0.061,0.075-0.143,0.114-0.246,0.114
					C101.395,59.673,101.359,59.669,101.33,59.661 M95.789,63.938v0.01c-0.086-0.288-0.193-0.577-0.318-0.871
					c-0.129-0.29-0.271-0.597-0.432-0.919c-0.158-0.316-0.238-0.499-0.238-0.541c0-0.06,0.018-0.111,0.051-0.151h-0.84
					c-0.176,0-0.268-0.107-0.268-0.326c0-0.07,0.018-0.133,0.047-0.195c0.029-0.058,0.064-0.096,0.109-0.11
					c0.041-0.016,0.281-0.021,0.721-0.021l1.311,0.003h1.314l-0.008-0.911l-2.207,0.009c-0.184,0-0.273-0.107-0.273-0.323
					c0-0.215,0.098-0.321,0.291-0.321h4.992c0.178,0,0.266,0.105,0.266,0.317c0,0.217-0.088,0.327-0.266,0.327l-2.154-0.009v0.902
					l3.238,0.009c0.176,0,0.262,0.11,0.262,0.333c0,0.211-0.092,0.316-0.285,0.316l-3.205-0.008l-0.01,2.48h0.814
					c0.354-0.493,0.752-1.238,1.188-2.232c0.045-0.096,0.125-0.144,0.234-0.144c0.086,0,0.166,0.028,0.242,0.089
					s0.113,0.127,0.113,0.203c0,0.03-0.109,0.286-0.326,0.77c-0.215,0.484-0.441,0.924-0.672,1.314h2.043
					c0.182,0,0.277,0.102,0.277,0.307c0,0.227-0.105,0.34-0.311,0.34h-7.727c-0.178-0.008-0.266-0.107-0.266-0.292
					c0-0.098,0.027-0.18,0.084-0.249c0.061-0.072,0.135-0.105,0.223-0.105H95.789z M97.229,61.465h-1.855
					c0.301,0.53,0.537,1.004,0.707,1.423c0.17,0.421,0.256,0.688,0.256,0.796c0,0.112-0.043,0.197-0.129,0.254l1.031,0.01
					L97.229,61.465z"/>
				<path fill="#231F20" d="M105.822,58.227c-1.27,0.585-1.994,0.879-2.176,0.879c-0.184,0-0.277-0.104-0.277-0.312
					c0-0.161,0.064-0.265,0.188-0.312c1.25-0.464,2.354-0.976,3.318-1.534c0.248-0.143,0.41-0.225,0.479-0.248
					c0.066-0.023,0.143-0.034,0.227-0.034c0.184,0,0.479,0.119,0.887,0.361c0.406,0.241,0.764,0.438,1.07,0.591
					c0.309,0.152,0.621,0.296,0.949,0.43l0.998,0.391c0.107,0.044,0.16,0.137,0.16,0.277c0,0.09-0.025,0.167-0.078,0.234
					c-0.057,0.068-0.123,0.101-0.205,0.101c-0.236,0-0.959-0.303-2.162-0.907l0.025,0.102c0,0.221-0.117,0.33-0.357,0.33h-2.855
					c-0.07,0-0.123-0.036-0.16-0.109c-0.035-0.072-0.053-0.122-0.053-0.148C105.799,58.303,105.807,58.271,105.822,58.227
					 M111.129,60.706c0,0.364-0.225,0.548-0.67,0.548h-5.914c-0.369,0-0.553-0.211-0.553-0.625v-1.166
					c0-0.164,0.062-0.311,0.188-0.432c0.127-0.121,0.273-0.183,0.443-0.183h5.924c0.137,0,0.268,0.056,0.393,0.164
					c0.125,0.109,0.189,0.239,0.189,0.392V60.706z M110.592,63.869c0,0.165-0.066,0.314-0.195,0.443
					c-0.131,0.132-0.26,0.197-0.387,0.197h-4.832c-0.131,0-0.266-0.054-0.404-0.157c-0.139-0.106-0.209-0.225-0.209-0.358v-1.857
					c0-0.146,0.066-0.271,0.197-0.382c0.137-0.109,0.285-0.165,0.457-0.165l4.824,0.02c0.137,0,0.26,0.067,0.373,0.199
					c0.119,0.137,0.176,0.276,0.176,0.424V63.869z M106.088,60.629l-0.721-0.895c-0.008-0.032-0.01-0.062-0.01-0.085
					c0-0.068,0.023-0.135,0.074-0.193h-0.732l-0.049,0.101v1.032l0.039,0.04H106.088z M109.914,63.376h-4.744
					c0,0.304,0.027,0.475,0.074,0.509h4.643C109.906,63.869,109.914,63.698,109.914,63.376 M109.914,62.727
					c0.008-0.081,0.01-0.156,0.01-0.223c0-0.164-0.018-0.256-0.053-0.28h-4.627c-0.066,0.045-0.088,0.21-0.066,0.503H109.914z
					 M107.24,60.637v-1.181h-1.34l0.762,0.909c0.039,0.041,0.057,0.089,0.057,0.142c0,0.036-0.012,0.079-0.031,0.13H107.24z
					 M108.852,57.954l-1.213-0.648l-0.172,0.018c-0.385,0.232-0.756,0.442-1.117,0.631H108.852z M109.352,59.456h-1.465v1.181h0.561
					c-0.008-0.029-0.012-0.058-0.012-0.082c0-0.046,0.012-0.089,0.035-0.123c0.021-0.04,0.148-0.184,0.365-0.438
					C109.064,59.739,109.23,59.561,109.352,59.456 M110.459,59.511l-0.047-0.055h-0.729c0.1,0.068,0.148,0.155,0.148,0.261
					c0,0.126-0.244,0.43-0.736,0.92h1.281l0.082-0.109V59.511z"/>
				<g>
					<path fill="#231F20" d="M71.016,51.967c-0.039,0.449-0.211,0.834-0.436,1.045c-0.332,0.212-1.033,0.449-1.918,0.449
						c-3.018,0-4.643-1.719-4.643-4.246c0-2.736,2.076-4.418,4.695-4.418c1.256,0,2.223,0.422,2.434,0.662
						c0.027,0.449-0.277,0.899-0.701,0.833c-0.396-0.173-1.018-0.356-1.746-0.356c-1.6,0-2.91,1.045-2.91,3.16
						c0,1.799,1.15,3.176,3.254,3.176c0.887,0,1.588-0.226,1.932-0.331L71.016,51.967z"/>
					<path fill="#231F20" d="M73.316,51.834c-0.158,0.41-0.424,1.059-0.529,1.283c-0.078,0.16-0.158,0.198-0.357,0.198
						c-0.41,0-0.926-0.066-1.189-0.119l-0.014-0.025c0.488-1.218,2.037-4.764,2.475-5.887l-0.041-0.237
						c0.648-0.093,1.311-0.146,1.521-0.146c0.133,0,0.186,0.054,0.238,0.158c0.529,1.258,1.23,3.108,1.535,3.902
						c0.463,1.124,0.74,1.772,0.926,2.184v0.052c-0.172,0.093-1.164,0.119-1.375,0.119c-0.227,0-0.332-0.08-0.424-0.316
						c-0.186-0.478-0.332-0.847-0.451-1.165H73.316z M75.289,50.763c-0.438-1.27-0.676-1.892-0.822-2.302
						c-0.211,0.596-0.463,1.31-0.818,2.302H75.289z"/>
					<path fill="#231F20" d="M78.555,47.323l-0.133-0.291V46.98c0.291-0.04,1.602-0.08,1.732-0.08c0.16,0,0.252,0.054,0.33,0.158
						c0.279,0.371,1.1,1.799,1.668,2.687c0.357,0.621,0.676,1.203,0.898,1.745c-0.066-0.926-0.078-1.441-0.078-2.195v-2.077
						c0-0.226,0.066-0.252,0.238-0.277c0.291-0.028,0.859-0.04,1.059-0.04c-0.014,0.423-0.027,0.991-0.027,1.852v4.419
						c-0.105,0.04-1.031,0.145-1.322,0.145c-0.172,0-0.279-0.038-0.396-0.211c-0.291-0.397-0.809-1.111-1.521-2.342
						c-0.504-0.912-0.742-1.362-1.23-2.367c0.066,0.833,0.066,1.441,0.066,2.144v2.46c0,0.197-0.08,0.25-0.225,0.278
						c-0.186,0.038-0.648,0.052-1.086,0.038c0.027-0.423,0.027-0.992,0.027-1.852V47.323z"/>
					<path fill="#231F20" d="M90.936,52.06c0,0.41-0.213,0.872-0.41,1.058c-0.213,0.146-0.809,0.305-1.549,0.305
						c-2.473,0-3.77-1.324-3.77-3.201c0-2.21,1.76-3.387,3.797-3.387c1.018,0,1.799,0.33,1.998,0.582
						c0.012,0.199-0.199,0.661-0.318,0.742c-0.092,0.064-0.199,0.104-0.33,0.039c-0.225-0.094-0.756-0.252-1.336-0.252
						c-1.152,0-2.076,0.728-2.076,2.13c0,1.322,0.857,2.208,2.406,2.208c0.621,0,1.217-0.131,1.561-0.264L90.936,52.06z"/>
					<path fill="#231F20" d="M91.795,48.396c0-0.476,0-0.819-0.027-1.284c0.502-0.039,0.992-0.119,1.508-0.131
						c0.371,0,1.654,0,2.605,0c-0.066,0.688-0.236,0.872-0.383,0.979c-0.158,0.078-0.488,0.078-0.965,0.078h-1.139v1.508h2.369
						c-0.213,0.967-0.477,1.033-0.834,1.033h-1.535v1.627c0.146,0.039,0.529,0.066,1.23,0.066c0.568,0,1.15-0.014,1.521-0.053v0.039
						c-0.105,0.502-0.305,0.859-0.596,0.978c-0.158,0.067-0.396,0.08-1.402,0.08c-1.27,0-1.932-0.053-2.182-0.092l-0.172-0.212
						V48.396z"/>
					<path fill="#231F20" d="M98.473,52.985c0,0.226-0.078,0.264-0.197,0.292c-0.305,0.025-1.191,0.038-1.402,0.038
						c0.025-0.423,0.025-1.004,0.025-1.838v-3.334c0-0.489,0-0.753-0.012-1.018c0.158-0.04,1.164-0.226,2.182-0.226
						c1.812,0,2.594,0.688,2.594,1.879c0,0.938-0.715,1.335-1.217,1.573c0.316,0.252,0.648,0.807,1.018,1.469
						c0.385,0.675,0.674,1.099,0.898,1.362v0.04c-0.25,0.079-0.621,0.118-1.07,0.118s-0.713-0.106-0.992-0.489
						c-0.184-0.251-0.49-0.872-0.834-1.507c-0.238-0.438-0.516-0.583-0.992-0.568V52.985z M98.473,49.863
						c0.477,0.014,0.848-0.026,1.033-0.105c0.211-0.105,0.543-0.344,0.543-0.9c0-0.647-0.451-1.018-1.033-1.018
						c-0.211,0-0.422,0.026-0.543,0.052V49.863z"/>
					<path fill="#231F20" d="M103.088,46.596c0-0.581-0.012-0.938-0.039-1.401c0.24-0.066,1.02-0.171,1.602-0.199
						c0.477-0.014,2.725,0,3.359,0c-0.105,0.596-0.291,0.847-0.463,1.02c-0.172,0.079-0.449,0.079-1.031,0.079h-1.773v2.632h2.99
						c-0.133,1.005-0.451,1.098-0.965,1.098h-2.025c0,1.323,0.014,2.421,0.039,3.412c-0.225,0.067-0.885,0.106-1.4,0.106
						c-0.199,0-0.293-0.039-0.293-0.251V46.596z"/>
					<path fill="#231F20" d="M110.285,50.326c0,1.495,0.688,2.051,1.469,2.051c0.859,0,1.453-0.503,1.453-2.103v-3.057
						c0-0.226,0.092-0.264,0.24-0.277c0.316-0.04,1.018-0.04,1.217-0.04c-0.027,0.41-0.041,1.02-0.041,1.865v1.31
						c0,2.937-1.613,3.347-3.055,3.347c-1.801,0-2.885-0.912-2.885-3.083v-2.036c0-0.688-0.014-1.099-0.027-1.337
						c0.199-0.025,0.834-0.065,1.404-0.065c0.184,0,0.225,0.092,0.225,0.582V50.326z"/>
					<path fill="#231F20" d="M116,47.323l-0.133-0.291V46.98c0.291-0.04,1.6-0.08,1.732-0.08c0.158,0,0.25,0.054,0.33,0.158
						c0.277,0.371,1.098,1.799,1.668,2.687c0.355,0.621,0.674,1.203,0.898,1.745c-0.066-0.926-0.08-1.441-0.08-2.195v-2.077
						c0-0.226,0.066-0.252,0.238-0.277c0.291-0.028,0.861-0.04,1.059-0.04c-0.012,0.423-0.027,0.991-0.027,1.852v4.419
						c-0.105,0.04-1.031,0.145-1.322,0.145c-0.172,0-0.277-0.038-0.396-0.211c-0.291-0.397-0.807-1.111-1.521-2.342
						c-0.502-0.912-0.74-1.362-1.23-2.367c0.066,0.833,0.066,1.441,0.066,2.144v2.46c0,0.197-0.078,0.25-0.225,0.278
						c-0.186,0.038-0.646,0.052-1.084,0.038C116,52.893,116,52.323,116,51.464V47.323z"/>
					<path fill="#231F20" d="M123.141,48.275c0-0.688,0-0.859-0.014-1.111c0.277-0.092,1.455-0.264,2.381-0.264
						c3.201,0,3.744,1.879,3.744,3.175c0,2.5-2.078,3.267-4.219,3.267c-0.596,0-1.285-0.064-1.893-0.185V48.275z M124.742,52.283
						c0.158,0.04,0.436,0.066,0.674,0.066c0.742,0,2.115-0.344,2.115-2.289c0-1.467-0.91-2.129-2.064-2.129
						c-0.223,0-0.486,0.014-0.725,0.039V52.283z"/>
				</g>
			</g>
		</g>
		<g>
			<g>
				<g>
					<defs>
						<path id="SVGID_37_" d="M44.338,49.703c-2.771,5.428-2.705,9.966-1.631,11.807c-1.158-0.56-2.629-1.722-4.125-3.848
							c0.068-2.696,0.889-5.932,2.723-9.522c8.777-17.192,22.188-8.195,13.662,8.501c-2.307,4.516-4.93,7.224-7.393,8.462
							c2.02-1.616,2.814-4.266,2.727-7.283c0.553-0.791,1.102-1.702,1.631-2.742c3.238-6.339,2.604-11.462,1.018-12.498
							C51.682,41.752,47.666,43.188,44.338,49.703z"/>
					</defs>
					<use xlink:href="#SVGID_37_"  overflow="visible" fill="#231F20"/>
					<clipPath id="SVGID_2_">
						<use xlink:href="#SVGID_37_"  overflow="visible"/>
					</clipPath>
					<g clip-path="url(#SVGID_2_)">
						<path fill="#231F20" d="M43.322,62.201c1.266,0.826,5.283-0.607,8.609-7.124c3.238-6.339,2.604-11.462,1.018-12.498
							l1.361-3.085c3.619,1.988,5.049,8.545,0.656,17.146c-4.178,8.181-9.402,10.432-12.814,8.746L43.322,62.201z"/>
						<g>
							<defs>
								<path id="SVGID_39_" d="M41.326,48.14c8.852-17.192,22.375-8.195,13.779,8.501C46.254,73.834,32.729,64.836,41.326,48.14z
									 M44.387,49.703c-3.264,6.339-2.625,11.461-1.025,12.498c1.279,0.826,5.328-0.607,8.684-7.124
									c3.264-6.339,2.625-11.462,1.025-12.498C51.793,41.752,47.742,43.188,44.387,49.703z"/>
							</defs>
							<use xlink:href="#SVGID_39_"  overflow="visible" fill="#231F20"/>
							<clipPath id="SVGID_4_">
								<use xlink:href="#SVGID_39_"  overflow="visible"/>
							</clipPath>
							<g clip-path="url(#SVGID_4_)">
								<path fill="#231F20" stroke="#F48365" stroke-width="0.158" d="M44.291,49.805c-3.207,6.1-2.582,11.029-1.006,12.025
									c1.254,0.796,5.234-0.584,8.533-6.854c3.205-6.1,2.58-11.03,1.006-12.027C51.568,42.154,47.59,43.535,44.291,49.805z"/>
							</g>
						</g>
						<g>
							<path fill="#231F20" stroke="#F04E23" stroke-width="0.1618" d="M42.557,64.5c0.008,0.003,0.016,0.009,0.023,0.013"/>
						</g>
						<g>
							<defs>
								<path id="SVGID_41_" d="M42.152,65.387c-3.758-1.858-5.316-8.495-0.848-17.247c4.254-8.335,9.6-10.515,13.006-8.646
									l-1.361,3.085c-1.268-0.827-5.283,0.608-8.611,7.124c-3.236,6.339-2.604,11.461-1.016,12.498L42.152,65.387z"/>
							</defs>
							<use xlink:href="#SVGID_41_"  overflow="visible" fill="#231F20"/>
							<clipPath id="SVGID_6_">
								<use xlink:href="#SVGID_41_"  overflow="visible"/>
							</clipPath>
							<g clip-path="url(#SVGID_6_)">
								<path fill="#231F20" stroke="#F04E23" stroke-width="0.1618" d="M42.152,65.387c-3.758-1.858-5.496-8.624-1.025-17.376
									c4.256-8.333,9.777-10.386,13.184-8.517"/>
							</g>
						</g>
					</g>
				</g>
				<g>
					<defs>
						<path id="SVGID_43_" d="M47.137,48.14c8.523,16.696-4.883,25.694-13.664,8.501c-7.539-14.764,2.074-23.509,10.471-13.445
							c-0.738,0.904-1.432,1.901-2.066,2.959c-2.715-3.482-5.395-4.223-6.387-3.575c-1.586,1.036-2.219,6.159,1.018,12.498
							c3.326,6.517,7.344,7.95,8.613,7.124c1.521-0.994,2.164-5.754-0.648-11.74c0.09-0.182,0.18-0.364,0.273-0.549
							c0.582-1.142,1.178-2.112,1.768-2.934C46.725,47.351,46.93,47.737,47.137,48.14z"/>
					</defs>
					<use xlink:href="#SVGID_43_"  overflow="visible" fill="#231F20"/>
					<clipPath id="SVGID_8_">
						<use xlink:href="#SVGID_43_"  overflow="visible"/>
					</clipPath>
					<path clip-path="url(#SVGID_8_)" fill="#231F20" d="M45.121,62.201c1.584-1.035,2.219-6.159-1.018-12.498
						c-3.328-6.516-7.346-7.951-8.613-7.124l-1.518-2.995c3.398-2.025,8.842,0.092,13.164,8.556
						c4.379,8.575,2.971,15.12-0.623,17.129L45.121,62.201z"/>
					<path clip-path="url(#SVGID_8_)" fill="#231F20" d="M46.514,65.269c-3.402,1.901-8.77-0.264-13.041-8.628
						c-4.328-8.477-3.002-14.971,0.5-17.057l1.518,2.995c-1.586,1.036-2.219,6.159,1.018,12.498c3.326,6.517,7.344,7.95,8.613,7.124
						L46.514,65.269z"/>
					<g clip-path="url(#SVGID_8_)">
						<path fill="#231F20" d="M46.514,65.269c-3.402,1.901-8.77-0.264-13.041-8.628c-4.328-8.477-3.002-14.971,0.5-17.057
							l1.518,2.995c-1.586,1.036-2.219,6.159,1.018,12.498c3.326,6.517,7.344,7.95,8.613,7.124L46.514,65.269z"/>
					</g>
					<path clip-path="url(#SVGID_8_)" fill="#231F20" d="M45.121,62.201c1.584-1.035,2.219-6.159-1.018-12.498
						c-3.328-6.516-7.346-7.951-8.613-7.124l-1.518-2.995c3.398-2.025,8.842,0.092,13.164,8.556
						c4.379,8.575,2.971,15.12-0.623,17.129L45.121,62.201z"/>
					<g clip-path="url(#SVGID_8_)">
						<path fill="#231F20" stroke="#F9B8A7" stroke-width="0.1618" d="M46.514,65.269c-3.402,1.901-8.77-0.264-13.041-8.628
							c-4.328-8.477-3.002-14.971,0.5-17.057"/>
						<g>
							<path fill="#231F20" stroke="#F04E23" stroke-width="0.1618" d="M46.514,65.269c-3.402,1.901-8.77-0.264-13.041-8.628
								c-4.328-8.477-3.002-14.971,0.5-17.057"/>
							<path fill="#231F20" stroke="#F05227" stroke-width="0.1618" d="M46.541,65.25c-3.401,1.901-8.756-0.267-13.027-8.631
								c-4.328-8.477-3.019-14.961,0.483-17.046"/>
							<path fill="#231F20" stroke="#F1552B" stroke-width="0.1618" d="M46.569,65.23c-3.402,1.901-8.743-0.27-13.015-8.634
								c-4.327-8.477-3.035-14.951,0.467-17.036"/>
							<path fill="#231F20" stroke="#F15930" stroke-width="0.1618" d="M46.597,65.211c-3.402,1.902-8.729-0.273-13-8.637
								c-4.329-8.477-3.053-14.94,0.45-17.026"/>
							<path fill="#231F20" stroke="#F15C34" stroke-width="0.1618" d="M46.625,65.192c-3.402,1.901-8.717-0.276-12.988-8.641
								c-4.328-8.476-3.067-14.93,0.434-17.016"/>
							<path fill="#231F20" stroke="#F16038" stroke-width="0.1618" d="M46.652,65.172c-3.401,1.902-8.703-0.279-12.975-8.643
								c-4.327-8.477-3.084-14.92,0.418-17.006"/>
							<path fill="#231F20" stroke="#F2633D" stroke-width="0.1618" d="M46.681,65.153c-3.402,1.902-8.69-0.282-12.961-8.646
								c-4.329-8.477-3.102-14.91,0.4-16.996"/>
							<path fill="#231F20" stroke="#F26641" stroke-width="0.1618" d="M46.708,65.134c-3.402,1.902-8.675-0.286-12.947-8.649
								c-4.328-8.477-3.118-14.899,0.384-16.986"/>
							<path fill="#231F20" stroke="#F26A45" stroke-width="0.1618" d="M46.736,65.115c-3.403,1.902-8.662-0.289-12.934-8.652
								c-4.329-8.477-3.135-14.89,0.366-16.976"/>
							<path fill="#231F20" stroke="#F36D4A" stroke-width="0.1618" d="M46.764,65.096c-3.402,1.902-8.648-0.292-12.921-8.656
								c-4.327-8.477-3.15-14.879,0.351-16.966"/>
							<path fill="#231F20" stroke="#F3714E" stroke-width="0.1618" d="M46.792,65.077c-3.402,1.902-8.636-0.295-12.908-8.659
								c-4.328-8.477-3.167-14.869,0.335-16.955"/>
							<path fill="#231F20" stroke="#F37452" stroke-width="0.1618" d="M46.82,65.058c-3.403,1.902-8.623-0.298-12.895-8.662
								c-4.329-8.476-3.185-14.859,0.317-16.945"/>
							<path fill="#231F20" stroke="#F47857" stroke-width="0.1618" d="M46.848,65.039c-3.402,1.902-8.609-0.301-12.881-8.665
								c-4.328-8.477-3.201-14.849,0.3-16.936"/>
							<path fill="#231F20" stroke="#F47B5B" stroke-width="0.1618" d="M46.875,65.02c-3.402,1.901-8.596-0.304-12.867-8.668
								c-4.329-8.477-3.218-14.839,0.284-16.925"/>
							<path fill="#231F20" stroke="#F47F5F" stroke-width="0.1618" d="M46.903,65c-3.403,1.902-8.583-0.308-12.854-8.671
								c-4.328-8.477-3.234-14.829,0.268-16.915"/>
							<path fill="#231F20" stroke="#F48264" stroke-width="0.1618" d="M46.932,64.981c-3.403,1.902-8.57-0.311-12.842-8.674
								c-4.328-8.476-3.251-14.818,0.252-16.905"/>
							<path fill="#231F20" stroke="#F58668" stroke-width="0.1618" d="M46.959,64.962c-3.402,1.902-8.556-0.313-12.828-8.677
								c-4.328-8.477-3.267-14.808,0.234-16.895"/>
							<path fill="#231F20" stroke="#F5896C" stroke-width="0.1618" d="M46.986,64.943c-3.402,1.902-8.542-0.317-12.813-8.681
								c-4.329-8.477-3.284-14.798,0.217-16.885"/>
							<path fill="#231F20" stroke="#F58D71" stroke-width="0.1618" d="M47.014,64.923c-3.402,1.902-8.528-0.32-12.801-8.683
								c-4.328-8.477-3.3-14.788,0.201-16.875"/>
							<path fill="#231F20" stroke="#F69075" stroke-width="0.1618" d="M47.042,64.905c-3.402,1.901-8.516-0.323-12.787-8.687
								c-4.329-8.477-3.317-14.778,0.185-16.865"/>
							<path fill="#231F20" stroke="#F69479" stroke-width="0.1618" d="M47.07,64.885c-3.402,1.902-8.503-0.326-12.774-8.689
								c-4.329-8.477-3.333-14.768,0.168-16.854"/>
							<path fill="#231F20" stroke="#F6977D" stroke-width="0.1618" d="M47.098,64.866c-3.402,1.902-8.488-0.329-12.76-8.692
								c-4.33-8.477-3.351-14.758,0.15-16.845"/>
							<path fill="#231F20" stroke="#F69A82" stroke-width="0.1618" d="M47.125,64.847c-3.402,1.902-8.475-0.333-12.746-8.696
								c-4.33-8.477-3.367-14.747,0.134-16.834"/>
							<path fill="#231F20" stroke="#F79E86" stroke-width="0.1618" d="M47.152,64.828c-3.401,1.902-8.461-0.335-12.732-8.699
								c-4.329-8.477-3.384-14.737,0.117-16.824"/>
							<path fill="#231F20" stroke="#F7A18A" stroke-width="0.1618" d="M47.181,64.809c-3.402,1.902-8.448-0.338-12.72-8.702
								c-4.33-8.477-3.4-14.727,0.102-16.814"/>
							<path fill="#231F20" stroke="#F7A58F" stroke-width="0.1618" d="M47.209,64.79c-3.402,1.902-8.436-0.342-12.707-8.705
								c-4.329-8.477-3.416-14.717,0.084-16.804"/>
							<path fill="#231F20" stroke="#F8A893" stroke-width="0.1618" d="M47.236,64.77c-3.402,1.902-8.422-0.345-12.693-8.708
								c-4.329-8.477-3.434-14.707,0.068-16.793"/>
							<path fill="#231F20" stroke="#F8AC97" stroke-width="0.1618" d="M47.264,64.751c-3.402,1.903-8.408-0.348-12.68-8.711
								c-4.329-8.477-3.449-14.696,0.052-16.783"/>
							<path fill="#231F20" stroke="#F8AF9C" stroke-width="0.1618" d="M47.292,64.732c-3.401,1.902-8.396-0.352-12.667-8.714
								c-4.328-8.477-3.466-14.687,0.035-16.774"/>
							<path fill="#231F20" stroke="#F9B3A0" stroke-width="0.1618" d="M47.32,64.712c-3.402,1.903-8.382-0.354-12.654-8.717
								c-4.328-8.477-3.482-14.677,0.019-16.764"/>
							<path fill="#231F20" stroke="#F9B6A4" stroke-width="0.1618" d="M47.348,64.694c-3.402,1.902-8.368-0.357-12.641-8.721
								c-4.328-8.477-3.498-14.666,0.002-16.753"/>
							<path fill="#231F20" stroke="#F9BAA9" stroke-width="0.1618" d="M47.375,64.674c-3.402,1.902-8.354-0.36-12.626-8.724
								c-4.329-8.477-3.517-14.656-0.015-16.743"/>
							<path fill="#231F20" stroke="#F9BDAD" stroke-width="0.1618" d="M47.403,64.655c-3.402,1.902-8.342-0.364-12.613-8.727
								c-4.329-8.477-3.532-14.646-0.032-16.733"/>
							<path fill="#231F20" stroke="#FAC1B1" stroke-width="0.1618" d="M47.432,64.636c-3.402,1.902-8.328-0.367-12.601-8.73
								c-4.329-8.477-3.55-14.636-0.048-16.723"/>
							<path fill="#231F20" stroke="#FAC4B6" stroke-width="0.1618" d="M47.459,64.617c-3.402,1.903-8.314-0.37-12.586-8.732
								c-4.33-8.477-3.566-14.626-0.066-16.713"/>
							<path fill="#231F20" stroke="#FAC8BA" stroke-width="0.1618" d="M47.487,64.598c-3.402,1.903-8.302-0.373-12.573-8.736
								c-4.33-8.477-3.583-14.615-0.082-16.703"/>
							<path fill="#231F20" stroke="#FBCBBE" stroke-width="0.1618" d="M47.515,64.579c-3.402,1.902-8.288-0.376-12.56-8.739
								c-4.33-8.477-3.6-14.606-0.1-16.693"/>
							<path fill="#231F20" stroke="#FBCEC3" stroke-width="0.1618" d="M47.543,64.559c-3.403,1.903-8.275-0.379-12.547-8.742
								c-4.33-8.477-3.615-14.595-0.115-16.683"/>
							<path fill="#231F20" stroke="#FBD2C7" stroke-width="0.1618" d="M47.57,64.541c-3.402,1.902-8.262-0.382-12.533-8.746
								c-4.329-8.477-3.632-14.585-0.132-16.672"/>
							<path fill="#231F20" stroke="#FBD5CB" stroke-width="0.1618" d="M47.598,64.521c-3.401,1.903-8.248-0.385-12.52-8.748
								c-4.33-8.477-3.648-14.575-0.148-16.663"/>
							<path fill="#231F20" stroke="#FCD9D0" stroke-width="0.1618" d="M47.625,64.502c-3.401,1.903-8.233-0.388-12.506-8.751
								c-4.33-8.477-3.665-14.564-0.164-16.652"/>
							<path fill="#231F20" stroke="#FCDCD4" stroke-width="0.1618" d="M47.654,64.483c-3.403,1.902-8.222-0.392-12.494-8.754
								c-4.329-8.477-3.682-14.555-0.182-16.642"/>
							<path fill="#231F20" stroke="#FCE0D8" stroke-width="0.1618" d="M47.682,64.464c-3.402,1.903-8.208-0.396-12.479-8.758
								c-4.33-8.477-3.699-14.544-0.198-16.632"/>
							<path fill="#231F20" stroke="#FDE3DC" stroke-width="0.1618" d="M47.709,64.445c-3.402,1.902-8.194-0.398-12.466-8.761
								c-4.33-8.477-3.716-14.535-0.215-16.622"/>
							<path fill="#231F20" stroke="#FDE7E1" stroke-width="0.1618" d="M47.736,64.425c-3.401,1.903-8.181-0.401-12.453-8.764
								c-4.329-8.477-3.73-14.524-0.23-16.612"/>
							<path fill="#231F20" stroke="#FDEAE5" stroke-width="0.1618" d="M47.765,64.406c-3.402,1.903-8.168-0.404-12.439-8.767
								c-4.33-8.477-3.749-14.514-0.247-16.601"/>
							<path fill="#231F20" stroke="#FEEEE9" stroke-width="0.1618" d="M47.792,64.387c-3.401,1.903-8.154-0.407-12.426-8.77
								c-4.329-8.476-3.765-14.503-0.265-16.591"/>
							<path fill="#231F20" stroke="#FEF1EE" stroke-width="0.1618" d="M47.82,64.368c-3.402,1.903-8.141-0.411-12.412-8.773
								c-4.331-8.477-3.781-14.494-0.282-16.582"/>
							<path fill="#231F20" stroke="#FEF5F2" stroke-width="0.1618" d="M47.848,64.349c-3.402,1.903-8.127-0.414-12.398-8.776
								c-4.33-8.477-3.798-14.483-0.298-16.572"/>
							<path fill="#231F20" stroke="#FEF8F6" stroke-width="0.1618" d="M47.876,64.329c-3.402,1.903-8.114-0.417-12.387-8.779
								c-4.329-8.477-3.813-14.474-0.314-16.561"/>
							<path fill="#231F20" stroke="#FFFCFB" stroke-width="0.1618" d="M47.903,64.31c-3.401,1.904-8.101-0.419-12.372-8.782
								c-4.33-8.477-3.831-14.463-0.331-16.551"/>
							<path fill="#231F20" stroke="#FFFFFF" stroke-width="0.1618" d="M47.932,64.291c-3.402,1.903-8.088-0.423-12.359-8.785
								c-4.33-8.477-3.848-14.453-0.348-16.541"/>
						</g>
					</g>
					<g clip-path="url(#SVGID_8_)">
						<path fill="#231F20" stroke="#F04E23" stroke-width="0.1618" d="M33.973,39.584c3.398-2.025,8.842,0.092,13.164,8.556
							c4.379,8.575,2.971,15.12-0.623,17.129"/>
						<path fill="#231F20" stroke="#F05227" stroke-width="0.1618" d="M33.976,39.589c3.398-2.025,8.829,0.092,13.15,8.556
							c4.379,8.575,2.974,15.109-0.621,17.118"/>
						<path fill="#231F20" stroke="#F1552B" stroke-width="0.1618" d="M33.978,39.594c3.398-2.026,8.816,0.092,13.138,8.557
							c4.379,8.575,2.976,15.098-0.618,17.107"/>
						<path fill="#231F20" stroke="#F15930" stroke-width="0.1618" d="M33.98,39.598c3.398-2.025,8.803,0.094,13.125,8.557
							c4.379,8.575,2.978,15.088-0.616,17.096"/>
						<path fill="#231F20" stroke="#F15C34" stroke-width="0.1618" d="M33.982,39.603c3.398-2.025,8.79,0.094,13.112,8.558
							c4.378,8.576,2.979,15.077-0.614,17.085"/>
						<path fill="#231F20" stroke="#F16038" stroke-width="0.1618" d="M33.985,39.607c3.398-2.025,8.776,0.095,13.1,8.559
							c4.378,8.575,2.981,15.065-0.612,17.074"/>
						<path fill="#231F20" stroke="#F2633D" stroke-width="0.1618" d="M33.988,39.613c3.397-2.025,8.764,0.095,13.085,8.559
							c4.379,8.575,2.985,15.055-0.608,17.063"/>
						<path fill="#231F20" stroke="#F26641" stroke-width="0.1618" d="M33.991,39.617c3.397-2.025,8.75,0.096,13.071,8.56
							c4.379,8.575,2.987,15.044-0.605,17.052"/>
						<path fill="#231F20" stroke="#F26A45" stroke-width="0.1618" d="M33.993,39.622c3.397-2.025,8.737,0.096,13.06,8.56
							c4.378,8.575,2.989,15.033-0.604,17.042"/>
						<path fill="#231F20" stroke="#F36D4A" stroke-width="0.1618" d="M33.996,39.626c3.397-2.025,8.723,0.097,13.046,8.561
							c4.378,8.576,2.991,15.022-0.602,17.031"/>
						<path fill="#231F20" stroke="#F3714E" stroke-width="0.1618" d="M33.998,39.632c3.398-2.025,8.711,0.097,13.033,8.561
							c4.379,8.575,2.994,15.011-0.599,17.02"/>
						<path fill="#231F20" stroke="#F37452" stroke-width="0.1618" d="M34.001,39.636c3.397-2.025,8.698,0.098,13.02,8.562
							c4.379,8.576,2.997,15-0.597,17.009"/>
						<path fill="#231F20" stroke="#F47857" stroke-width="0.1618" d="M34.003,39.641c3.399-2.025,8.685,0.098,13.008,8.562
							c4.378,8.575,2.999,14.989-0.595,16.998"/>
						<path fill="#231F20" stroke="#F47B5B" stroke-width="0.1618" d="M34.006,39.646c3.398-2.025,8.672,0.099,12.994,8.563
							c4.378,8.575,3.001,14.979-0.592,16.987"/>
						<path fill="#231F20" stroke="#F47F5F" stroke-width="0.1618" d="M34.009,39.65c3.398-2.025,8.657,0.099,12.981,8.563
							c4.378,8.576,3.002,14.968-0.59,16.976"/>
						<path fill="#231F20" stroke="#F48264" stroke-width="0.1618" d="M34.012,39.655c3.397-2.025,8.645,0.1,12.967,8.563
							c4.379,8.576,3.006,14.957-0.587,16.965"/>
						<path fill="#231F20" stroke="#F58668" stroke-width="0.1618" d="M34.014,39.66c3.397-2.024,8.633,0.101,12.955,8.564
							c4.378,8.575,3.008,14.945-0.586,16.954"/>
						<path fill="#231F20" stroke="#F5896C" stroke-width="0.1618" d="M34.016,39.665c3.398-2.025,8.619,0.101,12.942,8.565
							c4.378,8.576,3.011,14.935-0.583,16.943"/>
						<path fill="#231F20" stroke="#F58D71" stroke-width="0.1618" d="M34.02,39.669c3.396-2.025,8.605,0.102,12.928,8.565
							c4.378,8.576,3.013,14.924-0.58,16.932"/>
						<path fill="#231F20" stroke="#F69075" stroke-width="0.1618" d="M34.021,39.674c3.397-2.025,8.593,0.102,12.915,8.566
							c4.378,8.575,3.015,14.913-0.577,16.921"/>
						<path fill="#231F20" stroke="#F69479" stroke-width="0.1618" d="M34.023,39.679c3.398-2.025,8.58,0.103,12.902,8.566
							c4.379,8.575,3.018,14.901-0.575,16.91"/>
						<path fill="#231F20" stroke="#F6977D" stroke-width="0.1618" d="M34.026,39.684c3.397-2.025,8.567,0.103,12.89,8.567
							c4.378,8.576,3.02,14.891-0.573,16.899"/>
						<path fill="#231F20" stroke="#F69A82" stroke-width="0.1618" d="M34.029,39.688c3.397-2.025,8.554,0.104,12.875,8.568
							c4.379,8.575,3.023,14.88-0.57,16.888"/>
						<path fill="#231F20" stroke="#F79E86" stroke-width="0.1618" d="M34.031,39.693c3.398-2.024,8.541,0.104,12.863,8.568
							c4.378,8.576,3.024,14.869-0.568,16.877"/>
						<path fill="#231F20" stroke="#F7A18A" stroke-width="0.1618" d="M34.034,39.698c3.397-2.024,8.528,0.105,12.85,8.568
							c4.378,8.576,3.026,14.858-0.565,16.867"/>
						<path fill="#231F20" stroke="#F7A58F" stroke-width="0.1618" d="M34.037,39.703c3.397-2.025,8.514,0.105,12.836,8.569
							c4.379,8.575,3.029,14.847-0.563,16.855"/>
						<path fill="#231F20" stroke="#F8A893" stroke-width="0.1618" d="M34.039,39.708c3.398-2.025,8.502,0.105,12.824,8.569
							c4.377,8.576,3.031,14.837-0.562,16.845"/>
						<path fill="#231F20" stroke="#F8AC97" stroke-width="0.1618" d="M34.042,39.712c3.397-2.025,8.488,0.106,12.811,8.57
							c4.378,8.576,3.034,14.826-0.56,16.834"/>
						<path fill="#231F20" stroke="#F8AF9C" stroke-width="0.1618" d="M34.045,39.717c3.396-2.025,8.475,0.107,12.797,8.571
							c4.378,8.576,3.036,14.814-0.557,16.823"/>
						<path fill="#231F20" stroke="#F9B3A0" stroke-width="0.1618" d="M34.047,39.722c3.397-2.025,8.463,0.107,12.784,8.571
							c4.378,8.576,3.038,14.804-0.554,16.812"/>
						<path fill="#231F20" stroke="#F9B6A4" stroke-width="0.1618" d="M34.05,39.726c3.397-2.024,8.448,0.108,12.771,8.572
							c4.379,8.576,3.041,14.793-0.551,16.801"/>
						<path fill="#231F20" stroke="#F9BAA9" stroke-width="0.1618" d="M34.053,39.731c3.396-2.024,8.436,0.108,12.758,8.572
							c4.377,8.576,3.043,14.782-0.55,16.79"/>
						<path fill="#231F20" stroke="#F9BDAD" stroke-width="0.1618" d="M34.055,39.736c3.397-2.024,8.423,0.109,12.745,8.573
							c4.378,8.575,3.046,14.771-0.547,16.779"/>
						<path fill="#231F20" stroke="#FAC1B1" stroke-width="0.1618" d="M34.058,39.741c3.397-2.024,8.409,0.109,12.731,8.573
							c4.378,8.576,3.048,14.76-0.545,16.768"/>
						<path fill="#231F20" stroke="#FAC4B6" stroke-width="0.1618" d="M34.06,39.746c3.397-2.025,8.396,0.11,12.72,8.574
							c4.377,8.576,3.049,14.749-0.543,16.757"/>
						<path fill="#231F20" stroke="#FAC8BA" stroke-width="0.1618" d="M34.062,39.75c3.396-2.024,8.383,0.111,12.705,8.575
							c4.378,8.576,3.053,14.738-0.539,16.746"/>
						<path fill="#231F20" stroke="#FBCBBE" stroke-width="0.1618" d="M34.064,39.755c3.397-2.025,8.371,0.111,12.692,8.575
							c4.378,8.576,3.056,14.728-0.536,16.736"/>
						<path fill="#231F20" stroke="#FBCEC3" stroke-width="0.1618" d="M34.067,39.76c3.397-2.025,8.357,0.112,12.68,8.575
							c4.378,8.576,3.058,14.716-0.536,16.725"/>
						<path fill="#231F20" stroke="#FBD2C7" stroke-width="0.1618" d="M34.07,39.765c3.396-2.025,8.344,0.112,12.666,8.576
							c4.378,8.576,3.059,14.706-0.533,16.714"/>
						<path fill="#231F20" stroke="#FBD5CB" stroke-width="0.1618" d="M34.073,39.769c3.396-2.024,8.33,0.113,12.653,8.577
							c4.377,8.576,3.061,14.694-0.531,16.703"/>
						<path fill="#231F20" stroke="#FCD9D0" stroke-width="0.1618" d="M34.075,39.774c3.396-2.024,8.317,0.113,12.641,8.577
							c4.377,8.576,3.063,14.684-0.528,16.691"/>
						<path fill="#231F20" stroke="#FCDCD4" stroke-width="0.1618" d="M34.078,39.779c3.396-2.024,8.305,0.113,12.627,8.577
							c4.377,8.576,3.066,14.673-0.525,16.681"/>
						<path fill="#231F20" stroke="#FCE0D8" stroke-width="0.1618" d="M34.08,39.784c3.396-2.025,8.292,0.114,12.614,8.578
							c4.377,8.576,3.069,14.662-0.522,16.669"/>
						<path fill="#231F20" stroke="#FDE3DC" stroke-width="0.1618" d="M34.083,39.788c3.396-2.025,8.278,0.115,12.601,8.579
							c4.378,8.576,3.072,14.65-0.521,16.659"/>
						<path fill="#231F20" stroke="#FDE7E1" stroke-width="0.1618" d="M34.086,39.793c3.396-2.024,8.265,0.115,12.588,8.579
							c4.376,8.576,3.072,14.64-0.52,16.648"/>
						<path fill="#231F20" stroke="#FDEAE5" stroke-width="0.1618" d="M34.088,39.798c3.397-2.024,8.253,0.116,12.574,8.58
							c4.378,8.576,3.076,14.629-0.516,16.637"/>
						<path fill="#231F20" stroke="#FEEEE9" stroke-width="0.1618" d="M34.091,39.803c3.396-2.025,8.239,0.116,12.562,8.58
							c4.377,8.576,3.078,14.618-0.514,16.626"/>
						<path fill="#231F20" stroke="#FEF1EE" stroke-width="0.1618" d="M34.094,39.807c3.396-2.024,8.226,0.117,12.548,8.581
							c4.377,8.577,3.081,14.607-0.512,16.616"/>
						<path fill="#231F20" stroke="#FEF5F2" stroke-width="0.1618" d="M34.096,39.812c3.396-2.025,8.213,0.117,12.536,8.582
							c4.376,8.576,3.083,14.596-0.51,16.604"/>
						<path fill="#231F20" stroke="#FEF8F6" stroke-width="0.1618" d="M34.098,39.817c3.397-2.024,8.201,0.118,12.522,8.582
							c4.378,8.576,3.085,14.585-0.506,16.593"/>
						<path fill="#231F20" stroke="#FFFCFB" stroke-width="0.1618" d="M34.101,39.822c3.396-2.025,8.188,0.118,12.51,8.582
							c4.376,8.576,3.087,14.575-0.505,16.582"/>
						<path fill="#231F20" stroke="#FFFFFF" stroke-width="0.1618" d="M34.104,39.826c3.396-2.024,8.174,0.119,12.496,8.583
							c4.377,8.576,3.09,14.563-0.502,16.571"/>
					</g>
					<g clip-path="url(#SVGID_8_)">
						<g>
							<path fill="#231F20" stroke="#F04E23" stroke-width="0.1618" d="M45.121,62.201c1.584-1.035,2.219-6.159-1.018-12.498
								c-3.328-6.516-7.346-7.951-8.613-7.124"/>
							<path fill="#231F20" stroke="#F05227" stroke-width="0.1618" d="M45.119,62.202c1.584-1.035,2.234-6.165-1.002-12.504
								c-3.328-6.516-7.356-7.958-8.626-7.119"/>
							<path fill="#231F20" stroke="#F1552B" stroke-width="0.1618" d="M45.118,62.202c1.584-1.035,2.249-6.171-0.987-12.51
								c-3.328-6.516-7.367-7.963-8.639-7.113"/>
							<path fill="#231F20" stroke="#F15930" stroke-width="0.1618" d="M45.117,62.203c1.584-1.035,2.264-6.177-0.973-12.516
								c-3.328-6.516-7.377-7.97-8.652-7.107"/>
							<path fill="#231F20" stroke="#F15C34" stroke-width="0.1618" d="M45.116,62.203c1.584-1.035,2.278-6.182-0.958-12.521
								c-3.328-6.516-7.388-7.977-8.665-7.102"/>
							<path fill="#231F20" stroke="#F16038" stroke-width="0.1618" d="M45.115,62.204c1.584-1.035,2.293-6.188-0.943-12.527
								c-3.328-6.516-7.399-7.983-8.678-7.096"/>
							<path fill="#231F20" stroke="#F2633D" stroke-width="0.1618" d="M45.113,62.205c1.584-1.035,2.309-6.194-0.928-12.533
								c-3.328-6.516-7.409-7.989-8.69-7.091"/>
							<path fill="#231F20" stroke="#F26641" stroke-width="0.1618" d="M45.112,62.205c1.584-1.036,2.323-6.2-0.912-12.54
								c-3.329-6.515-7.421-7.995-8.705-7.085"/>
							<path fill="#231F20" stroke="#F26A45" stroke-width="0.1618" d="M45.111,62.206c1.584-1.035,2.338-6.206-0.898-12.545
								c-3.327-6.516-7.431-8.001-8.716-7.08"/>
							<path fill="#231F20" stroke="#F36D4A" stroke-width="0.1618" d="M45.109,62.206c1.584-1.036,2.354-6.212-0.883-12.551
								c-3.328-6.516-7.44-8.008-8.729-7.074"/>
							<path fill="#231F20" stroke="#F3714E" stroke-width="0.1618" d="M45.107,62.207c1.585-1.035,2.369-6.217-0.866-12.557
								c-3.329-6.516-7.452-8.015-8.743-7.068"/>
							<path fill="#231F20" stroke="#F37452" stroke-width="0.1618" d="M45.106,62.207c1.585-1.035,2.384-6.223-0.853-12.562
								c-3.328-6.516-7.463-8.021-8.756-7.063"/>
							<path fill="#231F20" stroke="#F47857" stroke-width="0.1618" d="M45.105,62.208c1.585-1.035,2.399-6.229-0.838-12.568
								c-3.328-6.516-7.473-8.028-8.768-7.058"/>
							<path fill="#231F20" stroke="#F47B5B" stroke-width="0.1618" d="M45.104,62.208c1.586-1.035,2.414-6.235-0.821-12.574
								c-3.329-6.516-7.484-8.033-8.782-7.052"/>
							<path fill="#231F20" stroke="#F47F5F" stroke-width="0.1618" d="M45.103,62.209c1.585-1.036,2.429-6.241-0.808-12.58
								c-3.327-6.516-7.494-8.04-8.794-7.046"/>
							<path fill="#231F20" stroke="#F48264" stroke-width="0.1618" d="M45.102,62.209c1.585-1.035,2.444-6.247-0.793-12.586
								c-3.327-6.516-7.504-8.046-8.807-7.041"/>
							<path fill="#231F20" stroke="#F58668" stroke-width="0.1618" d="M45.101,62.21c1.584-1.035,2.458-6.253-0.777-12.592
								c-3.329-6.516-7.516-8.052-8.82-7.035"/>
							<path fill="#231F20" stroke="#F5896C" stroke-width="0.1618" d="M45.1,62.21c1.584-1.035,2.474-6.259-0.764-12.598
								c-3.328-6.516-7.525-8.059-8.833-7.029"/>
							<path fill="#231F20" stroke="#F58D71" stroke-width="0.1618" d="M45.098,62.211c1.585-1.035,2.489-6.265-0.748-12.603
								c-3.327-6.517-7.535-8.065-8.846-7.024"/>
							<path fill="#231F20" stroke="#F69075" stroke-width="0.1618" d="M45.096,62.211c1.586-1.035,2.504-6.271-0.731-12.609
								c-3.329-6.516-7.548-8.071-8.859-7.019"/>
							<path fill="#231F20" stroke="#F69479" stroke-width="0.1618" d="M45.095,62.212c1.585-1.036,2.519-6.276-0.718-12.615
								c-3.328-6.516-7.557-8.078-8.871-7.013"/>
							<path fill="#231F20" stroke="#F6977D" stroke-width="0.1618" d="M45.094,62.212c1.584-1.035,2.534-6.282-0.702-12.621
								c-3.328-6.516-7.568-8.084-8.886-7.007"/>
							<path fill="#231F20" stroke="#F69A82" stroke-width="0.1618" d="M45.092,62.213c1.586-1.036,2.55-6.288-0.687-12.627
								c-3.328-6.516-7.579-8.091-8.898-7.002"/>
							<path fill="#231F20" stroke="#F79E86" stroke-width="0.1618" d="M45.092,62.214c1.584-1.036,2.562-6.293-0.673-12.633
								c-3.329-6.516-7.59-8.097-8.911-6.996"/>
							<path fill="#231F20" stroke="#F7A18A" stroke-width="0.1618" d="M45.09,62.214c1.585-1.035,2.579-6.3-0.657-12.639
								c-3.328-6.516-7.601-8.103-8.925-6.991"/>
							<path fill="#231F20" stroke="#F7A58F" stroke-width="0.1618" d="M45.088,62.215c1.586-1.036,2.595-6.306-0.642-12.645
								c-3.328-6.516-7.611-8.109-8.937-6.985"/>
							<path fill="#231F20" stroke="#F8A893" stroke-width="0.1618" d="M45.087,62.215c1.585-1.035,2.609-6.312-0.627-12.65
								c-3.328-6.516-7.622-8.116-8.95-6.979"/>
							<path fill="#231F20" stroke="#F8AC97" stroke-width="0.1618" d="M45.086,62.216c1.586-1.036,2.624-6.317-0.612-12.656
								c-3.328-6.517-7.632-8.122-8.963-6.975"/>
							<path fill="#231F20" stroke="#F8AF9C" stroke-width="0.1618" d="M45.084,62.216c1.586-1.035,2.64-6.323-0.597-12.662
								c-3.328-6.516-7.644-8.128-8.976-6.969"/>
							<path fill="#231F20" stroke="#F9B3A0" stroke-width="0.1618" d="M45.084,62.217c1.584-1.036,2.653-6.329-0.582-12.668
								c-3.329-6.516-7.654-8.135-8.99-6.963"/>
							<path fill="#231F20" stroke="#F9B6A4" stroke-width="0.1618" d="M45.082,62.218c1.585-1.036,2.67-6.335-0.567-12.674
								c-3.327-6.516-7.663-8.141-9.001-6.958"/>
							<path fill="#231F20" stroke="#F9BAA9" stroke-width="0.1618" d="M45.08,62.218c1.586-1.035,2.685-6.341-0.552-12.68
								c-3.328-6.516-7.675-8.147-9.015-6.952"/>
							<path fill="#231F20" stroke="#F9BDAD" stroke-width="0.1618" d="M45.079,62.219c1.585-1.036,2.699-6.347-0.536-12.686
								c-3.329-6.517-7.686-8.154-9.028-6.946"/>
							<path fill="#231F20" stroke="#FAC1B1" stroke-width="0.1618" d="M45.078,62.219c1.586-1.035,2.715-6.353-0.522-12.691
								c-3.327-6.517-7.695-8.161-9.04-6.941"/>
							<path fill="#231F20" stroke="#FAC4B6" stroke-width="0.1618" d="M45.076,62.22c1.586-1.036,2.729-6.358-0.507-12.697
								c-3.328-6.517-7.706-8.167-9.054-6.936"/>
							<path fill="#231F20" stroke="#FAC8BA" stroke-width="0.1618" d="M45.075,62.22c1.586-1.035,2.744-6.364-0.491-12.703
								c-3.329-6.516-7.718-8.173-9.066-6.93"/>
							<path fill="#231F20" stroke="#FBCBBE" stroke-width="0.1618" d="M45.074,62.221c1.585-1.036,2.76-6.37-0.477-12.709
								c-3.328-6.516-7.729-8.18-9.079-6.924"/>
							<path fill="#231F20" stroke="#FBCEC3" stroke-width="0.1618" d="M45.072,62.222c1.586-1.036,2.775-6.376-0.462-12.715
								c-3.327-6.516-7.738-8.186-9.092-6.918"/>
							<path fill="#231F20" stroke="#FBD2C7" stroke-width="0.1618" d="M45.071,62.222c1.585-1.036,2.789-6.382-0.446-12.721
								c-3.328-6.516-7.749-8.192-9.105-6.913"/>
							<path fill="#231F20" stroke="#FBD5CB" stroke-width="0.1618" d="M45.07,62.223c1.586-1.036,2.805-6.388-0.432-12.726
								c-3.328-6.517-7.76-8.199-9.119-6.908"/>
							<path fill="#231F20" stroke="#FCD9D0" stroke-width="0.1618" d="M45.069,62.223c1.585-1.036,2.819-6.394-0.418-12.732
								c-3.328-6.516-7.77-8.205-9.13-6.901"/>
							<path fill="#231F20" stroke="#FCDCD4" stroke-width="0.1618" d="M45.067,62.224c1.586-1.036,2.834-6.399-0.401-12.739
								c-3.329-6.516-7.781-8.211-9.145-6.896"/>
							<path fill="#231F20" stroke="#FCE0D8" stroke-width="0.1618" d="M45.066,62.225c1.586-1.036,2.85-6.405-0.387-12.744
								c-3.328-6.517-7.791-8.217-9.156-6.891"/>
							<path fill="#231F20" stroke="#FDE3DC" stroke-width="0.1618" d="M45.065,62.225c1.585-1.036,2.864-6.411-0.373-12.75
								c-3.327-6.517-7.802-8.224-9.169-6.885"/>
							<path fill="#231F20" stroke="#FDE7E1" stroke-width="0.1618" d="M45.064,62.226c1.585-1.036,2.878-6.417-0.357-12.756
								c-3.328-6.517-7.812-8.23-9.183-6.88"/>
							<path fill="#231F20" stroke="#FDEAE5" stroke-width="0.1618" d="M45.062,62.226c1.585-1.036,2.895-6.423-0.342-12.762
								c-3.328-6.516-7.823-8.236-9.196-6.874"/>
							<path fill="#231F20" stroke="#FEEEE9" stroke-width="0.1618" d="M45.061,62.227c1.586-1.036,2.91-6.429-0.326-12.767
								c-3.328-6.517-7.834-8.243-9.209-6.869"/>
							<path fill="#231F20" stroke="#FEF1EE" stroke-width="0.1618" d="M45.06,62.227c1.587-1.036,2.925-6.434-0.312-12.773
								c-3.328-6.516-7.844-8.249-9.222-6.863"/>
							<path fill="#231F20" stroke="#FEF5F2" stroke-width="0.1618" d="M45.059,62.228c1.586-1.037,2.939-6.44-0.297-12.78
								c-3.328-6.517-7.855-8.255-9.234-6.857"/>
							<path fill="#231F20" stroke="#FEF8F6" stroke-width="0.1618" d="M45.057,62.229c1.587-1.036,2.955-6.447-0.281-12.786
								c-3.328-6.516-7.866-8.261-9.248-6.852"/>
							<path fill="#231F20" stroke="#FFFCFB" stroke-width="0.1618" d="M45.056,62.229c1.586-1.037,2.97-6.452-0.267-12.791
								c-3.328-6.517-7.876-8.268-9.26-6.847"/>
							<path fill="#231F20" stroke="#FFFFFF" stroke-width="0.1618" d="M45.055,62.229c1.586-1.036,2.984-6.458-0.252-12.797
								c-3.328-6.517-7.887-8.274-9.273-6.841"/>
						</g>
					</g>
					<g clip-path="url(#SVGID_8_)">
						<g>
							<path fill="#231F20" stroke="#B49980" stroke-width="0.1618" d="M46.514,65.269c-3.402,1.901-8.77-0.264-13.041-8.628
								c-4.328-8.477-3.002-14.971,0.5-17.057"/>
							<path fill="#231F20" stroke="#B69B82" stroke-width="0.1618" d="M46.524,65.263c-3.402,1.902-8.767-0.267-13.038-8.631
								c-4.328-8.477-3.011-14.966,0.492-17.052"/>
							<path fill="#231F20" stroke="#B79D84" stroke-width="0.1618" d="M46.535,65.258c-3.402,1.901-8.764-0.271-13.035-8.635
								c-4.328-8.476-3.019-14.961,0.483-17.046"/>
							<path fill="#231F20" stroke="#B99F87" stroke-width="0.1618" d="M46.546,65.253c-3.403,1.902-8.761-0.273-13.032-8.638
								c-4.328-8.477-3.027-14.956,0.476-17.042"/>
							<path fill="#231F20" stroke="#BAA189" stroke-width="0.1618" d="M46.557,65.248c-3.403,1.901-8.758-0.277-13.029-8.642
								c-4.328-8.477-3.034-14.951,0.467-17.037"/>
							<path fill="#231F20" stroke="#BCA38C" stroke-width="0.1618" d="M46.566,65.243c-3.401,1.902-8.754-0.28-13.025-8.645
								C29.213,48.122,30.498,41.652,34,39.566"/>
							<path fill="#231F20" stroke="#BDA58E" stroke-width="0.1618" d="M46.577,65.237c-3.402,1.902-8.751-0.283-13.022-8.647
								c-4.328-8.477-3.051-14.941,0.451-17.027"/>
							<path fill="#231F20" stroke="#BEA791" stroke-width="0.1618" d="M46.588,65.232c-3.402,1.902-8.747-0.287-13.02-8.651
								c-4.328-8.477-3.059-14.936,0.443-17.022"/>
							<path fill="#231F20" stroke="#C0A993" stroke-width="0.1618" d="M46.599,65.227c-3.403,1.902-8.744-0.29-13.016-8.654
								c-4.329-8.477-3.068-14.931,0.433-17.018"/>
							<path fill="#231F20" stroke="#C1AB96" stroke-width="0.1618" d="M46.609,65.222c-3.402,1.902-8.741-0.294-13.014-8.658
								c-4.327-8.477-3.076-14.926,0.426-17.013"/>
							<path fill="#231F20" stroke="#C3AD98" stroke-width="0.1618" d="M46.62,65.216c-3.402,1.902-8.738-0.297-13.011-8.661
								c-4.328-8.477-3.084-14.921,0.418-17.007"/>
							<path fill="#231F20" stroke="#C4AF9B" stroke-width="0.1618" d="M46.631,65.211c-3.403,1.902-8.735-0.3-13.008-8.664
								c-4.328-8.477-3.092-14.917,0.41-17.002"/>
							<path fill="#231F20" stroke="#C6B19D" stroke-width="0.1618" d="M46.642,65.207c-3.402,1.902-8.732-0.304-13.005-8.667
								c-4.327-8.477-3.101-14.912,0.401-16.998"/>
							<path fill="#231F20" stroke="#C7B3A0" stroke-width="0.1618" d="M46.652,65.202c-3.402,1.901-8.729-0.307-13.001-8.671
								c-4.329-8.477-3.109-14.906,0.393-16.993"/>
							<path fill="#231F20" stroke="#C9B5A2" stroke-width="0.1618" d="M46.663,65.196c-3.403,1.902-8.727-0.311-12.999-8.674
								c-4.328-8.477-3.117-14.901,0.385-16.988"/>
							<path fill="#231F20" stroke="#CAB7A5" stroke-width="0.1618" d="M46.674,65.191c-3.403,1.902-8.724-0.313-12.996-8.678
								c-4.327-8.477-3.125-14.896,0.377-16.982"/>
							<path fill="#231F20" stroke="#CCB9A7" stroke-width="0.1618" d="M46.684,65.186c-3.402,1.902-8.72-0.317-12.992-8.681
								c-4.327-8.477-3.133-14.891,0.369-16.978"/>
							<path fill="#231F20" stroke="#CDBBAA" stroke-width="0.1618" d="M46.694,65.181c-3.402,1.902-8.717-0.32-12.988-8.684
								c-4.329-8.477-3.143-14.887,0.359-16.973"/>
							<path fill="#231F20" stroke="#CFBDAC" stroke-width="0.1618" d="M46.705,65.175c-3.402,1.902-8.714-0.323-12.986-8.688
								c-4.327-8.477-3.149-14.881,0.353-16.968"/>
							<path fill="#231F20" stroke="#D0BFAF" stroke-width="0.1618" d="M46.716,65.17c-3.403,1.902-8.711-0.327-12.982-8.691
								c-4.329-8.477-3.159-14.876,0.343-16.963"/>
							<path fill="#231F20" stroke="#D2C1B1" stroke-width="0.1618" d="M46.727,65.165c-3.403,1.902-8.708-0.33-12.98-8.694
								c-4.327-8.477-3.166-14.872,0.336-16.958"/>
							<path fill="#231F20" stroke="#D3C3B4" stroke-width="0.1618" d="M46.737,65.16c-3.403,1.902-8.705-0.333-12.977-8.697
								c-4.328-8.477-3.175-14.866,0.327-16.953"/>
							<path fill="#231F20" stroke="#D4C5B6" stroke-width="0.1618" d="M46.748,65.155c-3.403,1.902-8.702-0.337-12.974-8.701
								c-4.329-8.476-3.183-14.861,0.319-16.948"/>
							<path fill="#231F20" stroke="#D6C7B9" stroke-width="0.1618" d="M46.758,65.15c-3.402,1.902-8.698-0.341-12.97-8.704
								c-4.328-8.477-3.191-14.857,0.31-16.944"/>
							<path fill="#231F20" stroke="#D7C9BB" stroke-width="0.1618" d="M46.77,65.145c-3.404,1.902-8.696-0.344-12.968-8.708
								c-4.328-8.477-3.2-14.852,0.302-16.938"/>
							<path fill="#231F20" stroke="#D9CBBE" stroke-width="0.1618" d="M46.779,65.139c-3.402,1.902-8.692-0.347-12.965-8.711
								c-4.327-8.476-3.207-14.847,0.295-16.934"/>
							<path fill="#231F20" stroke="#DACDC0" stroke-width="0.1618" d="M46.791,65.134c-3.404,1.902-8.69-0.351-12.962-8.714
								c-4.328-8.477-3.216-14.842,0.286-16.929"/>
							<path fill="#231F20" stroke="#DCCFC3" stroke-width="0.1618" d="M46.801,65.129c-3.402,1.903-8.687-0.354-12.958-8.717
								c-4.328-8.477-3.225-14.837,0.278-16.924"/>
							<path fill="#231F20" stroke="#DDD1C5" stroke-width="0.1618" d="M46.812,65.124c-3.403,1.903-8.684-0.356-12.955-8.721
								c-4.328-8.477-3.232-14.832,0.27-16.919"/>
							<path fill="#231F20" stroke="#DFD3C8" stroke-width="0.1618" d="M46.822,65.119c-3.403,1.902-8.68-0.36-12.952-8.724
								c-4.328-8.477-3.241-14.827,0.262-16.914"/>
							<path fill="#231F20" stroke="#E0D5CA" stroke-width="0.1618" d="M46.833,65.114c-3.403,1.902-8.677-0.364-12.949-8.728
								c-4.327-8.477-3.249-14.822,0.253-16.909"/>
							<path fill="#231F20" stroke="#E2D7CD" stroke-width="0.1618" d="M46.844,65.108c-3.404,1.903-8.674-0.366-12.946-8.73
								c-4.328-8.477-3.257-14.817,0.245-16.904"/>
							<path fill="#231F20" stroke="#E3D9CF" stroke-width="0.1618" d="M46.854,65.103c-3.403,1.902-8.671-0.37-12.942-8.734
								c-4.329-8.477-3.266-14.812,0.236-16.899"/>
							<path fill="#231F20" stroke="#E5DBD2" stroke-width="0.1618" d="M46.865,65.098c-3.404,1.902-8.668-0.374-12.94-8.737
								c-4.327-8.477-3.273-14.807,0.229-16.895"/>
							<path fill="#231F20" stroke="#E6DDD4" stroke-width="0.1618" d="M46.876,65.093c-3.403,1.903-8.665-0.377-12.937-8.741
								c-4.329-8.477-3.282-14.802,0.219-16.889"/>
							<path fill="#231F20" stroke="#E8DFD7" stroke-width="0.1618" d="M46.887,65.087c-3.404,1.903-8.662-0.38-12.935-8.744
								c-4.328-8.477-3.29-14.797,0.212-16.884"/>
							<path fill="#231F20" stroke="#E9E1D9" stroke-width="0.1618" d="M46.897,65.083c-3.404,1.902-8.659-0.384-12.932-8.747
								c-4.327-8.477-3.298-14.792,0.204-16.88"/>
							<path fill="#231F20" stroke="#EAE3DC" stroke-width="0.1618" d="M46.908,65.077c-3.404,1.903-8.656-0.387-12.928-8.75
								c-4.329-8.477-3.307-14.787,0.194-16.875"/>
							<path fill="#231F20" stroke="#ECE5DE" stroke-width="0.1618" d="M46.918,65.072c-3.404,1.903-8.652-0.39-12.924-8.753
								c-4.328-8.477-3.315-14.782,0.187-16.87"/>
							<path fill="#231F20" stroke="#EDE7E1" stroke-width="0.1618" d="M46.93,65.067c-3.404,1.903-8.65-0.394-12.922-8.757
								c-4.328-8.477-3.323-14.777,0.179-16.865"/>
							<path fill="#231F20" stroke="#EFE9E3" stroke-width="0.1618" d="M46.939,65.062c-3.404,1.903-8.646-0.397-12.919-8.76
								c-4.328-8.477-3.331-14.772,0.172-16.859"/>
							<path fill="#231F20" stroke="#F0EBE6" stroke-width="0.1618" d="M46.951,65.057c-3.405,1.903-8.645-0.4-12.916-8.764
								c-4.328-8.477-3.34-14.768,0.162-16.855"/>
							<path fill="#231F20" stroke="#F2EDE8" stroke-width="0.1618" d="M46.961,65.052c-3.404,1.903-8.641-0.404-12.912-8.768
								c-4.328-8.477-3.349-14.762,0.153-16.85"/>
							<path fill="#231F20" stroke="#F3EFEB" stroke-width="0.1618" d="M46.971,65.046c-3.403,1.903-8.637-0.407-12.908-8.771
								c-4.329-8.477-3.356-14.758,0.146-16.845"/>
							<path fill="#231F20" stroke="#F5F1ED" stroke-width="0.1618" d="M46.981,65.041c-3.403,1.903-8.634-0.41-12.906-8.773
								c-4.327-8.477-3.364-14.752,0.139-16.84"/>
							<path fill="#231F20" stroke="#F6F3F0" stroke-width="0.1618" d="M46.992,65.036c-3.404,1.903-8.631-0.413-12.902-8.777
								c-4.328-8.477-3.373-14.748,0.129-16.835"/>
							<path fill="#231F20" stroke="#F8F5F2" stroke-width="0.1618" d="M47.003,65.031c-3.403,1.903-8.628-0.417-12.899-8.78
								c-4.328-8.477-3.381-14.743,0.121-16.83"/>
							<path fill="#231F20" stroke="#F9F7F5" stroke-width="0.1618" d="M47.014,65.026c-3.403,1.903-8.625-0.421-12.896-8.784
								c-4.328-8.477-3.389-14.738,0.113-16.826"/>
							<path fill="#231F20" stroke="#FBF9F7" stroke-width="0.1618" d="M47.024,65.021c-3.404,1.903-8.622-0.424-12.894-8.787
								c-4.328-8.477-3.397-14.732,0.104-16.82"/>
							<path fill="#231F20" stroke="#FCFBFA" stroke-width="0.1618" d="M47.035,65.015c-3.404,1.903-8.619-0.427-12.891-8.791
								c-4.328-8.476-3.405-14.728,0.096-16.815"/>
							<path fill="#231F20" stroke="#FEFDFC" stroke-width="0.1618" d="M47.046,65.01c-3.404,1.904-8.616-0.43-12.888-8.793
								c-4.328-8.477-3.414-14.723,0.088-16.811"/>
							<path fill="#231F20" stroke="#FFFFFF" stroke-width="0.1618" d="M47.057,65.005c-3.404,1.903-8.613-0.434-12.885-8.797
								c-4.328-8.477-3.422-14.718,0.08-16.806"/>
						</g>
						<path fill="#231F20" d="M46.514,65.269c-3.402,1.901-8.77-0.264-13.041-8.628c-4.328-8.477-3.002-14.971,0.5-17.057
							l1.518,2.995c-1.586,1.036-2.219,6.159,1.018,12.498c3.326,6.517,7.344,7.95,8.613,7.124L46.514,65.269z"/>
					</g>
				</g>
			</g>
		</g>
	</g>
	<g>
		<g>
			<g>
				<path fill="#231F20" d="M65.633,67.416c0.309,0,0.58,0.122,0.67,0.217c0.002,0.07-0.016,0.142-0.051,0.205
					c-0.041,0.073-0.107,0.074-0.184,0.031c-0.123-0.059-0.283-0.104-0.465-0.104c-0.275,0-0.568,0.148-0.568,0.516
					c0,0.335,0.264,0.511,0.65,0.78c0.512,0.357,0.783,0.613,0.783,1.097c0,0.641-0.523,0.972-1.146,0.972
					c-0.354,0-0.641-0.1-0.762-0.199c-0.062-0.047-0.084-0.086-0.084-0.146c0.01-0.141,0.037-0.186,0.08-0.259
					c0.203,0.165,0.518,0.256,0.76,0.256c0.328,0,0.639-0.192,0.639-0.567c0-0.322-0.186-0.485-0.697-0.849
					c-0.613-0.431-0.709-0.75-0.709-1.032c0-0.352,0.223-0.916,1.08-0.916H65.633z"/>
				<path fill="#231F20" d="M68.002,68.5c0.824,0,1.264,0.597,1.264,1.287c0,0.534-0.24,0.871-0.445,1.041
					c-0.205,0.174-0.494,0.283-0.814,0.283c-0.844,0-1.279-0.625-1.279-1.284c0-0.407,0.148-0.762,0.43-1.004
					c0.221-0.201,0.52-0.323,0.838-0.323H68.002z M67.986,68.822c-0.379,0-0.762,0.328-0.762,0.951c0,0.678,0.393,1.03,0.814,1.017
					c0.342,0,0.73-0.279,0.73-0.981c0-0.619-0.354-0.986-0.775-0.986H67.986z"/>
				<path fill="#231F20" d="M72.416,69.508c0-0.449-0.189-0.63-0.506-0.63c-0.297,0-0.547,0.232-0.668,0.415v1.622
					c0,0.114-0.021,0.135-0.117,0.145c-0.123,0.019-0.24,0.011-0.363,0.019c0.012-0.195,0.018-0.532,0.018-1.045v-0.947
					c0-0.188-0.055-0.273-0.133-0.314v-0.076c0.043-0.062,0.125-0.146,0.189-0.181c0.047-0.009,0.09-0.008,0.135,0.005
					c0.152,0.034,0.234,0.218,0.252,0.41c0.141-0.15,0.273-0.254,0.412-0.33c0.115-0.06,0.25-0.1,0.402-0.1
					c0.645,0,0.844,0.441,0.844,0.972v0.86c0,0.331,0.014,0.564,0.025,0.7c-0.117,0.02-0.27,0.046-0.414,0.046
					c-0.061,0-0.082-0.026-0.082-0.08L72.416,69.508z"/>
				<path fill="#231F20" d="M74.586,68.5c0.824,0,1.266,0.597,1.266,1.287c0,0.534-0.24,0.871-0.445,1.041
					c-0.205,0.174-0.496,0.283-0.816,0.283c-0.844,0-1.277-0.625-1.277-1.284c0-0.407,0.148-0.762,0.428-1.004
					c0.221-0.201,0.52-0.323,0.838-0.323H74.586z M74.572,68.822c-0.381,0-0.764,0.328-0.764,0.951c0,0.678,0.391,1.03,0.816,1.017
					c0.34,0,0.729-0.279,0.729-0.981c0-0.619-0.352-0.986-0.777-0.986H74.572z"/>
				<path fill="#231F20" d="M78.406,68.5c0.824,0,1.266,0.597,1.266,1.287c0,0.534-0.24,0.871-0.445,1.041
					c-0.207,0.174-0.496,0.283-0.814,0.283c-0.844,0-1.279-0.625-1.279-1.284c0-0.407,0.148-0.762,0.43-1.004
					C77.783,68.622,78.08,68.5,78.4,68.5H78.406z M78.393,68.822c-0.379,0-0.762,0.328-0.762,0.951c0,0.678,0.391,1.03,0.814,1.017
					c0.34,0,0.73-0.279,0.73-0.981c0-0.619-0.354-0.986-0.777-0.986H78.393z"/>
				<path fill="#231F20" d="M81.762,69.508c0-0.449-0.189-0.63-0.506-0.63c-0.299,0-0.547,0.232-0.668,0.415v1.622
					c0,0.114-0.021,0.135-0.117,0.145c-0.123,0.019-0.242,0.011-0.363,0.019c0.012-0.195,0.016-0.532,0.016-1.045v-0.947
					c0-0.188-0.053-0.273-0.131-0.314v-0.076c0.041-0.062,0.125-0.146,0.189-0.181c0.045-0.009,0.088-0.008,0.135,0.005
					c0.152,0.034,0.232,0.218,0.252,0.41c0.141-0.15,0.273-0.254,0.412-0.33c0.115-0.06,0.25-0.1,0.402-0.1
					c0.645,0,0.844,0.441,0.844,0.972v0.86c0,0.331,0.012,0.564,0.025,0.7c-0.119,0.02-0.27,0.046-0.414,0.046
					c-0.061,0-0.082-0.026-0.082-0.08L81.762,69.508z"/>
				<path fill="#231F20" d="M84.598,70.691c-0.014,0.16-0.154,0.303-0.236,0.341c-0.07,0.029-0.26,0.079-0.479,0.079
					c-0.281,0-0.615-0.058-0.879-0.308c-0.229-0.216-0.35-0.579-0.35-0.953c0-0.715,0.432-1.351,1.174-1.351
					c0.645,0,0.914,0.466,0.932,0.936c0,0.058-0.002,0.135-0.016,0.182c-0.018,0.092-0.297,0.18-0.484,0.209
					c-0.156,0.02-0.709,0.028-1.127,0.014c-0.004,0.577,0.361,0.908,0.875,0.908c0.264,0,0.477-0.062,0.562-0.103L84.598,70.691z
					 M83.758,68.812c-0.287,0-0.559,0.27-0.602,0.714c0.418,0.014,0.914,0.005,1.016,0c0.072-0.002,0.117-0.05,0.117-0.117
					c0.01-0.35-0.18-0.597-0.525-0.597H83.758z"/>
				<path fill="#231F20" d="M87.486,68.558c-0.025,0.138-0.08,0.224-0.148,0.276c-0.076,0.057-0.297,0.065-0.627,0.065
					c-0.004,0.586,0.02,1.815,0.02,2.133c-0.102,0.029-0.334,0.046-0.414,0.046c-0.057,0-0.074-0.017-0.074-0.088
					c0.018-0.604,0.004-1.281,0.004-2.091c-0.229-0.007-0.305-0.042-0.305-0.125c0.076-0.089,0.154-0.144,0.305-0.207
					c0-0.609,0.141-0.922,0.395-1.147c0.213-0.193,0.439-0.26,0.639-0.26c0.172,0,0.318,0.064,0.355,0.127
					c0.008,0.057-0.016,0.117-0.049,0.178c-0.051,0.097-0.113,0.109-0.174,0.096c-0.062-0.022-0.129-0.036-0.191-0.036
					c-0.273,0-0.516,0.284-0.5,1.043C86.814,68.567,87.35,68.579,87.486,68.558z"/>
				<path fill="#231F20" d="M89.545,70.934c-0.035,0.082-0.172,0.178-0.369,0.178c-0.234,0-0.367-0.17-0.398-0.359
					c-0.135,0.152-0.422,0.359-0.738,0.359c-0.391,0-0.645-0.273-0.645-0.627c0-0.609,0.826-0.812,1.119-0.88
					c0.115-0.024,0.199-0.043,0.262-0.054V69.37c0.004-0.255-0.125-0.489-0.451-0.489c-0.201,0-0.428,0.127-0.568,0.234
					c-0.125,0.079-0.209,0.053-0.258-0.111l-0.029-0.095c0.152-0.17,0.572-0.409,0.959-0.409c0.57,0,0.801,0.376,0.801,0.904
					c0,0.244-0.018,0.838-0.008,1.182c0,0.113,0.068,0.176,0.182,0.176c0.043,0,0.1-0.012,0.143-0.025V70.934z M87.859,70.418
					c0,0.189,0.115,0.31,0.322,0.31c0.236,0,0.463-0.167,0.553-0.3c0.025-0.039,0.037-0.086,0.037-0.184v-0.396
					c-0.459,0.071-0.912,0.24-0.912,0.564V70.418z"/>
				<path fill="#231F20" d="M91.689,70.701c-0.014,0.115-0.078,0.25-0.154,0.309c-0.109,0.062-0.299,0.102-0.523,0.102
					c-0.553,0-1.332-0.281-1.332-1.285c0-0.514,0.246-0.847,0.482-1.037c0.25-0.199,0.561-0.289,0.859-0.289
					c0.434,0,0.695,0.187,0.736,0.25c-0.002,0.067-0.035,0.16-0.082,0.215c-0.047,0.058-0.117,0.041-0.186,0.007
					c-0.162-0.084-0.34-0.126-0.502-0.126c-0.498,0-0.818,0.406-0.818,0.938c0,0.757,0.584,0.971,0.973,0.971
					c0.207,0,0.385-0.033,0.525-0.081L91.689,70.701z"/>
				<path fill="#231F20" d="M93.781,70.691c-0.014,0.16-0.152,0.303-0.236,0.341c-0.068,0.029-0.258,0.079-0.477,0.079
					c-0.283,0-0.617-0.058-0.881-0.308c-0.227-0.216-0.348-0.579-0.348-0.953c0-0.715,0.43-1.351,1.172-1.351
					c0.646,0,0.916,0.466,0.934,0.936c0,0.058-0.004,0.135-0.016,0.182c-0.018,0.092-0.301,0.18-0.486,0.209
					c-0.154,0.02-0.709,0.028-1.125,0.014c-0.004,0.577,0.359,0.908,0.873,0.908c0.264,0,0.479-0.062,0.562-0.103L93.781,70.691z
					 M92.943,68.812c-0.287,0-0.561,0.27-0.602,0.714c0.418,0.014,0.912,0.005,1.014,0c0.072-0.002,0.121-0.05,0.121-0.117
					c0.006-0.35-0.184-0.597-0.527-0.597H92.943z"/>
				<path fill="#231F20" d="M95.039,68.5c0.307,0,0.492,0.127,0.537,0.178c0.006,0.072-0.027,0.176-0.068,0.227
					c-0.039,0.048-0.086,0.054-0.152,0.021c-0.115-0.06-0.229-0.088-0.357-0.088c-0.215,0-0.34,0.164-0.34,0.34
					c0,0.11,0.049,0.188,0.168,0.262c0.092,0.061,0.432,0.236,0.605,0.354c0.221,0.145,0.312,0.33,0.312,0.536
					c0,0.535-0.473,0.781-0.922,0.781c-0.312,0-0.611-0.118-0.717-0.252c-0.002-0.092,0.039-0.188,0.088-0.236
					c0.041-0.039,0.096-0.03,0.166,0.01c0.141,0.082,0.303,0.139,0.496,0.139c0.256,0,0.426-0.163,0.426-0.367
					c0-0.139-0.078-0.228-0.275-0.337c-0.156-0.085-0.385-0.215-0.488-0.284c-0.189-0.119-0.309-0.303-0.309-0.549
					c0-0.449,0.381-0.734,0.824-0.734H95.039z"/>
				<path fill="#231F20" d="M98.99,70.701c-0.014,0.115-0.076,0.25-0.154,0.309c-0.109,0.062-0.299,0.102-0.523,0.102
					c-0.553,0-1.332-0.281-1.332-1.285c0-0.514,0.248-0.847,0.484-1.037c0.246-0.199,0.559-0.289,0.859-0.289
					c0.432,0,0.693,0.187,0.734,0.25c-0.002,0.067-0.035,0.16-0.082,0.215c-0.045,0.058-0.117,0.041-0.186,0.007
					c-0.162-0.084-0.338-0.126-0.502-0.126c-0.496,0-0.818,0.406-0.818,0.938c0,0.757,0.584,0.971,0.975,0.971
					c0.205,0,0.383-0.033,0.523-0.081L98.99,70.701z"/>
				<path fill="#231F20" d="M101.369,70.934c-0.035,0.082-0.172,0.178-0.369,0.178c-0.232,0-0.365-0.17-0.396-0.359
					c-0.137,0.152-0.424,0.359-0.74,0.359c-0.389,0-0.645-0.273-0.645-0.627c0-0.609,0.828-0.812,1.119-0.88
					c0.115-0.024,0.201-0.043,0.262-0.054V69.37c0.006-0.255-0.123-0.489-0.449-0.489c-0.203,0-0.43,0.127-0.57,0.234
					c-0.125,0.079-0.207,0.053-0.256-0.111l-0.031-0.095c0.152-0.17,0.572-0.409,0.959-0.409c0.57,0,0.803,0.376,0.803,0.904
					c0,0.244-0.02,0.838-0.01,1.182c0,0.113,0.066,0.176,0.182,0.176c0.045,0,0.1-0.012,0.143-0.025V70.934z M99.686,70.418
					c0,0.189,0.115,0.31,0.32,0.31c0.236,0,0.461-0.167,0.553-0.3c0.025-0.039,0.037-0.086,0.037-0.184v-0.396
					c-0.459,0.071-0.91,0.24-0.91,0.564V70.418z"/>
				<path fill="#231F20" d="M103.365,69.508c0-0.449-0.189-0.63-0.506-0.63c-0.299,0-0.547,0.232-0.668,0.415v1.622
					c0,0.114-0.023,0.135-0.117,0.145c-0.123,0.019-0.24,0.011-0.363,0.019c0.012-0.195,0.018-0.532,0.018-1.045v-0.947
					c0-0.188-0.055-0.273-0.133-0.314v-0.076c0.043-0.062,0.125-0.146,0.189-0.181c0.047-0.009,0.09-0.008,0.135,0.005
					c0.154,0.034,0.234,0.218,0.25,0.41c0.143-0.15,0.277-0.254,0.414-0.33c0.113-0.06,0.25-0.1,0.404-0.1
					c0.645,0,0.842,0.441,0.842,0.972v0.86c0,0.331,0.014,0.564,0.025,0.7c-0.119,0.02-0.268,0.046-0.412,0.046
					c-0.061,0-0.082-0.026-0.082-0.08L103.365,69.508z"/>
				<path fill="#231F20" d="M106.283,70.701c-0.014,0.115-0.078,0.25-0.156,0.309c-0.109,0.062-0.299,0.102-0.523,0.102
					c-0.553,0-1.33-0.281-1.33-1.285c0-0.514,0.246-0.847,0.482-1.037c0.248-0.199,0.559-0.289,0.859-0.289
					c0.434,0,0.693,0.187,0.734,0.25c0,0.067-0.035,0.16-0.08,0.215c-0.047,0.058-0.119,0.041-0.188,0.007
					c-0.16-0.084-0.338-0.126-0.502-0.126c-0.496,0-0.818,0.406-0.818,0.938c0,0.757,0.586,0.971,0.975,0.971
					c0.205,0,0.385-0.033,0.523-0.081L106.283,70.701z"/>
				<path fill="#231F20" d="M108.375,70.691c-0.014,0.16-0.154,0.303-0.236,0.341c-0.068,0.029-0.26,0.079-0.479,0.079
					c-0.281,0-0.615-0.058-0.879-0.308c-0.229-0.216-0.348-0.579-0.348-0.953c0-0.715,0.43-1.351,1.172-1.351
					c0.645,0,0.914,0.466,0.932,0.936c0,0.058-0.004,0.135-0.016,0.182c-0.016,0.092-0.299,0.18-0.486,0.209
					c-0.154,0.02-0.707,0.028-1.125,0.014c-0.002,0.577,0.359,0.908,0.873,0.908c0.266,0,0.479-0.062,0.564-0.103L108.375,70.691z
					 M107.535,68.812c-0.287,0-0.559,0.27-0.602,0.714c0.418,0.014,0.914,0.005,1.016,0c0.07-0.002,0.119-0.05,0.119-0.117
					c0.008-0.35-0.184-0.597-0.527-0.597H107.535z"/>
				<path fill="#231F20" d="M108.924,69.106c0-0.147-0.057-0.269-0.188-0.327v-0.065c0.025-0.052,0.084-0.124,0.137-0.172
					c0.043-0.026,0.086-0.042,0.135-0.042c0.207,0,0.344,0.237,0.348,0.553c0.182-0.36,0.43-0.553,0.684-0.553
					c0.139,0,0.25,0.069,0.285,0.119c-0.002,0.077-0.027,0.221-0.09,0.309c-0.035,0.055-0.096,0.08-0.156,0.059
					c-0.072-0.023-0.135-0.03-0.189-0.03c-0.129,0-0.316,0.13-0.436,0.412c-0.043,0.102-0.064,0.185-0.064,0.31
					c0,0.355,0,1.037,0,1.245c0,0.083-0.018,0.121-0.1,0.133c-0.137,0.017-0.268,0.022-0.383,0.022
					c0.014-0.195,0.018-0.532,0.018-1.045V69.106z"/>
				<path fill="#231F20" d="M113.586,70.934c-0.035,0.082-0.174,0.178-0.371,0.178c-0.232,0-0.365-0.17-0.396-0.359
					c-0.135,0.152-0.422,0.359-0.74,0.359c-0.389,0-0.643-0.273-0.643-0.627c0-0.609,0.826-0.812,1.119-0.88
					c0.115-0.024,0.199-0.043,0.262-0.054V69.37c0.004-0.255-0.125-0.489-0.451-0.489c-0.203,0-0.428,0.127-0.57,0.234
					c-0.123,0.079-0.207,0.053-0.254-0.111l-0.033-0.095c0.152-0.17,0.574-0.409,0.961-0.409c0.568,0,0.801,0.376,0.801,0.904
					c0,0.244-0.02,0.838-0.01,1.182c0,0.113,0.068,0.176,0.184,0.176c0.043,0,0.098-0.012,0.143-0.025V70.934z M111.9,70.418
					c0,0.189,0.115,0.31,0.322,0.31c0.236,0,0.463-0.167,0.551-0.3c0.025-0.039,0.039-0.086,0.039-0.184v-0.396
					c-0.461,0.071-0.912,0.24-0.912,0.564V70.418z"/>
				<path fill="#231F20" d="M113.932,67.897c0-0.335-0.01-0.514-0.021-0.628c0.113-0.047,0.326-0.075,0.408-0.075
					c0.059,0,0.078,0.028,0.078,0.368v2.732c0,0.277,0.01,0.584,0.02,0.741c-0.1,0.029-0.346,0.046-0.41,0.046
					c-0.051,0-0.074-0.017-0.074-0.074V67.897z"/>
				<path fill="#231F20" d="M116.109,68.5c0.824,0,1.266,0.597,1.266,1.287c0,0.534-0.24,0.871-0.445,1.041
					c-0.205,0.174-0.496,0.283-0.816,0.283c-0.844,0-1.277-0.625-1.277-1.284c0-0.407,0.148-0.762,0.428-1.004
					c0.221-0.201,0.52-0.323,0.838-0.323H116.109z M116.096,68.822c-0.381,0-0.764,0.328-0.764,0.951
					c0,0.678,0.393,1.03,0.816,1.017c0.34,0,0.729-0.279,0.729-0.981c0-0.619-0.352-0.986-0.777-0.986H116.096z"/>
				<path fill="#231F20" d="M119.465,69.508c0-0.449-0.189-0.63-0.506-0.63c-0.301,0-0.549,0.232-0.668,0.415v1.622
					c0,0.114-0.023,0.135-0.117,0.145c-0.123,0.019-0.242,0.011-0.365,0.019c0.012-0.195,0.018-0.532,0.018-1.045v-0.947
					c0-0.188-0.053-0.273-0.133-0.314v-0.076c0.043-0.062,0.125-0.146,0.189-0.181c0.047-0.009,0.09-0.008,0.135,0.005
					c0.154,0.034,0.234,0.218,0.252,0.41c0.143-0.15,0.273-0.254,0.414-0.33c0.113-0.06,0.248-0.1,0.402-0.1
					c0.645,0,0.842,0.441,0.842,0.972v0.86c0,0.331,0.014,0.564,0.025,0.7c-0.119,0.02-0.268,0.046-0.412,0.046
					c-0.059,0-0.082-0.026-0.082-0.08L119.465,69.508z"/>
				<path fill="#231F20" d="M122.301,70.691c-0.014,0.16-0.156,0.303-0.236,0.341c-0.07,0.029-0.26,0.079-0.479,0.079
					c-0.281,0-0.615-0.058-0.879-0.308c-0.229-0.216-0.35-0.579-0.35-0.953c0-0.715,0.432-1.351,1.172-1.351
					c0.646,0,0.914,0.466,0.932,0.936c0,0.058-0.002,0.135-0.014,0.182c-0.016,0.092-0.299,0.18-0.486,0.209
					c-0.156,0.02-0.709,0.028-1.127,0.014c-0.002,0.577,0.361,0.908,0.877,0.908c0.262,0,0.477-0.062,0.562-0.103L122.301,70.691z
					 M121.461,68.812c-0.287,0-0.561,0.27-0.602,0.714c0.418,0.014,0.914,0.005,1.014,0c0.072-0.002,0.121-0.05,0.121-0.117
					c0.006-0.35-0.184-0.597-0.527-0.597H121.461z"/>
			</g>
		</g>
	</g>
</g>
</svg>
