<?xml version="1.0" encoding="utf-8"?>
<!-- Generator: Adobe Illustrator 16.0.3, SVG Export Plug-In . SVG Version: 6.00 Build 0)  -->
<!DOCTYPE svg PUBLIC "-//W3C//DTD SVG 1.1//EN" "http://www.w3.org/Graphics/SVG/1.1/DTD/svg11.dtd">
<svg version="1.1" id="Layer_2" xmlns="http://www.w3.org/2000/svg" xmlns:xlink="http://www.w3.org/1999/xlink" x="0px" y="0px"
	 width="160px" height="110px" viewBox="0 0 160 110" enable-background="new 0 0 160 110" xml:space="preserve">
<g>
	<path fill-rule="evenodd" clip-rule="evenodd" fill="#231F20" d="M94.356,54.037c-0.397,0-0.714-0.213-0.714-0.641
		c0-0.627,0.633-1.484,1.289-1.484c0.416,0,0.611,0.374,0.611,0.754C95.543,53.352,95.088,54.037,94.356,54.037L94.356,54.037z"/>
	<path fill-rule="evenodd" clip-rule="evenodd" fill="#231F20" d="M119.004,55.155c-2.125,0-3.95,1.388-5.447,2.747l1.393-2.637
		h-1.911l-0.454,0.811c-0.346,0.623-0.847,1.187-1.302,1.723c-1.203,1.404-2.522,2.701-3.956,3.863
		c-1.691,1.358-5.107,3.771-7.445,3.771c-0.973,0-1.83-0.795-1.83-1.779c0-0.702,0.282-1.348,0.559-1.975
		c0.893-0.006,1.75-0.058,2.614-0.295c1.71-0.467,3.552-1.266,4.784-2.584c0.559-0.6,1.135-1.417,1.135-2.28
		c0-1.146-1.151-1.671-2.159-1.671c-3.126,0-6.2,3.495-8.084,5.689l-3.409,2.965c-0.823,0.715-2.061,1.654-3.178,1.654
		c-0.375,0-0.656-0.336-0.656-0.697c0-0.34,0.109-0.674,0.276-0.967l4.692-8.229H92.73l-0.869,1.422
		c-0.316,0.518-0.633,1.036-0.99,1.531c-0.668,0.928-1.457,1.768-2.269,2.574c-1.123,1.117-2.298,2.228-3.582,3.154
		c-0.696,0.507-1.475,1.061-2.366,1.061c-0.396,0-0.968-0.214-0.968-0.687c0-0.368,0.19-0.735,0.368-1.053l4.745-8.223h2.827
		l0.155-0.368h-2.844l2.446-4.267h-1.916l-1.418,2.419c-1.042,1.767-2.619,3.287-4.364,4.363c-0.282,0.174-0.634,0.414-0.979,0.414
		c-0.091,0-0.166-0.033-0.24-0.086c0.385-0.328,0.673-0.782,0.673-1.312c0-0.748-0.673-1.059-1.342-1.059
		c-1.208,0-2.366,0.506-3.384,1.116l0.557-1.001h-2.049l-1.215,2.232c-1.308,2.414-3.26,4.33-5.408,6
		c-0.828,0.651-2.072,1.646-3.195,1.646c-0.431,0-0.903-0.275-0.903-0.754c0-0.414,0.202-0.828,0.403-1.18l4.525-7.945h-1.94
		l-1.03,1.795c-0.047-1.571-0.795-2.348-2.418-2.348c-3.081,0-5.947,2.417-7.716,4.738c-0.571,0.742-0.991,1.543-1.37,2.395
		c-2.367,1.584-5.73,3.818-8.643,3.818c-2.689,0-4.135-1.757-4.135-4.389c0-2.205,0.725-4.427,1.676-6.391
		c1.986-4.123,5.279-7.773,9.414-9.8c1.14-0.558,2.441-0.95,3.719-0.95c1.717,0,4.25,0.944,4.25,2.971
		c0,0.416-0.092,0.807-0.207,1.198l0.287,0.19c0.651-1.773,1.348-2.92,2.932-3.99l-0.289-0.3c-0.673,0.495-1.416,1.002-2.291,1.002
		c-0.247,0-0.518-0.022-0.742-0.149l-1.175-0.639c-0.812-0.451-1.79-0.57-2.706-0.57c-0.715,0-1.429,0.092-2.125,0.259
		c-2.557,0.622-4.992,1.9-7.02,3.569c-2.619,2.165-4.848,4.895-6.368,7.935c-0.782,1.566-1.479,3.294-1.479,5.072
		c0,3.276,2.326,5.47,5.574,5.47c3.184,0,6.679-2.118,9.213-3.909c-0.133,0.444-0.26,0.898-0.26,1.37
		c0,1.469,1.227,2.471,2.648,2.471c2.176,0,4.146-1.543,5.586-3.047c-0.225,0.496-0.438,1.008-0.438,1.561
		c0,0.889,0.754,1.291,1.564,1.291c3.023,0,6.248-3.133,8.24-5.24l-2.959,5.171h2.016l4.157-7.231
		c0.478-0.836,1.013-1.646,1.848-2.154c0.829-0.501,1.883-0.984,2.873-0.984c0.34,0,0.847,0.248,0.847,0.65
		c0,0.121-0.04,0.242-0.08,0.352c-0.145-0.08-0.283-0.133-0.449-0.133c-0.582,0-1.105,0.473-1.105,1.065s0.477,0.933,1.023,0.933
		c0.899,0,1.693-0.616,2.367-1.14c0.783-0.61,1.526-1.255,2.246-1.929l-4.002,7.023c-0.369,0.646-0.876,1.389-0.876,2.16
		c0,0.927,0.876,1.41,1.7,1.41c1.294,0,2.498-0.674,3.529-1.404c1.871-1.324,3.506-2.954,5.049-4.646l-1.578,2.77
		c-0.333,0.581-0.793,1.197-0.793,1.894c0,1.032,0.782,1.37,1.738,1.37c2.533,0,5.096-2.607,6.852-4.23
		c-0.127,0.523-0.26,1.047-0.26,1.588c0,1.826,1.562,2.775,3.248,2.775c1.762,0,3.426-0.799,4.9-1.682
		c1.434-0.857,2.792-1.848,4.07-2.925c1.141-0.961,2.153-2.032,3.121-3.172l-4.428,7.641h1.963l2.729-4.681
		c1.09-1.873,2.528-3.576,4.405-4.693c0.829-0.495,1.826-0.979,2.815-0.979c0.433,0,0.697,0.172,0.875,0.541
		c-0.104-0.012-0.212-0.023-0.321-0.023c-0.548,0-1.181,0.432-1.181,1.025c0,0.374,0.375,0.725,0.743,0.725
		c0.702,0,1.284-0.771,1.284-1.433C120.248,55.588,119.701,55.155,119.004,55.155z M104.644,55.254c0.518,0,1.134,0.241,1.134,0.834
		c0,1.135-1.088,2.488-1.854,3.225c-1.215,1.168-2.982,2.033-4.691,2.033c-0.18,0-0.353-0.012-0.531-0.019
		C99.812,59.475,102.227,55.254,104.644,55.254z M57.602,65.434c-1.014,0-1.566-0.863-1.566-1.797c0-0.835,0.305-1.565,0.668-2.314
		c0.967-1.975,2.482-3.801,4.262-5.102c0.881-0.65,1.825-1.209,2.947-1.209c1.031,0,1.854,0.668,1.854,1.716
		c0,1.444-1.15,3.161-1.998,4.295C62.434,62.813,59.957,65.434,57.602,65.434z"/>
</g>
</svg>
