<?xml version="1.0" encoding="utf-8"?>
<!-- Generator: Adobe Illustrator 16.0.3, SVG Export Plug-In . SVG Version: 6.00 Build 0)  -->
<!DOCTYPE svg PUBLIC "-//W3C//DTD SVG 1.1//EN" "http://www.w3.org/Graphics/SVG/1.1/DTD/svg11.dtd">
<svg version="1.1" id="Layer_2" xmlns="http://www.w3.org/2000/svg" xmlns:xlink="http://www.w3.org/1999/xlink" x="0px" y="0px"
	 width="160px" height="110px" viewBox="0 0 160 110" enable-background="new 0 0 160 110" xml:space="preserve">
<g>
	<g>
		<path d="M63.551,63.124h-5.049v-2.45h-1.326v2.45h-5.002v6.902h5.002v3.756h1.326v-3.756h5.049V63.124z M53.473,68.809v-4.468
			h3.703v4.468H53.473z M62.254,68.809h-3.752v-4.468h3.752V68.809z"/>
		<path d="M66.654,61.115v12.268h11.555V61.115H66.654z M76.936,72.22h-9.043v-9.904h9.043V72.22z"/>
		<g>
			<polygon points="73,70.003 73,67.312 75.787,67.312 75.787,66.159 73,66.159 73,64.476 76.023,64.476 76.023,63.323 
				68.74,63.323 68.74,64.476 71.777,64.476 71.777,66.159 68.979,66.159 68.979,67.312 71.777,67.312 71.777,70.003 68.539,70.003 
				68.539,71.156 76.227,71.156 76.227,70.003 			"/>
			<path d="M74.738,69.866l0.998-0.794c-0.521-0.612-1.486-1.689-1.486-1.689l-0.93,0.703
				C74.137,68.982,74.738,69.866,74.738,69.866z"/>
		</g>
		<g>
			<path d="M85.264,69.262l0.85-0.993l-2.145-1.822v-0.627h1.799v-1.153h-1.799v-1.853c0.832-0.208,1.838-0.4,1.838-0.4l-0.254-1.23
				c-1.088,0.351-4.705,0.734-4.705,0.734l0.178,1.217l1.68-0.273v1.806h-2.029v1.153h1.9c-0.148,0.477-0.805,2.437-2.127,4.288
				l0.928,1.009c0,0,0.771-1.24,1.328-2.501v5.157h1.264v-5.756L85.264,69.262z"/>
			<path d="M90.273,67.293c0.109-0.197,0.209-0.399,0.293-0.61l-1.197-0.193c0.18-0.1,0.355-0.203,0.525-0.314
				c2.4-1.579,3.191-3.346,3.191-3.346v-1.056h-4.139c0.166-0.264,0.318-0.531,0.445-0.8l-1.201-0.464c0,0-0.975,2.128-2.895,3.583
				l1.039,0.8c0,0,0.91-0.845,1.797-1.966h3.531c-0.482,0.763-1.176,1.403-1.924,1.93l-1.564-1.291l-0.816,0.848l1.311,1.107
				c-1.6,0.879-3.117,1.277-3.117,1.277l0.799,1.006c1.135-0.438,1.996-0.777,2.736-1.161c-0.195,0.342-0.699,1.118-1.619,1.962
				c-0.562,0.518-1.314,1.081-2.199,1.548l0.945,0.945c0,0,1.875-0.969,3.264-2.643h2.645c-0.277,1.278-1.086,2.168-2.066,2.789
				l-1.428-1.392l-0.898,0.734c0,0,0.805,0.758,1.227,1.223c-1.916,0.805-3.963,0.855-3.963,0.855l0.543,1.066
				c2.582-0.199,4.324-0.911,5.537-1.833c2.021-1.538,2.5-3.48,2.5-3.48v-1.125H90.273z"/>
		</g>
		<g>
			<rect x="95.83" y="61.889" width="5.469" height="1.224"/>
			<path d="M100.24,71.812l1.254-0.486c-0.266-0.643-1.518-3.41-1.518-3.41l-1.154,0.5c0.318,0.672,0.641,1.429,0.895,2.058
				c-0.574,0.131-2.07,0.481-2.818,0.727c0,0,0.363-0.599,1.033-2.436c0.547-1.505,0.639-1.957,0.857-2.241h2.982v-1.225h-6.484
				v1.225h2.09c-0.098,0.389-0.451,1.765-1.012,3.101c-0.318,0.761-0.65,1.493-1.092,2.035l0.305,0.961c0,0,3.281-0.994,4.547-1.115
				C100.197,71.697,100.24,71.812,100.24,71.812z"/>
			<path d="M104.359,63.391l0.057-2.7h-1.377c0,0,0,1.204,0.016,2.7h-1.693v1.225h1.707c0.008,0.942-0.018,1.911-0.07,2.575
				c-0.127,1.547-0.363,2.172-0.363,2.172c-0.668,2.548-2.658,3.66-2.658,3.66l0.988,0.932c3.535-2.268,3.326-7.32,3.326-7.32
				l0.043-2.019h2.197l-0.264,6.667c0,0.835-0.809,0.794-0.809,0.794h-1.529l0.25,1.323h1.447c1.863,0,1.936-1.908,1.936-1.908
				l0.293-8.101H104.359z"/>
		</g>
	</g>
	<g>
		<rect x="65.525" y="78.681" width="1.033" height="5.205"/>
		<rect x="65.525" y="76.597" width="1.033" height="1.164"/>
		<rect x="99.289" y="78.681" width="1.031" height="5.205"/>
		<rect x="101.436" y="76.034" width="1.033" height="7.852"/>
		<rect x="99.289" y="76.597" width="1.031" height="1.164"/>
		<path d="M63.232,78.601c0,0-1.215-0.312-2.025,0.609v-3.174h-1.033v7.85h1.033v-3.561c0.184-0.343,0.688-1.049,1.67-0.858
			c0,0,0.549,0.089,0.549,1.003c0,0.999,0,3.416,0,3.416h1.049v-3.384C64.475,80.502,64.607,78.944,63.232,78.601z"/>
		<path d="M70.662,78.601c0,0-1.266-0.324-2.074,0.674l-0.162-0.615h-0.789v5.227h0.998v-3.519l-0.002-0.01
			c0.189-0.32,0.732-1.046,1.674-0.891c0,0,0.549,0.089,0.549,1.003c0,0.999,0,3.416,0,3.416h1.051v-3.384
			C71.906,80.502,72.039,78.944,70.662,78.601z"/>
		<path d="M75.645,78.691c-1.236-0.452-2.572,0.161-2.572,0.161v0.957c0,0,2.744-1.227,2.744,0.937l-0.01,0.054
			c0,0-1.496-0.452-2.324,0.054c0,0-1.291,0.698-0.711,2.152c0,0,0.453,1.053,1.627,1.01c0.398-0.017,0.879-0.177,1.451-0.558
			l0.086,0.429h0.895v-3.324C76.83,80.562,76.943,79.165,75.645,78.691z M75.775,82.564c0,0-0.475,0.495-1.377,0.527
			c0,0-0.846-0.059-0.723-0.894c0.131-0.871,1.215-0.807,2.1-0.517V82.564z"/>
		<polygon points="83.479,81.965 81.258,76.632 79.848,76.632 79.848,83.886 80.896,83.886 80.896,78.359 83.217,83.886 
			83.729,83.886 86.049,78.396 86.049,83.886 87.107,83.886 87.107,76.632 85.711,76.632 		"/>
		<path d="M90.502,78.534c-1.496,0-2.707,1.217-2.707,2.718c0,1.503,1.211,2.72,2.707,2.72c1.492,0,2.707-1.217,2.707-2.72
			C93.209,79.751,91.994,78.534,90.502,78.534z M90.502,83.062c-0.99,0-1.793-0.807-1.793-1.805c0-0.995,0.803-1.803,1.793-1.803
			c0.988,0,1.791,0.808,1.791,1.803C92.293,82.255,91.49,83.062,90.502,83.062z"/>
		<path d="M97.199,78.759c-1.322-0.637-2.244,0.287-2.244,0.287v-2.982h-1.061v7.835h0.811l0.137-0.461
			c0.461,0.547,1.285,0.584,1.285,0.584c0.707,0,1.258-0.315,1.646-0.734c0.441-0.474,0.674-1.198,0.711-1.511
			C98.58,80.97,98.562,79.415,97.199,78.759z M96.201,83.1c-0.947,0.022-1.26-0.587-1.26-0.587v-2.531c0,0,0.461-0.525,1.234-0.525
			c0.771,0,1.137,0.612,1.236,1.511C97.512,81.863,97.275,83.074,96.201,83.1z"/>
		<path d="M107.184,79.303c-0.602-0.817-1.607-0.744-1.607-0.744c-0.592,0-1.133,0.249-1.48,0.552
			c-0.553,0.483-0.73,1.201-0.73,1.201c-0.459,1.828,0.367,2.828,0.367,2.828c0.404,0.546,1.213,0.83,1.848,0.868
			c1.107,0.065,1.918-0.333,1.918-0.333v-0.889c-3.23,1.124-3.27-1.216-3.27-1.216h3.49
			C107.754,80.452,107.512,79.749,107.184,79.303z M104.322,80.663c0,0,0.215-1.207,1.244-1.207s1.066,1.207,1.066,1.207H104.322z"
			/>
		<path d="M55.867,82.973c-1.512,0-2.74-1.239-2.74-2.769c0-1.53,1.229-2.771,2.74-2.771c1.023,0,1.914,0.567,2.385,1.406h1.1
			c-0.543-1.398-1.893-2.391-3.475-2.391c-2.061,0-3.732,1.678-3.732,3.747c0,2.072,1.672,3.749,3.732,3.749
			c1.598,0,2.959-1.013,3.49-2.434h-1.082C57.822,82.381,56.914,82.973,55.867,82.973z"/>
	</g>
	<path fill="#808080" d="M67.125,35.545c0,0,2.846,3.759,5.982,6.259c0,0,1.188,1.009,2.457-0.139
		c1.273-1.146,6.523-5.926,6.523-5.926s1.975-1.963,4.186-0.015c0,0,4.643,4.132,7.186,7.598c0,0,0.15,0.125,0.027,0.346
		c-0.125,0.222-0.373,0.829-0.373,0.829s-2.791-3.605-6.01-6.271c0,0-1.26-0.953-2.336,0.055c-1.078,1.009-6.189,5.679-7.004,6.272
		c-0.816,0.595-2.156,1.212-4.062-0.483c-1.484-1.32-5.379-5-6.908-7.321c0,0-0.137-0.126-0.025-0.374
		C66.898,36.074,67.125,35.545,67.125,35.545z"/>
	<path d="M67.707,34.41l1.621,1.79c0,0,0.205,0.26,0.586-0.07s5.387-5.19,7.295-6.555c1.094-0.784,2.268-1.291,3.576-1.38
		c0.977-0.065,2.025,0.035,3.154,0.543c1.223,0.549,3.084,2.056,4.834,3.866c1.234,1.279,2.463,2.696,3.498,4.068
		c0.699,0.927,1.367,1.861,1.879,2.678c0,0,0.012-1.13-0.498-2.085c0,0-2.041-3.913-6.033-7.593
		c-0.389-0.358-3.791-3.767-7.098-3.691c0,0-3.082-0.175-5.887,2.132C74.172,28.495,69.246,32.742,67.707,34.41z"/>
	<path d="M71.203,38.181l1.846,1.783c0,0,0.424,0.325,0.912-0.137c0,0,1.771-1.733,3.287-3.123c1.432-1.31,2.875-2.655,3.41-3.039
		c0,0,2.322-2.407,5.277-0.062c0,0,4.016,3.155,7.984,8.563l0.129-0.637c0,0,0.148-0.531-0.205-1.019c0,0-3.1-4.574-6.918-7.863
		c0,0-1.902-2.012-4.334-2.514c0,0-2.012-0.477-3.914,1.019c-0.936,0.734-2.967,2.627-4.662,4.24
		C72.443,36.89,71.203,38.181,71.203,38.181z"/>
	<path d="M92.512,45.629l-1.623-1.79c0,0-0.203-0.261-0.584,0.069s-5.389,5.19-7.297,6.558c-1.092,0.782-2.266,1.288-3.576,1.377
		c-0.975,0.067-2.023-0.035-3.152-0.542c-1.223-0.549-3.084-2.055-4.834-3.866c-1.234-1.278-2.463-2.696-3.498-4.068
		c-0.697-0.929-1.369-1.862-1.877-2.678c0,0-0.014,1.129,0.494,2.085c0,0,2.043,3.911,6.035,7.593
		c0.389,0.357,3.791,3.768,7.096,3.691c0,0,3.082,0.176,5.889-2.133C86.047,51.543,90.973,47.297,92.512,45.629z"/>
	<path d="M89.016,41.857l-1.848-1.784c0,0-0.424-0.323-0.91,0.138c0,0-1.771,1.734-3.289,3.125c-1.432,1.31-2.871,2.653-3.408,3.037
		c0,0-2.32,2.408-5.277,0.063c0,0-4.016-3.156-7.982-8.564l-0.133,0.637c0,0-0.15,0.533,0.207,1.02c0,0,3.1,4.575,6.916,7.863
		c0,0,1.904,2.012,4.336,2.514c0,0,2.012,0.477,3.914-1.02c0.936-0.735,2.969-2.628,4.662-4.238
		C87.775,43.149,89.016,41.857,89.016,41.857z"/>
</g>
</svg>
