<?xml version="1.0" encoding="utf-8"?>
<!-- Generator: Adobe Illustrator 21.1.0, SVG Export Plug-In . SVG Version: 6.00 Build 0)  -->
<svg version="1.1" id="Layer_2" xmlns="http://www.w3.org/2000/svg" xmlns:xlink="http://www.w3.org/1999/xlink" x="0px" y="0px"
	 viewBox="0 0 160 110" style="enable-background:new 0 0 160 110;" xml:space="preserve">
<style type="text/css">
	.st0{fill:#C5C7C9;}
	.st1{fill:#404041;}
	.st2{fill:#FFFFFF;}
</style>
<polygon class="st0" points="107,35.5 46.4,39.9 46.4,40.5 107,40.5 "/>
<rect x="46.4" y="40.4" class="st1" width="65.2" height="24.6"/>
<path class="st2" d="M89.8,53.4c-1.3-1.6-3.2-1.8-5-2.5c-1.9-0.8-1.3-2.7,0.5-2.8c1-0.1,2,0.2,3.1,0.8c0.3,0.2,0.8,0.1,0.9-0.3
	l0.8-1.9c0,0,0-0.1,0-0.1c-2.3-2-6.1-1.8-8.1-0.3c-1.9,1.5-2.4,4.7-0.4,6.3c1.5,1.1,4,1.5,4.9,2.2c1.1,0.9,0.2,2.6-1.7,2.5
	c-0.9,0-1.9-0.3-2.9-0.9c-0.3-0.2-0.8-0.1-1,0.3l-0.8,1.9c-0.1,0.1,0,0.2,0,0.2c2.2,1.6,5.9,2.1,8.4,0.4
	C90.6,57.8,90.8,54.8,89.8,53.4"/>
<path class="st2" d="M97.3,55h4.2c0,0-1.9-4.8-2-5.2c0-0.1-0.2-0.1-0.2,0L97.3,55z M106.9,59.9h-2.5c-0.3,0-0.6-0.2-0.8-0.5
	l-0.6-1.6c0,0-0.1-0.1-0.1-0.1h-6.7c0,0-0.1,0-0.1,0.1l-0.6,1.6c-0.1,0.3-0.4,0.5-0.8,0.5h-2.5c-0.1,0-0.1-0.1-0.1-0.1l6.1-14.1
	c0,0,0.1-0.1,0.1-0.1h1.8c0.4,0,0.8,0.3,1,0.7l5.9,13.5C107,59.9,106.9,59.9,106.9,59.9"/>
<path class="st2" d="M68.6,45.6h2.4c0.3,0,0.6,0.3,0.6,0.6v10.7c0,0.1,0,0.1,0.1,0.1h5.9c0.3,0,0.6,0.3,0.6,0.6v2.2
	c0,0.1,0,0.1-0.1,0.1h-9c-0.3,0-0.6-0.3-0.6-0.6V45.7C68.5,45.7,68.6,45.6,68.6,45.6"/>
<path class="st2" d="M54.3,52.7c0,2.5,1.7,4.1,3.7,4.4c1.5,0.3,3-0.3,4-1.3c0.3-0.3,0.7-0.3,1-0.1l2,1.2c0.1,0,0.1,0.1,0,0.2
	c-1.7,2.1-3.8,3.4-7,3.1c-2.3-0.2-6.8-2.5-6.8-7.5c0-5.2,4.4-7.4,6.8-7.5c3.2-0.2,5.3,1,7,3.1c0,0,0,0.1,0,0.2l-2,1.2
	c-0.3,0.2-0.7,0.1-1-0.1c-1-1-2.4-1.5-4-1.3C56,48.7,54.3,50.5,54.3,52.7"/>
</svg>
