<?xml version="1.0" encoding="utf-8"?>
<!-- Generator: Adobe Illustrator 16.0.3, SVG Export Plug-In . SVG Version: 6.00 Build 0)  -->
<!DOCTYPE svg PUBLIC "-//W3C//DTD SVG 1.1//EN" "http://www.w3.org/Graphics/SVG/1.1/DTD/svg11.dtd">
<svg version="1.1" id="Layer_2" xmlns="http://www.w3.org/2000/svg" xmlns:xlink="http://www.w3.org/1999/xlink" x="0px" y="0px"
	 width="160px" height="110px" viewBox="0 0 160 110" enable-background="new 0 0 160 110" xml:space="preserve">
<path fill-rule="evenodd" clip-rule="evenodd" fill="#231F20" d="M73.672,48.679c1.983,0.291,1.983,0.821,1.983,1.353
	c0,3.251,0,6.503,0,9.64c0,0.53,0,1.205-1.983,1.352c0,0.104,0,0.209,0,0.312c4.681,0,8.207,0,13.032,0
	c0.418-1.243,0.836-2.487,1.254-3.729c-0.144,0-0.287,0-0.432,0c-2.845,3.159-3.913,3.159-4.981,3.159c-0.382,0-0.894,0-1.383,0
	c-2.819-0.147-2.819-0.822-2.819-1.353c0-1.571,0-3.183,0-4.813c0-0.048,0-0.096,0-0.144c0.942,0,1.885,0,2.827,0
	c0.933,0,1.865,0,3.247,1.149c0-0.91,0-1.821,0-2.731c-1.382,1.149-2.314,1.149-3.247,1.149c-0.942,0-1.885,0-2.827,0
	c0-1.693,0-3.388,0-5.081c1.154,0,2.308,0,3.461,0c1.268,0,2.536,0,4.497,1.988c0-0.854,0-1.708,0-2.563c-4.209,0-8.42,0-12.628,0
	C73.672,48.471,73.672,48.576,73.672,48.679 M66.661,48.366c-1.644,3.312-3.287,6.624-4.93,9.936
	c-1.584-3.312-3.169-6.623-4.753-9.936c-1.633,0-3.177,0-4.631,0c0,0.154,0,0.26,0,0.318c0.364,0.025,0.711,0.109,1.039,0.253
	c0.329,0.144,0.587,0.365,0.776,0.665c0.136,0.217,0.223,0.562,0.261,1.032c0.022,0.264,0.033,0.54,0.033,0.834
	c0,2.255,0,4.509,0,6.765c0,0.65-0.043,1.134-0.129,1.449c-0.087,0.315-0.248,0.576-0.481,0.779
	c-0.211,0.186-0.452,0.319-0.72,0.402c-0.268,0.083-0.527,0.135-0.778,0.153c0,0.153,0,0.26,0,0.317c1.644,0,3.286,0,4.93,0
	c0-0.058,0-0.164,0-0.317c-0.252-0.019-0.514-0.07-0.782-0.153c-0.27-0.083-0.511-0.217-0.723-0.402
	c-0.233-0.203-0.394-0.463-0.482-0.774c-0.087-0.312-0.131-0.798-0.131-1.454c0-2.519,0-5.078,0-7.679
	c1.843,3.593,3.689,7.188,5.533,10.78c0.079,0,0.158,0,0.237,0c1.952-3.838,3.902-7.675,5.853-11.513c0,2.852,0,5.655,0,8.411
	c0,0.65-0.043,1.134-0.13,1.449c-0.087,0.315-0.249,0.576-0.483,0.779c-0.212,0.179-0.453,0.312-0.722,0.397
	c-0.27,0.086-0.534,0.14-0.793,0.158c0,0.153,0,0.26,0,0.317c2.207,0,4.414,0,6.621,0c0-0.058,0-0.164,0-0.317
	c-1.979-0.117-1.979-1.449-1.979-2.782c0-2.256,0-4.511,0-6.767c0-1.333,0-2.666,1.979-2.784c0-0.059,0-0.164,0-0.318
	C69.735,48.366,68.198,48.366,66.661,48.366z M47.925,48.958c0.646,0.21,1.29,0.43,2.101-0.001c0.03,1.255,0.061,2.51,0.09,3.765
	c-0.086,0-0.175,0-0.262,0c-0.855-1.407-1.565-2.631-3.125-3.399s-3.968-1.083-5.731-0.155c-1.766,0.927-2.886,3.097-3.114,5.048
	c-0.228,1.952,0.437,3.688,1.321,4.88c0.883,1.192,1.985,1.844,3.363,2.097c1.379,0.254,3.032,0.109,4.284-0.563
	c1.254-0.673,2.105-1.876,2.998-3.47c0.089,0,0.178,0,0.267,0c-0.026,1.326-0.052,2.651-0.079,3.977c-0.121,0-0.243,0-0.364,0
	c-0.546-0.75-0.918-0.498-1.312-0.289c-1.851,0.988-4.655,1.316-7.011,0.912c-2.354-0.405-4.261-1.542-5.394-3.112
	c-1.133-1.569-1.494-3.571-1.025-5.303c0.469-1.73,1.769-3.191,3.429-4.067c1.662-0.876,3.682-1.169,5.335-1.133
	C45.347,48.178,46.632,48.541,47.925,48.958z M103.066,48.892c0.647,0.21,1.29,0.431,2.102-0.001c0.03,1.255,0.059,2.51,0.089,3.765
	c-0.087,0-0.174,0-0.262,0c-0.855-1.407-1.566-2.631-3.126-3.399c-1.559-0.769-3.967-1.084-5.731-0.156
	c-1.764,0.928-2.886,3.097-3.113,5.049c-0.229,1.952,0.436,3.687,1.32,4.88c0.883,1.192,1.986,1.843,3.363,2.097
	c1.378,0.254,3.031,0.11,4.286-0.563c1.252-0.673,2.104-1.875,2.997-3.47c0.089,0,0.177,0,0.267,0
	c-0.027,1.326-0.053,2.651-0.079,3.977c-0.121,0-0.242,0-0.364,0c-0.547-0.751-0.918-0.499-1.313-0.289
	c-1.851,0.988-4.655,1.316-7.011,0.911c-2.355-0.404-4.26-1.541-5.394-3.111c-1.134-1.568-1.494-3.571-1.025-5.303
	c0.47-1.731,1.77-3.192,3.429-4.067c1.661-0.877,3.683-1.169,5.335-1.133C100.489,48.111,101.773,48.476,103.066,48.892z
	 M120.894,54.205c-2.929,0-5.857,0-8.788,0c0-1.439,0-2.681,0-4.174c0-0.531,0-1.062,1.86-1.353c0-0.103,0-0.208,0-0.312
	c-2.034,0-4.202,0-6.235,0c0,0.104,0,0.21,0,0.312c1.858,0.291,1.858,0.821,1.858,1.353c0,3.137,0,6.388,0,9.64
	c0,0.53,0,1.205-1.858,1.352c0,0.104,0,0.209,0,0.312c2.034,0,4.201,0,6.235,0c0-0.104,0-0.208,0-0.312
	c-1.86-0.146-1.86-0.821-1.86-1.352c0-1.592,0-3.013,0-4.46c0-0.097,0-0.192,0-0.288c2.93,0,5.858,0,8.788,0
	c0,0.096,0,0.191,0,0.288c0,1.447,0,2.868,0,4.46c0,0.53,0,1.205-1.858,1.352c0,0.104,0,0.209,0,0.312c2.034,0,4.201,0,6.234,0
	c0-0.104,0-0.208,0-0.312c-1.857-0.146-1.857-0.821-1.857-1.352c0-3.252,0-6.503,0-9.64c0-0.531,0-1.062,1.857-1.353
	c0-0.103,0-0.208,0-0.312c-2.033,0-4.2,0-6.234,0c0,0.104,0,0.21,0,0.312c1.858,0.291,1.858,0.821,1.858,1.353
	C120.894,51.524,120.894,52.766,120.894,54.205z"/>
</svg>
