<?xml version="1.0" encoding="utf-8"?>
<!-- Generator: Adobe Illustrator 21.0.2, SVG Export Plug-In . SVG Version: 6.00 Build 0)  -->
<svg version="1.1" id="Layer_2" xmlns="http://www.w3.org/2000/svg" xmlns:xlink="http://www.w3.org/1999/xlink" x="0px" y="0px"
	 viewBox="0 0 160 110" style="enable-background:new 0 0 160 110;" xml:space="preserve">
<style type="text/css">
	.st0{fill:none;}
</style>
<rect class="st0" width="160" height="110"/>
<g>
	<g>
		<path d="M93,46.7h1.4c0.2-0.2,0.3-0.4,0.5-0.6l0.4,0.2l-0.4,0.4h2.8l-0.1,0.4h-0.8c-0.4,0.5-0.7,0.9-1.1,1.1c0,0,0.1,0,0.2,0
			c0.3,0.1,0.6,0.2,1,0.4l-0.3,0.4c-0.2-0.1-0.5-0.3-1-0.5c-0.2,0-0.3-0.1-0.4-0.1c-0.7,0.4-1.6,0.7-2.7,0.9c0,0,0,0,0-0.1
			c0-0.2,0-0.3-0.1-0.4c0.8-0.1,1.6-0.3,2.2-0.6c-0.1,0-0.2,0-0.5-0.1C94,48.1,93.9,48,93.8,48c-0.1,0-0.1,0.1-0.2,0.2
			c-0.1,0-0.1,0.1-0.1,0.1l-0.3-0.2c0.1-0.1,0.2-0.2,0.3-0.4c0.3-0.3,0.4-0.5,0.6-0.6h-1.1L93,46.7z M94.3,41.5h1.8l0.1-0.8h0.4
			l-0.1,0.8h1.8l-0.2,1h0.5l-0.1,0.4H98L97.8,44H96l-0.1,0.6h1.8l-0.3,1.4h-4l0.3-1.4h1.8l0.1-0.6h-1.8l0.2-1.1h-0.4l0.1-0.4h0.4
			L94.3,41.5z M94.1,45L94,45.7h1.3l0.1-0.7H94.1z M94.1,47.7c0.2,0,0.5,0.2,0.9,0.3c0.1,0,0.2,0,0.2,0.1c0.4-0.3,0.8-0.6,1.1-1
			h-1.7c-0.1,0-0.1,0.1-0.3,0.3C94.2,47.5,94.1,47.6,94.1,47.7z M94.5,42.9l-0.1,0.7h1.3l0.1-0.7H94.5z M94.7,41.9l-0.1,0.7h1.3
			l0.1-0.7H94.7z M97.2,45h-1.3l-0.1,0.7h1.3L97.2,45z M96.2,42.9l-0.1,0.7h1.3l0.1-0.7H96.2z M97.7,41.9h-1.3l-0.1,0.7h1.3
			L97.7,41.9z M100,40.7l0.4,0.1c-0.2,0.6-0.5,1.2-0.8,1.7h2.3l-0.1,0.4h-0.5c-0.4,1.8-1,3.2-1.8,4.2c0.3,0.6,0.7,1.2,1.3,1.8
			c-0.1,0-0.2,0.2-0.4,0.4c-0.6-0.6-1-1.1-1.3-1.7c-0.4,0.5-1.1,1.2-2.1,1.9c0-0.1-0.1-0.2-0.3-0.4c0.9-0.6,1.7-1.3,2.2-1.9
			c-0.3-0.7-0.4-1.7-0.3-3c-0.1,0.1-0.2,0.2-0.3,0.4c-0.1,0.2-0.3,0.3-0.3,0.4c0,0-0.1-0.1-0.1-0.2c-0.1-0.1-0.1-0.2-0.1-0.2
			C98.7,43.5,99.4,42.3,100,40.7z M99.4,46.6c0.6-0.9,1.1-2.2,1.5-3.7h-1.4c0,0-0.1,0.1-0.1,0.3c-0.1,0.1-0.1,0.2-0.1,0.3
			C99.1,44.8,99.2,45.8,99.4,46.6z"/>
		<path d="M104.7,41.5h2.7l-0.1,0.4h-1.1c-0.3,0.7-0.6,1.4-1.1,2.1h1.5l-0.7,4h-1.5l-0.1,0.6H104l0.7-3.7c-0.2,0.3-0.5,0.7-0.8,1
			c0-0.1-0.1-0.3-0.2-0.4c0.9-1.1,1.5-2.3,2.1-3.5h-1.2L104.7,41.5z M105.2,44.4l-0.6,3.2h1.1l0.6-3.2H105.2z M106.2,48.6
			c0.3-0.4,0.5-1,0.9-1.8l0.4,0.1c-0.3,0.6-0.5,1.3-0.8,1.9c0,0,0,0-0.1,0C106.5,48.6,106.4,48.6,106.2,48.6z M112.5,41.2l-0.1,0.4
			h-1.8l-0.2,1h1.7L112,43h-1.7l-0.2,1h1.7l-0.1,0.4h-1.7l-0.2,1h1.9c-0.2,1-0.4,1.9-0.5,2.5c-0.2,0.8-0.7,1.2-1.5,1.2
			c-0.3,0-0.7,0-1.2,0c0-0.2,0-0.4,0-0.5c0.2,0,0.6,0,1.1,0c0.6,0,0.9-0.2,1.1-0.8c0.2-0.6,0.3-1.3,0.5-2.1h-3.7l-0.1,0.5h-0.4
			l0.9-5.1H112.5z M107.9,44.5l-0.2,1h1.8l0.2-1H107.9z M107.9,48.3c0-0.2,0-0.5,0-1c0-0.2,0-0.3,0-0.4l0.4-0.1c0,0.1,0,0.2,0,0.4
			c0,0.1,0,0.5,0.1,1L107.9,48.3z M108.2,43l-0.2,1h1.8l0.2-1H108.2z M108.4,41.6l-0.2,1h1.8l0.2-1H108.4z M109.1,48
			c0-0.2-0.1-0.5-0.1-0.9c0-0.2-0.1-0.3-0.1-0.4l0.4-0.1c0,0.1,0,0.2,0.1,0.4c0.1,0.4,0.1,0.6,0.1,0.8L109.1,48z M110.4,46.4
			c0,0.1,0.1,0.4,0.2,0.8c0,0.1,0.1,0.3,0.1,0.4l-0.4,0.1c-0.1-0.4-0.2-0.8-0.2-1.1L110.4,46.4z"/>
		<path d="M114.3,49.1c0.4-1,0.9-2.1,1.4-3.4c0.1,0,0.2,0.1,0.4,0.1c0,0,0,0,0.1,0c-0.4,0.9-0.8,2.1-1.3,3.5L114.3,49.1z
			 M116.2,44.8c-0.3-0.4-0.7-0.8-1.1-1.2l0.3-0.4c0.1,0.1,0.2,0.2,0.4,0.4c0.1,0.1,0.4,0.3,0.8,0.7L116.2,44.8z M116.8,42.6
			c-0.3-0.3-0.4-0.4-0.3-0.3c-0.4-0.4-0.6-0.7-0.8-0.9l0.4-0.3c0.1,0.1,0.2,0.2,0.4,0.4c0.3,0.3,0.6,0.6,0.8,0.8L116.8,42.6z
			 M117.8,41.8h1.2l0.2-1h0.4l-0.2,1h1.9l0.2-1h0.4l-0.2,1h1.5l-0.1,0.4h-1.5l-0.2,1.3h1.8l-0.1,0.4h-1.9c0.4,0.9,0.9,1.6,1.7,2.1
			c0,0-0.1,0.1-0.2,0.2c-0.1,0.1-0.2,0.2-0.2,0.2c-0.9-0.7-1.5-1.6-1.7-2.5h-1.7c-0.3,0.4-0.7,0.8-1,1.3h3.2l-0.4,2h-3.1l-0.1,0.7
			c-0.1,0.4,0.1,0.6,0.5,0.6h2.3c0.5,0,0.8-0.2,0.9-0.5c0-0.1,0-0.2,0.1-0.3c0.1-0.2,0.2-0.4,0.2-0.6c0.1,0,0.2,0,0.3,0.1
			c0.1,0,0.1,0.1,0.2,0.1c-0.1,0.4-0.3,0.7-0.4,0.9c-0.3,0.5-0.7,0.8-1.3,0.8h-2.5c-0.6,0-0.9-0.3-0.8-1l0.4-2.4
			c-0.4,0.3-0.8,0.6-1.2,0.9c0-0.1-0.1-0.2-0.2-0.4c1-0.5,1.8-1.3,2.5-2.2h-1.8l0.1-0.4h1.6l0.2-1.3h-1.2L117.8,41.8z M118.1,45.6
			l-0.2,1.2h2.6l0.2-1.2H118.1z M119.3,42.2l-0.2,1.3h1.9l0.2-1.3H119.3z"/>
	</g>
	<path d="M51.4,60.6h-4.3c-1,0-1.7-0.2-2-0.5c-0.2-0.2-0.2-0.4-0.2-0.7l1.2-6.7h-1.8l-1.2,6.7c-0.1,0.7,0,1.3,0.4,1.7
		c0.6,0.7,1.8,1.1,3.7,1.1h3.9l0,0c-0.1,0.8-0.9,1.1-2.2,1.1H46l-0.3,1.5h2.7c2.7,0,4.1-0.9,4.4-2.6l1.7-9.6h-1.8L51.4,60.6z"/>
	<path d="M63.1,52.7h-4.7l1.2-7.4h-1.8l-2.4,14c-0.1,0.7,0,1.3,0.4,1.8c0.6,0.8,2,1.1,4,1.1h1.6c3.2,0,4.9-1,5.3-3l0.6-3.6
		c0.1-0.8,0-1.4-0.4-1.8C66.4,53,65.1,52.7,63.1,52.7z M62.3,60.6h-2.6c-1.2,0-2-0.2-2.3-0.6c-0.2-0.2-0.2-0.4-0.2-0.7l0.9-5.1h5
		c1.1,0,1.8,0.2,2.2,0.6c0.2,0.2,0.3,0.5,0.2,0.9l-0.6,3.5C64.7,60.2,63.9,60.6,62.3,60.6z"/>
	<path d="M76.6,52.7h-2.3c-3.2,0-4.9,1-5.3,2.9l-0.6,3.6c-0.1,0.8,0,1.4,0.4,1.8c0.6,0.7,1.9,1.1,3.9,1.1h2l0.3-1.5h-2.5
		c-1.2,0-1.9-0.2-2.2-0.6c-0.1-0.2-0.2-0.4-0.1-0.7l0.2-1.1h8.5c0.5,0,0.9-0.3,1-0.8l0.4-2.2c0.1-0.7,0-1.2-0.3-1.6
		C79.3,53,78.2,52.7,76.6,52.7z M78.4,55.4l-0.2,1.3h-7.5l0.2-1.2c0.2-0.9,1.1-1.3,2.8-1.3h3.1c0.8,0,1.3,0.1,1.5,0.4
		C78.4,54.8,78.4,55.1,78.4,55.4z"/>
	<path d="M96.3,52.7h-1.7c-3.1,0-4.7,0.9-5,2.8L87,69.3h1.8l1.3-7.1h6c2.8,0,3.4-0.9,3.8-2.9l0.7-3.9c0.1-0.7,0-1.2-0.4-1.6
		C99.6,53,98.3,52.7,96.3,52.7z M94.1,54.2h2.2c1.2,0,2,0.2,2.3,0.6c0.2,0.2,0.2,0.4,0.2,0.7l-0.7,3.9c-0.2,0.9-1,1.3-2.4,1.3h-5.2
		l0.9-5.1C91.5,54.6,92.4,54.2,94.1,54.2z"/>
	<path d="M109.7,52.7h-2.4c-3.1,0-4.8,1-5.1,3l-0.6,3.6c-0.1,0.8,0,1.4,0.4,1.8c0.6,0.7,1.8,1.1,3.7,1.1h3.4c2.9,0,3.6-0.9,4-2.9
		l0.6-3.7c0.1-0.8,0-1.4-0.4-1.9C112.7,53,111.5,52.7,109.7,52.7z M111.2,59.3c-0.2,0.9-1,1.4-2.6,1.4h-2.9c-1.1,0-1.8-0.2-2.1-0.6
		c-0.2-0.2-0.2-0.5-0.2-0.8l0.6-3.6c0.2-1,1.1-1.5,2.8-1.5h2.9c1,0,1.7,0.2,2,0.5c0.2,0.2,0.2,0.4,0.2,0.8v0L111.2,59.3z"/>
	<path d="M115.3,55.6l-1.2,6.6h1.8l1.2-6.6c0.2-0.9,1.1-1.4,2.6-1.4h1.6l0.3-1.5h-1.5C117.3,52.7,115.7,53.6,115.3,55.6z"/>
	<path d="M88.3,52.7h-1.5c-2.9,0-4.6,0.9-4.9,2.9l-1.2,6.6h1.8l1.2-6.6c0.2-0.9,1.1-1.4,2.6-1.4H88L88.3,52.7z"/>
	<polygon points="126.3,52.7 126.8,49.8 125,49.8 124.4,52.7 122.8,52.7 122.6,54.2 124.1,54.2 122.7,62.2 124.5,62.2 126,54.2 
		129.3,54.2 129.6,52.7 	"/>
	<path d="M33.5,52.7c0.2-0.9,1.3-1.4,3.3-1.4h6.1l0.3-1.5H37c-3.2,0-5,1-5.4,2.9l-1.2,6.6c-0.1,0.7,0.1,1.2,0.5,1.7
		c0.7,0.8,2,1.2,4,1.2h6l0.3-1.6h-5.8c-1.5,0-2.4-0.2-2.8-0.7c-0.1-0.2-0.2-0.3-0.2-0.6L33.5,52.7z"/>
</g>
</svg>
