<?xml version="1.0" encoding="utf-8"?>
<!-- Generator: Adobe Illustrator 16.0.3, SVG Export Plug-In . SVG Version: 6.00 Build 0)  -->
<!DOCTYPE svg PUBLIC "-//W3C//DTD SVG 1.1//EN" "http://www.w3.org/Graphics/SVG/1.1/DTD/svg11.dtd">
<svg version="1.1" id="Layer_2" xmlns="http://www.w3.org/2000/svg" xmlns:xlink="http://www.w3.org/1999/xlink" x="0px" y="0px"
	 width="160px" height="110px" viewBox="0 0 160 110" enable-background="new 0 0 160 110" xml:space="preserve">
<g>
	<g>
		<path fill="#231F20" d="M31.729,65.345c-0.188,0-0.34-0.152-0.34-0.34l0,0c0-0.193,0.152-0.345,0.34-0.345l0,0h93.254
			c1.688,0,3.066-1.384,3.071-3.067l0,0V48.407c-0.005-1.688-1.384-3.067-3.071-3.071l0,0H46.635c-0.188,0-0.341-0.152-0.341-0.341
			l0,0c0-0.188,0.152-0.34,0.341-0.34l0,0h78.349c2.066,0,3.752,1.684,3.752,3.752l0,0v13.186c0,2.064-1.686,3.748-3.752,3.752l0,0
			H31.729L31.729,65.345z"/>
	</g>
	<g>
		<path fill="#231F20" d="M57.528,60.129c-0.157-0.014-0.322-0.027-0.497-0.036c-0.104-0.014-0.206-0.022-0.313-0.031
			c-0.105-0.004-0.215-0.009-0.329-0.009c-0.289,0-0.575,0.014-0.866,0.04c-0.287,0.022-0.578,0.049-0.864,0.076
			c-0.04,0-0.063-0.022-0.076-0.059c-0.014-0.04,0-0.071,0.036-0.094l0.734-0.357c-0.211-0.592-0.435-1.174-0.668-1.742
			c-0.232-0.573-0.457-1.16-0.667-1.764h-2.921c-0.065,0.165-0.154,0.407-0.273,0.725c-0.119,0.322-0.235,0.654-0.348,0.999
			c-0.117,0.345-0.215,0.671-0.304,0.98c-0.087,0.309-0.13,0.532-0.13,0.667c0,0.192,0.08,0.313,0.244,0.367
			c0.163,0.059,0.32,0.099,0.473,0.125v0.152c-0.24-0.027-0.484-0.049-0.734-0.067c-0.254-0.018-0.504-0.031-0.755-0.031
			c-0.253,0-0.504,0.014-0.755,0.031c-0.25,0.019-0.501,0.04-0.752,0.067c-0.038,0.009-0.059-0.009-0.066-0.059
			c-0.005-0.049,0.008-0.08,0.049-0.094c0.689-0.09,1.173-0.452,1.448-1.092v0.018c0.365-0.918,0.714-1.836,1.055-2.749
			c0.34-0.918,0.671-1.841,0.998-2.771c0.229-0.627,0.448-1.249,0.658-1.872c0.215-0.622,0.441-1.244,0.681-1.875
			c0.009-0.036,0.038-0.055,0.076-0.055c0.035,0,0.062,0.019,0.071,0.055c0.063,0.179,0.13,0.349,0.202,0.519
			c0.066,0.171,0.134,0.345,0.196,0.52c0.515,1.406,1.053,2.816,1.61,4.235c0.56,1.42,1.197,2.808,1.911,4.164
			c0.15,0.287,0.343,0.497,0.575,0.623c0.233,0.125,0.497,0.196,0.802,0.223v0.152C57.851,60.138,57.685,60.142,57.528,60.129z
			 M52.564,51.612c-0.212,0.668-0.418,1.316-0.61,1.953c-0.195,0.635-0.412,1.289-0.649,1.97h2.429L52.564,51.612z"/>
		<path fill="#231F20" d="M67.736,50.552c-0.282,0.255-0.582,0.568-0.904,0.94c-0.318,0.371-0.636,0.771-0.949,1.195
			c-0.313,0.43-0.596,0.851-0.84,1.263c-0.244,0.416-0.445,0.797-0.603,1.15c-0.156,0.35-0.236,0.636-0.236,0.847v3.089
			c0,0.152,0.044,0.277,0.134,0.385c0.085,0.107,0.192,0.202,0.317,0.282c0.126,0.085,0.267,0.147,0.417,0.202
			c0.152,0.049,0.289,0.085,0.414,0.111c0.038,0.014,0.052,0.041,0.047,0.085c-0.007,0.04-0.028,0.067-0.067,0.067
			c-0.25-0.014-0.508-0.022-0.77-0.022c-0.251,0-0.504,0-0.757,0c-0.325,0-0.645,0-0.958,0c-0.3,0-0.609,0.014-0.922,0.04
			c-0.041,0-0.063-0.018-0.068-0.058c-0.006-0.036,0.01-0.067,0.048-0.095c0.212-0.084,0.405-0.219,0.575-0.394
			c0.17-0.179,0.253-0.385,0.253-0.622v-2.865c0-0.175-0.083-0.439-0.244-0.788c-0.165-0.354-0.376-0.748-0.64-1.187
			c-0.265-0.439-0.556-0.892-0.878-1.357c-0.318-0.465-0.636-0.895-0.949-1.289c-0.313-0.398-0.609-0.729-0.885-0.998
			c-0.274-0.27-0.494-0.43-0.66-0.484c-0.036-0.009-0.054-0.04-0.045-0.08c0.005-0.045,0.027-0.067,0.063-0.067
			c0.302,0.022,0.586,0.045,0.857,0.067c0.271,0.018,0.548,0.027,0.839,0.027c0.35,0,0.717-0.019,1.093-0.059
			c0.035,0,0.062,0.018,0.074,0.049c0.013,0.031,0.006,0.059-0.019,0.086c-0.011,0.013-0.016,0.013-0.011,0
			c0.009-0.014,0.004-0.014-0.01,0c-0.073,0.062-0.147,0.125-0.215,0.188c-0.069,0.062-0.103,0.13-0.103,0.206
			c0,0.089,0.099,0.317,0.3,0.685c0.201,0.372,0.439,0.793,0.717,1.263c0.275,0.475,0.557,0.945,0.846,1.424
			c0.289,0.479,0.523,0.86,0.699,1.151c0.075-0.139,0.191-0.341,0.355-0.605c0.163-0.264,0.334-0.546,0.508-0.846
			c0.152-0.264,0.322-0.555,0.511-0.869c0.188-0.312,0.362-0.617,0.526-0.913c0.163-0.295,0.297-0.555,0.404-0.778
			c0.107-0.229,0.162-0.381,0.162-0.453c0-0.116-0.036-0.21-0.104-0.286c-0.071-0.071-0.156-0.134-0.255-0.188
			c-0.036-0.021-0.05-0.058-0.036-0.103c0.009-0.045,0.036-0.058,0.074-0.045c0.163,0.036,0.336,0.063,0.517,0.076
			c0.184,0.009,0.36,0.019,0.538,0.019c0.236,0,0.47-0.01,0.695-0.019c0.227-0.013,0.446-0.031,0.661-0.058
			c0.024,0,0.054-0.005,0.094-0.01c0.036-0.009,0.067-0.009,0.094-0.009l0.019,0.147C68.26,50.126,68.019,50.292,67.736,50.552z"/>
		<path fill="#231F20" d="M79.122,59.054c-0.076,0.301-0.182,0.587-0.32,0.852c0,0.021-0.018,0.035-0.056,0.035
			c-0.603,0.099-1.2,0.184-1.791,0.246c-0.589,0.059-1.185,0.095-1.789,0.095c-0.754,0-1.45-0.126-2.089-0.376
			c-0.64-0.251-1.195-0.604-1.656-1.057c-0.466-0.453-0.83-0.99-1.097-1.621c-0.262-0.627-0.394-1.316-0.394-2.068
			c0-0.896,0.134-1.688,0.407-2.378c0.269-0.689,0.653-1.271,1.148-1.741c0.494-0.471,1.09-0.828,1.788-1.07
			c0.696-0.246,1.478-0.371,2.347-0.371c0.349,0,0.693,0.021,1.024,0.058c0.332,0.036,0.663,0.081,0.99,0.13
			c0.25,0.04,0.494,0.076,0.734,0.107c0.237,0.031,0.475,0.059,0.716,0.085c0.05,0,0.074,0.022,0.074,0.071
			c-0.024,0.443-0.065,0.878-0.114,1.312c-0.049,0.43-0.105,0.855-0.17,1.271c-0.014,0.035-0.036,0.054-0.074,0.054
			s-0.062-0.019-0.074-0.054c-0.062-0.416-0.191-0.779-0.387-1.093s-0.432-0.577-0.714-0.783c-0.284-0.206-0.604-0.362-0.963-0.47
			s-0.729-0.162-1.119-0.162c-0.654,0-1.249,0.104-1.782,0.314c-0.533,0.205-0.989,0.496-1.375,0.873
			c-0.38,0.375-0.676,0.832-0.884,1.365c-0.208,0.532-0.312,1.128-0.312,1.781c0,0.689,0.121,1.353,0.367,1.988
			c0.246,0.631,0.587,1.195,1.027,1.684c0.439,0.492,0.961,0.882,1.562,1.178c0.603,0.295,1.261,0.443,1.978,0.443
			c0.403,0,0.752-0.045,1.048-0.135c0.293-0.085,0.555-0.215,0.778-0.385c0.229-0.17,0.426-0.385,0.596-0.649
			s0.336-0.577,0.497-0.94c0.027-0.04,0.054-0.049,0.085-0.04c0.031,0.014,0.054,0.04,0.067,0.076
			c0.014,0.076,0.022,0.152,0.027,0.229c0.006,0.071,0.008,0.156,0.008,0.241C79.233,58.45,79.198,58.754,79.122,59.054z"/>
		<path fill="#231F20" d="M91.601,60.344c-0.233,0.058-0.461,0.085-0.688,0.085c-0.379,0-0.714-0.067-1.017-0.206
			c-0.302-0.139-0.57-0.313-0.81-0.528c-0.24-0.21-0.462-0.457-0.67-0.734c-0.206-0.277-0.403-0.555-0.591-0.846
			c-0.179-0.265-0.362-0.524-0.556-0.784c-0.197-0.255-0.412-0.487-0.64-0.693c-0.235-0.211-0.486-0.376-0.757-0.502
			c-0.269-0.125-0.573-0.188-0.914-0.188c-0.098,0-0.201,0-0.3,0c-0.089,0-0.183,0.013-0.282,0.04v2.673
			c0,0.362,0.107,0.676,0.327,0.932c0.222,0.259,0.515,0.402,0.878,0.442v0.152c-0.291-0.026-0.575-0.049-0.855-0.066
			c-0.284-0.019-0.568-0.027-0.859-0.027c-0.289,0-0.568,0.009-0.838,0.036c-0.268,0.026-0.551,0.058-0.837,0.094
			c-0.04,0.014-0.067-0.005-0.085-0.049c-0.018-0.04-0.009-0.076,0.027-0.104c0.264-0.12,0.483-0.313,0.66-0.563
			c0.177-0.251,0.262-0.52,0.262-0.811v-7.514c0-0.291-0.104-0.541-0.309-0.761c-0.206-0.22-0.457-0.372-0.744-0.443
			c-0.04-0.013-0.056-0.045-0.049-0.085c0.009-0.045,0.029-0.067,0.067-0.067h3.712c0.387,0,0.77,0.05,1.148,0.144
			c0.378,0.094,0.709,0.242,0.998,0.438c0.289,0.202,0.521,0.466,0.696,0.793s0.265,0.716,0.265,1.169c0,0.6-0.168,1.173-0.5,1.715
			c-0.333,0.537-0.705,1.002-1.121,1.392c0.137,0.152,0.291,0.341,0.452,0.573c0.165,0.232,0.34,0.475,0.528,0.726
			c0.275,0.376,0.566,0.766,0.875,1.159c0.307,0.395,0.629,0.752,0.97,1.075c0.34,0.317,0.689,0.573,1.054,0.752
			c0.365,0.184,0.737,0.246,1.113,0.196l0.054,0.152C92.055,60.209,91.833,60.29,91.601,60.344z M87.364,52.087
			c-0.094-0.326-0.236-0.622-0.425-0.886c-0.188-0.265-0.421-0.479-0.698-0.649s-0.596-0.255-0.958-0.255
			c-0.152,0-0.305,0.009-0.452,0.026c-0.152,0.022-0.296,0.062-0.435,0.125v4.688c0.215,0.04,0.421,0.062,0.622,0.076
			c0.201,0.013,0.407,0.018,0.623,0.018c0.7,0,1.186-0.192,1.459-0.573c0.269-0.381,0.403-0.913,0.403-1.594
			C87.504,52.741,87.459,52.414,87.364,52.087z"/>
		<path fill="#231F20" d="M102.474,60.129c-0.159-0.014-0.324-0.027-0.499-0.036c-0.099-0.014-0.204-0.022-0.312-0.031
			c-0.105-0.004-0.217-0.009-0.329-0.009c-0.289,0-0.577,0.014-0.866,0.04c-0.289,0.022-0.578,0.049-0.866,0.076
			c-0.038,0-0.063-0.022-0.076-0.059c-0.012-0.04,0-0.071,0.038-0.094l0.736-0.357c-0.215-0.592-0.438-1.174-0.672-1.742
			c-0.229-0.573-0.452-1.16-0.667-1.764h-2.919c-0.062,0.165-0.154,0.407-0.273,0.725c-0.121,0.322-0.237,0.654-0.35,0.999
			c-0.111,0.345-0.212,0.671-0.299,0.98c-0.09,0.309-0.135,0.532-0.135,0.667c0,0.192,0.085,0.313,0.246,0.367
			c0.163,0.059,0.32,0.099,0.471,0.125v0.152c-0.238-0.027-0.484-0.049-0.734-0.067c-0.251-0.018-0.502-0.031-0.753-0.031
			s-0.501,0.014-0.754,0.031c-0.249,0.019-0.504,0.04-0.755,0.067c-0.035,0.009-0.059-0.009-0.064-0.059
			c-0.007-0.049,0.011-0.08,0.047-0.094c0.691-0.09,1.173-0.452,1.45-1.092v0.018c0.363-0.918,0.717-1.836,1.057-2.749
			c0.336-0.918,0.672-1.841,0.999-2.771c0.224-0.627,0.443-1.249,0.658-1.872c0.21-0.622,0.438-1.244,0.678-1.875
			c0.012-0.036,0.036-0.055,0.074-0.055c0.036,0,0.062,0.019,0.076,0.055c0.062,0.179,0.127,0.349,0.199,0.519
			c0.067,0.171,0.135,0.345,0.194,0.52c0.515,1.406,1.053,2.816,1.612,4.235c0.56,1.42,1.195,2.808,1.912,4.164
			c0.152,0.287,0.34,0.497,0.572,0.623c0.233,0.125,0.5,0.196,0.802,0.223v0.152C102.796,60.138,102.633,60.142,102.474,60.129z
			 M97.511,51.612c-0.215,0.668-0.417,1.316-0.613,1.953c-0.193,0.635-0.41,1.289-0.649,1.97h2.431L97.511,51.612z"/>
		<path fill="#231F20" d="M110.731,51.595c-0.013,0.041-0.04,0.054-0.084,0.05c-0.045-0.005-0.067-0.032-0.067-0.067
			c0-0.416-0.112-0.707-0.341-0.878c-0.224-0.165-0.537-0.251-0.939-0.251c-0.178,0-0.343,0.01-0.502,0.027
			c-0.154,0.018-0.32,0.04-0.497,0.067c-0.126,0.022-0.265,0.045-0.414,0.054c-0.15,0.014-0.289,0.022-0.414,0.022v3.689h2.543
			c0.087,0,0.188-0.036,0.3-0.112c0.114-0.076,0.201-0.152,0.265-0.229c0.026-0.022,0.054-0.031,0.085-0.018s0.047,0.04,0.047,0.076
			c-0.024,0.354-0.061,0.693-0.104,1.025c-0.042,0.336-0.098,0.662-0.158,0.989c-0.014,0.04-0.043,0.054-0.086,0.049
			c-0.044-0.009-0.066-0.031-0.066-0.067c0.014-0.416-0.09-0.698-0.309-0.854c-0.225-0.161-0.533-0.237-0.934-0.237h-1.583v3.766
			c0,0.152,0.031,0.309,0.094,0.47c0.062,0.166,0.152,0.31,0.265,0.435c0.111,0.125,0.244,0.229,0.394,0.305
			c0.152,0.071,0.313,0.111,0.488,0.111v0.152h-0.13c-0.139,0-0.271-0.009-0.395-0.022c-0.125-0.009-0.26-0.022-0.398-0.036
			c-0.137-0.013-0.269-0.021-0.394-0.026c-0.126-0.009-0.251-0.014-0.376-0.014c-0.126,0-0.251,0.009-0.376,0.022
			c-0.126,0.009-0.251,0.022-0.376,0.036c-0.152,0.013-0.301,0.022-0.443,0.031c-0.146,0.005-0.287,0.009-0.426,0.009h-0.111
			c-0.036,0-0.059-0.027-0.067-0.067c-0.005-0.044,0.009-0.071,0.049-0.085c0.224-0.04,0.401-0.085,0.528-0.143
			c0.125-0.055,0.215-0.131,0.271-0.225c0.056-0.094,0.087-0.215,0.094-0.357c0.007-0.144,0.011-0.332,0.011-0.556V50.86
			c0-0.286-0.058-0.465-0.17-0.537c-0.114-0.066-0.246-0.121-0.396-0.156c-0.062-0.027-0.141-0.054-0.235-0.086
			c-0.094-0.031-0.191-0.08-0.291-0.143c-0.04-0.027-0.049-0.054-0.04-0.085c0.014-0.031,0.04-0.045,0.076-0.045
			c0.793,0.036,1.59,0.054,2.392,0.054h1.338c0.062,0,0.128,0.004,0.197,0.014c0.069,0.004,0.141,0.009,0.22,0.009
			c0.286,0.009,0.584,0.009,0.891,0c0.31-0.014,0.577-0.085,0.802-0.21c0.026-0.023,0.054-0.023,0.085,0
			c0.031,0.026,0.04,0.058,0.029,0.094L110.731,51.595z"/>
		<path fill="#231F20" d="M122.391,50.731c-0.013,0.326-0.058,0.626-0.132,0.904c-0.014,0.035-0.038,0.053-0.076,0.053
			c-0.024,0-0.045-0.018-0.056-0.053c-0.101-0.439-0.3-0.734-0.596-0.878c-0.293-0.144-0.64-0.215-1.043-0.215h-1.659v8.081
			c0,0.363,0.114,0.672,0.338,0.923c0.227,0.251,0.516,0.407,0.869,0.47c0.035,0.014,0.054,0.041,0.045,0.085
			c-0.005,0.04-0.027,0.067-0.063,0.067c-0.326-0.027-0.649-0.049-0.962-0.067c-0.313-0.018-0.634-0.031-0.961-0.031
			c-0.25,0-0.494,0.009-0.734,0.022c-0.239,0.009-0.483,0.031-0.734,0.054c-0.037,0.014-0.061-0.005-0.064-0.054
			c-0.009-0.054,0.009-0.085,0.047-0.099c0.213-0.044,0.379-0.103,0.499-0.156c0.116-0.059,0.211-0.13,0.271-0.22
			c0.064-0.085,0.101-0.201,0.114-0.345c0.013-0.147,0.018-0.327,0.018-0.537v-8.176h-2.262c-0.299,0-0.563,0.099-0.79,0.3
			c-0.226,0.202-0.39,0.435-0.49,0.699c-0.011,0.035-0.035,0.049-0.075,0.035c-0.036-0.009-0.055-0.035-0.055-0.071l-0.04-0.246
			c0-0.202,0.026-0.395,0.076-0.578c0.05-0.179,0.101-0.358,0.152-0.532c0.022-0.09,0.049-0.175,0.073-0.256
			c0.025-0.08,0.052-0.165,0.076-0.255c0.025-0.062,0.061-0.076,0.112-0.036c0.19,0.126,0.383,0.202,0.575,0.233
			c0.195,0.031,0.405,0.049,0.632,0.049h6.026c0.139,0,0.313-0.031,0.528-0.094c0.049-0.014,0.094-0.026,0.132-0.04
			c0.038-0.01,0.083-0.022,0.132-0.036l0.095,0.076C122.409,50.095,122.402,50.404,122.391,50.731z"/>
	</g>
	<g>
		<path fill="#231F20" d="M45.851,56.001c-0.721,1.741-2.1,3.035-3.846,3.721c-1.921,0.752-4.012,0.774-6.04,0.645
			c-1.079-0.072-2.155-0.192-3.237-0.229c-0.26-0.009-0.519-0.014-0.778-0.009c-0.067,0.005-0.562,0.089-0.448-0.116
			c0.05-0.095,0.43-0.139,0.537-0.184c0.202-0.086,0.395-0.197,0.54-0.363c0.464-0.523,0.336-1.414,0.336-2.091
			c0-3.568,0-7.137,0-10.71c0-0.277,0.007-0.568-0.144-0.814c-0.222-0.371-0.714-0.39-1.092-0.475
			c-0.16-0.04-0.312-0.071-0.401-0.224c-0.103-0.171,0.47-0.104,0.556-0.099c1.041,0.014,2.072,0.13,3.118,0.111
			c1.027-0.018,2.053-0.111,3.078-0.143c1.05-0.031,2.058,0,3.067,0.313c0.941,0.291,1.833,0.747,2.621,1.339
			c1.516,1.142,3.168,3.322,2.671,7.234C46.297,54.626,46.129,55.333,45.851,56.001 M44.073,50.14
			c-0.738-1.791-2.176-3.143-3.989-3.806c-0.944-0.34-1.947-0.497-2.95-0.511c-0.502-0.004-1.005,0.031-1.5,0.126
			c-0.107,0.018-0.859,0.144-0.859,0.241c0,1.482,0,2.965,0,4.446c0,1.957,0,3.913,0,5.874c0,0.649-0.054,1.348,0.186,1.966
			c0.355,0.927,1.265,1.079,2.146,1.119c1.008,0.054,2.028-0.013,3.01-0.26c1.828-0.466,3.351-1.63,4.056-3.411
			C44.88,54.143,44.794,51.903,44.073,50.14"/>
	</g>
</g>
</svg>
