<?xml version="1.0" encoding="utf-8"?>
<!-- Generator: Adobe Illustrator 16.0.3, SVG Export Plug-In . SVG Version: 6.00 Build 0)  -->
<!DOCTYPE svg PUBLIC "-//W3C//DTD SVG 1.1//EN" "http://www.w3.org/Graphics/SVG/1.1/DTD/svg11.dtd">
<svg version="1.1" id="Layer_2" xmlns="http://www.w3.org/2000/svg" xmlns:xlink="http://www.w3.org/1999/xlink" x="0px" y="0px"
	 width="160px" height="110px" viewBox="0 0 160 110" enable-background="new 0 0 160 110" xml:space="preserve">
<g>
	<path fill="#231F20" d="M55.545,53.623c1.5,0,1.953,1.37,1.953,2.122c-0.004,0-4.04,0-4.042,0
		C53.456,54.68,54.196,53.623,55.545,53.623z M59.852,59.959c-0.427,0.145-0.871,0.275-1.315,0.366
		c-0.521,0.106-1.062,0.164-1.61,0.164c-1.773,0-3.162-0.59-3.389-1.995h7.565c0.055-0.271,0.155-0.924,0.155-1.61
		c0-3.194-1.59-6.127-5.645-6.127c-3.938,0-6.035,3.089-6.035,6.55c0,3.989,2.789,6.271,6.684,6.271c0.992,0,1.717-0.09,2.314-0.211
		c0.621-0.127,1.307-0.331,1.885-0.59L59.852,59.959z"/>
	<path fill="#231F20" d="M114.278,53.623c1.499,0,1.952,1.37,1.952,2.122c-0.002,0-4.039,0-4.041,0
		C112.189,54.68,112.93,53.623,114.278,53.623z M118.584,59.959c-0.426,0.145-0.87,0.275-1.314,0.366
		c-0.522,0.106-1.062,0.164-1.61,0.164c-1.773,0-3.162-0.59-3.389-1.995h7.565c0.056-0.271,0.154-0.924,0.154-1.61
		c0-3.194-1.589-6.127-5.643-6.127c-3.938,0-6.035,3.089-6.035,6.55c0,3.989,2.789,6.271,6.683,6.271
		c0.991,0,1.716-0.09,2.315-0.211c0.621-0.127,1.305-0.331,1.884-0.59L118.584,59.959z"/>
	<path fill="#231F20" d="M63.11,46.69v16.625h4.103V46.69H63.11z"/>
	<path fill="#231F20" d="M75.452,60.536c-1.333,0-2.208-1.318-2.208-3.355c0-1.623,0.586-3.355,2.222-3.355
		c1.579,0,2.139,1.796,2.139,3.338C77.604,59.209,76.753,60.536,75.452,60.536z M75.396,63.579c3.202,0,6.442-2.017,6.442-6.519
		c0-2.681-1.589-6.282-6.241-6.282c-4.789,0-6.536,3.49-6.536,6.486C69.062,61.024,71.673,63.579,75.396,63.579z"/>
	<path fill="#231F20" d="M83.622,51.048v12.267h4.103V51.048H83.622z"/>
	<path fill="#231F20" d="M83.622,46.696v3.186h4.103v-3.186H83.622z"/>
	<path fill="#231F20" d="M90.974,47.709v3.337h-1.576v3.04h1.576v5.025c0,2.765,1.264,4.455,4.149,4.455
		c0.54,0,1.151-0.055,1.714-0.139c0.521-0.079,0.982-0.174,1.185-0.239c0.004-0.003-0.029-3.204-0.029-3.216
		c-0.133,0.045-1.062,0.201-1.402,0.201c-0.33,0-0.82-0.041-1.171-0.4c-0.25-0.255-0.43-0.672-0.43-1.348v-4.34h2.652v-3.04
		c0,0-2.302,0-2.652,0c0-0.36,0-3.789,0-3.789L90.974,47.709z"/>
	<path fill="#231F20" d="M100.465,47.709v3.337h-1.576v3.04h1.576v5.025c0,2.765,1.264,4.455,4.149,4.455
		c0.54,0,1.151-0.055,1.713-0.139c0.521-0.079,0.983-0.174,1.187-0.239c0.002-0.003-0.031-3.204-0.031-3.216
		c-0.131,0.045-1.061,0.201-1.402,0.201c-0.329,0-0.819-0.041-1.17-0.4c-0.25-0.255-0.429-0.672-0.429-1.348v-4.34h2.651v-3.04
		c0,0-2.301,0-2.651,0c0-0.36,0-3.789,0-3.789L100.465,47.709z"/>
	<circle fill="#231F20" cx="124.027" cy="61.313" r="2.27"/>
	<path fill="#231F20" d="M33.703,63.333h4.643c0.314,0,0.695-0.008,0.992-0.022c6.354-0.328,8.998-4.089,8.998-8.432
		c0-5.424-3.658-8.462-9.972-8.462c-1.62,0-3.061,0.056-4.661,0.19V63.333z M39.639,60.022c-0.172,0.014-0.428,0.02-0.592,0.02
		h-1.301c0.002-0.001,0-10.217,0-10.217c0.449-0.04,1.021-0.066,1.403-0.066c2.385,0,4.927,1.547,4.927,5.121
		C44.076,58.608,41.688,59.852,39.639,60.022z"/>
</g>
</svg>
