<?xml version="1.0" encoding="utf-8"?>
<!-- Generator: Adobe Illustrator 16.0.3, SVG Export Plug-In . SVG Version: 6.00 Build 0)  -->
<!DOCTYPE svg PUBLIC "-//W3C//DTD SVG 1.1//EN" "http://www.w3.org/Graphics/SVG/1.1/DTD/svg11.dtd">
<svg version="1.1" id="Layer_2" xmlns="http://www.w3.org/2000/svg" xmlns:xlink="http://www.w3.org/1999/xlink" x="0px" y="0px"
	 width="160px" height="110px" viewBox="0 0 160 110" enable-background="new 0 0 160 110" xml:space="preserve">
<g>
	<g>
		<path d="M53.021,74.775l-0.403,0.083c-0.05-0.048-0.106-0.134-0.171-0.255c-0.064-0.121-0.112-0.201-0.146-0.244
			c0.886-0.116,1.552-0.393,2.003-0.827l0.368,0.375c-0.119,0.158-0.353,0.325-0.699,0.505
			C53.627,74.592,53.31,74.715,53.021,74.775z M60.553,68.185v0.565h-1.912c0.031,1.363,0.153,2.467,0.369,3.312
			c0.054,0.05,0.167-0.227,0.337-0.825c0.17-0.601,0.268-1.248,0.293-1.94l0.546,0.157c-0.004,1.06-0.309,2.201-0.916,3.426
			c0.2,0.526,0.438,0.967,0.716,1.32c0.116,0,0.193-0.448,0.236-1.347l0.538,0.198c-0.043,0.315-0.086,0.58-0.127,0.794
			c-0.042,0.214-0.1,0.414-0.179,0.603c-0.079,0.187-0.155,0.301-0.232,0.343c-0.077,0.042-0.158,0.062-0.243,0.062
			c-0.286,0-0.651-0.434-1.094-1.306h-0.019c-0.166,0.275-0.527,0.691-1.089,1.245c-0.129-0.12-0.264-0.261-0.405-0.422
			c0.481-0.438,0.9-0.935,1.261-1.49c-0.224-0.682-0.368-1.286-0.435-1.811c-0.068-0.524-0.121-1.297-0.161-2.32h-5.597v-0.565
			h2.446v-0.612h-2.073v-0.537h2.073v-0.702h0.611v0.702h2.062v0.537h-2.062v0.612h2.513l-0.027-1.851h0.611l0.017,1.625
			c0.007,0.025,0.01,0.062,0.01,0.112c0,0.052,0.002,0.089,0.011,0.114H60.553z M56.403,72.9h1.582v0.502H52.47V72.9h1.553v-0.545
			h-1.14v-0.461h1.14v-0.468h-0.988v-2.29h4.356v2.29h-0.988v0.468h1.108c0.013,0.153,0.013,0.306,0,0.461h-1.108V72.9z
			 M53.577,70.079h1.338v-0.446h-1.338V70.079z M54.915,70.502h-1.338v0.46h1.338V70.502z M54.565,71.426v0.468h1.255v-0.468H54.565
			z M54.565,72.9h1.273l-0.008-0.545h-1.266V72.9z M55.461,70.079h1.347v-0.446h-1.347V70.079z M55.461,70.962h1.347v-0.46h-1.347
			V70.962z M55.536,73.953l0.414-0.385c0.428,0.121,0.867,0.412,1.31,0.868l-0.414,0.414C56.514,74.408,56.076,74.109,55.536,73.953
			z M58.706,66.999l0.387-0.375c0.481,0.2,0.902,0.543,1.264,1.034l-0.434,0.386C59.587,67.543,59.18,67.197,58.706,66.999z"/>
		<path d="M64.224,73.043l0.45,0.299c-0.296,0.667-0.886,1.22-1.77,1.658l-0.43-0.445C63.357,74.162,63.939,73.656,64.224,73.043z
			 M62.607,72.712v-0.556h0.899v-4.178h-0.725v-0.556h0.725v-0.97h0.585v0.97h1.93v-0.97h0.584v0.97h0.647v0.556h-0.647v4.178h0.782
			v0.556H62.607z M64.091,67.978v0.998h1.93v-0.998H64.091z M66.021,69.532h-1.93v1.043h1.93V69.532z M66.021,71.13h-1.93v1.026
			h1.93V71.13z M65.249,73.351l0.403-0.345c0.49,0.174,0.94,0.534,1.348,1.08l-0.442,0.369
			C66.261,73.967,65.825,73.599,65.249,73.351z M68.205,69.794v2.597c-0.01,1.057-0.264,1.896-0.763,2.513l-0.556-0.298
			c0.29-0.304,0.486-0.668,0.586-1.096c0.099-0.427,0.149-0.996,0.149-1.702v-4.43c1.193-0.104,2.111-0.422,2.758-0.951l0.431,0.451
			c-0.64,0.48-1.508,0.812-2.604,0.997v1.364h2.748v0.557h-1.053v5.109h-0.583v-5.109H68.205z"/>
		<path d="M73.286,70.226l-0.35-0.477c0.711-0.222,1.363-0.672,1.958-1.357l0.386,0.358C74.603,69.499,73.938,69.99,73.286,70.226z
			 M76.184,73.588l0.36,0.407c-0.966,0.537-2.061,0.852-3.286,0.946l-0.299-0.551C74.208,74.328,75.284,74.061,76.184,73.588z
			 M73.213,67.081l0.358-0.439c0.518,0.166,1.021,0.471,1.513,0.914l-0.354,0.451c-0.041-0.03-0.102-0.087-0.185-0.166
			C74.127,67.449,73.684,67.197,73.213,67.081z M74.371,69.776h5.524v3.698h-5.524V69.776z M74.952,70.85h4.358v-0.52h-4.358V70.85z
			 M74.952,71.931h4.358v-0.612h-4.358V71.931z M79.31,72.4h-4.358v0.555h4.358V72.4z M80.225,68.507l-0.492-0.248
			c0.156-0.189,0.27-0.41,0.34-0.656H78.63l-0.235,0.508c0.18,0.243,0.507,0.488,0.989,0.738c0.481,0.25,1.097,0.399,1.847,0.448
			l-0.286,0.542c-1.24-0.131-2.185-0.542-2.829-1.233l-0.038,0.01c-0.53,0.575-1.316,0.932-2.362,1.074l-0.294-0.526
			c1.489-0.161,2.366-0.68,2.628-1.562h-1.165c-0.298,0.411-0.597,0.717-0.897,0.913l-0.479-0.35
			c0.59-0.329,1.079-0.936,1.467-1.824l0.45,0.208c-0.033,0.136-0.101,0.302-0.197,0.494h3.589
			C80.738,67.447,80.541,67.934,80.225,68.507z M77.739,74.05l0.339-0.492c1.014,0.068,2.062,0.37,3.145,0.905l-0.333,0.471
			C79.935,74.425,78.885,74.132,77.739,74.05z"/>
		<path d="M84.148,72.656l-0.557,0.47l-0.499-0.46c1.598-1.039,2.684-2.425,3.258-4.158H83.62v-0.584h3.511v-1.507h0.584v1.507
			h3.475v0.584h-2.649c0.503,1.682,1.569,3.042,3.195,4.081l-0.437,0.491c-0.799-0.564-1.474-1.19-2.023-1.88
			c-0.551-0.689-1.011-1.586-1.382-2.692h-0.179v3.478h1.875v0.558h-1.875v2.39h-0.584v-2.39H85.2v-0.558h1.931v-3.478l-0.178,0.009
			c-0.246,0.808-0.591,1.545-1.035,2.208C85.472,71.387,84.883,72.031,84.148,72.656z"/>
	</g>
	<g>
		<path d="M64.514,40.186H69.7v1.183h-5.186v3.902h5.895v1.149h-7.113V35.153h7.113v1.148h-5.895V40.186z"/>
		<path d="M82.033,35.153v11.268h-1.369l-6.742-9.494v9.494h-1.215V35.153h1.384l6.723,9.494v-9.494H82.033z"/>
		<path d="M92.642,36.183l-6.472,9.022h6.472v1.215h-8.024v-1.064l6.438-8.987h-6.27v-1.216h7.856V36.183z"/>
		<g>
			<path d="M59.733,40.778c0-3.194-1.282-4.63-4.139-4.63c-1.148,0-2.247,0.238-3.293,0.677v-1.167C53.382,35.22,54.531,35,55.73,35
				c3.461,0,5.22,1.943,5.22,5.778c0,3.836-1.759,5.778-5.22,5.778c-1.183,0-2.349-0.219-3.43-0.64V44.75
				c1.046,0.438,2.145,0.658,3.293,0.658C58.451,45.408,59.733,43.989,59.733,40.778z"/>
			<path d="M53.516,35.941v4.844h-1.215v-4.844H53.516z"/>
		</g>
	</g>
	<g>
		<path d="M72.64,62.113h-1.302l-1.351-3.513h-4.866l-1.352,3.513h-1.319l4.494-11.268h1.218L72.64,62.113z M69.532,57.435
			l-1.976-5.156l-1.979,5.156H69.532z"/>
		<path d="M82.505,54.325c0,2.246-1.386,3.481-3.904,3.481h-2.787v4.307h-1.218V50.846h4.004
			C81.119,50.846,82.505,52.079,82.505,54.325z M81.288,54.325c0-1.082-0.32-2.314-2.837-2.314h-2.636v4.629h2.636
			C80.967,56.64,81.288,55.406,81.288,54.325z"/>
		<path d="M85.832,50.846v11.268h-1.215V50.846H85.832z"/>
		<g>
			<path d="M57.657,61.1c1.15,0,2.246-0.221,3.293-0.659v1.167c-1.081,0.42-2.247,0.641-3.43,0.641
				c-3.462,0-5.219-1.942-5.219-5.778s1.757-5.779,5.219-5.779c1.2,0,2.349,0.22,3.43,0.66v1.167
				c-1.047-0.439-2.143-0.678-3.293-0.678c-2.855,0-4.141,1.437-4.141,4.631C53.516,59.681,54.801,61.1,57.657,61.1z"/>
			<path d="M60.95,51.635v4.845h-1.216v-4.845H60.95z"/>
		</g>
		<path d="M96.899,50.846v1.181h-3.972v10.087h-1.216V52.026h-3.988v-1.181H96.899z"/>
		<path d="M106.814,62.113h-1.301l-1.353-3.513h-4.866l-1.351,3.513h-1.317l4.492-11.268h1.219L106.814,62.113z M103.706,57.435
			l-1.976-5.156l-1.979,5.156H103.706z"/>
		<path d="M115.698,60.931v1.182h-6.978V50.846h1.217v10.085H115.698z"/>
	</g>
</g>
</svg>
