<?xml version="1.0" encoding="utf-8"?>
<!-- Generator: Adobe Illustrator 16.0.3, SVG Export Plug-In . SVG Version: 6.00 Build 0)  -->
<!DOCTYPE svg PUBLIC "-//W3C//DTD SVG 1.1//EN" "http://www.w3.org/Graphics/SVG/1.1/DTD/svg11.dtd">
<svg version="1.1" id="Layer_2" xmlns="http://www.w3.org/2000/svg" xmlns:xlink="http://www.w3.org/1999/xlink" x="0px" y="0px"
	 width="160px" height="110px" viewBox="0 0 160 110" enable-background="new 0 0 160 110" xml:space="preserve">
<g>
	<path fill-rule="evenodd" clip-rule="evenodd" d="M117.472,43.849h22.304v22.303h-22.304V43.849L117.472,43.849z M120.589,46.922
		v16.112h16.069V46.922H120.589L120.589,46.922z"/>
	<polygon fill-rule="evenodd" clip-rule="evenodd" points="122.478,60.708 130.512,48.854 134.859,48.766 126.561,60.708 
		122.478,60.708 	"/>
	<path fill-rule="evenodd" clip-rule="evenodd" d="M20.224,66.02v-9.044h3.863c1.229,0,2.151,0.483,2.854,1.448
		c0.571,0.835,0.879,1.845,0.879,3.074c0,1.184-0.308,2.239-0.967,3.116c-0.703,0.923-1.625,1.405-2.766,1.405H20.224L20.224,66.02z
		 M22.112,58.6v5.796h1.755c0.703,0,1.187-0.308,1.537-0.878c0.309-0.527,0.439-1.186,0.439-2.02c0-0.703-0.131-1.361-0.439-1.889
		c-0.351-0.702-0.878-1.01-1.537-1.01H22.112L22.112,58.6z M33.263,63.912h1.756c-0.131,0.746-0.525,1.273-1.141,1.713
		c-0.527,0.352-1.186,0.526-1.977,0.526c-0.922,0-1.668-0.352-2.238-1.009c-0.615-0.659-0.922-1.494-0.922-2.547
		c0-0.923,0.307-1.713,0.877-2.327c0.615-0.615,1.361-0.966,2.283-0.966c1.318,0,2.195,0.483,2.679,1.405
		c0.176,0.307,0.308,0.702,0.396,1.098c0.086,0.438,0.132,0.876,0.132,1.359h-4.567c0,0.353,0.132,0.659,0.352,0.966
		c0.309,0.353,0.615,0.527,1.01,0.527c0.309,0,0.615-0.088,0.835-0.175C33,64.351,33.175,64.176,33.263,63.912L33.263,63.912z
		 M30.541,62.024h2.723c0-0.307-0.132-0.614-0.395-0.835c-0.309-0.263-0.615-0.395-0.967-0.395s-0.658,0.132-0.922,0.395
		C30.672,61.41,30.541,61.718,30.541,62.024L30.541,62.024z M36.205,59.434h1.756v4.347c0,0.22,0.132,0.44,0.308,0.615
		c0.22,0.175,0.483,0.263,0.747,0.263c0.352,0,0.658-0.088,0.922-0.308c0.264-0.263,0.395-0.526,0.395-0.833v-4.084h1.713v6.586
		h-1.713v-0.834c-0.526,0.658-1.186,0.966-1.975,0.966c-0.571,0-1.055-0.175-1.449-0.438c-0.439-0.308-0.703-0.746-0.703-1.273
		V59.434L36.205,59.434z M45.512,57.547v1.887h1.011v1.23h-1.011v3.381c0,0.131,0.089,0.263,0.176,0.351
		c0.089,0.088,0.22,0.132,0.396,0.132c0.088,0,0.176,0,0.264,0c0.088-0.044,0.131-0.044,0.176-0.044v1.536
		c-0.22,0.044-0.439,0.088-0.571,0.088c-0.175,0.044-0.395,0.044-0.702,0.044c-0.438,0-0.746-0.132-1.055-0.438
		c-0.264-0.264-0.395-0.57-0.395-0.967v-4.082h-0.878v-1.23H43.8v-0.877L45.512,57.547L45.512,57.547z M47.269,63.78h1.756
		c0,0.308,0.088,0.57,0.352,0.747c0.22,0.176,0.525,0.264,0.879,0.264c0.307,0,0.57-0.045,0.744-0.133
		c0.221-0.088,0.352-0.308,0.352-0.57c0-0.351-0.307-0.614-1.009-0.79c-1.142-0.308-1.8-0.483-1.888-0.57
		c-0.702-0.307-1.054-0.746-1.054-1.362c0-0.613,0.263-1.097,0.746-1.492s1.142-0.57,1.933-0.57c0.789,0,1.403,0.175,1.932,0.526
		c0.57,0.396,0.877,0.923,0.877,1.669h-1.623c-0.045-0.264-0.177-0.483-0.396-0.615c-0.219-0.131-0.483-0.219-0.789-0.219
		c-0.264,0-0.483,0.088-0.66,0.176c-0.175,0.132-0.264,0.263-0.264,0.482c0,0.264,0.354,0.483,1.012,0.615
		c1.01,0.175,1.667,0.307,1.887,0.438c0.703,0.306,1.053,0.834,1.053,1.58c0,0.747-0.307,1.317-0.92,1.669
		c-0.528,0.352-1.143,0.526-1.932,0.526c-0.879,0-1.581-0.219-2.152-0.657C47.533,65.097,47.269,64.527,47.269,63.78L47.269,63.78z
		 M57.191,66.151c-0.922,0-1.668-0.352-2.283-1.009c-0.57-0.659-0.877-1.494-0.877-2.547c0-0.878,0.307-1.669,0.922-2.327
		c0.614-0.615,1.36-0.966,2.238-0.966c0.791,0,1.494,0.264,2.063,0.746c0.615,0.439,0.923,1.054,0.923,1.757h-1.756
		c0-0.308-0.133-0.527-0.352-0.703c-0.265-0.22-0.527-0.308-0.879-0.308c-0.438,0-0.746,0.177-1.01,0.527
		c-0.219,0.308-0.352,0.746-0.352,1.273c0,0.614,0.133,1.098,0.352,1.492c0.264,0.352,0.572,0.57,1.01,0.57
		c0.309,0,0.614-0.131,0.834-0.351c0.264-0.22,0.396-0.438,0.396-0.746h1.756c0,0.746-0.308,1.405-0.923,1.888
		C58.64,65.889,57.982,66.151,57.191,66.151L57.191,66.151z M61.319,56.976h1.757v3.161c0.219-0.308,0.525-0.527,0.877-0.659
		c0.352-0.087,0.746-0.175,1.142-0.175c0.57,0,1.097,0.175,1.536,0.526c0.44,0.308,0.659,0.79,0.659,1.317v4.873h-1.712v-4.127
		c0-0.352-0.133-0.614-0.309-0.79c-0.175-0.176-0.438-0.263-0.745-0.263c-0.352,0-0.702,0.087-1.011,0.307
		c-0.263,0.219-0.438,0.483-0.438,0.835v4.038h-1.757V56.976L61.319,56.976z M72.953,63.912h1.713
		c-0.132,0.746-0.526,1.273-1.141,1.713c-0.527,0.352-1.187,0.526-1.933,0.526c-0.922,0-1.669-0.352-2.283-1.009
		c-0.614-0.659-0.879-1.494-0.879-2.547c0-0.923,0.265-1.713,0.879-2.327c0.57-0.615,1.361-0.966,2.283-0.966
		c1.272,0,2.151,0.483,2.635,1.405c0.218,0.307,0.351,0.702,0.438,1.098c0.088,0.438,0.088,0.876,0.088,1.359h-4.566
		c0,0.353,0.132,0.659,0.395,0.966c0.265,0.353,0.615,0.527,1.011,0.527c0.307,0,0.569-0.088,0.835-0.175
		C72.645,64.351,72.822,64.176,72.953,63.912L72.953,63.912z M70.187,62.024h2.766c0-0.307-0.174-0.614-0.438-0.835
		c-0.263-0.263-0.57-0.395-0.922-0.395s-0.702,0.132-0.966,0.395C70.363,61.41,70.187,61.718,70.187,62.024L70.187,62.024z
		 M79.099,66.02v-9.044h4.611c0.658,0,1.229,0.219,1.668,0.702c0.482,0.482,0.746,1.055,0.746,1.756
		c0,0.396-0.088,0.747-0.264,1.099c-0.219,0.351-0.526,0.614-0.878,0.79c0.438,0.176,0.79,0.483,1.098,0.834
		c0.263,0.396,0.395,0.79,0.395,1.229c0,0.746-0.263,1.361-0.746,1.845c-0.483,0.527-1.009,0.79-1.712,0.79H79.099L79.099,66.02z
		 M80.943,58.6v1.933h2.24c0.307,0,0.57-0.089,0.789-0.264c0.221-0.177,0.309-0.396,0.309-0.659c0-0.307-0.088-0.526-0.309-0.746
		c-0.219-0.176-0.438-0.264-0.746-0.264H80.943L80.943,58.6z M80.943,62.156v2.239h2.371c0.352,0,0.615-0.088,0.879-0.351
		c0.22-0.221,0.352-0.483,0.352-0.791s-0.132-0.572-0.352-0.79c-0.264-0.22-0.527-0.308-0.879-0.308H80.943L80.943,62.156z
		 M89.548,61.41h-1.756c0-0.702,0.309-1.229,0.878-1.624c0.527-0.309,1.142-0.483,1.888-0.483c1.01,0,1.758,0.175,2.239,0.483
		c0.396,0.306,0.614,0.657,0.614,1.141v4.04c0,0.395,0.133,0.746,0.396,1.053h-1.8c-0.089-0.131-0.176-0.22-0.22-0.352
		c-0.045-0.088-0.088-0.219-0.132-0.395c-0.22,0.307-0.527,0.526-0.878,0.659c-0.309,0.131-0.703,0.219-1.186,0.219
		c-0.615,0-1.098-0.219-1.449-0.571c-0.396-0.395-0.614-0.877-0.614-1.404s0.176-1.011,0.483-1.361
		c0.306-0.351,0.746-0.57,1.316-0.658c1.01-0.175,1.492-0.264,1.537-0.264c0.525-0.132,0.79-0.307,0.79-0.482
		c0-0.264-0.089-0.483-0.308-0.57c-0.176-0.132-0.439-0.176-0.791-0.176c-0.307,0-0.525,0.088-0.746,0.176
		C89.636,60.972,89.548,61.146,89.548,61.41L89.548,61.41z M91.657,63.78v-1.009c-0.571,0.087-1.011,0.219-1.362,0.307
		c-0.658,0.176-0.965,0.483-0.965,0.878c0,0.308,0.044,0.483,0.219,0.614c0.176,0.133,0.396,0.176,0.703,0.176
		c0.307,0,0.615-0.088,0.878-0.263C91.392,64.351,91.568,64.088,91.657,63.78L91.657,63.78z M94.949,59.434h1.757v0.747
		c0.22-0.265,0.483-0.483,0.833-0.658c0.396-0.132,0.748-0.22,1.055-0.22c0.615,0,1.098,0.175,1.537,0.439
		c0.438,0.35,0.701,0.79,0.701,1.316v4.961h-1.755v-4.347c0-0.263-0.089-0.483-0.265-0.614c-0.219-0.176-0.438-0.219-0.701-0.219
		c-0.352,0-0.615,0.043-0.834,0.175c-0.221,0.175-0.396,0.351-0.571,0.658v4.347h-1.757V59.434L94.949,59.434z M102.238,56.976
		h1.756v4.83l2.02-2.372h2.107l-2.151,2.504l2.371,4.082h-2.063l-1.492-2.81l-0.791,0.835v1.975h-1.756V56.976L102.238,56.976z"/>
</g>
</svg>
