<?xml version="1.0" encoding="utf-8"?>
<!-- Generator: Adobe Illustrator 16.0.3, SVG Export Plug-In . SVG Version: 6.00 Build 0)  -->
<!DOCTYPE svg PUBLIC "-//W3C//DTD SVG 1.1//EN" "http://www.w3.org/Graphics/SVG/1.1/DTD/svg11.dtd">
<svg version="1.1" id="Layer_2" xmlns="http://www.w3.org/2000/svg" xmlns:xlink="http://www.w3.org/1999/xlink" x="0px" y="0px"
	 width="160px" height="110px" viewBox="0 0 160 110" enable-background="new 0 0 160 110" xml:space="preserve">
<g>
	<rect x="32.475" y="41.513" width="95.051" height="26.974"/>
	<g>
		<path fill="#FFFFFF" d="M88.471,49.2c-0.046,0.084-0.031,0.191-0.034,0.292c-0.02,0.377-0.011,0.78,0,1.16
			c0,0.317-0.017,0.64-0.017,0.958v2.643c0,0.215-0.035,1.472,0.066,1.545c0.146,0.029,0.357,0.007,0.508,0.007l0.645-0.004h0.491
			c0.039,0,0.032-0.183,0.032-0.228l0.021-1.955c0-0.072,0.023-0.129,0.094-0.138l0.395-0.008h0.664c0.107,0,0.263-0.026,0.347,0.02
			c0.118,0.054,0.306,0.355,0.394,0.463l1.113,1.366c0.094,0.118,0.254,0.371,0.374,0.449c0.083,0.061,0.388,0.03,0.511,0.03
			l1.645-0.019c0-0.053-0.256-0.363-0.303-0.424l-1.078-1.432c-0.1-0.123-0.299-0.35-0.344-0.487l0.121-0.092
			c0.258-0.185,0.523-0.379,0.733-0.636c0.196-0.232,0.355-0.488,0.445-0.774c0.257-0.87-0.044-1.922-0.786-2.384
			c-0.192-0.119-0.405-0.197-0.627-0.26c-0.156-0.04-0.68-0.146-0.832-0.074l-0.39-0.012l-0.2,0.012c-0.122,0-0.518-0.047-0.602,0
			c-0.109,0-0.303-0.047-0.406,0h-1.825h-0.457c-0.066-0.006-0.163-0.034-0.229,0C88.785,49.219,88.612,49.223,88.471,49.2z
			 M100.074,52.527c-0.217,0.081-0.418,0.134-0.593,0.303c-0.806,0.774,0.005,1.973,1.062,1.726
			c0.914-0.216,1.156-1.455,0.277-1.907C100.596,52.536,100.355,52.527,100.074,52.527z M66.256,49.235
			c-0.049,0.143-0.018,0.432-0.018,0.602v1.4l0.018,3.406c0,0,0.02,0,0.02,1.188c0,0.031,0.13,0.022,0.16,0.022h1.415
			c0,0,0-0.022,4.812-0.038c0.025,0,0-0.101,0-0.13l0.014-0.242l-0.014-1.062c-0.104-0.116-0.209-0.097-0.279-0.097h-0.684
			l-2.512-0.006l-0.7,0.006c-0.124,0-0.263,0.009-0.373-0.016c0-0.154-0.065-0.857,0.013-0.95c0.05-0.059,0.8-0.049,0.934-0.044
			c0,0,0-0.015,2.804-0.019c0.026,0,0.016-0.112,0.016-0.146v-1.305h-3.766l-0.031-0.13c-0.007-0.141-0.026-0.825,0.031-0.899
			c0.07-0.085,0.872-0.047,1.046-0.047c0,0,0-0.014,3.208-0.014c0.026,0,0.015-0.117,0.015-0.146c0,0-0.015,0-0.015-1.323
			c0-0.028-0.102-0.013-0.126-0.013h-1.26H66.256z M81.168,49.219c-0.026,0.438,0.014,0.871,0,1.316c-0.014,0.387,0,0.783,0,1.158
			v2.413c0,0.228-0.051,1.638,0.032,1.709c0,0.022,0.101,0.004,0.132,0.004l1.353-0.004c1.599,0,3.284,0.016,4.825-0.034
			c0,0-0.016,0-0.016-1.529c0-0.025-0.207-0.01-0.229,0h-0.327l-0.475-0.002c-0.092-0.004-0.233-0.036-0.327,0.002h-2.438
			c-0.121,0-0.615,0.024-0.681-0.025c-0.06-0.048-0.063-0.818-0.019-0.91l0.519-0.06h0.813h1.725c0.156,0,0.496,0.03,0.643-0.039
			c0.065-0.073,0.033-1.257,0.027-1.442h-2.003c-0.144,0-0.536-0.031-0.638,0.017h-0.229h-0.663c-0.063,0-0.149,0.003-0.187-0.045
			c-0.046-0.059-0.046-0.825-0.018-0.931l0.204-0.09c0.253-0.028,0.512,0.004,0.767-0.003c0.459-0.015,0.914,0.011,1.367,0.005
			c0,0,0-0.018,1.9-0.03c0.031,0,0.024-0.112,0.024-0.146c0,0-0.024,0-0.024-1.318c0-0.032-0.114-0.016-0.146-0.016h-1.271H81.168z
			 M78.416,49.219c-0.022,0.126-0.005,0.261-0.002,0.391l-0.006,0.438c0.006,0.178-0.009,0.371-0.009,0.554v1.353v0.59l-0.01,0.289
			c-0.251-0.121-0.365-0.309-0.501-0.463c-0.262-0.297-0.51-0.594-0.758-0.892l-1.491-1.769c-0.087-0.094-0.317-0.435-0.425-0.463
			c-0.151-0.044-0.353-0.012-0.516-0.012c0,0,0,0.013-1.092,0.013c-0.029,0-0.02,0.117-0.02,0.149v1.402c0,0,0.02,0,0.02,5.017
			c0,0.03,0.146,0.016,0.178,0.016h1.158c0.149,0,0.312,0.022,0.438-0.031l-0.016-0.212v-2.443c0-0.17-0.021-0.858,0.066-0.93
			c0-0.029,0.087,0.064,0.107,0.088l0.857,1l1.641,1.926l0.324,0.38c0.032,0.034,0.066,0.087,0.116,0.106
			c0.067,0.033,0.187,0.02,0.278,0.02h0.701c0.147,0,0.547,0.041,0.632-0.031c0.024,0,0.005-0.115,0.011-0.146
			c0.018-0.327-0.011-0.667-0.011-0.995l0.018-0.39c0,0-0.018,0-0.018-4.938c0-0.032-0.143-0.016-0.177-0.016H78.416z
			 M61.466,49.219l-0.263,0.028l-0.131,0.017l-0.113,0.02l-0.131,0.014c-0.082,0-0.181,0.014-0.245,0.051
			c-0.095,0-0.172,0.035-0.261,0.058c-0.247,0.062-0.487,0.154-0.72,0.261c-1.711,0.79-2.133,2.711-1.355,4.42
			c0.077,0.18,0.206,0.342,0.324,0.498c0.567,0.729,1.524,1.154,2.423,1.273c0.248,0.034,0.493,0.011,0.748,0.011l1.664-0.011
			c0.45,0,0.904,0.015,1.353-0.004c0.134-0.009,0.313,0.021,0.438-0.022c0-0.074-0.021-0.157-0.015-0.243l-0.006-2.492l-0.013-0.586
			l-0.831,0.007c-0.087,0.007-0.193-0.024-0.275,0.01c-0.096,0-0.476-0.024-0.531,0.011c-0.137,0.09,0.063,1.701-0.095,1.765
			c-0.093,0.034-0.237,0.016-0.353,0.016h-0.876h-0.899c-0.199,0-0.396,0.017-0.566-0.032c-0.824-0.224-1.186-0.959-1.146-1.826
			c0.013-0.283,0.054-0.54,0.161-0.776c0.247-0.542,0.774-0.82,1.375-0.863l0.913-0.004h1.643c0.181,0,1.429,0.021,1.47-0.032
			c0.063-0.074-0.007-1.322-0.007-1.536l-0.876-0.013h-1.939l-0.554-0.004C61.672,49.231,61.558,49.239,61.466,49.219z
			 M105.057,49.2c-0.085,0.111-0.047,0.586-0.047,0.768l-0.016,0.896c-0.031,0.995-0.02,2.073-0.034,3.063
			c-0.008,0.585-0.017,1.249,0.003,1.843l1.105-0.019c0.368-0.002,0.721,0.019,1.091,0.019h2.53c0.209,0,1.615,0.024,1.68-0.034
			c0.045-0.045,0.029-1.343,0.029-1.531l-1.059-0.016l-3.338-0.004c-0.154-0.082-0.133-1.104-0.133-1.266l0.03-0.884l0.03-2.835
			l-1.305,0.02L105.057,49.2z M100.115,49.005l-0.221,0.031c-0.076,0-0.168,0-0.232,0.034c-0.104,0-0.197,0.031-0.295,0.057
			c-0.34,0.096-0.662,0.203-0.967,0.377c-1.064,0.617-1.73,1.613-1.928,2.826c-0.066,0.451-0.037,0.945-0.037,1.4l-0.008,1.402
			c-0.006,0.199-0.025,0.394-0.006,0.586l1.26,0.081c0.096,0.004,0.34,0.03,0.461-0.03c0.043-0.074,0.027-0.219,0.027-0.312
			c-0.004-0.203,0.015-0.421,0.015-0.637l0.019-1.203c0-0.438-0.028-0.89,0.054-1.286c0.096-0.482,0.394-0.998,0.841-1.251
			c0.3-0.167,0.646-0.277,1.018-0.281c0.895-0.016,1.657,0.264,2.007,1.055c0.084,0.206,0.162,0.419,0.196,0.656
			c0.041,0.357,0.01,0.764,0.004,1.124v1.058l-0.01,0.669c0,0.124-0.036,0.309,0.01,0.421c0,0.045,0.125,0.034,0.162,0.034
			l1.586-0.016l0.012-0.325l0.017-0.406l0.015-1.484c0-0.336,0.027-0.693-0.006-1.028c-0.119-1.245-0.816-2.396-1.895-3.02
			c-0.152-0.086-0.302-0.177-0.459-0.239C101.24,49.102,100.737,49.005,100.115,49.005z M52.585,48.745l-0.177,0.031
			c-0.11,0-0.201,0.027-0.299,0.043c-0.286,0.062-0.547,0.145-0.805,0.265c-1.469,0.676-2.449,2.198-2.221,3.98
			c0.262,2.041,2.163,3.526,4.316,3.319c2.447-0.231,4.159-2.9,3.108-5.273c-0.519-1.174-1.593-2.078-2.866-2.301
			C53.305,48.747,52.955,48.745,52.585,48.745z M90.23,50.669h2.133c0.229,0,0.647-0.043,0.832,0.028
			c0.111,0.041,0.22,0.086,0.305,0.171c0.235,0.236,0.247,0.692,0.016,0.934c-0.072,0.076-0.162,0.128-0.258,0.159l-0.143,0.043
			c-0.071,0-0.141-0.005-0.196,0.014l-0.734-0.014l-0.404,0.009c-0.124-0.009-0.46-0.034-0.559,0.005c-0.295,0-0.664-0.057-0.962,0
			c0-0.016-0.056-0.076-0.061-0.145c-0.016-0.227-0.004-0.447-0.004-0.683C90.195,51.019,90.176,50.813,90.23,50.669z
			 M53.287,49.625c0.34,0.021,0.715,0.031,1.069,0.031c0.046,0-0.023,0.246-0.031,0.275l-0.182,0.733L53.9,51.561
			c-0.044,0.189-0.079,0.365-0.145,0.54l-0.176,0.017h-0.719c-0.114,0-0.287-0.024-0.381,0.019
			c-0.099,0.046-0.104,0.204-0.078,0.305c0.021,0.069,0.078,0.121,0.151,0.139c0.17,0.038,0.386,0.013,0.567,0.013l1.255,0.03
			c-0.021,0.12-0.091,0.21-0.137,0.313l-0.237,0.484l-0.205,0.434l-0.412,0.83c-0.204,0.418-0.445,0.821-0.621,1.245l-0.085-0.86
			c-0.344,0-0.882,0.079-1.079-0.189c-0.323-0.432-0.037-1.074,0.085-1.525l0.697-2.609c0.062-0.244,0.135-0.707,0.29-0.885
			c0.109-0.125,0.258-0.193,0.416-0.214L53.287,49.625z"/>
	</g>
	<g>
		<g>
			<path fill="#FFFFFF" d="M54.518,58.941c0.409,0,0.65,0.142,0.65,0.306c0,0.082-0.068,0.168-0.164,0.168
				c-0.154,0-0.214-0.127-0.486-0.127c-0.496,0-0.691,0.482-0.691,0.892s0.195,0.892,0.691,0.892c0.281,0,0.354-0.137,0.482-0.137
				c0.091,0,0.154,0.06,0.154,0.169c0,0.149-0.223,0.313-0.637,0.313c-0.737,0-1.092-0.597-1.092-1.237
				C53.426,59.538,53.78,58.941,54.518,58.941z"/>
			<path fill="#FFFFFF" d="M57.553,61.221c0,0.141-0.109,0.195-0.188,0.195c-0.082,0-0.187-0.055-0.187-0.195v-0.168H57.17
				c-0.173,0.245-0.4,0.363-0.66,0.363c-0.682,0-1.064-0.597-1.064-1.237c0-0.642,0.383-1.238,1.064-1.238
				c0.277,0,0.474,0.118,0.66,0.323h0.009v-0.127c0-0.141,0.104-0.196,0.187-0.196c0.078,0,0.188,0.056,0.188,0.196V61.221z
				 M56.51,61.071c0.492,0,0.664-0.482,0.664-0.892s-0.172-0.892-0.664-0.892c-0.491,0-0.664,0.482-0.664,0.892
				S56.019,61.071,56.51,61.071z"/>
			<path fill="#FFFFFF" d="M58.08,59.155c0-0.132,0.077-0.214,0.199-0.214c0.124,0,0.201,0.082,0.201,0.214v0.205h0.009
				c0.091-0.187,0.313-0.419,0.546-0.419c0.142,0,0.223,0.091,0.223,0.205s-0.081,0.187-0.25,0.218
				c-0.236,0.042-0.527,0.219-0.527,0.688v1.152c0,0.131-0.077,0.213-0.201,0.213c-0.122,0-0.199-0.082-0.199-0.213V59.155z"/>
			<path fill="#FFFFFF" d="M59.768,60.333c0,0.415,0.264,0.737,0.715,0.737c0.532,0,0.669-0.328,0.819-0.328
				c0.072,0,0.146,0.064,0.146,0.178c0,0.195-0.496,0.496-0.97,0.496c-0.773,0-1.109-0.597-1.109-1.237
				c0-0.655,0.409-1.238,1.087-1.238c0.66,0,1.042,0.597,1.042,1.179c0,0.142-0.05,0.214-0.224,0.214H59.768z M61.097,60.034
				c0-0.346-0.2-0.746-0.642-0.746c-0.496-0.02-0.674,0.377-0.688,0.746H61.097z"/>
			<path fill="#FFFFFF" d="M61.947,60.342c-0.096,0-0.173-0.076-0.173-0.173c0-0.095,0.077-0.173,0.173-0.173h0.938
				c0.096,0,0.173,0.078,0.173,0.173c0,0.097-0.077,0.173-0.173,0.173H61.947z"/>
			<path fill="#FFFFFF" d="M64.468,58.941c0.409,0,0.65,0.142,0.65,0.306c0,0.082-0.067,0.168-0.163,0.168
				c-0.154,0-0.214-0.127-0.487-0.127c-0.496,0-0.691,0.482-0.691,0.892s0.195,0.892,0.691,0.892c0.282,0,0.355-0.137,0.482-0.137
				c0.091,0,0.155,0.06,0.155,0.169c0,0.149-0.224,0.313-0.638,0.313c-0.737,0-1.092-0.597-1.092-1.237
				C63.376,59.538,63.73,58.941,64.468,58.941z"/>
			<path fill="#FFFFFF" d="M66.461,58.941c0.684,0,1.064,0.597,1.064,1.238c0,0.641-0.381,1.237-1.064,1.237
				c-0.683,0-1.064-0.597-1.064-1.237C65.396,59.538,65.778,58.941,66.461,58.941z M66.461,61.071c0.491,0,0.664-0.482,0.664-0.892
				s-0.173-0.892-0.664-0.892s-0.664,0.482-0.664,0.892S65.97,61.071,66.461,61.071z"/>
			<path fill="#FFFFFF" d="M67.949,59.155c0-0.132,0.077-0.214,0.199-0.214c0.123,0,0.201,0.082,0.201,0.214v0.096l0.009,0.01
				c0.177-0.229,0.428-0.319,0.669-0.319c0.373,0,0.842,0.237,0.842,0.92v1.343c0,0.131-0.077,0.213-0.2,0.213s-0.2-0.082-0.2-0.213
				v-1.32c0-0.424-0.297-0.596-0.561-0.596s-0.559,0.172-0.559,0.596v1.32c0,0.131-0.078,0.213-0.201,0.213
				c-0.122,0-0.199-0.082-0.199-0.213V59.155z"/>
			<path fill="#FFFFFF" d="M71.98,61.084h-0.01c-0.113,0.219-0.327,0.332-0.646,0.332c-0.654,0-1.032-0.597-1.032-1.237
				c0-0.642,0.378-1.238,1.032-1.238c0.319,0,0.542,0.178,0.646,0.327h0.01V58.09c0-0.132,0.077-0.214,0.199-0.214
				c0.123,0,0.201,0.082,0.201,0.214v3.113c0,0.131-0.078,0.213-0.201,0.213c-0.122,0-0.199-0.082-0.199-0.213V61.084z
				 M71.357,59.288c-0.492,0-0.665,0.482-0.665,0.892s0.173,0.892,0.665,0.892c0.491,0,0.664-0.482,0.664-0.892
				S71.849,59.288,71.357,59.288z"/>
			<path fill="#FFFFFF" d="M73.127,58.123c0.136,0,0.246,0.108,0.246,0.245s-0.11,0.246-0.246,0.246
				c-0.137,0-0.246-0.109-0.246-0.246S72.99,58.123,73.127,58.123z M73.327,61.204c0,0.131-0.077,0.213-0.2,0.213
				s-0.2-0.082-0.2-0.213v-2.049c0-0.132,0.077-0.214,0.2-0.214s0.2,0.082,0.2,0.214V61.204z"/>
			<path fill="#FFFFFF" d="M73.982,58.446c0-0.133,0.077-0.215,0.2-0.215c0.122,0,0.2,0.082,0.2,0.215v0.522h0.164
				c0.132,0,0.199,0.063,0.199,0.173s-0.067,0.173-0.199,0.173h-0.164v1.89c0,0.131-0.078,0.213-0.2,0.213
				c-0.123,0-0.2-0.082-0.2-0.213v-1.89h-0.164c-0.132,0-0.2-0.063-0.2-0.173s0.068-0.173,0.2-0.173h0.164V58.446z"/>
			<path fill="#FFFFFF" d="M75.238,58.123c0.137,0,0.245,0.108,0.245,0.245s-0.108,0.246-0.245,0.246s-0.246-0.109-0.246-0.246
				S75.102,58.123,75.238,58.123z M75.438,61.204c0,0.131-0.078,0.213-0.2,0.213c-0.123,0-0.2-0.082-0.2-0.213v-2.049
				c0-0.132,0.077-0.214,0.2-0.214c0.122,0,0.2,0.082,0.2,0.214V61.204z"/>
			<path fill="#FFFFFF" d="M76.926,58.941c0.684,0,1.064,0.597,1.064,1.238c0,0.641-0.381,1.237-1.064,1.237
				c-0.682,0-1.064-0.597-1.064-1.237C75.861,59.538,76.244,58.941,76.926,58.941z M76.926,61.071c0.492,0,0.665-0.482,0.665-0.892
				s-0.173-0.892-0.665-0.892c-0.491,0-0.664,0.482-0.664,0.892S76.435,61.071,76.926,61.071z"/>
			<path fill="#FFFFFF" d="M78.414,59.155c0-0.132,0.077-0.214,0.199-0.214c0.124,0,0.201,0.082,0.201,0.214v0.096l0.009,0.01
				c0.178-0.229,0.428-0.319,0.669-0.319c0.373,0,0.842,0.237,0.842,0.92v1.343c0,0.131-0.077,0.213-0.199,0.213
				c-0.124,0-0.201-0.082-0.201-0.213v-1.32c0-0.424-0.296-0.596-0.56-0.596c-0.265,0-0.56,0.172-0.56,0.596v1.32
				c0,0.131-0.077,0.213-0.201,0.213c-0.122,0-0.199-0.082-0.199-0.213V59.155z"/>
			<path fill="#FFFFFF" d="M81.062,58.123c0.136,0,0.245,0.108,0.245,0.245s-0.109,0.246-0.245,0.246
				c-0.137,0-0.246-0.109-0.246-0.246S80.926,58.123,81.062,58.123z M81.262,61.204c0,0.131-0.077,0.213-0.199,0.213
				c-0.123,0-0.201-0.082-0.201-0.213v-2.049c0-0.132,0.078-0.214,0.201-0.214c0.122,0,0.199,0.082,0.199,0.214V61.204z"/>
			<path fill="#FFFFFF" d="M81.79,59.155c0-0.132,0.077-0.214,0.2-0.214s0.2,0.082,0.2,0.214v0.096l0.009,0.01
				c0.178-0.229,0.428-0.319,0.669-0.319c0.373,0,0.842,0.237,0.842,0.92v1.343c0,0.131-0.077,0.213-0.2,0.213s-0.2-0.082-0.2-0.213
				v-1.32c0-0.424-0.296-0.596-0.56-0.596s-0.56,0.172-0.56,0.596v1.32c0,0.131-0.077,0.213-0.2,0.213s-0.2-0.082-0.2-0.213V59.155z
				"/>
			<path fill="#FFFFFF" d="M86.222,61.217c0,0.718-0.437,1.154-1.092,1.154c-0.414,0-0.929-0.236-0.929-0.44
				c0-0.082,0.041-0.187,0.169-0.187c0.182,0,0.358,0.281,0.792,0.281c0.51,0,0.659-0.4,0.659-0.746v-0.209h-0.009
				c-0.123,0.209-0.341,0.346-0.615,0.346c-0.682,0-1.064-0.597-1.064-1.237c0-0.642,0.383-1.238,1.064-1.238
				c0.26,0,0.51,0.16,0.615,0.306h0.009v-0.109c0-0.141,0.104-0.196,0.214-0.196c0.077,0,0.187,0.056,0.187,0.196V61.217z
				 M85.197,61.071c0.492,0,0.665-0.482,0.665-0.892s-0.173-0.892-0.665-0.892c-0.49,0-0.663,0.482-0.663,0.892
				S84.707,61.071,85.197,61.071z"/>
		</g>
		<g>
			<g>
				<path fill="#FFFFFF" d="M88.783,59.03v0.848h0.196c0.066,0,0.101,0.041,0.101,0.121c0,0.039-0.011,0.071-0.033,0.1
					c-0.021,0.026-0.062,0.039-0.123,0.037c-0.062-0.003-0.108-0.004-0.141-0.004l-0.004,0.858c0.016-0.005,0.057-0.021,0.121-0.05
					c0.066-0.028,0.119-0.043,0.159-0.043c0.038,0,0.067,0.013,0.087,0.038c0.016-0.064,0.044-0.099,0.087-0.106
					c0.276-0.094,0.527-0.238,0.749-0.432c0.223-0.192,0.4-0.421,0.532-0.684c0.021-0.035,0.052-0.051,0.095-0.051
					c0.034,0,0.065,0.012,0.092,0.034c0.027,0.022,0.04,0.051,0.04,0.085c0,0.062-0.087,0.214-0.263,0.453
					c-0.174,0.239-0.397,0.441-0.668,0.606c-0.271,0.165-0.445,0.247-0.522,0.247c-0.042,0-0.077-0.015-0.104-0.043
					c-0.015,0.054-0.068,0.098-0.161,0.134l-0.837,0.333c-0.017,0.005-0.031,0.008-0.046,0.008c-0.078,0-0.116-0.051-0.116-0.149
					c0-0.052,0.018-0.087,0.052-0.106s0.182-0.081,0.443-0.184v-0.942l-0.286,0.004c-0.065,0-0.099-0.044-0.099-0.131
					c0-0.091,0.036-0.137,0.107-0.137l0.277,0.003V59.03l-0.395-0.004c-0.067,0-0.101-0.045-0.101-0.133
					c0-0.087,0.033-0.131,0.101-0.129l1.019,0.008c0.077,0,0.116,0.041,0.116,0.123c0,0.09-0.041,0.135-0.123,0.135H88.783z
					 M90.032,58.723c-0.336,0.426-0.58,0.69-0.731,0.795c-0.151,0.103-0.254,0.154-0.307,0.154c-0.034,0-0.061-0.012-0.083-0.035
					c-0.022-0.024-0.033-0.053-0.033-0.086c0-0.049,0.022-0.086,0.069-0.11c0.286-0.183,0.588-0.493,0.907-0.931
					c0.036-0.053,0.09-0.08,0.16-0.08c0.074,0,0.134,0.031,0.179,0.093c0.322,0.405,0.704,0.735,1.145,0.987
					c0.031,0.014,0.048,0.042,0.048,0.084c0,0.095-0.044,0.143-0.13,0.143c-0.085,0-0.262-0.108-0.528-0.324
					C90.459,59.196,90.228,58.966,90.032,58.723z M90.247,59.308c0,0.011-0.001,0.022-0.004,0.034
					c-0.006,0.032-0.06,0.117-0.162,0.254c-0.084,0.111-0.177,0.217-0.278,0.317c-0.101,0.1-0.209,0.19-0.322,0.27
					c-0.193,0.138-0.311,0.207-0.352,0.207c-0.035,0-0.068-0.015-0.098-0.042c-0.029-0.029-0.045-0.059-0.045-0.091
					c0-0.048,0.02-0.084,0.06-0.107c0.37-0.185,0.687-0.481,0.951-0.894c0.028-0.045,0.07-0.066,0.124-0.066
					C90.205,59.19,90.247,59.229,90.247,59.308z M89.178,61.545l0.004,0.004c0.372-0.027,0.699-0.133,0.983-0.319
					c0.282-0.187,0.49-0.429,0.621-0.729l0.164-0.377c0.019-0.031,0.052-0.048,0.102-0.048c0.089,0,0.134,0.038,0.134,0.112
					c0,0.055-0.055,0.197-0.166,0.429c-0.111,0.232-0.287,0.46-0.526,0.685s-0.474,0.365-0.702,0.424s-0.424,0.088-0.584,0.088
					c-0.078,0-0.119-0.045-0.119-0.136C89.088,61.589,89.117,61.545,89.178,61.545z"/>
				<path fill="#FFFFFF" d="M89.207,61.829c-0.061,0-0.135-0.025-0.135-0.151c0-0.122,0.057-0.147,0.105-0.147h0.006l0.004,0.003
					c0.364-0.027,0.69-0.134,0.969-0.315c0.279-0.185,0.486-0.428,0.615-0.723l0.164-0.377c0.016-0.027,0.047-0.058,0.116-0.058
					c0.124,0,0.149,0.069,0.149,0.128c0,0.057-0.055,0.199-0.168,0.436c-0.111,0.232-0.289,0.465-0.529,0.689
					c-0.239,0.225-0.479,0.369-0.709,0.428S89.367,61.829,89.207,61.829z M89.171,61.562c-0.03,0.001-0.066,0.019-0.066,0.115
					c0,0.082,0.032,0.12,0.103,0.12c0.158,0,0.354-0.029,0.58-0.088c0.226-0.058,0.46-0.198,0.695-0.42
					c0.236-0.221,0.412-0.45,0.521-0.68c0.137-0.285,0.166-0.387,0.166-0.422c0-0.041-0.013-0.096-0.118-0.096
					c-0.043,0-0.072,0.013-0.089,0.039l-0.162,0.376c-0.131,0.3-0.342,0.548-0.628,0.736c-0.283,0.187-0.617,0.295-0.991,0.321
					h-0.007L89.171,61.562z M88.141,61.536c-0.061,0-0.132-0.028-0.132-0.165c0-0.058,0.02-0.098,0.06-0.12
					c0.034-0.02,0.168-0.075,0.435-0.18v-0.916l-0.27,0.003c-0.052,0-0.114-0.024-0.114-0.146c0-0.126,0.066-0.153,0.123-0.153
					l0.261,0.004v-0.816l-0.378-0.003c-0.053,0-0.116-0.026-0.116-0.149c0-0.119,0.062-0.145,0.112-0.145l1.022,0.008
					c0.086,0,0.132,0.047,0.132,0.139c0,0.125-0.076,0.15-0.139,0.15h-0.338v0.816h0.181c0.053,0,0.115,0.024,0.115,0.137
					c0,0.043-0.011,0.078-0.035,0.109c-0.022,0.028-0.063,0.043-0.124,0.043c-0.004,0-0.008,0-0.013,0
					c-0.052-0.002-0.093-0.004-0.124-0.004l-0.004,0.82c0.021-0.008,0.053-0.021,0.1-0.042c0.121-0.052,0.195-0.058,0.244-0.021
					c0.018-0.055,0.049-0.085,0.092-0.092c0.271-0.093,0.522-0.236,0.742-0.428c0.219-0.189,0.397-0.418,0.527-0.679
					c0.023-0.04,0.061-0.061,0.109-0.061c0.037,0,0.072,0.013,0.102,0.038c0.031,0.027,0.047,0.06,0.047,0.098
					c0,0.066-0.088,0.218-0.266,0.463c-0.175,0.238-0.401,0.444-0.673,0.609c-0.276,0.168-0.45,0.25-0.531,0.25
					c-0.038,0-0.071-0.01-0.097-0.031c-0.023,0.049-0.077,0.088-0.162,0.121l-0.837,0.334
					C88.173,61.534,88.156,61.536,88.141,61.536z M88.535,60.122v0.971l-0.01,0.003c-0.269,0.105-0.408,0.163-0.44,0.183
					c-0.03,0.017-0.045,0.047-0.045,0.093c0,0.12,0.058,0.134,0.101,0.134c0.012,0,0.027-0.002,0.042-0.006l0.835-0.334
					c0.088-0.034,0.139-0.076,0.152-0.123l0.008-0.027l0.02,0.021c0.021,0.024,0.053,0.037,0.091,0.037
					c0.075,0,0.247-0.082,0.515-0.244c0.268-0.163,0.492-0.366,0.663-0.602c0.215-0.294,0.26-0.403,0.26-0.444
					c0-0.029-0.011-0.053-0.034-0.073c-0.025-0.021-0.052-0.031-0.082-0.031c-0.038,0-0.063,0.015-0.081,0.045
					c-0.133,0.263-0.312,0.495-0.536,0.688c-0.222,0.192-0.476,0.339-0.754,0.435c-0.039,0.006-0.062,0.036-0.075,0.094
					l-0.007,0.032l-0.021-0.026c-0.037-0.045-0.104-0.043-0.228,0.011c-0.06,0.026-0.104,0.046-0.123,0.051l-0.021,0.007V60.99
					l0.004-0.874h0.016c0.032,0,0.08,0.001,0.141,0.004c0.058,0,0.094-0.009,0.111-0.032c0.019-0.024,0.029-0.054,0.029-0.089
					c0-0.094-0.049-0.105-0.085-0.105h-0.212v-0.879h0.369c0.073,0,0.107-0.038,0.107-0.119c0-0.074-0.032-0.108-0.101-0.108
					l-1.019-0.007h-0.001c-0.038,0-0.084,0.012-0.084,0.113c0,0.105,0.048,0.117,0.085,0.117l0.41,0.004v0.879l-0.293-0.004
					c-0.039,0-0.092,0.014-0.092,0.122c0,0.104,0.048,0.115,0.083,0.115L88.535,60.122z M89.129,60.406
					c-0.039,0-0.076-0.016-0.108-0.047c-0.033-0.032-0.05-0.065-0.05-0.102c0-0.054,0.023-0.095,0.066-0.122
					c0.367-0.182,0.685-0.479,0.947-0.887c0.03-0.05,0.077-0.075,0.137-0.075c0.093,0,0.142,0.046,0.142,0.135
					c0,0.012-0.001,0.023-0.003,0.037c-0.005,0.022-0.026,0.073-0.166,0.261c-0.082,0.109-0.176,0.217-0.279,0.318
					s-0.212,0.192-0.324,0.271C89.226,60.384,89.158,60.406,89.129,60.406z M90.121,59.206c-0.049,0-0.085,0.02-0.111,0.061
					c-0.265,0.412-0.587,0.715-0.957,0.897c-0.034,0.021-0.051,0.052-0.051,0.094c0,0.027,0.014,0.052,0.041,0.079
					c0.027,0.025,0.055,0.037,0.086,0.037c0.021,0,0.094-0.025,0.344-0.203c0.11-0.078,0.219-0.168,0.319-0.268
					c0.103-0.102,0.196-0.208,0.276-0.316c0.125-0.168,0.156-0.227,0.16-0.246c0.002-0.012,0.002-0.022,0.002-0.032
					C90.23,59.238,90.196,59.206,90.121,59.206z M91.256,59.752c-0.09,0-0.266-0.107-0.539-0.328
					c-0.262-0.211-0.492-0.439-0.685-0.676c-0.335,0.422-0.57,0.678-0.723,0.781c-0.155,0.107-0.259,0.158-0.315,0.158
					c-0.037,0-0.07-0.014-0.095-0.04c-0.025-0.028-0.038-0.06-0.038-0.097c0-0.055,0.027-0.098,0.078-0.125
					c0.282-0.18,0.586-0.491,0.902-0.925c0.039-0.058,0.098-0.087,0.173-0.087c0.079,0,0.144,0.033,0.191,0.1
					c0.319,0.402,0.704,0.733,1.14,0.982c0.025,0.011,0.057,0.038,0.057,0.098C91.402,59.698,91.352,59.752,91.256,59.752z
					 M90.032,58.698l0.013,0.016c0.193,0.241,0.426,0.471,0.691,0.687c0.264,0.213,0.438,0.321,0.52,0.321
					c0.077,0,0.114-0.04,0.114-0.127c0-0.035-0.013-0.058-0.039-0.069c-0.44-0.253-0.827-0.586-1.149-0.992
					c-0.044-0.058-0.098-0.087-0.167-0.087c-0.065,0-0.113,0.024-0.147,0.074c-0.318,0.437-0.625,0.751-0.911,0.934
					c-0.042,0.023-0.062,0.055-0.062,0.098c0,0.029,0.01,0.055,0.029,0.075c0.019,0.021,0.042,0.03,0.071,0.03
					c0.049,0,0.15-0.051,0.298-0.152c0.148-0.103,0.394-0.368,0.728-0.791L90.032,58.698z"/>
			</g>
			<g>
				<path fill="#FFFFFF" d="M92.02,61.428c-0.088,0-0.131-0.046-0.131-0.135c0-0.021,0.004-0.041,0.012-0.059
					c0.096-0.223,0.172-0.489,0.226-0.801c0.055-0.312,0.081-0.744,0.081-1.297c0-0.065,0.039-0.099,0.118-0.099
					c0.096,0,0.144,0.063,0.144,0.191c0,0.242-0.012,0.515-0.035,0.813c-0.023,0.301-0.07,0.586-0.14,0.857
					s-0.123,0.428-0.159,0.467C92.098,61.407,92.059,61.428,92.02,61.428z M92.85,58.946c0-0.025,0.013-0.055,0.039-0.086
					c0.025-0.03,0.056-0.045,0.09-0.045c0.09,0,0.136,0.05,0.136,0.152v2.278c0,0.054,0.033,0.103,0.1,0.147
					c0.065,0.046,0.229,0.068,0.487,0.068c0.217,0,0.365-0.018,0.447-0.053c0.08-0.035,0.141-0.127,0.182-0.274
					c0.04-0.147,0.064-0.298,0.071-0.451c0.003-0.07,0.048-0.105,0.132-0.105c0.019,0,0.043,0.013,0.074,0.04
					c0.03,0.027,0.046,0.059,0.046,0.094c0,0.078-0.015,0.196-0.044,0.355c-0.029,0.16-0.072,0.287-0.13,0.383
					c-0.057,0.096-0.136,0.162-0.237,0.2c-0.101,0.037-0.294,0.056-0.579,0.056c-0.235,0-0.392-0.01-0.469-0.031
					c-0.079-0.022-0.155-0.069-0.23-0.143c-0.076-0.073-0.114-0.205-0.114-0.396V58.946z M94.063,60.606
					c0,0.051-0.011,0.091-0.034,0.124c-0.021,0.031-0.049,0.048-0.081,0.048c-0.033,0-0.062-0.011-0.088-0.031
					c-0.025-0.021-0.042-0.071-0.05-0.15c-0.059-0.509-0.129-0.921-0.212-1.238L93.4,58.624c0-0.029,0.016-0.055,0.046-0.079
					c0.03-0.023,0.065-0.035,0.104-0.035c0.027,0,0.054,0.009,0.079,0.027s0.074,0.157,0.145,0.419
					c0.071,0.26,0.137,0.574,0.199,0.94C94.033,60.262,94.063,60.499,94.063,60.606z M94.595,58.949c0.029,0,0.061,0.013,0.095,0.04
					c0.033,0.025,0.1,0.189,0.199,0.488c0.102,0.299,0.179,0.605,0.233,0.918c0.054,0.312,0.081,0.581,0.081,0.805
					c0,0.117-0.047,0.176-0.139,0.176c-0.084,0-0.125-0.062-0.125-0.188c0-0.303-0.041-0.637-0.121-1.005
					c-0.081-0.368-0.191-0.718-0.333-1.05c-0.01-0.022-0.015-0.044-0.015-0.063c0-0.035,0.013-0.063,0.037-0.087
					C94.531,58.959,94.561,58.949,94.595,58.949z"/>
				<path fill="#FFFFFF" d="M93.663,61.721c-0.239,0-0.394-0.011-0.474-0.032c-0.081-0.022-0.16-0.071-0.236-0.146
					c-0.079-0.076-0.119-0.213-0.119-0.407v-2.19c0-0.03,0.014-0.061,0.042-0.096c0.028-0.034,0.063-0.052,0.103-0.052
					c0.069,0,0.152,0.029,0.152,0.169v2.278c0,0.048,0.03,0.094,0.092,0.135c0.062,0.043,0.225,0.065,0.479,0.065
					c0.215,0,0.362-0.018,0.44-0.052c0.075-0.033,0.134-0.122,0.173-0.265c0.041-0.146,0.064-0.297,0.07-0.447
					c0.004-0.055,0.031-0.121,0.148-0.121c0.022,0,0.049,0.015,0.084,0.045c0.034,0.03,0.052,0.065,0.052,0.105
					c0,0.078-0.015,0.195-0.044,0.358c-0.029,0.16-0.073,0.29-0.131,0.388c-0.059,0.099-0.142,0.168-0.246,0.207
					C94.145,61.704,93.953,61.721,93.663,61.721z M92.979,58.831c-0.029,0-0.055,0.014-0.078,0.04
					c-0.023,0.028-0.034,0.054-0.034,0.075v2.19c0,0.186,0.036,0.315,0.108,0.384c0.073,0.071,0.148,0.117,0.224,0.139
					c0.075,0.021,0.231,0.031,0.465,0.031c0.282,0,0.476-0.019,0.574-0.055c0.097-0.037,0.175-0.102,0.229-0.193
					c0.055-0.095,0.099-0.221,0.127-0.378c0.029-0.158,0.043-0.276,0.043-0.353c0-0.031-0.013-0.058-0.041-0.081
					c-0.034-0.03-0.053-0.037-0.062-0.037c-0.1,0-0.113,0.052-0.116,0.091c-0.007,0.152-0.031,0.305-0.072,0.455
					s-0.105,0.247-0.19,0.283c-0.084,0.037-0.231,0.055-0.453,0.055c-0.265,0-0.428-0.023-0.496-0.07
					c-0.07-0.048-0.106-0.102-0.106-0.161v-2.278C93.099,58.874,93.061,58.831,92.979,58.831z M92.02,61.444
					c-0.096,0-0.147-0.053-0.147-0.15c0-0.023,0.005-0.045,0.014-0.064c0.097-0.223,0.172-0.491,0.226-0.798
					c0.053-0.31,0.081-0.745,0.081-1.294c0-0.053,0.022-0.114,0.133-0.114c0.105,0,0.159,0.069,0.159,0.207
					c0,0.243-0.012,0.517-0.035,0.815s-0.07,0.588-0.139,0.859c-0.096,0.369-0.14,0.447-0.164,0.474
					C92.105,61.421,92.063,61.444,92.02,61.444z M92.325,59.055c-0.091,0-0.103,0.047-0.103,0.082c0,0.551-0.027,0.988-0.081,1.3
					c-0.054,0.309-0.13,0.579-0.227,0.804c-0.008,0.017-0.011,0.034-0.011,0.053c0,0.081,0.037,0.118,0.115,0.118
					c0.035,0,0.069-0.019,0.104-0.055c0.035-0.037,0.087-0.192,0.156-0.461c0.068-0.27,0.115-0.557,0.139-0.854
					c0.022-0.296,0.034-0.57,0.034-0.812C92.452,59.073,92.38,59.055,92.325,59.055z M95.064,61.391
					c-0.094,0-0.142-0.068-0.142-0.203c0-0.301-0.04-0.638-0.12-1.002s-0.191-0.717-0.332-1.046c-0.01-0.024-0.016-0.048-0.016-0.07
					c0-0.039,0.014-0.073,0.041-0.099c0.052-0.05,0.129-0.057,0.203,0.004c0.022,0.02,0.068,0.091,0.205,0.497
					c0.101,0.298,0.179,0.607,0.232,0.92c0.055,0.312,0.082,0.585,0.082,0.808C95.219,61.358,95.135,61.391,95.064,61.391z
					 M94.595,58.963c-0.03,0-0.056,0.01-0.076,0.031c-0.021,0.02-0.032,0.044-0.032,0.075c0,0.018,0.005,0.038,0.014,0.058
					c0.141,0.332,0.254,0.686,0.334,1.053c0.08,0.365,0.12,0.705,0.12,1.008c0,0.172,0.083,0.172,0.11,0.172
					c0.082,0,0.123-0.053,0.123-0.16c0-0.221-0.027-0.491-0.081-0.803c-0.054-0.311-0.132-0.618-0.231-0.914
					C94.752,59.115,94.7,59.018,94.679,59C94.649,58.977,94.621,58.963,94.595,58.963z M93.948,60.793
					c-0.037,0-0.069-0.012-0.098-0.035s-0.047-0.074-0.056-0.161c-0.059-0.505-0.13-0.921-0.213-1.235l-0.198-0.738
					c0-0.033,0.018-0.064,0.053-0.092c0.034-0.025,0.071-0.039,0.113-0.039c0.032,0,0.062,0.011,0.089,0.031
					c0.02,0.015,0.055,0.076,0.15,0.427c0.07,0.26,0.138,0.577,0.198,0.942c0.062,0.365,0.093,0.605,0.093,0.713
					c0,0.055-0.012,0.098-0.037,0.133C94.017,60.775,93.985,60.793,93.948,60.793z M93.416,58.622l0.197,0.732
					c0.083,0.315,0.154,0.732,0.213,1.24c0.008,0.074,0.023,0.123,0.045,0.141c0.021,0.019,0.047,0.027,0.077,0.027
					c0.026,0,0.049-0.014,0.068-0.042c0.021-0.03,0.032-0.066,0.032-0.114c0-0.105-0.031-0.344-0.092-0.707
					c-0.062-0.365-0.129-0.682-0.199-0.939c-0.094-0.349-0.128-0.402-0.138-0.41c-0.022-0.017-0.046-0.024-0.07-0.024
					c-0.034,0-0.066,0.011-0.094,0.032C93.43,58.578,93.417,58.598,93.416,58.622z"/>
			</g>
			<g>
				<path fill="#FFFFFF" d="M96.055,60.504v1.225c0,0.059-0.04,0.09-0.121,0.09c-0.082,0-0.123-0.033-0.123-0.098v-2.83
					c0-0.077,0.028-0.146,0.086-0.209c0.059-0.061,0.124-0.091,0.199-0.09l0.91,0.004c0.066,0.001,0.125,0.026,0.178,0.074
					c0.052,0.05,0.078,0.104,0.078,0.163l-0.004,0.437c0,0.042-0.015,0.082-0.044,0.119c-0.03,0.038-0.062,0.062-0.093,0.074
					c-0.032,0.012-0.088,0.016-0.166,0.016c-0.018,0-0.05,0.002-0.096,0.004c0.002,0.018-0.021,0.061-0.071,0.131l-0.172,0.254
					c0.025,0.025,0.069,0.061,0.13,0.107c0.045-0.047,0.104-0.112,0.174-0.201c0.071-0.09,0.112-0.139,0.124-0.146
					c0.013-0.01,0.03-0.014,0.054-0.014c0.035,0,0.07,0.013,0.104,0.038c0.033,0.026,0.05,0.054,0.05,0.085
					c0,0.01-0.002,0.02-0.007,0.027c-0.004,0.01-0.081,0.099-0.232,0.268c-0.151,0.168-0.241,0.266-0.27,0.289l0.297-0.035
					c-0.009-0.021-0.021-0.043-0.035-0.068c-0.016-0.023-0.022-0.043-0.022-0.057c0-0.028,0.013-0.052,0.04-0.073
					c0.027-0.021,0.057-0.031,0.088-0.031c0.022,0,0.039,0.005,0.053,0.014c0.013,0.009,0.045,0.053,0.1,0.132
					c0.054,0.079,0.097,0.152,0.129,0.219c0.006-0.019,0.021-0.03,0.045-0.035c0.024-0.004,0.049-0.008,0.072-0.012
					c0.023-0.003,0.047-0.005,0.068-0.005l0.209-0.219c-0.069-0.075-0.171-0.155-0.305-0.239c-0.104-0.066-0.156-0.107-0.156-0.123
					c0-0.027,0.016-0.055,0.049-0.086c0.031-0.029,0.062-0.045,0.09-0.045c0.012,0,0.023,0.004,0.033,0.013
					c0.011,0.008,0.029,0.019,0.058,0.032c0.028,0.013,0.047,0.022,0.056,0.029c0.082-0.109,0.144-0.196,0.183-0.262l-0.136,0.003
					c-0.043,0-0.085-0.011-0.127-0.03c-0.043-0.021-0.074-0.047-0.092-0.076c-0.02-0.029-0.029-0.1-0.029-0.209v-0.357
					c0-0.039,0.029-0.082,0.086-0.129c0.059-0.047,0.109-0.07,0.154-0.07h0.988c0.084,0.004,0.146,0.042,0.188,0.113
					c0.039,0.07,0.061,0.137,0.061,0.197v2.558c0,0.066-0.034,0.14-0.102,0.219s-0.178,0.119-0.332,0.119
					c-0.096,0-0.187-0.024-0.271-0.073c-0.086-0.048-0.144-0.078-0.172-0.092s-0.043-0.035-0.043-0.064
					c0-0.024,0.012-0.047,0.033-0.065s0.049-0.028,0.078-0.028c0.02,0,0.045,0.008,0.075,0.021c0.03,0.016,0.089,0.034,0.178,0.057
					c0.088,0.022,0.136,0.034,0.145,0.034c0.044,0,0.082-0.018,0.112-0.053c0.031-0.034,0.047-0.067,0.047-0.096v-0.785
					c-0.033,0.011-0.059,0.017-0.075,0.017c-0.06,0-0.123-0.07-0.19-0.211c-0.046,0.018-0.158,0.033-0.338,0.047l-0.526,0.064
					c-0.034,0-0.062-0.012-0.084-0.035c-0.028,0.048-0.079,0.071-0.151,0.071c-0.031,0-0.054-0.01-0.068-0.03
					c0.004,0.009,0.004,0.012,0,0.012s-0.014-0.014-0.029-0.039s-0.031-0.053-0.048-0.079l-0.624,0.062
					c-0.194,0.018-0.311,0.026-0.35,0.026c-0.037,0-0.062-0.01-0.074-0.03S96.056,60.506,96.055,60.504z M96.916,58.807h-0.732
					c-0.062,0-0.1,0.008-0.112,0.025s-0.021,0.049-0.021,0.096l0.959,0.004c0-0.023,0-0.051-0.002-0.081
					C97.007,58.822,96.976,58.807,96.916,58.807z M96.051,59.141v0.126h0.846c0.076,0.009,0.113-0.013,0.113-0.063v-0.062H96.051z
					 M96.422,59.731h-0.004c0.088-0.111,0.149-0.194,0.182-0.248h-0.545v0.932c0.012-0.036,0.109-0.054,0.293-0.053
					c0.152-0.14,0.234-0.211,0.244-0.216c-0.082-0.087-0.172-0.16-0.269-0.221c-0.099-0.06-0.157-0.099-0.177-0.117
					c-0.021-0.018-0.031-0.038-0.031-0.063c0-0.031,0.014-0.061,0.039-0.086c0.027-0.026,0.055-0.04,0.084-0.04
					c0.015,0,0.032,0.008,0.053,0.023c0.02,0.016,0.042,0.03,0.066,0.045C96.381,59.702,96.402,59.716,96.422,59.731z
					 M96.934,61.007v-0.184c0-0.056,0.006-0.093,0.02-0.11c0.015-0.018,0.033-0.031,0.058-0.041s0.051-0.014,0.078-0.014
					c0.073,0,0.11,0.025,0.11,0.076c0,0.279-0.038,0.482-0.114,0.607c-0.076,0.126-0.186,0.225-0.327,0.297
					c-0.143,0.072-0.244,0.109-0.305,0.109c-0.029,0-0.053-0.012-0.073-0.035c-0.021-0.024-0.03-0.051-0.03-0.08
					c0-0.04,0.018-0.066,0.053-0.081c0.242-0.053,0.399-0.168,0.473-0.347c-0.082,0.004-0.163,0.006-0.241,0.006
					c-0.23,0-0.345-0.08-0.345-0.239c0-0.044,0.004-0.096,0.012-0.155c0.009-0.062,0.013-0.107,0.013-0.138s0.012-0.054,0.034-0.069
					c0.024-0.014,0.053-0.021,0.086-0.021c0.09,0,0.132,0.037,0.125,0.112c-0.006,0.073-0.01,0.144-0.01,0.209
					s0.042,0.098,0.124,0.098H96.934z M97.712,61.209v-0.004c0.002,0.111,0.003,0.193,0.003,0.248c0,0.18-0.01,0.284-0.029,0.315
					c-0.02,0.032-0.055,0.048-0.104,0.048c-0.085,0-0.128-0.043-0.126-0.129c0-0.084,0.001-0.239,0.001-0.464
					c0-0.238-0.001-0.382-0.002-0.431c-0.003-0.049,0.013-0.082,0.046-0.101s0.066-0.027,0.1-0.027c0.072,0,0.107,0.028,0.11,0.085
					c0.001,0.057,0.002,0.143,0.002,0.257l0.136,0.005c0.111,0,0.186-0.014,0.22-0.043c0.036-0.031,0.053-0.113,0.053-0.25
					c0-0.063,0.038-0.096,0.114-0.096c0.042,0,0.072,0.014,0.094,0.04c0.02,0.026,0.029,0.089,0.029,0.188
					c0,0.077-0.008,0.134-0.023,0.173c-0.017,0.036-0.041,0.071-0.072,0.104c-0.033,0.031-0.064,0.053-0.097,0.065
					s-0.101,0.019-0.204,0.017C97.856,61.208,97.773,61.208,97.712,61.209z M98.521,58.807h-0.747
					c-0.08,0.004-0.121,0.023-0.121,0.059v0.062l0.977-0.004v-0.051c0-0.022-0.014-0.039-0.041-0.05S98.538,58.807,98.521,58.807z
					 M98.629,59.141h-0.977v0.062c0,0.043,0.042,0.063,0.125,0.063h0.852V59.141z M98.633,60.463v-0.991h-0.569
					c-0.068,0.14-0.153,0.271-0.257,0.396c0.027,0.025,0.069,0.061,0.128,0.11c0.153-0.161,0.245-0.263,0.275-0.308
					c0.03-0.044,0.063-0.065,0.103-0.065c0.031,0,0.061,0.012,0.086,0.036c0.025,0.023,0.037,0.049,0.037,0.076
					c0,0.02-0.026,0.063-0.082,0.129l-0.443,0.49c0.096-0.008,0.208-0.023,0.336-0.048c-0.006-0.011-0.024-0.034-0.055-0.071
					c-0.031-0.035-0.046-0.067-0.046-0.097c0-0.059,0.043-0.087,0.13-0.087c0.047,0,0.081,0.013,0.099,0.039L98.633,60.463z"/>
				<path fill="#FFFFFF" d="M95.934,61.834c-0.115,0-0.139-0.061-0.139-0.113v-2.83c0-0.082,0.03-0.155,0.091-0.219
					c0.059-0.063,0.128-0.096,0.206-0.096h0.004l0.91,0.004c0.069,0.001,0.133,0.027,0.188,0.078
					c0.057,0.053,0.084,0.111,0.084,0.175l-0.004,0.437c0,0.045-0.016,0.09-0.047,0.13c-0.031,0.039-0.065,0.065-0.1,0.077
					c-0.034,0.013-0.089,0.019-0.172,0.019c-0.016,0-0.043,0.001-0.082,0.003c-0.005,0.02-0.022,0.055-0.071,0.124l-0.165,0.242
					c0.023,0.022,0.059,0.052,0.107,0.089c0.044-0.046,0.1-0.109,0.164-0.189c0.096-0.12,0.117-0.143,0.126-0.15
					c0.016-0.01,0.036-0.016,0.063-0.016c0.039,0,0.076,0.014,0.112,0.041c0.038,0.029,0.058,0.062,0.058,0.098
					c0,0.012-0.004,0.024-0.008,0.034c-0.004,0.005-0.008,0.016-0.236,0.271c-0.118,0.133-0.193,0.214-0.236,0.258l0.229-0.027
					c-0.006-0.013-0.015-0.027-0.025-0.046c-0.016-0.026-0.024-0.048-0.024-0.065c0-0.033,0.015-0.061,0.046-0.086
					c0.03-0.023,0.062-0.034,0.098-0.034c0.024,0,0.045,0.005,0.061,0.017c0.011,0.007,0.032,0.029,0.104,0.136
					c0.047,0.069,0.087,0.135,0.117,0.196c0.01-0.009,0.022-0.016,0.041-0.02c0.026-0.004,0.05-0.008,0.073-0.012
					c0.023-0.003,0.043-0.005,0.063-0.005l0.194-0.203c-0.068-0.07-0.166-0.146-0.291-0.227c-0.152-0.095-0.164-0.119-0.164-0.136
					c0-0.031,0.018-0.062,0.053-0.098c0.035-0.032,0.07-0.049,0.102-0.049c0.016,0,0.031,0.005,0.044,0.016
					c0.011,0.009,0.036,0.021,0.054,0.031c0.02,0.009,0.035,0.016,0.046,0.022c0.067-0.091,0.12-0.166,0.157-0.225l-0.107,0.003
					c-0.045,0-0.09-0.012-0.135-0.033c-0.044-0.021-0.078-0.049-0.098-0.082c-0.021-0.031-0.031-0.103-0.031-0.217v-0.357
					c0-0.044,0.029-0.09,0.092-0.142c0.062-0.05,0.115-0.073,0.164-0.073h0.988c0.09,0.004,0.158,0.045,0.201,0.121
					c0.041,0.073,0.062,0.143,0.062,0.205v2.558c0,0.071-0.034,0.146-0.104,0.229c-0.07,0.082-0.187,0.124-0.345,0.124
					c-0.098,0-0.192-0.024-0.279-0.074c-0.079-0.044-0.141-0.077-0.171-0.093c-0.034-0.017-0.052-0.043-0.052-0.078
					c0-0.029,0.014-0.056,0.038-0.078c0.025-0.021,0.056-0.031,0.089-0.031c0.022,0,0.05,0.008,0.082,0.023
					c0.028,0.014,0.083,0.031,0.176,0.055c0.084,0.022,0.132,0.033,0.141,0.034c0.039,0,0.071-0.017,0.1-0.048
					s0.042-0.061,0.042-0.085v-0.764c-0.024,0.007-0.044,0.011-0.059,0.011c-0.065,0-0.13-0.068-0.199-0.207
					c-0.054,0.016-0.161,0.031-0.328,0.044l-0.525,0.064h-0.001c-0.032,0-0.061-0.009-0.083-0.027
					c-0.032,0.042-0.084,0.063-0.153,0.063c-0.026,0-0.047-0.006-0.064-0.02h-0.004c-0.012-0.002-0.019-0.008-0.043-0.046
					c-0.014-0.023-0.029-0.047-0.042-0.071L96.5,60.556c-0.198,0.018-0.313,0.026-0.352,0.026c-0.035,0-0.061-0.008-0.077-0.025
					v1.172C96.071,61.777,96.047,61.834,95.934,61.834z M96.092,58.609c-0.069,0-0.129,0.027-0.184,0.085
					c-0.054,0.058-0.082,0.124-0.082,0.197v2.83c0,0.035,0.012,0.082,0.107,0.082c0.095,0,0.105-0.043,0.105-0.074v-2.262h0.588
					l-0.014,0.024c-0.03,0.05-0.085,0.125-0.172,0.235l0.023,0.019l-0.076,0.001l0.009-0.013c-0.014-0.011-0.028-0.021-0.05-0.034
					c-0.024-0.016-0.047-0.029-0.066-0.045c-0.021-0.017-0.035-0.02-0.043-0.02c-0.025,0-0.049,0.011-0.072,0.035
					c-0.023,0.022-0.035,0.047-0.035,0.074c0,0.02,0.009,0.037,0.025,0.051c0.02,0.018,0.078,0.057,0.175,0.116
					c0.099,0.062,0.19,0.136,0.272,0.224l0.016,0.016l-0.021,0.01c-0.007,0.004-0.047,0.037-0.239,0.213l-0.006,0.004H96.33
					c-0.229,0-0.258,0.032-0.26,0.042l-0.016,0.058l0.013,0.018c0.001,0.002,0.009,0.013,0.021,0.033
					c0.009,0.016,0.029,0.023,0.061,0.023c0.037,0,0.151-0.009,0.348-0.026l0.635-0.063l0.006,0.009
					c0.001,0.001,0.002,0.003,0.002,0.005l-0.004-0.01l0.078,0.11c0.011,0.016,0.028,0.024,0.055,0.024
					c0.066,0,0.111-0.021,0.138-0.064l0.011-0.018l0.015,0.015c0.019,0.021,0.042,0.03,0.072,0.03l0.524-0.064
					c0.178-0.014,0.29-0.029,0.334-0.047l0.014-0.004l0.006,0.013c0.064,0.132,0.125,0.201,0.177,0.201
					c0.011,0,0.03-0.003,0.069-0.015l0.021-0.007v0.807c0,0.033-0.017,0.069-0.051,0.106c-0.033,0.038-0.075,0.058-0.124,0.058
					c-0.007,0-0.023-0.002-0.148-0.034c-0.095-0.025-0.15-0.043-0.181-0.058c-0.027-0.014-0.051-0.021-0.068-0.021
					c-0.026,0-0.048,0.008-0.068,0.024c-0.018,0.017-0.027,0.034-0.027,0.054c0,0.023,0.011,0.038,0.035,0.051
					c0.031,0.014,0.092,0.047,0.172,0.092c0.082,0.047,0.171,0.071,0.264,0.071c0.148,0,0.256-0.038,0.32-0.114
					s0.097-0.146,0.097-0.208v-2.558c0-0.058-0.02-0.121-0.059-0.189c-0.038-0.066-0.095-0.102-0.175-0.105h-0.986
					c-0.041,0-0.089,0.022-0.145,0.066c-0.053,0.045-0.08,0.084-0.08,0.117v0.357c0,0.133,0.014,0.182,0.026,0.2
					c0.017,0.027,0.046,0.051,0.086,0.07s0.081,0.03,0.12,0.03l0.164-0.005l-0.015,0.024c-0.04,0.066-0.099,0.152-0.183,0.264
					l-0.01,0.013l-0.013-0.009c-0.009-0.006-0.026-0.016-0.054-0.029c-0.032-0.016-0.05-0.025-0.061-0.034
					c-0.008-0.006-0.015-0.009-0.023-0.009c-0.023,0-0.05,0.014-0.079,0.041s-0.044,0.052-0.044,0.074
					c0.002,0.003,0.018,0.027,0.15,0.109c0.134,0.085,0.237,0.166,0.307,0.242l0.01,0.011l-0.011,0.011l-0.213,0.225h-0.007
					c-0.021,0-0.041,0.001-0.066,0.005c-0.023,0.003-0.047,0.007-0.07,0.011c-0.028,0.006-0.032,0.02-0.034,0.024l-0.013,0.039
					l-0.017-0.037c-0.032-0.066-0.075-0.14-0.127-0.216c-0.069-0.102-0.09-0.125-0.097-0.129c-0.01-0.007-0.025-0.011-0.043-0.011
					c-0.027,0-0.054,0.01-0.078,0.028c-0.023,0.019-0.033,0.038-0.033,0.061c0,0.006,0.002,0.021,0.02,0.049
					c0.012,0.021,0.026,0.046,0.035,0.07l0.009,0.019l-0.37,0.044l0.041-0.033c0.025-0.022,0.108-0.111,0.268-0.287
					c0.191-0.216,0.227-0.258,0.23-0.265c0.003-0.006,0.005-0.013,0.005-0.013c0-0.033-0.015-0.057-0.044-0.08
					c-0.031-0.023-0.062-0.035-0.094-0.035c-0.02,0-0.035,0.004-0.045,0.011s-0.05,0.056-0.12,0.144
					c-0.069,0.087-0.129,0.155-0.176,0.202l-0.01,0.01l-0.011-0.009c-0.062-0.047-0.105-0.083-0.132-0.107l-0.01-0.01l0.008-0.012
					l0.173-0.253c0.068-0.098,0.068-0.118,0.068-0.118v-0.018l0.015-0.002c0.046-0.002,0.078-0.003,0.097-0.003
					c0.078,0,0.131-0.005,0.16-0.017c0.029-0.01,0.059-0.033,0.086-0.068c0.027-0.034,0.041-0.071,0.041-0.109l0.004-0.437
					c0-0.056-0.024-0.104-0.073-0.151c-0.05-0.045-0.106-0.068-0.167-0.07L96.092,58.609z M96.071,59.5v0.878
					c0.034-0.018,0.106-0.031,0.259-0.031h0.012c0.146-0.135,0.203-0.184,0.227-0.202c-0.077-0.08-0.162-0.149-0.254-0.205
					c-0.1-0.062-0.158-0.101-0.179-0.119c-0.023-0.021-0.036-0.046-0.036-0.075c0-0.036,0.015-0.068,0.044-0.098
					c0.03-0.029,0.062-0.044,0.095-0.044c0.019,0,0.039,0.009,0.062,0.026c0.018,0.015,0.039,0.029,0.064,0.043
					c0.021,0.014,0.037,0.025,0.051,0.035c0.073-0.093,0.124-0.16,0.154-0.208H96.071z M97.581,61.833
					c-0.047,0-0.083-0.013-0.107-0.037c-0.024-0.023-0.036-0.061-0.035-0.107c0.001-0.088,0.002-0.248,0.002-0.464
					c0-0.256-0.001-0.384-0.003-0.43c-0.002-0.056,0.017-0.094,0.055-0.115c0.034-0.02,0.07-0.03,0.107-0.03
					c0.103,0,0.125,0.055,0.126,0.102c0.001,0.055,0.002,0.136,0.002,0.242l0.12,0.004c0.107,0,0.178-0.014,0.21-0.039
					c0.021-0.02,0.047-0.075,0.047-0.238c0-0.051,0.022-0.111,0.13-0.111c0.047,0,0.082,0.016,0.105,0.047
					c0.023,0.028,0.034,0.093,0.034,0.196c0,0.079-0.009,0.138-0.026,0.179c-0.017,0.039-0.043,0.076-0.075,0.108
					c-0.034,0.033-0.067,0.056-0.102,0.069c-0.03,0.012-0.09,0.018-0.182,0.018H97.96c-0.095-0.001-0.173-0.001-0.232,0
					c0.003,0.103,0.003,0.178,0.003,0.229c0,0.244-0.018,0.303-0.031,0.324C97.677,61.814,97.637,61.833,97.581,61.833z
					 M97.6,60.681c-0.032,0-0.062,0.009-0.092,0.025c-0.027,0.016-0.04,0.044-0.039,0.087c0.003,0.045,0.004,0.175,0.004,0.431
					c0,0.216-0.001,0.377-0.002,0.465c-0.001,0.038,0.008,0.066,0.025,0.085c0.018,0.018,0.047,0.027,0.085,0.027
					c0.045,0,0.074-0.014,0.091-0.04c0.012-0.021,0.027-0.089,0.027-0.308c0-0.054-0.002-0.135-0.004-0.244l0.017-0.004
					l-0.001-0.012c0.062-0.002,0.145-0.002,0.25,0h0.028c0.086,0,0.144-0.006,0.17-0.016c0.03-0.013,0.06-0.032,0.092-0.062
					c0.029-0.029,0.053-0.062,0.067-0.099c0.016-0.035,0.023-0.092,0.023-0.166c0-0.118-0.015-0.162-0.026-0.178
					c-0.018-0.022-0.044-0.034-0.081-0.034c-0.088,0-0.099,0.046-0.099,0.08c0,0.145-0.019,0.229-0.058,0.262
					c-0.038,0.032-0.113,0.048-0.23,0.048l-0.152-0.006v-0.016c0-0.112,0-0.2-0.001-0.257C97.693,60.721,97.684,60.681,97.6,60.681z
					 M96.453,61.764c-0.033,0-0.062-0.014-0.086-0.041c-0.021-0.027-0.033-0.058-0.033-0.09c0-0.047,0.021-0.079,0.062-0.096
					c0.228-0.05,0.379-0.155,0.453-0.314c-0.076,0.002-0.146,0.004-0.216,0.004c-0.239,0-0.36-0.086-0.36-0.255
					c0-0.043,0.004-0.095,0.012-0.158c0.009-0.059,0.013-0.104,0.013-0.135c0-0.036,0.015-0.063,0.042-0.082
					c0.026-0.017,0.057-0.024,0.094-0.024c0.055,0,0.094,0.014,0.117,0.039c0.02,0.021,0.027,0.051,0.024,0.09
					c-0.007,0.074-0.011,0.145-0.011,0.208c0,0.036,0.012,0.083,0.108,0.083h0.244v-0.169c0-0.06,0.009-0.099,0.023-0.12
					c0.017-0.02,0.037-0.035,0.064-0.047c0.027-0.009,0.054-0.014,0.084-0.014c0.104,0,0.126,0.05,0.126,0.092
					c0,0.281-0.039,0.488-0.116,0.616s-0.19,0.229-0.335,0.303C96.618,61.728,96.517,61.764,96.453,61.764z M96.898,61.189
					l-0.01,0.022c-0.073,0.184-0.236,0.303-0.482,0.357c-0.027,0.01-0.041,0.031-0.041,0.064c0,0.024,0.009,0.048,0.026,0.069
					c0.018,0.021,0.038,0.03,0.062,0.03c0.058,0,0.158-0.036,0.297-0.107c0.139-0.07,0.247-0.168,0.321-0.291s0.112-0.324,0.112-0.6
					c0-0.026-0.01-0.061-0.095-0.061c-0.026,0-0.05,0.004-0.072,0.013s-0.038,0.021-0.05,0.036c-0.01,0.01-0.018,0.036-0.018,0.101
					v0.2h-0.276c-0.114,0-0.139-0.062-0.139-0.114c0-0.064,0.003-0.136,0.009-0.211c0.003-0.029-0.002-0.051-0.016-0.066
					c-0.018-0.019-0.049-0.028-0.094-0.028c-0.031,0-0.056,0.007-0.076,0.02c-0.02,0.013-0.027,0.031-0.027,0.056
					c0,0.032-0.005,0.079-0.013,0.14c-0.009,0.061-0.013,0.111-0.013,0.153c0,0.15,0.107,0.224,0.329,0.224
					c0.076,0,0.154-0.002,0.24-0.006L96.898,61.189z M98.648,60.516l-0.288-0.436c-0.015-0.021-0.043-0.031-0.085-0.031
					c-0.102,0-0.114,0.041-0.114,0.071c0,0.024,0.015,0.054,0.042,0.087c0.032,0.039,0.049,0.062,0.056,0.073l0.011,0.019
					l-0.021,0.004c-0.126,0.025-0.24,0.041-0.337,0.048l-0.04,0.003l0.471-0.518c0.073-0.088,0.078-0.113,0.078-0.113
					c0-0.029-0.01-0.051-0.033-0.07c-0.022-0.021-0.047-0.032-0.074-0.032c-0.033,0-0.062,0.02-0.09,0.06
					c-0.029,0.044-0.117,0.143-0.276,0.309L97.936,60l-0.012-0.01c-0.062-0.053-0.104-0.087-0.129-0.11l-0.011-0.011l0.01-0.012
					c0.102-0.122,0.188-0.253,0.255-0.392l0.004-0.008h0.596V60.516z M98.275,60.017c0.054,0,0.091,0.017,0.111,0.046l0.229,0.348
					v-0.922h-0.543c-0.065,0.133-0.148,0.259-0.245,0.377c0.023,0.021,0.057,0.05,0.105,0.091c0.148-0.157,0.235-0.253,0.263-0.294
					c0.032-0.049,0.072-0.074,0.116-0.074c0.035,0,0.068,0.014,0.097,0.041c0.028,0.025,0.042,0.056,0.042,0.088
					c0,0.016-0.008,0.047-0.085,0.139l-0.152,0.168C98.23,60.02,98.252,60.017,98.275,60.017z M98.129,60.117l-0.181,0.199
					c0.081-0.007,0.171-0.02,0.271-0.038c-0.01-0.012-0.022-0.029-0.04-0.05c-0.032-0.038-0.05-0.075-0.05-0.107V60.117z
					 M96.926,59.285c-0.01,0-0.021,0-0.031-0.001h-0.859v-0.158h0.991v0.078c0,0.027-0.01,0.047-0.028,0.062
					C96.981,59.278,96.957,59.285,96.926,59.285z M96.066,59.252h0.83c0.012,0.001,0.021,0.001,0.029,0.001
					c0.024,0,0.043-0.005,0.054-0.013c0.01-0.008,0.015-0.021,0.015-0.037v-0.047h-0.928V59.252z M98.645,59.284h-0.867
					c-0.094,0-0.141-0.027-0.141-0.08v-0.078h1.008V59.284z M97.668,59.157v0.047c0,0.032,0.037,0.049,0.109,0.049h0.836v-0.096
					H97.668z M97.026,58.948H97.01l-0.975-0.004v-0.016c0-0.05,0.008-0.084,0.023-0.105c0.017-0.021,0.055-0.031,0.125-0.031h0.732
					c0.07,0,0.106,0.02,0.107,0.059c0.002,0.031,0.003,0.058,0.003,0.082V58.948z M96.067,58.913l0.927,0.003
					c0-0.019-0.001-0.04-0.002-0.063c0-0.024-0.042-0.029-0.076-0.029h-0.732c-0.077,0-0.096,0.014-0.1,0.02
					C96.074,58.855,96.068,58.878,96.067,58.913z M97.637,58.944v-0.078c0-0.045,0.046-0.07,0.137-0.074h0.747
					c0.02,0,0.045,0.006,0.073,0.018c0.043,0.018,0.051,0.045,0.051,0.064v0.066h-0.016L97.637,58.944z M97.774,58.823
					c-0.04,0.002-0.106,0.01-0.106,0.043v0.047l0.945-0.004v-0.035c0-0.01-0.004-0.023-0.031-0.035
					c-0.024-0.01-0.046-0.016-0.062-0.016H97.774z"/>
			</g>
			<g>
				<path fill="#FFFFFF" d="M99.982,59.477c0,0.094-0.025,0.28-0.075,0.561c-0.05,0.278-0.09,0.43-0.118,0.453
					c-0.027,0.021-0.058,0.034-0.09,0.034c-0.037,0-0.066-0.013-0.091-0.036c-0.024-0.022-0.032-0.055-0.023-0.096
					c0.009-0.039,0.031-0.199,0.067-0.478s0.064-0.443,0.087-0.493c0.022-0.051,0.06-0.076,0.113-0.076
					C99.939,59.346,99.982,59.39,99.982,59.477z M100.033,61.677v-3.074c0-0.061,0.04-0.091,0.119-0.091
					c0.091,0,0.137,0.033,0.137,0.102v3.049c0,0.094-0.045,0.142-0.135,0.142C100.074,61.804,100.033,61.762,100.033,61.677z
					 M100.402,60.013V60.01c-0.019-0.094-0.036-0.213-0.052-0.361c-0.015-0.147-0.022-0.228-0.022-0.24
					c0-0.072,0.039-0.107,0.119-0.107c0.061,0,0.095,0.025,0.102,0.077l0.084,0.592c0.006,0.04-0.003,0.073-0.026,0.1
					c-0.024,0.025-0.054,0.038-0.089,0.038s-0.062-0.011-0.084-0.033C100.413,60.051,100.402,60.032,100.402,60.013z
					 M101.229,61.471c0.098-0.018,0.185-0.039,0.264-0.065l0.229-0.077c0.042,0,0.076,0.012,0.104,0.033
					c0.027,0.022,0.04,0.048,0.04,0.076c0,0.03-0.028,0.061-0.087,0.09c-0.057,0.029-0.234,0.076-0.531,0.141
					s-0.49,0.096-0.577,0.096c-0.062,0-0.091-0.03-0.091-0.092c0-0.045,0.018-0.079,0.054-0.102
					c0.036-0.021,0.151-0.039,0.344-0.051l0.003-0.484c-0.304,0.128-0.477,0.192-0.519,0.192c-0.06,0-0.089-0.035-0.089-0.105
					c0-0.044,0.018-0.073,0.053-0.092c0.33-0.107,0.652-0.265,0.966-0.47c0.019-0.012,0.036-0.019,0.056-0.019
					c0.027,0,0.052,0.013,0.072,0.04c0.021,0.026,0.033,0.055,0.033,0.086c0,0.026-0.013,0.047-0.038,0.062l-0.28,0.176
					L101.229,61.471z M100.615,59.023c-0.055,0-0.08-0.031-0.08-0.093c0-0.079,0.036-0.118,0.108-0.119l0.862-0.004
					c0.004-0.057,0.003-0.115-0.002-0.174c-0.005-0.061,0.004-0.109,0.023-0.146c0.021-0.038,0.055-0.057,0.1-0.057
					c0.086,0,0.129,0.049,0.129,0.146v0.234h1.025c0.068,0,0.103,0.038,0.103,0.115c0,0.064-0.032,0.097-0.098,0.097H100.615z
					 M100.709,60.188v-0.003c-0.055-0.004-0.084-0.027-0.084-0.071c0-0.027,0.012-0.056,0.035-0.08
					c0.022-0.025,0.047-0.038,0.074-0.038h0.641c0.058,0.007,0.086,0.043,0.086,0.107c0,0.058-0.025,0.085-0.078,0.085H100.709z
					 M102.442,59.838l-1.565,0.004c-0.09-0.008-0.152-0.037-0.188-0.088c-0.035-0.049-0.053-0.092-0.053-0.129v-0.251
					c0-0.06,0.023-0.106,0.07-0.14c0.048-0.034,0.107-0.051,0.178-0.051l1.59-0.005c0.047,0,0.092,0.024,0.135,0.069
					c0.043,0.047,0.062,0.096,0.062,0.147c-0.002,0.052-0.002,0.117-0.002,0.198c0,0.048-0.024,0.1-0.074,0.158
					C102.547,59.81,102.495,59.838,102.442,59.838z M100.709,60.53v-0.004c-0.043-0.008-0.065-0.04-0.065-0.095
					c0-0.071,0.027-0.107,0.081-0.107l0.662,0.004c0.047,0.003,0.07,0.035,0.07,0.095c0,0.071-0.031,0.107-0.094,0.107H100.709z
					 M101.199,59.375h-0.238c-0.053,0.021-0.078,0.062-0.078,0.123c0,0,0,0.006-0.002,0.007c-0.001,0-0.002,0.002-0.002,0.002
					c0,0.047,0.011,0.082,0.033,0.105s0.043,0.036,0.063,0.036h0.224V59.375z M101.802,59.375h-0.343v0.273h0.343V59.375z
					 M101.633,59.881c0.027,0,0.053,0.007,0.074,0.021c0.023,0.014,0.036,0.028,0.039,0.045c0.004,0.018,0.007,0.094,0.008,0.229
					l0.002,0.332c0,0.021-0.012,0.045-0.035,0.068c-0.024,0.024-0.054,0.037-0.09,0.037c-0.085,0-0.125-0.051-0.122-0.151
					s0.004-0.256,0.004-0.467C101.513,59.919,101.553,59.881,101.633,59.881z M101.788,60.749h0.003
					c0.052,0.082,0.104,0.156,0.158,0.221c0.108-0.057,0.266-0.166,0.471-0.327c0.021-0.015,0.043-0.021,0.066-0.021
					c0.029,0,0.056,0.011,0.078,0.034c0.023,0.022,0.035,0.047,0.035,0.076c0,0.021-0.004,0.036-0.013,0.047
					c-0.009,0.012-0.067,0.061-0.177,0.146c-0.107,0.085-0.211,0.151-0.309,0.199c0.158,0.182,0.416,0.353,0.771,0.511
					c0.033,0.012,0.05,0.033,0.05,0.066c0,0.029-0.012,0.055-0.035,0.078c-0.022,0.022-0.051,0.033-0.084,0.033
					c-0.065,0-0.226-0.081-0.479-0.242c-0.254-0.162-0.444-0.317-0.57-0.466c-0.126-0.149-0.189-0.242-0.189-0.279
					c0-0.026,0.017-0.053,0.049-0.081c0.033-0.028,0.066-0.042,0.1-0.042S101.771,60.717,101.788,60.749z M101.875,60.198v-0.004
					c-0.053,0.004-0.078-0.024-0.078-0.084c0-0.071,0.035-0.107,0.105-0.107h0.639c0.046-0.001,0.068,0.029,0.068,0.088
					c0,0.072-0.029,0.107-0.09,0.107H101.875z M101.875,60.53c-0.037,0-0.057-0.033-0.057-0.097c0-0.067,0.023-0.103,0.071-0.103
					h0.659c0.043,0,0.063,0.03,0.063,0.092c0,0.071-0.026,0.107-0.082,0.107H101.875z M102.336,59.375h-0.273v0.273
					c0.203,0,0.314-0.005,0.335-0.013c0.021-0.009,0.031-0.059,0.031-0.152c0-0.039-0.005-0.066-0.014-0.083
					S102.38,59.375,102.336,59.375z"/>
				<path fill="#FFFFFF" d="M102.804,61.827c-0.069,0-0.228-0.08-0.487-0.245c-0.254-0.161-0.447-0.319-0.574-0.469
					c-0.172-0.202-0.193-0.261-0.193-0.289c0-0.03,0.019-0.062,0.055-0.093c0.035-0.03,0.072-0.046,0.109-0.046
					c0.036,0,0.065,0.017,0.084,0.05l0.008,0.006c0.049,0.078,0.099,0.148,0.148,0.208c0.107-0.058,0.262-0.165,0.457-0.319
					c0.058-0.039,0.12-0.031,0.166,0.014c0.025,0.025,0.039,0.055,0.039,0.088c0,0.024-0.005,0.043-0.016,0.058
					c-0.012,0.013-0.07,0.062-0.18,0.147c-0.101,0.078-0.198,0.143-0.292,0.191c0.157,0.174,0.41,0.339,0.752,0.49
					c0.038,0.014,0.06,0.043,0.06,0.082c0,0.033-0.014,0.062-0.04,0.089C102.874,61.814,102.842,61.827,102.804,61.827z
					 M101.713,60.717c-0.029,0-0.06,0.013-0.089,0.037c-0.028,0.025-0.044,0.049-0.044,0.069c0,0.022,0.033,0.088,0.186,0.269
					c0.125,0.147,0.316,0.303,0.567,0.463s0.409,0.24,0.471,0.24c0.029,0,0.054-0.01,0.073-0.029c0.021-0.02,0.03-0.041,0.03-0.066
					c0-0.026-0.013-0.043-0.039-0.053c-0.357-0.158-0.619-0.331-0.778-0.514l-0.013-0.017l0.019-0.009
					c0.097-0.048,0.199-0.114,0.305-0.197c0.148-0.116,0.171-0.139,0.174-0.143c0.007-0.008,0.01-0.02,0.01-0.037
					c0-0.024-0.01-0.046-0.029-0.064c-0.036-0.035-0.083-0.04-0.126-0.012c-0.203,0.161-0.362,0.271-0.474,0.328l-0.011,0.006
					l-0.008-0.01c-0.052-0.062-0.104-0.133-0.153-0.214h-0.002l-0.008-0.009C101.76,60.73,101.74,60.717,101.713,60.717z
					 M100.154,61.82c-0.09,0-0.137-0.05-0.137-0.143v-3.074c0-0.048,0.023-0.106,0.135-0.106c0.126,0,0.151,0.063,0.151,0.117v3.049
					C100.304,61.766,100.252,61.82,100.154,61.82z M100.152,58.528c-0.092,0-0.104,0.043-0.104,0.075v3.074
					c0,0.075,0.033,0.11,0.105,0.11c0.08,0,0.119-0.039,0.119-0.125v-3.049C100.273,58.577,100.261,58.528,100.152,58.528z
					 M100.669,61.78c-0.07,0-0.107-0.037-0.107-0.107c0-0.051,0.021-0.09,0.062-0.115c0.038-0.023,0.147-0.04,0.335-0.053
					l0.004-0.445c-0.438,0.185-0.486,0.185-0.503,0.185c-0.048,0-0.104-0.021-0.104-0.121c0-0.05,0.021-0.085,0.062-0.105
					c0.329-0.108,0.652-0.266,0.964-0.469c0.002-0.002,0.005-0.003,0.006-0.005c-0.008,0.001-0.016,0.002-0.023,0.002h-0.669v-0.007
					c-0.033-0.011-0.066-0.038-0.066-0.107c0-0.102,0.052-0.123,0.097-0.123l0.662,0.003c0.04,0.004,0.087,0.025,0.087,0.111
					c0,0.057-0.019,0.088-0.044,0.104c0.026-0.003,0.052,0.003,0.073,0.019c-0.008-0.023-0.011-0.051-0.011-0.084
					c0.004-0.104,0.005-0.26,0.005-0.466c0-0.085,0.047-0.13,0.136-0.13c0.029,0,0.058,0.008,0.082,0.022
					c0.027,0.017,0.043,0.034,0.047,0.056c0.002,0.008,0.007,0.028,0.008,0.232l0.002,0.332c0,0.025-0.014,0.052-0.04,0.08
					c-0.027,0.026-0.062,0.041-0.101,0.041c-0.029,0-0.056-0.006-0.076-0.018c0.008,0.018,0.012,0.037,0.012,0.057
					c0,0.032-0.016,0.059-0.045,0.076l-0.273,0.17l-0.002,0.538c0.087-0.017,0.168-0.037,0.24-0.062l0.234-0.078
					c0.046,0,0.084,0.013,0.113,0.037c0.031,0.025,0.046,0.055,0.046,0.088c0,0.037-0.03,0.07-0.095,0.104
					c-0.059,0.03-0.234,0.077-0.535,0.143C100.953,61.749,100.758,61.78,100.669,61.78z M100.995,61.011v0.024l-0.004,0.499
					l-0.015,0.001c-0.235,0.015-0.312,0.034-0.336,0.049c-0.032,0.02-0.047,0.049-0.047,0.088c0,0.053,0.023,0.077,0.075,0.077
					c0.087,0,0.28-0.033,0.573-0.097c0.296-0.063,0.473-0.111,0.528-0.14c0.051-0.026,0.078-0.052,0.078-0.075
					s-0.011-0.045-0.034-0.063c-0.023-0.02-0.054-0.028-0.092-0.029l-0.227,0.076c-0.079,0.025-0.168,0.048-0.264,0.065l-0.02,0.004
					v-0.02l0.004-0.574l0.008-0.004l0.279-0.175c0.021-0.013,0.03-0.028,0.03-0.05c0-0.027-0.009-0.053-0.028-0.076
					c-0.031-0.039-0.069-0.045-0.107-0.018c-0.314,0.205-0.641,0.363-0.969,0.472c-0.029,0.015-0.043,0.038-0.043,0.076
					c0,0.08,0.041,0.089,0.073,0.089c0.026,0,0.138-0.033,0.513-0.191L100.995,61.011z M101.633,59.897
					c-0.07,0-0.104,0.031-0.104,0.099c0,0.206-0.001,0.363-0.004,0.467c-0.002,0.051,0.009,0.087,0.029,0.108
					c0.018,0.019,0.043,0.026,0.077,0.026c0.031,0,0.057-0.011,0.078-0.031c0.021-0.021,0.031-0.04,0.031-0.058l-0.002-0.332
					c-0.001-0.175-0.006-0.217-0.007-0.226c-0.003-0.012-0.014-0.023-0.032-0.035C101.679,59.903,101.656,59.897,101.633,59.897z
					 M100.726,60.514h0.638c0.033,0,0.078-0.01,0.078-0.092c0-0.067-0.031-0.077-0.057-0.079l-0.66-0.004
					c-0.028,0-0.064,0.01-0.064,0.092c0,0.062,0.028,0.075,0.053,0.079L100.726,60.514z M102.53,60.545h-0.655
					c-0.033,0-0.072-0.02-0.072-0.112c0-0.097,0.047-0.118,0.087-0.118h0.659c0.037,0,0.08,0.019,0.08,0.107
					C102.629,60.524,102.575,60.545,102.53,60.545z M102.55,60.346h-0.66c-0.016,0-0.056,0-0.056,0.087
					c0,0.081,0.031,0.081,0.041,0.081h0.655c0.028,0,0.066-0.01,0.066-0.092C102.597,60.346,102.564,60.346,102.55,60.346z
					 M99.699,60.541c-0.041,0-0.075-0.014-0.102-0.04c-0.028-0.027-0.038-0.063-0.027-0.109c0.007-0.039,0.028-0.19,0.066-0.478
					c0.037-0.282,0.065-0.444,0.088-0.497c0.025-0.058,0.068-0.086,0.128-0.086c0.096,0,0.146,0.051,0.146,0.146
					c0,0.094-0.023,0.277-0.075,0.562c-0.068,0.378-0.103,0.445-0.124,0.463C99.769,60.528,99.734,60.541,99.699,60.541z
					 M99.853,59.362c-0.047,0-0.079,0.021-0.099,0.066c-0.021,0.049-0.05,0.214-0.086,0.489c-0.038,0.288-0.059,0.44-0.067,0.479
					c-0.007,0.035-0.001,0.062,0.019,0.08c0.021,0.021,0.048,0.031,0.08,0.031c0.027,0,0.055-0.01,0.08-0.03
					c0.014-0.011,0.047-0.083,0.113-0.444c0.05-0.282,0.075-0.465,0.075-0.557C99.968,59.399,99.932,59.362,99.853,59.362z
					 M102.52,60.213h-0.66v-0.004c-0.024-0.001-0.044-0.01-0.058-0.026s-0.021-0.042-0.021-0.073c0-0.081,0.041-0.123,0.121-0.123
					h0.639l0,0c0.033,0,0.084,0.014,0.084,0.104C102.625,60.192,102.568,60.213,102.52,60.213z M101.891,60.181h0.629
					c0.034,0,0.074-0.011,0.074-0.091c0-0.063-0.027-0.072-0.05-0.072h-0.642c-0.062,0-0.09,0.029-0.09,0.092
					c0,0.024,0.004,0.042,0.014,0.053c0.01,0.012,0.026,0.016,0.048,0.016l0.017-0.002V60.181z M101.383,60.204h-0.688v-0.005
					c-0.069-0.009-0.085-0.051-0.085-0.085c0-0.01,0.002-0.02,0.004-0.027c-0.026,0.024-0.059,0.037-0.096,0.037
					c-0.039,0-0.072-0.013-0.096-0.037c-0.024-0.027-0.035-0.051-0.035-0.073c-0.02-0.099-0.037-0.22-0.051-0.362
					c-0.016-0.137-0.023-0.227-0.023-0.242c0-0.057,0.023-0.123,0.135-0.123c0.086,0,0.111,0.049,0.117,0.091l0.084,0.593
					c0.003,0.019,0.003,0.037,0,0.053c0.024-0.027,0.054-0.042,0.086-0.042h0.641c0.048,0.005,0.102,0.031,0.102,0.123
					C101.477,60.168,101.443,60.204,101.383,60.204z M100.726,60.172h0.657c0.043,0,0.062-0.021,0.062-0.069
					c0-0.057-0.023-0.086-0.071-0.092h-0.64c-0.022,0-0.044,0.011-0.062,0.032c-0.021,0.022-0.03,0.046-0.03,0.07
					c0,0.023,0.008,0.051,0.069,0.055l0.015,0.001V60.172z M100.447,59.317c-0.07,0-0.104,0.029-0.104,0.092
					c0,0.01,0.006,0.08,0.023,0.239c0.014,0.142,0.031,0.262,0.051,0.358v0.007c0,0.015,0.009,0.03,0.027,0.05
					c0.018,0.02,0.041,0.029,0.072,0.029s0.056-0.011,0.077-0.033c0.021-0.023,0.028-0.051,0.022-0.086l-0.084-0.592
					C100.529,59.354,100.517,59.317,100.447,59.317z M100.877,59.858L100.877,59.858c-0.096-0.008-0.163-0.041-0.201-0.094
					c-0.037-0.053-0.055-0.1-0.055-0.139v-0.251c0-0.065,0.025-0.116,0.078-0.153c0.049-0.035,0.112-0.054,0.186-0.054l1.59-0.004
					c0.051,0,0.1,0.025,0.146,0.075c0.045,0.049,0.067,0.103,0.066,0.157c-0.002,0.048-0.002,0.113-0.002,0.198
					c0,0.053-0.025,0.107-0.078,0.168c-0.052,0.061-0.107,0.092-0.165,0.092L100.877,59.858z M102.475,59.196l-1.59,0.004
					c-0.066,0-0.123,0.016-0.168,0.048c-0.043,0.03-0.064,0.071-0.064,0.127v0.251c0,0.033,0.017,0.074,0.049,0.12
					c0.033,0.046,0.093,0.073,0.177,0.081l1.564-0.004c0.048,0,0.095-0.027,0.141-0.081c0.047-0.054,0.07-0.104,0.07-0.147
					c0-0.086,0.001-0.15,0.003-0.199c0.001-0.047-0.02-0.092-0.059-0.135C102.558,59.217,102.516,59.196,102.475,59.196z
					 M102.062,59.664h-0.016v-0.305h0.289c0.051,0,0.081,0.011,0.094,0.032c0.01,0.021,0.016,0.051,0.016,0.092
					c0,0.105-0.013,0.154-0.041,0.167C102.389,59.656,102.336,59.664,102.062,59.664z M102.078,59.39v0.242
					c0.257-0.001,0.305-0.009,0.314-0.012c0.001-0.001,0.021-0.013,0.021-0.138c0-0.045-0.007-0.066-0.012-0.076
					c-0.003-0.005-0.015-0.017-0.065-0.017H102.078z M101.818,59.664h-0.375v-0.305h0.375V59.664z M101.475,59.632h0.312V59.39
					h-0.312V59.632z M101.215,59.664h-0.239c-0.024,0-0.05-0.014-0.075-0.041c-0.024-0.026-0.037-0.064-0.037-0.114
					c0-0.004,0.002-0.009,0.004-0.012c0-0.067,0.03-0.113,0.088-0.137l0.006-0.001h0.254V59.664z M100.895,59.512
					c0.001,0.039,0.011,0.069,0.029,0.088c0.019,0.021,0.036,0.032,0.052,0.032h0.207V59.39h-0.218
					c-0.046,0.021-0.066,0.054-0.066,0.107C100.898,59.498,100.898,59.506,100.895,59.512z M102.786,59.039h-2.171
					c-0.062,0-0.096-0.038-0.096-0.108c0-0.087,0.042-0.134,0.124-0.135l0.848-0.004c0.002-0.051,0.001-0.104-0.003-0.158
					c-0.005-0.063,0.004-0.113,0.026-0.154c0.023-0.043,0.062-0.064,0.112-0.064c0.066,0,0.145,0.028,0.145,0.162v0.219h1.01
					c0.055,0,0.118,0.021,0.118,0.131C102.899,59,102.86,59.039,102.786,59.039z M101.627,58.446c-0.039,0-0.067,0.017-0.085,0.048
					c-0.02,0.036-0.026,0.081-0.022,0.138c0.006,0.061,0.006,0.12,0.002,0.177l-0.001,0.015h-0.015l-0.862,0.004
					c-0.063,0.001-0.093,0.034-0.093,0.104c0,0.068,0.034,0.077,0.064,0.077h2.171c0.057,0,0.082-0.025,0.082-0.081
					c0-0.068-0.027-0.1-0.087-0.1h-1.041v-0.25C101.74,58.488,101.704,58.446,101.627,58.446z"/>
			</g>
			<g>
				<path fill="#FFFFFF" d="M103.863,59.664c-0.031,0.043-0.082,0.103-0.152,0.179c-0.07,0.078-0.113,0.121-0.127,0.129
					c-0.016,0.01-0.035,0.014-0.061,0.014c-0.035,0-0.066-0.014-0.092-0.039c-0.025-0.026-0.039-0.061-0.039-0.104
					c0-0.039,0.014-0.069,0.039-0.091c0.143-0.133,0.264-0.287,0.363-0.465c0.099-0.179,0.189-0.435,0.271-0.767
					c0.01-0.044,0.049-0.064,0.115-0.064c0.094,0,0.14,0.037,0.14,0.112c0,0.022-0.011,0.082-0.032,0.179
					c-0.021,0.096-0.055,0.205-0.102,0.328l-0.07,0.164v1.371c-0.023,0.07-0.068,0.105-0.131,0.105
					c-0.082,0-0.123-0.051-0.123-0.154V59.664z M104.002,60.879c0,0.055-0.019,0.139-0.055,0.255
					c-0.035,0.114-0.082,0.218-0.135,0.312c-0.055,0.092-0.109,0.165-0.162,0.218c-0.054,0.054-0.1,0.08-0.136,0.08
					c-0.034,0-0.063-0.014-0.087-0.04c-0.023-0.025-0.035-0.057-0.035-0.09s0.011-0.061,0.031-0.083
					c0.173-0.188,0.283-0.421,0.328-0.698c0.008-0.045,0.047-0.067,0.114-0.067C103.957,60.765,104.002,60.803,104.002,60.879z
					 M104.944,58.786h1.539c0.062,0,0.118,0.022,0.169,0.068c0.05,0.045,0.075,0.118,0.075,0.216c0,0.081-0.022,0.167-0.069,0.255
					c-0.047,0.09-0.078,0.146-0.096,0.171c-0.018,0.025-0.043,0.038-0.079,0.038c-0.038,0-0.073-0.014-0.104-0.039
					s-0.045-0.057-0.045-0.092c0-0.029,0.012-0.06,0.036-0.091c0.055-0.117,0.082-0.195,0.082-0.231c0-0.025-0.01-0.037-0.028-0.037
					h-0.702v1.266c0,0.094-0.029,0.171-0.086,0.234c-0.059,0.062-0.144,0.093-0.256,0.093c-0.104,0-0.215-0.027-0.33-0.083
					c-0.116-0.055-0.174-0.116-0.174-0.185c0-0.038,0.016-0.072,0.047-0.103c0.03-0.031,0.064-0.045,0.103-0.045
					c0.022,0,0.07,0.023,0.144,0.07s0.135,0.07,0.184,0.07c0.068,0,0.104-0.045,0.104-0.133v-1.18h-0.607
					c-0.053,0.113-0.112,0.223-0.176,0.329c-0.064,0.105-0.121,0.189-0.17,0.251c-0.049,0.061-0.098,0.092-0.146,0.092
					c-0.035,0-0.065-0.012-0.091-0.035s-0.037-0.052-0.037-0.086c0-0.035,0.014-0.07,0.041-0.105c0.219-0.28,0.377-0.607,0.475-0.98
					c0.015-0.039,0.053-0.059,0.116-0.059c0.058,0,0.099,0.018,0.122,0.054c0.021,0.035,0.029,0.064,0.022,0.087L104.944,58.786z
					 M104.754,61.75c-0.174,0-0.297-0.039-0.365-0.117c-0.068-0.079-0.104-0.175-0.104-0.287l-0.002-0.535
					c0-0.081,0.046-0.123,0.136-0.123c0.033,0,0.062,0.01,0.086,0.03c0.023,0.019,0.035,0.067,0.035,0.146v0.29
					c0,0.108,0.006,0.178,0.017,0.206c0.011,0.029,0.028,0.055,0.055,0.074c0.026,0.021,0.093,0.035,0.199,0.042
					c0.106,0.009,0.228,0.012,0.365,0.012c0.224,0,0.382-0.012,0.475-0.036c0.093-0.023,0.14-0.132,0.14-0.326
					c0-0.065,0.045-0.098,0.133-0.098c0.086,0,0.128,0.052,0.128,0.156c0,0.212-0.053,0.359-0.157,0.442
					c-0.104,0.083-0.311,0.124-0.62,0.124H104.754z M105.149,59.323c0,0.032-0.018,0.109-0.054,0.233
					c-0.035,0.122-0.082,0.243-0.139,0.358s-0.126,0.229-0.208,0.337c-0.081,0.109-0.135,0.17-0.161,0.183
					c-0.025,0.014-0.049,0.021-0.072,0.021c-0.033,0-0.063-0.016-0.091-0.046c-0.026-0.031-0.041-0.062-0.041-0.096
					c0-0.03,0.015-0.06,0.041-0.086c0.226-0.229,0.386-0.544,0.482-0.947c0.009-0.047,0.047-0.069,0.112-0.069
					C105.106,59.21,105.149,59.248,105.149,59.323z M105.36,61.306c-0.036,0-0.075-0.025-0.114-0.076
					c-0.041-0.051-0.115-0.129-0.225-0.235c-0.108-0.106-0.162-0.179-0.162-0.217c0-0.032,0.014-0.061,0.043-0.088
					c0.028-0.025,0.06-0.039,0.096-0.039c0.028,0,0.062,0.016,0.1,0.047c0.039,0.032,0.095,0.086,0.17,0.164
					c0.075,0.079,0.133,0.143,0.175,0.191c0.042,0.048,0.062,0.084,0.062,0.108c0,0.035-0.015,0.068-0.046,0.099
					C105.43,61.292,105.396,61.306,105.36,61.306z M106.373,60.506c-0.061,0-0.096-0.027-0.104-0.082
					c-0.009-0.055-0.043-0.192-0.101-0.414c-0.059-0.222-0.135-0.424-0.229-0.607c-0.008-0.016-0.012-0.032-0.012-0.048
					c0-0.036,0.016-0.065,0.047-0.091s0.065-0.038,0.104-0.038c0.028,0,0.054,0.009,0.074,0.027
					c0.021,0.018,0.064,0.104,0.129,0.261c0.064,0.157,0.121,0.327,0.169,0.51c0.048,0.185,0.072,0.303,0.072,0.359
					C106.522,60.465,106.473,60.506,106.373,60.506z M106.628,61.727c-0.04,0-0.07-0.014-0.09-0.042l-0.154-0.257
					c-0.052-0.086-0.107-0.168-0.168-0.247c-0.06-0.08-0.112-0.148-0.16-0.206c-0.047-0.058-0.07-0.1-0.07-0.126
					c0-0.033,0.013-0.063,0.041-0.09c0.027-0.028,0.058-0.04,0.091-0.04c0.031,0,0.07,0.022,0.117,0.068
					c0.048,0.046,0.118,0.133,0.209,0.262c0.092,0.129,0.168,0.246,0.229,0.351s0.092,0.168,0.092,0.191
					c0,0.036-0.014,0.067-0.041,0.095S106.664,61.727,106.628,61.727z"/>
				<path fill="#FFFFFF" d="M105.272,61.766h-0.519c-0.179,0-0.305-0.041-0.377-0.123c-0.071-0.082-0.107-0.182-0.108-0.297
					l-0.003-0.535c0-0.062,0.027-0.139,0.152-0.139c0.037,0,0.068,0.012,0.096,0.033c0.027,0.023,0.042,0.074,0.042,0.158v0.29
					c0,0.133,0.008,0.183,0.015,0.2c0.01,0.027,0.026,0.05,0.051,0.068c0.016,0.012,0.062,0.029,0.189,0.038
					c0.107,0.008,0.23,0.012,0.364,0.012c0.222,0,0.381-0.012,0.471-0.036c0.084-0.021,0.128-0.125,0.128-0.311
					c0-0.052,0.025-0.113,0.148-0.113c0.065,0,0.144,0.029,0.144,0.172c0,0.216-0.055,0.369-0.162,0.455
					C105.795,61.725,105.589,61.766,105.272,61.766z M104.418,60.704c-0.082,0-0.12,0.034-0.12,0.107l0.002,0.535
					c0.001,0.107,0.034,0.2,0.101,0.275s0.186,0.113,0.354,0.113h0.519c0.305,0,0.511-0.041,0.61-0.121
					c0.1-0.079,0.15-0.224,0.15-0.43c0-0.126-0.063-0.141-0.111-0.141c-0.105,0-0.117,0.047-0.117,0.082
					c0,0.201-0.051,0.316-0.151,0.343c-0.094,0.024-0.251,0.036-0.479,0.036c-0.136,0-0.259-0.005-0.366-0.012
					c-0.111-0.008-0.178-0.023-0.207-0.046c-0.029-0.021-0.05-0.049-0.062-0.081c-0.011-0.031-0.017-0.101-0.017-0.212v-0.29
					c0-0.095-0.019-0.125-0.03-0.133C104.473,60.713,104.447,60.704,104.418,60.704z M103.515,61.759
					c-0.038,0-0.072-0.016-0.099-0.044c-0.025-0.029-0.039-0.064-0.039-0.102s0.012-0.068,0.035-0.094
					c0.171-0.186,0.279-0.417,0.324-0.689c0.007-0.037,0.035-0.082,0.13-0.082c0.126,0,0.151,0.071,0.151,0.131
					c0,0.057-0.018,0.141-0.055,0.26c-0.037,0.114-0.082,0.22-0.138,0.313c-0.054,0.094-0.11,0.169-0.164,0.222
					C103.604,61.732,103.557,61.759,103.515,61.759z M103.866,60.781c-0.089,0-0.096,0.042-0.099,0.056
					c-0.045,0.277-0.157,0.516-0.332,0.705c-0.018,0.02-0.027,0.043-0.027,0.072s0.012,0.057,0.031,0.08
					c0.021,0.021,0.045,0.033,0.075,0.033c0.032,0,0.075-0.025,0.124-0.074c0.053-0.052,0.105-0.125,0.16-0.216
					c0.053-0.092,0.098-0.195,0.133-0.308c0.036-0.113,0.055-0.197,0.055-0.25C103.986,60.836,103.975,60.781,103.866,60.781z
					 M106.628,61.743c-0.046,0-0.08-0.016-0.103-0.049l-0.156-0.259c-0.049-0.082-0.105-0.165-0.166-0.244
					c-0.067-0.091-0.117-0.153-0.16-0.206c-0.051-0.062-0.074-0.105-0.074-0.136c0-0.038,0.016-0.071,0.047-0.102
					c0.029-0.029,0.064-0.044,0.102-0.044c0.036,0,0.078,0.023,0.129,0.072s0.121,0.138,0.211,0.265
					c0.092,0.129,0.168,0.247,0.229,0.352c0.084,0.143,0.094,0.183,0.094,0.199c0,0.04-0.016,0.075-0.046,0.106
					C106.703,61.727,106.667,61.743,106.628,61.743z M106.117,60.735c-0.03,0-0.056,0.012-0.08,0.035
					c-0.024,0.024-0.036,0.05-0.036,0.079c0,0.016,0.012,0.048,0.067,0.116c0.042,0.053,0.093,0.116,0.16,0.206
					c0.062,0.081,0.118,0.165,0.168,0.247l0.155,0.258c0.016,0.023,0.041,0.035,0.076,0.035c0.032,0,0.059-0.012,0.083-0.036
					c0.025-0.024,0.037-0.053,0.037-0.084c0-0.01-0.009-0.046-0.089-0.184c-0.061-0.103-0.138-0.221-0.228-0.349
					c-0.088-0.123-0.159-0.214-0.207-0.26C106.169,60.747,106.136,60.735,106.117,60.735z M105.36,61.322
					c-0.042,0-0.085-0.028-0.128-0.081c-0.039-0.051-0.113-0.13-0.222-0.234c-0.113-0.111-0.167-0.186-0.167-0.229
					c0-0.037,0.015-0.069,0.047-0.1c0.032-0.029,0.068-0.043,0.107-0.043c0.033,0,0.069,0.017,0.109,0.051
					c0.038,0.031,0.094,0.085,0.171,0.165c0.078,0.081,0.136,0.144,0.176,0.191c0.046,0.053,0.067,0.091,0.067,0.119
					c0,0.04-0.018,0.077-0.051,0.11S105.4,61.322,105.36,61.322z M104.998,60.667c-0.031,0-0.06,0.012-0.086,0.035
					c-0.025,0.023-0.037,0.049-0.037,0.076c0,0.019,0.021,0.07,0.158,0.205c0.108,0.105,0.184,0.186,0.225,0.237
					c0.037,0.046,0.071,0.069,0.103,0.069s0.062-0.014,0.088-0.04c0.027-0.027,0.041-0.057,0.041-0.088
					c0-0.014-0.011-0.042-0.06-0.099c-0.04-0.047-0.097-0.109-0.174-0.19c-0.076-0.079-0.131-0.132-0.168-0.162
					C105.054,60.682,105.023,60.667,104.998,60.667z M103.986,60.731c-0.063,0-0.139-0.029-0.139-0.17v-0.85
					c-0.031,0.037-0.072,0.084-0.125,0.143c-0.106,0.116-0.125,0.127-0.132,0.131c-0.017,0.011-0.04,0.016-0.067,0.016
					c-0.04,0-0.074-0.015-0.104-0.043c-0.028-0.029-0.043-0.068-0.043-0.115c0-0.043,0.015-0.078,0.043-0.104
					c0.143-0.131,0.264-0.285,0.361-0.46c0.098-0.177,0.188-0.433,0.27-0.763c0.012-0.051,0.055-0.076,0.131-0.076
					c0.129,0,0.156,0.069,0.156,0.128c0,0.023-0.011,0.081-0.033,0.183c-0.022,0.098-0.057,0.209-0.102,0.33l-0.069,0.161
					l-0.001,1.373C104.105,60.691,104.055,60.731,103.986,60.731z M103.879,59.614v0.947c0,0.124,0.061,0.139,0.107,0.139
					c0.055,0,0.094-0.031,0.115-0.093l0.002-1.374l0.069-0.164c0.045-0.119,0.079-0.229,0.102-0.325
					c0.021-0.097,0.031-0.155,0.031-0.176c0-0.041-0.013-0.097-0.124-0.097c-0.088,0-0.098,0.039-0.1,0.052
					c-0.082,0.333-0.175,0.593-0.273,0.771c-0.1,0.177-0.223,0.335-0.367,0.469c-0.021,0.019-0.033,0.044-0.033,0.079
					c0,0.039,0.012,0.069,0.035,0.092c0.022,0.023,0.049,0.035,0.08,0.035c0.021,0,0.039-0.004,0.052-0.012
					c0.007-0.004,0.031-0.023,0.124-0.125c0.071-0.078,0.12-0.136,0.15-0.178L103.879,59.614z M105.381,60.653
					c-0.106,0-0.22-0.029-0.337-0.086c-0.122-0.057-0.183-0.123-0.183-0.198c0-0.042,0.017-0.081,0.051-0.114
					c0.033-0.033,0.072-0.05,0.114-0.05c0.018,0,0.051,0.009,0.151,0.073c0.071,0.045,0.13,0.068,0.176,0.068
					c0.037,0,0.088-0.013,0.088-0.117v-1.164h-0.582c-0.051,0.107-0.109,0.217-0.173,0.322c-0.066,0.109-0.123,0.191-0.171,0.252
					c-0.051,0.064-0.104,0.098-0.157,0.098c-0.038,0-0.073-0.014-0.101-0.039c-0.029-0.027-0.043-0.059-0.043-0.098
					s0.014-0.076,0.044-0.116c0.217-0.276,0.375-0.604,0.473-0.974c0.017-0.048,0.061-0.07,0.131-0.07
					c0.063,0,0.109,0.02,0.135,0.061c0.025,0.039,0.034,0.073,0.024,0.101l-0.055,0.168h1.517c0.065,0,0.126,0.024,0.179,0.073
					c0.055,0.049,0.081,0.125,0.081,0.228c0,0.085-0.024,0.173-0.071,0.263c-0.046,0.089-0.078,0.146-0.096,0.172
					c-0.021,0.03-0.052,0.045-0.093,0.045c-0.042,0-0.079-0.014-0.113-0.042c-0.034-0.029-0.051-0.064-0.051-0.104
					c0-0.033,0.013-0.066,0.038-0.101c0.065-0.14,0.08-0.198,0.08-0.222c0-0.021-0.007-0.021-0.013-0.021h-0.687v1.249
					c0,0.098-0.031,0.18-0.09,0.244C105.587,60.62,105.497,60.653,105.381,60.653z M105.026,60.237
					c-0.034,0-0.064,0.014-0.092,0.041c-0.028,0.026-0.042,0.059-0.042,0.091c0,0.062,0.056,0.118,0.165,0.17
					c0.113,0.054,0.222,0.082,0.323,0.082c0.107,0,0.189-0.03,0.244-0.089c0.055-0.06,0.082-0.133,0.082-0.223v-1.281h0.718
					c0.013,0,0.044,0.006,0.044,0.053c0,0.039-0.027,0.117-0.084,0.238c-0.023,0.031-0.034,0.059-0.034,0.084
					c0,0.031,0.013,0.057,0.04,0.08s0.059,0.035,0.093,0.035c0.03,0,0.052-0.011,0.065-0.031c0.018-0.024,0.05-0.081,0.096-0.168
					c0.045-0.086,0.067-0.17,0.067-0.249c0-0.093-0.024-0.161-0.07-0.204c-0.048-0.043-0.101-0.064-0.158-0.064h-1.562l0.069-0.21
					c0.006-0.018-0.001-0.043-0.021-0.074c-0.021-0.03-0.056-0.046-0.108-0.046c-0.056,0-0.089,0.016-0.101,0.049
					c-0.098,0.372-0.258,0.704-0.479,0.984c-0.025,0.032-0.037,0.064-0.037,0.096c0,0.029,0.011,0.054,0.033,0.074
					c0.021,0.021,0.049,0.031,0.079,0.031c0.043,0,0.087-0.029,0.133-0.087c0.048-0.059,0.103-0.14,0.169-0.248
					c0.064-0.108,0.124-0.218,0.176-0.327l0.004-0.01h0.633v1.195c0,0.123-0.065,0.148-0.119,0.148
					c-0.053,0-0.115-0.023-0.192-0.073C105.073,60.249,105.039,60.237,105.026,60.237z M106.373,60.522
					c-0.088,0-0.113-0.052-0.119-0.096c-0.009-0.053-0.041-0.188-0.1-0.412c-0.058-0.219-0.135-0.422-0.229-0.604
					c-0.009-0.02-0.013-0.038-0.013-0.056c0-0.041,0.018-0.075,0.053-0.103c0.033-0.027,0.071-0.042,0.113-0.042
					c0.032,0,0.061,0.011,0.085,0.031c0.017,0.013,0.046,0.055,0.134,0.267c0.064,0.158,0.121,0.331,0.169,0.513
					c0.048,0.187,0.072,0.306,0.072,0.362C106.538,60.446,106.51,60.522,106.373,60.522z M106.078,59.243
					c-0.035,0-0.065,0.011-0.094,0.034c-0.027,0.021-0.04,0.048-0.04,0.078c0,0.014,0.003,0.028,0.009,0.042
					c0.096,0.184,0.174,0.389,0.231,0.608c0.06,0.227,0.092,0.362,0.101,0.416c0.006,0.047,0.035,0.069,0.088,0.069
					c0.119,0,0.134-0.062,0.134-0.107c0-0.055-0.023-0.171-0.071-0.355c-0.048-0.18-0.104-0.351-0.168-0.508
					c-0.08-0.19-0.111-0.244-0.125-0.254C106.125,59.25,106.104,59.243,106.078,59.243z M104.516,60.47
					c-0.037,0-0.072-0.017-0.103-0.051c-0.03-0.035-0.045-0.069-0.045-0.106c0-0.035,0.015-0.068,0.046-0.098
					c0.222-0.225,0.383-0.54,0.477-0.939c0.008-0.037,0.037-0.081,0.129-0.081c0.121,0,0.146,0.069,0.146,0.128
					c0,0.033-0.018,0.111-0.055,0.237c-0.036,0.124-0.083,0.245-0.14,0.361c-0.058,0.116-0.128,0.23-0.21,0.341
					c-0.124,0.165-0.156,0.182-0.166,0.188C104.568,60.462,104.541,60.47,104.516,60.47z M105.02,59.226
					c-0.086,0-0.094,0.043-0.098,0.058c-0.096,0.404-0.26,0.726-0.486,0.954c-0.023,0.023-0.036,0.049-0.036,0.075
					c0,0.029,0.013,0.057,0.038,0.085c0.04,0.046,0.086,0.052,0.144,0.022c0.013-0.006,0.051-0.039,0.155-0.178
					c0.08-0.108,0.15-0.221,0.207-0.336c0.056-0.113,0.102-0.232,0.138-0.355c0.034-0.121,0.053-0.198,0.053-0.229
					C105.134,59.256,105.098,59.226,105.02,59.226z"/>
			</g>
		</g>
	</g>
</g>
</svg>
