<?xml version="1.0" encoding="utf-8"?>
<!-- Generator: Adobe Illustrator 16.0.0, SVG Export Plug-In . SVG Version: 6.00 Build 0)  -->
<!DOCTYPE svg PUBLIC "-//W3C//DTD SVG 1.1//EN" "http://www.w3.org/Graphics/SVG/1.1/DTD/svg11.dtd">
<svg version="1.1" id="Layer_2" xmlns="http://www.w3.org/2000/svg" xmlns:xlink="http://www.w3.org/1999/xlink" x="0px" y="0px"
	 width="160px" height="110px" viewBox="0 0 160 110" enable-background="new 0 0 160 110" xml:space="preserve">
<g>
	<path d="M92.466,53.768c1.202,0,2.151-1.013,2.151-2.242c0-1.265-0.993-2.233-2.199-2.233l-3.644,0.01l0.004,4.467L92.466,53.768z
		 M93.771,60.506l-4.981,0.017l0.009,6.906l-8.136,0.014l-1.753-5.005c-0.379,0.688-1.735,5.664-9.554,5.674
		c-11.101,0.014-11.891-11.181-11.912-13.33C57.409,52.422,58.58,41.904,69.61,41.89c7.707-0.008,9.768,5.893,10.166,8.867
		l-6.845,0.009c-0.434-0.869-1.42-2.187-3.397-2.093c-3.096,0.138-4.638,3.422-4.506,6.61c0.172,3.08,1.299,6.09,4.82,6.345
		c2.831,0.174,3.942-2.322,3.942-2.322l-3.086,0.007l-0.008-5.522l9.958-0.007l-0.018-11.254l13.1-0.025
		c0.432,0,1.233,0.053,2.247,0.288c2.171,0.515,6.565,3.243,6.571,8.722c0.007,5.541-4.52,8.244-6.545,8.694
		C94.956,60.441,94.006,60.506,93.771,60.506"/>
</g>
</svg>
