<?xml version="1.0" encoding="utf-8"?>
<!-- Generator: Adobe Illustrator 16.0.3, SVG Export Plug-In . SVG Version: 6.00 Build 0)  -->
<!DOCTYPE svg PUBLIC "-//W3C//DTD SVG 1.1//EN" "http://www.w3.org/Graphics/SVG/1.1/DTD/svg11.dtd">
<svg version="1.1" id="Layer_2" xmlns="http://www.w3.org/2000/svg" xmlns:xlink="http://www.w3.org/1999/xlink" x="0px" y="0px"
	 width="160px" height="110px" viewBox="0 0 160 110" enable-background="new 0 0 160 110" xml:space="preserve">
<g>
	<path d="M41.511,47.182c0.658-0.086,1.373,0.116,2.118,0.06c0.343,0.057,0.742,0.057,0.971,0.342
		c0.058,0.172-0.085,0.258-0.198,0.312c-0.287,0.116-0.516-0.055-0.772-0.055c-0.944,0.113-1.89-0.285-2.747,0
		c-0.371,0.201-0.4,0.629-0.429,1.029c0.086,0.401,0.115,0.916,0.572,1.115c0.915,0.486,2.087,0.258,3.147,0.432
		c0.943,0.111,1.945,0.198,2.889,0.198c0.372,0.085,0.801,0.085,1.059,0.372c0.029,0.145-0.028,0.259-0.113,0.347
		c-1.117-0.032-2.234-0.174-3.291-0.261c-1.287-0.113-2.719,0.029-3.862-0.485c-0.114,0.057-0.114,0.228-0.057,0.345
		c0.171,0.313,0.515,0.199,0.743,0.341c1.088,0.456,2.289,0.259,3.49,0.486c0.628,0,1.229,0.286,1.801,0.486
		c0.744,0.286,1.061,1.032,1.461,1.631c0.027,0.2,0.114,0.343,0,0.513c-0.088,0.116-0.258,0.088-0.373,0.057
		c-0.458-0.455-0.744-1.115-1.316-1.514c-1.088-0.716-2.573-0.543-3.83-0.801c-0.574,0.029-1.146-0.145-1.69-0.259
		c-0.086,0.088-0.229,0.058-0.229,0.173c-0.028,0.2,0.199,0.287,0.313,0.373c0.488,0.171,0.944,0.372,1.488,0.312
		c0.485,0.113,1.118,0.06,1.631,0.229c0.287-0.028,0.572,0.169,0.83,0.259c0.688,0.687,0.857,1.631,0.828,2.604
		c-0.141,0.229-0.027,0.513-0.228,0.684c-0.202,0.028-0.4-0.057-0.458-0.257c-0.111-0.915,0.058-2.117-0.915-2.604
		c-1.002-0.172-2.031-0.4-3.032-0.428c-0.145,0.085-0.344,0.143-0.4,0.286c-0.086,0.371,0.314,0.371,0.515,0.485
		c0.686,0.315,1.458,0.429,2.116,0.859c0.087,0.143,0.231,0.312,0.144,0.513c-0.172,0.145-0.429,0.116-0.629,0.028
		c-0.858-0.34-1.745-0.657-2.575-1.085c-0.114-0.028-0.287,0-0.343,0.14c-0.058,0.518,0.544,0.717,0.801,1.062
		c0.343,0.255,0.8,0.401,0.972,0.859c0,0.113-0.086,0.228-0.198,0.256c-0.773-0.172-1.346-0.742-2.002-1.202
		c-0.259-0.402-0.603-0.858-0.374-1.4c0.057-0.515,0.802-0.601,0.857-1.144c-0.056-0.374-0.229-0.689-0.343-1.004
		c-0.285-2.03,0.487-4.402-0.485-6.178c-0.029-0.115,0.056-0.229,0.172-0.286c0.086-0.028,0.199-0.028,0.285,0.027
		C40.597,45.896,40.253,47.356,41.511,47.182"/>
	<path d="M44.457,57.367c0.029,0.17-0.142,0.228-0.258,0.285c-0.687,0.116-1.2-0.115-1.829-0.2v-0.054l1.143-0.402
		C43.829,57.083,44.286,56.938,44.457,57.367"/>
	<path d="M40.968,57.367c0.086,0.057,0.086,0.17,0.028,0.257c-0.256,0.112-0.457-0.087-0.716-0.059
		c-0.569,0.059-1.058,0.146-1.63,0.029c-0.171-0.058-0.143-0.256-0.056-0.344C39.366,56.821,40.167,57.339,40.968,57.367"/>
	<path d="M49.979,56.652c-0.113-0.828,0.059-1.659-0.287-2.374c0.314-1.26,0.086-2.632-0.113-3.861
		c0.172-0.917,0.143-1.976,0.172-2.946c0.115-0.517-0.059-1.032-0.059-1.544c0.459-0.574-0.056-1.291,0.144-2.005
		c-0.058-0.686-0.487-1.429-0.026-2.061c-0.059-0.743,0.057-1.63-0.402-2.229c-0.486-0.745-1.373-0.831-2.203-0.831l-7.981-0.056
		c-1.286,0.2-2.89-0.373-3.747,0.887c-0.198,0.43-0.172,1.001-0.172,1.515c0.115,0.715-0.058,1.46-0.026,2.204
		c-0.145,1.573,0.111,3.232-0.031,4.776c0.173,0.916-0.141,1.858,0,2.72c-0.086,1.454,0.257,3.002-0.057,4.46
		c0.114,0.659,0,1.403,0.057,2.002c0.058,2.778,0.173,5.577,0.058,8.325c0.085,0.284,0.027,0.744,0.431,0.771
		c0.112-0.085,0.171-0.198,0.196-0.341c0.146-1.002,0-2.032,0.061-3.119c-0.061-0.286-0.172-0.544-0.145-0.857
		c0.516-1.116,0.084-2.462,0.287-3.691c0.086-0.285,0.229-0.601,0.542-0.66c0.26-0.171,0.688-0.055,0.829-0.338
		c-0.398-0.403-1.285-0.204-1.371-0.918c0.086-0.688-0.114-1.375-0.203-2.034c-0.141-0.74,0.146-1.456,0.146-2.173
		c-0.114-1.629,0.257-3.431-0.257-4.95c0.2-0.683,0.172-1.484,0.344-2.172c0.086-0.83-0.718-1.602-0.144-2.402
		c0.085-0.398-0.285-0.659-0.229-1.088c0.229-0.429,0.258-0.972,0.373-1.457c0.256-0.459,0.83-0.43,1.23-0.658
		c1.057-0.201,2.26,0.144,3.402-0.06c0.258-0.026,0.4-0.313,0.716-0.228c0.286,0.059,0.258,0.431,0.313,0.658
		c-0.027,0.171-0.112,0.287-0.227,0.4c-1.23,0.228-2.719,0.028-4.094,0.175c-0.599,0.284-0.541,1-0.656,1.572
		c0.43,1.172-0.057,2.345,0.172,3.573c-0.027,1.66,0.027,3.518,0.086,5.178c-0.059,1.431-0.059,2.747,0.085,4.148
		c0.03,0.399-0.144,0.799,0.144,1.144c0.086,0.027,0.286,0.144,0.371-0.024c0.145-0.662,0.173-1.318,0.145-2.037
		c-0.173-0.826,0.057-1.627-0.2-2.399c-0.146-0.858,0.084-1.716,0.056-2.521c0.145-1.199-0.144-2.37,0-3.574
		c0.173-1.287-0.342-2.744,0.201-3.976c0.087-0.059,0.172-0.172,0.286-0.059c1.144,1.089,0.343,2.691,0.372,4.034
		c0.029,0.144,0.143,0.259,0.314,0.201c0.085-0.029,0.172-0.115,0.2-0.201c0.115-0.857,0.257-1.686,0.341-2.574
		c0.059-0.115,0.174-0.312,0.348-0.257c0.627,0.487,0.426,1.431,0.569,2.175c0.03,0.172,0.2,0.287,0.372,0.313
		c0.315-0.371,0.143-0.944,0.143-1.428c-0.057-0.632,0.144-1.431-0.484-1.833c-0.287-0.029-0.459-0.345-0.773-0.258
		c-0.174-0.058-0.258-0.229-0.229-0.4c0.171-0.514,0.516,0.172,0.828-0.113c0.546-0.145,1.26,0,1.862-0.115
		c0.343,0.085,0.742-0.144,0.971,0.197c-0.114,0.719-0.944,0.374-1.288,0.919c-0.026,0.315,0.317,0.372,0.488,0.571
		c0.201,0.975-0.059,2.118,0.058,3.09c0,0.142,0.171,0.229,0.114,0.371c-0.574,0.142-0.945-0.229-1.403-0.283
		c-0.114,0.054-0.256,0.081-0.256,0.226c0.056,0.114,0.056,0.231,0.198,0.315c0.859,0.343,1.889,0.459,2.862,0.515
		c0.258,0.058,0.515-0.028,0.773,0.058c0.313,0.283,0.887,0.086,1.027,0.572c0.057,0.171,0.029,0.43-0.171,0.515
		c-0.66,0.401-1.516,0.143-2.26,0.115c-0.742,0.084-1.859-0.257-2.232,0.542c-0.143,0.371,0.173,0.573,0.345,0.83
		c1.345,0.66,3.174,0.172,4.69,0.487c0.459,0,1.001,0.259,1.4-0.059c0.03-0.143-0.027-0.285-0.142-0.37
		c-0.828-0.173-1.802-0.173-2.688-0.229c-0.829-0.113-1.66,0.057-2.402-0.2c-0.085-0.057-0.257-0.172-0.145-0.285
		c0.545-0.202,1.289-0.115,1.889-0.088c0.83-0.114,2.031,0.285,2.432-0.686c0.115-0.314,0.171-0.629-0.028-0.887
		c-0.399-0.371-0.828-0.688-1.345-0.632c-0.629-0.282-1.402-0.228-2.061-0.456l0.029-0.027c0.285-0.145,0.716-0.145,1.116-0.085
		c1.117,0.055,2.173,0.228,3.26,0.37c0.229,0,0.517,0.115,0.687-0.116c0.116-0.142-0.057-0.284-0.17-0.371
		c-0.573-0.142-1.23-0.142-1.803-0.313c-0.086-0.056-0.144-0.141-0.113-0.258c0.428-0.285,1.057-0.085,1.571-0.172
		c0.114-0.055,0.345-0.028,0.286-0.255c-0.458-0.402-1.028-0.232-1.602-0.374c-0.085-0.057-0.229-0.114-0.201-0.229
		c0.544-0.486,1.317,0.143,1.832-0.374c0.029-0.112,0.029-0.171-0.029-0.255c-0.485-0.174-1.058-0.086-1.518-0.143
		c-0.141-0.087-0.34-0.197-0.312-0.394c0.057-0.145,0.201-0.252,0.312-0.252h1.605c0.141,0,0.285-0.066,0.257-0.234
		c-0.028-0.115-0.146-0.146-0.229-0.203c-0.459-0.088-1.032,0.068-1.401-0.219c-0.145-0.255-0.145-0.565-0.145-0.852
		c0.059-0.203,0.285-0.198,0.43-0.252c0.515-0.086,1.259,0.055,1.373-0.542c-0.285-0.4-0.831-0.168-1.231-0.285
		c-0.687,0.117-1.343-0.028-2.001,0.028c-0.715-0.057-1.602,0.229-2.031-0.401c-0.084-0.171,0-0.37,0.171-0.483
		c0.658-0.06,1.374,0.085,2.003-0.116c0.431-0.057,0.829,0.172,1.259,0.172c0.6-0.197,1.258,0,1.86,0.087
		c0.628,0.371,0.971,1.058,0.858,1.857c-0.028,0.144,0.198,0.259,0.056,0.431c0.057,0.801-0.028,1.688-0.084,2.488
		c0.084,1.889-0.088,3.806,0,5.749c-0.143,1.375-0.088,2.86,0.113,4.234c-0.058,0.659-0.287,1.317-0.144,2.031l-0.229,0.37
		c-0.458,0.546-1.431-0.169-1.745,0.658c0,0.115,0.144,0.057,0.2,0.145c0.488-0.114,1.004,0.058,1.487,0.112
		c0.544,0.204,0.229,0.92,0.287,1.348c-0.028,0.684,0.284,1.429-0.028,2.03c0.028,2.258-0.059,4.606,0.059,6.807
		c0.056,0.66,0.084,1.402-0.174,1.975c-0.144,0.231-0.399,0.371-0.656,0.4c-0.286-0.285,0.055-0.857-0.203-1.2
		c0.146-1.344-0.256-2.575-0.056-3.835c0.056-0.542-0.2-0.999-0.259-1.544c-0.343-0.371,0-0.831-0.143-1.26
		c-0.172-0.913,0.603-1.544,0.689-2.4c-0.059-0.629,0.025-1.461-0.718-1.66c-0.858,0.059-1.63-0.173-2.487-0.056
		c-1.631-0.229-2.977,0.315-4.605,0.028c-0.545,0.142-1.23,0.086-1.803,0.027c-0.43,0-0.888-0.056-1.23,0.171
		c-0.057,0.115,0,0.229,0,0.373c0.145,0.313,0.457,0.285,0.717,0.342c0.656,0.03,1.571-0.285,1.945,0.344
		c0.112,0.257,0.112,0.659-0.202,0.774c-0.771,0.085-1.63-0.145-2.345,0.056c-0.172,0.057-0.229,0.229-0.202,0.4
		c0.146,0.46,0.804,0.286,1.202,0.286c0.545,0.144,1.487-0.316,1.602,0.487c-0.055,0.257-0.055,0.572-0.341,0.686
		c-0.659,0.229-1.518,0-2.175,0.142c-0.172,0.06-0.288,0.26-0.201,0.46c0.457,0.4,1.201,0.199,1.803,0.256
		c0.114,0.059,0.199,0.116,0.173,0.26c-0.287,0.715-1.091,0.799-1.576,1.344c-0.142,0.228-0.255,0.484-0.198,0.771
		c-0.345,0.916-0.057,2.061-0.229,3.033c-0.116,0.543,0.255,1.201-0.287,1.546c-0.144,0.054-0.4,0.054-0.574,0
		c-0.627-0.315-0.484-1.09-0.516-1.747c-0.025-0.459-0.025-0.943-0.283-1.286c-0.145,0-0.114,0.173-0.202,0.257
		c-0.114,1-0.427,2.346,0.316,3.146c0.657,0.372,1.259,0.916,2.089,0.716c0.172,0.03,0.369,0.058,0.543,0
		c0.143-0.084,0.314-0.2,0.314-0.372c-0.027-0.172-0.2-0.257-0.342-0.284c-0.344-0.144-0.4-0.486-0.516-0.803
		c0.057-0.744,0.115-1.516,0.028-2.316c0.087-0.545,0.2-1.087,0.173-1.66c0.229-0.569,0.742-1.029,1.285-1.259
		c0.916-0.37,1.287-1.801,2.402-1.456c1.23-0.116,2.547,0,3.691-0.289c0.429-0.027,0.945-0.285,1.316,0
		c0.315,0.432,0.343,1.061,0.315,1.603c0.112,1.431,0.284,2.946,0.199,4.463c-0.116,0.516,0.285,1.002-0.029,1.458
		c-0.258,0.544-0.771,0.028-1.144,0.028c-0.487,0.116-1.029-0.087-1.488,0.088c-0.771-0.175-1.573,0.057-2.346-0.059
		c-0.686,0.143-1.259-0.116-1.917-0.029c-0.456,0.231-1.373-0.112-1.429,0.604c0.029,0.17,0.199,0.228,0.313,0.284
		c0.972-0.057,1.831,0.03,2.806,0c1.4-0.084,2.688,0.03,4.09-0.028c0.629-0.056,1.256-0.37,1.857-0.028
		c0.545,0.028,1.088-0.027,1.402-0.513c0.543-0.547,0.432-1.348,0.543-2.062c-0.229-0.889,0-1.887-0.085-2.775
		c0.058-1.115-0.058-2.316,0.085-3.431c0.086-0.659-0.284-1.148-0.17-1.833C50.179,59.369,49.836,57.88,49.979,56.652z
		 M43.686,42.006c0.458-0.345,1.06-0.544,1.66-0.43l0.085,0.143c0.03,0.2-0.028,0.371-0.172,0.431
		c-0.429,0.227-1.029,0.201-1.515,0.083C43.656,42.205,43.656,42.09,43.686,42.006z M43.513,42.978
		c0.402,0.115,0.773-0.029,1.174,0.087c0.084,0.085,0.059,0.2,0,0.286c-0.429,0.113-0.857,0-1.258-0.143
		C43.399,43.149,43.399,42.978,43.513,42.978z M43.542,43.951c0.4,0.055,0.888,0.055,1.288,0.171
		c0.028,0.087,0.086,0.229,0.028,0.314c-0.2,0.172-0.457,0.086-0.686,0.086c-0.258-0.258-0.945,0.086-0.887-0.43
		C43.343,43.979,43.486,44.035,43.542,43.951z M43.286,45.124c0.256-0.2,0.629-0.03,0.887-0.057l0.715,0.142
		c0.057,0.057,0.028,0.172,0.028,0.228c-0.459,0.175-1.03,0.144-1.487,0.03C43.313,45.409,43.171,45.266,43.286,45.124z
		 M44.345,62.172c-0.945,0.059-1.889,0.203-2.891,0.229c-0.229-0.026-0.516-0.057-0.602-0.313c0.059-0.346-0.112-0.831,0.288-0.974
		c1.171-0.057,2.288-0.087,3.46-0.057c0.43,0,0.83,0.143,1.172,0.345c0.117,0.056,0.117,0.228,0.172,0.34
		C45.602,62.23,44.858,62.03,44.345,62.172z M46.86,60.972l-0.228-0.029c-0.688-0.657-1.717-0.6-2.69-0.6
		c-1.001-0.058-2.058,0.199-3.004-0.058c-0.171-0.116-0.171-0.343-0.143-0.543c0.258-0.89,1.346-0.603,2.061-0.658
		c1.059,0.17,2.117-0.172,3.088,0.056c0.572,0.029,1.373,0.059,1.402,0.774C47.374,60.343,47.262,60.8,46.86,60.972z"/>
	<path d="M46.003,64.518c0.344,0.401,0.227,1.058,0.086,1.458c0.141,0.916,0.258,2.003-0.458,2.663
		c-0.601,0.341-1.259,0.601-2.03,0.515c-0.717-0.174-1.459,0.312-2.203,0c-0.601,0.17-1.145-0.086-1.603-0.43
		c-0.887-0.828-0.429-2.061-0.715-3.148c0.058-0.229-0.028-0.6,0.257-0.686c0.374,0,0.432,0.543,0.802,0.632
		c0.571,0.142,1.145-0.089,1.746-0.028c1.144-0.031,2.145-0.061,3.231-0.232c0.515-0.142,0.031-0.943,0.656-0.887L46.003,64.518z
		 M45.06,66.151c-1.66,0.056-3.32,0.056-5.062,0.056l-0.286,0.314c0.026,0.399,0,0.855,0.255,1.171
		c0.143,0.574,0.774,0.715,1.289,0.773c0.716-0.144,1.459-0.03,2.174-0.03c0.715-0.056,1.602,0,1.974-0.685
		c0.028-0.517,0.112-1.145-0.172-1.544L45.06,66.151z"/>
	<path d="M68.718,65.376l0.042-0.817h1.904v0.817H68.718z M71.323,65.958h1.241v-0.582h-1.241v-1.399H65.94v0.582h2.16
		c-0.014,0.363-0.035,0.636-0.064,0.817h-3.009v0.582h2.95c-0.006,0.098-0.087,0.38-0.242,0.848h-1.793v0.582h1.496
		c-0.604,0.822-1.498,1.48-2.684,1.977c0.074,0.074,0.16,0.174,0.256,0.295c0.096,0.122,0.169,0.21,0.217,0.262
		c0.526-0.152,1.139-0.52,1.837-1.099v2.404h0.659v-0.613h3.129v0.593h0.659v-3.032h-3.81c0.211-0.282,0.37-0.545,0.476-0.786h3.146
		V65.958z M68.462,66.806c0.083-0.286,0.148-0.568,0.2-0.848h2.002v0.848H68.462z M70.853,70.032h-3.13v-1.276h3.13V70.032z"/>
	<path d="M75.548,65.019l1.917,0.021v0.377h-1.917V65.019z M78.447,64.298c-0.312-0.366-0.708-0.653-1.19-0.862l-0.48,0.422
		c0.459,0.225,0.752,0.417,0.881,0.579h-1.893c0.133-0.205,0.243-0.414,0.332-0.63l-0.59-0.228
		c-0.489,1.057-1.104,1.846-1.847,2.366l0.54,0.381c0.258-0.192,0.479-0.386,0.659-0.579v2.596h0.659v-0.414h5.522v-0.582h-2.917
		v-0.43h2.258v-0.581h-2.258v-0.337h2.232v-0.582h-2.232v-0.398h2.781v-0.582h-2.633V64.42L78.447,64.298z M75.519,65.999h1.945
		v0.337h-1.945V65.999z M75.519,67.347l-0.018-0.43l1.964,0.018v0.412H75.519z M77.933,69.174c0.58,0.797,1.666,1.335,3.256,1.614
		l0.34-0.586c-1.27-0.188-2.219-0.581-2.848-1.181h2.482v-0.583h-3.248v-0.46h-0.66v0.46h-3.222v0.583h2.427
		c-0.728,0.604-1.67,1.007-2.826,1.206c0.064,0.081,0.136,0.186,0.209,0.318c0.076,0.131,0.131,0.22,0.166,0.268
		c1.495-0.311,2.567-0.856,3.217-1.64h0.029v2.016l0.66,0.017v-2.032H77.933z"/>
	<path d="M89.146,70.104h-5.566v-5.587h5.566V70.104z M89.146,71.176h0.659v-7.239h-6.886v7.239h0.659v-0.49h5.567V71.176z
		 M88.651,68.464l0.45-0.166c-0.161-0.273-0.351-0.502-0.567-0.686h0.036v-1.981h-1.873l-0.01-0.133h2.251v-0.582h-2.26l0.009-0.331
		h-0.641l-0.009,0.331H83.78v0.582h2.249l0.009,0.133h-1.801v1.981h1.801v0.238l-2.343,0.017l0.302,0.581l3.289-0.111v0.143h-3.498
		v0.583h0.906l-0.251,0.204c0.426,0.174,0.786,0.396,1.079,0.667l0.418-0.415c-0.162-0.137-0.314-0.247-0.457-0.331
		c-0.144-0.083-0.227-0.125-0.248-0.125h2.059c0,0.186-0.018,0.3-0.054,0.343c-0.035,0.043-0.101,0.061-0.197,0.055l-0.829-0.037
		l0.2,0.619h1.05c0.123,0,0.234-0.047,0.336-0.139c0.102-0.093,0.153-0.21,0.153-0.349v-0.492h1.073v-0.583h-0.375V68.464z
		 M87.911,66.366h-1.214v-0.153h1.214V66.366z M84.889,66.213h1.149v0.153h-1.141L84.889,66.213z M84.897,66.947h1.141v0.082h-1.141
		V66.947z M86.697,66.947h1.214v0.082h-1.214V66.947z M86.697,67.788v-0.176h1.214v0.006l-0.166,0.05l0.123,0.087L86.697,67.788z
		 M88.344,68.337c0.017,0.011,0.066,0.059,0.149,0.143h-0.54v-0.143H88.344z"/>
	<path d="M97.177,67.377H93.87v-0.725h3.307V67.377z M93.21,71.186h0.66v-1.827h3.307v0.893c0,0.059-0.023,0.1-0.066,0.123
		c-0.044,0.024-0.171,0.035-0.381,0.035c-0.277,0-0.546-0.017-0.803-0.05c0.05,0.134,0.151,0.345,0.302,0.632h0.706
		c0.197-0.002,0.345-0.018,0.44-0.045c0.096-0.028,0.179-0.074,0.249-0.137c0.071-0.064,0.123-0.132,0.158-0.203
		c0.035-0.072,0.054-0.136,0.054-0.191V66.07h-3.95c0.08-0.155,0.185-0.43,0.316-0.827h4.688v-0.582h-4.438l0.29-1.051l-0.673-0.145
		c-0.15,0.617-0.262,1.017-0.336,1.195h-2.074v0.582h1.828c-0.364,1.002-1.15,2.028-2.36,3.078l0.611,0.393
		c0.812-0.818,1.297-1.355,1.454-1.607h0.018V71.186z M97.177,68.775H93.87v-0.817h3.307V68.775z"/>
	<path d="M106.272,65.447h-2.344v-0.939h2.344V65.447z M100.476,63.926v7.28l0.659-0.017v-6.682h1.082
		c-0.116,0.385-0.372,1.025-0.767,1.922c0.612,0.54,0.92,1.065,0.92,1.578c0,0.376-0.167,0.563-0.502,0.563
		c-0.127,0-0.337-0.033-0.629-0.099l0.156,0.644c0.189,0.025,0.343,0.037,0.46,0.037c0.331,0,0.61-0.118,0.835-0.356
		c0.226-0.238,0.339-0.543,0.339-0.911c0-0.541-0.276-1.062-0.829-1.563l0.735-1.772v-0.624H100.476z M105.839,68.816
		c-0.164-0.315-0.277-0.728-0.341-1.235h1.435v-3.655h-3.663v6.146c0,0.26-0.14,0.459-0.421,0.595l0.549,0.428l1.867-0.808v-0.651
		l-1.336,0.538v-2.592h0.91c0.082,0.922,0.373,1.694,0.869,2.317c0.494,0.624,1.031,1.046,1.609,1.267l0.4-0.539
		c-0.734-0.291-1.27-0.717-1.602-1.277c0.674-0.483,1.166-0.879,1.479-1.185l-0.492-0.444L105.839,68.816z M103.929,66.028h2.361
		l-0.018,0.954l-2.344,0.017V66.028z"/>
	<path d="M111.431,64.049h2.814c0.39,1.54,1.105,2.613,2.146,3.215l-0.485,0.493c-1.015-0.568-1.754-1.611-2.22-3.127h-2.256V64.049
		z M109.585,67.805l-0.516-0.501c1.038-0.658,1.721-1.494,2.047-2.506l0.556,0.341C111.38,66.134,110.685,67.022,109.585,67.805
		 M113.505,68.382l0.643-0.277c0.738,0.688,1.279,1.551,1.619,2.588l-0.664,0.299c-0.084-0.279-0.212-0.594-0.382-0.941
		l-2.533,0.382c-0.826,0.124-1.401,0.228-1.731,0.315l-0.437-0.623c1.101-0.948,1.81-2.213,2.124-3.795l0.672,0.22
		c-0.166,1.183-0.756,2.319-1.768,3.404l0.018,0.018l3.37-0.502C114.194,69.09,113.884,68.728,113.505,68.382"/>
	<path d="M119.725,67.479h2.345v1.327h-2.345V67.479z M118.52,63.926v0.582h5.633v5.858c0,0.145-0.073,0.217-0.218,0.217
		c-0.527,0-0.882-0.014-1.062-0.041l0.225,0.623h0.859c0.342,0,0.569-0.074,0.685-0.226c0.113-0.151,0.17-0.315,0.17-0.495v-6.519
		H118.52z M118.084,65.999h5.607v-0.582h-5.607V65.999z M119.066,66.897v3.122h0.658v-0.631h2.345v0.605h0.659v-3.097H119.066z"/>
	<path d="M60.259,64.687v-0.008h0.889v0.008l-0.323,0.128c0.218,0.122,0.34,0.208,0.366,0.259h-0.864l0.149-0.267L60.259,64.687z
		 M59.518,67.223h0.46c-0.072,0.059-0.132,0.113-0.184,0.163h-1.68v2.645c-0.086-0.05-0.158-0.087-0.217-0.112
		c-0.141,0.371-0.459,0.691-0.959,0.96l0.584,0.377c0.426-0.279,0.725-0.62,0.898-1.021l-0.248-0.154v-0.017h0.938v0.017
		l-0.516,0.188c0.331,0.191,0.561,0.475,0.685,0.852l0.562-0.249c-0.146-0.329-0.344-0.593-0.597-0.79v-0.017h1.099v0.017
		l-0.478,0.171c0.336,0.172,0.559,0.462,0.668,0.868l0.57-0.273c-0.161-0.363-0.338-0.624-0.531-0.782h0.949l0.018,0.017
		l-0.366,0.129c0.274,0.162,0.449,0.376,0.522,0.645l0.141-0.025c0.054,0.186,0.082,0.297,0.085,0.332
		c0.2,0.022,0.379,0.033,0.541,0.033c0.283,0,0.491-0.046,0.623-0.137s0.23-0.268,0.296-0.529s0.102-0.575,0.109-0.939h-4.74v-0.085
		h4.601v-0.427h-4.601V68.93h4.002v-1.544h-2.104l0.077-0.163h3.06v-0.477h-1.873l-0.008-0.112h1.396V66.21h-1.388v-0.12h1.412
		v-0.424h-1.42l0.008-0.12h1.655v-0.473h-1.663c-0.045-0.152-0.112-0.285-0.2-0.395h2.055v-0.578h-3.067
		c-0.111-0.229-0.3-0.464-0.566-0.706l-0.659,0.374c0.304,0.188,0.465,0.299,0.485,0.332h-3.243v4.27
		c0,0.987-0.261,1.824-0.782,2.508l0.549,0.356c0.312-0.341,0.538-0.761,0.68-1.26c0.14-0.5,0.21-1.035,0.21-1.604v-2.135h0.017
		l0.25,0.332c0.253-0.108,0.408-0.182,0.465-0.22v0.991h0.654v-1.323l0.384,0.365c0.244-0.152,0.366-0.236,0.366-0.254h0.017V67.223
		z M57.365,66.016v-1.337h1.356C58.495,65.259,58.042,65.705,57.365,66.016 M58.879,64.679h0.979
		c-0.156,0.423-0.525,0.822-1.107,1.199l-0.008-0.12c0.192-0.216,0.383-0.504,0.567-0.864l-0.432-0.199V64.679z M60.187,65.666
		v-0.12h1.063l0.009,0.12H60.187z M60.187,66.09h1.063l0.009,0.12h-1.072V66.09z M61.259,66.746h-1.072v-0.112h1.072V66.746z
		 M58.751,67.858h3.329l0.008,0.104h-3.337V67.858z M62.088,68.481h-3.337v-0.096h3.337V68.481z M62.263,70.615
		c-0.114-0.232-0.244-0.416-0.392-0.553h0.967c-0.043,0.275-0.087,0.452-0.129,0.532c-0.043,0.08-0.121,0.121-0.238,0.121
		c-0.051,0-0.106-0.008-0.17-0.021c-0.062-0.014-0.095-0.021-0.099-0.021l-0.021-0.017L62.263,70.615z"/>
	<path d="M61.14,45.53c-0.414-0.266-0.861-0.397-1.622-0.397c-1.359,0-2.263,0.97-2.263,2.263c0,1.359,0.996,2.263,2.221,2.263
		c0.583,0,0.734-0.059,0.946-0.1v-1.757h-1.241v-0.68h2.086v3.008c-0.321,0.108-0.879,0.258-1.8,0.258
		c-1.866,0-3.107-1.178-3.107-3.017c0-1.782,1.317-2.967,3.116-2.967c0.861,0,1.241,0.124,1.731,0.289L61.14,45.53z"/>
	<path d="M62.77,46.061h0.743v0.656h0.018c0.211-0.44,0.667-0.755,1.123-0.755c0.236,0,0.355,0.024,0.523,0.059v0.696
		c-0.143-0.059-0.304-0.075-0.439-0.075c-0.709,0-1.174,0.663-1.174,1.724v1.922H62.77V46.061z"/>
	<path d="M66.696,47.769c0.06-0.547,0.381-1.177,1.158-1.177c0.684,0,1.072,0.53,1.072,1.177H66.696z M69.442,49.335
		c-0.194,0.157-0.803,0.423-1.326,0.423c-0.752,0-1.42-0.572-1.42-1.409h3.076c0-1.359-0.465-2.387-1.901-2.387
		c-1.216,0-2.019,0.887-2.019,2.139c0,1.375,0.701,2.287,2.229,2.287c0.71,0,1.056-0.166,1.36-0.273V49.335z"/>
	<path d="M73.48,48.647c0,0.629-0.414,1.11-1.2,1.11c-0.363,0-0.802-0.241-0.802-0.688c0-0.746,1.063-0.812,1.495-0.812
		c0.168,0,0.338,0.017,0.507,0.017V48.647z M71.166,47.022c0.319-0.266,0.802-0.431,1.25-0.431c0.794,0,1.064,0.372,1.064,1.102
		c-0.313-0.016-0.532-0.016-0.845-0.016c-0.82,0-2.002,0.331-2.002,1.393c0,0.92,0.65,1.317,1.579,1.317
		c0.727,0,1.149-0.39,1.335-0.646h0.018v0.547h0.742c-0.018-0.125-0.034-0.348-0.034-0.828v-1.75c0-1.151-0.498-1.748-1.731-1.748
		c-0.548,0-1.021,0.166-1.419,0.397L71.166,47.022z"/>
	<path d="M77.991,46.691h-1.143v2.312c0,0.488,0.305,0.754,0.669,0.754c0.244,0,0.422-0.075,0.54-0.149v0.664
		c-0.177,0.049-0.422,0.115-0.675,0.115c-0.819,0-1.327-0.381-1.327-1.227v-2.47h-0.971v-0.63h0.971v-0.979l0.793-0.248v1.227h1.143
		V46.691z"/>
	<polygon points="81.622,44.503 84.925,44.503 84.925,45.232 82.468,45.232 82.468,46.923 84.704,46.923 84.704,47.652 
		82.468,47.652 82.468,49.56 84.925,49.56 84.925,50.287 81.622,50.287 	"/>
	<g>
		<path d="M88.845,48.647c0,0.629-0.414,1.11-1.2,1.11c-0.364,0-0.802-0.241-0.802-0.688c0-0.746,1.064-0.812,1.494-0.812
			c0.17,0,0.338,0.017,0.508,0.017V48.647z M86.53,47.022c0.32-0.266,0.802-0.431,1.25-0.431c0.793,0,1.064,0.372,1.064,1.102
			c-0.312-0.016-0.533-0.016-0.846-0.016c-0.818,0-2.002,0.331-2.002,1.393c0,0.92,0.651,1.317,1.579,1.317
			c0.727,0,1.149-0.39,1.337-0.646h0.016v0.547h0.742c-0.016-0.125-0.033-0.348-0.033-0.828v-1.75c0-1.151-0.498-1.748-1.73-1.748
			c-0.551,0-1.022,0.166-1.42,0.397L86.53,47.022z"/>
		<path d="M92.822,49.658c-0.743,0-1.2-0.696-1.2-1.492c0-0.721,0.397-1.575,1.2-1.575c0.845,0,1.259,0.754,1.259,1.634
			C94.081,49.012,93.565,49.658,92.822,49.658 M94.876,46.061H94.14v0.631h-0.017c-0.236-0.456-0.659-0.729-1.419-0.729
			c-1.301,0-1.926,1.159-1.926,2.246c0,1.094,0.607,2.079,1.842,2.079c0.548,0,1.105-0.215,1.443-0.653h0.018v0.414
			c0,0.896-0.499,1.45-1.336,1.45c-0.582,0-0.945-0.106-1.553-0.381l-0.085,0.721c0.692,0.232,1.09,0.29,1.546,0.29
			c1.545,0,2.223-0.736,2.223-2.021V46.061z"/>
	</g>
	<rect x="96.413" y="44.071" width="0.793" height="6.216"/>
	<g>
		<path d="M99.3,47.769c0.059-0.547,0.381-1.177,1.158-1.177c0.684,0,1.073,0.53,1.073,1.177H99.3z M102.046,49.335
			c-0.195,0.157-0.803,0.423-1.326,0.423c-0.752,0-1.42-0.572-1.42-1.409h3.076c0-1.359-0.465-2.387-1.901-2.387
			c-1.216,0-2.019,0.887-2.019,2.139c0,1.375,0.701,2.287,2.229,2.287c0.711,0,1.057-0.166,1.361-0.273V49.335z"/>
	</g>
	<polygon points="56.411,54.227 57.256,54.227 57.256,56.646 60.077,56.646 60.077,54.227 60.921,54.227 60.921,60.011 
		60.077,60.011 60.077,57.376 57.256,57.376 57.256,60.011 56.411,60.011 	"/>
	<g>
		<path d="M63.033,57.898c0-0.805,0.499-1.583,1.353-1.583c0.844,0,1.342,0.778,1.342,1.583c0,0.754-0.412,1.582-1.342,1.582
			C63.447,59.48,63.033,58.652,63.033,57.898 M62.188,57.898c0,1.209,0.896,2.213,2.197,2.213c1.291,0,2.187-1.004,2.187-2.213
			c0-1.285-0.878-2.214-2.187-2.214C63.066,55.685,62.188,56.613,62.188,57.898"/>
	</g>
	<rect x="67.822" y="53.796" width="0.794" height="6.215"/>
	<g>
		<path d="M70.712,57.882c-0.018-0.771,0.32-1.566,1.182-1.566s1.275,0.803,1.275,1.59c0,0.705-0.371,1.576-1.267,1.576
			C71.049,59.481,70.694,58.545,70.712,57.882 M73.202,60.011h0.761v-6.215h-0.794v2.569h-0.018
			c-0.244-0.39-0.675-0.681-1.426-0.681c-1.25,0-1.859,1.003-1.859,2.14c0,1.151,0.549,2.287,1.85,2.287
			c0.77,0,1.258-0.382,1.47-0.696h0.017V60.011z"/>
	</g>
	<path d="M75.5,55.784h0.794v4.227H75.5V55.784z M76.345,54.839h-0.896v-0.878h0.896V54.839z"/>
	<g>
		<path d="M77.831,55.784H78.6v0.671h0.017c0.237-0.479,0.812-0.771,1.411-0.771c1.114,0,1.613,0.681,1.613,1.815v2.511h-0.794
			v-2.187c0-0.987-0.219-1.468-0.912-1.51c-0.904,0-1.31,0.713-1.31,1.741v1.955h-0.794V55.784z"/>
		<path d="M84.833,59.382c-0.744,0-1.199-0.697-1.199-1.493c0-0.72,0.397-1.574,1.199-1.574c0.846,0,1.26,0.755,1.26,1.633
			C86.093,58.735,85.577,59.382,84.833,59.382 M86.886,55.784H86.15v0.63h-0.017c-0.236-0.456-0.658-0.729-1.418-0.729
			c-1.302,0-1.926,1.16-1.926,2.246c0,1.095,0.607,2.08,1.841,2.08c0.549,0,1.105-0.215,1.444-0.653h0.018v0.414
			c0,0.896-0.499,1.45-1.335,1.45c-0.584,0-0.946-0.108-1.555-0.381l-0.085,0.72c0.693,0.232,1.09,0.291,1.547,0.291
			c1.545,0,2.221-0.738,2.221-2.022V55.784z"/>
		<path d="M88.001,59.183c0.312,0.199,0.761,0.298,0.987,0.298c0.364,0,0.812-0.147,0.812-0.604c0-0.771-1.866-0.705-1.866-1.891
			c0-0.878,0.667-1.301,1.521-1.301c0.371,0,0.675,0.075,0.988,0.166l-0.068,0.68c-0.177-0.107-0.65-0.215-0.836-0.215
			c-0.405,0-0.761,0.165-0.761,0.514c0,0.861,1.866,0.613,1.866,1.965c0,0.902-0.734,1.317-1.502,1.317
			c-0.406,0-0.82-0.042-1.183-0.233L88.001,59.183z"/>
	</g>
	<polygon points="94.191,54.227 95.036,54.227 95.036,59.282 97.503,59.282 97.503,60.011 94.191,60.011 	"/>
	<path d="M98.534,55.784h0.793v4.227h-0.793V55.784z M99.378,54.839h-0.896v-0.878h0.896V54.839z"/>
	<g>
		<path d="M100.855,55.784h0.743v0.613h0.018c0.305-0.489,0.735-0.713,1.368-0.713c0.499,0,0.996,0.249,1.226,0.821
			c0.295-0.606,0.945-0.821,1.334-0.821c1.098,0,1.494,0.696,1.494,1.616v2.71h-0.793v-2.52c0-0.521-0.126-1.177-0.769-1.177
			c-0.811,0-1.132,0.778-1.132,1.567v2.129h-0.795v-2.52c0-0.521-0.126-1.177-0.768-1.177c-0.811,0-1.132,0.778-1.132,1.567v2.129
			h-0.795V55.784z"/>
	</g>
	<path d="M108.56,55.784h0.793v4.227h-0.793V55.784z M109.403,54.839h-0.895v-0.878h0.895V54.839z"/>
	<path d="M113.179,56.414h-1.14v2.312c0,0.488,0.304,0.755,0.667,0.755c0.246,0,0.424-0.074,0.54-0.149v0.663
		c-0.178,0.05-0.422,0.116-0.675,0.116c-0.82,0-1.326-0.382-1.326-1.227v-2.471h-0.971v-0.63h0.971v-0.979l0.794-0.248v1.227h1.14
		V56.414z"/>
	<path d="M114.818,57.492c0.059-0.548,0.38-1.177,1.157-1.177c0.684,0,1.072,0.53,1.072,1.177H114.818z M117.563,59.058
		c-0.195,0.157-0.803,0.424-1.327,0.424c-0.751,0-1.418-0.572-1.418-1.409h3.073c0-1.36-0.463-2.388-1.899-2.388
		c-1.216,0-2.019,0.888-2.019,2.14c0,1.375,0.701,2.287,2.229,2.287c0.711,0,1.057-0.166,1.361-0.273V59.058z"/>
	<path d="M119.599,57.882c-0.018-0.771,0.32-1.566,1.183-1.566c0.86,0,1.275,0.803,1.275,1.59c0,0.705-0.372,1.576-1.268,1.576
		C119.937,59.481,119.581,58.545,119.599,57.882 M122.09,60.011h0.761v-6.215h-0.794v2.569h-0.017
		c-0.246-0.39-0.676-0.681-1.428-0.681c-1.25,0-1.858,1.003-1.858,2.14c0,1.151,0.549,2.287,1.851,2.287
		c0.768,0,1.258-0.382,1.469-0.696h0.017V60.011z"/>
</g>
</svg>
