<?xml version="1.0" encoding="utf-8"?>
<!-- Generator: Adobe Illustrator 21.0.2, SVG Export Plug-In . SVG Version: 6.00 Build 0)  -->
<svg version="1.1" xmlns="http://www.w3.org/2000/svg" xmlns:xlink="http://www.w3.org/1999/xlink" x="0px" y="0px"
	 viewBox="0 0 160 110" style="enable-background:new 0 0 160 110;" xml:space="preserve">
<style type="text/css">
	.st0{fill:#FFFFFF;}
	.st1{fill:#231F20;}
	.st2{fill:none;}
</style>
<g id="Layer_1">
	<title>bloomberg-businessweek-logo</title>
	<rect x="0.2" class="st0" width="160" height="110"/>
</g>
<g id="Layer_2">
	<g>
		<g>
			<g>
				<path class="st1" d="M66.6,57.5h1.1c0.1,0,0.1,0.1,0.1,0.1v2.3h2.5v-2.3c0-0.1,0.1-0.1,0.1-0.1h1.1c0.1,0,0.1,0.1,0.1,0.1v5.9
					c0,0.1-0.1,0.1-0.1,0.1h-1.1c-0.1,0-0.1-0.1-0.1-0.1v-2.4h-2.5v2.4c0,0.1-0.1,0.1-0.1,0.1h-1.1c-0.1,0-0.1-0.1-0.1-0.1v-5.9
					C66.4,57.5,66.5,57.5,66.6,57.5z"/>
				<path class="st1" d="M83.8,58.7H82c-0.1,0-0.1-0.1-0.1-0.1v-1c0-0.1,0.1-0.1,0.1-0.1h4.9c0.1,0,0.1,0.1,0.1,0.1v1
					c0,0.1-0.1,0.1-0.1,0.1h-1.8v4.8c0,0.1-0.1,0.1-0.1,0.1h-1.1c-0.1,0-0.1-0.1-0.1-0.1V58.7z"/>
				<path class="st1" d="M88.1,57.6c0-0.1,0.1-0.1,0.1-0.1h2.7c0.8,0,1.4,0.2,1.8,0.6c0.3,0.3,0.5,0.8,0.5,1.4v0
					c0,1-0.5,1.6-1.3,1.9l0,0l1.4,2c0.1,0.1,0,0.2-0.1,0.2h-1.3c0,0-0.1,0-0.1-0.1l-1.3-1.9h-1.1v1.9c0,0.1-0.1,0.1-0.1,0.1h-1.1
					c-0.1,0-0.1-0.1-0.1-0.1V57.6z M90.8,60.5c0.7,0,1-0.4,1-0.9v0c0-0.6-0.4-0.9-1.1-0.9h-1.4v1.8H90.8z"/>
				<path class="st1" d="M96.7,57.4h1.1c0.1,0,0.1,0,0.1,0.1l2.5,6c0,0.1,0,0.2-0.1,0.2h-1.1c-0.1,0-0.1,0-0.1-0.1l-0.5-1.3h-2.6
					l-0.5,1.3c0,0.1-0.1,0.1-0.1,0.1h-1.1c-0.1,0-0.2-0.1-0.1-0.2l2.5-6C96.6,57.4,96.6,57.4,96.7,57.4z M98.1,61.1l-0.8-2l-0.8,2
					H98.1z"/>
				<path class="st1" d="M101.6,57.5h1.3c0,0,0.1,0,0.1,0.1l1.6,2.6l1.6-2.6c0,0,0.1-0.1,0.1-0.1h1.3c0.1,0,0.1,0.1,0.1,0.1v5.9
					c0,0.1-0.1,0.1-0.1,0.1h-1.1c-0.1,0-0.1-0.1-0.1-0.1v-3.9l-1.7,2.7h0l-1.7-2.6v3.9c0,0.1-0.1,0.1-0.1,0.1h-1.1
					c-0.1,0-0.1-0.1-0.1-0.1v-5.9C101.5,57.5,101.6,57.5,101.6,57.5z"/>
				<path class="st1" d="M108.9,57.5h1.2c0.1,0,0.1,0,0.1,0.1l1.3,4.1l1.4-4.1c0-0.1,0.1-0.1,0.1-0.1h1c0.1,0,0.1,0,0.1,0.1l1.4,4.1
					l1.3-4.1c0-0.1,0.1-0.1,0.1-0.1h1.1c0.1,0,0.2,0.1,0.1,0.2l-2,6c0,0.1-0.1,0.1-0.1,0.1h-1c-0.1,0-0.1,0-0.1-0.1l-1.4-4l-1.4,4
					c0,0.1-0.1,0.1-0.1,0.1h-1c-0.1,0-0.1,0-0.1-0.1l-2-6C108.8,57.6,108.8,57.5,108.9,57.5z"/>
				<path class="st1" d="M120.6,57.4h1.1c0.1,0,0.1,0,0.1,0.1l2.5,6c0,0.1,0,0.2-0.1,0.2h-1.1c-0.1,0-0.1,0-0.1-0.1l-0.5-1.3h-2.6
					l-0.5,1.3c0,0.1-0.1,0.1-0.1,0.1H118c-0.1,0-0.2-0.1-0.1-0.2l2.5-6C120.5,57.4,120.5,57.4,120.6,57.4z M121.9,61.1l-0.8-2
					l-0.8,2H121.9z"/>
				<path class="st1" d="M126.1,61.2l-2.3-3.6c-0.1-0.1,0-0.2,0.1-0.2h1.3c0,0,0.1,0,0.1,0.1l1.4,2.4l1.5-2.4c0,0,0.1-0.1,0.1-0.1
					h1.2c0.1,0,0.2,0.1,0.1,0.2l-2.3,3.5v2.3c0,0.1-0.1,0.1-0.1,0.1h-1.1c-0.1,0-0.1-0.1-0.1-0.1V61.2z"/>
				<path class="st1" d="M130.1,62.7l0.6-0.8c0-0.1,0.1-0.1,0.2,0c0.5,0.4,1.1,0.7,1.8,0.7c0.6,0,0.9-0.2,0.9-0.6v0
					c0-0.3-0.2-0.5-1.3-0.8c-1.3-0.3-2.1-0.7-2.1-1.9v0c0-1.1,0.9-1.9,2.2-1.9c0.9,0,1.6,0.3,2.2,0.7c0.1,0,0.1,0.1,0,0.2l-0.6,0.8
					c0,0.1-0.1,0.1-0.2,0c-0.5-0.3-1-0.5-1.5-0.5c-0.5,0-0.8,0.2-0.8,0.5v0c0,0.4,0.3,0.5,1.3,0.8c1.3,0.3,2,0.8,2,1.9v0
					c0,1.2-0.9,1.9-2.3,1.9c-0.9,0-1.8-0.3-2.5-0.9C130.1,62.8,130.1,62.7,130.1,62.7z"/>
				<path class="st1" d="M73.3,57.5h1.1c0.1,0,0.1,0.1,0.1,0.1v6c0,0.1-0.1,0.1-0.1,0.1h-1.1c-0.1,0-0.1-0.1-0.1-0.1v-6
					C73.2,57.5,73.2,57.5,73.3,57.5z"/>
				<path class="st1" d="M78.5,57.5h-1.2c0,0-0.1,0-0.1,0.1l-2.1,3c0,0,0,0.1,0,0.2l2.1,3c0,0,0.1,0.1,0.1,0.1h1.2
					c0.1,0,0.2-0.1,0.1-0.2l-2-2.9l2-2.9C78.7,57.6,78.6,57.5,78.5,57.5z"/>
			</g>
			<g>
				<path class="st1" d="M89.1,67.8h2.5v0.5h-1.9v0.9h1.7v0.5h-1.7v0.9h1.9v0.5h-2.5V67.8z"/>
				<path class="st1" d="M93.5,71.2c-0.3,0-0.5,0-0.7-0.1c-0.2-0.1-0.5-0.2-0.7-0.4l0.4-0.4c0.2,0.1,0.3,0.2,0.5,0.3
					c0.2,0.1,0.4,0.1,0.6,0.1c0.2,0,0.3,0,0.4-0.1c0.1-0.1,0.2-0.2,0.2-0.3v0c0-0.1,0-0.1,0-0.2c0,0-0.1-0.1-0.1-0.1
					c-0.1,0-0.1-0.1-0.2-0.1s-0.2-0.1-0.4-0.1c-0.2,0-0.3-0.1-0.5-0.1c-0.1-0.1-0.3-0.1-0.4-0.2c-0.1-0.1-0.2-0.2-0.2-0.3
					c0-0.1-0.1-0.2-0.1-0.4v0c0-0.1,0-0.3,0.1-0.4c0.1-0.1,0.1-0.2,0.2-0.3c0.1-0.1,0.2-0.2,0.4-0.2c0.1,0,0.3-0.1,0.5-0.1
					c0.2,0,0.5,0,0.7,0.1c0.2,0.1,0.4,0.2,0.6,0.3l-0.3,0.4c-0.2-0.1-0.3-0.2-0.5-0.3c-0.2-0.1-0.3-0.1-0.5-0.1
					c-0.2,0-0.3,0-0.4,0.1c-0.1,0.1-0.1,0.2-0.1,0.3v0c0,0.1,0,0.1,0,0.2c0,0,0.1,0.1,0.1,0.1c0.1,0,0.1,0.1,0.2,0.1
					c0.1,0,0.2,0.1,0.4,0.1c0.2,0,0.3,0.1,0.5,0.1s0.2,0.1,0.3,0.2c0.1,0.1,0.2,0.2,0.2,0.3c0,0.1,0.1,0.2,0.1,0.4v0
					c0,0.2,0,0.3-0.1,0.4c-0.1,0.1-0.1,0.2-0.2,0.3c-0.1,0.1-0.2,0.2-0.4,0.2C93.9,71.2,93.7,71.2,93.5,71.2z"/>
				<path class="st1" d="M96.3,68.4h-1.1v-0.5h2.7v0.5h-1.1v2.8h-0.6V68.4z"/>
				<path class="st1" d="M98.4,70.5h0.6v0.7h-0.6V70.5z"/>
				<path class="st1" d="M101.7,68.4l-0.6,0.2l-0.1-0.5l0.9-0.3h0.4v3.4h-0.6V68.4z"/>
				<path class="st1" d="M104.2,71.2c-0.2,0-0.4,0-0.6-0.1c-0.2-0.1-0.3-0.2-0.5-0.3l0.3-0.5c0.1,0.1,0.3,0.2,0.4,0.2
					c0.1,0.1,0.3,0.1,0.4,0.1c0.1,0,0.2,0,0.3-0.1c0.1-0.1,0.2-0.1,0.2-0.2c0.1-0.1,0.1-0.2,0.2-0.3c0-0.1,0.1-0.3,0.1-0.4
					c-0.1,0.1-0.2,0.2-0.3,0.3c-0.1,0.1-0.3,0.1-0.5,0.1c-0.2,0-0.3,0-0.5-0.1c-0.1,0-0.3-0.1-0.4-0.2c-0.1-0.1-0.2-0.2-0.2-0.3
					s-0.1-0.3-0.1-0.4v0c0-0.2,0-0.3,0.1-0.5c0.1-0.1,0.1-0.3,0.3-0.4c0.1-0.1,0.2-0.2,0.4-0.2c0.2-0.1,0.3-0.1,0.5-0.1
					c0.2,0,0.4,0,0.5,0.1c0.1,0.1,0.3,0.1,0.4,0.3c0.1,0.1,0.2,0.3,0.3,0.5c0.1,0.2,0.1,0.5,0.1,0.8v0c0,0.3,0,0.5-0.1,0.7
					c-0.1,0.2-0.2,0.4-0.3,0.6c-0.1,0.2-0.3,0.3-0.5,0.4C104.6,71.2,104.4,71.2,104.2,71.2z M104.3,69.5c0.1,0,0.2,0,0.3,0
					c0.1,0,0.2-0.1,0.2-0.1c0.1-0.1,0.1-0.1,0.1-0.2c0-0.1,0-0.1,0-0.2v0c0-0.2-0.1-0.3-0.2-0.4c-0.1-0.1-0.3-0.2-0.5-0.2
					c-0.1,0-0.2,0-0.3,0c-0.1,0-0.2,0.1-0.2,0.1c-0.1,0.1-0.1,0.1-0.1,0.2c0,0.1,0,0.2,0,0.2v0c0,0.2,0.1,0.3,0.2,0.4
					C103.9,69.4,104.1,69.5,104.3,69.5z"/>
				<path class="st1" d="M107.6,71.2c-0.2,0-0.4,0-0.6-0.1c-0.2-0.1-0.3-0.2-0.5-0.4c-0.1-0.2-0.2-0.3-0.3-0.5
					c-0.1-0.2-0.1-0.4-0.1-0.7v0c0-0.2,0-0.5,0.1-0.7c0.1-0.2,0.2-0.4,0.3-0.6c0.1-0.2,0.3-0.3,0.5-0.4c0.2-0.1,0.4-0.1,0.6-0.1
					c0.2,0,0.4,0,0.6,0.1c0.2,0.1,0.3,0.2,0.5,0.4c0.1,0.2,0.2,0.3,0.3,0.6c0.1,0.2,0.1,0.4,0.1,0.7v0c0,0.2,0,0.5-0.1,0.7
					c-0.1,0.2-0.2,0.4-0.3,0.6c-0.1,0.2-0.3,0.3-0.5,0.4C108.1,71.2,107.9,71.2,107.6,71.2z M107.6,70.7c0.1,0,0.2,0,0.4-0.1
					c0.1-0.1,0.2-0.1,0.3-0.3c0.1-0.1,0.1-0.2,0.2-0.4c0-0.1,0.1-0.3,0.1-0.5v0c0-0.2,0-0.3-0.1-0.5c0-0.1-0.1-0.3-0.2-0.4
					c-0.1-0.1-0.2-0.2-0.3-0.3c-0.1-0.1-0.2-0.1-0.4-0.1c-0.1,0-0.2,0-0.4,0.1c-0.1,0.1-0.2,0.1-0.3,0.3c-0.1,0.1-0.1,0.2-0.2,0.4
					c0,0.1-0.1,0.3-0.1,0.5v0c0,0.2,0,0.3,0.1,0.5c0,0.1,0.1,0.3,0.2,0.4c0.1,0.1,0.2,0.2,0.3,0.3C107.4,70.7,107.5,70.7,107.6,70.7
					z"/>
				<path class="st1" d="M111.4,70.4h-1.7l-0.1-0.4l1.9-2.2h0.5v2.1h0.5v0.5h-0.5v0.8h-0.6V70.4z M111.4,69.9v-1.3l-1.1,1.3H111.4z"
					/>
			</g>
			<g>
				<path class="st1" d="M80.3,48.3h-1.1c0,0.1,0,0.2,0,0.3v4.2c0,0.3-0.1,0.6-0.3,0.7c-0.2,0.2-0.5,0.3-0.9,0.3h-9.6
					c-0.3,0-0.7-0.1-0.9-0.4c-0.2-0.2-0.2-0.4-0.2-0.7v-4c0-0.2,0-0.3,0.1-0.4h-0.9c-0.1,0-0.2-0.1-0.1-0.2l2.7-3
					c0.1,0,0.1-0.1,0.2-0.1h2c0.1,0,0.1,0.2,0.1,0.2l-2.1,2.3h8.2l-2.1-2.3c0,0,0-0.2,0.1-0.2h1.9c0.1,0,0.2,0.1,0.2,0.1l2.7,3
					C80.5,48.1,80.4,48.3,80.3,48.3z M79.8,44.6h-5.4v2.3c0,0.1-0.1,0.2-0.2,0.2h-1.6c-0.1,0-0.2-0.1-0.2-0.2v-2.3H67
					c-0.1,0-0.2-0.1-0.2-0.2v-0.9c0-0.1,0.1-0.2,0.2-0.2h5.4v-1.2h-5.1c-0.1,0-0.2-0.1-0.2-0.2v-0.9c0-0.1,0.1-0.2,0.2-0.2h10.2
					l0.1-0.3c0-0.1,0.1-0.2,0.2-0.2h2c0.1,0,0.2,0.1,0.1,0.2l-0.2,0.8c-0.1,0.3-0.2,0.5-0.5,0.6c-0.2,0.1-0.5,0.2-0.7,0.2h-4.1v1.2
					h5.4c0.1,0,0.2,0.1,0.2,0.2v0.8C80,44.5,79.9,44.6,79.8,44.6z M77.2,48.8h-7.8v1.3h7.8V48.8z M77.2,51.3h-7.8v1.3h7.8V51.3z"/>
				<path class="st1" d="M87,53.7c0,0.1-0.1,0.1-0.2,0.1h-1.9c-0.1,0-0.2-0.1-0.1-0.2l1.7-4.7c0-0.1,0.1-0.1,0.2-0.1h1.9
					c0.1,0,0.1,0.1,0.1,0.2L87,53.7z M88.2,47.8h-1.9c-0.1,0-0.2,0-0.2-0.1l-1.3-3c0,0,0.1-0.2,0.1-0.2h1.8c0.1,0,0.2,0,0.2,0.1
					l1.4,2.9C88.4,47.7,88.3,47.8,88.2,47.8z M88.3,43.8h-1.9c-0.1,0-0.2,0-0.2-0.1l-1.3-3.1c0,0,0.1-0.2,0.1-0.2h1.8
					c0.1,0,0.2,0,0.2,0.1l1.4,3.1C88.4,43.7,88.4,43.8,88.3,43.8z M98,53.7c0,0-0.1,0.1-0.1,0.1h-7.7c-0.3,0-0.5-0.1-0.7-0.3
					c-0.2-0.2-0.3-0.5-0.3-0.7v-4.3h-1c-0.1,0-0.2-0.1-0.1-0.2l1.8-2.4h-1.6c-0.1,0-0.2-0.1-0.2-0.2v-0.9c0-0.1,0.1-0.2,0.2-0.2h2
					v-1.5h-1.6c-0.1,0-0.2-0.1-0.2-0.2v-0.9c0-0.1,0.1-0.2,0.2-0.2h1.6v-1.4c0-0.1,0.1-0.1,0.2-0.1h1.6c0.1,0,0.2,0.1,0.2,0.1V42h2
					v-1.4c0-0.1,0.1-0.2,0.1-0.2h1.6c0.1,0,0.2,0.1,0.2,0.2V42h1.5c0.1,0,0.2,0.1,0.2,0.2V43c0,0.1-0.1,0.2-0.2,0.2h-1.5v1.5h2
					c0.1,0,0.2,0.1,0.2,0.2v0.9c0,0.1-0.1,0.2-0.2,0.2h-1.6l1.8,2.3c0.1,0.1,0,0.2-0.1,0.2h-1.1V50c0,0.3-0.1,0.5-0.3,0.7
					c-0.2,0.2-0.4,0.3-0.7,0.3h-5v1.5h7.2c0.1,0,0.1,0.1,0.1,0.2L98,53.7z M94.3,45.8h-2.3l-1,1.4h4.3L94.3,45.8z M95.3,48.4h-4.1
					v1.5h4.1V48.4z M94.3,43.2h-2v1.5h2V43.2z"/>
				<path class="st1" d="M116.2,45.7h-1.6c-0.1,0-0.2-0.1-0.2-0.2v-2.1h-3.7v2.3c0,0.1-0.1,0.2-0.2,0.2h-1.6c-0.1,0-0.2-0.1-0.2-0.2
					v-2.3h-3.7v2.1c0,0.1-0.1,0.2-0.2,0.2h-1.6c-0.1,0-0.2-0.1-0.2-0.2v-2c0-0.3,0.1-0.6,0.3-0.8c0.2-0.2,0.5-0.3,0.9-0.3h4.4v-0.8
					h-5.2c-0.1,0-0.2-0.1-0.2-0.2v-0.7c0-0.1,0.1-0.2,0.2-0.2h12.1c0.1,0,0.2,0.1,0.2,0.2v0.6c0,0.1-0.1,0.2-0.2,0.2h-5v0.8h4.4
					c0.4,0,0.7,0.1,0.9,0.3c0.2,0.2,0.2,0.5,0.2,0.8v2C116.4,45.6,116.3,45.7,116.2,45.7z M116.3,53.6c-0.1,0.1-0.3,0.2-0.4,0.2
					h-5.8c-0.4,0-0.7-0.1-0.9-0.3c-0.2-0.2-0.3-0.5-0.3-0.9v-0.8h-4.1c-0.3,0-0.5-0.1-0.7-0.2c-0.2-0.2-0.2-0.4-0.2-0.7V48
					c0-0.3,0.1-0.5,0.2-0.7c0.2-0.2,0.4-0.3,0.7-0.3h4.1v-0.6c0-0.1,0.1-0.2,0.2-0.2h1.6c0.1,0,0.2,0.1,0.2,0.2v0.6h4.1
					c0.3,0,0.5,0.1,0.7,0.3c0.2,0.2,0.3,0.4,0.3,0.7v2.7c0,0.3-0.1,0.5-0.3,0.7c-0.2,0.2-0.4,0.3-0.7,0.3h-4.1v1h5.7
					c0.1,0,0.2,0.1,0.1,0.2L116.3,53.6z M108.3,44.9h-2.5c-0.1,0-0.2-0.1-0.2-0.2v-0.6c0-0.1,0.1-0.2,0.2-0.2h2.5
					c0.1,0,0.2,0.1,0.2,0.2v0.6C108.5,44.9,108.4,44.9,108.3,44.9z M108.3,46.4h-2.5c-0.1,0-0.2-0.1-0.2-0.2v-0.6
					c0-0.1,0.1-0.2,0.2-0.2h2.5c0.1,0,0.2,0.1,0.2,0.2v0.6C108.5,46.3,108.4,46.4,108.3,46.4z M105.8,48.1v0.8h3.1l0-0.8H105.8z
					 M108.9,49.9h-3.1v0.8h3.1V49.9z M114,48.1h-3.1v0.8h3.1V48.1z M114,49.9h-3.1v0.8h3.1V49.9z M113.9,44.9h-2.5
					c-0.1,0-0.2-0.1-0.2-0.2v-0.6c0-0.1,0.1-0.2,0.2-0.2h2.5c0.1,0,0.2,0.1,0.2,0.2v0.6C114.1,44.9,114,44.9,113.9,44.9z
					 M113.9,46.4h-2.5c-0.1,0-0.2-0.1-0.2-0.2v-0.6c0-0.1,0.1-0.2,0.2-0.2h2.5c0.1,0,0.2,0.1,0.2,0.2v0.6
					C114.1,46.3,114,46.4,113.9,46.4z"/>
				<path class="st1" d="M134.7,52.1h-5.6v1.5c0,0.1-0.1,0.2-0.2,0.2h-1.6c-0.1,0-0.2-0.1-0.2-0.2v-1.5h-5.7c-0.1,0-0.2-0.1-0.2-0.2
					V51c0-0.1,0.1-0.2,0.2-0.2h5.7v-1.1h-4.1c-0.3,0-0.7-0.1-0.9-0.4c-0.2-0.2-0.3-0.4-0.3-0.7V45c0-0.3,0.1-0.6,0.3-0.8
					c0.2-0.2,0.5-0.3,0.8-0.3h4.1v-1.1h-5.4c-0.1,0-0.2-0.1-0.2-0.2v-0.9c0-0.1,0.1-0.2,0.2-0.2h5.4v-1c0-0.1,0.1-0.2,0.2-0.2h1.6
					c0.1,0,0.2,0.1,0.2,0.2v1h5.4c0.1,0,0.2,0.1,0.2,0.2v0.8c0,0.1-0.1,0.2-0.2,0.2h-5.4v1.1h4.1c0.3,0,0.6,0.1,0.8,0.3
					c0.2,0.2,0.3,0.4,0.3,0.7v3.9c0,0.3-0.1,0.6-0.3,0.7c-0.2,0.2-0.5,0.3-0.9,0.3h-4.1v1.1h5.6c0.1,0,0.2,0.1,0.2,0.2v0.8
					C134.9,52,134.8,52.1,134.7,52.1z M127.2,45.1h-3.2v1.1h3.2V45.1z M127.2,47.4h-3.2v1.2h3.2V47.4z M132.3,45.1h-3.2v1.1h3.2
					V45.1z M132.3,47.4h-3.2v1.2h3.2V47.4z"/>
			</g>
			<g>
				<line class="st1" x1="86.9" y1="69.7" x2="66.3" y2="69.7"/>
				<rect x="66.3" y="69.6" class="st1" width="20.6" height="0.2"/>
			</g>
			<g>
				<line class="st1" x1="134.9" y1="69.7" x2="114.3" y2="69.7"/>
				<rect x="114.3" y="69.6" class="st1" width="20.6" height="0.2"/>
			</g>
		</g>
		<g>
			<g>
				<path class="st1" d="M40.8,53v1c0,0.2,0.1,0.3,0.3,0.3c0.5,0,0.9,0,1.4,0c0.5,0,0.9,0,1.4,0c0.2,0,0.3-0.1,0.3-0.3v-1
					c0-0.2-0.1-0.3-0.3-0.3c-0.5,0-0.9,0-1.4,0c-0.5,0-0.9,0-1.4,0C40.9,52.7,40.8,52.8,40.8,53z"/>
				<circle class="st1" cx="42.5" cy="63.9" r="0.9"/>
				<path class="st1" d="M47.4,65.7L47.4,65.7c0-0.2-0.2-0.3-0.3-0.2c-1.4,0.4-3,0.7-4.5,0.7c-1.6,0-3.1-0.2-4.5-0.7
					c-0.2,0-0.3,0.1-0.3,0.2l0,0c0,0.1,0.1,0.2,0.2,0.2c1.5,0.4,3.1,0.7,4.7,0.7c1.6,0,3.2-0.2,4.7-0.7
					C47.3,65.9,47.4,65.8,47.4,65.7z"/>
				<g>
					<path class="st1" d="M39.2,45.3c-0.4,0.1-0.8,0.1-1.2,0.2c-0.2,0-0.4,0.2-0.4,0.5v3.3c0,0.3,0.2,0.5,0.5,0.5
						c0.4,0,0.8-0.1,1.2-0.1c0.2,0,0.4-0.2,0.4-0.5v-3.4C39.8,45.5,39.5,45.3,39.2,45.3z"/>
					<g>
						<path class="st1" d="M44.5,45.6c0-0.2-0.2-0.4-0.4-0.5c-0.5,0-1.1-0.1-1.6-0.1c-0.6,0-1.1,0-1.6,0.1c-0.2,0-0.4,0.2-0.4,0.5
							V49c0,0.3,0.2,0.5,0.5,0.5c0.5,0,1,0,1.6,0c0.5,0,1.1,0,1.6,0c0.3,0,0.5-0.2,0.5-0.5V45.6z"/>
						<path class="st1" d="M45.2,45.8v3.4c0,0.2,0.2,0.4,0.4,0.5c0.4,0,0.8,0.1,1.2,0.1c0.3,0,0.5-0.2,0.5-0.5V46
							c0-0.2-0.2-0.4-0.4-0.5c-0.4-0.1-0.8-0.1-1.2-0.2C45.5,45.3,45.2,45.5,45.2,45.8z"/>
					</g>
					<path class="st1" d="M40,55.9h-1.9c-0.3,0-0.5,0.2-0.5,0.5v3.4c0,0.2,0.2,0.4,0.4,0.5c0.6,0,1.3,0.1,1.9,0.1
						c0.3,0,0.5-0.2,0.5-0.5v-3.5C40.4,56.1,40.2,55.9,40,55.9z"/>
					<g>
						<path class="st1" d="M44.5,56.3v3.5c0,0.3,0.2,0.5,0.5,0.5c0.6,0,1.3-0.1,1.9-0.1c0.2,0,0.4-0.2,0.4-0.5v-3.4
							c0-0.3-0.2-0.5-0.5-0.5H45C44.8,55.9,44.5,56.1,44.5,56.3z"/>
						<path class="st1" d="M43.4,55.9h-1.9c-0.3,0-0.5,0.2-0.5,0.5v3.5c0,0.3,0.2,0.5,0.5,0.5c0.3,0,0.6,0,0.9,0c0.3,0,0.6,0,0.9,0
							c0.3,0,0.5-0.2,0.5-0.5v-3.5C43.9,56.1,43.7,55.9,43.4,55.9z"/>
					</g>
				</g>
			</g>
			<g>
				<path class="st1" d="M41.1,39.1c-0.1-0.2-0.3-0.4-0.5-0.3c-3.1,0.4-5.9,1.5-8.3,3.3h0c-4.1,3.1-6.8,8-6.8,13.6
					c0,6.9,4.1,12.9,10.1,15.6c0.7,0.3,1.6,0.1,2.1-0.6l1.7-2.3c-0.8-0.1-1.5-0.3-2.3-0.5c-0.3-0.1-0.5-0.3-0.5-0.6l0-22.8
					c0-0.3,0.2-0.5,0.5-0.6c0.9-0.3,1.8-0.5,2.8-0.6l0.1-0.9c0-0.1,0.1-0.3,0.3-0.3h1.9L41.1,39.1z"/>
				<path class="st1" d="M52.7,42L52.7,42c-2.9-2.2-6.4-3.4-10.3-3.4c-0.2,0-0.4,0-0.6,0c-0.2,0-0.3,0.2-0.3,0.4l1,3h2.1
					c0.2,0,0.3,0.1,0.3,0.3l0.1,0.9c1,0.1,1.9,0.3,2.8,0.6c0.3,0.1,0.4,0.3,0.4,0.6c0,3,0,19.9,0,22.9c0,0.3-0.2,0.5-0.4,0.6
					c-0.7,0.2-1.5,0.4-2.3,0.5l1.7,2.3c0.5,0.7,1.4,0.9,2.1,0.6c5.9-2.7,10.1-8.6,10.1-15.6C59.5,50.1,56.9,45.2,52.7,42z"/>
			</g>
		</g>
	</g>
	<g>
		<g>
			<rect x="25.4" y="38.6" class="st2" width="109.5" height="32.8"/>
		</g>
	</g>
</g>
</svg>
