<?xml version="1.0" encoding="utf-8"?>
<!-- Generator: Adobe Illustrator 21.0.2, SVG Export Plug-In . SVG Version: 6.00 Build 0)  -->
<svg version="1.1" id="Layer_2" xmlns="http://www.w3.org/2000/svg" xmlns:xlink="http://www.w3.org/1999/xlink" x="0px" y="0px"
	 viewBox="0 0 160 110" style="enable-background:new 0 0 160 110;" xml:space="preserve">
<style type="text/css">
	.st0{fill:none;}
	.st1{fill:#231F20;}
	.st2{fill:#231F20;stroke:#FFFFFF;stroke-width:0.1594;stroke-linecap:round;stroke-linejoin:round;stroke-miterlimit:10;}
	.st3{fill:#FFFFFF;stroke:#FFFFFF;stroke-width:0.1594;stroke-linecap:round;stroke-linejoin:round;stroke-miterlimit:10;}
</style>
<rect class="st0" width="160" height="110"/>
<g>
	<g>
		<path class="st1" d="M66.5,61.6h-0.6c0,0,0,0.1,0,0.1v2.3c0,0.2,0,0.3-0.1,0.4c-0.1,0.1-0.3,0.2-0.5,0.2H60
			c-0.2,0-0.4-0.1-0.5-0.2c-0.1-0.1-0.1-0.2-0.1-0.4v-2.2c0-0.1,0-0.2,0-0.2H59c-0.1,0-0.1-0.1-0.1-0.1l1.5-1.6c0,0,0.1-0.1,0.1-0.1
			h1.1c0,0,0.1,0.1,0,0.1l-1.2,1.3H65L63.8,60c0,0,0-0.1,0-0.1h1.1c0,0,0.1,0,0.1,0.1L66.5,61.6C66.6,61.6,66.5,61.6,66.5,61.6z
			 M66.2,59.6h-3v1.3c0,0.1,0,0.1-0.1,0.1h-0.9c-0.1,0-0.1-0.1-0.1-0.1v-1.3h-3c-0.1,0-0.1,0-0.1-0.1v-0.5c0,0,0-0.1,0.1-0.1h3v-0.7
			h-2.8c0,0-0.1,0-0.1-0.1v-0.5c0-0.1,0.1-0.1,0.1-0.1h5.6l0-0.2c0,0,0.1-0.1,0.1-0.1h1.1c0,0,0.1,0,0.1,0.1l-0.1,0.4
			c0,0.1-0.1,0.2-0.3,0.3c-0.1,0.1-0.3,0.1-0.4,0.1h-2.2V59h3c0.1,0,0.1,0,0.1,0.1v0.4C66.3,59.6,66.3,59.6,66.2,59.6z M64.8,61.9
			h-4.3v0.7h4.3V61.9z M64.8,63.3h-4.3V64h4.3V63.3z"/>
		<path class="st1" d="M70.6,64.6C70.5,64.6,70.5,64.7,70.6,64.6l-1.1,0.1c-0.1,0-0.1-0.1-0.1-0.1l0.9-2.6c0,0,0.1-0.1,0.1-0.1h1.1
			c0,0,0.1,0,0.1,0.1L70.6,64.6z M71.2,61.4h-1c0,0-0.1,0-0.1-0.1l-0.7-1.6c0,0,0-0.1,0.1-0.1h1c0,0,0.1,0,0.1,0L71.2,61.4
			C71.3,61.3,71.3,61.4,71.2,61.4z M71.3,59.2h-1c-0.1,0-0.1,0-0.1,0l-0.7-1.7c0,0,0-0.1,0.1-0.1h1c0,0,0.1,0,0.1,0L71.3,59.2
			C71.3,59.2,71.3,59.2,71.3,59.2z M76.6,64.6C76.6,64.6,76.5,64.7,76.6,64.6l-4.3,0c-0.1,0-0.3-0.1-0.4-0.2
			c-0.1-0.1-0.2-0.2-0.2-0.4v-2.4h-0.6c-0.1,0-0.1-0.1-0.1-0.1l1-1.3h-0.9c0,0-0.1,0-0.1-0.1v-0.5c0-0.1,0.1-0.1,0.1-0.1h1.1v-0.8
			h-0.8c-0.1,0-0.1,0-0.1-0.1v-0.5c0,0,0.1-0.1,0.1-0.1h0.8v-0.8c0,0,0-0.1,0.1-0.1h0.9c0,0,0.1,0,0.1,0.1v0.8h1.1v-0.8
			c0,0,0-0.1,0.1-0.1h0.9c0,0,0.1,0,0.1,0.1v0.8h0.8c0.1,0,0.1,0,0.1,0.1v0.5c0,0.1-0.1,0.1-0.1,0.1h-0.8v0.8h1.1
			c0.1,0,0.1,0,0.1,0.1v0.5c0,0.1-0.1,0.1-0.1,0.1h-0.9l1,1.3c0,0,0,0.1,0,0.1h-0.6v0.9c0,0.1-0.1,0.3-0.2,0.4
			c-0.1,0.1-0.2,0.1-0.4,0.1h-2.7V64h3.9c0,0,0.1,0.1,0.1,0.1L76.6,64.6z M74.6,60.3h-1.2l-0.5,0.8h2.3L74.6,60.3z M75.1,61.7h-2.2
			v0.8h2.2V61.7z M74.5,58.9h-1.1v0.8h1.1V58.9z"/>
		<path class="st1" d="M86.9,60.3h-0.8c-0.1,0-0.1-0.1-0.1-0.1V59h-2v1.2c0,0.1,0,0.1-0.1,0.1H83c-0.1,0-0.1-0.1-0.1-0.1V59h-2v1.2
			c0,0.1,0,0.1-0.1,0.1H80c-0.1,0-0.1-0.1-0.1-0.1v-1.1c0-0.2,0.1-0.3,0.2-0.4c0.1-0.1,0.3-0.2,0.5-0.2h2.4V58h-2.8
			c0,0-0.1,0-0.1-0.1v-0.4c0,0,0-0.1,0.1-0.1h6.6c0.1,0,0.1,0,0.1,0.1v0.3c0,0.1-0.1,0.1-0.1,0.1H84v0.4h2.4c0.2,0,0.4,0,0.5,0.2
			c0.1,0.1,0.1,0.2,0.1,0.5v1.1C87,60.2,87,60.3,86.9,60.3z M86.9,64.5c0,0.1-0.1,0.1-0.2,0.1h-3.2c-0.2,0-0.4-0.1-0.5-0.2
			c-0.1-0.1-0.2-0.3-0.2-0.5v-0.4h-2.3c-0.2,0-0.3,0-0.4-0.1c-0.1-0.1-0.1-0.2-0.1-0.4v-1.5c0-0.1,0-0.3,0.1-0.4
			c0.1-0.1,0.2-0.2,0.4-0.2h2.2v-0.3c0-0.1,0.1-0.1,0.1-0.1h0.9c0.1,0,0.1,0.1,0.1,0.1V61h2.2c0.2,0,0.3,0.1,0.4,0.1
			c0.1,0.1,0.1,0.2,0.1,0.4V63c0,0.2,0,0.3-0.1,0.4c-0.1,0.1-0.2,0.1-0.4,0.1H84v0.6h3.1c0.1,0,0.1,0.1,0.1,0.1L86.9,64.5z
			 M82.6,59.8h-1.3c0,0-0.1,0-0.1-0.1v-0.3c0-0.1,0-0.1,0.1-0.1h1.3c0.1,0,0.1,0,0.1,0.1v0.3C82.7,59.8,82.6,59.8,82.6,59.8z
			 M82.6,60.6h-1.3c0,0-0.1,0-0.1-0.1v-0.3c0,0,0-0.1,0.1-0.1h1.3c0.1,0,0.1,0,0.1,0.1v0.3C82.7,60.6,82.6,60.6,82.6,60.6z
			 M81.2,61.5V62h1.7l0-0.4H81.2z M82.9,62.5h-1.7V63h1.7V62.5z M85.7,61.5H84V62h1.7V61.5z M85.7,62.5H84V63h1.7V62.5z M85.7,59.8
			h-1.3c0,0-0.1,0-0.1-0.1v-0.3c0-0.1,0.1-0.1,0.1-0.1h1.3c0.1,0,0.1,0,0.1,0.1v0.3C85.8,59.8,85.7,59.8,85.7,59.8z M85.7,60.6h-1.3
			c0,0-0.1,0-0.1-0.1v-0.3c0,0,0.1-0.1,0.1-0.1h1.3c0.1,0,0.1,0,0.1,0.1v0.3C85.8,60.6,85.7,60.6,85.7,60.6z"/>
		<path class="st1" d="M97.4,61.4h-2.9v2.8c0,0.1-0.1,0.3-0.2,0.4c-0.1,0.1-0.2,0.2-0.3,0.2h-1.9c0,0-0.1,0-0.1,0l-0.2-0.5
			c0,0,0-0.1,0.1-0.1h1.5v-2.6h-3.1c0,0-0.1,0-0.1-0.1v-0.5c0,0,0-0.1,0.1-0.1h3.1v-0.6c0-0.2,0.1-0.4,0.2-0.5l2-1.5h-4.8
			c0,0-0.1,0-0.1-0.1v-0.5c0,0,0.1-0.1,0.1-0.1h6.1c0.1,0,0.2,0.1,0.2,0.2v0.4c0,0.2,0,0.2-0.2,0.3l-2.5,1.8v0.6h2.9
			c0.1,0,0.1,0,0.1,0.1v0.4C97.5,61.3,97.4,61.4,97.4,61.4z"/>
		<path class="st1" d="M104,60.1h-3.4c-0.1,0-0.1,0-0.1-0.1v-0.4c0,0,0-0.1,0.1-0.1h0.6l-0.3-0.9h-0.2c-0.1,0-0.1,0-0.1-0.1V58
			c0,0,0.1-0.1,0.1-0.1h1l-0.2-0.4c0,0,0-0.1,0-0.1h1c0,0,0.1,0,0.1,0.1l0.2,0.5h1c0.1,0,0.1,0,0.1,0.1v0.5c0,0.1-0.1,0.1-0.1,0.1
			h-0.1l-0.2,0.9h0.4c0.1,0,0.1,0,0.1,0.1V60C104.1,60,104.1,60.1,104,60.1z M104,64.6c0,0-0.1,0.1-0.2,0.1h-0.8
			c-0.2,0-0.3-0.1-0.4-0.2c-0.1-0.1-0.1-0.2-0.1-0.4v-1.4h-0.3v1c0,0.1-0.1,0.3-0.2,0.4l-0.4,0.5c0,0,0,0-0.1,0h-0.9
			c0,0-0.1-0.1-0.1-0.1l0.7-0.8v-1.1c-0.1,0-0.2,0-0.3-0.1c-0.1-0.1-0.1-0.2-0.1-0.3v-1.4c0-0.1,0-0.2,0.1-0.3
			c0.1-0.1,0.2-0.1,0.3-0.1h2.3c0.1,0,0.3,0.1,0.3,0.1c0.1,0.1,0.1,0.2,0.1,0.3v1.3c0,0.1-0.1,0.3-0.1,0.3c-0.1,0.1-0.2,0.1-0.3,0.1
			h-0.1v1.4h0.6c0.1,0,0.1,0,0.1,0.1L104,64.6z M103,61.1h-1.2V62h1.2V61.1z M102,58.5l0.3,0.9h0.4l0.2-0.9H102z M107.9,64.6
			c0,0.1-0.1,0.1-0.1,0.1h-1c-0.2,0-0.3-0.1-0.4-0.2c-0.1-0.1-0.1-0.2-0.1-0.4v-1.4h-0.3v1c0,0.2-0.1,0.3-0.2,0.4l-0.4,0.5
			c0,0-0.1,0-0.1,0h-0.9c0,0-0.1,0,0-0.1l0.6-0.8v-1.1c-0.1,0-0.2,0-0.3-0.1c-0.1-0.1-0.1-0.2-0.1-0.3v-1.4c0-0.1,0-0.2,0.1-0.3
			c0.1-0.1,0.2-0.1,0.3-0.1h2.3c0.1,0,0.3,0.1,0.3,0.1c0.1,0.1,0.1,0.2,0.1,0.3v1.3c0,0.1-0.1,0.2-0.1,0.3c-0.1,0.1-0.2,0.1-0.3,0.1
			h-0.1v1.4h0.8c0.1,0,0.1,0,0.1,0.1L107.9,64.6z M107.8,60.1h-3.4c0,0-0.1,0-0.1-0.1v-0.4c0,0,0-0.1,0.1-0.1h0.5l-0.3-0.9h-0.2
			c0,0-0.1,0-0.1-0.1V58c0,0,0.1-0.1,0.1-0.1h1l-0.2-0.4c0,0,0-0.1,0-0.1h1c0,0,0.1,0,0.1,0.1l0.2,0.5h1.1c0.1,0,0.1,0,0.1,0.1v0.5
			c0,0.1-0.1,0.1-0.1,0.1h-0.2l-0.2,0.9h0.5c0.1,0,0.1,0,0.1,0.1V60C107.9,60,107.8,60.1,107.8,60.1z M106.6,61.1h-1.2V62h1.2V61.1z
			 M105.7,58.5l0.3,0.9h0.3l0.2-0.9H105.7z"/>
		<path class="st1" d="M113.6,60.9l-0.7,0.4v2.8c0,0.2-0.1,0.3-0.2,0.4c-0.1,0.1-0.3,0.2-0.4,0.2h-1c0,0-0.1,0-0.1,0l-0.2-0.5
			c0,0,0-0.1,0.1-0.1h0.8v-2.1l-0.8,0.4c-0.1,0-0.1,0-0.1-0.1v-0.6c0,0,0-0.1,0.1-0.2l0.8-0.4v-1.8H111c-0.1,0-0.1,0-0.1-0.1v-0.5
			c0-0.1,0.1-0.1,0.1-0.1h0.8v-1.1c0-0.1,0.1-0.1,0.1-0.1h0.8c0.1,0,0.1,0.1,0.1,0.1v1.1h0.6c0.1,0,0.1,0,0.1,0.1v0.5
			c0,0.1-0.1,0.1-0.1,0.1h-0.6v1.3l0.7-0.4c0,0,0.1,0,0.1,0.1v0.5C113.7,60.8,113.7,60.9,113.6,60.9z M118.3,64.7h-1.2
			c-0.1,0-0.1,0-0.1,0l-0.9-0.8l-1,0.8c0,0-0.1,0-0.1,0h-1.2c0,0-0.1-0.1,0-0.1l1.7-1.5l-0.9-0.8c-0.1-0.1-0.1-0.3-0.1-0.4V61H114
			c-0.1,0-0.1,0-0.1-0.1v-0.5c0,0,0-0.1,0.1-0.1h1.5v-1.2h-1.6c-0.1,0-0.1,0-0.1-0.1v-0.5c0,0,0-0.1,0.1-0.1h1.6v-1
			c0,0,0-0.1,0.1-0.1h0.9c0,0,0.1,0.1,0.1,0.1v1h1.6c0.1,0,0.1,0,0.1,0.1V59c0,0.1-0.1,0.1-0.1,0.1h-1.6v1.2h0.8
			c0.2,0,0.4,0,0.5,0.2c0.1,0.1,0.1,0.2,0.1,0.4v0.9c0,0.2,0,0.4-0.2,0.5l-1,0.8L118.3,64.7C118.4,64.6,118.4,64.7,118.3,64.7z
			 M116.9,61h-1.6v0.8l0.8,0.7l0.8-0.7V61z"/>
	</g>
	<g>
		<path class="st1" d="M60.2,54.3c0,0.2-0.1,0.3-0.3,0.3h-0.8c-0.2,0-0.3-0.1-0.3-0.3v-6.8c0-0.2,0.1-0.3,0.3-0.3h0.8
			c0.2,0,0.3,0.1,0.3,0.3V54.3z M64.9,51.5h-3.4l-1-1.3l4.5,0v-2.7c0-0.2,0.1-0.3,0.3-0.3h0.8c0.2,0,0.3,0.1,0.3,0.3v6.8
			c0,0.2-0.1,0.3-0.3,0.3h-0.8c-0.2,0-0.3-0.1-0.3-0.3V51.5z"/>
		<path class="st1" d="M68.8,54.3c0,0.2-0.1,0.3-0.3,0.3h-0.8c-0.2,0-0.3-0.1-0.3-0.3v-6.8c0-0.2,0.1-0.3,0.3-0.3h0.8
			c0.2,0,0.3,0.1,0.3,0.3V54.3z M69.1,50.9l3.8-3.4c0.2-0.2,0.3-0.3,0.5-0.3h1.4l-4.1,3.7l4.1,3.7h-1.4c-0.2,0-0.3-0.1-0.5-0.3
			L69.1,50.9z"/>
		<path class="st1" d="M80.9,52.5c0,0.2,0.1,0.4,0.2,0.6c0.2,0.2,0.3,0.2,0.6,0.2h5c0.2,0,0.3,0.1,0.3,0.3v0.8
			c0,0.2-0.1,0.3-0.3,0.3h-5c-0.6,0-1.1-0.2-1.5-0.6c-0.4-0.4-0.6-0.9-0.6-1.5v-5c0-0.2,0.1-0.3,0.3-0.3h6.8c0.2,0,0.3,0.1,0.3,0.3
			v0.8c0,0.2-0.1,0.3-0.3,0.3h-5.8V52.5z M81.1,50.2l5.5,0c0.2,0,0.3,0.1,0.3,0.3v0.8c0,0.2-0.1,0.3-0.3,0.3h-4.5L81.1,50.2z"/>
		<path class="st1" d="M95.3,50.2c0.2,0,0.3,0.1,0.3,0.3v2c0,0.6-0.2,1.1-0.6,1.5c-0.4,0.4-0.9,0.6-1.5,0.6h-5
			c-0.2,0-0.3-0.1-0.3-0.3v-0.8c0-0.2,0.1-0.3,0.3-0.3h5c0.2,0,0.4-0.1,0.6-0.2s0.2-0.3,0.2-0.6v-0.9h-5.8c-0.2,0-0.3-0.1-0.3-0.3
			v-2c0-0.6,0.2-1.1,0.6-1.5c0.4-0.4,0.9-0.6,1.5-0.6h5c0.2,0,0.3,0.1,0.3,0.3v0.8c0,0.2-0.1,0.3-0.3,0.3h-5c-0.2,0-0.4,0.1-0.6,0.2
			c-0.2,0.2-0.2,0.3-0.2,0.6v0.9H95.3z"/>
		<path class="st1" d="M102.1,51.5h-2.6l-1-1.3l3.7,0c0.2,0,0.4-0.1,0.6-0.2c0.2-0.2,0.2-0.3,0.2-0.5v-0.2c0-0.2-0.1-0.4-0.2-0.6
			c-0.2-0.2-0.3-0.2-0.6-0.2h-3.9v5.8c0,0.2-0.1,0.3-0.3,0.3h-0.8c-0.2,0-0.3-0.1-0.3-0.3v-6.8c0-0.2,0.1-0.3,0.3-0.3h5
			c0.6,0,1.1,0.2,1.5,0.6c0.4,0.4,0.6,0.9,0.6,1.5v0.1c0,0.6-0.2,1.1-0.6,1.5C103.2,51.3,102.7,51.5,102.1,51.5z"/>
		<path class="st1" d="M108.4,54.6c-1,0-1.9-0.4-2.6-1.1c-0.7-0.7-1.1-1.6-1.1-2.6s0.4-1.9,1.1-2.6c0.7-0.7,1.6-1.1,2.6-1.1
			c1,0,1.9,0.4,2.6,1.1c0.7,0.7,1.1,1.6,1.1,2.6s-0.4,1.9-1.1,2.6C110.3,54.2,109.4,54.6,108.4,54.6z M110.1,52.6
			c0.5-0.5,0.7-1,0.7-1.7c0-0.6-0.2-1.2-0.7-1.7c-0.5-0.5-1-0.7-1.7-0.7c-0.6,0-1.2,0.2-1.7,0.7c-0.5,0.5-0.7,1-0.7,1.7
			c0,0.6,0.2,1.2,0.7,1.7c0.5,0.5,1,0.7,1.7,0.7C109.1,53.2,109.6,53,110.1,52.6z"/>
		<path class="st1" d="M118.1,50.2c0.2,0,0.4-0.1,0.6-0.2c0.2-0.2,0.2-0.3,0.2-0.5v-0.2c0-0.2-0.1-0.4-0.2-0.6
			c-0.2-0.2-0.3-0.2-0.6-0.2h-3.9v5.8c0,0.2-0.1,0.3-0.3,0.3h-0.8c-0.2,0-0.3-0.1-0.3-0.3v-6.8c0-0.2,0.1-0.3,0.3-0.3h5
			c0.6,0,1.1,0.2,1.5,0.6c0.4,0.4,0.6,0.9,0.6,1.5v0.1c0,0.6-0.2,1.1-0.6,1.5c-0.4,0.4-0.9,0.6-1.5,0.6h-0.8l2.9,3h-1.3
			c-0.2,0-0.4-0.1-0.5-0.3l-3.9-4.1h0l0,0H118.1z"/>
		<path class="st1" d="M124,48.5h-2.7c-0.2,0-0.3-0.1-0.3-0.3v-0.8c0-0.2,0.1-0.3,0.3-0.3h6.8c0.2,0,0.3,0.1,0.3,0.3v0.8
			c0,0.2-0.1,0.3-0.3,0.3h-2.7v5.8c0,0.2-0.1,0.3-0.3,0.3h-0.8c-0.2,0-0.3-0.1-0.3-0.3V48.5z"/>
		<path class="st1" d="M136.2,50.2c0.2,0,0.3,0.1,0.3,0.3v2c0,0.6-0.2,1.1-0.6,1.5c-0.4,0.4-0.9,0.6-1.5,0.6h-5
			c-0.2,0-0.3-0.1-0.3-0.3v-0.8c0-0.2,0.1-0.3,0.3-0.3h5c0.2,0,0.4-0.1,0.6-0.2c0.2-0.2,0.2-0.3,0.2-0.6v-0.9h-5.8
			c-0.2,0-0.3-0.1-0.3-0.3v-2c0-0.6,0.2-1.1,0.6-1.5c0.4-0.4,0.9-0.6,1.5-0.6h5c0.2,0,0.3,0.1,0.3,0.3v0.8c0,0.2-0.1,0.3-0.3,0.3h-5
			c-0.2,0-0.4,0.1-0.6,0.2c-0.2,0.2-0.2,0.3-0.2,0.6v0.9H136.2z"/>
		<polygon class="st2" points="77.6,54.5 73.6,50.9 77.6,47.2 		"/>
		<polygon class="st2" points="77.6,54.5 76.1,50.9 77.6,47.2 		"/>
		<polygon class="st2" points="77.6,54.5 73.6,50.9 76.1,50.9 		"/>
	</g>
	<g>
		<circle class="st0" cx="39.1" cy="55" r="15.6"/>
		<g>
			<g>
				<polygon class="st2" points="36.6,61.1 36.6,66.1 35.2,62.5 				"/>
				<polygon class="st2" points="35.2,66.1 36.6,66.1 35.2,62.5 				"/>
				<polygon class="st2" points="45.7,61.1 45.7,66.1 44.4,62.5 				"/>
				<polygon class="st2" points="44.4,66.1 45.7,66.1 44.4,62.5 				"/>
				<polygon class="st2" points="41.5,61.1 41.5,66.1 40.2,62.5 				"/>
				<polygon class="st2" points="40.2,66.1 41.5,66.1 40.2,62.5 				"/>
				<polygon class="st2" points="39.8,66.1 38.3,66.1 39.8,61.1 				"/>
				<polygon class="st2" points="38.3,61.1 38.3,66.1 39.8,61.1 				"/>
				<polygon class="st2" points="38.3,63 36.6,64.2 36.6,63 				"/>
				<polygon class="st2" points="38.3,63 36.6,64.2 38.3,64.2 				"/>
				<polygon class="st2" points="47.5,63 45.7,64.2 45.7,63 				"/>
				<polygon class="st2" points="47.5,63 45.7,64.2 47.5,64.2 				"/>
				<polygon class="st2" points="45.7,64.8 47.5,66 47.5,64.8 				"/>
				<polygon class="st2" points="45.7,64.8 47.5,66 45.7,66 				"/>
				<polygon class="st2" points="45.7,61.1 47.5,62.4 45.7,62.4 				"/>
				<polygon class="st2" points="45.7,61.1 47.5,62.4 48.8,61.1 				"/>
				<polygon class="st2" points="49.6,61.1 51.3,62.4 49.2,62.7 				"/>
				<polygon class="st2" points="49.6,61.1 48,62.4 49.2,62.7 				"/>
				<polygon class="st2" points="48.8,64 48,62.4 49.2,62.7 				"/>
				<polygon class="st2" points="48.8,64 50,64.4 49.2,62.7 				"/>
				<polygon class="st2" points="51.3,64.1 50,64.4 49.2,62.7 				"/>
				<polygon class="st2" points="51.3,64.1 50,64.4 51,65.4 				"/>
				<polygon class="st2" points="49.9,66.1 50,64.4 51,65.4 				"/>
				<polygon class="st2" points="49.9,66.1 50,64.4 47.9,64.8 				"/>
				<polygon class="st2" points="49.9,66.1 47.9,66.1 47.9,64.8 				"/>
				<polygon class="st2" points="49.6,61.1 51.3,62.4 52.6,61.1 				"/>
				<polygon class="st2" points="45.2,61.1 41.5,63.1 41.5,64.9 				"/>
				<polygon class="st2" points="45.2,61.1 41.5,63.1 43.5,61.1 				"/>
				<polygon class="st2" points="44,66 43,63.3 44,64.3 				"/>
				<polyline class="st2" points="44,66 43,63.3 42.2,64.2 44,66 				"/>
			</g>
			<g>
				<g>
					<polygon class="st2" points="39.6,54.7 37.3,55.4 37.1,57.1 					"/>
					<polygon class="st3" points="39.6,54.7 37.3,55.4 36.7,54.6 					"/>
					<polygon class="st2" points="39.6,54.7 42.9,56.2 37.1,57.1 					"/>
					<polygon class="st2" points="46.3,58.5 42.9,56.2 40.3,56.6 					"/>
					<polygon class="st2" points="42.7,57.4 43.8,59.6 40.3,56.6 					"/>
					<polygon class="st2" points="42.2,59.9 41.5,57.6 40.3,56.6 					"/>
					<polygon class="st2" points="38.7,58.7 40.3,56.6 37.1,57.1 					"/>
					<polygon class="st2" points="38.7,58.7 40.3,56.6 40,58.2 					"/>
					<polygon class="st2" points="38.7,58.7 36.2,58.7 37.1,57.1 					"/>
					<polygon class="st2" points="37.1,58.7 36.2,58.7 38.6,60.5 					"/>
					<polygon class="st2" points="37.1,58.7 38.3,58.7 40.6,60.4 					"/>
					<polygon class="st2" points="35.1,57.8 36.2,58.7 36.9,57.4 					"/>
					<polygon class="st2" points="35.1,57.8 36.2,58.7 34.3,59.6 					"/>
					<polygon class="st2" points="35.1,57.8 32.7,59.5 34.3,59.6 					"/>
					<polygon class="st2" points="32.5,60.4 32.7,59.5 34.3,59.6 					"/>
					<polygon class="st2" points="32.5,60.4 32.7,59.5 30.9,59.6 					"/>
					<polygon class="st2" points="30.8,58.7 32.7,59.5 30.9,59.6 					"/>
					<polygon class="st2" points="31,58.8 31.6,59 31.5,57.9 					"/>
					<polygon class="st2" points="30.8,58.7 29.7,58.5 30.9,59.6 					"/>
					<polygon class="st2" points="30.8,58.7 29.7,58.5 29.6,57.1 					"/>
					<polygon class="st2" points="30.1,57.8 31.4,57.1 29.8,57.4 					"/>
					<polygon class="st2" points="30.8,57.4 31.4,57.1 33.3,58 					"/>
					<polygon class="st2" points="34.4,57.3 32.8,57.8 33.3,58 					"/>
					<polygon class="st2" points="28.2,60.7 29.7,58.5 29.6,57.7 					"/>
					<polygon class="st2" points="29.3,59 29.7,58.5 29.8,61.7 					"/>
					<polygon class="st2" points="39.6,54.7 38.3,52.5 36.7,54.6 					"/>
					<polygon class="st2" points="39.6,54.7 38.3,52.5 42.1,52.8 					"/>
					<polygon class="st2" points="43.3,51.2 38.3,52.5 42.1,52.8 					"/>
					<polygon class="st2" points="41.7,51.6 38.3,52.5 42.5,50.3 					"/>
					<polygon class="st2" points="41.1,50.2 38.3,52.5 40.8,51.2 					"/>
					<polygon class="st2" points="39.6,54.7 42.9,56.2 42.1,52.8 					"/>
					<polygon class="st2" points="46,52.8 42.9,56.2 42.1,52.8 					"/>
					<polygon class="st2" points="46,52.8 43.8,51.7 42.1,52.8 					"/>
					<polygon class="st2" points="46,52.8 43.8,51.7 46.5,48.4 					"/>
					<polygon class="st2" points="35.5,53.6 36.1,53.3 35.2,52.5 					"/>
					<polygon class="st2" points="37.4,51.6 35.8,53.1 35.2,52.5 					"/>
					<polygon class="st2" points="35.5,53.6 34.4,54.7 33.5,53.4 					"/>
					<polygon class="st2" points="33.9,54.7 34.4,54.7 33.8,53.8 					"/>
					<polygon class="st2" points="33.5,53.4 32.8,53.5 33.8,53.8 					"/>
					<polygon class="st2" points="32.6,54.8 32.4,56.5 33.2,55.2 					"/>
					<polygon class="st2" points="31.8,52.5 31.2,53.2 32.6,54.8 					"/>
					<polygon class="st2" points="32.1,53.4 32.8,52.5 32.8,53.5 					"/>
					<polygon class="st2" points="31.7,53.8 31.2,53.2 30.8,54.9 					"/>
					<polygon class="st2" points="32.2,54.4 32,54.2 31.5,55 					"/>
					<polygon class="st2" points="32.6,54.8 32.1,53.4 33.8,53.8 					"/>
					<polygon class="st2" points="34,55.6 32.6,54.8 33.8,53.8 					"/>
					<polygon class="st2" points="37.1,57.1 37.3,55.4 36.7,54.6 					"/>
					<polygon class="st2" points="33.9,54.7 36.7,54.6 37.1,57.1 					"/>
					<polygon class="st2" points="33.9,54.7 34,55.6 37.1,57.1 					"/>
					<polygon class="st2" points="35.5,53.6 38.3,52.5 36.7,54.6 					"/>
					<polygon class="st2" points="35.5,53.6 34.4,54.7 36.7,54.6 					"/>
				</g>
				<g>
					<polygon class="st2" points="46,52.8 46.1,51.8 49.1,52.3 					"/>
					<polygon class="st2" points="46,52.8 46.5,55.8 49.1,52.3 					"/>
					<polygon class="st2" points="50.9,52 46.5,55.8 49.1,52.3 					"/>
					<polygon class="st2" points="46,52.8 42.9,56.2 46.5,55.8 					"/>
					<polygon class="st2" points="47.6,49.5 46.1,51.8 49.1,52.3 					"/>
					<polygon class="st2" points="47.6,49.5 50.5,48.4 49.1,52.3 					"/>
					<polygon class="st2" points="50.9,52 50.5,48.4 49.1,52.3 					"/>
					<polygon class="st2" points="50.9,52 50.5,48.4 52.7,47.6 					"/>
					<polygon class="st2" points="50.9,52 53,51.2 52.7,47.6 					"/>
					<polygon class="st2" points="50.9,52 53,51.2 51.9,53.9 					"/>
					<polygon class="st2" points="50.9,52 50,54.3 51.9,53.9 					"/>
					<polygon class="st2" points="49.9,55.7 50,54.3 51.9,53.9 					"/>
					<polygon class="st2" points="49.9,55.7 50,54.3 48.9,55.5 					"/>
					<polygon class="st2" points="49.9,55.7 49.5,57.2 48.9,55.5 					"/>
					<polygon class="st2" points="49.9,55.7 49.5,57.2 50.7,56.4 					"/>
					<polygon class="st2" points="50.1,57.9 49.5,57.2 50.7,56.4 					"/>
					<polygon class="st2" points="50.1,57.9 49.5,57.2 49.2,58.7 					"/>
					<polygon class="st2" points="48.9,57.9 49.5,57.2 49.2,58.7 					"/>
					<polygon class="st2" points="48.9,57.9 49.5,57.2 48.9,57.3 					"/>
					<polygon class="st2" points="48.9,57.9 48.3,57.8 48.9,57.3 					"/>
					<polygon class="st2" points="47.8,57.4 48.3,57.8 48.9,57.3 					"/>
					<polygon class="st2" points="47.8,57.4 48.3,57.8 47.5,58.1 					"/>
					<polygon class="st2" points="48.9,57.9 48.5,58.7 49.2,58.7 					"/>
					<polygon class="st2" points="48.9,57.9 48.5,58.7 47.9,58.4 					"/>
					<polygon class="st2" points="47.7,59 48.5,58.7 47.9,58.4 					"/>
					<polygon class="st2" points="47.7,59 48.5,58.7 48.2,59.7 					"/>
					<polygon class="st2" points="50.1,57.9 49.6,59.2 49.2,58.7 					"/>
					<polygon class="st2" points="48.5,59.3 49.6,59.2 49.2,58.7 					"/>
					<polygon class="st2" points="48.5,59.3 49.6,59.2 49.1,59.9 					"/>
					<polygon class="st2" points="48.5,59.3 49.1,60.6 49.1,59.9 					"/>
					<polygon class="st2" points="50.1,57.9 51.1,57.3 50.7,56.4 					"/>
					<polygon class="st2" points="51.5,56.7 51.1,57.3 50.7,56.4 					"/>
					<polygon class="st2" points="51.5,56.7 51.6,55.8 50.7,56.4 					"/>
					<polygon class="st2" points="51.5,56.7 51.6,55.8 52.5,56.1 					"/>
					<polygon class="st2" points="52.3,54.9 51.6,55.8 52.5,56.1 					"/>
					<polygon class="st2" points="52.3,54.9 53.1,54.4 52.5,56.1 					"/>
					<polygon class="st2" points="53.8,54.7 53.1,54.4 52.9,54.9 					"/>
					<polygon class="st2" points="50.1,57.9 51.1,57.3 51.3,58.5 					"/>
					<polygon class="st2" points="50.1,57.9 50.4,58.7 51.3,58.5 					"/>
					<polygon class="st2" points="50.8,59.5 50.4,58.7 51.3,58.5 					"/>
					<polygon class="st2" points="50.8,59.5 50.4,58.7 50.2,59.7 					"/>
					<polygon class="st2" points="50.8,59.5 51.1,60.3 50.2,59.7 					"/>
					<polygon class="st2" points="49.9,43.7 50.5,48.4 52.7,47.6 					"/>
					<polygon class="st2" points="47.6,49.5 50.5,48.4 46.8,46 					"/>
					<polygon class="st2" points="47.6,49.5 45.9,47.8 46.8,46 					"/>
					<g>
						<polygon class="st2" points="44,48.6 44.2,48 44.7,48.6 						"/>
						<polygon class="st2" points="44.5,45.7 45.9,47.8 46.8,46 						"/>
						<polygon class="st2" points="44.5,45.7 45.9,47.8 43.4,46.8 						"/>
						<polygon class="st2" points="44.5,45.7 42.4,46.1 43.4,46.8 						"/>
						<polygon class="st2" points="41.5,47.2 42.4,46.1 43.4,46.8 						"/>
						<polygon class="st2" points="41.5,47.2 42,48.4 43.4,46.8 						"/>
						<polygon class="st2" points="43,47.9 42,48.4 43.4,46.8 						"/>
						<polygon class="st2" points="43,47.9 42,48.4 43.1,48.8 						"/>
						<polygon class="st2" points="43,47.9 44.2,48 43.1,48.8 						"/>
						<polygon class="st2" points="44,48.6 44.2,48 43.1,48.8 						"/>
						<polygon class="st2" points="44,48.6 44.1,49.4 44.7,48.6 						"/>
						<polygon class="st2" points="41.5,47.2 42,48.4 40.6,48 						"/>
						<polygon class="st2" points="40.5,48.9 42,48.4 40.6,48 						"/>
						<polygon class="st2" points="40.5,48.9 39.9,48.3 40.6,48 						"/>
						<polygon class="st2" points="40.5,48.9 39.9,48.3 39.6,48.8 						"/>
						<polygon class="st2" points="38.9,47.9 39.9,48.3 39.6,48.8 						"/>
						<polygon class="st2" points="38.9,47.9 38.7,48.3 39.6,48.8 						"/>
						<polygon class="st2" points="38.9,47.9 38.7,48.3 38.1,48.1 						"/>
						<polygon class="st2" points="38.4,49.1 38.7,48.3 38.1,48.1 						"/>
						<polygon class="st2" points="41.5,47.2 40.6,47 40.6,48 						"/>
						<polygon class="st2" points="39.9,47.1 40.6,47 40.6,48 						"/>
						<polygon class="st2" points="39.9,47.1 40.6,47 39.6,46.4 						"/>
						<polygon class="st2" points="39.9,47.1 38.9,46.7 39.6,46.4 						"/>
						<polygon class="st2" points="39.4,46.9 38.9,46.7 39,47.6 						"/>
						<polygon class="st2" points="41.5,47.2 40.6,47 41.1,46.6 						"/>
						<polygon class="st2" points="41.5,47.2 41.5,46.5 41.1,46.6 						"/>
						<polygon class="st2" points="41.2,46.1 41.5,46.5 41.1,46.6 						"/>
						<polygon class="st2" points="41.2,46.1 41.5,46.5 41.5,45.8 						"/>
						<polygon class="st2" points="41.2,46.1 41.1,45.5 41.5,45.8 						"/>
						<polygon class="st2" points="41.1,45.8 41.1,45.5 40.6,45.8 						"/>
						<polygon class="st2" points="40.5,46.4 40.6,47 41.1,46.6 						"/>
						<polygon class="st2" points="40.5,46.4 40.7,45.9 41.1,46.6 						"/>
						<polygon class="st2" points="40.5,46.4 40.7,45.9 40,45.8 						"/>
						<polygon class="st2" points="40.2,46.1 39.7,46.2 40,45.8 						"/>
					</g>
					<polygon class="st2" points="49.9,43.7 50.5,48.4 46.8,46 					"/>
					<polygon class="st2" points="49.9,43.7 45.5,40.8 46.8,46 					"/>
					<polygon class="st2" points="41.2,43.6 45.5,40.8 46.8,46 					"/>
					<polygon class="st2" points="41.2,43.6 45.5,40.8 39.4,39.4 					"/>
					<polygon class="st2" points="41.2,43.6 34.7,44.1 39.4,39.4 					"/>
					<polygon class="st2" points="34,40.3 34.7,44.1 39.4,39.4 					"/>
					<polygon class="st2" points="34,40.3 34.7,44.1 29.7,42.7 					"/>
					<polygon class="st2" points="29.6,47.4 34.7,44.1 29.7,42.7 					"/>
					<polygon class="st2" points="29.6,47.4 25.7,47 29.7,42.7 					"/>
					<polygon class="st2" points="29.6,47.4 25.7,47 24.3,50.8 					"/>
					<polygon class="st2" points="29.6,47.4 26.8,53 24.3,50.8 					"/>
					<polygon class="st2" points="23.6,55.8 26.8,53 24.3,50.8 					"/>
					<polygon class="st2" points="23.6,55.8 26.8,53 26.7,58.5 					"/>
					<polygon class="st2" points="23.6,55.8 24.8,61.4 26.7,58.5 					"/>
					<polygon class="st2" points="28.5,62.5 24.8,61.4 26.7,58.5 					"/>
					<polygon class="st2" points="28.5,62.5 24.8,61.4 27.6,65.5 					"/>
					<polygon class="st2" points="28.5,62.5 31.1,65.9 27.6,65.5 					"/>
					<polygon class="st2" points="32,68.8 31.1,65.9 27.6,65.5 					"/>
					<polygon class="st2" points="32,68.8 31.1,65.9 35.2,68.5 					"/>
					<polygon class="st2" points="32,68.8 36.8,70.5 35.2,68.5 					"/>
					<polygon class="st2" points="39.3,69.4 36.8,70.5 35.2,68.5 					"/>
					<polygon class="st2" points="39.3,69.4 36.8,70.5 41.1,70.4 					"/>
					<polygon class="st2" points="39.3,69.4 43,69.3 41.1,70.4 					"/>
					<polygon class="st2" points="44.5,69.7 43,69.3 41.1,70.4 					"/>
					<polygon class="st2" points="44.5,69.7 43,69.3 45.5,68.5 					"/>
					<polygon class="st2" points="49.7,66.5 45.5,68.5 43.1,68 					"/>
					<polygon class="st2" points="49.7,66.5 46.8,68.6 45.5,68.5 					"/>
					<polygon class="st2" points="44.5,69.7 46.8,68.6 45.5,68.5 					"/>
				</g>
			</g>
		</g>
	</g>
</g>
</svg>
