<?xml version="1.0" encoding="utf-8"?>
<!-- Generator: Adobe Illustrator 16.0.3, SVG Export Plug-In . SVG Version: 6.00 Build 0)  -->
<!DOCTYPE svg PUBLIC "-//W3C//DTD SVG 1.1//EN" "http://www.w3.org/Graphics/SVG/1.1/DTD/svg11.dtd">
<svg version="1.1" id="Layer_2" xmlns="http://www.w3.org/2000/svg" xmlns:xlink="http://www.w3.org/1999/xlink" x="0px" y="0px"
	 width="160px" height="110px" viewBox="0 0 160 110" enable-background="new 0 0 160 110" xml:space="preserve">
<g>
	<g>
		<path d="M72.212,41.126c0.477,0,0.869,0.394,0.869,0.87c0,0.476-0.393,0.868-0.869,0.868c-0.475,0-0.869-0.393-0.869-0.868
			C71.343,41.52,71.737,41.126,72.212,41.126"/>
		<path d="M75.081,52.619h1.262v-6.574h-1.262v-0.229h2.64v1.754h0.032c0.263-0.573,0.935-1.934,2.82-1.934
			c1.442,0,2.441,0.671,2.441,2.196v4.787h1.264v0.229h-3.934v-0.229h1.261v-5.296c0-0.853-0.393-1.459-1.245-1.459
			c-1.41,0-2.607,1.312-2.607,3.05v3.705h1.263v0.229h-3.935V52.619z"/>
		<polygon points="84.394,45.815 88.36,45.815 88.36,46.045 87.017,46.045 89.132,51.193 91.328,46.045 89.983,46.045 
			89.983,45.815 92.476,45.815 92.476,46.045 91.589,46.045 88.491,53.39 85.508,46.045 84.394,46.045 		"/>
		<path d="M93.032,52.619h1.264v-6.574h-1.264v-0.229h2.673v6.804h1.262v0.229h-3.935V52.619z M94.968,41.126
			c0.475,0,0.869,0.394,0.869,0.87c0,0.476-0.395,0.868-0.869,0.868c-0.476,0-0.869-0.393-0.869-0.868
			C94.099,41.52,94.492,41.126,94.968,41.126"/>
		<path d="M98.344,50.554h0.181c0.295,1.032,0.936,2.294,2.59,2.294c0.706,0,1.346-0.409,1.346-1.36
			c0-0.835-0.508-1.081-1.066-1.278l-1.279-0.443c-0.672-0.229-1.622-0.558-1.622-2c0-1.229,1-2.164,2.36-2.164
			c0.951,0,1.115,0.346,1.574,0.346c0.146,0,0.213-0.051,0.263-0.132h0.181v1.869h-0.181c-0.312-0.983-0.722-1.854-1.837-1.854
			c-1.05,0-1.656,0.509-1.656,1.296c0,0.705,0.509,1,1.459,1.295l1.197,0.393c1.018,0.346,1.754,0.936,1.754,1.936
			c0,1.197-0.95,2.328-2.605,2.328c-0.967,0-1.591-0.46-2.083-0.46c-0.245,0-0.327,0.116-0.394,0.229h-0.181V50.554z"/>
		<path d="M104.87,52.619h1.263v-6.574h-1.263v-0.229h2.672v6.804h1.263v0.229h-3.935V52.619z M106.804,41.126
			c0.477,0,0.869,0.394,0.869,0.87c0,0.476-0.393,0.868-0.869,0.868c-0.476,0-0.869-0.393-0.869-0.868
			C105.935,41.52,106.328,41.126,106.804,41.126"/>
		<path d="M109.723,52.619h1.263V41.258h-1.263v-0.229h2.672v6.099h0.032c0.296-0.854,1.049-1.525,2.246-1.525
			c1.869,0,3.46,1.722,3.46,3.689c0,1.999-1.64,3.787-3.574,3.787c-1.492,0-2.001-1.148-2.164-1.656h-0.033v1.426h-2.639V52.619z
			 M114.607,45.831c-0.803,0-1.311,0.329-1.64,0.755c-0.459,0.591-0.573,1.36-0.573,3.049c0,1.443,0.328,3.213,2.147,3.213
			c1.803,0,1.951-1.475,1.951-3.754C116.493,47.095,116.133,45.831,114.607,45.831"/>
		<polygon points="119.443,52.619 120.706,52.619 120.706,41.258 119.443,41.258 119.443,41.028 122.116,41.028 122.116,52.619 
			123.38,52.619 123.38,52.848 119.443,52.848 		"/>
		<path d="M126.231,48.783c0,0.213-0.016,0.425-0.016,0.77c0,1.459,0.229,3.295,2.162,3.295c1.936,0,2.361-1.326,2.525-1.852
			l0.246,0.049c-0.146,0.477-0.591,2.033-2.787,2.033s-3.787-1.475-3.787-3.705c0-1.935,1.623-3.771,3.689-3.771
			c1.213,0,3.016,0.788,3.016,3.182H126.231z M129.608,48.553c0.033-0.311,0.033-0.557,0.033-0.835c0-1.476-0.591-1.887-1.443-1.887
			c-1.476,0-1.852,1.296-1.95,2.722H129.608z"/>
		<polygon points="70.277,68.513 71.54,68.513 71.54,46.045 70.277,46.045 70.277,45.815 72.95,45.815 72.95,64.759 73.131,64.759 
			76.393,61.938 75.229,61.938 75.229,61.708 77.771,61.708 77.771,61.938 76.786,61.938 74.229,64.135 77.851,68.513 
			78.557,68.513 78.557,68.741 74.868,68.741 74.868,68.513 76.032,68.513 73.131,64.987 72.95,64.987 72.95,68.513 73.853,68.513 
			73.853,68.741 70.277,68.741 		"/>
		<path d="M79.081,68.513h1.264v-6.574h-1.264v-0.23h2.673v6.805h1.263v0.229h-3.936V68.513z M81.016,57.02
			c0.476,0,0.87,0.394,0.87,0.87c0,0.476-0.395,0.868-0.87,0.868s-0.868-0.393-0.868-0.868C80.147,57.413,80.54,57.02,81.016,57.02"
			/>
		<path d="M83.755,61.708h1.262v-2.114c0.164,0.065,0.262,0.115,0.64,0.115c0.327,0,0.558-0.082,0.771-0.245v2.244h2.328v0.23
			h-2.328v5.36c0,1.23,0.54,1.442,0.983,1.442c0.771,0,1.245-0.655,1.376-1.377l0.23,0.083c-0.114,0.557-0.476,1.524-1.803,1.524
			c-1.641,0-2.197-0.672-2.197-1.819v-5.214h-1.262V61.708z"/>
		<path d="M96.247,66.939c-0.147,0.475-0.591,2.032-2.787,2.032c-1.673,0-3.787-0.968-3.787-3.706c0-2.131,1.704-3.769,3.82-3.769
			c1.162,0,2.656,0.523,2.656,1.868c0,0.459-0.312,0.786-0.854,0.786c-0.377,0-0.787-0.146-0.787-0.54c0-0.312,0.229-0.82,0.229-1.1
			c0-0.508-0.59-0.786-1.245-0.786c-0.969,0-2.182,0.245-2.182,3.591c0,1.868,0.393,3.425,2.164,3.425
			c1.936,0,2.361-1.327,2.525-1.852L96.247,66.939z"/>
		<path d="M97.07,68.513h1.262v-11.36H97.07v-0.23h2.672v6.443h0.034c0.229-0.59,0.999-1.837,2.786-1.837
			c1.442,0,2.443,0.673,2.443,2.197v4.787h1.261v0.229h-3.934v-0.229h1.263v-5.295c0-0.853-0.395-1.46-1.247-1.46
			c-1.41,0-2.606,1.312-2.606,3.049v3.706h1.263v0.229H97.07V68.513z"/>
		<path d="M109.071,64.676c0,0.214-0.018,0.427-0.018,0.771c0,1.46,0.23,3.295,2.165,3.295c1.934,0,2.36-1.327,2.524-1.852
			l0.246,0.05c-0.148,0.475-0.59,2.032-2.787,2.032s-3.786-1.476-3.786-3.706c0-1.934,1.622-3.769,3.688-3.769
			c1.214,0,3.018,0.786,3.018,3.179H109.071z M112.448,64.447c0.033-0.312,0.033-0.558,0.033-0.836c0-1.477-0.59-1.886-1.443-1.886
			c-1.476,0-1.854,1.294-1.951,2.722H112.448z"/>
		<path d="M115.284,68.513h1.263v-6.574h-1.263v-0.23h2.64v1.755h0.033c0.263-0.574,0.934-1.935,2.82-1.935
			c1.441,0,2.441,0.673,2.441,2.197v4.787h1.263v0.229h-3.935v-0.229h1.263v-5.295c0-0.853-0.394-1.46-1.246-1.46
			c-1.41,0-2.606,1.312-2.606,3.049v3.706h1.263v0.229h-3.936V68.513z"/>
		<polygon points="31.358,68.741 28.72,68.741 28.72,45.815 31.358,45.815 31.358,46.045 30.098,46.045 30.098,68.513 
			31.358,68.513 		"/>
	</g>
</g>
</svg>
