<?xml version="1.0" encoding="utf-8"?>
<!-- Generator: Adobe Illustrator 16.0.3, SVG Export Plug-In . SVG Version: 6.00 Build 0)  -->
<!DOCTYPE svg PUBLIC "-//W3C//DTD SVG 1.1//EN" "http://www.w3.org/Graphics/SVG/1.1/DTD/svg11.dtd">
<svg version="1.1" id="Layer_2" xmlns="http://www.w3.org/2000/svg" xmlns:xlink="http://www.w3.org/1999/xlink" x="0px" y="0px"
	 width="160px" height="110px" viewBox="0 0 160 110" enable-background="new 0 0 160 110" xml:space="preserve">
<g>
	<path d="M86.48,50.408c1.971,0,3.65,1.245,4.301,2.992l2.248-0.768c-0.97-2.682-3.534-4.602-6.549-4.602
		c-3.85,0-6.972,3.12-6.972,6.969c0,3.849,3.122,6.97,6.972,6.97c3.015,0,5.576-1.92,6.547-4.601l-2.248-0.769
		c-0.65,1.746-2.327,2.992-4.299,2.992c-2.538,0-4.596-2.057-4.596-4.593C81.885,52.463,83.943,50.408,86.48,50.408z"/>
	<rect x="58.955" y="48.72" width="2.376" height="12.447"/>
	<rect x="111.261" y="48.72" width="2.376" height="12.447"/>
	<rect x="111.261" y="48.72" width="2.376" height="12.447"/>
	<path d="M123.006,48.031c-3.85,0-6.971,3.119-6.971,6.969c0,3.849,3.121,6.97,6.971,6.97c3.849,0,6.968-3.122,6.968-6.97
		C129.975,51.149,126.855,48.031,123.006,48.031z M123.006,59.593c-2.537,0-4.591-2.057-4.591-4.593
		c0-2.537,2.055-4.592,4.591-4.592c2.536,0,4.591,2.055,4.591,4.592C127.598,57.536,125.542,59.593,123.006,59.593z"/>
	<path d="M70.699,48.031c-3.841,0-6.956,3.107-6.97,6.946h-0.001v11.329h2.376V60.24c1.228,1.075,2.834,1.73,4.594,1.73
		c3.85,0,6.97-3.122,6.97-6.97C77.669,51.149,74.549,48.031,70.699,48.031z M70.699,59.593c-2.536,0-4.592-2.057-4.592-4.593
		c0-2.537,2.057-4.592,4.592-4.592c2.536,0,4.591,2.055,4.591,4.592C75.291,57.536,73.235,59.593,70.699,59.593z"/>
	<path d="M108.862,55c0-3.85-3.118-6.969-6.97-6.969c-1.76,0-3.366,0.655-4.592,1.729v-6.066h-2.378v11.33h0.002
		c0.014,3.839,3.128,6.946,6.969,6.946C105.744,61.97,108.862,58.85,108.862,55z M106.485,55c0,2.537-2.056,4.594-4.593,4.594
		c-2.536,0-4.591-2.057-4.591-4.594s2.055-4.592,4.591-4.592C104.43,50.408,106.485,52.463,106.485,55z"/>
	<g>
		<circle cx="41.346" cy="54.888" r="4.565"/>
		<path d="M43.118,43.714v3.943c3.261,0.796,5.685,3.731,5.685,7.238c0,4.119-3.337,7.458-7.458,7.458s-7.458-3.339-7.458-7.458
			c0-3.507,2.423-6.442,5.688-7.238v-3.943c-5.413,0.851-9.55,5.533-9.55,11.182c0,6.252,5.068,11.32,11.32,11.32
			s11.321-5.067,11.321-11.32C52.667,49.247,48.526,44.565,43.118,43.714z"/>
	</g>
</g>
</svg>
