<?xml version="1.0" encoding="utf-8"?>
<!-- Generator: Adobe Illustrator 16.0.3, SVG Export Plug-In . SVG Version: 6.00 Build 0)  -->
<!DOCTYPE svg PUBLIC "-//W3C//DTD SVG 1.1//EN" "http://www.w3.org/Graphics/SVG/1.1/DTD/svg11.dtd">
<svg version="1.1" id="Layer_2" xmlns="http://www.w3.org/2000/svg" xmlns:xlink="http://www.w3.org/1999/xlink" x="0px" y="0px"
	 width="160px" height="110px" viewBox="0 0 160 110" enable-background="new 0 0 160 110" xml:space="preserve">
<g>
	<path d="M54.29,60.235l0.044-0.371c0.231,0,0.463-0.041,0.694-0.123c0.232-0.081,0.44-0.195,0.626-0.336
		c0.187-0.142,0.344-0.309,0.47-0.503c0.128-0.194,0.211-0.407,0.248-0.641l1.467-10.464c0.031-0.232,0.01-0.444-0.061-0.638
		c-0.071-0.194-0.18-0.363-0.325-0.505c-0.146-0.142-0.322-0.254-0.533-0.336c-0.208-0.082-0.429-0.123-0.661-0.123l0.044-0.37
		h5.413l-0.045,0.37c-0.24,0-0.472,0.042-0.701,0.123c-0.227,0.083-0.436,0.195-0.621,0.336c-0.188,0.142-0.346,0.311-0.476,0.505
		c-0.132,0.193-0.213,0.406-0.241,0.638l-1.468,10.464c-0.038,0.233-0.019,0.447,0.055,0.641c0.076,0.194,0.187,0.361,0.332,0.503
		c0.146,0.142,0.321,0.255,0.527,0.336c0.205,0.082,0.427,0.123,0.666,0.123l-0.045,0.371H54.29z"/>
	<path d="M67.742,57.433c-0.075,0.472-0.233,0.894-0.477,1.272c-0.242,0.377-0.583,0.705-1.024,0.981
		c-0.755,0.484-1.625,0.728-2.611,0.728c-0.851,0-1.501-0.168-1.95-0.504c-0.163-0.12-0.257-0.18-0.279-0.18
		c-0.105,0-0.186,0.058-0.247,0.174c-0.061,0.115-0.09,0.226-0.09,0.331h-0.369l0.29-2.129l0.393-0.146
		c-0.015,0.299,0.019,0.571,0.102,0.818s0.205,0.457,0.369,0.627c0.165,0.172,0.365,0.307,0.604,0.404
		c0.24,0.097,0.508,0.146,0.808,0.146c0.306,0,0.6-0.048,0.879-0.146c0.281-0.097,0.53-0.234,0.752-0.409
		c0.219-0.176,0.404-0.387,0.547-0.633c0.147-0.247,0.237-0.523,0.275-0.83c0.097-0.68-0.216-1.259-0.942-1.736
		c-0.342-0.193-0.682-0.395-1.019-0.6c-0.336-0.206-0.684-0.404-1.041-0.599c-0.712-0.575-1.01-1.303-0.898-2.185
		c0.068-0.426,0.206-0.815,0.416-1.166c0.208-0.35,0.5-0.658,0.874-0.919c0.678-0.5,1.461-0.75,2.342-0.75
		c0.425,0,0.808,0.057,1.148,0.168c0.339,0.113,0.651,0.276,0.936,0.494c0.021,0.014,0.036,0.025,0.038,0.033
		c0.005,0.007,0.014,0.011,0.027,0.011c0.061,0,0.115-0.044,0.164-0.134c0.048-0.09,0.08-0.229,0.094-0.416h0.371l-0.302,2.107
		l-0.392,0.168c0.037-0.284,0.026-0.548-0.034-0.796c-0.061-0.247-0.162-0.461-0.309-0.644c-0.146-0.185-0.327-0.328-0.543-0.432
		c-0.216-0.105-0.463-0.158-0.74-0.158c-0.269,0-0.528,0.051-0.779,0.153c-0.25,0.101-0.473,0.236-0.671,0.409
		c-0.199,0.17-0.364,0.375-0.499,0.608c-0.134,0.236-0.22,0.488-0.258,0.756c-0.089,0.732,0.239,1.337,0.985,1.816
		c0.359,0.195,0.712,0.394,1.06,0.599c0.348,0.206,0.701,0.406,1.059,0.6C67.54,55.85,67.854,56.553,67.742,57.433z"/>
	<path d="M68.108,60.235l0.044-0.371c0.232,0,0.463-0.041,0.695-0.123c0.231-0.081,0.439-0.195,0.626-0.336
		c0.187-0.142,0.345-0.309,0.471-0.503c0.127-0.194,0.209-0.407,0.248-0.641l1.613-11.36c0.111-0.843-0.441-1.267-1.659-1.267
		l0.045-0.336l3.698-0.55l-1.904,13.512c-0.039,0.233-0.02,0.447,0.054,0.641c0.075,0.194,0.185,0.361,0.33,0.503
		c0.146,0.142,0.321,0.255,0.527,0.336c0.206,0.082,0.428,0.123,0.666,0.123l-0.045,0.371H68.108z"/>
	<path d="M82.109,55.596c0.09-0.628-0.608-0.942-2.094-0.942h-0.617c-0.658,0-1.206,0.277-1.647,0.829
		c-0.194,0.239-0.355,0.506-0.481,0.802c-0.126,0.295-0.212,0.618-0.258,0.969c-0.089,0.688,0.003,1.308,0.28,1.861
		c0.321,0.626,0.803,0.94,1.446,0.94c0.716,0,1.39-0.27,2.017-0.806c0.635-0.546,1.007-1.181,1.121-1.905L82.109,55.596z
		 M81.471,60.235l0.111-0.762c-0.919,0.628-1.969,0.941-3.147,0.941c-0.508,0-0.978-0.062-1.407-0.184
		c-0.429-0.123-0.816-0.312-1.159-0.568c-0.821-0.566-1.157-1.332-1.009-2.296c0.112-0.979,0.662-1.75,1.647-2.32
		c0.843-0.499,1.77-0.749,2.778-0.749h0.616c1.599,0,2.457-0.399,2.578-1.2c0.246-1.852-0.52-2.779-2.297-2.779
		c-1.241,0-2.159,0.365-2.756,1.087c0.335,0.044,0.572,0.157,0.706,0.336c0.135,0.179,0.183,0.427,0.146,0.74
		c-0.022,0.142-0.073,0.279-0.152,0.415c-0.078,0.134-0.175,0.252-0.291,0.351c-0.116,0.103-0.243,0.183-0.38,0.241
		c-0.139,0.062-0.279,0.091-0.42,0.091c-0.142,0-0.275-0.029-0.397-0.091c-0.124-0.059-0.226-0.139-0.309-0.241
		c-0.083-0.099-0.144-0.217-0.184-0.351c-0.042-0.135-0.05-0.273-0.029-0.415c0.104-0.672,0.62-1.27,1.547-1.793
		c0.425-0.238,0.835-0.417,1.227-0.532c0.393-0.116,0.768-0.174,1.127-0.174c3.122,0,4.5,1.316,4.133,3.944l-0.615,4.335
		c-0.038,0.233-0.019,0.447,0.056,0.641c0.074,0.194,0.184,0.361,0.331,0.503c0.146,0.142,0.321,0.255,0.527,0.336
		c0.206,0.082,0.428,0.123,0.666,0.123l-0.044,0.371H81.471z"/>
	<path d="M93.704,60.235l0.045-0.371c0.231,0,0.46-0.041,0.689-0.123c0.227-0.081,0.435-0.195,0.621-0.336
		c0.188-0.142,0.342-0.309,0.466-0.503c0.123-0.194,0.203-0.407,0.241-0.641l0.661-4.793c0.305-2.1-0.411-3.15-2.152-3.15
		c-1.009,0-1.904,0.629-2.689,1.883c-0.299,0.493-0.54,1.009-0.723,1.545c-0.183,0.539-0.316,1.095-0.396,1.67l-0.416,2.844
		c-0.038,0.233-0.019,0.447,0.057,0.641c0.073,0.194,0.184,0.361,0.331,0.503c0.144,0.142,0.32,0.255,0.525,0.336
		c0.206,0.082,0.428,0.123,0.668,0.123l-0.045,0.371h-5.412l0.044-0.371c0.231,0,0.464-0.041,0.694-0.123
		c0.232-0.081,0.442-0.195,0.629-0.336c0.187-0.142,0.343-0.309,0.47-0.503c0.127-0.194,0.209-0.407,0.247-0.641l0.873-6.127
		c0.113-0.866-0.438-1.289-1.646-1.267l0.068-0.358l3.662-0.527l-0.268,1.994c1.032-1.329,2.255-1.994,3.675-1.994
		c1.322,0,2.293,0.435,2.913,1.3c0.561,0.815,0.75,1.902,0.572,3.261l-0.527,3.718c-0.038,0.233-0.021,0.447,0.05,0.641
		c0.071,0.194,0.18,0.361,0.326,0.503c0.145,0.142,0.318,0.255,0.52,0.336c0.202,0.082,0.423,0.123,0.662,0.123l-0.045,0.371H93.704
		z"/>
	<path d="M100.547,55.011c0.349-0.827,0.805-1.574,1.369-2.245c0.562-0.671,1.179-1.262,1.849-1.778
		c0.67-0.515,1.336-0.948,1.997-1.297c0.66-0.349,1.262-0.617,1.806-0.802c0.545-0.184,0.962-0.276,1.254-0.276
		c0.156,0,0.233,0.059,0.233,0.175c0,0.078-0.073,0.142-0.219,0.188c-0.146,0.05-0.384,0.132-0.713,0.248
		c-0.759,0.272-1.487,0.7-2.187,1.283c-0.7,0.584-1.317,1.254-1.852,2.011c-0.534,0.759-0.966,1.564-1.297,2.419
		c-0.331,0.855-0.495,1.682-0.495,2.478c0,0.233,0.014,0.481,0.043,0.744c0.029,0.262,0.093,0.5,0.189,0.713
		c0.097,0.215,0.238,0.395,0.423,0.54c0.186,0.146,0.424,0.219,0.716,0.219c0.661,0,1.279-0.306,1.854-0.917
		c0.574-0.61,1.104-1.391,1.592-2.343c0.485-0.951,0.924-2.013,1.312-3.188c0.39-1.173,0.716-2.319,0.979-3.435
		c0.262-1.115,0.466-2.144,0.612-3.085c0.146-0.94,0.219-1.654,0.219-2.139c0-0.562-0.053-1.121-0.161-1.674
		c-0.107-0.553-0.291-1.048-0.553-1.485c-0.262-0.435-0.613-0.79-1.049-1.062c-0.438-0.272-0.997-0.408-1.676-0.408
		c-0.817,0-1.512,0.157-2.083,0.467c-0.575,0.311-1.045,0.656-1.415,1.033c-0.37,0.381-0.656,0.731-0.86,1.051
		c-0.205,0.32-0.355,0.481-0.451,0.481c-0.117,0-0.176-0.058-0.176-0.175c0-0.078,0.117-0.292,0.351-0.642
		c0.232-0.35,0.573-0.719,1.02-1.106c0.446-0.39,0.997-0.74,1.646-1.054c0.652-0.312,1.394-0.47,2.23-0.47
		c0.912,0,1.7,0.17,2.36,0.511c0.661,0.339,1.2,0.801,1.619,1.383s0.728,1.253,0.933,2.011c0.203,0.757,0.306,1.553,0.306,2.388
		c0,1.147-0.15,2.312-0.452,3.498c-0.301,1.185-0.699,2.326-1.196,3.422c-0.496,1.099-1.074,2.128-1.734,3.09
		c-0.662,0.961-1.357,1.797-2.086,2.506c-0.729,0.708-1.463,1.268-2.202,1.675c-0.738,0.408-1.449,0.612-2.13,0.612
		c-0.854,0-1.476-0.279-1.866-0.837c-0.388-0.558-0.582-1.235-0.582-2.032C100.024,56.735,100.199,55.835,100.547,55.011z"/>
	<path d="M83.594,62.269c-0.41-0.226-0.879-0.34-1.395-0.34c-0.972,0-1.856,0.494-2.639,1.438l0.184-1.37l0.011-0.079l-0.079,0.012
		l-2.864,0.412l-0.042,0.006l-0.009,0.042l-0.053,0.281l-0.014,0.073l0.074-0.002c0.528-0.009,0.892,0.092,1.079,0.301
		c0.132,0.148,0.182,0.357,0.147,0.622c0-0.001-0.682,4.789-0.682,4.789c-0.029,0.174-0.089,0.33-0.185,0.476
		c-0.095,0.145-0.214,0.272-0.354,0.378s-0.299,0.192-0.475,0.255c-0.172,0.061-0.349,0.093-0.522,0.093h-0.054l-0.006,0.053
		l-0.035,0.289l-0.007,0.068h0.067h4.229h0.054l0.007-0.053l0.035-0.29l0.009-0.067h-0.069c-0.178,0-0.346-0.032-0.498-0.091
		c-0.152-0.062-0.285-0.147-0.393-0.251c-0.107-0.105-0.189-0.23-0.243-0.373c-0.056-0.142-0.068-0.295-0.041-0.467
		c0-0.001,0.324-2.226,0.324-2.226c0.122-0.906,0.39-1.745,0.799-2.494c0.535-0.954,1.198-1.439,1.971-1.439
		c0.204,0,0.38,0.039,0.538,0.117c0.143,0.07,0.279,0.178,0.412,0.302c-0.097,0.075-0.191,0.154-0.259,0.251
		c-0.084,0.124-0.136,0.268-0.155,0.427c-0.019,0.122-0.01,0.242,0.023,0.354c0.037,0.113,0.09,0.209,0.157,0.288
		c0.068,0.081,0.156,0.149,0.261,0.2c0.104,0.05,0.218,0.076,0.337,0.076s0.234-0.024,0.353-0.075
		c0.113-0.049,0.215-0.112,0.309-0.194c0.092-0.079,0.174-0.173,0.24-0.28c0.068-0.107,0.112-0.226,0.131-0.352
		C84.33,62.944,84.101,62.556,83.594,62.269z M74.428,69.563c-0.153-0.062-0.285-0.147-0.391-0.251
		c-0.108-0.105-0.187-0.227-0.24-0.371c-0.051-0.144-0.064-0.297-0.036-0.469c0-0.002,0.911-6.476,0.911-6.476l0.011-0.079
		l-0.08,0.012l-2.873,0.412l-0.042,0.006l-0.009,0.042l-0.052,0.281l-0.013,0.071h0.073c0.529,0,0.891,0.107,1.077,0.319
		c0.127,0.145,0.175,0.349,0.142,0.604c0-0.001-0.324,2.223-0.324,2.223c-0.063,0.445-0.168,0.88-0.309,1.293
		c-0.142,0.418-0.331,0.822-0.559,1.199c-0.604,0.945-1.294,1.424-2.051,1.424c-0.599,0-1.043-0.163-1.322-0.482
		c-0.338-0.389-0.447-1.024-0.326-1.893l0.771-5.431l0.012-0.079l-0.081,0.012l-2.864,0.412l-0.043,0.006l-0.008,0.042l-0.053,0.281
		l-0.014,0.071h0.073c0.535,0,0.9,0.108,1.086,0.32c0.129,0.147,0.175,0.345,0.142,0.603l-0.411,2.889
		c-0.071,0.533-0.069,1.022,0.005,1.455c0.074,0.433,0.225,0.815,0.452,1.137c0.47,0.703,1.248,1.059,2.309,1.059
		c1.065,0,1.998-0.494,2.786-1.438l-0.174,1.229l-0.01,0.068h0.07h2.821h0.054l0.007-0.054l0.034-0.289l0.008-0.067h-0.067
		C74.745,69.654,74.581,69.623,74.428,69.563z M63.072,66.692c-0.293,2.064-1.092,3.11-2.377,3.11c-0.408,0-0.735-0.132-1.003-0.403
		c-0.267-0.271-0.461-0.688-0.575-1.238c-0.081-0.396-0.123-0.815-0.131-1.281c-0.005-0.457,0.027-0.947,0.096-1.459
		c0.287-2.063,1.089-3.109,2.385-3.109c0.816,0,1.329,0.537,1.57,1.642c0.081,0.398,0.125,0.828,0.134,1.276
		C63.179,65.681,63.146,66.173,63.072,66.692z M63.16,62.231c-0.441-0.201-0.945-0.303-1.501-0.303
		c-1.102,0-2.117,0.409-3.018,1.215c-0.439,0.404-0.792,0.851-1.051,1.33c-0.257,0.481-0.428,1.009-0.51,1.57
		c-0.159,1.123,0.093,2.112,0.748,2.938c0.671,0.812,1.574,1.222,2.683,1.222c1.121,0,2.125-0.409,2.986-1.216
		c0.456-0.404,0.817-0.857,1.072-1.344c0.252-0.485,0.422-1.018,0.506-1.583c0.165-1.115-0.093-2.095-0.766-2.91
		C63.988,62.743,63.602,62.434,63.16,62.231z"/>
	<path d="M95.882,70.004l0.036-0.29c0.181,0,0.36-0.032,0.539-0.096c0.178-0.065,0.34-0.152,0.486-0.263
		c0.146-0.111,0.268-0.242,0.367-0.394c0.1-0.152,0.163-0.317,0.193-0.5l0.517-3.748c0.239-1.642-0.316-2.462-1.664-2.462
		c-0.79,0-1.49,0.49-2.103,1.471c-0.233,0.387-0.421,0.789-0.564,1.208c-0.143,0.42-0.248,0.855-0.311,1.306l-0.324,2.224
		c-0.029,0.183-0.016,0.348,0.04,0.5c0.056,0.152,0.14,0.283,0.254,0.394c0.112,0.11,0.249,0.197,0.407,0.263
		c0.157,0.063,0.33,0.096,0.516,0.096l-0.035,0.29h-4.214l0.036-0.29c0.181,0,0.361-0.032,0.539-0.096
		c0.179-0.065,0.34-0.152,0.487-0.263c0.145-0.111,0.267-0.242,0.361-0.394c0.097-0.152,0.16-0.317,0.188-0.5l0.518-3.748
		c0.238-1.642-0.321-2.462-1.682-2.462c-0.788,0-1.489,0.49-2.103,1.471c-0.233,0.387-0.421,0.789-0.564,1.208
		c-0.143,0.42-0.247,0.855-0.311,1.306l-0.324,2.224c-0.031,0.183-0.015,0.348,0.043,0.5c0.059,0.152,0.144,0.283,0.258,0.394
		c0.114,0.11,0.251,0.197,0.413,0.263c0.16,0.063,0.333,0.096,0.521,0.096l-0.036,0.29h-4.23l0.035-0.29
		c0.182,0,0.362-0.032,0.542-0.096c0.181-0.065,0.345-0.152,0.491-0.263c0.146-0.111,0.27-0.242,0.368-0.394
		c0.1-0.152,0.164-0.317,0.193-0.5l0.684-4.79c0.088-0.678-0.343-1.008-1.288-0.99l0.052-0.279l2.864-0.413l-0.21,1.559
		c0.806-1.04,1.764-1.559,2.873-1.559c0.765,0,1.368,0.169,1.809,0.504c0.44,0.336,0.735,0.842,0.88,1.52
		c0.807-1.349,1.863-2.023,3.171-2.023c1.04,0,1.798,0.339,2.277,1.016c0.229,0.327,0.378,0.701,0.452,1.121
		c0.073,0.42,0.073,0.897,0.005,1.428l-0.421,2.907c-0.03,0.183-0.017,0.348,0.039,0.5c0.055,0.152,0.14,0.283,0.253,0.394
		c0.114,0.11,0.25,0.197,0.412,0.263c0.161,0.063,0.334,0.096,0.521,0.096l-0.035,0.29H95.882z"/>
	<path d="M107.312,65.572c0.069-2.214-0.51-3.32-1.742-3.32c-1.338,0-2.153,1.055-2.445,3.161c-0.012,0.064-0.02,0.141-0.026,0.229
		c-0.006,0.087-0.015,0.183-0.026,0.29L107.312,65.572z M103.055,66.219c-0.069,0.917,0.002,1.689,0.219,2.313
		c0.27,0.887,0.777,1.331,1.524,1.331c0.976,0,1.962-0.485,2.96-1.454c0,0,0.118-0.109,0.193-0.033
		c0.076,0.076-0.018,0.226-0.018,0.226c-1.098,1.027-2.205,1.542-3.32,1.542c-1.086,0-1.964-0.406-2.636-1.218
		c-0.648-0.818-0.893-1.776-0.735-2.873c0.151-1.092,0.666-2.041,1.541-2.847c0.455-0.403,0.929-0.706,1.419-0.911
		c0.49-0.204,1.01-0.307,1.559-0.307c1.045,0,1.884,0.356,2.515,1.069c0.619,0.707,0.919,1.58,0.901,2.618L103.055,66.219z"/>
	<path d="M57.081,63.219c-0.446,0.112-1.064,0.148-1.856,0.105l-4.601-0.209c-0.601-0.03-1.24,0.145-1.92,0.52
		c-0.724,0.386-1.217,0.872-1.477,1.451c0.568-0.488,1.414-0.733,2.533-0.733c0.954,0,1.854,0.097,2.705,0.292
		c0.102,0.138,0.028,0.685-0.22,1.641c-0.314,1.221-0.924,2.143-1.833,2.768c-0.843,0.581-1.884,0.873-3.131,0.873
		c-2.061,0-3.347-0.831-3.862-2.491c-0.399-1.287-0.318-3.024,0.246-5.209c0.371-1.439,0.759-2.561,1.158-3.361
		c0.659-1.315,1.57-2.369,2.73-3.165c1.162-0.796,2.414-1.194,3.758-1.194c0.637,0,2.408,0.104,3.578,1.055
		c0.553,0.45,0.9,0.938,1.063,1.426c0.166,0.49,0.237,0.94,0.217,1.35c-0.02,0.414-0.075,0.763-0.165,1.049
		c-0.09,0.287-0.102,0.457-0.038,0.512c0.079,0.066,0.158,0.068,0.24,0.005c0.055-0.042,0.128-0.223,0.22-0.54
		c0.089-0.319,0.124-0.71,0.098-1.169c-0.023-0.46-0.146-0.958-0.358-1.493c-0.215-0.535-0.601-1.039-1.16-1.511
		c-0.527-0.445-1.084-0.771-1.668-0.973c0,0-1.282-0.325-2.164-0.305c-1.149,0.026-2.233,0.228-3.252,0.688
		c-0.91,0.415-1.883,1.065-2.914,1.953c-1.888,1.62-3.149,3.658-3.782,6.11c-0.605,2.344-0.353,4.255,0.761,5.738
		c0.55,0.762,1.195,1.306,1.934,1.631c0.738,0.327,1.691,0.49,2.854,0.49c0.9,0,1.768-0.114,2.599-0.341
		c0.253-0.071,0.627-0.175,1.121-0.318c0.494-0.141,0.867-0.249,1.121-0.32c0.833-0.225,1.566-0.333,2.2-0.319l0.764-2.752
		c0.206-0.746,0.28-1.325,0.22-1.739c0.951-0.25,1.766-0.752,2.445-1.511H57.081z"/>
	<path d="M117.323,66.649c-0.058-0.032-0.195,0.146-0.382,0.437c-0.189,0.291-0.437,0.607-0.75,0.952
		c-0.312,0.343-0.689,0.656-1.137,0.937c-0.444,0.281-0.953,0.424-1.528,0.424c-0.478,0-0.851-0.125-1.12-0.371
		c-0.272-0.246-0.468-0.567-0.591-0.961c-0.122-0.397-0.186-0.847-0.186-1.347c0-0.502,0.042-1.008,0.119-1.518
		c0.067-0.439,0.217-1.087,0.448-1.937c0.233-0.854,0.52-1.787,0.858-2.798l0.138-0.413c0.075,0.017,0.158,0.022,0.232,0.042
		c1.021,0.301,1.523,0.284,2.045,0.23c1.52-0.151,2.717-1.027,3.625-1.933c0,0-1.529,0.458-2.773,0.414
		c-0.852-0.031-1.707-0.211-2.523-0.361l1.591-3.5l-3.4,0.488l-0.167,0.329c0.425,0.019,0.746,0.134,0.964,0.347
		c0.221,0.266,0.248,0.598,0.07,0.995l-0.564,1.169c-0.227-0.009-0.459-0.03-0.671-0.007c-0.591,0.071-1.431,0.178-2.269,0.622
		c-0.888,0.463-1.536,1.044-1.936,1.739c0.732-0.586,1.732-0.879,3.001-0.879c0.427,0,0.834,0.033,1.238,0.068
		c-0.218,0.513-0.418,1.033-0.605,1.564c-0.374,1.075-0.641,2.129-0.799,3.168c-0.115,0.759-0.153,1.479-0.115,2.167
		c0.04,0.685,0.165,1.295,0.38,1.821c0.214,0.528,0.527,0.945,0.946,1.255c0.416,0.307,0.945,0.462,1.588,0.462
		c0.588,0,1.129-0.143,1.63-0.427c0.499-0.283,0.938-0.601,1.304-0.955c0.367-0.352,0.657-0.685,0.868-1.003
		C117.064,67.551,117.629,66.817,117.323,66.649z"/>
</g>
</svg>
