<?xml version="1.0" encoding="utf-8"?>
<!-- Generator: Adobe Illustrator 16.0.3, SVG Export Plug-In . SVG Version: 6.00 Build 0)  -->
<!DOCTYPE svg PUBLIC "-//W3C//DTD SVG 1.1//EN" "http://www.w3.org/Graphics/SVG/1.1/DTD/svg11.dtd">
<svg version="1.1" id="Layer_2" xmlns="http://www.w3.org/2000/svg" xmlns:xlink="http://www.w3.org/1999/xlink" x="0px" y="0px"
	 width="160px" height="110px" viewBox="0 0 160 110" enable-background="new 0 0 160 110" xml:space="preserve">
<g>
	<g>
		<g>
			<path d="M72.11,41.678l3.244-0.78v21.896c0,2.367-0.487,3.319-0.926,3.88c-0.586,0.757-1.415,1.367-2.537,1.832l-1.367-1.808
				c0.511-0.414,0.974-0.951,1.194-1.414c0.292-0.538,0.392-1.22,0.392-2.394V41.678z"/>
			<path d="M77.798,47.202c0.804-0.513,1.146-0.684,2.025-1.025c1.219-0.514,2.268-0.733,3.416-0.733
				c2.099,0,3.537,0.782,4.025,2.173c0.171,0.513,0.22,0.902,0.22,2.245l-0.073,4.197c0,0.073,0,0.146,0,0.22
				c0,1.342,0.22,1.854,1.171,2.562l-1.731,2.001c-0.757-0.316-1.439-0.879-1.758-1.514c-0.463,0.439-0.513,0.488-0.756,0.659
				c-0.61,0.439-1.488,0.684-2.514,0.684c-2.781,0-4.295-1.414-4.295-3.904c0-2.93,2.025-4.295,6.004-4.295
				c0.242,0,0.391,0,0.732,0.023v-0.512c0-1.392-0.271-1.854-1.466-1.854c-1.049,0-2.268,0.512-3.61,1.415L77.798,47.202z
				 M84.214,52.741h-0.146c-2.27,0-3.052,0.414-3.052,1.902c0,0.977,0.612,1.636,1.441,1.636c0.609,0,1.221-0.317,1.708-0.855
				L84.214,52.741z"/>
			<path d="M100.663,40.66v12.982c0,3.075,0.244,4.077,0.463,4.565h-2.929c-0.098-0.196-0.147-0.392-0.195-0.732
				c-0.805,0.707-1.757,1.05-2.878,1.05c-3.175,0-5.175-2.466-5.175-6.346c0-3.905,2.17-6.59,5.347-6.59
				c0.901,0,1.609,0.221,2.22,0.708c-0.05-0.268-0.099-1.121-0.099-1.854v-4.295L100.663,40.66z M97.466,49.007
				c-0.609-0.536-1.195-0.805-1.78-0.805c-1.465,0-2.101,1.219-2.101,4.002c0,2.685,0.562,3.562,2.271,3.562
				c0.609,0,1.292-0.413,1.609-0.804V49.007z"/>
			<path d="M112.498,54.889l1.269,1.952c-1.439,1.171-2.952,1.732-4.709,1.732c-3.589,0-5.906-2.538-5.906-6.468
				c0-2.244,0.463-3.733,1.562-4.953c1.025-1.147,2.27-1.684,3.928-1.684c1.44,0,2.808,0.488,3.614,1.317
				c1.145,1.172,1.657,2.855,1.657,5.467c0,0.269,0,0.366,0,0.756h-7.223v0.099c0,1.927,0.952,3.024,2.636,3.024
				C110.448,56.132,111.497,55.718,112.498,54.889z M106.739,50.618h3.782v-0.146c0-0.928-0.097-1.415-0.391-1.88
				c-0.317-0.487-0.78-0.731-1.438-0.731c-1.244,0-1.953,0.976-1.953,2.709V50.618z"/>
		</g>
	</g>
	<g>
		<path d="M80.387,65.208h1.087c0.421,0,0.644,0.047,0.856,0.182c0.329,0.218,0.501,0.543,0.501,0.938
			c0,0.4-0.116,0.691-0.365,0.931c-0.199,0.196-0.423,0.31-0.938,0.31h-0.685v1.56h-0.457V65.208z M80.844,65.602v1.582h0.654
			c0.335,0,0.481-0.062,0.614-0.211c0.137-0.153,0.198-0.332,0.198-0.554c0-0.291-0.067-0.486-0.229-0.621
			c-0.157-0.139-0.371-0.196-0.741-0.196H80.844z"/>
		<path d="M87.321,65.208l1.296,3.919h-0.53l-0.372-1.206h-1.463l-0.376,1.206H85.4l1.31-3.919H87.321z M86.383,67.538h1.212
			c0,0-0.308-0.977-0.409-1.314l-0.189-0.604l-0.194,0.576C86.778,66.276,86.383,67.538,86.383,67.538z"/>
		<path d="M91.068,65.208h0.577l0.742,1.497c0.062,0.124,0.147,0.307,0.2,0.438c0.058-0.132,0.131-0.279,0.211-0.438l0.752-1.497
			h0.54l-1.275,2.394v1.525h-0.484v-1.555L91.068,65.208z"/>
		<path d="M97.39,65.208h0.688l0.713,2.559c0.074,0.274,0.104,0.384,0.154,0.686c0.063-0.331,0.094-0.439,0.143-0.64l0.737-2.604
			h0.692l0.335,3.919h-0.469l-0.228-2.873c-0.016-0.252-0.028-0.669-0.028-0.669c-0.039,0.194-0.11,0.463-0.154,0.617l-0.839,2.925
			h-0.401l-0.776-2.781c-0.08-0.298-0.138-0.491-0.193-0.767c0,0-0.03,0.521-0.048,0.76l-0.214,2.788H97.05L97.39,65.208z"/>
		<path d="M104.161,65.236h2.14l-0.062,0.389h-1.606v1.269h1.344v0.405h-1.344v1.422h1.726v0.406h-2.197V65.236z"/>
		<path d="M109.648,65.22h0.542l1.303,2.495c0.144,0.281,0.365,0.818,0.365,0.818s-0.045-0.676-0.052-1.189l-0.016-2.124h0.461
			v3.907h-0.489l-1.258-2.394c-0.184-0.354-0.365-0.726-0.443-0.936c0.027,0.33,0.046,0.673,0.049,1.061l0.024,2.269h-0.486V65.22z"
			/>
		<path d="M115.436,65.208h2.593l-0.03,0.394h-1.062v3.525h-0.451v-3.525h-1.049V65.208z"/>
		<path d="M123.431,65.5l-0.205,0.336c-0.378-0.245-0.617-0.332-0.953-0.332c-0.492,0-0.783,0.246-0.783,0.647
			c0,0.312,0.189,0.497,0.652,0.639l0.451,0.143c0.349,0.108,0.535,0.211,0.69,0.395c0.159,0.183,0.257,0.445,0.257,0.69
			c0,0.365-0.2,0.709-0.543,0.943c-0.258,0.166-0.518,0.239-0.88,0.239c-0.469,0-0.867-0.115-1.255-0.354l0.204-0.366
			c0.325,0.235,0.657,0.337,1.051,0.337c0.297,0,0.458-0.046,0.622-0.17c0.188-0.143,0.28-0.332,0.28-0.561
			c0-0.349-0.229-0.589-0.703-0.731l-0.394-0.12c-0.354-0.108-0.541-0.188-0.696-0.348c-0.16-0.172-0.247-0.39-0.247-0.641
			c0-0.668,0.51-1.125,1.271-1.125C122.671,65.122,123.062,65.249,123.431,65.5z"/>
	</g>
	<g>
		<g>
			<line x1="79.599" y1="61.618" x2="123.852" y2="61.618"/>
		</g>
	</g>
	<g>
		<g>
			<g>
				<path d="M50.737,40.676c-8.058,0-14.589,6.53-14.589,14.587c0,8.06,6.531,14.589,14.589,14.589
					c8.057,0,14.589-6.529,14.589-14.589C65.326,47.206,58.794,40.676,50.737,40.676z M50.737,61.578
					c-3.488,0-6.314-2.827-6.314-6.315c0-3.486,2.826-6.313,6.314-6.313c3.486,0,6.315,2.827,6.315,6.313
					C57.053,58.751,54.224,61.578,50.737,61.578z"/>
			</g>
		</g>
	</g>
</g>
</svg>
