<?xml version="1.0" encoding="utf-8"?>
<!-- Generator: Adobe Illustrator 16.0.3, SVG Export Plug-In . SVG Version: 6.00 Build 0)  -->
<!DOCTYPE svg PUBLIC "-//W3C//DTD SVG 1.1//EN" "http://www.w3.org/Graphics/SVG/1.1/DTD/svg11.dtd">
<svg version="1.1" id="Layer_2" xmlns="http://www.w3.org/2000/svg" xmlns:xlink="http://www.w3.org/1999/xlink" x="0px" y="0px"
	 width="160px" height="110px" viewBox="0 0 160 110" enable-background="new 0 0 160 110" xml:space="preserve">
<g>
	<path fill="#231F20" d="M57.817,56.879v6.083c0,0.793-0.031,1.09-0.147,1.354c-0.127,0.296-0.477,0.656-0.857,0.889l0.688,0.762
		c0.667-0.254,1.502-0.826,1.715-1.725c0.074-0.296,0.105-0.487,0.105-1.439v-5.925H57.817z"/>
	<path fill="#231F20" d="M63.486,61.863l-0.021,1.163c-0.213,0.233-0.476,0.37-0.741,0.37c-0.359,0-0.624-0.286-0.624-0.708
		c0-0.645,0.339-0.825,1.322-0.825H63.486z M60.704,59.46l0.604,1.016c0.582-0.392,1.11-0.614,1.565-0.614
		c0.519,0,0.635,0.202,0.635,0.804v0.223c-0.116-0.011-0.211-0.011-0.317-0.011c-1.725,0-2.603,0.592-2.603,1.862
		c0,1.079,0.656,1.692,1.862,1.692c0.444,0,0.825-0.105,1.089-0.296c0.106-0.075,0.223-0.18,0.328-0.286
		c0.138,0.274,0.435,0.518,0.763,0.656l0.75-0.867c-0.411-0.307-0.507-0.53-0.507-1.111v-0.096l0.031-1.82
		c0.011-0.582-0.021-0.751-0.095-0.973c-0.212-0.603-0.836-0.943-1.745-0.943c-0.498,0-0.953,0.096-1.482,0.318
		C61.201,59.175,60.99,59.281,60.704,59.46"/>
	<path fill="#231F20" d="M66.184,59.026c0.117,0.307,0.202,0.857,0.202,1.587v3.619h1.417v-3.83c0.265-0.307,0.55-0.456,0.868-0.456
		c0.158,0,0.274,0.031,0.412,0.106l0.391-1.248c-0.222-0.096-0.316-0.117-0.528-0.117c-0.158,0-0.35,0.032-0.466,0.084
		c-0.264,0.116-0.603,0.413-0.804,0.688c-0.021-0.307-0.096-0.55-0.223-0.772L66.184,59.026z"/>
	<path fill="#231F20" d="M72.933,60.243v2.582c-0.138,0.169-0.434,0.35-0.698,0.35c-0.74,0-0.984-0.381-0.984-1.544
		c0-1.206,0.275-1.736,0.91-1.736C72.413,59.894,72.668,60.011,72.933,60.243 M74.318,56.625l-1.407-0.223v1.863
		c0,0.317,0.021,0.687,0.042,0.804c-0.264-0.211-0.571-0.307-0.963-0.307c-1.375,0-2.316,1.164-2.316,2.856
		c0,1.683,0.867,2.751,2.243,2.751c0.487,0,0.898-0.148,1.249-0.455c0.021,0.148,0.041,0.233,0.083,0.317h1.271
		c-0.096-0.212-0.201-0.646-0.201-1.979V56.625z"/>
	<path fill="#231F20" d="M76.611,56.445c-0.487,0-0.888,0.392-0.888,0.878s0.391,0.878,0.866,0.878c0.487,0,0.879-0.391,0.879-0.878
		S77.088,56.445,76.611,56.445 M75.881,58.91v5.322H77.3v-5.545L75.881,58.91z"/>
	<path fill="#231F20" d="M78.589,59.038c0.127,0.359,0.19,0.803,0.19,1.27v3.925h1.418v-3.83c0.328-0.296,0.698-0.487,0.983-0.487
		c0.37,0,0.477,0.18,0.477,0.794v3.523h1.396v-3.957c0-0.338-0.032-0.571-0.106-0.772c-0.169-0.465-0.698-0.782-1.301-0.782
		c-0.317,0-0.688,0.084-0.974,0.232c-0.232,0.127-0.413,0.254-0.624,0.402c0-0.221-0.074-0.454-0.2-0.677L78.589,59.038z"/>
	<path fill="#231F20" d="M85.698,60.932v-0.021c0-0.751,0.307-1.175,0.846-1.175c0.286,0,0.487,0.105,0.625,0.317
		c0.127,0.201,0.169,0.413,0.169,0.815v0.064H85.698z M88.195,62.783c-0.435,0.36-0.89,0.54-1.376,0.54
		c-0.729,0-1.143-0.476-1.143-1.312v-0.043h3.132v-0.328c0-1.132-0.223-1.861-0.72-2.369c-0.35-0.36-0.941-0.571-1.565-0.571
		c-0.72,0-1.259,0.233-1.703,0.73c-0.476,0.529-0.677,1.174-0.677,2.147c0,1.704,1.004,2.804,2.56,2.804
		c0.763,0,1.419-0.244,2.042-0.75L88.195,62.783z"/>
	<path fill="#231F20" d="M97.153,57.398c-0.646-0.466-1.556-0.741-2.454-0.741c-1.556,0-2.635,0.931-2.635,2.275
		c0,0.414,0.105,0.793,0.307,1.121c0.265,0.445,0.72,0.73,1.449,0.931l0.815,0.222c0.655,0.179,0.962,0.476,0.962,0.952
		c0,0.656-0.444,1.005-1.29,1.005c-0.741,0-1.334-0.232-2.021-0.592l-0.55,1.153c0.741,0.423,1.672,0.666,2.507,0.666
		c1.832,0,3.037-0.983,3.037-2.475c0-1.09-0.656-1.862-1.861-2.19l-0.89-0.243c-0.613-0.17-0.814-0.361-0.814-0.742
		c0-0.496,0.424-0.846,1.026-0.846c0.55,0,1.047,0.159,1.714,0.561L97.153,57.398z"/>
	<path fill="#231F20" d="M102.138,59.281c-0.233-0.201-0.328-0.276-0.529-0.38c-0.296-0.16-0.688-0.244-1.047-0.244
		c-0.455,0-0.984,0.159-1.344,0.401c-0.635,0.434-1.111,1.259-1.111,2.508c0,1.756,0.867,2.792,2.359,2.792
		c0.519,0,0.941-0.116,1.323-0.337c0.19-0.117,0.285-0.191,0.496-0.402l-0.646-0.857l-0.084,0.074
		c-0.35,0.306-0.646,0.445-0.974,0.445c-0.243,0-0.486-0.117-0.635-0.308c-0.18-0.232-0.275-0.656-0.275-1.365
		c0-1.27,0.286-1.819,0.921-1.819c0.265,0,0.571,0.159,0.856,0.423L102.138,59.281z"/>
	<path fill="#231F20" d="M103.004,56.731c0.063,0.222,0.106,0.73,0.106,1.238v6.263h1.438v-3.883
		c0.318-0.285,0.772-0.497,1.121-0.497c0.403,0,0.551,0.202,0.551,0.741v3.639h1.386v-3.788c0-0.519-0.032-0.698-0.138-1.006
		c-0.169-0.476-0.719-0.771-1.406-0.771c-0.55,0-1.164,0.233-1.535,0.581c0-0.063,0.021-0.286,0.021-0.454v-1.079
		c0-0.52-0.031-1.027-0.096-1.323L103.004,56.731z"/>
	<path fill="#231F20" d="M109.753,56.445c-0.487,0-0.889,0.392-0.889,0.878s0.392,0.878,0.867,0.878
		c0.486,0,0.878-0.391,0.878-0.878S110.229,56.445,109.753,56.445 M109.023,58.91v5.322h1.418v-5.545L109.023,58.91z"/>
	<path fill="#231F20" d="M111.73,59.038c0.127,0.359,0.19,0.803,0.19,1.27v3.925h1.417v-3.83c0.328-0.296,0.699-0.487,0.984-0.487
		c0.37,0,0.477,0.18,0.477,0.794v3.523h1.396v-3.957c0-0.338-0.032-0.571-0.105-0.772c-0.17-0.465-0.699-0.782-1.302-0.782
		c-0.316,0-0.688,0.084-0.974,0.232c-0.233,0.127-0.412,0.254-0.624,0.402c0-0.221-0.074-0.454-0.201-0.677L111.73,59.038z"/>
	<path fill="#231F20" d="M120.543,60.243v2.582c-0.138,0.169-0.434,0.35-0.698,0.35c-0.74,0-0.983-0.381-0.983-1.544
		c0-1.206,0.274-1.736,0.909-1.736C120.024,59.894,120.278,60.011,120.543,60.243 M121.929,56.625l-1.406-0.223v1.863
		c0,0.317,0.021,0.687,0.041,0.804c-0.264-0.211-0.569-0.307-0.962-0.307c-1.376,0-2.316,1.164-2.316,2.856
		c0,1.683,0.867,2.751,2.243,2.751c0.485,0,0.898-0.148,1.248-0.455c0.021,0.148,0.042,0.233,0.084,0.317h1.27
		c-0.096-0.212-0.201-0.646-0.201-1.979V56.625z"/>
	<path fill="#231F20" d="M124.783,56.403l-1.45,0.328c0.054,0.486,0.074,0.92,0.074,1.63v4.041c0,0.772,0.021,0.942,0.127,1.217
		c0.17,0.455,0.656,0.74,1.259,0.74c0.308,0,0.604-0.052,0.847-0.148l-0.243-0.846c-0.074,0.021-0.105,0.021-0.159,0.021
		c-0.116,0-0.232-0.052-0.285-0.147c-0.085-0.148-0.096-0.276-0.096-1.207V57.81C124.856,57.048,124.836,56.7,124.783,56.403"/>
	<path fill="#231F20" d="M127.883,60.932v-0.021c0-0.751,0.307-1.175,0.847-1.175c0.285,0,0.485,0.105,0.625,0.317
		c0.126,0.201,0.168,0.413,0.168,0.815v0.064H127.883z M130.379,62.783c-0.434,0.36-0.888,0.54-1.375,0.54
		c-0.729,0-1.143-0.476-1.143-1.312v-0.043h3.131v-0.328c0-1.132-0.221-1.861-0.718-2.369c-0.351-0.36-0.942-0.571-1.566-0.571
		c-0.72,0-1.259,0.233-1.704,0.73c-0.475,0.529-0.677,1.174-0.677,2.147c0,1.704,1.006,2.804,2.562,2.804
		c0.761,0,1.417-0.244,2.042-0.75L130.379,62.783z"/>
	<path fill="#231F20" d="M131.88,59.026c0.118,0.307,0.202,0.857,0.202,1.587v3.619h1.417v-3.83
		c0.265-0.307,0.551-0.456,0.868-0.456c0.158,0,0.274,0.031,0.412,0.106l0.392-1.248c-0.222-0.096-0.317-0.117-0.529-0.117
		c-0.159,0-0.349,0.032-0.466,0.084c-0.264,0.116-0.602,0.413-0.804,0.688c-0.021-0.307-0.095-0.55-0.222-0.772L131.88,59.026z"/>
	<polygon fill="#231F20" points="32.687,52.659 36.707,51.664 34.263,55.498 	"/>
	<polygon fill="#231F20" points="36.707,51.664 40.729,50.668 38.284,54.503 	"/>
	<polygon fill="#231F20" points="31.818,59.333 35.839,58.339 33.395,62.172 	"/>
	<polygon fill="#231F20" points="35.839,58.338 39.86,57.344 37.416,61.178 	"/>
	<polygon fill="#231F20" points="30.242,56.493 34.263,55.498 31.818,59.333 	"/>
	<polygon fill="#231F20" points="34.263,55.498 38.284,54.503 35.839,58.339 	"/>
	<polygon fill="#231F20" points="38.284,54.503 42.305,53.509 39.86,57.343 	"/>
	<polygon fill="#231F20" points="33.396,62.172 37.416,61.177 34.972,65.012 	"/>
	<polygon fill="#231F20" points="40.728,50.668 44.749,49.674 42.304,53.509 	"/>
	<polygon fill="#231F20" points="42.305,53.508 46.325,52.514 43.881,56.349 	"/>
	<polygon fill="#231F20" points="39.861,57.343 43.881,56.349 41.437,60.183 	"/>
	<polygon fill="#231F20" points="37.416,61.178 41.437,60.183 38.992,64.018 	"/>
	<g>
		<path fill="#231F20" d="M53.188,50.824c0.01-0.011,0.024-0.017,0.041-0.017c0.033,0,0.056,0.035,0.055,0.068
			c-0.013,0.499-0.064,0.864-0.064,0.865c-0.64,6.31-3.495,9.636-9.564,13.266c-3.279,1.962-4.185,3.459-4.733,4.242
			c-1.029,1.467-1.8,4.329-2.034,5.278l-1.281,1.177c0.511-8.25,3.088-10.184,6.752-13.99c3.325-3.453,4.648-6.142,4.774-9.476
			c0.053-1.415-0.295-3.005-0.358-3.254c-0.004-0.018-0.01-0.043-0.014-0.062c-0.009-0.039-0.012-0.075,0.022-0.088
			c0.037-0.016,0.076,0.003,0.135,0.061c2.505,2.485,3.219,4.998,3.219,4.998L53.188,50.824z"/>
		<path fill="#231F20" d="M24.831,57.889c0-0.003-0.002-0.013-0.002-0.016c0-0.033,0.024-0.052,0.056-0.052
			c0.012,0,0.021,0.004,0.033,0.011l1.993,1.197c0.422-3.214,2.014-5.208,3.736-6.589c0.024-0.021,0.054-0.046,0.082-0.054
			c0.034-0.009,0.067-0.003,0.069,0.045c0.001,0.024-0.017,0.061-0.026,0.08c-3.908,7.816,3.104,12.705,3.783,13.154l-0.256,0.4
			C27.106,64.346,25.185,59.541,24.831,57.889"/>
		<path fill="#231F20" d="M44.891,48.254l-0.945,0.233l3.465-10.134c1.792-0.105,3.56-0.062,5.267,0.128L44.891,48.254z"/>
		<path fill="#231F20" d="M41.792,49.021l-0.846,0.21l0.419-9.959c1.579-0.389,3.171-0.66,4.75-0.816L41.792,49.021z"/>
		<path fill="#231F20" d="M38.86,49.747l-0.792,0.195l-1.937-8.909c0.659-0.287,1.338-0.555,2.033-0.801
			c0.657-0.234,1.319-0.446,1.984-0.636L38.86,49.747z"/>
		<path fill="#231F20" d="M36.098,50.43l-0.79,0.195l-3.688-7.155c1.062-0.703,2.203-1.352,3.416-1.935L36.098,50.43z"/>
		<path fill="#231F20" d="M33.349,51.111l-0.757,0.188l-4.567-4.976c0.819-0.782,1.718-1.528,2.688-2.227L33.349,51.111z"/>
	</g>
</g>
</svg>
