<?xml version="1.0" encoding="utf-8"?>
<!-- Generator: Adobe Illustrator 20.0.0, SVG Export Plug-In . SVG Version: 6.00 Build 0)  -->
<svg version="1.1" id="Layer_2" xmlns="http://www.w3.org/2000/svg" xmlns:xlink="http://www.w3.org/1999/xlink" x="0px" y="0px"
	 viewBox="0 0 160 110" style="enable-background:new 0 0 160 110;" xml:space="preserve">
<g>
	<path d="M103.5,44.4h9.6v2.5h-5.6v6.3h5.3v2.5h-5.3v9.8h-4V44.4z M88.7,65.6H100v-2.5h-7.4v-7.2h6.4v-2.5h-6.4v-6.4h7v-2.5h-11
		V65.6z M76.4,54.8l4.3-10.5h4.1L80,54.8l6,10.8h-4.1L76.4,54.8z M72.3,44.4h4v21.2h-4V44.4z M46.9,44.4H61v10.5l4.7-10.5h2.3v21.2
		h-2.3L61,55v10.7H46.9V44.4z"/>
</g>
</svg>
