<?xml version="1.0" encoding="utf-8"?>
<!-- Generator: Adobe Illustrator 16.0.3, SVG Export Plug-In . SVG Version: 6.00 Build 0)  -->
<!DOCTYPE svg PUBLIC "-//W3C//DTD SVG 1.1//EN" "http://www.w3.org/Graphics/SVG/1.1/DTD/svg11.dtd">
<svg version="1.1" id="Layer_2" xmlns="http://www.w3.org/2000/svg" xmlns:xlink="http://www.w3.org/1999/xlink" x="0px" y="0px"
	 width="160px" height="110px" viewBox="0 0 160 110" enable-background="new 0 0 160 110" xml:space="preserve">
<g>
	<polygon fill="#231F20" points="27.882,53.977 30.987,57.083 29.528,57.083 26.843,54.414 26.843,57.083 25.813,57.083 
		25.813,50.873 26.843,50.873 26.843,53.55 29.528,50.873 30.987,50.873 	"/>
	<polygon fill="#231F20" points="40.981,50.873 40.981,51.911 37.876,51.911 37.876,53.465 40.981,53.465 40.981,54.495 
		37.876,54.495 37.876,56.043 40.981,56.043 40.981,57.083 36.849,57.083 36.849,50.873 	"/>
	<g>
		<path fill="#231F20" d="M50.825,57.083l-1.199-2.069H47.87v2.069h-1.027v-6.209h3.105c0.564,0,1.051,0.2,1.455,0.607
			c0.408,0.404,0.611,0.89,0.611,1.459c0,0.43-0.123,0.823-0.367,1.172c-0.24,0.343-0.543,0.594-0.912,0.741l1.279,2.229H50.825z
			 M49.948,51.909H47.87v2.061l2.078,0.008c0.281,0,0.52-0.101,0.723-0.307c0.203-0.199,0.305-0.444,0.305-0.73
			c0-0.281-0.102-0.524-0.305-0.729C50.468,52.01,50.229,51.909,49.948,51.909"/>
		<path fill="#231F20" d="M61.854,57.083l-1.197-2.069h-1.754v2.069h-1.027v-6.209h3.105c0.566,0,1.051,0.2,1.455,0.607
			c0.408,0.404,0.609,0.89,0.609,1.459c0,0.43-0.121,0.823-0.365,1.172c-0.24,0.343-0.545,0.594-0.916,0.741l1.281,2.229H61.854z
			 M60.981,51.909h-2.078v2.061l2.078,0.008c0.277,0,0.52-0.101,0.725-0.307c0.203-0.199,0.303-0.444,0.303-0.73
			c0-0.281-0.1-0.524-0.303-0.729C61.501,52.01,61.259,51.909,60.981,51.909"/>
		<polygon fill="#231F20" points="72.712,50.873 74.026,50.873 71.476,54.131 71.476,57.083 70.444,57.083 70.444,54.189 
			67.853,50.873 69.175,50.873 70.938,53.134 		"/>
		<polygon fill="#231F20" points="86.679,50.873 87.708,50.873 87.708,53.458 90.813,53.458 90.813,50.873 91.851,50.873 
			91.851,57.083 90.813,57.083 90.813,54.495 87.708,54.495 87.708,57.083 86.679,57.083 		"/>
		<path fill="#231F20" d="M100.817,50.874c0.857,0,1.586,0.305,2.189,0.911c0.615,0.607,0.924,1.34,0.924,2.192
			c0,0.864-0.309,1.595-0.924,2.188c-0.604,0.612-1.332,0.917-2.189,0.917c-0.863,0-1.592-0.305-2.195-0.917
			c-0.605-0.599-0.914-1.328-0.914-2.188c0-0.853,0.309-1.585,0.914-2.192C99.22,51.178,99.95,50.874,100.817,50.874
			 M100.817,51.909c-0.568,0-1.057,0.203-1.469,0.607c-0.4,0.41-0.602,0.894-0.602,1.461c0,0.566,0.201,1.055,0.602,1.467
			c0.412,0.398,0.9,0.6,1.469,0.6c0.566,0,1.053-0.201,1.459-0.6c0.404-0.412,0.607-0.9,0.607-1.467
			c0-0.567-0.203-1.051-0.607-1.461C101.87,52.112,101.384,51.909,100.817,51.909"/>
		<polygon fill="#231F20" points="108.94,50.873 114.122,50.873 114.122,51.911 112.056,51.911 112.056,57.083 111.017,57.083 
			111.017,51.911 108.94,51.911 		"/>
		<polygon fill="#231F20" points="124.116,50.873 124.116,51.911 121.013,51.911 121.013,53.465 124.116,53.465 124.116,54.495 
			121.013,54.495 121.013,56.043 124.116,56.043 124.116,57.083 119.983,57.083 119.983,50.873 		"/>
		<polygon fill="#231F20" points="129.979,50.873 131.005,50.873 131.005,56.043 134.114,56.043 134.114,57.083 129.979,57.083 		
			"/>
		<rect x="25.792" y="45.166" fill="#231F20" width="108.416" height="0.666"/>
		<rect x="25.792" y="44.178" fill="#231F20" width="108.416" height="0.339"/>
		<rect x="118.204" y="62.147" fill="#231F20" width="15.926" height="0.671"/>
		<rect x="118.204" y="63.462" fill="#231F20" width="15.926" height="0.34"/>
		<rect x="25.792" y="62.292" fill="#231F20" width="16.439" height="0.544"/>
		<rect x="25.792" y="63.36" fill="#231F20" width="16.439" height="0.276"/>
		<path fill="#231F20" d="M46.97,65.348c-1.6,0-2.453,0.019-2.576,0.048l0.006-0.531c0.107,0.027,0.809,0.045,2.102,0.045
			c0-2.802-0.016-4.263-0.039-4.373l0.656,0.048c-0.012,0.046-0.039,0.117-0.084,0.218v1.424c1.221-0.006,1.887-0.014,1.992-0.037
			v0.508c-0.105-0.034-0.771-0.052-1.992-0.052v2.265c1.553,0,2.398-0.013,2.527-0.045v0.531
			C49.433,65.367,48.565,65.348,46.97,65.348"/>
		<path fill="#231F20" d="M53.61,63.017c-0.264-0.235-0.598-0.435-0.99-0.599l0.279-0.398c0.352,0.143,0.693,0.321,1.014,0.525
			L53.61,63.017z M53.251,65.71l-0.458-0.415c0.284-0.658,0.493-1.321,0.639-1.996l0.416,0.301
			C53.687,64.303,53.485,65.006,53.251,65.71 M53.849,61.713c-0.232-0.233-0.527-0.445-0.879-0.638l0.346-0.417
			c0.309,0.206,0.605,0.421,0.879,0.661L53.849,61.713z M57.179,63.568c-0.023,0.373-0.041,0.694-0.061,0.954h0.488l0.006,0.417
			c-0.07-0.021-0.244-0.042-0.521-0.053c-0.025,0.244-0.047,0.405-0.07,0.472c-0.064,0.206-0.357,0.336-0.889,0.394
			c0-0.145-0.055-0.306-0.172-0.456c0.34-0.018,0.537-0.051,0.598-0.107c0.023-0.017,0.045-0.116,0.07-0.314h-0.65
			c-0.955,0-1.49,0.019-1.605,0.065c0.029-0.135,0.086-0.6,0.176-1.378c-0.258,0.009-0.412,0.023-0.457,0.032V63.18
			c0.045,0.013,0.217,0.025,0.49,0.031c0.072-0.65,0.102-1.049,0.09-1.21c-0.107,0.154-0.229,0.31-0.363,0.474
			c-0.117-0.068-0.27-0.164-0.465-0.279c0.311-0.324,0.551-0.628,0.717-0.901c0.17-0.283,0.314-0.565,0.449-0.863l0.533,0.223
			l-0.213,0.238c-0.049,0.086-0.092,0.159-0.133,0.241c1.529,0,2.346-0.017,2.457-0.038v0.438c-0.111-0.029-1.004-0.043-2.66-0.043
			c-0.09,0.155-0.184,0.305-0.287,0.46h2.549c-0.018,0.475-0.043,0.891-0.051,1.266c0.35-0.004,0.559-0.019,0.621-0.035v0.413
			C57.759,63.584,57.542,63.57,57.179,63.568 M54.993,63.568l-0.096,0.958h1.76c0.021-0.253,0.045-0.57,0.068-0.958
			C56.153,63.561,55.573,63.561,54.993,63.568 M55.108,62.306l-0.086,0.919c0.574,0.005,1.146,0.005,1.723,0
			c0.018-0.274,0.027-0.587,0.047-0.919H55.108z M55.788,64.48c-0.117-0.227-0.232-0.432-0.35-0.593l0.416-0.182
			c0.119,0.191,0.211,0.399,0.285,0.598L55.788,64.48z M55.847,63.121c-0.117-0.194-0.215-0.369-0.299-0.529l0.354-0.18
			c0.113,0.202,0.217,0.41,0.303,0.597L55.847,63.121z"/>
		<path fill="#231F20" d="M61.806,62.895c-0.207-0.239-0.484-0.453-0.83-0.655l0.346-0.355c0.322,0.212,0.621,0.428,0.877,0.661
			L61.806,62.895z M61.63,65.471l-0.527-0.357c0.264-0.664,0.455-1.304,0.576-1.926l0.479,0.283
			C61.954,64.141,61.776,64.81,61.63,65.471 M62.024,61.66c-0.195-0.225-0.426-0.462-0.703-0.694l0.357-0.307
			c0.227,0.206,0.459,0.421,0.699,0.656L62.024,61.66z M64.267,61.66v0.502c0.775,0,1.219-0.015,1.34-0.042v3.082
			c-0.063,0.232-0.332,0.382-0.811,0.438c-0.041-0.194-0.107-0.368-0.182-0.53c0.32,0.042,0.502,0.009,0.531-0.108v-0.527h-0.879
			v1.055h-0.48c0.018-0.083,0.031-0.434,0.031-1.055h-0.779v1.103h-0.486c0.027-0.118,0.045-0.697,0.045-1.727
			c0-1.032-0.018-1.61-0.039-1.73c0.105,0.027,0.525,0.042,1.264,0.051V61.66c-0.783,0.007-1.225,0.025-1.312,0.041v-0.46
			c0.088,0.026,0.523,0.042,1.312,0.045c-0.004-0.515-0.018-0.797-0.035-0.86c0.375,0.036,0.566,0.06,0.566,0.078
			c0,0.032-0.027,0.081-0.086,0.169v0.622c0.994,0,1.561-0.018,1.688-0.048v0.454C65.827,61.68,65.261,61.66,64.267,61.66
			 M63.827,62.545h-0.785v0.643h0.785V62.545z M63.827,63.524h-0.785v0.6h0.785V63.524z M65.151,62.545h-0.879v0.643h0.879V62.545z
			 M65.151,63.53h-0.879v0.599h0.879V63.53z M65.099,61.267c-0.129-0.21-0.273-0.389-0.438-0.556l0.393-0.223
			c0.162,0.178,0.316,0.364,0.461,0.558L65.099,61.267z"/>
		<path fill="#231F20" d="M71.69,61.66l-0.51,0.007c-0.234,0.378-0.488,0.799-0.764,1.272h1.273v-0.87l0.551,0.034
			c0,0.045-0.023,0.116-0.064,0.221v0.615h1.648v0.417c-0.623-0.008-1.174-0.008-1.648-0.008v2.055
			c-0.129,0.213-0.461,0.354-0.992,0.419c-0.043-0.194-0.104-0.374-0.174-0.526c0.428,0.014,0.652-0.023,0.68-0.119v-1.82
			c-1.031,0.006-1.67,0.029-1.91,0.069l-0.174-0.486c0.146-0.013,0.473-0.433,0.977-1.272c-0.807,0.009-1.254,0.019-1.331,0.043
			v-0.513c0.082,0.025,0.61,0.044,1.584,0.049c0.139-0.249,0.291-0.516,0.461-0.814l0.592,0.177
			c-0.133,0.188-0.281,0.397-0.438,0.638h0.238c1.523,0,2.35-0.017,2.486-0.043v0.507C74.04,61.678,73.214,61.646,71.69,61.66
			 M71.011,64.176c-0.539,0.569-0.949,0.978-1.23,1.22c-0.115-0.119-0.273-0.232-0.487-0.347c0.499-0.353,0.956-0.774,1.366-1.276
			l0.525,0.287L71.011,64.176z M73.747,65.396c-0.391-0.494-0.777-0.922-1.158-1.266l0.352-0.308
			c0.262,0.237,0.672,0.627,1.23,1.184C74.011,65.154,73.872,65.287,73.747,65.396"/>
		<path fill="#231F20" d="M79.94,63.885c-0.397,0-0.748,0-1.053,0.003c-0.025,0.119-0.051,0.222-0.084,0.321
			c0.49,0,0.797-0.019,0.92-0.041c-0.045,0.587-0.088,0.955-0.131,1.109c-0.039,0.152-0.273,0.275-0.682,0.362
			c0-0.158-0.061-0.313-0.182-0.463c0.264,0.019,0.414,0,0.469-0.059c0.062-0.077,0.082-0.246,0.111-0.598h-0.58
			c-0.172,0.521-0.408,0.822-0.834,1.185c-0.117-0.117-0.252-0.219-0.398-0.31c0.311-0.232,0.656-0.504,0.799-0.875h-0.752v-0.353
			c0.1,0.022,0.381,0.041,0.838,0.036c0.029-0.1,0.053-0.204,0.064-0.316c-0.643,0.006-1.004,0.016-1.076,0.047v-0.41
			c0.092,0.03,0.689,0.043,1.777,0.045c-0.086-0.104-0.191-0.194-0.307-0.285l0.221-0.164c-0.502,0.006-0.783,0.019-0.861,0.042
			c0.033-0.119,0.047-0.305,0.047-0.557c0-0.247-0.014-0.436-0.041-0.546c0.107,0.028,0.674,0.043,1.701,0.043
			c1.033,0,1.617-0.015,1.75-0.043c-0.029,0.11-0.047,0.299-0.047,0.546c0,0.245,0.018,0.431,0.047,0.557
			c-0.094-0.023-0.422-0.036-0.984-0.042l0.381,0.169c-0.098,0.086-0.188,0.177-0.262,0.289c1.053-0.009,1.635-0.023,1.744-0.047
			v0.403C82.409,63.894,81.54,63.885,79.94,63.885 M80.14,61.173l-0.006,0.336c1.049,0,1.641-0.018,1.764-0.045v0.419
			c-0.135-0.025-0.785-0.045-1.957-0.045s-1.811,0.02-1.91,0.038v-0.412c0.094,0.027,0.635,0.04,1.623,0.045v-0.336
			c-1.254,0.01-1.934,0.019-2.041,0.049v-0.418c0.107,0.029,0.787,0.043,2.029,0.043c-0.006-0.217-0.016-0.357-0.035-0.416
			l0.598,0.042c0.018,0.044-0.006,0.112-0.064,0.18l-0.006,0.2c1.324-0.006,2.047-0.02,2.158-0.049v0.418
			C82.181,61.192,81.458,61.183,80.14,61.173 M81.194,62.414h-2.529v0.414h2.529V62.414z M79.179,63.121
			c0.146,0.141,0.264,0.292,0.365,0.449c0.553,0,0.262,0,0.872,0.009c0.1-0.146,0.184-0.299,0.253-0.458
			C80.168,63.121,79.671,63.117,79.179,63.121 M81.657,65.64v-0.35h-1.164v0.35l-0.488-0.006c0.029-0.126,0.047-0.372,0.047-0.747
			c0-0.366-0.018-0.605-0.039-0.719c0.117,0.031,0.467,0.041,1.057,0.041c0.598,0,0.953-0.01,1.074-0.034
			c-0.035,0.111-0.047,0.35-0.047,0.722c0,0.37,0.012,0.616,0.041,0.743H81.657z M81.653,64.521h-1.166v0.481h1.166V64.521z"/>
		<path fill="#231F20" d="M88.185,65.403c-1.535,0-2.371,0.018-2.479,0.037v-0.499c0.104,0.025,0.85,0.043,2.215,0.043v-0.702
			c-1.061,0-1.646,0.017-1.756,0.04l0.006-0.504c0.104,0.028,0.689,0.041,1.75,0.046v-0.558c-1.02,0.007-1.588,0.021-1.693,0.05
			c0.035-0.131,0.047-0.568,0.047-1.303c0-0.744-0.012-1.165-0.047-1.269c0.115,0.028,0.779,0.046,2,0.046
			c1.205,0,1.867-0.018,1.979-0.041c-0.029,0.099-0.043,0.52-0.043,1.262c0,0.736,0.014,1.174,0.043,1.31
			c-0.105-0.028-0.709-0.048-1.801-0.048l-0.004,0.551c1.09,0,1.693-0.018,1.805-0.046v0.512c-0.105-0.031-0.709-0.048-1.801-0.048
			l-0.004,0.702c1.402,0,2.16-0.018,2.285-0.043v0.499C90.558,65.42,89.718,65.403,88.185,65.403 M87.921,61.21h-1.168v0.683h1.168
			V61.21z M87.921,62.24h-1.168v0.704h1.168V62.24z M89.679,61.21h-1.273v0.683h1.273V61.21z M89.679,62.24h-1.273v0.704h1.273
			V62.24z"/>
		<path fill="#231F20" d="M98.503,65.64c-0.568-0.437-1.008-0.874-1.32-1.3c-0.244-0.34-0.461-0.733-0.654-1.179
			c-0.066,0.25-0.141,0.457-0.229,0.604c-0.287,0.488-0.932,1.114-1.947,1.875c-0.117-0.146-0.268-0.292-0.463-0.437
			c1.043-0.688,1.688-1.262,1.951-1.729c0.125-0.214,0.217-0.57,0.273-1.068c-1.229,0-1.895,0.018-2.002,0.045v-0.5
			c0.107,0.025,0.791,0.038,2.051,0.038c0.041-0.427,0.061-0.933,0.061-1.518l0.654,0.07l-0.127,0.35
			c-0.004,0.404-0.023,0.768-0.049,1.104c1.326,0,2.047-0.02,2.156-0.045v0.507c-0.109-0.031-0.83-0.045-2.166-0.045
			c0.354,0.783,0.697,1.363,1.037,1.723c0.367,0.394,0.789,0.743,1.258,1.018C98.784,65.335,98.618,65.495,98.503,65.64"/>
		<path fill="#231F20" d="M102.608,65.64l-0.525-0.35c0.309-0.703,0.539-1.387,0.701-2.046l0.395,0.287L102.608,65.64z
			 M102.962,62.9c-0.205-0.205-0.467-0.411-0.77-0.594l0.283-0.473c0.281,0.192,0.531,0.386,0.768,0.58L102.962,62.9z
			 M103.136,61.527c-0.209-0.245-0.443-0.456-0.703-0.625l0.352-0.422c0.264,0.208,0.498,0.427,0.703,0.653L103.136,61.527z
			 M105.946,61.117v0.767c0.838-0.006,0.904-0.017,1.01-0.04c-0.031,0.106-0.047,0.738-0.047,1.904c0,1.178,0.016,1.829,0.047,1.958
			h-0.486v-0.415h-2.35v0.35l-0.486-0.005c0.035-0.127,0.047-0.77,0.047-1.919c0-1.146-0.012-1.775-0.047-1.877
			c0.076,0.02,0.416,0.038,1.004,0.038c0.004-0.213,0.008-0.462,0.018-0.761c-0.621,0.007-0.975,0.024-1.057,0.042v-0.506
			c0.111,0.031,0.727,0.041,1.83,0.041c1.102,0,1.721-0.01,1.857-0.041v0.506C107.173,61.133,106.729,61.124,105.946,61.117
			 M106.47,63.532h-0.217c-0.439,0-0.656-0.242-0.656-0.725v-0.57l-0.617,0.003c-0.027,0.646-0.102,0.868-0.436,1.472
			c-0.119-0.074-0.259-0.132-0.416-0.18c0.363-0.488,0.467-0.719,0.494-1.295h-0.502v1.295v0.528h2.35V63.532z M106.47,64.411h-2.35
			v0.528h2.35V64.411z M105.597,61.117h-0.59c-0.008,0.299-0.008,0.543-0.014,0.767h0.604V61.117z M106.47,62.237h-0.523v0.702
			c0,0.158,0.072,0.241,0.221,0.241h0.303V62.237z"/>
		<path fill="#231F20" d="M111.501,61.49c0,1.188-0.039,2.004-0.129,2.466c-0.086,0.461-0.301,1.021-0.641,1.685
			c-0.072-0.158-0.207-0.313-0.418-0.463c0.322-0.556,0.527-1.061,0.592-1.509c0.07-0.457,0.092-1.353,0.092-2.671
			c0.113,0.03,0.805,0.049,2.076,0.054c-0.062-0.204-0.139-0.398-0.229-0.578l0.586-0.047c0.07,0.204,0.141,0.416,0.223,0.62
			c1.143-0.005,1.779-0.019,1.895-0.041v0.484H111.501z M113.562,62.764v0.741c0.914,0,1.434-0.012,1.568-0.034
			c-0.037,0.113-0.045,0.484-0.045,1.103c0,0.622,0.008,1.003,0.04,1.132h-0.525v-0.438h-2.176v0.438h-0.533
			c0.035-0.129,0.047-0.51,0.047-1.132c0-0.627-0.012-0.995-0.039-1.107c0.1,0.023,0.492,0.032,1.182,0.039
			c0-1.081-0.01-1.684-0.041-1.803c0.404,0.031,0.615,0.06,0.615,0.084c0,0.021-0.027,0.074-0.092,0.163v0.438
			c1.117,0,1.732-0.018,1.844-0.049v0.468C115.302,62.777,114.685,62.764,113.562,62.764 M114.604,63.904h-2.174v0.969h2.174V63.904
			z"/>
	</g>
</g>
</svg>
