<?xml version="1.0" encoding="utf-8"?>
<!-- Generator: Adobe Illustrator 16.0.3, SVG Export Plug-In . SVG Version: 6.00 Build 0)  -->
<!DOCTYPE svg PUBLIC "-//W3C//DTD SVG 1.1//EN" "http://www.w3.org/Graphics/SVG/1.1/DTD/svg11.dtd">
<svg version="1.1" id="Layer_2" xmlns="http://www.w3.org/2000/svg" xmlns:xlink="http://www.w3.org/1999/xlink" x="0px" y="0px"
	 width="160px" height="110px" viewBox="0 0 160 110" enable-background="new 0 0 160 110" xml:space="preserve">
<g>
	<path d="M92.297,50.638c-0.146-0.12-0.314-0.229-0.498-0.321l-1.048,1.688c0.151,0.296,0.153,0.682,0.153,1.005v8.799h2.169v-8.952
		C93.073,51.731,92.876,51.117,92.297,50.638 M87.201,50.795c-0.605,0.634-0.609,1.512-0.609,2.01v9.004h2.152v-8.718
		c0-0.347,0.002-0.757,0.166-1.071l-1.053-1.7C87.582,50.461,87.363,50.622,87.201,50.795"/>
	<path d="M89.853,51.543c0.2,0,0.35,0.035,0.475,0.083l1.997-3.218c-0.653-0.256-1.641-0.47-2.525-0.47
		c-0.967,0-1.826,0.222-2.464,0.479l1.999,3.224C89.471,51.584,89.637,51.543,89.853,51.543"/>
	<polygon points="31.546,50.093 29.206,54.658 29.206,50.093 27.012,50.093 27.012,61.81 29.206,61.81 29.206,56.086 31.504,61.81 
		33.842,61.81 31.102,55.155 33.75,50.093 	"/>
	<polygon points="35.976,50.075 35.976,61.81 41.811,61.81 41.811,60 38.135,60 38.135,56.397 41.442,56.397 41.442,54.626 
		38.135,54.626 38.135,51.864 41.658,51.864 41.658,50.075 	"/>
	<polygon points="48.68,50.093 47.529,55.999 46.352,50.093 44.08,50.093 46.42,58.208 46.42,61.81 48.613,61.81 48.613,58.342 
		50.952,50.093 	"/>
	<polygon points="53.343,50.075 53.343,61.81 59.174,61.81 59.174,60 55.5,60 55.5,56.397 58.81,56.397 58.81,54.626 55.5,54.626 
		55.5,51.864 59.027,51.864 59.027,50.075 	"/>
	<path d="M61.303,57.678h2.16v1.363c0,0.682,0,1.357,1.047,1.357c1.064,0,1.064-0.693,1.064-1.744c0-0.828-0.171-1.178-0.73-1.56
		l-2.055-1.376c-1.096-0.746-1.405-1.564-1.405-2.758c0-0.912,0.092-1.791,0.857-2.424c0.424-0.368,1.222-0.694,2.351-0.694
		c1.268,0,2.992,0.512,2.992,2.522v1.162h-2.145v-0.845c0-0.565,0-1.198-0.947-1.198c-0.586,0-0.996,0.217-0.996,1.165
		c0,0.978,0.221,1.192,0.682,1.505l2.127,1.451c0.41,0.297,0.855,0.705,1.107,1.142c0.317,0.534,0.317,0.895,0.317,1.841
		c0,1.048,0,1.691-0.378,2.31c-0.648,1.042-1.995,1.163-2.792,1.163c-1.843,0-3.257-0.694-3.257-2.677V57.678z"/>
	<polygon points="69.609,50.093 69.609,51.782 71.766,51.782 71.766,61.81 73.944,61.81 73.944,51.782 76.103,51.782 76.103,50.093 
			"/>
	<path d="M82.239,52.946c0-0.617,0-1.461-1.047-1.461c-1.106,0-1.106,0.897-1.106,1.541v5.911c0,0.663,0.029,1.43,1.093,1.43
		c1.061,0,1.061-0.812,1.061-1.378V52.946z M84.409,59.307c0,0.86-0.159,1.458-0.629,1.92c-0.692,0.733-1.792,0.834-2.569,0.834
		c-2.635,0-3.285-1.26-3.285-2.754v-6.562c0-0.496,0.011-1.376,0.611-2.006c0.453-0.482,1.328-0.896,2.655-0.896
		c1.062,0,1.896,0.282,2.442,0.727c0.579,0.48,0.774,1.098,0.774,2.228V59.307z"/>
	<polygon points="95.291,50.075 95.291,61.81 101.108,61.81 101.108,60 97.441,60 97.441,56.397 100.745,56.397 100.745,54.626 
		97.441,54.626 97.441,51.864 100.964,51.864 100.964,50.075 	"/>
	<g>
		<path d="M111.482,60.518h2.741v-0.524h-2.741V60.518z M111.482,58.844h2.741v-0.521h-2.741V58.844z M107.979,55.745h5.364v-0.514
			h-5.364V55.745z M107.091,60.518h2.753v-0.524h-2.753V60.518z M107.091,58.844h2.753v-0.521h-2.753V58.844z M114.889,54.094
			l-0.031,0.81v0.912l0.031,0.95l-1.208-0.042h-5.896l-1.368,0.042l0.051-0.95v-0.912l-0.051-0.81l1.368,0.04h5.896L114.889,54.094z
			 M106.323,52.36l1.369,0.039h5.691l1.598-0.039v1.312l-1.598-0.053h-5.691l-1.369,0.053V52.36z M105.408,57.132l1.662,0.057h7.224
			l1.581-0.04l-0.029,1.062v2.626l0.029,1.215h-1.651V61.81h-7.133v0.233h-1.683l0.021-1.225v-2.607L105.408,57.132z
			 M104.318,53.348l0.031-0.843v-1.282l-0.031-0.901l1.604,0.059h3.891c-0.225-0.306-0.48-0.612-0.764-0.911
			c0.654-0.237,1.188-0.465,1.593-0.685l1.27,1.359l-0.319,0.236h3.72l1.622-0.059l-0.034,0.901v1.391l0.034,0.801h-1.673
			l0.027-0.826v-0.775h-9.284v0.692l0.046,0.843H104.318z"/>
		<path d="M130.061,58.773c0.618-0.255,1.085-0.506,1.395-0.745c0.51,0.945,1.021,1.829,1.533,2.661
			c-0.411,0.254-0.852,0.575-1.304,0.988C131.146,60.472,130.605,59.504,130.061,58.773 M129.752,54.623h0.777v-1.041h-0.777V54.623
			z M128.419,53.582h-0.704v1.039h0.704V53.582z M125.568,54.623h0.834v-1.041h-0.834V54.623z M126.987,58.084l-0.028,0.822v1.096
			c0,0.246,0.068,0.396,0.205,0.453c0.133,0.051,0.506,0.076,1.108,0.076c0.548,0,0.868-0.17,0.948-0.529l0.144-0.593
			c0.4,0.283,0.897,0.524,1.461,0.734l-0.366,0.912c-0.121,0.299-0.322,0.547-0.587,0.721c-0.263,0.177-0.878,0.264-1.828,0.264
			c-1.132,0-1.8-0.038-1.997-0.117c-0.193-0.077-0.352-0.183-0.476-0.303c-0.116-0.122-0.172-0.411-0.172-0.867v-1.94l-0.048-0.729
			H126.987z M123.405,56.291l1.273,0.052h6.975l1.027-0.052v1.587l-1.027-0.055h-3.234l1.038,1.287
			c-0.648,0.554-1.02,0.89-1.105,1.003c-0.353-0.623-0.637-1.06-0.853-1.3l-0.335-0.382c0.479-0.254,0.801-0.459,0.963-0.608h-3.448
			l-1.273,0.055V56.291z M122.988,60.689c0.402-0.687,0.675-1.476,0.831-2.376c0.497,0.229,0.981,0.393,1.453,0.516
			c-0.355,1.239-0.688,2.163-0.987,2.781c-0.362-0.333-0.66-0.567-0.891-0.696L122.988,60.689z M124.131,49.915l-1.935,2.102
			c-0.183,0.199-0.655,0.634-1.396,1.293c-0.258-0.476-0.605-0.979-1.026-1.496c0.604-0.332,1.116-0.696,1.521-1.084
			c0.416-0.385,0.892-1.001,1.428-1.842C123.18,49.348,123.647,49.693,124.131,49.915 M124.063,53.2l-0.043-0.993l1.076,0.053h2.159
			l0.03-0.541h-2.204l-1.176,0.026v-1.507l1.176,0.043h2.234l-0.03-1.169c0.261,0.029,0.541,0.044,0.841,0.044
			c0.289,0,0.603-0.015,0.925-0.044l-0.058,1.169h3.435v1.464h-0.862l-2.672-0.026l-0.021,0.541h2.316l0.869-0.053l-0.057,0.963
			v1.86l0.057,0.967l-0.869-0.057h-6.093l-1.076,0.057l0.043-0.967l0.021-1.506l-1.146,1.414v5.837l0.05,1.254h-1.669l0.038-1.3
			v-4.06l-0.338,0.339l-0.823,0.721c-0.075-0.393-0.296-0.985-0.66-1.777c1.236-0.731,2.331-1.953,3.276-3.679
			C123.295,52.729,123.719,53.038,124.063,53.2"/>
	</g>
</g>
</svg>
