<?xml version="1.0" encoding="utf-8"?>
<!-- Generator: Adobe Illustrator 21.0.2, SVG Export Plug-In . SVG Version: 6.00 Build 0)  -->
<svg version="1.1" id="Layer_2" xmlns="http://www.w3.org/2000/svg" xmlns:xlink="http://www.w3.org/1999/xlink" x="0px" y="0px"
	 viewBox="0 0 160 110" style="enable-background:new 0 0 160 110;" xml:space="preserve">
<style type="text/css">
	.st0{fill:none;}
</style>
<g>
	<path d="M94.1,62.4c1.3-1.4,2.4-3.1,3.2-4.9V42c-0.8-1.8-1.9-3.5-3.2-4.9v9.2c-2-0.4-3.4-2.2-3.4-4.2v-7.9c-1-0.7-2-1.3-3.1-1.7V42
		c0,2.3,1.1,4.5,2.9,5.9c-1.8,1.4-2.9,3.6-2.9,5.9v13.3c1.1-0.5,2.2-1.1,3.1-1.7V53.9c0-2.1,1.4-3.8,3.4-4.2V62.4z"/>
	<path d="M65.9,62.4c-1.3-1.4-2.4-3.1-3.2-4.9V42c0.8-1.8,1.9-3.5,3.2-4.9v9.2c2-0.4,3.4-2.2,3.4-4.2v-7.9c1-0.7,2-1.3,3.1-1.7V42
		c0,2.3-1.1,4.5-2.9,5.9c1.8,1.4,2.9,3.6,2.9,5.9v13.3c-1.1-0.5-2.2-1.1-3.1-1.7V53.9c0-2.1-1.4-3.8-3.4-4.2V62.4z"/>
	<g>
		<path d="M61.3,80.5c0.4,0,0.9,0.2,1.1,0.4c0,0.2-0.2,0.6-0.5,0.5c-0.2-0.1-0.5-0.2-0.7-0.2c-0.4,0-0.6,0.2-0.6,0.4
			c0,0.3,0.2,0.4,0.9,0.8c0.7,0.3,1,0.6,1,1.3c0,0.9-0.8,1.4-1.7,1.4c-0.5,0-0.9-0.2-1.1-0.3c-0.1-0.1-0.2-0.2-0.2-0.3
			c0-0.2,0.1-0.5,0.2-0.5c0.3,0.2,0.7,0.4,1.1,0.4c0.4,0,0.7-0.2,0.7-0.5c0-0.3-0.1-0.4-0.8-0.8c-0.9-0.4-1.1-0.9-1.1-1.4
			C59.7,81.3,60,80.5,61.3,80.5L61.3,80.5z"/>
		<path d="M64.1,81.5c0-0.5,0-0.8,0-0.9c0.2,0,0.8-0.1,0.9-0.1c0.1,0,0.2,0.1,0.2,0.4l0,3.2c0,0.5,0,0.7,0,0.9
			c-0.1,0-0.7,0.1-0.9,0.1c-0.1,0-0.2,0-0.2-0.1L64.1,81.5z"/>
		<path d="M66.9,80.7L66.9,80.7c0.2-0.1,0.9-0.1,1.1-0.1c0.1,0,0.1,0,0.2,0.1c0.2,0.4,0.7,1.2,1.2,1.9c0.3,0.5,0.5,0.9,0.7,1.2
			c-0.1-0.4-0.1-0.6-0.1-1l0-2c0-0.2,0.1-0.2,0.2-0.2c0.3,0,0.5,0,0.7,0c0,0.3,0,0.7,0,1.3l0,3.2c-0.1,0-0.6,0.1-0.8,0.1
			c-0.1,0-0.2,0-0.2-0.1c-0.3-0.5-0.5-0.8-1.1-1.8c-0.4-0.7-0.6-1.1-0.9-1.6c0.1,0.6,0,1,0,1.4l0,1.9c0,0.1,0,0.2-0.2,0.2
			c-0.1,0-0.4,0-0.7,0c0-0.3,0-0.7,0-1.3l0-3L66.9,80.7z"/>
		<path d="M76.3,84.3c0,0.4-0.1,0.5-0.3,0.7c-0.2,0.1-0.6,0.3-1,0.3c-1.7,0-2.6-0.9-2.6-2.3c0-1.5,1.2-2.4,2.6-2.4
			c0.7,0,1.2,0.2,1.4,0.4c0,0.3-0.2,0.6-0.5,0.5c-0.2-0.1-0.5-0.2-0.8-0.2c-0.8,0-1.5,0.5-1.5,1.6c0,0.9,0.6,1.6,1.7,1.6
			C75.8,84.4,76.1,84.3,76.3,84.3L76.3,84.3z"/>
		<path d="M77.7,81.6c0-0.3,0-0.6,0-0.9c0.2-0.1,0.6-0.1,1-0.1c0.3,0,1.1,0,1.8,0c-0.1,0.4-0.2,0.6-0.2,0.7
			c-0.1,0.1-0.4,0.1-0.7,0.1h-0.6l0,1.1l1.6,0c-0.1,0.6-0.2,0.7-0.5,0.7l-1.1,0l0,1.2c0.2,0,0.3,0,0.6,0c0.3,0,0.9,0,1.3,0l0,0
			c-0.1,0.4-0.2,0.6-0.4,0.7c-0.1,0-0.4,0-1,0c-0.7,0-1.2,0-1.3-0.1l-0.1-0.1L77.7,81.6z"/>
		<path d="M86.6,80.7c0,0.5,0,3.6,0,4.2c0,0.1-0.1,0.2-0.2,0.2c-0.3,0-0.7,0-0.9,0c0-0.4,0-2,0-3.4c-0.1,0-0.7,0.2-0.9,0.2l0,0
			l0.2-0.6C85.4,81.1,86.2,80.8,86.6,80.7L86.6,80.7z"/>
		<path d="M88.8,84.7c0.4-0.1,1-0.2,1.4-0.6c0.5-0.4,0.6-1.1,0.6-1.7c0-0.7-0.2-1.1-0.6-1.1c-0.3,0-0.5,0.4-0.5,0.7
			c0,0.6,0.4,0.7,0.6,0.7c0,0,0.2,0,0.3-0.1c0,0.2-0.1,0.5-0.2,0.6c-0.1,0.1-0.3,0.2-0.6,0.2c-0.7,0-1.2-0.5-1.2-1.3
			c0-0.8,0.6-1.5,1.6-1.5c1.1,0,1.6,0.9,1.6,1.8c0,0.8-0.2,1.4-0.8,2c-0.6,0.6-1.3,0.7-1.6,0.7c-0.2,0-0.3,0-0.3-0.1
			C88.9,85.1,88.8,85,88.8,84.7L88.8,84.7z"/>
		<path d="M94.7,80.7c1.4,0,1.5,1.4,1.5,2.2c0,1.5-0.6,2.3-1.7,2.3c-0.8,0-1.6-0.5-1.6-2.2C93,81.9,93.4,80.7,94.7,80.7L94.7,80.7z
			 M94.6,81.4c-0.5,0-0.6,1-0.6,1.5c0,1.3,0.3,1.6,0.6,1.6c0.2,0,0.6-0.2,0.6-1.6C95.2,81.6,94.9,81.4,94.6,81.4L94.6,81.4z"/>
		<path d="M97.5,82.9c0.1-0.8,0.4-1.9,0.5-2.1c0.3,0,2-0.1,2.2-0.2l0,0c-0.1,0.3-0.2,0.6-0.3,0.7c-0.2,0.1-0.6,0.2-1.3,0.2
			c0,0.1-0.1,0.5-0.2,0.7c0.4,0,0.9,0.1,1.1,0.2c0.7,0.2,1,0.5,1,1.2c0,0.9-0.9,1.5-1.9,1.5c-0.4,0-0.7-0.1-0.8-0.2
			c-0.1-0.1-0.2-0.4-0.2-0.6l0,0c0.1,0,0.5,0.1,0.8,0.1c0.6,0,1.1-0.2,1.1-0.7c0-0.3-0.2-0.5-0.5-0.6c-0.4-0.1-1-0.2-1.3-0.2
			L97.5,82.9z"/>
	</g>
	<path d="M102.9,39.8c-4-9.2-13-15.1-22.9-15.1c-10,0-18.9,6-22.9,15.1L57,40.1v19.4l0.1,0.3c4,9.2,13,15.1,22.9,15.1
		c10,0,18.9-6,22.9-15.1l0.1-0.3V40.1L102.9,39.8z M100.4,58.9C96.8,67,88.8,72.2,80,72.2c-8.8,0-16.8-5.2-20.4-13.3V40.6
		c3.6-8.1,11.6-13.3,20.4-13.3c8.8,0,16.8,5.2,20.4,13.3V58.9z"/>
	<path d="M81.9,31h-3.8c-1.7,0-3,1.8-3,4v29.7c0,2.2,1.4,4,3,4h3.8c1.7,0,3-1.8,3-4v-15l-6.3,0l0.1,0.6c0.2,1.3,1.3,2.3,2.6,2.3h0.4
		v12.1c0,0.3-0.1,0.6-0.2,0.8h-3.1c-0.1-0.2-0.2-0.4-0.2-0.8V34.9c0-0.3,0.1-0.6,0.2-0.8h3.1c0.1,0.2,0.2,0.4,0.2,0.8v8.9h3.2v-8.9
		C84.9,32.8,83.6,31,81.9,31z"/>
</g>
<rect class="st0" width="160" height="110"/>
</svg>
