<?xml version="1.0" encoding="utf-8"?>
<!-- Generator: Adobe Illustrator 16.0.3, SVG Export Plug-In . SVG Version: 6.00 Build 0)  -->
<!DOCTYPE svg PUBLIC "-//W3C//DTD SVG 1.1//EN" "http://www.w3.org/Graphics/SVG/1.1/DTD/svg11.dtd">
<svg version="1.1" id="Layer_2" xmlns="http://www.w3.org/2000/svg" xmlns:xlink="http://www.w3.org/1999/xlink" x="0px" y="0px"
	 width="160px" height="110px" viewBox="0 0 160 110" enable-background="new 0 0 160 110" xml:space="preserve">
<g>
	<path d="M80.076,45.036c-19.928-2.351-29.234-3.337-43.568-5.028c-0.517,0-0.939-0.048-0.846,0.703
		c3.102,10.575,3.525,12.361,7.566,26.133c0.847,2.49,2.256,3.148,3.619,3.148c13.488,0,20.209,0,33.134,0
		c12.925,0,19.692,0,33.134,0c1.363,0,2.773-0.658,3.619-3.148c4.041-13.771,4.512-15.463,7.613-26.133
		c0.047-0.751-0.377-0.703-0.894-0.703C109.12,41.699,100.05,42.686,80.076,45.036L80.076,45.036z"/>
	<path fill="#F3F3F3" d="M79.981,46.539c18-2.021,28.716-3.384,41.593-4.84c0.471-0.047,0.893-0.33,0.658,0.422
		c-1.785,6.299-2.351,8.227-5.545,19.363c-0.611,1.975-1.553,1.787-3.008,1.787c-12.08,0-20.539,0-33.699,0
		c-13.159,0-21.619,0-33.697,0c-1.458,0-2.351,0.188-3.009-1.787c-3.195-11.137-3.76-13.064-5.545-19.363
		c-0.188-0.752,0.234-0.469,0.658-0.469C51.312,43.155,61.981,44.519,79.981,46.539L79.981,46.539z"/>
	<path fill="#F3F3F3" d="M114.525,64.917c-0.611,0-1.082,0.469-1.082,1.079c0,0.613,0.471,1.082,1.082,1.082
		c0.609,0,1.08-0.469,1.08-1.082C115.605,65.386,115.137,64.917,114.525,64.917L114.525,64.917L114.525,64.917z M114.525,65.105
		L114.525,65.105c0.517,0,0.893,0.375,0.893,0.891c0,0.518-0.376,0.895-0.893,0.895c-0.471,0-0.846-0.377-0.846-0.895
		C113.68,65.527,114.008,65.15,114.525,65.105L114.525,65.105L114.525,65.105z M114.148,65.386v1.224h0.188v-0.518h0.188
		l0.328,0.518h0.235l-0.377-0.518c0.235-0.048,0.329-0.143,0.329-0.376c0-0.235-0.141-0.33-0.423-0.33H114.148L114.148,65.386z
		 M114.338,65.902v-0.375h0.234c0.188,0,0.281,0.094,0.281,0.188c0,0.141-0.095,0.188-0.234,0.188H114.338L114.338,65.902z"/>
	<path fill="#F3F3F3" d="M56.905,64.635c-0.987,0-1.88,0.704-1.88,1.738c0,1.128,0.799,1.928,1.88,1.928
		c1.128,0,1.927-0.8,1.927-1.928C58.832,65.339,57.893,64.635,56.905,64.635L56.905,64.635z M56.905,65.48
		c0.563,0,0.987,0.469,0.987,0.893c0,0.611-0.424,1.034-0.987,1.034c-0.517,0-0.987-0.423-0.987-1.034
		C55.918,65.949,56.389,65.48,56.905,65.48L56.905,65.48z"/>
	<path fill="#F3F3F3" d="M65.646,64.682v1.786c0,0.423-0.047,0.939-0.611,0.939c-0.562,0-0.61-0.519-0.61-0.939v-1.786h-0.893v1.881
		c0,0.47,0,0.938,0.376,1.269c0.281,0.233,0.704,0.375,1.127,0.375c0.377,0,0.847-0.142,1.129-0.375
		c0.329-0.329,0.376-0.799,0.376-1.269v-1.881H65.646L65.646,64.682z"/>
	<path fill="#F3F3F3" d="M73.12,66.232v0.656h0.657c-0.047,0.471-0.328,0.657-0.752,0.657c-0.564,0-0.893-0.562-0.893-1.079
		c0-0.519,0.328-1.129,0.893-1.129c0.376,0,0.611,0.282,0.752,0.61l0.847-0.423c-0.282-0.564-0.847-0.893-1.551-0.893
		c-1.128,0-1.881,0.704-1.881,1.833c0,1.079,0.753,1.833,1.833,1.833c0.611,0,1.081-0.236,1.457-0.658
		c0.282-0.471,0.328-0.94,0.328-1.363L73.12,66.232L73.12,66.232z"/>
	<polygon fill="#F3F3F3" points="80.404,66.044 80.404,64.682 79.512,64.682 79.512,68.16 80.404,68.16 80.404,66.797 
		81.674,66.797 81.674,68.16 82.566,68.16 82.566,64.682 81.674,64.682 81.674,66.044 	"/>
	<polygon fill="#F3F3F3" points="87.455,68.16 88.348,68.16 88.348,66.044 88.348,66.044 89.992,68.16 90.885,68.16 90.885,64.682 
		89.992,64.682 89.992,66.844 89.992,66.844 88.348,64.682 87.455,64.682 	"/>
	<path fill="#F3F3F3" d="M97.841,64.682v1.832c0,0.471,0,0.895-0.612,0.895c-0.562,0-0.608-0.424-0.608-0.895v-1.832h-0.894v1.974
		c0,0.471,0.047,0.893,0.375,1.223c0.282,0.283,0.752,0.424,1.127,0.424c0.424,0,0.896-0.141,1.178-0.424
		c0.328-0.33,0.328-0.752,0.328-1.223v-1.974H97.841L97.841,64.682z"/>
	<polygon fill="#F3F3F3" points="104.984,65.48 105.973,65.48 105.973,64.682 103.059,64.682 103.059,65.48 104.045,65.48 
		104.045,68.16 104.984,68.16 	"/>
	<path fill="#F3F3F3" d="M112.551,64.869c-0.281-0.096-0.703-0.234-1.08-0.234c-0.658,0-1.176,0.471-1.176,1.176
		c0,0.657,0.377,0.752,0.939,0.986c0.188,0,0.518,0.094,0.518,0.375c0,0.188-0.188,0.329-0.423,0.329
		c-0.282,0-0.563-0.188-0.8-0.376l-0.375,0.752c0.375,0.188,0.799,0.424,1.223,0.424c0.328,0,0.704-0.141,0.986-0.33
		c0.234-0.281,0.328-0.609,0.328-0.986c0-0.517-0.375-0.799-0.846-0.939l-0.234-0.048c-0.141-0.047-0.377-0.14-0.377-0.327
		s0.188-0.33,0.377-0.33c0.234,0,0.423,0.143,0.611,0.282L112.551,64.869L112.551,64.869z"/>
	<path d="M111.424,56.268c0.986,0.049,2.162-0.516,2.396-0.985c0.234-0.47,0.141-1.315-0.518-1.315
		C112.738,53.966,111.658,54.436,111.424,56.268L111.424,56.268z M115.23,57.914c-1.881,2.537-4.605,2.209-5.265-0.143
		c-0.471,0.895-1.129,1.834-2.351,1.975c-1.456,0.094-1.598-1.314-1.456-2.114c0.188-0.848,0.422-1.175,1.032-2.82
		c0.377-1.174-0.846-0.564-1.504,0.563c-0.517,1.364-1.645,4.371-1.645,4.371s-0.564-0.094-1.88-0.094
		c0.142-0.752,1.222-3.103,1.833-4.841c0.423-1.174-0.848-0.517-1.551,0.657l-0.049,0.095l-1.69,4.184h-1.974l0.609-1.598
		c-0.188,0.283-0.423,0.47-0.658,0.658c-2.537,1.785-3.759,0.469-4.136-0.8c-0.705,0.894-1.598,1.738-2.35,1.646
		c-1.457-0.047-1.13-2.209-0.847-2.913c0.657-1.928,1.362-2.633,0.047-2.68c-0.234,0-1.834,6.11-4.746,6.438
		c-2.68,0.188-1.646-1.88-1.176-3.103c0.705-1.974,1.457-2.96,1.08-3.666c-0.281-0.611-1.926,0.564-2.396,1.833
		c-0.658,1.599-1.974,4.935-1.974,4.935L79.7,60.593c0,0,2.067-5.218,4.089-10.528c0.656-1.691-0.376-1.738-1.129-1.691
		c-0.658,0.047-0.424-0.517,0.047-0.611c2.443-0.188,3.29-0.094,3.572,0.095c0.517,0.328,0.47,0.986,0.377,1.081
		c-0.426,1.175-1.225,3.194-1.364,3.524c-0.329,1.079,0.376,0.094,0.61-0.188c0.234-0.235,1.74-1.926,2.021-2.396
		c0.329-0.376,1.739-1.787,2.633-1.787c0.846,0,23.922-0.047,24.533,0c1.08,0,1.551-0.516,1.785-0.704
		c0.188-0.141,0.423-0.141,0.423,0.094c-0.047,0.048-1.222,2.774-2.819,2.774c-1.785,0-24.158,0-24.769,0
		c-0.517,0-1.599,0.61-2.396,1.597c-0.754,0.893,0.188,0.564,0.188,0.564c1.41-0.142,2.68-0.47,0.471,4.369
		c-2.115,4.653,1.034,2.491,2.866-3.146c0.095-0.188-0.469-0.424-0.469-0.847c-0.05-0.518-0.188-1.034,0.702-1.034
		c0.849,0,0.564,0.847,1.271,1.034c1.457,0.47,2.257,0,1.505,1.926c-0.752,1.74-1.552,3.949-0.611,3.715
		c0.799-0.188,1.033-0.988,1.176-1.316c0-0.047,0-0.143,0-0.188c0.141-1.833,1.222-3.479,2.162-3.854
		c2.209-0.986,3.055,0.283,2.961,1.457c-0.096,1.411-1.692,2.397-3.525,2.442c-0.047-0.045-0.047,0,0,0.283
		c0.281,2.067,2.633,0.893,3.9-0.472l1.599-4.041l2.021-0.048l-0.469,1.223c1.502-1.786,3.103-1.314,2.961,0.283l0.047-0.095
		c1.738-2.256,3.713-1.411,3.008,0.658c-0.096,0.282-1.081,3.054-1.081,3.054s-0.282,0.94,0.329,0.94
		c0.471,0,1.175-0.94,1.504-1.786v-0.047c-0.094-1.833,1.033-3.386,1.927-3.854c2.209-0.94,3.149,0.33,3.149,1.457
		c0,1.41-1.6,2.396-3.432,2.443c-0.047-0.047-0.047,0,0,0.282c0.471,2.49,2.961,0.847,3.289,0.376
		C115.7,56.551,115.652,57.303,115.23,57.914L115.23,57.914z M96.008,56.268c0.986,0.049,2.162-0.516,2.396-0.985
		c0.281-0.47,0.234-1.315-0.424-1.315C97.465,53.918,96.384,54.436,96.008,56.268L96.008,56.268z M61.229,49.172
		c0-0.61,0.424-1.082,1.035-1.082c0.563,0,0.986,0.472,0.986,1.082c0,0.563-0.423,1.034-0.986,1.034
		C61.652,50.206,61.229,49.735,61.229,49.172L61.229,49.172z M73.59,61.674c0.611-0.377,1.034-0.847,1.41-1.551
		c-0.471,0.141-1.27,0.562-1.646,0.893C72.791,61.531,73.073,62.003,73.59,61.674L73.59,61.674z M70.488,58.947
		c1.598-0.469,2.961-2.633,3.195-3.29c0.658-1.598,1.175-2.914,1.175-2.914h1.88c0,0-1.363,3.243-1.928,4.981
		c-0.562,1.551,1.035,0.234,1.646-1.505c0.562-1.598,1.269-3.43,1.269-3.43h2.021c0,0-2.304,5.78-2.538,6.297
		c0.705-0.188,1.645,0.33,1.551,0.658c-0.329,0.94-0.518-0.517-1.88-0.095c-0.752,1.787-2.397,3.385-3.713,3.197
		c-1.739-0.236-0.706-2.586,2.161-3.386l0.236-0.704c-1.505,1.223-2.914,0.471-2.586-0.986c-1.222,1.504-2.679,1.737-3.571,1.646
		c-0.705,0.093-1.316-0.142-1.599-0.658c-0.47,1.224-1.128,2.867-1.128,2.867h-1.927l0.987-2.491
		c-0.799,0.471-1.599,0.518-2.256,0.518c-1.222,0.33-2.021-0.518-2.209-1.082c-1.41,1.881-2.961,1.176-3.196,0.048
		c-0.611,0.563-1.222,1.128-1.833,1.034c-1.456-0.047-1.081-2.209-0.846-2.913c0.658-1.928,1.363-2.633,0.047-2.68
		c-0.234,0-1.833,6.11-4.699,6.438c-2.68,0.188-1.646-1.88-1.223-3.103c0.705-1.974,1.457-2.96,1.081-3.666
		c-0.282-0.611-1.927,0.564-2.396,1.833c-0.658,1.599-1.975,4.935-1.975,4.935l-2.49,0.095c0,0,2.067-5.218,4.089-10.528
		c0.657-1.691-0.376-1.738-1.128-1.691c-0.658,0.047-0.423-0.517,0.094-0.611c2.396-0.188,3.242-0.094,3.572,0.095
		c0.469,0.328,0.469,0.986,0.376,1.081c-0.471,1.175-1.271,3.194-1.363,3.524c-0.376,1.079,0.376,0.094,0.564-0.188
		c0.234-0.235,1.738-1.926,2.067-2.396c0.282-0.376,1.691-1.787,2.632-1.787H60.9c-0.235,0.283-0.376,0.659-0.376,1.082
		c0,0.422,0.141,0.752,0.423,1.082c-3.901,0-7.003,0-7.191,0c-0.517,0-1.598,0.61-2.396,1.597c-0.705,0.893,0.188,0.564,0.188,0.564
		c1.409-0.142,2.679-0.47,0.47,4.369c-2.115,4.654,1.034,2.492,2.914-3.146c0.047-0.188-0.471-0.424-0.517-0.847
		c0-0.518-0.142-1.034,0.704-1.034c0.847,0,0.564,0.847,1.27,1.034c1.504,0.47,2.303,0,1.504,1.926
		c-0.705,1.74-1.551,3.949-0.564,3.716c0.471-0.145,0.705-0.473,0.894-0.801c1.034-2.728,1.88-4.889,1.88-4.889h1.88
		c0,0-0.705,1.786-2.068,5.217c-0.47,1.176,0.518,0.52,1.222-0.234c0.047-0.658,0.518-0.894,0.658-0.94
		c0.752-1.032,3.195-4.417,3.195-4.417s0.142,0.095,0,0.376c-0.188,0.282,0.188,1.88,0.377,2.397
		c0.234,0.799,0.658,2.819-0.471,3.76c-0.188,0.188-0.422,0.33-0.611,0.423c0.659-0.142,1.223-0.376,1.692-0.752l2.256-5.828h1.88
		c0,0-0.094,0.188-0.188,0.471c0.564-0.423,1.221-0.658,1.738-0.519c0.518,0.188,2.257,0.33,0.329,4.277
		C71.522,57.96,71.005,58.57,70.488,58.947L70.488,58.947z M62.498,56.784c0.94,0.472,0.564,1.786-0.094,1.976
		c-0.282,0.188,0.986,0.846,1.551-0.472c0.564-1.315-0.188-2.631-0.282-2.865C63.485,55.609,63.062,56.08,62.498,56.784
		L62.498,56.784z M69.5,54.576c-0.141,0.235-1.127,2.68-1.127,2.68c-0.282,0.704,0.141,1.032,0.423,1.08
		c0.611,0.143,1.222-0.328,1.927-2.068C71.757,53.541,69.83,53.918,69.5,54.576L69.5,54.576z M63.579,48.043
		c6.861,0,15.181,0,15.557,0.047c1.081,0,1.598-0.516,1.786-0.704c0.188-0.141,0.424-0.141,0.424,0.094
		c0,0.048-1.176,2.774-2.821,2.774c-0.987,0-8.459,0-14.945,0c0.235-0.33,0.376-0.66,0.376-1.082
		C63.955,48.749,63.814,48.373,63.579,48.043L63.579,48.043z"/>
	<path fill="#F3F3F3" d="M48.398,65.48h0.188c0.563,0,0.987,0.328,0.987,0.986c0,0.657-0.471,0.939-0.987,0.939h-0.188V65.48
		L48.398,65.48z M47.505,68.16h1.27c0.94,0,1.739-0.753,1.739-1.692c0-0.987-0.799-1.786-1.739-1.786h-1.27V68.16L47.505,68.16z"/>
</g>
</svg>
