<?xml version="1.0" encoding="utf-8"?>
<!-- Generator: Adobe Illustrator 16.0.3, SVG Export Plug-In . SVG Version: 6.00 Build 0)  -->
<!DOCTYPE svg PUBLIC "-//W3C//DTD SVG 1.1//EN" "http://www.w3.org/Graphics/SVG/1.1/DTD/svg11.dtd">
<svg version="1.1" id="Layer_2" xmlns="http://www.w3.org/2000/svg" xmlns:xlink="http://www.w3.org/1999/xlink" x="0px" y="0px"
	 width="160px" height="110px" viewBox="0 0 160 110" enable-background="new 0 0 160 110" xml:space="preserve">
<g>
	<g>
		<path fill-rule="evenodd" clip-rule="evenodd" d="M64.777,49.628c0.047,0.061,0.07,0.118,0.07,0.173
			c0,0.062-0.028,0.117-0.083,0.16c-0.056,0.048-0.119,0.069-0.193,0.069c-0.063,0-0.116-0.02-0.159-0.058
			c-0.098-0.142-0.333-0.442-0.699-0.902c-0.369-0.462-0.726-0.93-1.069-1.404l-0.732,0.644l0.007,1.464
			c0,0.077-0.027,0.14-0.079,0.186c-0.05,0.048-0.109,0.071-0.175,0.071c-0.146,0-0.22-0.079-0.22-0.235l-0.005-4.17
			c0-0.072,0.021-0.129,0.065-0.174c0.047-0.046,0.1-0.067,0.164-0.067c0.068,0,0.123,0.023,0.17,0.072
			c0.05,0.047,0.072,0.108,0.072,0.188l0.007,2.005l2.543-2.212l0.07-0.017c0.064,0,0.125,0.023,0.18,0.072
			c0.06,0.046,0.088,0.104,0.088,0.166c0,0.066-0.028,0.123-0.078,0.172l-1.723,1.527L64.777,49.628"/>
		<path fill-rule="evenodd" clip-rule="evenodd" d="M65.902,49.609h-0.008c0,0.106-0.036,0.2-0.107,0.277
			c-0.072,0.077-0.151,0.116-0.238,0.116c-0.096,0-0.184-0.04-0.256-0.118c-0.07-0.079-0.105-0.173-0.105-0.275
			c0-0.106,0.036-0.198,0.109-0.28c0.074-0.079,0.156-0.12,0.244-0.12c0.089,0,0.169,0.041,0.246,0.12
			C65.861,49.411,65.902,49.503,65.902,49.609"/>
		<path fill-rule="evenodd" clip-rule="evenodd" d="M72.636,45.754l-1.039,4.072c-0.037,0.134-0.133,0.202-0.289,0.202
			c-0.16,0-0.254-0.069-0.289-0.209l-0.89-3.617l-0.935,3.624c-0.031,0.13-0.124,0.194-0.276,0.194
			c-0.145,0-0.231-0.062-0.265-0.188l-1.074-4.041l-0.012-0.089c0-0.072,0.025-0.133,0.078-0.182
			c0.051-0.05,0.111-0.074,0.183-0.074c0.116,0,0.188,0.059,0.218,0.172l0.879,3.482l0.838-3.336
			c0.027-0.098,0.073-0.179,0.144-0.239c0.073-0.061,0.152-0.092,0.239-0.092c0.179,0,0.297,0.113,0.354,0.338l0.818,3.304
			l0.86-3.462c0.031-0.116,0.107-0.175,0.222-0.175c0.069,0,0.126,0.022,0.174,0.066c0.048,0.043,0.074,0.1,0.074,0.167
			L72.636,45.754"/>
		<path fill-rule="evenodd" clip-rule="evenodd" d="M75.226,48.095l-0.802-1.955l-0.755,1.955H75.226 M76.414,49.662l0.004,0.096
			c0,0.162-0.068,0.245-0.206,0.245c-0.064,0-0.139-0.02-0.226-0.057l-0.571-1.359h-1.917l-0.514,1.295
			c-0.015,0.031-0.05,0.059-0.105,0.084c-0.049,0.022-0.104,0.037-0.157,0.037c-0.162,0-0.233-0.097-0.21-0.292l1.658-4.225
			c0.048-0.123,0.125-0.187,0.237-0.187c0.108,0,0.2,0.056,0.276,0.166L76.414,49.662z"/>
		<path fill-rule="evenodd" clip-rule="evenodd" d="M79.88,45.618v4.171c-0.038,0.17-0.114,0.254-0.225,0.255
			c-0.062-0.001-0.119-0.027-0.17-0.083c-0.051-0.055-0.074-0.12-0.076-0.194v-1.92h-2.284v1.967
			c-0.038,0.154-0.113,0.229-0.228,0.229c-0.131,0-0.213-0.077-0.249-0.229l0.004-4.206c0.036-0.173,0.099-0.257,0.194-0.257
			c0.055,0,0.113,0.027,0.173,0.087c0.06,0.059,0.093,0.114,0.105,0.17v1.744h2.284l-0.01-1.727
			c0.042-0.163,0.127-0.243,0.254-0.243C79.764,45.382,79.839,45.461,79.88,45.618"/>
		<path fill-rule="evenodd" clip-rule="evenodd" d="M82.541,49.767h0.007c0,0.162-0.088,0.242-0.265,0.242
			c-0.134,0-0.198-0.087-0.201-0.26l0.003-3.94c0-0.077,0.019-0.138,0.06-0.184c0.042-0.044,0.095-0.067,0.158-0.067
			c0.064,0,0.121,0.024,0.167,0.077c0.05,0.05,0.071,0.118,0.073,0.201L82.541,49.767"/>
		<path fill-rule="evenodd" clip-rule="evenodd" d="M86.631,49.628c0.002,0.107-0.032,0.195-0.087,0.264
			c-0.057,0.065-0.123,0.097-0.206,0.097c-0.125,0-0.226-0.065-0.309-0.199l-2.16-3.535l0.011,3.533
			c0,0.072-0.025,0.128-0.074,0.172c-0.05,0.044-0.109,0.065-0.178,0.065c-0.146,0-0.221-0.068-0.221-0.205l-0.004-4.065
			c0-0.102,0.025-0.18,0.078-0.24c0.057-0.062,0.125-0.089,0.21-0.089c0.129,0,0.235,0.064,0.317,0.2l2.153,3.495v-3.508
			c0-0.175,0.073-0.262,0.227-0.262c0.068,0,0.123,0.022,0.17,0.068c0.047,0.045,0.074,0.103,0.074,0.178L86.631,49.628"/>
		<path fill-rule="evenodd" clip-rule="evenodd" d="M90.06,45.964h-1.104l-0.009,3.825c0,0.073-0.023,0.135-0.074,0.184
			c-0.048,0.047-0.107,0.07-0.172,0.07c-0.152,0.001-0.225-0.088-0.225-0.262v-3.817l-1.07-0.008c-0.061,0-0.111-0.026-0.152-0.08
			c-0.035-0.054-0.055-0.118-0.055-0.195c0-0.165,0.066-0.246,0.193-0.243l2.658,0.005c0.069,0,0.125,0.023,0.165,0.074
			c0.044,0.048,0.066,0.108,0.066,0.183c0,0.073-0.022,0.134-0.06,0.187C90.181,45.938,90.125,45.964,90.06,45.964"/>
		<path fill-rule="evenodd" clip-rule="evenodd" d="M90.792,47.89v1.392c0,0.091,0.01,0.148,0.027,0.173
			c0.023,0.023,0.063,0.035,0.13,0.035l2.116-0.014c0.051,0,0.091,0.027,0.127,0.085c0.038,0.053,0.057,0.108,0.057,0.163
			c0,0.169-0.069,0.254-0.199,0.254l-2.146,0.006c-0.181,0-0.323-0.051-0.426-0.154c-0.101-0.105-0.149-0.257-0.149-0.455
			l-0.012-3.253c0-0.18,0.057-0.339,0.158-0.477c0.105-0.14,0.252-0.207,0.445-0.207l2.062-0.009
			c0.049,0.016,0.091,0.055,0.127,0.116c0.04,0.062,0.051,0.124,0.051,0.187c0,0.113-0.06,0.179-0.185,0.197l-2.003,0.013
			c-0.106,0-0.162,0.073-0.162,0.216l-0.019,1.238h2.025c0.066,0,0.114,0.026,0.15,0.078c0.036,0.053,0.055,0.109,0.055,0.168
			c0,0.062-0.019,0.119-0.051,0.17c-0.036,0.053-0.088,0.078-0.147,0.078H90.792"/>
		<path fill-rule="evenodd" clip-rule="evenodd" d="M94.045,47.453l1.052-0.007c0.711,0,1.061-0.253,1.061-0.76
			c0-0.51-0.347-0.763-1.043-0.757l-0.906,0.004c-0.107,0.026-0.163,0.125-0.163,0.296V47.453 M96.917,49.548
			c0.043,0.051,0.066,0.107,0.066,0.169c0,0.07-0.028,0.134-0.079,0.187c-0.052,0.054-0.114,0.08-0.18,0.08
			c-0.06,0-0.129-0.033-0.217-0.099c-0.089-0.066-0.212-0.19-0.373-0.369c-0.162-0.179-0.272-0.32-0.336-0.423
			c-0.064-0.107-0.13-0.204-0.198-0.293c-0.065-0.087-0.11-0.154-0.138-0.197c-0.141-0.224-0.282-0.385-0.42-0.487
			c-0.139-0.101-0.248-0.148-0.318-0.148l-0.679,0.014v1.807c0,0.072-0.023,0.128-0.062,0.172c-0.042,0.044-0.097,0.065-0.158,0.065
			c-0.067,0-0.123-0.024-0.171-0.068c-0.045-0.044-0.066-0.105-0.066-0.183l0.004-3.677c0-0.187,0.051-0.343,0.15-0.475
			c0.106-0.129,0.231-0.194,0.383-0.193l1.238,0.009c0.443,0,0.766,0.119,0.973,0.358c0.213,0.237,0.315,0.53,0.315,0.876
			c0,0.322-0.088,0.59-0.272,0.806c-0.181,0.218-0.442,0.36-0.789,0.431c0.079,0.082,0.186,0.215,0.309,0.403
			c0.126,0.188,0.296,0.416,0.514,0.687C96.626,49.269,96.797,49.45,96.917,49.548"/>
		<path fill-rule="evenodd" clip-rule="evenodd" d="M100.673,49.628c0,0.107-0.028,0.195-0.088,0.264
			c-0.057,0.065-0.125,0.097-0.207,0.097c-0.121,0-0.226-0.065-0.306-0.201l-2.161-3.533l0.015,3.535c0,0.07-0.027,0.126-0.074,0.17
			c-0.051,0.044-0.11,0.065-0.178,0.065c-0.148,0-0.224-0.068-0.224-0.205l-0.004-4.065c0-0.102,0.03-0.18,0.085-0.24
			c0.054-0.062,0.123-0.089,0.202-0.089c0.133,0,0.239,0.064,0.322,0.2l2.146,3.495v-3.508c0-0.175,0.079-0.262,0.231-0.262
			c0.063,0,0.125,0.022,0.171,0.068c0.046,0.045,0.069,0.103,0.069,0.178V49.628"/>
		<path fill-rule="evenodd" clip-rule="evenodd" d="M103.706,48.095l-0.798-1.955l-0.756,1.955H103.706 M104.893,49.662l0.007,0.096
			c0,0.162-0.064,0.245-0.204,0.245c-0.064,0-0.145-0.02-0.227-0.057l-0.573-1.359h-1.919l-0.511,1.295
			c-0.014,0.031-0.051,0.059-0.103,0.082c-0.055,0.024-0.105,0.039-0.161,0.039c-0.161,0-0.23-0.097-0.213-0.292l1.664-4.225
			c0.047-0.123,0.125-0.187,0.236-0.187c0.104,0,0.197,0.056,0.275,0.166L104.893,49.662z"/>
		<path fill-rule="evenodd" clip-rule="evenodd" d="M107.779,45.964h-1.106l-0.007,3.825c0,0.073-0.025,0.135-0.076,0.184
			c-0.047,0.046-0.106,0.07-0.17,0.07c-0.152,0-0.227-0.088-0.227-0.262v-3.817l-1.064-0.008c-0.063,0-0.117-0.026-0.157-0.08
			c-0.036-0.054-0.055-0.118-0.055-0.195c0-0.165,0.065-0.247,0.192-0.243l2.66,0.005c0.07,0,0.125,0.023,0.165,0.074
			c0.042,0.048,0.065,0.108,0.065,0.183c0,0.073-0.019,0.134-0.061,0.187C107.898,45.938,107.847,45.964,107.779,45.964"/>
		<path fill-rule="evenodd" clip-rule="evenodd" d="M108.663,49.767h0.01c0,0.162-0.094,0.242-0.267,0.242
			c-0.135,0-0.198-0.087-0.198-0.26v-3.94c0-0.077,0.018-0.138,0.06-0.184c0.043-0.044,0.096-0.067,0.157-0.067
			c0.067,0,0.123,0.024,0.172,0.077c0.044,0.05,0.066,0.118,0.066,0.201V49.767"/>
		<path fill-rule="evenodd" clip-rule="evenodd" d="M111.328,49.59c0.395,0,0.736-0.16,1.018-0.481
			c0.285-0.324,0.429-0.789,0.429-1.396c0-0.598-0.144-1.061-0.425-1.387c-0.279-0.327-0.621-0.49-1.021-0.49
			c-0.396,0-0.738,0.161-1.02,0.482c-0.285,0.32-0.43,0.783-0.43,1.389c0,0.616,0.145,1.083,0.43,1.403
			C110.598,49.43,110.935,49.59,111.328,49.59 M111.328,45.365c0.635,0,1.124,0.225,1.46,0.675c0.336,0.448,0.503,1.006,0.503,1.673
			c0,0.671-0.167,1.231-0.506,1.68c-0.338,0.445-0.827,0.668-1.457,0.668c-0.632,0-1.115-0.22-1.453-0.661
			c-0.34-0.442-0.506-1.004-0.506-1.687c0-0.668,0.166-1.227,0.502-1.675C110.208,45.589,110.691,45.365,111.328,45.365"/>
		<path fill-rule="evenodd" clip-rule="evenodd" d="M117.082,49.628c0.003,0.107-0.028,0.195-0.088,0.264
			c-0.053,0.065-0.123,0.097-0.207,0.097c-0.123,0-0.225-0.065-0.307-0.199l-2.158-3.535l0.014,3.535c0,0.07-0.027,0.126-0.078,0.17
			c-0.052,0.044-0.107,0.065-0.175,0.065c-0.146,0-0.221-0.068-0.221-0.205l-0.007-4.065c0.003-0.102,0.028-0.18,0.081-0.24
			c0.056-0.062,0.124-0.089,0.207-0.089c0.134,0,0.24,0.064,0.321,0.2l2.148,3.495v-3.508c0-0.175,0.074-0.262,0.225-0.262
			c0.068,0,0.125,0.022,0.172,0.068c0.051,0.045,0.075,0.103,0.075,0.178L117.082,49.628"/>
		<path fill-rule="evenodd" clip-rule="evenodd" d="M120.114,48.095l-0.802-1.955l-0.75,1.955H120.114 M121.303,49.662l0.005,0.096
			c0,0.162-0.07,0.245-0.204,0.245c-0.067,0-0.142-0.02-0.229-0.057l-0.568-1.359l-1.921-0.001l-0.512,1.296
			c-0.02,0.031-0.051,0.059-0.106,0.084c-0.049,0.022-0.102,0.037-0.157,0.037c-0.165,0-0.234-0.097-0.211-0.292l1.659-4.225
			c0.046-0.123,0.124-0.187,0.239-0.187c0.107,0,0.197,0.056,0.277,0.166L121.303,49.662z"/>
		<path fill-rule="evenodd" clip-rule="evenodd" d="M124.016,49.724v-0.007c0.005,0.075-0.013,0.139-0.059,0.189
			c-0.043,0.053-0.102,0.077-0.171,0.077h-1.852c-0.181,0-0.314-0.065-0.411-0.2c-0.097-0.136-0.142-0.329-0.142-0.579v-3.586
			c0-0.071,0.021-0.129,0.068-0.172c0.051-0.046,0.106-0.069,0.17-0.069c0.151,0,0.226,0.082,0.226,0.241l0.007,3.56
			c0,0.124,0.013,0.206,0.04,0.249c0.027,0.04,0.083,0.062,0.17,0.062h1.741C123.925,49.489,123.994,49.566,124.016,49.724"/>
	</g>
	<g>
		<path d="M69.99,61.733c-0.18,0-0.268,0.085-0.268,0.261l-0.014,1.03c0,0.224,0.113,0.337,0.349,0.337h2.505
			c0.186,0,0.281-0.113,0.281-0.337v-0.941c0-0.234-0.104-0.35-0.309-0.35H69.99 M72.973,60.783c0.155,0,0.312,0.054,0.467,0.166
			c0.157,0.106,0.259,0.228,0.31,0.371c0.055,0.137,0.084,0.579,0.084,1.317c0,0.53-0.024,0.888-0.074,1.075
			c-0.052,0.188-0.173,0.338-0.367,0.452c-0.19,0.121-0.459,0.18-0.799,0.18h-2.898c-0.212,0-0.433-0.095-0.646-0.282
			c-0.211-0.184-0.318-0.401-0.318-0.646v-1.732c0-0.214,0.098-0.42,0.291-0.612c0.196-0.19,0.41-0.288,0.646-0.288H72.973z
			 M65.839,58.474l0.377,0.765h3.294c0.13-0.177,0.257-0.431,0.378-0.765H65.839z M72.032,57.435c0.088,0,0.13-0.107,0.13-0.328
			c0-0.185-0.049-0.275-0.144-0.275h-8.085c-0.081,0.066-0.126,0.18-0.123,0.35c-0.003,0.17,0.042,0.254,0.123,0.254H72.032z
			 M65.506,60.233c-0.012,0.217-0.045,0.412-0.096,0.592l1.307,0.012c0.373,0.009,0.661,0.061,0.858,0.154
			c0.197,0.092,0.342,0.223,0.434,0.398c0.097,0.168,0.146,0.476,0.146,0.919c0,1.485-0.547,2.228-1.637,2.228
			c-0.251,0-0.521-0.039-0.798-0.117c-0.275-0.072-0.498-0.143-0.674-0.213c-0.174-0.062-0.262-0.204-0.262-0.42
			c0-0.32,0.153-0.48,0.454-0.48c0.106,0,0.297,0.047,0.577,0.139c0.279,0.093,0.496,0.137,0.648,0.137
			c0.311,0,0.512-0.127,0.604-0.385c0.096-0.256,0.143-0.573,0.143-0.947c0-0.281-0.091-0.421-0.268-0.421h-1.788
			c-0.403,0.982-0.944,1.698-1.628,2.151c-0.679,0.455-1.18,0.68-1.506,0.68c-0.294,0-0.439-0.178-0.44-0.537
			c0-0.232,0.08-0.393,0.24-0.477c1.062-0.284,1.821-0.893,2.271-1.817h-1.951c-0.244-0.01-0.366-0.17-0.366-0.481
			c0-0.358,0.167-0.537,0.509-0.521c0.344,0.012,1.051,0.012,2.131,0c0.052-0.176,0.08-0.371,0.096-0.592h-2.633
			c-0.293,0-0.439-0.162-0.439-0.488c0-0.35,0.187-0.52,0.562-0.517l3.115,0.01c-0.031-0.087-0.099-0.218-0.199-0.396
			c-0.096-0.172-0.163-0.306-0.192-0.398c-0.276,0.008-0.535,0.008-0.783,0c-0.25,0-0.454-0.041-0.619-0.117
			c-0.164-0.07-0.291-0.198-0.38-0.381c-0.08-0.188-0.123-0.465-0.123-0.84c0-0.82,0.327-1.23,0.976-1.23h8.441
			c0.209,0.003,0.388,0.071,0.536,0.2c0.158,0.123,0.246,0.253,0.27,0.392c0.027,0.137,0.042,0.407,0.042,0.817
			c0,0.344-0.039,0.591-0.116,0.742c-0.074,0.151-0.181,0.255-0.317,0.311c-0.139,0.048-0.696,0.089-1.677,0.122l-0.338,0.778h3.403
			c0.257-0.006,0.386,0.155,0.386,0.481c0,0.342-0.129,0.514-0.386,0.514H65.506z M68.596,53.662v0.751h4.556
			c0.141,0,0.26,0.051,0.351,0.154c0.09,0.107,0.138,0.229,0.138,0.367c0,0.288-0.162,0.435-0.488,0.435H62.64
			c-0.256,0.001-0.385-0.153-0.385-0.47c0-0.326,0.151-0.486,0.453-0.486h4.8v-0.751H62.2c-0.322,0-0.487-0.155-0.487-0.469
			c-0.002-0.334,0.165-0.501,0.487-0.501h5.309v-0.564c0-0.295,0.176-0.445,0.528-0.445c0.372,0,0.558,0.146,0.558,0.445
			l-0.003,0.552h5.152c0.292,0,0.438,0.167,0.44,0.501c0,0.311-0.161,0.471-0.475,0.475C73.392,53.661,71.686,53.662,68.596,53.662"
			/>
		<path d="M90.795,58.099h-2.349v0.795c0,0.312-0.162,0.469-0.489,0.469c-0.311,0-0.468-0.156-0.468-0.469v-0.795H85.8
			c-0.26,0-0.391-0.156-0.394-0.46c0.003-0.333,0.134-0.504,0.394-0.504h1.689v-0.886c0-0.284,0.136-0.425,0.414-0.425
			c0.136,0,0.259,0.039,0.371,0.123c0.116,0.079,0.172,0.169,0.172,0.274v0.913l2.349-0.001c0.234,0.001,0.352,0.155,0.352,0.462
			C91.147,57.929,91.03,58.099,90.795,58.099 M83.044,58.099h-1.399v0.9c0,0.248-0.146,0.371-0.444,0.371
			c-0.321,0-0.48-0.123-0.482-0.371l0.002-0.9h-2.313c-0.306,0-0.459-0.156-0.459-0.46c0-0.333,0.153-0.504,0.459-0.504h2.313
			v-0.871c-0.002-0.333,0.128-0.496,0.391-0.496c0.136,0,0.26,0.054,0.371,0.153c0.108,0.093,0.163,0.209,0.163,0.343v0.871h1.399
			c0.098,0,0.189,0.06,0.257,0.173c0.08,0.11,0.119,0.232,0.119,0.369C83.42,57.96,83.294,58.099,83.044,58.099 M90.716,60.463
			h-5.707v1.14l5.424-0.002c0.265,0,0.397,0.167,0.397,0.491c0,0.312-0.133,0.467-0.397,0.467l-5.424,0.001v1.588
			c0,0.301-0.168,0.454-0.503,0.454c-0.34,0-0.507-0.153-0.507-0.454v-1.589h-5.172c-0.236,0-0.355-0.165-0.355-0.502
			c0-0.3,0.119-0.456,0.355-0.456H84v-1.138h-5.466c-0.346,0-0.515-0.165-0.515-0.495c0-0.296,0.169-0.446,0.515-0.446H84V55.7
			H78.89c-0.261,0-0.394-0.161-0.394-0.481c0-0.334,0.133-0.502,0.394-0.502h2.422c-0.078-0.078-0.116-0.174-0.119-0.284
			l0.003-0.605l-2.662,0.001c-0.316,0-0.476-0.152-0.476-0.459c0-0.312,0.16-0.469,0.475-0.469h2.663v-0.735
			c0-0.33,0.163-0.494,0.494-0.494c0.329,0,0.495,0.164,0.495,0.494V52.9h1.531c0.279,0,0.419,0.157,0.419,0.469
			c0,0.307-0.14,0.459-0.419,0.458l-1.531,0.001l-0.001,0.604c0.001,0.114-0.04,0.211-0.118,0.284h4.928
			c-0.045-0.078-0.066-0.174-0.066-0.284v-0.604h-1.664c-0.284,0-0.425-0.16-0.426-0.473c0.001-0.304,0.142-0.455,0.426-0.455h1.664
			v-0.735c0-0.336,0.17-0.499,0.514-0.499c0.331,0,0.496,0.163,0.496,0.499V52.9h2.734c0.295,0,0.444,0.158,0.441,0.477
			c0,0.3-0.146,0.451-0.439,0.451h-2.736v0.604c0,0.12-0.027,0.215-0.082,0.284h2.352c0.336,0,0.51,0.16,0.51,0.481
			c0,0.334-0.172,0.502-0.51,0.502h-5.197v3.821h5.707c0.123,0,0.221,0.05,0.301,0.15c0.082,0.099,0.123,0.217,0.123,0.351
			C91.14,60.315,90.997,60.463,90.716,60.463"/>
		<path fill-rule="evenodd" clip-rule="evenodd" d="M100.142,56.87H98.24c-0.16,0.009-0.261,0.062-0.302,0.158
			c-0.039,0.093-0.061,0.322-0.061,0.693c0,0.574,0.023,0.921,0.067,1.039c0.052,0.119,0.163,0.179,0.337,0.179l1.579,0.041
			c0.267,0,0.44-0.027,0.513-0.082c0.076-0.056,0.112-0.158,0.112-0.31l0.004-1.408C100.45,56.974,100.337,56.87,100.142,56.87
			 M101.525,57.009v1.759c0,0.288-0.101,0.557-0.288,0.805c-0.195,0.243-0.447,0.385-0.756,0.427
			c-0.311,0.036-0.699,0.054-1.173,0.054c-0.96,0-1.552-0.044-1.782-0.137c-0.229-0.097-0.412-0.275-0.543-0.536
			c-0.13-0.262-0.193-0.787-0.193-1.575c0-0.865,0.134-1.403,0.398-1.615c0.266-0.21,0.532-0.314,0.8-0.314h2.514
			c0.304,0,0.548,0.11,0.735,0.335S101.525,56.7,101.525,57.009 M102.878,59.843c-0.49-1.42-0.827-2.925-1.008-4.521h-5.308
			c-0.101,0-0.204-0.042-0.31-0.129l-0.014,7.562c0,0.321,0.132,0.481,0.399,0.481h3.726l-0.006-0.138
			c0-0.137,0.02-0.246,0.078-0.33c0.058-0.089,0.281-0.324,0.664-0.708c0.373-0.39,0.64-0.67,0.785-0.839h-0.022
			c-3.285,0.82-4.97,1.23-5.056,1.231c-0.107-0.001-0.201-0.054-0.279-0.161c-0.072-0.104-0.11-0.228-0.11-0.37
			c0-0.261,0.138-0.418,0.413-0.474c0.274-0.055,1.156-0.277,2.646-0.668c1.5-0.388,2.293-0.598,2.386-0.626
			c0.101-0.025,0.173-0.041,0.224-0.041c0.21,0,0.337,0.117,0.382,0.344C102.621,60.249,102.755,60.041,102.878,59.843
			 M106.083,55.151c-0.098,0.113-0.251,0.171-0.467,0.171h-2.7c0.106,1.188,0.329,2.295,0.661,3.321
			c0.223-0.446,0.535-1.32,0.916-2.617c0.077-0.259,0.26-0.386,0.524-0.386c0.339,0,0.514,0.157,0.513,0.474
			c0,0.149-0.137,0.64-0.402,1.465c-0.275,0.825-0.63,1.627-1.066,2.406c0.367,1.003,0.612,1.504,0.719,1.504
			c0.066,0,0.108-0.076,0.123-0.231c0.023-0.163,0.029-0.609,0.027-1.349c0.002-0.229,0.132-0.346,0.391-0.346
			c0.187,0,0.324,0.061,0.418,0.18c0.088,0.12,0.135,0.406,0.135,0.86c0,0.687-0.093,1.251-0.271,1.689
			c-0.18,0.44-0.44,0.661-0.771,0.661c-0.491,0-0.987-0.633-1.492-1.903c-0.994,1.265-1.628,1.993-1.903,2.187l4.251,0.014
			c0.268,0,0.397-0.168,0.396-0.495V55.151z M103.765,54.267c-0.229-0.287-0.54-0.613-0.93-0.984v0.984H103.765z M101.778,54.267
			l-0.017-1.088l-5.144-0.013c-0.11,0-0.199,0.041-0.267,0.121c-0.064,0.08-0.098,0.149-0.098,0.215l0.015,0.907
			c0.095-0.096,0.201-0.143,0.322-0.143H101.778z M106.083,54.437l-0.005-0.935c0-0.21-0.132-0.319-0.376-0.323l-1.59-0.013
			c0.518,0.554,0.836,0.919,0.943,1.101h0.698C105.875,54.276,105.986,54.335,106.083,54.437 M107.058,62.941l0.013-0.015
			c0.003,0.406-0.122,0.729-0.368,0.977c-0.236,0.247-0.528,0.373-0.884,0.373h-9.338c-0.825,0-1.239-0.42-1.237-1.252v-9.756
			c0-0.308,0.116-0.561,0.344-0.765c0.229-0.207,0.531-0.308,0.906-0.308l9.297,0.011c0.366,0.002,0.67,0.103,0.905,0.305
			c0.241,0.197,0.362,0.454,0.362,0.771V62.941z"/>
		<path fill-rule="evenodd" clip-rule="evenodd" d="M123.066,64.138v-0.016c-0.482-0.787-1.133-1.663-1.953-2.633
			c-0.072-0.09-0.101-0.188-0.101-0.287c0-0.135,0.052-0.251,0.159-0.352c0.115-0.104,0.243-0.158,0.389-0.158
			c0.159,0,0.365,0.137,0.611,0.414c0.246,0.269,0.606,0.748,1.083,1.436c0.467,0.688,0.706,1.086,0.704,1.195
			c0,0.147-0.065,0.275-0.187,0.379c-0.122,0.105-0.26,0.158-0.403,0.16C123.238,64.276,123.138,64.229,123.066,64.138
			 M117.668,61.152c0,0.268-0.458,0.838-1.389,1.714c-0.923,0.87-1.527,1.307-1.817,1.307c-0.278,0-0.422-0.146-0.422-0.428
			c0-0.15,0.062-0.283,0.199-0.397c0.93-0.647,1.592-1.214,1.972-1.7c0.378-0.484,0.607-0.767,0.679-0.844
			c0.081-0.085,0.174-0.124,0.275-0.124c0.123,0,0.238,0.046,0.345,0.144C117.62,60.92,117.668,61.029,117.668,61.152
			 M122.648,53.282c-0.807,0.004-1.349,0.002-1.627-0.006c-0.281-0.009-0.426-0.155-0.426-0.435c0-0.124,0.043-0.229,0.121-0.316
			c0.072-0.092,0.188-0.136,0.333-0.13c0.152,0.004,0.409,0.007,0.778,0.007c0.273,0,0.568,0.004,0.878,0.005
			c0.317,0,0.546,0.078,0.692,0.229c0.135,0.146,0.209,0.328,0.207,0.543c0.002,0.34-0.236,0.841-0.713,1.507
			c-0.475,0.659-0.791,1.051-0.943,1.176c0.339,0.544,0.742,1.078,1.226,1.6c0.483,0.525,0.74,0.814,0.771,0.874
			c0.036,0.054,0.056,0.121,0.056,0.198c0,0.124-0.058,0.234-0.157,0.33c-0.108,0.097-0.225,0.146-0.36,0.146
			c-0.086,0-0.189-0.035-0.295-0.104c-0.108-0.073-0.396-0.38-0.859-0.92c-0.461-0.546-0.884-1.121-1.266-1.733
			c-0.383-0.608-0.729-1.274-1.038-2c-0.309-0.73-0.47-1.192-0.47-1.39c0-0.284,0.161-0.425,0.465-0.425
			c0.199,0,0.334,0.084,0.408,0.253c0.309,0.909,0.654,1.702,1.037,2.378C121.976,54.455,122.366,53.86,122.648,53.282
			 M116.409,54.547l-0.237,0.536c0.295,0.233,0.691,0.643,1.211,1.226c0.215-0.31,0.373-0.604,0.477-0.889L116.409,54.547z
			 M118.166,53.166h-0.014c-0.375,0.017-0.655,0.025-0.85,0.025c-0.188,0-0.304,0.036-0.346,0.104
			c-0.051,0.068-0.094,0.134-0.138,0.192c-0.036,0.055-0.063,0.117-0.087,0.187c0.699,0.396,1.189,0.689,1.465,0.872
			c0.006-0.021,0.04-0.164,0.123-0.419c0.07-0.256,0.105-0.48,0.105-0.674C118.425,53.262,118.339,53.166,118.166,53.166
			 M117.83,57.351c0.063-0.05,0.135-0.077,0.206-0.077l3.387-0.024c0.259,0,0.388,0.147,0.388,0.445
			c0,0.207-0.049,0.335-0.165,0.387c-0.102,0.045-0.538,0.067-1.311,0.067c-0.193,0-0.641-0.002-1.339-0.005
			c-0.699-0.006-1.074-0.015-1.123-0.029c-0.043-0.013-0.096-0.06-0.146-0.137c-0.044-0.077-0.067-0.163-0.067-0.256
			c0-0.087,0.023-0.169,0.067-0.247c-0.309,0.363-0.671,0.683-1.065,0.963c-0.403,0.274-0.684,0.414-0.845,0.414
			c-0.129,0-0.237-0.047-0.328-0.14c-0.087-0.09-0.132-0.196-0.132-0.315c0-0.114,0.037-0.207,0.102-0.274
			c0.066-0.074,0.273-0.212,0.609-0.412c0.349-0.203,0.594-0.392,0.746-0.571c-0.492-0.616-0.865-1.036-1.126-1.264
			c-0.136,0.2-0.303,0.301-0.49,0.301c-0.136,0-0.258-0.046-0.36-0.139c-0.107-0.095-0.158-0.212-0.158-0.349
			c0-0.105,0.036-0.213,0.109-0.323c0.475-0.715,0.851-1.485,1.124-2.31c0.155-0.506,0.606-0.756,1.338-0.75h1.232
			c0.606,0,0.91,0.423,0.91,1.265c0,0.435-0.146,1.03-0.435,1.782C118.678,56.099,118.296,56.765,117.83,57.351 M114.184,56.685
			v-0.013c0.747,1.149,1.101,2.098,1.072,2.846c0.06-0.16,0.215-0.24,0.489-0.24l7.817-0.016c0.3,0,0.454,0.15,0.454,0.447
			c0,0.295-0.173,0.44-0.512,0.44h-3.594v3.412c0,0.291-0.107,0.532-0.319,0.72c-0.21,0.189-0.476,0.281-0.799,0.283
			c-0.354,0-0.763-0.058-1.231-0.173c-0.46-0.11-0.748-0.214-0.857-0.311c-0.101-0.092-0.158-0.202-0.158-0.336
			c0-0.141,0.058-0.27,0.158-0.384c0.109-0.116,0.229-0.173,0.367-0.173l0.15,0.035c0.635,0.266,1.117,0.398,1.448,0.398
			c0.158,0,0.246-0.101,0.246-0.301V60.15l-3.257-0.014c-0.281,0-0.416-0.135-0.42-0.405c-0.069,0.42-0.279,0.752-0.619,0.994
			c-0.337,0.24-0.719,0.357-1.13,0.357c-0.562,0.002-0.845-0.202-0.845-0.609c0-0.322,0.132-0.481,0.398-0.481
			c0.045,0,0.107,0.015,0.202,0.043c0.103,0.022,0.209,0.032,0.331,0.032c0.474,0,0.706-0.245,0.706-0.736
			c0-0.452-0.315-1.192-0.943-2.22c-0.108-0.179-0.159-0.334-0.159-0.468c0-0.121,0.15-0.646,0.453-1.588
			c0.303-0.944,0.454-1.519,0.454-1.727c0-0.179-0.085-0.266-0.259-0.259l-1.045,0.013c-0.145,0.045-0.209,0.147-0.209,0.309v10.953
			c0,0.095-0.057,0.178-0.158,0.245c-0.107,0.074-0.223,0.11-0.359,0.11c-0.283,0-0.426-0.15-0.426-0.453V53.282
			c0-0.248,0.066-0.467,0.188-0.655c0.129-0.188,0.281-0.312,0.477-0.376c0.188-0.069,0.611-0.103,1.289-0.103
			c1.058,0,1.584,0.309,1.584,0.926c0,0.098-0.016,0.198-0.044,0.304L114.184,56.685z"/>
	</g>
	<path fill-rule="evenodd" clip-rule="evenodd" d="M41.256,55.591c0.675,0,1.223,0.548,1.223,1.221v6.67
		c-0.002,0.673-0.548,1.219-1.222,1.219c-0.675,0-1.222-0.546-1.222-1.219l0.001-6.67C40.036,56.139,40.583,55.591,41.256,55.591
		 M42.498,48.548l-0.003,4.391c0,0.673-0.546,1.219-1.22,1.219s-1.221-0.546-1.221-1.219v-4.391c0-0.449-0.368-0.807-0.818-0.807
		c-0.448,0-0.808,0.363-0.808,0.812l-0.003,0.082v14.846c0,0.673-0.545,1.219-1.22,1.219c-0.677,0-1.223-0.546-1.223-1.219V48.636
		l0.003-0.082c0-1.797,1.453-3.254,3.25-3.254c0.779,0,1.499,0.274,2.059,0.733c0.559-0.454,1.242-0.733,2.018-0.733
		c1.799,0,3.256,1.457,3.256,3.254V59.5l-0.006,0.129l-0.001,1.735l-0.003,0.082c0.001,0.449,0.366,0.815,0.815,0.815
		c0.448,0,0.812-0.36,0.812-0.81l0.003-14.932c0-0.674,0.545-1.221,1.219-1.221c0.678,0,1.224,0.547,1.224,1.221v14.932
		c0,0.449,0.368,0.81,0.816,0.81s0.81-0.366,0.81-0.815l0.002-0.082V46.519c0-0.672,0.546-1.219,1.22-1.219
		c0.677,0,1.222,0.547,1.222,1.221v14.844L54.7,61.446c0,1.797-1.454,3.254-3.25,3.254c-0.781,0-1.497-0.274-2.06-0.732
		c-0.557,0.453-1.241,0.732-2.017,0.732c-1.796,0-3.255-1.457-3.255-3.254v-5.554c-0.048-0.475-0.34-0.884-0.742-1.1
		c0.418-0.225,0.714-0.658,0.742-1.162V50.5l0.005-0.128l0.002-1.736v-0.082c0.001-0.449-0.362-0.812-0.813-0.812
		C42.863,47.741,42.498,48.099,42.498,48.548"/>
</g>
</svg>
