<?xml version="1.0" encoding="utf-8"?>
<!-- Generator: Adobe Illustrator 16.0.3, SVG Export Plug-In . SVG Version: 6.00 Build 0)  -->
<!DOCTYPE svg PUBLIC "-//W3C//DTD SVG 1.1//EN" "http://www.w3.org/Graphics/SVG/1.1/DTD/svg11.dtd">
<svg version="1.1" id="Layer_2" xmlns="http://www.w3.org/2000/svg" xmlns:xlink="http://www.w3.org/1999/xlink" x="0px" y="0px"
	 width="160px" height="110px" viewBox="0 0 160 110" enable-background="new 0 0 160 110" xml:space="preserve">
<g>
	<polygon points="40.625,28.866 42.969,28.866 42.969,37.387 48.28,37.387 48.28,39.517 40.625,39.517 	"/>
	<path d="M53.317,28.79h2.16l4.565,10.728h-2.45l-0.974-2.389h-4.504l-0.974,2.389h-2.39L53.317,28.79z M55.782,35.059l-1.415-3.454
		l-1.415,3.454H55.782z"/>
	<polygon points="61.305,28.866 63.466,28.866 68.458,35.424 68.458,28.866 70.771,28.866 70.771,39.517 68.777,39.517 
		63.619,32.747 63.619,39.517 61.305,39.517 	"/>
	<g>
		<path d="M72.474,35.222v-0.03c0-3.029,2.359-5.509,5.586-5.509c1.917,0,3.073,0.518,4.184,1.461l-1.476,1.78
			c-0.822-0.685-1.552-1.08-2.785-1.08c-1.703,0-3.059,1.506-3.059,3.316v0.031c0,1.947,1.34,3.377,3.227,3.377
			c0.852,0,1.613-0.212,2.206-0.639V36.41h-2.358v-2.024h4.626v4.626c-1.096,0.928-2.602,1.689-4.55,1.689
			C74.757,40.701,72.474,38.373,72.474,35.222"/>
		<polygon points="84.496,29.866 86.839,29.866 86.839,34.081 91.162,34.081 91.162,29.866 93.504,29.866 93.504,40.517 
			91.162,40.517 91.162,36.241 86.839,36.241 86.839,40.517 84.496,40.517 		"/>
		<path d="M99.333,29.79h2.161l4.564,10.728h-2.45l-0.974-2.389H98.13l-0.974,2.389h-2.39L99.333,29.79z M101.797,36.059
			l-1.415-3.454l-1.415,3.454H101.797z"/>
		<polygon points="107.321,29.866 109.847,29.866 112.647,34.37 115.447,29.866 117.973,29.866 117.973,40.517 115.645,40.517 
			115.645,33.563 112.647,38.113 112.586,38.113 109.619,33.609 109.619,40.517 107.321,40.517 		"/>
		<path d="M40.625,42.41h4.353c2.541,0,4.078,1.507,4.078,3.683v0.03c0,2.465-1.917,3.743-4.306,3.743h-1.781v3.195h-2.344V42.41z
			 M44.826,47.782c1.172,0,1.856-0.701,1.856-1.614v-0.029c0-1.05-0.73-1.613-1.902-1.613h-1.811v3.257H44.826z"/>
		<polygon points="50.41,42.41 52.753,42.41 52.753,50.93 58.065,50.93 58.065,53.061 50.41,53.061 		"/>
		<path d="M63.101,42.333h2.161l4.564,10.728h-2.45l-0.974-2.389h-4.504l-0.974,2.389h-2.39L63.101,42.333z M65.567,48.602
			l-1.415-3.453l-1.416,3.453H65.567z"/>
		<path d="M69.933,47.766v-0.031c0-3.027,2.283-5.508,5.555-5.508c2.009,0,3.211,0.669,4.2,1.643l-1.492,1.72
			c-0.82-0.745-1.658-1.201-2.723-1.201c-1.797,0-3.09,1.491-3.09,3.316v0.03c0,1.826,1.263,3.349,3.09,3.349
			c1.217,0,1.963-0.487,2.799-1.248l1.492,1.506c-1.096,1.173-2.313,1.903-4.367,1.903C72.262,53.245,69.933,50.825,69.933,47.766"
			/>
		<polygon points="81.254,42.41 89.29,42.41 89.29,44.495 83.583,44.495 83.583,46.655 88.605,46.655 88.605,48.74 83.583,48.74 
			83.583,50.977 89.366,50.977 89.366,53.061 81.254,53.061 		"/>
		<polygon points="40.615,54.881 41.674,54.881 41.674,56.79 43.631,56.79 43.631,54.881 44.691,54.881 44.691,59.702 
			43.631,59.702 43.631,57.766 41.674,57.766 41.674,59.702 40.615,59.702 		"/>
		<path d="M45.462,57.305v-0.015c0-1.37,1.081-2.491,2.569-2.491c1.487,0,2.555,1.108,2.555,2.479v0.013
			c0,1.372-1.082,2.494-2.569,2.494S45.462,58.675,45.462,57.305 M49.477,57.305v-0.015c0-0.825-0.605-1.515-1.46-1.515
			c-0.854,0-1.445,0.675-1.445,1.502v0.013c0,0.827,0.605,1.517,1.46,1.517C48.884,58.807,49.477,58.131,49.477,57.305"/>
		<polygon points="52.273,55.859 50.806,55.859 50.806,54.881 54.799,54.881 54.799,55.859 53.333,55.859 53.333,59.702 
			52.273,59.702 		"/>
		<polygon points="55.44,54.881 59.077,54.881 59.077,55.825 56.495,55.825 56.495,56.802 58.766,56.802 58.766,57.746 
			56.495,57.746 56.495,58.758 59.111,58.758 59.111,59.702 55.44,59.702 		"/>
		<polygon points="59.881,54.881 60.942,54.881 60.942,58.738 63.346,58.738 63.346,59.702 59.881,59.702 		"/>
		<path d="M63.642,59l0.626-0.751c0.434,0.357,0.889,0.586,1.439,0.586c0.435,0,0.695-0.172,0.695-0.455v-0.014
			c0-0.269-0.165-0.406-0.971-0.612c-0.971-0.249-1.598-0.518-1.598-1.475v-0.013c0-0.875,0.702-1.454,1.688-1.454
			c0.702,0,1.302,0.221,1.79,0.613l-0.551,0.799c-0.427-0.296-0.847-0.476-1.253-0.476s-0.619,0.187-0.619,0.421v0.014
			c0,0.316,0.206,0.42,1.039,0.634c0.978,0.254,1.528,0.605,1.528,1.445v0.014c0,0.957-0.729,1.494-1.77,1.494
			C64.958,59.77,64.22,59.516,63.642,59"/>
		<path d="M71.754,54.847h0.978l2.065,4.854h-1.109l-0.439-1.081h-2.039l-0.44,1.081h-1.081L71.754,54.847z M72.87,57.684
			l-0.641-1.562l-0.641,1.562H72.87z"/>
		<polygon points="75.37,54.881 76.346,54.881 78.606,57.85 78.606,54.881 79.653,54.881 79.653,59.702 78.75,59.702 76.416,56.637 
			76.416,59.702 75.37,59.702 		"/>
		<path d="M80.637,54.881h1.88c1.515,0,2.562,1.039,2.562,2.396v0.014c0,1.356-1.047,2.41-2.562,2.41h-1.88V54.881z M82.517,58.745
			c0.867,0,1.452-0.585,1.452-1.439v-0.014c0-0.854-0.585-1.453-1.452-1.453h-0.819v2.906H82.517z"/>
		<path d="M87.744,54.881h2.203c0.613,0,1.088,0.172,1.405,0.489c0.269,0.269,0.413,0.646,0.413,1.101v0.015
			c0,0.778-0.42,1.268-1.033,1.495l1.178,1.721H90.67l-1.033-1.542h-0.833v1.542h-1.061V54.881z M89.878,57.223
			c0.516,0,0.812-0.275,0.812-0.682v-0.015c0-0.454-0.317-0.688-0.833-0.688h-1.054v1.385H89.878z"/>
		<polygon points="92.55,54.881 96.185,54.881 96.185,55.825 93.603,55.825 93.603,56.802 95.875,56.802 95.875,57.746 
			93.603,57.746 93.603,58.758 96.22,58.758 96.22,59.702 92.55,59.702 		"/>
		<path d="M96.661,59l0.627-0.751c0.434,0.357,0.888,0.586,1.439,0.586c0.434,0,0.695-0.172,0.695-0.455v-0.014
			c0-0.269-0.165-0.406-0.972-0.612c-0.971-0.249-1.598-0.518-1.598-1.475v-0.013c0-0.875,0.703-1.454,1.688-1.454
			c0.702,0,1.302,0.221,1.79,0.613l-0.551,0.799c-0.427-0.296-0.847-0.476-1.253-0.476s-0.62,0.187-0.62,0.421v0.014
			c0,0.316,0.207,0.42,1.04,0.634c0.978,0.254,1.529,0.605,1.529,1.445v0.014c0,0.957-0.73,1.494-1.771,1.494
			C97.976,59.77,97.239,59.516,96.661,59"/>
		<path d="M101.013,57.305v-0.015c0-1.37,1.081-2.491,2.568-2.491s2.556,1.108,2.556,2.479v0.013c0,1.372-1.082,2.494-2.569,2.494
			S101.013,58.675,101.013,57.305 M105.028,57.305v-0.015c0-0.825-0.606-1.515-1.46-1.515c-0.854,0-1.446,0.675-1.446,1.502v0.013
			c0,0.827,0.605,1.517,1.46,1.517C104.435,58.807,105.028,58.131,105.028,57.305"/>
		<path d="M106.907,54.881h2.204c0.612,0,1.088,0.172,1.404,0.489c0.27,0.269,0.414,0.646,0.414,1.101v0.015
			c0,0.778-0.42,1.268-1.033,1.495l1.177,1.721h-1.239l-1.032-1.542h-0.833v1.542h-1.062V54.881z M109.042,57.223
			c0.517,0,0.813-0.275,0.813-0.682v-0.015c0-0.454-0.316-0.688-0.834-0.688h-1.053v1.385H109.042z"/>
		<polygon points="112.836,55.859 111.37,55.859 111.37,54.881 115.364,54.881 115.364,55.859 113.897,55.859 113.897,59.702 
			112.836,59.702 		"/>
		<path d="M115.571,59l0.627-0.751c0.433,0.357,0.888,0.586,1.438,0.586c0.434,0,0.695-0.172,0.695-0.455v-0.014
			c0-0.269-0.165-0.406-0.971-0.612c-0.972-0.249-1.598-0.518-1.598-1.475v-0.013c0-0.875,0.702-1.454,1.688-1.454
			c0.702,0,1.301,0.221,1.79,0.613l-0.551,0.799c-0.428-0.296-0.848-0.476-1.253-0.476c-0.407,0-0.62,0.187-0.62,0.421v0.014
			c0,0.316,0.207,0.42,1.039,0.634c0.979,0.254,1.529,0.605,1.529,1.445v0.014c0,0.957-0.73,1.494-1.77,1.494
			C116.886,59.77,116.148,59.516,115.571,59"/>
		<path d="M41.313,77.773c-0.226-0.587-0.353-1.226-0.353-1.895c0-2.944,2.386-5.331,5.332-5.331c2.008,0,3.755,1.111,4.663,2.755
			c0.062,0.189,0.131,0.698-0.221,1.195c-0.411,0.587-1.485,1.222-4.234,0.998l0.28-1.468c0.196-1.012,0.282-1.075,1.037-1.132
			l0.057-0.262l-1.992,0.009c-0.228-0.011-0.435-0.01-0.632-0.001l-0.052,0.271c0.035-0.003,0.07-0.005,0.109-0.008
			c0.619,0.059,0.655,0.177,0.472,1.122l-0.265,1.398c-2.475-0.104-3.497,0.553-3.911,1.151c-0.229,0.331-0.303,0.681-0.303,0.98
			C41.301,77.633,41.303,77.706,41.313,77.773"/>
		<path d="M51.622,75.878c0,2.944-2.387,5.332-5.329,5.332c-2.144,0-3.985-1.267-4.833-3.09c-0.055-0.218-0.093-0.688,0.233-1.15
			c0.385-0.547,1.349-1.139,3.725-1.027l-0.263,1.377c-0.197,1.009-0.281,1.075-1.03,1.134l-0.057,0.26l4.625-0.005
			c0.204-0.504,0.518-1.228,0.78-1.691l-0.321-0.048c-0.235,0.439-0.454,0.75-0.805,1.008c-0.336,0.248-0.956,0.362-1.435,0.362
			c-0.814,0.01-0.937-0.112-0.777-0.925l0.268-1.401c2.847,0.219,3.979-0.48,4.422-1.121c0.228-0.331,0.305-0.68,0.305-0.981
			c0-0.122-0.015-0.23-0.037-0.332C51.428,74.275,51.622,75.054,51.622,75.878"/>
	</g>
</g>
</svg>
