<?xml version="1.0" encoding="utf-8"?>
<!-- Generator: Adobe Illustrator 16.0.3, SVG Export Plug-In . SVG Version: 6.00 Build 0)  -->
<!DOCTYPE svg PUBLIC "-//W3C//DTD SVG 1.1//EN" "http://www.w3.org/Graphics/SVG/1.1/DTD/svg11.dtd">
<svg version="1.1" id="Layer_2" xmlns="http://www.w3.org/2000/svg" xmlns:xlink="http://www.w3.org/1999/xlink" x="0px" y="0px"
	 width="160px" height="110px" viewBox="0 0 160 110" enable-background="new 0 0 160 110" xml:space="preserve">
<g>
	<path fill-rule="evenodd" clip-rule="evenodd" d="M25.615,73.195c0.564,0,1.131-0.033,1.695-0.033c0.631,0,2.459,0.033,4.285,0.033
		l0.068-1.928h-0.432c-0.266,1.129-0.766,1.462-1.928,1.462c-1.23,0-1.197-0.632-1.197-1.661V68.11c0-0.83,0-1.295,0.963-1.262
		v-0.366c-0.631,0-1.262,0.033-1.859,0.033c-0.531,0-1.064-0.033-1.596-0.033v0.366c0.965-0.033,0.932,0.432,0.932,1.262v3.424
		c0,0.829,0.033,1.328-0.932,1.295V73.195L25.615,73.195z"/>
	<path fill-rule="evenodd" clip-rule="evenodd" d="M33.393,71.534c0,0.829,0.033,1.328-0.965,1.295v0.366
		c0.566,0,1.131-0.033,1.695-0.033c0.598,0,1.195,0.033,1.762,0.033v-0.366c-0.965,0.033-0.932-0.399-0.932-1.229v-3.456
		c0-0.83-0.033-1.295,0.932-1.295v-0.366c-0.566,0-1.197,0.033-1.795,0.033c-0.531,0-1.096-0.033-1.662-0.033v0.366
		c0.998-0.033,0.965,0.465,0.965,1.295V71.534L33.393,71.534z"/>
	<path fill-rule="evenodd" clip-rule="evenodd" d="M43.727,68.841c-0.299-0.398-0.631-0.864-0.631-1.363
		c0-0.331,0.232-0.696,0.631-0.696c0.467,0,0.697,0.465,0.697,0.864c0,0.53-0.197,0.996-0.564,1.361L43.727,68.841L43.727,68.841z
		 M44.127,69.34c0.631-0.399,1.162-0.897,1.162-1.728c0-0.798-0.732-1.297-1.496-1.297c-0.996,0-1.727,0.73-1.727,1.761
		c0,0.632,0.266,1.164,0.564,1.696c-0.766,0.464-1.695,1.129-1.695,2.159c0,0.83,0.83,1.362,1.596,1.362
		c0.863,0,1.596-0.365,2.193-0.965c0.596,0.565,1.062,0.965,1.959,0.965c0.898,0,1.33-0.499,1.861-1.097v-0.034l-0.299-0.265
		c-0.266,0.233-0.465,0.464-0.83,0.464c-0.631,0-1.197-0.597-1.695-1.129l0.732-1.063c0.098-0.133,0.23-0.366,0.398-0.366
		c0.133,0,0.166,0.1,0.166,0.233c0.033,0.365,0.299,0.598,0.664,0.598c0.465,0,0.764-0.398,0.764-0.798
		c0-0.53-0.398-0.863-0.896-0.863c-0.697,0-1.162,0.466-1.529,0.996l-0.631,0.932L44.127,69.34L44.127,69.34z M44.393,71.999
		c-0.266,0.266-0.566,0.498-0.965,0.498c-0.631,0-1.162-0.664-1.162-1.263c0-0.466,0.299-0.798,0.629-1.097L44.393,71.999
		L44.393,71.999z"/>
	<path fill-rule="evenodd" clip-rule="evenodd" d="M55.592,67.646c0-0.666-0.066-0.699,0.664-0.699c0.996,0,1.762,0.1,2.027,1.263
		h0.398l-0.1-1.728c-1.23,0-2.492,0.033-3.756,0.033c-0.564,0-1.131-0.033-1.729-0.033v0.366c0.998-0.033,0.965,0.432,0.965,1.262
		v3.424c0,0.829,0.033,1.328-0.965,1.295v0.366c0.598,0,1.164-0.033,1.729-0.033c0.6,0,1.197,0.033,1.795,0.033v-0.366
		c-1.029,0.033-0.996-0.365-0.996-1.295v-1.496h0.398c0.664,0.033,0.93,0.465,0.996,1.097h0.398c0-0.433-0.033-0.864-0.033-1.297
		c0-0.464,0.033-0.896,0.033-1.361H57.02c-0.133,0.798-0.465,1.097-1.029,1.097h-0.398V67.646L55.592,67.646z"/>
	<path fill-rule="evenodd" clip-rule="evenodd" d="M59.279,66.848c0.998,0,0.965,0.465,0.965,1.295v2.426
		c0,2.127,1.162,2.726,2.957,2.726c1.828,0,2.791-0.898,2.791-2.726v-1.894c0-0.399-0.033-1.062,0.133-1.396
		c0.166-0.3,0.465-0.365,0.766-0.432v-0.366c-0.4,0-0.799,0.033-1.197,0.033s-0.797-0.033-1.162-0.033v0.366
		c0.299,0.033,0.598,0.132,0.764,0.432c0.199,0.298,0.199,1.029,0.199,1.396v2.093c0,1.23-0.664,1.861-1.961,1.861
		c-1.43,0-1.729-0.764-1.729-2.027v-2.459c0-0.83-0.033-1.328,0.965-1.295v-0.366c-0.633,0-1.264,0.033-1.895,0.033
		c-0.531,0-1.064-0.033-1.596-0.033V66.848L59.279,66.848z"/>
	<path fill-rule="evenodd" clip-rule="evenodd" d="M73.803,73.328h0.498v-4.852c0-0.366,0-0.965,0.166-1.263
		c0.133-0.267,0.465-0.299,0.73-0.365v-0.366c-0.398,0-0.797,0.033-1.195,0.033s-0.766-0.033-1.164-0.033v0.366
		c0.965,0.033,0.965,0.798,0.965,1.562v2.691l-3.988-4.619c-0.398,0-0.766,0.033-1.164,0.033c-0.332,0-0.631-0.033-0.963-0.033
		v0.366c0.564,0.066,0.697,0.232,1.029,0.696v4.055c0,0.73-0.066,1.13-0.93,1.229v0.366c0.398,0,0.797-0.033,1.164-0.033
		c0.398,0,0.83,0.033,1.229,0.033v-0.366c-0.963-0.033-0.963-0.83-0.963-1.595V68.11L73.803,73.328L73.803,73.328z"/>
	<path fill-rule="evenodd" clip-rule="evenodd" d="M81.91,67.013c-0.598-0.465-1.295-0.631-2.027-0.631
		c-2.027,0-3.422,1.562-3.422,3.588c0,2.061,1.395,3.324,3.422,3.324c0.631,0,1.031-0.133,1.629-0.332
		c0.633-0.233,0.83-0.267,1.496-0.333v-1.062c0-0.565-0.033-0.865,0.662-0.865v-0.365h-3.021v0.365c0.664,0.066,0.83,0.2,0.83,0.865
		c0,0.896-0.432,1.229-1.328,1.229c-1.529,0-1.928-1.628-1.928-2.858c0-1.328,0.398-3.022,2.025-3.022
		c1.029,0,1.629,0.698,1.896,1.661h0.43l-0.1-2.127h-0.432L81.91,67.013L81.91,67.013z"/>
	<path fill-rule="evenodd" clip-rule="evenodd" d="M88.391,73.195c0.598,0,1.162-0.033,1.729-0.033c0.598,0,2.459,0.033,4.287,0.033
		l0.066-1.928h-0.432c-0.268,1.129-0.766,1.462-1.93,1.462c-1.229,0-1.195-0.632-1.195-1.661V68.11c0-0.83-0.033-1.295,0.965-1.262
		v-0.366c-0.633,0-1.264,0.033-1.895,0.033c-0.533,0-1.064-0.033-1.596-0.033v0.366c0.998-0.033,0.965,0.432,0.965,1.262v3.424
		c0,0.829,0.033,1.328-0.965,1.295V73.195L88.391,73.195z"/>
	<path fill-rule="evenodd" clip-rule="evenodd" d="M96.201,71.534c0,0.829,0.033,1.328-0.965,1.295v0.366
		c0.564,0,1.131-0.033,1.662-0.033c0.598,0,1.195,0.033,1.793,0.033v-0.366c-0.963,0.033-0.963-0.399-0.963-1.229v-3.456
		c0-0.83-0.033-1.295,0.963-1.295v-0.366c-0.598,0-1.195,0.033-1.793,0.033c-0.564,0-1.098-0.033-1.662-0.033v0.366
		c0.998-0.033,0.965,0.465,0.965,1.295V71.534L96.201,71.534z"/>
	<path fill-rule="evenodd" clip-rule="evenodd" d="M103.111,73.195h0.5l2.027-5.085l0,0v3.225c0,0.232,0,0.696-0.066,0.962
		c-0.1,0.433-0.467,0.466-0.863,0.532v0.366c0.564,0,1.096-0.033,1.627-0.033c0.598,0,1.197,0.033,1.795,0.033v-0.366
		c-0.365-0.066-0.764-0.1-0.865-0.532c-0.066-0.266-0.066-0.729-0.066-0.962v-3.191c0-0.83-0.033-1.328,0.965-1.295v-0.366
		c-0.465,0-0.898,0.033-1.297,0.033c-0.365,0-0.764-0.033-1.162-0.033l-1.795,4.719l-1.994-4.719c-0.432,0-0.83,0.033-1.264,0.033
		c-0.365,0-0.73-0.033-1.096-0.033v0.366c0.365,0.033,0.73,0.099,0.93,0.432v4.055c0,0.232,0,0.696-0.064,0.962
		c-0.102,0.433-0.5,0.466-0.865,0.532v0.366c0.365,0,0.73-0.033,1.131-0.033c0.432,0,0.83,0.033,1.262,0.033v-0.366
		c-0.299-0.033-0.631-0.1-0.797-0.399c-0.166-0.297-0.166-0.929-0.166-1.262v-3.124h0.033L103.111,73.195L103.111,73.195z"/>
	<path fill-rule="evenodd" clip-rule="evenodd" d="M109.959,71.534c0,0.829,0.033,1.328-0.932,1.295v0.366
		c0.533,0,1.098-0.033,1.662-0.033c0.598,0,1.197,0.033,1.795,0.033v-0.366c-0.965,0.033-0.965-0.399-0.965-1.229v-3.456
		c0-0.83-0.033-1.295,0.965-1.295v-0.366c-0.598,0-1.197,0.033-1.795,0.033c-0.564,0-1.129-0.033-1.662-0.033v0.366
		c0.965-0.033,0.932,0.465,0.932,1.295V71.534L109.959,71.534z"/>
	<path fill-rule="evenodd" clip-rule="evenodd" d="M119.861,66.482h-6.514l-0.066,1.928h0.432c0.168-0.898,0.531-1.495,1.529-1.43
		c0.299,0.033,0.498,0.033,0.564,0.134c0.033,0.033,0.066,0.266,0.066,0.63v3.79c0,0.93,0,1.328-1.029,1.295v0.366
		c0.598,0,1.195-0.033,1.795-0.033c0.598,0,1.195,0.033,1.793,0.033v-0.366c-1.029,0.033-1.029-0.365-1.029-1.295v-3.79
		c0-0.364-0.033-0.563,0.066-0.697c0.1-0.1,0.232-0.066,0.564-0.066c0.865,0,1.363,0.564,1.463,1.43h0.432L119.861,66.482
		L119.861,66.482z"/>
	<path fill-rule="evenodd" clip-rule="evenodd" d="M120.727,73.195c0.564,0,1.129-0.033,1.693-0.033c1.43,0,2.824,0.033,4.221,0.033
		c-0.033-0.266-0.033-0.531-0.066-0.832c0.033-0.364,0.033-0.729,0.066-1.129h-0.432c-0.232,1.129-0.699,1.495-1.828,1.495
		c-1.195,0-1.162-0.597-1.162-1.562V69.97c0.93,0,1.195,0.167,1.395,1.098h0.4c0-0.399-0.033-0.831-0.033-1.264
		c0-0.464,0.033-0.93,0.033-1.395h-0.4c-0.066,0.964-0.564,1.097-1.395,1.097v-1.86c0-0.102,0-0.532,0.033-0.6
		c0.064-0.1,0.697-0.1,0.83-0.1c0.965,0,1.529,0.333,1.729,1.329h0.432l-0.1-1.794c-1.23,0-2.459,0.033-3.723,0.033
		c-0.564,0-1.129-0.033-1.693-0.033v0.366c0.963-0.033,0.93,0.432,0.93,1.262v3.424c0,0.829,0.033,1.328-0.93,1.295V73.195
		L120.727,73.195z"/>
	<path fill-rule="evenodd" clip-rule="evenodd" d="M129.998,67.28c0-0.066,0-0.199,0.033-0.233c0.066-0.066,0.33-0.1,0.432-0.1
		c0.73,0,1.428,0.2,1.795,0.897c0.299,0.599,0.398,1.43,0.398,2.093c0,1.23-0.166,2.792-1.729,2.792
		c-0.365,0-0.697-0.132-0.83-0.498c-0.1-0.266-0.1-0.964-0.1-1.263V67.28L129.998,67.28z M127.504,73.195
		c0.533,0,1.098-0.033,1.662-0.033c0.531,0,1.064,0.033,1.596,0.033c0.93,0,1.928-0.133,2.658-0.799
		c0.699-0.63,0.965-1.461,0.965-2.392c0-1.063-0.334-1.961-1.131-2.658c-0.764-0.665-1.695-0.864-2.691-0.864h-3.059v0.366
		c0.965-0.033,0.932,0.432,0.932,1.262v3.424c0,0.829,0.033,1.328-0.932,1.295V73.195L127.504,73.195z"/>
	<path fill-rule="evenodd" clip-rule="evenodd" d="M72.174,55.981c0.562,0.231,1.195,0.465,1.861,0.664
		c3.057,0.964,4.885,0.864,6.346,0.864c1.43,0,3.49-0.232,4.854-0.665c0.764-0.232,1.627-0.531,2.426-0.863
		c0.896-0.399,1.729-0.798,2.227-1.131c0.697-0.498,0.863-0.697,1.029-1.129c0.133-0.333-0.066-0.865-0.465-1.031
		c-0.498-0.232-0.73,0.1-1.062,0.3c-0.199,0.066-0.5,0.232-0.799,0.365c-0.299,0.067-0.432,0.067-0.498-0.066
		c-0.066-0.133,0.033-1.33,0-2.16c-0.033-0.831,0.066-1.263-0.133-1.662c-0.199-0.365-0.398-0.664-0.932-0.63
		c-0.564,0.033-0.863,0.497-0.896,0.896c-0.1,0.465-0.166,2.293-0.133,2.99c0.033,0.732,0.066,1.529,0,1.662
		c-0.033,0.099-0.232,0.333-0.664,0.531c-0.398,0.167-1.928,0.665-4.652,0.698c-1.861,0.033-2.525,0.066-4.254-0.232
		c-1.729-0.266-3.125-1.063-3.125-1.063s-0.033-5.449-0.033-6.114s0.1-3.291,0.199-4.254c0.102-0.997,0.102-1.03,0.201-1.495
		c0.066-0.433,0.232-0.466,0.697-0.565s1.029-0.3,1.129-0.498c0.1-0.2,0.232-0.732-0.199-1.098s-0.83-0.198-1.295-0.065
		c-0.465,0.165-2.26,0.73-2.26,0.73s-0.998,0.366-1.762,0.765c-0.797,0.432-0.998,0.731-1.297,1.096
		c-0.299,0.366-0.465,0.632-0.1,0.998c0.334,0.332,0.865,0.432,1.297,0.232c0.432-0.232,1.195-0.665,1.195-0.665
		s0.334-0.166,0.334-0.033c0.033,0.133,0.066,2.759,0.066,3.821c0,1.064-0.066,2.991-0.135,3.988
		c-0.066,0.997-0.266,2.16-0.266,2.16s-0.465-0.166-0.996-0.499c-0.564-0.365-1.363-0.697-1.695-0.133
		c-0.299,0.599-0.133,0.998,0.199,1.296C68.818,54.219,70.146,55.15,72.174,55.981L72.174,55.981z M93.143,55.981v0.93
		c0,1.728-1.43,3.124-3.156,3.124H69.115c-1.727,0-3.123-1.396-3.123-3.124v-0.93V39.796c0-1.729,1.396-3.124,3.123-3.124h20.871
		c1.727,0,3.156,1.396,3.156,3.124V55.981L93.143,55.981z M88.789,48.636c0-0.632,0.533-1.164,1.164-1.164s1.162,0.532,1.162,1.164
		s-0.531,1.163-1.162,1.163S88.789,49.268,88.789,48.636L88.789,48.636z M77.59,39.463c-0.564,0.034-1.229,0.268-1.229,0.931
		c0,0.632,0.398,0.865,0.83,0.932s0.799,0.033,1.164-0.033c0.332-0.033,0.996-0.101,1.096-0.067c0.1,0.034,0.299,0.101,0.332,0.2
		c0.066,0.132,0,3.19-0.033,4.153c-0.033,0.931,0,4.021-0.1,5.218c-0.1,1.196-0.199,2.228-0.199,2.228s-0.498-0.034-1.096,0.032
		c-0.6,0.066-1.197,0.166-1.197,0.93c0,0.766,0.766,0.931,1.096,0.964c0.334,0.033,1.529-0.033,2.127-0.033
		c0.6,0,1.164,0.167,1.797,0.134c0.664-0.033,1.262-0.167,1.492-0.499c0.201-0.299,0.301-0.599,0.033-0.996
		c-0.264-0.399-0.529-0.399-1.062-0.433c-0.531-0.066-0.963-0.099-0.963-0.099s-0.133-1.331-0.1-2.394
		c0-1.064,0.133-1.828,0.199-2.26c0.066-0.466,0.133-0.765,0.133-0.765s0.1-0.101,0.268-0.066c0.131,0,0.197,0.032,0.197,0.365
		c0,0.466,0.033,1.396,0.066,1.861c0.033,0.498,0.199,1.462,0.533,1.894c0.332,0.433,0.83,0.864,1.295,0.665
		c0.432-0.166,0.498-0.465,0.531-0.698c0.035-0.198,0.068-0.298-0.199-0.797c-0.266-0.466-0.432-1.528-0.299-2.692
		c0.133-1.196,0.299-2.093,0.332-2.99c0-0.897-0.166-1.496-0.531-1.994c-0.4-0.466-1.029-0.599-1.328-0.333
		c-0.334,0.3-0.531,0.665-0.367,1.131c0.166,0.433,0.334,0.93,0.301,1.328c0,0.433-0.1,0.433-0.367,0.499
		c-0.266,0.066-0.631-0.1-0.664-0.499c-0.033-0.432,0.133-1.062,0.066-1.562c-0.033-0.498-0.1-1.03,0-1.562
		c0.133-0.565,0-0.632,0.467-0.664c0.465-0.066,1.195,0,1.826,0.199c0.664,0.199,1.33,0.465,1.629,0.631
		c0.299,0.134,0.631,0.067,0.598,0.964c-0.066,0.897-0.066,2.592-0.033,3.124c0.033,0.531,0,1.096,0.332,1.296
		c0.299,0.199,0.799,0.432,1.131,0.066c0.299-0.333,0.531-0.599,0.498-1.528c-0.033-0.932-0.066-1.528-0.033-1.927
		c0-0.433,0.066-0.566,0.166-0.633c0.133-0.066,0.332-0.033,0.465,0c0.1,0.033,0.6,0.433,0.965,0.633
		c0.365,0.232,0.83,0.266,1.162-0.034c0.332-0.332,0.467-0.565,0.199-0.931c-0.299-0.398-1.295-1.229-2.227-1.728
		c-0.963-0.499-2.094-1.098-4.188-1.629c-2.127-0.498-3.721-0.432-4.617-0.465C79.219,39.498,78.156,39.463,77.59,39.463
		L77.59,39.463z M77.822,46.908c-0.498,0.398-0.863,0.698-1.162,1.263c-0.299,0.565-0.332,1.131-0.199,1.462
		c0.133,0.366,0.432,0.898,0.398,1.164c-0.033,0.232-0.066,0.698-0.564,0.698c-0.465-0.033-0.699-0.366-0.766-0.731
		c-0.066-0.366-0.1-1.164,0.133-1.761c0.234-0.599,0.4-1.098,0.533-1.696c0.1-0.597,0.033-0.963-0.199-1.562
		c-0.268-0.631-0.467-1.229-0.066-1.628c0.432-0.399,0.797-0.199,0.963-0.033c0.133,0.166,0.1,0.897,0.332,1.195
		c0.232,0.333,0.631,0.599,1.131,0.466c0.465-0.133,0.631-0.366,0.598-1.062c-0.066-0.698-0.232-1.529-0.996-2.028
		c-0.766-0.498-1.762-0.631-2.627-0.066c-0.863,0.565-1.262,1.264-1.295,2.326c0,1.064,0.332,1.264,0.332,2.027
		c0,0.765-0.398,1.463-0.564,2.193c-0.166,0.731-0.1,1.961,0.199,2.559c0.299,0.632,1.229,1.562,2.127,1.596
		c0.896,0,1.561-0.433,1.928-0.897c0.398-0.466,0.564-0.863,0.465-1.562c-0.066-0.731-0.299-1.43,0.131-2.094
		c0.434-0.665,0.699-1.03,0.6-1.43c-0.066-0.365-0.365-0.597-0.766-0.63C78.189,46.643,77.99,46.743,77.822,46.908L77.822,46.908z
		 M68.285,48.271c0-0.632,0.498-1.164,1.164-1.164c0.631,0,1.162,0.532,1.162,1.164s-0.531,1.162-1.162,1.162
		C68.783,49.433,68.285,48.903,68.285,48.271L68.285,48.271z"/>
</g>
</svg>
