<?xml version="1.0" encoding="utf-8"?>
<!-- Generator: Adobe Illustrator 16.0.3, SVG Export Plug-In . SVG Version: 6.00 Build 0)  -->
<!DOCTYPE svg PUBLIC "-//W3C//DTD SVG 1.1//EN" "http://www.w3.org/Graphics/SVG/1.1/DTD/svg11.dtd">
<svg version="1.1" id="Layer_2" xmlns="http://www.w3.org/2000/svg" xmlns:xlink="http://www.w3.org/1999/xlink" x="0px" y="0px"
	 width="160px" height="110px" viewBox="0 0 160 110" enable-background="new 0 0 160 110" xml:space="preserve">
<g>
	<g>
		<path d="M76.765,57.974l-5.985-8.281v8.281H60.86V32.808h13.068L80,41.322l6.072-8.515H99.14v25.166h-9.917v-8.281l-5.988,8.281
			H76.765z M86.436,70.493H86.39c-0.181,0.338-0.812,0.451-1.195,0.517c-2.413,0.43-5.415,0.43-5.415,2.686
			c0,1.422,1.242,2.302,2.596,2.302c2.188,0,4.061-1.376,4.061-3.654V70.493z M87.209,76.928c-0.391,0-0.708-0.316-0.708-0.706
			l-0.06-0.917c-1.058,1.313-1.924,1.888-4.18,1.888c-2.166,0-3.902-1.054-3.902-3.381c0-3.225,3.181-3.544,6.248-3.901
			c1.173-0.112,1.828-0.402,1.828-1.654c0-1.618-1.614-2.103-3.309-2.103c-1.781,0-3.372,0.805-3.439,2.687h-0.699
			c0,0-0.762-0.009-0.609-0.836c0.465-2.114,2.539-3.037,4.93-3.037c2.053,0,4.547,0.604,4.547,3.717v6.135
			c0,1.382,0.169,2.109,0.169,2.109H87.209z M90.4,65.305c0.724,0,0.709,0,0.709,0v1.271h0.046c0.802-1.34,2.667-1.609,3.56-1.609
			c3.27,0,4.425,2.407,4.425,4.487v6.768c0,0.39-0.314,0.706-0.705,0.706h-0.716V69.68c0-1.984-0.818-3.355-3.117-3.355
			c-2.064,0-3.424,1.552-3.492,3.829v6.774h-0.714c-0.391,0-0.706-0.316-0.706-0.706V66.011c0-0.391,0.315-0.706,0.706-0.706
			 M74.514,61.877c0.113-0.242,0.358-0.409,0.643-0.409h0.812c0.391,0,0.706,0.316,0.706,0.706v14.048
			c0,0.39-0.315,0.706-0.706,0.706h-0.726l0.012-13.366l-5.752,13.366h-1.469L62.28,63.562l0.012,13.366h-0.726
			c-0.391,0-0.706-0.316-0.706-0.706V62.174c0-0.39,0.315-0.706,0.706-0.706h0.812c0.285,0,0.529,0.167,0.641,0.409l5.748,13.314
			L74.514,61.877z"/>
	</g>
</g>
</svg>
