<?xml version="1.0" encoding="utf-8"?>
<!-- Generator: Adobe Illustrator 21.0.2, SVG Export Plug-In . SVG Version: 6.00 Build 0)  -->
<svg version="1.1" id="Layer_2" xmlns="http://www.w3.org/2000/svg" xmlns:xlink="http://www.w3.org/1999/xlink" x="0px" y="0px"
	 viewBox="0 0 160 110" style="enable-background:new 0 0 160 110;" xml:space="preserve">
<style type="text/css">
	.st0{fill:none;}
</style>
<rect class="st0" width="160" height="110"/>
<g>
	<g>
		<path d="M67.4,69.2c-0.1,0.1-0.3,0.2-0.5,0.2h-1v-4.7h1.8v4C67.5,68.9,67.5,69.1,67.4,69.2z M67.1,65.2h-0.9v1.6h0.9V65.2z
			 M67.1,67.2h-0.9V69h0.5c0.2,0,0.3-0.1,0.3-0.3V67.2z M70.5,69.4c-0.1,0.1-0.3,0.2-0.5,0.2h-0.7v-0.4h0.6c0.2,0,0.3-0.2,0.3-0.4
			v-0.9h-1.7v1c0,0.2-0.1,0.4-0.2,0.5c-0.1,0.1-0.3,0.2-0.4,0.2h-0.4v-0.4h0.2c0.2,0,0.3-0.2,0.3-0.3v-4.2h2.6v4.2
			C70.7,69.1,70.6,69.2,70.5,69.4z M70.2,65h-1.7v1h1.7V65z M70.2,66.5h-1.7v1h1.7V66.5z"/>
		<path d="M77.3,65.5c-0.1,0.1-0.1,0.2-0.2,0.2c-0.1,0.1-0.2,0.1-0.3,0.1h-0.4v-0.4h0.3c0.1,0,0.2-0.1,0.3-0.2l0.4-0.7h0.5
			L77.3,65.5z M77.2,67h0.1v2.6h-0.5v-2.4c-0.1,0-0.1,0-0.2,0h-0.3v-0.4h0.3c0.1,0,0.2-0.1,0.3-0.1l0.5-0.9h0.5L77.2,67z M78.4,69.2
			c0,0.1-0.1,0.2-0.2,0.2s-0.2,0.1-0.3,0.1h-0.3v-0.4h0.1c0.1,0,0.2-0.1,0.2-0.2l0.2-0.8h0.5L78.4,69.2z M77.7,67.9v-0.4h3.8v0.4
			H77.7z M79.8,65.3l-0.1,0.4h1.6v0.7c0,0.2-0.1,0.4-0.2,0.5c-0.1,0.1-0.3,0.2-0.6,0.2h-2.6v-1.5h1.4l0.1-0.4h-1.6v-0.4h1.6l0.1-0.3
			H80l-0.1,0.3h1.6v0.4H79.8z M79,66.1h-0.6v0.7H79V66.1z M79.5,69.6c-0.2,0-0.4-0.1-0.5-0.2c-0.1-0.1-0.2-0.3-0.2-0.5v-0.8h0.5v0.7
			c0,0.1,0,0.2,0.1,0.3c0.1,0.1,0.2,0.1,0.3,0.1h0.9v0.4H79.5z M80,66.1h-0.6v0.7H80V66.1z M80.2,68.9c-0.1,0-0.2,0-0.3-0.1
			c-0.1-0.1-0.2-0.1-0.2-0.2l-0.2-0.5H80l0.1,0.4c0,0.1,0.1,0.1,0.2,0.1h0.1v0.3H80.2z M80.9,66.1h-0.6v0.7h0.3
			c0.2,0,0.3-0.2,0.3-0.3V66.1z M81.3,69.6c-0.1,0-0.3,0-0.4-0.1c-0.1-0.1-0.1-0.2-0.2-0.3l-0.3-1H81l0.2,0.8c0,0.1,0.1,0.2,0.2,0.2
			h0.2v0.4H81.3z"/>
		<path d="M92,69.4c-0.1,0.1-0.3,0.2-0.5,0.2h-4.2v-5h4.8v4.3C92.2,69.1,92.1,69.2,92,69.4z M91.7,65h-3.9v4.1h3.6
			c0.1,0,0.2,0,0.3-0.1c0.1-0.1,0.1-0.2,0.1-0.3V65z M91.1,68.9c-0.2,0-0.3-0.1-0.5-0.1c-0.1-0.1-0.2-0.2-0.2-0.4l0-0.3h-0.4v-0.4
			h0.4L90,66H88v-0.4h2l-0.1-0.5h0.4l0.1,0.5h0.5l-0.1-0.4h0.4l0.1,0.4h0.2V66h-1l0.2,1.6c0.1,0,0.2-0.1,0.2-0.2l0.2-1.1h0.4
			l-0.2,1.3c0,0.1-0.1,0.2-0.2,0.3c-0.1,0.1-0.2,0.1-0.3,0.1c0,0.1,0,0.2,0.1,0.3c0.1,0.1,0.2,0.1,0.3,0.1h0.4v0.4H91.1z M88,68.8
			v-0.4h2v0.4H88z M89.6,67.8c-0.1,0.1-0.3,0.2-0.4,0.2h-1v-1.6h1.6v1.1C89.8,67.6,89.7,67.7,89.6,67.8z M89.3,66.8h-0.7v0.9h0.4
			c0.1,0,0.3-0.1,0.3-0.3V66.8z"/>
		<path d="M99.3,68.7c-0.1,0.1-0.3,0.2-0.5,0.2h-0.4v0.7H98v-5h1.5V66c0,0.1,0,0.2-0.1,0.3c-0.1,0.1-0.1,0.2-0.2,0.3
			c0.1,0.1,0.2,0.1,0.2,0.2c0.1,0.1,0.1,0.2,0.1,0.3v1.1C99.5,68.4,99.4,68.5,99.3,68.7z M99.1,65h-0.6v1.4h0.3
			c0.1,0,0.3-0.2,0.3-0.3V65z M99.1,67.1c0-0.1-0.2-0.3-0.3-0.3h-0.3v1.7h0.3c0.1,0,0.3-0.2,0.3-0.3V67.1z M102.7,67.2
			c-0.1,0-0.3,0-0.4-0.1c-0.1-0.1-0.2-0.1-0.3-0.2h-1.4c-0.1,0.1-0.2,0.2-0.3,0.2c-0.1,0.1-0.3,0.1-0.4,0.1h-0.5v-0.4h0.5
			c0.1,0,0.1,0,0.1-0.1l-0.4-0.7h0.5l0.2,0.3l0.1-0.2l-0.3-0.5c-0.1,0.1-0.2,0.2-0.4,0.2h-0.2v-0.4h0.1c0.1,0,0.2-0.1,0.2-0.1
			l0.3-0.8h0.5l-0.1,0.3h0.8v0.5l-0.5,1.1h1l-0.6-2h0.4l0.4,1.3l0.3-0.6h-0.4v-0.4h0.9v0.4l-0.6,1.2l0.1,0.2c0,0.1,0.2,0.2,0.3,0.2
			h0.4v0.4H102.7z M100.4,69c0,0.2-0.1,0.3-0.3,0.4c-0.1,0.1-0.2,0.1-0.4,0.1h-0.2V69h0.2c0.1,0,0.2-0.1,0.2-0.1l0.3-0.8h0.5
			L100.4,69z M101.6,67.8V69c0,0.2-0.1,0.3-0.2,0.4c-0.1,0.1-0.3,0.2-0.4,0.2h-0.4v-0.4h0.3c0.1,0,0.2-0.1,0.2-0.2v-1.1h-1.4v-0.4
			h3.3v0.4H101.6z M100.4,65.3l-0.1,0.2h0.3l0.1,0.3l0.2-0.5H100.4z M103.1,69.4h-0.2c-0.1,0-0.2,0-0.3-0.1
			c-0.1-0.1-0.2-0.2-0.2-0.3l-0.3-1h0.5l0.3,0.8c0,0.1,0.2,0.2,0.3,0.2h0.2V69.4z"/>
		<path d="M112,67.5v0.2h1.5v1.1c0,0.2-0.1,0.4-0.2,0.5c-0.1,0.1-0.3,0.2-0.6,0.2H109v-1.8h1.4v-0.2h-1.7v-0.3h5.1v0.3H112z
			 M110.2,64.9l-0.1,0.2h1.2v0.3h-0.6v0.2h0.6V66h-0.7l-0.1,0.1h0.3l0.1,0.1c0.1,0.1,0.2,0.1,0.3,0.1h0.2v0.3h-0.3
			c-0.1,0-0.2,0-0.3,0c-0.1,0-0.2-0.1-0.2-0.1l-0.2-0.2l-0.1,0.1c-0.1,0.1-0.1,0.1-0.2,0.2c-0.1,0-0.2,0.1-0.3,0.1h-0.3v-0.3h0.3
			c0.1,0,0.2-0.1,0.3-0.1l0.1-0.2h-0.7v-0.3h0.9v-0.2h-0.4c-0.1,0.1-0.2,0.1-0.4,0.1h-0.1v-0.3h0.1c0.1,0,0.2,0,0.2-0.1l0.1-0.2
			h-0.5v1.7h2.1V67h-2.5v-2.3h2.6v0.3H110.2z M113,68.6h-0.9c-0.1,0-0.3-0.1-0.4-0.1c-0.1-0.1-0.1-0.2-0.1-0.3v-0.1h-0.8v0.1
			c0,0.1-0.1,0.2-0.1,0.3c-0.1,0.1-0.2,0.1-0.4,0.1h-0.8v0.2h3.6V68.6z M110.4,68.1h-0.9v0.2h0.7C110.3,68.3,110.4,68.2,110.4,68.1
			L110.4,68.1z M109.5,69.1v0.2h3.3c0.1,0,0.3-0.1,0.3-0.2H109.5z M111.6,67.5h-0.8v0.2h0.8V67.5z M113.3,65.5c-0.1,0-0.2,0-0.3-0.1
			c-0.1-0.1-0.1-0.2-0.1-0.3v-0.1h-0.7V65c0,0.1,0,0.2-0.1,0.3c-0.1,0.1-0.2,0.1-0.3,0.1h-0.3v-0.3h0.2c0.1,0,0.2-0.1,0.2-0.2v-0.3
			h1.5v0.3c0,0.1,0.1,0.2,0.2,0.2h0.2v0.3H113.3z M113.8,67h-0.3c-0.2,0-0.4-0.1-0.6-0.1l-0.2-0.1l-0.2,0.1
			c-0.1,0.1-0.2,0.1-0.3,0.1c-0.1,0-0.2,0.1-0.3,0.1h-0.4v-0.3h0.3c0.1,0,0.3,0,0.4-0.1l0.1,0l-0.7-0.4h0.7l0.3,0.2l0.5-0.3h-1.5
			v-0.3h2.1V66l-0.7,0.5l0.1,0.1c0.1,0.1,0.3,0.1,0.4,0.1h0.4V67z M113,68.1h-1v0.1c0,0.1,0.1,0.2,0.2,0.2h0.8V68.1z"/>
		<path d="M121,68.7c-0.1,0.1-0.3,0.2-0.5,0.2H120v0.7h-0.4v-5h1.7V66c0,0.1,0,0.3-0.1,0.4c-0.1,0.1-0.1,0.2-0.2,0.2
			c0.1,0.1,0.2,0.2,0.3,0.3c0.1,0.1,0.1,0.2,0.1,0.3v1C121.2,68.4,121.1,68.6,121,68.7z M120.8,65H120v1.4h0.4
			c0.2,0,0.4-0.2,0.4-0.4V65z M120.8,67.3c0-0.2-0.2-0.4-0.4-0.4H120v1.7h0.4c0.2,0,0.4-0.2,0.4-0.4V67.3z M124.1,69.6
			c-0.2,0-0.4-0.1-0.6-0.2c-0.1-0.1-0.2-0.3-0.2-0.6v-1.3h-0.7v1.4c0,0.2-0.1,0.4-0.2,0.5c-0.1,0.1-0.3,0.2-0.5,0.2h-0.6v-0.4l0.5,0
			c0.1,0,0.2,0,0.3-0.1c0.1-0.1,0.1-0.1,0.1-0.2v-1.3h-0.7v-0.4h3.1v0.4h-0.8v1.3c0,0.1,0,0.2,0.1,0.3c0.1,0.1,0.2,0.1,0.3,0.1h0.5
			v0.4H124.1z M124,65.9v-0.5h-2v0.5h-0.5V65h1.2v-0.5h0.5V65h1.3v0.9H124z M121.8,66.5v-0.4h2.4v0.4H121.8z"/>
	</g>
	<g>
		<g>
			<g>
				<path d="M47.5,64.5H30.6c-1.1,0-2.1-0.6-2.6-1.5c-0.6-1-0.6-2.1,0-3.1l8.4-14.6c0.6-1,1.5-1.5,2.6-1.5c1.1,0,2.1,0.6,2.6,1.5
					L50.1,60c0.3,0.5,0.4,1,0.4,1.6C50.5,63.2,49.1,64.5,47.5,64.5z M39,45.5c-0.5,0-1,0.3-1.2,0.7l-8.4,14.6c-0.3,0.4-0.3,1,0,1.4
					c0.3,0.4,0.7,0.7,1.2,0.7h16.8c0.9,0,1.4-0.7,1.4-1.4c0-0.3-0.1-0.5-0.2-0.7l-8.4-14.6C40,45.8,39.6,45.5,39,45.5z"/>
			</g>
			<g>
				<path d="M55.5,61.2H43.2c-0.9,0-1.7-0.5-2.2-1.3c-0.5-0.8-0.5-1.7,0-2.5l6.1-10.6c0.5-0.8,1.3-1.3,2.2-1.3
					c0.9,0,1.7,0.5,2.2,1.3l6.1,10.6c0.5,0.8,0.5,1.7,0,2.5C57.2,60.7,56.4,61.2,55.5,61.2z M49.3,47.2c-0.1,0-0.5,0-0.7,0.4
					l-6.1,10.6c-0.2,0.4-0.1,0.7,0,0.9c0.1,0.1,0.3,0.4,0.7,0.4h12.3c0.4,0,0.7-0.3,0.7-0.4c0.1-0.1,0.2-0.5,0-0.9l-6.1-10.6
					C49.8,47.2,49.5,47.2,49.3,47.2z"/>
			</g>
		</g>
	</g>
	<g>
		<path d="M65.8,53.2v-8.5c1.2-0.6,2.5-0.9,3.9-0.9c1,0,1.8,0.2,2.5,0.7c1.2-0.5,2.3-0.7,3.4-0.7c1.2,0,2.1,0.3,2.7,0.9
			c0.7,0.6,1,1.5,1,2.6v6h-1.7v-6.1c0-0.5-0.1-1-0.4-1.3c-0.3-0.3-0.8-0.5-1.5-0.5c-0.8,0-1.6,0.2-2.5,0.5c0.1,0.4,0.2,0.8,0.2,1.3
			c0,0,0,0,0,0.1v6h-1.7v-6.1c0-0.5-0.1-1-0.4-1.3c-0.3-0.3-0.9-0.5-1.7-0.5c-0.7,0-1.3,0.1-2,0.3v7.5H65.8z"/>
		<path d="M81.3,50.3c0-0.9,0.4-1.6,1.2-2.1c0.8-0.5,1.8-0.8,3.2-0.8c0.6,0,1.1,0,1.7,0.1c0-0.8-0.2-1.3-0.6-1.7
			c-0.4-0.3-1-0.5-1.9-0.5c-0.8,0-1.7,0.2-2.6,0.5v-1.5c0.9-0.3,1.8-0.5,2.8-0.5c1.3,0,2.3,0.3,3,1c0.7,0.7,1.1,1.6,1.1,2.9v2.7
			c0,0.2,0,0.4-0.1,0.6c0,0.2-0.1,0.4-0.3,0.8c-0.1,0.3-0.4,0.6-0.6,0.8c-0.3,0.2-0.6,0.4-1.1,0.6c-0.5,0.2-1.1,0.2-1.8,0.2
			c-0.7,0-1.3-0.1-1.8-0.3c-0.5-0.2-0.9-0.4-1.2-0.6c-0.3-0.2-0.5-0.5-0.6-0.8c-0.2-0.3-0.3-0.6-0.3-0.8
			C81.3,50.7,81.3,50.5,81.3,50.3z M83,50.3c0,1,0.7,1.6,2.2,1.6c0,0,0,0,0,0c1.4,0,2.1-0.5,2.1-1.5v-1.5c-0.4-0.1-1-0.1-1.6-0.1
			c-0.2,0-0.5,0-0.8,0.1c-0.3,0-0.6,0.1-0.9,0.2c-0.3,0.1-0.6,0.3-0.8,0.5C83.1,49.7,83,50,83,50.3z"/>
		<path d="M90.4,45.4v-1.5H92v-2.8h1.7v2.8h2.5v1.5h-2.5v5.4c0,0.7,0.5,1.1,1.4,1.1c0,0,0,0,0,0c0.4,0,0.8-0.1,1.1-0.3v1.5
			c-0.4,0.2-0.8,0.3-1.3,0.3c0,0,0,0,0,0c-0.2,0-0.5,0-0.7-0.1c-0.3-0.1-0.6-0.2-0.9-0.3c-0.4-0.2-0.6-0.4-0.9-0.8
			c-0.2-0.4-0.3-0.9-0.3-1.5v-5.3H90.4z"/>
		<path d="M98.1,42.5v-1.8h1.8v1.8H98.1z M98.1,53.2v-9.3h1.7v9.3H98.1z"/>
		<path d="M102.8,53.2V40.4h1.7v12.8H102.8z"/>
		<path d="M107,48.5c0-0.9,0.1-1.7,0.4-2.3c0.3-0.6,0.6-1.1,1-1.4c0.4-0.3,0.9-0.5,1.3-0.7c0.5-0.1,1-0.2,1.5-0.2
			c0.7,0,1.3,0.1,2,0.3v-3.6h1.7v9.9c0,0.2,0,0.4-0.1,0.6c0,0.2-0.1,0.4-0.3,0.8c-0.1,0.3-0.3,0.6-0.6,0.8c-0.3,0.2-0.6,0.4-1.1,0.6
			c-0.5,0.2-1.1,0.2-1.8,0.2c-0.4,0-0.7,0-1-0.1s-0.7-0.2-1.1-0.4c-0.4-0.2-0.7-0.5-1-0.8c-0.3-0.3-0.5-0.8-0.7-1.4
			C107.1,50,107,49.3,107,48.5z M108.7,48.5c0,0.7,0.1,1.3,0.2,1.8c0.1,0.5,0.3,0.8,0.6,1c0.3,0.2,0.5,0.4,0.8,0.4
			c0.2,0.1,0.5,0.1,0.9,0.1c1.4,0,2.1-0.5,2.1-1.4v-4.7c-0.6-0.3-1.3-0.4-2-0.4c-0.4,0-0.7,0-1,0.1c-0.3,0.1-0.5,0.2-0.8,0.4
			c-0.3,0.2-0.5,0.5-0.6,1C108.7,47.2,108.7,47.8,108.7,48.5z"/>
		<path d="M116.8,50.3c0-0.9,0.4-1.6,1.2-2.1c0.8-0.5,1.8-0.8,3.2-0.8c0.6,0,1.1,0,1.7,0.1c0-0.8-0.2-1.3-0.6-1.7
			c-0.4-0.3-1-0.5-1.9-0.5c-0.8,0-1.7,0.2-2.6,0.5v-1.5c0.9-0.3,1.8-0.5,2.8-0.5c1.3,0,2.3,0.3,3,1c0.7,0.7,1.1,1.6,1.1,2.9v2.7
			c0,0.2,0,0.4-0.1,0.6c0,0.2-0.1,0.4-0.3,0.8c-0.1,0.3-0.4,0.6-0.6,0.8c-0.3,0.2-0.6,0.4-1.1,0.6c-0.5,0.2-1.1,0.2-1.8,0.2
			c-0.7,0-1.3-0.1-1.8-0.3c-0.5-0.2-0.9-0.4-1.2-0.6c-0.3-0.2-0.5-0.5-0.6-0.8c-0.2-0.3-0.3-0.6-0.3-0.8S116.8,50.5,116.8,50.3z
			 M118.5,50.3c0,1,0.7,1.6,2.2,1.6c0,0,0,0,0,0c1.4,0,2.1-0.5,2.1-1.5v-1.5c-0.4-0.1-1-0.1-1.6-0.1c-0.2,0-0.5,0-0.8,0.1
			c-0.3,0-0.6,0.1-0.9,0.2c-0.3,0.1-0.6,0.3-0.8,0.5C118.6,49.7,118.5,50,118.5,50.3z"/>
	</g>
	<g>
		<path d="M65.8,61.2v-4.2h0.5v4.2H65.8z"/>
		<path d="M67.6,61.2v-2.9c0.4-0.2,0.9-0.3,1.3-0.3c0.4,0,0.7,0.1,0.9,0.3c0.2,0.2,0.3,0.5,0.3,0.9v2.1h-0.5v-2.1c0-0.1,0-0.2,0-0.2
			c0-0.1-0.1-0.1-0.1-0.2c-0.1-0.1-0.1-0.1-0.3-0.2c-0.1,0-0.3-0.1-0.5-0.1c-0.3,0-0.5,0-0.8,0.1v2.6H67.6z"/>
		<path d="M71.2,58.4V58h0.5v-0.9h0.5V58H73v0.4h-0.8v1.9c0,0.2,0,0.3,0.1,0.3c0.1,0.1,0.2,0.1,0.4,0.1c0.1,0,0.3,0,0.4-0.1v0.4
			c-0.1,0-0.3,0.1-0.4,0.1c0,0,0,0,0,0c-0.1,0-0.2,0-0.2,0c-0.1,0-0.2-0.1-0.3-0.1c-0.1-0.1-0.2-0.1-0.2-0.3
			c-0.1-0.1-0.1-0.3-0.1-0.5v-1.9H71.2z"/>
		<path d="M73.9,59.6C73.9,59.6,73.9,59.6,73.9,59.6C73.9,59.6,73.9,59.6,73.9,59.6c0-1.1,0.5-1.7,1.4-1.7c0.2,0,0.4,0,0.5,0.1
			c0.2,0.1,0.3,0.1,0.4,0.2c0.1,0.1,0.2,0.2,0.2,0.3c0.1,0.1,0.1,0.2,0.1,0.3c0,0.1,0.1,0.2,0.1,0.3c0,0.1,0,0.2,0,0.2v0.1l0,0.2
			h-2.3c0,0.3,0.1,0.5,0.3,0.7c0.2,0.1,0.4,0.2,0.7,0.2c0.5,0,0.8-0.1,1.1-0.2V61c-0.3,0.1-0.7,0.2-1.1,0.2c0,0,0,0,0,0
			c-0.2,0-0.4,0-0.5-0.1c-0.2,0-0.3-0.1-0.5-0.2c-0.1-0.1-0.3-0.3-0.3-0.5C73.9,60.2,73.9,59.9,73.9,59.6z M74.3,59.4h1.9
			c0-0.1,0-0.2,0-0.2c0-0.1-0.1-0.2-0.1-0.3c-0.1-0.1-0.1-0.3-0.3-0.3c-0.1-0.1-0.3-0.1-0.5-0.1c-0.3,0-0.5,0.1-0.7,0.2
			C74.4,58.8,74.4,59.1,74.3,59.4z"/>
		<path d="M77.8,61.2v-2.9c0.5-0.2,1-0.3,1.5-0.3v0.4c-0.3,0-0.7,0.1-1.1,0.2v2.6H77.8z"/>
		<path d="M80.3,61.2v-2.9c0.4-0.2,0.9-0.3,1.3-0.3c0.4,0,0.7,0.1,0.9,0.3c0.2,0.2,0.3,0.5,0.3,0.9v2.1h-0.5v-2.1c0-0.1,0-0.2,0-0.2
			c0-0.1-0.1-0.1-0.1-0.2c-0.1-0.1-0.1-0.1-0.3-0.2c-0.1,0-0.3-0.1-0.5-0.1c-0.3,0-0.5,0-0.8,0.1v2.6H80.3z"/>
		<path d="M84.1,60.2c0-0.1,0-0.3,0.1-0.4c0.1-0.1,0.1-0.2,0.2-0.3c0.1-0.1,0.2-0.1,0.3-0.2c0.1,0,0.2-0.1,0.3-0.1
			c0.1,0,0.2,0,0.3-0.1c0.1,0,0.2,0,0.3,0c0.1,0,0.1,0,0.2,0l0.5,0c0-0.3-0.1-0.5-0.2-0.6c-0.2-0.1-0.4-0.2-0.7-0.2
			c-0.3,0-0.6,0.1-0.9,0.2v-0.4c0.3-0.1,0.6-0.2,0.9-0.2c0.4,0,0.8,0.1,1,0.3c0.2,0.2,0.3,0.6,0.3,1v0.9c0,0.2,0,0.4-0.1,0.5
			c-0.1,0.1-0.2,0.2-0.4,0.3c-0.1,0.1-0.3,0.1-0.4,0.1s-0.3,0-0.4,0c-0.1,0-0.2,0-0.3,0c-0.1,0-0.2,0-0.3-0.1
			c-0.1,0-0.2-0.1-0.3-0.2c-0.1-0.1-0.2-0.2-0.2-0.3C84.1,60.5,84.1,60.4,84.1,60.2z M84.5,60.2c0,0.4,0.3,0.6,0.9,0.6c0,0,0,0,0,0
			c0.6,0,0.8-0.2,0.8-0.6v-0.6c-0.1,0-0.3,0-0.6,0C84.9,59.6,84.5,59.8,84.5,60.2z"/>
		<path d="M87.5,58.4V58h0.5v-0.9h0.5V58h0.8v0.4h-0.8v1.9c0,0.2,0,0.3,0.1,0.3c0.1,0.1,0.2,0.1,0.4,0.1c0.1,0,0.3,0,0.4-0.1v0.4
			c-0.1,0-0.3,0.1-0.4,0.1c0,0,0,0,0,0c-0.1,0-0.2,0-0.2,0c-0.1,0-0.2-0.1-0.3-0.1c-0.1-0.1-0.2-0.1-0.2-0.3
			c-0.1-0.1-0.1-0.3-0.1-0.5v-1.9H87.5z"/>
		<path d="M90.4,57.4v-0.5h0.5v0.5H90.4z M90.5,61.2h0.5V58h-0.5V61.2z"/>
		<path d="M92.2,60.4c-0.1-0.2-0.1-0.5-0.1-0.8c0-0.3,0-0.6,0.1-0.8c0.1-0.2,0.2-0.4,0.4-0.5c0.2-0.1,0.3-0.2,0.5-0.2
			c0.2,0,0.3-0.1,0.5-0.1c0.2,0,0.4,0,0.5,0.1c0.2,0,0.3,0.1,0.5,0.2s0.3,0.3,0.4,0.5c0.1,0.2,0.1,0.5,0.1,0.8c0,0.3,0,0.6-0.1,0.8
			c-0.1,0.2-0.2,0.4-0.4,0.5c-0.2,0.1-0.3,0.2-0.5,0.2c-0.2,0-0.3,0.1-0.5,0.1c-0.2,0-0.4,0-0.5-0.1c-0.2,0-0.3-0.1-0.5-0.2
			C92.4,60.8,92.3,60.6,92.2,60.4z M92.8,58.6c-0.2,0.2-0.2,0.5-0.2,0.9c0,0.4,0.1,0.7,0.2,0.9c0.2,0.2,0.4,0.3,0.8,0.3
			c0.4,0,0.6-0.1,0.8-0.3s0.2-0.5,0.2-0.9c0-0.4-0.1-0.7-0.2-0.9c-0.2-0.2-0.4-0.3-0.8-0.3C93.2,58.4,93,58.5,92.8,58.6z"/>
		<path d="M96.2,61.2v-2.9c0.4-0.2,0.9-0.3,1.3-0.3c0.4,0,0.7,0.1,0.9,0.3c0.2,0.2,0.3,0.5,0.3,0.9v2.1h-0.5v-2.1c0-0.1,0-0.2,0-0.2
			c0-0.1-0.1-0.1-0.1-0.2c-0.1-0.1-0.1-0.1-0.3-0.2c-0.1,0-0.3-0.1-0.5-0.1c-0.3,0-0.5,0-0.8,0.1v2.6H96.2z"/>
		<path d="M99.9,60.2c0-0.1,0-0.3,0.1-0.4c0.1-0.1,0.1-0.2,0.2-0.3c0.1-0.1,0.2-0.1,0.3-0.2c0.1,0,0.2-0.1,0.3-0.1
			c0.1,0,0.2,0,0.3-0.1c0.1,0,0.2,0,0.3,0c0.1,0,0.1,0,0.2,0l0.5,0c0-0.3-0.1-0.5-0.2-0.6c-0.2-0.1-0.4-0.2-0.7-0.2
			c-0.3,0-0.6,0.1-0.9,0.2v-0.4c0.3-0.1,0.6-0.2,0.9-0.2c0.4,0,0.8,0.1,1,0.3c0.2,0.2,0.3,0.6,0.3,1v0.9c0,0.2,0,0.4-0.1,0.5
			c-0.1,0.1-0.2,0.2-0.4,0.3c-0.1,0.1-0.3,0.1-0.4,0.1s-0.3,0-0.4,0c-0.1,0-0.2,0-0.3,0c-0.1,0-0.2,0-0.3-0.1
			c-0.1,0-0.2-0.1-0.3-0.2c-0.1-0.1-0.2-0.2-0.2-0.3C100,60.5,99.9,60.4,99.9,60.2z M100.4,60.2c0,0.4,0.3,0.6,0.9,0.6c0,0,0,0,0,0
			c0.6,0,0.8-0.2,0.8-0.6v-0.6c-0.1,0-0.3,0-0.6,0C100.8,59.6,100.4,59.8,100.4,60.2z"/>
		<path d="M103.9,61.2v-4.4h0.5v4.4H103.9z"/>
		<path d="M108.4,61.2v-4.2h0.5v1.9h2.2v-1.9h0.5v4.2h-0.5v-1.9h-2.2v1.9H108.4z"/>
		<path d="M112.9,60.4c-0.1-0.2-0.1-0.5-0.1-0.8c0-0.3,0-0.6,0.1-0.8c0.1-0.2,0.2-0.4,0.4-0.5c0.2-0.1,0.3-0.2,0.5-0.2
			c0.2,0,0.3-0.1,0.5-0.1c0.2,0,0.4,0,0.5,0.1c0.2,0,0.3,0.1,0.5,0.2c0.2,0.1,0.3,0.3,0.4,0.5c0.1,0.2,0.1,0.5,0.1,0.8
			c0,0.3,0,0.6-0.1,0.8c-0.1,0.2-0.2,0.4-0.4,0.5c-0.2,0.1-0.3,0.2-0.5,0.2c-0.2,0-0.3,0.1-0.5,0.1c-0.2,0-0.4,0-0.5-0.1
			c-0.2,0-0.3-0.1-0.5-0.2C113.1,60.8,113,60.6,112.9,60.4z M113.5,58.6c-0.2,0.2-0.2,0.5-0.2,0.9c0,0.4,0.1,0.7,0.2,0.9
			c0.2,0.2,0.4,0.3,0.8,0.3c0.4,0,0.6-0.1,0.8-0.3s0.2-0.5,0.2-0.9c0-0.4-0.1-0.7-0.2-0.9c-0.2-0.2-0.4-0.3-0.8-0.3
			C113.9,58.4,113.6,58.5,113.5,58.6z"/>
		<path d="M116.7,58.9c0-0.3,0.1-0.5,0.3-0.6c0.2-0.2,0.5-0.3,0.8-0.3c0.3,0,0.5,0.1,0.8,0.2v0.5c-0.2-0.1-0.5-0.2-0.8-0.2
			c-0.5,0-0.7,0.2-0.7,0.5c0,0.1,0.1,0.2,0.2,0.3c0.1,0.1,0.3,0.1,0.4,0.2c0.2,0,0.3,0.1,0.5,0.2c0.2,0.1,0.3,0.2,0.4,0.3
			c0.1,0.1,0.2,0.3,0.2,0.6c0,0.3-0.1,0.5-0.3,0.6c-0.2,0.2-0.5,0.2-0.9,0.2c-0.4,0-0.7-0.1-1-0.2v-0.5c0.3,0.2,0.6,0.3,0.9,0.3
			c0.5,0,0.7-0.1,0.7-0.4c0-0.2-0.1-0.3-0.2-0.4c-0.1-0.1-0.3-0.2-0.4-0.2c-0.2,0-0.3-0.1-0.5-0.1c-0.2-0.1-0.3-0.1-0.4-0.3
			C116.8,59.2,116.7,59.1,116.7,58.9z"/>
		<path d="M119.9,62.3v-3.4c0-0.1,0-0.2,0-0.3c0-0.1,0.1-0.2,0.2-0.3c0.1-0.1,0.2-0.2,0.4-0.3c0.2-0.1,0.4-0.1,0.7-0.1
			c0.1,0,0.2,0,0.3,0c0.1,0,0.2,0.1,0.4,0.1c0.1,0.1,0.2,0.2,0.3,0.3c0.1,0.1,0.2,0.3,0.2,0.5c0.1,0.2,0.1,0.5,0.1,0.7
			c0,0.3,0,0.6-0.1,0.8c-0.1,0.2-0.2,0.4-0.4,0.5c-0.1,0.1-0.3,0.2-0.5,0.2c-0.2,0-0.3,0.1-0.5,0.1c-0.3,0-0.5,0-0.8-0.1v1.2H119.9z
			 M120.4,60.6c0.2,0.1,0.5,0.2,0.8,0.2c0.3,0,0.6-0.1,0.8-0.3c0.2-0.2,0.2-0.5,0.2-0.9c0-0.3,0-0.5-0.1-0.7
			c-0.1-0.2-0.1-0.3-0.2-0.4c-0.1-0.1-0.2-0.1-0.3-0.2c-0.1,0-0.2,0-0.3,0c-0.6,0-0.8,0.2-0.8,0.6V60.6z"/>
		<path d="M123.8,57.4v-0.5h0.5v0.5H123.8z M123.8,61.2h0.5V58h-0.5V61.2z"/>
		<path d="M125.3,58.4V58h0.5v-0.9h0.5V58h0.8v0.4h-0.8v1.9c0,0.2,0,0.3,0.1,0.3c0.1,0.1,0.2,0.1,0.4,0.1c0.1,0,0.3,0,0.4-0.1v0.4
			c-0.1,0-0.3,0.1-0.4,0.1c0,0,0,0,0,0c-0.1,0-0.2,0-0.2,0c-0.1,0-0.2-0.1-0.3-0.1c-0.1-0.1-0.2-0.1-0.2-0.3
			c-0.1-0.1-0.1-0.3-0.1-0.5v-1.9H125.3z"/>
		<path d="M128.1,60.2c0-0.1,0-0.3,0.1-0.4s0.1-0.2,0.2-0.3c0.1-0.1,0.2-0.1,0.3-0.2c0.1,0,0.2-0.1,0.3-0.1c0.1,0,0.2,0,0.3-0.1
			c0.1,0,0.2,0,0.3,0c0.1,0,0.1,0,0.2,0l0.5,0c0-0.3-0.1-0.5-0.2-0.6c-0.2-0.1-0.4-0.2-0.7-0.2c-0.3,0-0.6,0.1-0.9,0.2v-0.4
			c0.3-0.1,0.6-0.2,0.9-0.2c0.4,0,0.8,0.1,1,0.3c0.2,0.2,0.3,0.6,0.3,1v0.9c0,0.2,0,0.4-0.1,0.5c-0.1,0.1-0.2,0.2-0.4,0.3
			c-0.1,0.1-0.3,0.1-0.4,0.1c-0.1,0-0.3,0-0.4,0c-0.1,0-0.2,0-0.3,0c-0.1,0-0.2,0-0.3-0.1c-0.1,0-0.2-0.1-0.3-0.2
			c-0.1-0.1-0.2-0.2-0.2-0.3C128.1,60.5,128.1,60.4,128.1,60.2z M128.5,60.2c0,0.4,0.3,0.6,0.9,0.6c0,0,0,0,0,0
			c0.6,0,0.8-0.2,0.8-0.6v-0.6c-0.1,0-0.3,0-0.6,0C128.9,59.6,128.5,59.8,128.5,60.2z"/>
		<path d="M132,61.2v-4.4h0.5v4.4H132z"/>
	</g>
</g>
</svg>
