<?xml version="1.0" encoding="utf-8"?>
<!-- Generator: Adobe Illustrator 16.0.3, SVG Export Plug-In . SVG Version: 6.00 Build 0)  -->
<!DOCTYPE svg PUBLIC "-//W3C//DTD SVG 1.1//EN" "http://www.w3.org/Graphics/SVG/1.1/DTD/svg11.dtd">
<svg version="1.1" id="Layer_2" xmlns="http://www.w3.org/2000/svg" xmlns:xlink="http://www.w3.org/1999/xlink" x="0px" y="0px"
	 width="160px" height="110px" viewBox="0 0 160 110" enable-background="new 0 0 160 110" xml:space="preserve">
<g>
	<path d="M42.929,39.196v32.071h73.392l0.057-32.184L42.929,39.196z M61.929,69.267h-17v-28h17V69.267z M112.929,69.267h-49v-28h49
		V69.267z"/>
	<g>
		<rect x="46.083" y="42.103" width="14.926" height="26.508"/>
	</g>
	<path fill="#FFFFFF" d="M56.696,59.114c0,0-0.328-0.623,0.703-0.593c0.781,0.025,0.669,0.796,0.669,0.796s-0.078,1.542-1.806,2.199
		c0,0-0.952,0.123-0.188-0.531C56.546,60.581,56.884,59.538,56.696,59.114z"/>
	<path fill="#FFFFFF" d="M54.17,57.883c0,0-0.076,1.076,0.501,0.873c0,0,0.527-0.248,0.421,0.093
		c-0.111,0.343-0.563,1.715-1.153,1.731c-0.592,0.016-0.905-0.655-0.874-1.279c0.032-0.623,0.08-1.543,0.016-1.729
		c-0.062-0.188-0.109-0.305-0.029-0.517C53.149,56.786,53.968,56.948,54.17,57.883z"/>
	<g>
		<path fill="#FFFFFF" d="M53.119,47.276h1.124c0,0,0.271,0.069,0.458-0.148c0.188-0.218,0.983-1.294,1.373,0.049
			c0,0,0.014,0.108,0.18,0.108c0.165,0,0.89,0,0.89,0s0.393,0,0.356,0.405C57.467,48.027,57.197,48,57.197,48s-2.418,0-2.604,0
			c-0.326,0-0.187,0.483,0.009,0.483c0.33,0,1.589,0,1.589,0s0.366-0.093,0.366,0.342c0,0,0,0.305-0.372,0.311c0,0-1.441,0-1.601,0
			c-0.152,0-0.279,0.399-0.013,0.454h2.258c0,0,0.507,0,0.501,0.429c-0.011,0.539-0.391,0.49-0.391,0.49h-2.254
			c0,0-0.295,0-0.234,0.328c0.044,0.214,0.11,0.171,0.166,0.212h3.974c0,0,0.331-0.003,0.343,0.311
			c0.026,0.632-0.594,0.569-0.646,0.569h-2.929c0,0-0.172-0.023-0.085,0.108c0.085,0.134,0.739,0.805,1.423,1.035
			c0.688,0.235,1.366,0.235,1.366,0.235s0.24-0.037,0.185,0.29c-0.053,0.326-0.614,1.277-1.706,0.903
			c-1.091-0.373-2.37-2.042-2.37-2.042s-0.147-0.148-0.319,0.007c-0.171,0.155-2.273,2.144-3.123,2.081
			c-0.852-0.062-1.053-0.389-1.107-0.562c-0.055-0.172-0.039-0.356,0.297-0.32c0.336,0.04,1.762-0.141,2.577-1.441
			c0,0,0.141-0.328-0.237-0.295c-0.387,0.031-1.484,0.039-1.693,0.062c-0.213,0.022-1.094,0.039-1.146,0.016
			c-0.057-0.023-0.337-0.071-0.337-0.381c0-0.313,0.062-0.54,0.533-0.577h3.114c0,0,0.257-0.041,0.226-0.273
			c0,0-0.029-0.26-0.304-0.267c-0.271-0.008-1.972,0-1.972,0s-0.498,0.07-0.474-0.396c0,0,0.009-0.509,0.48-0.532h2.015
			c0,0,0.248-0.028,0.248-0.176c0-0.149-0.111-0.275-0.213-0.27c-0.101,0.008-1.073,0-1.073,0s-0.218,0.049-0.411,0.079
			c-0.129,0.021-0.37,0.048-0.408-0.085c0,0-0.31-0.638,0.421-0.646c0.732-0.009,1.465,0,1.465,0s0.226-0.062,0.22-0.241
			c-0.01-0.179-0.117-0.249-0.196-0.242c-0.077,0.007-2.087,0-2.087,0s-0.443,0.071-0.451-0.298
			c-0.009-0.364,0.184-0.412,0.257-0.418c0.071-0.009,0.913,0,0.913,0s0.1-0.022,0.073-0.078c-0.06-0.142,0.18-1.276,1.033-0.297
			C52.853,47.33,52.832,47.285,53.119,47.276z"/>
	</g>
	<g>
		<path d="M94.617,59.099c-0.516-0.64-2.181-2.447-1.746-3.741c0,0,1.059-2.696,1.105-2.916c0.047-0.218-0.328-0.748-0.653,0.124
			c0,0-0.795,2.199-1.014,2.215c0,0-0.751-2.157-1.032-2.71c-0.124-0.251-1.493-0.423-1.196,0.091
			c0.297,0.515,1.435,2.791,1.481,3.587c0.046,0.794-0.234,1.65-0.982,2.243c-0.749,0.592-1.001-0.203-1.001-0.654
			c0-0.449-0.015-0.671,0.126-0.937c0.443-0.83,0.687-2.508-0.217-3.647c0,0-0.779-0.888-2.091,0.781
			c-1.31,1.667-1.588,4.521-1.433,5.362c0.156,0.842,1.104,2.184,2.604-0.063c0,0,1.243,1.949,3.257-1.214
			c0.376-0.593,0.7,2.126,1.793,2.072C93.619,59.692,95.132,59.739,94.617,59.099z M88.925,54.75
			c-0.53,0.468-0.669,2.543-0.669,2.543c0.015,0.341-0.797,1.869-1.233,0.762c-0.422-1.065,0.312-3.805,1.062-4.551
			C88.833,52.753,89.096,54.597,88.925,54.75z"/>
		<path d="M94.91,53.814c-0.21,1.871-1.248,2.812-1.248,2.812c-0.068,0.577-0.008,0.563,0.182,0.563
			c0.382,0,0.797-0.626,0.912-0.911c0.049-0.116,0.14-0.077,0.14-0.077c0.096,0.277,0.594,1.948,1.278,1.229
			c1.045-1.09,1.078-1.855,1.403-2.137c0.479-0.409,0.015,2.278,0.015,2.401c0,0.126-0.203,0.638,0.203,0.423
			c0.406-0.22,0.561-0.874,0.703-1.062c0.141-0.188,0.357-0.247,0.295,0.096c-0.062,0.342,0.062,0.606,0.482,0.53
			c0.268-0.051,0.876-1.233,0.876-1.233c0.076-0.156,0.246-0.048,0.246-0.048c0.096,0.655,0.422,1.482,0.656,1.653
			c0.743,0.543,1.015,0.08,1.015,0.08c0.451-0.829,0.391-0.829,0.217-0.856c-1.716-0.314-0.482-3.464-0.482-3.464
			c0.219-0.497-0.326-0.584-0.326-0.584c-0.936-0.21-1.217,0.787-1.217,0.787s-0.097,0.188-0.194,0.142
			c-0.17-0.077-0.257-0.655-0.257-0.655c-0.168-0.904-0.889-0.017-0.858,0.219c0.015,0.11-0.109,0.079-0.109,0.079
			c-0.202-0.22-0.141-0.251-0.361-0.798c-0.218-0.544-0.465-0.412-0.7-0.045c-0.282,0.437-0.903,2.726-1.121,3.042
			c-0.282,0.397-0.576,0.028-0.576,0.028c-0.404-0.717,0.062-2.621,0.062-2.621c0.314-1.121-0.376-0.638-0.376-0.638
			S94.998,53.05,94.91,53.814z"/>
		<path d="M94.849,50.401c0,0-0.374-0.483,0.529-0.948c0,0,0.437-0.237,0.562,0.074c0.123,0.315,0.965,2.026-0.64,2.823
			c0,0-0.876,0.167-0.482-0.295C94.991,51.849,95.301,51.726,94.849,50.401z"/>
		<path d="M106.072,51.57c0.343-0.125,0.625-0.219,0.453,0.545c0,0-0.064,0.423-0.282,0.451c-0.683,0.096-1.45,0.608-1.541,0.984
			c-0.289,1.147,0.841,1.528,1.409,2.938c0,0,0.908,1.936-1.116,3.05c-1.104,0.605-2.624-0.673-2.446-1.029
			c0,0,0.111-0.374,0.53-0.657c0,0,0.253-0.101,0.313,0.064c0.123,0.35,0.931,1.072,1.498,0.888
			c0.559-0.188,0.489-0.685,0.371-1.015c-0.113-0.328-1.347-1.962-1.589-2.578C103.203,54.017,103.53,52.536,106.072,51.57z"/>
		<path d="M102.643,52.817c1.028-0.81,1.901-2.774,2.089-3.304c0.188-0.528-0.22-0.471-0.22-0.471
			c-1.137-0.114-0.903,0.261-0.94,0.333c-0.027,0.178-0.353,1.714-1.182,2.896C101.791,53.126,102.643,52.817,102.643,52.817z"/>
		<path d="M78.421,54.25c0.372,0.188,1.089-1.057,0.776-1.4c0,0-2.067-2.582-6.015,1.185c-4.054,3.865-3.086,8.511-2.65,9.26
			c0,0,1.622,3.521,5.705,1.4c0,0,2.412-0.883,4.487-9.195c0,0,0.626,6.452,1.746,6.329c0,0,0.656,0,0.686-1.373
			c0.019-0.843,0.628-2.179,0.628-1.9c0,0.498,2.303,6.921,5.703,2.245c0,0,0.124-0.717-0.562,0.03
			c-0.685,0.748-1.922,1.598-3.649-1.497c-1.526-2.743,0.688-11.91,0.688-13.312c0,0,0.108-0.373-0.422-0.123
			c-0.53,0.247-1.229,0.437-1.186,1.091l-0.917,9.786c0,0-0.261,2.18-0.656,2.278c-0.624,0.155-0.747-3.615-0.747-3.615
			s-0.195-0.672,0.562-7.826c0,0,0.248-0.67-0.389-0.42c-0.64,0.248-1.155,0.326-1.141,0.685s0.032,8.62-4.178,14.45
			c0,0-1.589,2.368-4.269,1.062c-1.623-0.792-2.482-4.392,0.404-7.639C76.266,52.098,77.856,53.966,78.421,54.25z"/>
	</g>
	<path fill="#FFFFFF" d="M49.168,59.365c-0.095-0.453,1.248-0.733,1.169,0.013c0,0-0.11,0.657-0.032,1.452
		c0,0,0.124,0.498,0.046,1.448c-0.039,0.491,0.191,0.811-0.153,0.936c-0.343,0.127-1.029,0.843-1.029,0.843
		s-0.593,0.404-0.436-0.279c0,0,0.414-0.741,0.499-1.232c0.108-0.654,0.155-1.496,0.108-1.729
		C49.292,60.581,49.168,59.365,49.168,59.365z"/>
	<path fill="#FFFFFF" d="M51.303,60.783c0,0-0.356-1.292,0.202-1.245c0.562,0.042,0.953-0.11,0.985,0.465
		c0.03,0.578-0.313,1.404-0.02,1.84c0.3,0.436,1.373,0.608,2.152,0.841c0.782,0.233,3.366,0.206,4.034-0.125
		c0.672-0.327,0.409,0.142,0.409,0.142s-2.06,1.966-2.853,1.683c-0.799-0.28-3.787-1.122-4.257-1.104
		c-0.469,0.016-0.748-0.243-0.62-1.108C51.412,61.624,51.303,60.783,51.303,60.783z"/>
</g>
</svg>
