<?xml version="1.0" encoding="utf-8"?>
<!-- Generator: Adobe Illustrator 16.0.3, SVG Export Plug-In . SVG Version: 6.00 Build 0)  -->
<!DOCTYPE svg PUBLIC "-//W3C//DTD SVG 1.1//EN" "http://www.w3.org/Graphics/SVG/1.1/DTD/svg11.dtd">
<svg version="1.1" id="Layer_2" xmlns="http://www.w3.org/2000/svg" xmlns:xlink="http://www.w3.org/1999/xlink" x="0px" y="0px"
	 width="160px" height="110px" viewBox="0 0 160 110" enable-background="new 0 0 160 110" xml:space="preserve">
<g>
	<path d="M25.84,50.011c0.827,1.069,1.649,2.138,2.467,3.202c0.818,1.065,1.641,2.134,2.469,3.203
		c0.827-1.069,1.649-2.138,2.467-3.203c0.818-1.064,1.641-2.133,2.469-3.202v9.87h-1.12v-6.338c0.01-0.071,0.017-0.143,0.021-0.215
		s0.011-0.145,0.021-0.216c-0.594,0.88-1.223,1.737-1.888,2.569c-0.666,0.831-1.321,1.67-1.969,2.515
		c-0.603-0.792-1.205-1.578-1.807-2.36c-0.604-0.782-1.206-1.568-1.808-2.359l-0.243-0.364c0.009,0.071,0.016,0.144,0.021,0.216
		s0.011,0.144,0.02,0.215v6.338H25.84V50.011z"/>
	<path d="M38.461,50.442h1.119v9.438h-1.119V50.442z"/>
	<path d="M41.656,59.881v-9.438h2.225c0.307,0,0.646,0.047,1.019,0.141c0.373,0.096,0.722,0.246,1.045,0.452
		c0.323,0.208,0.594,0.472,0.81,0.796c0.216,0.323,0.323,0.715,0.323,1.173c0,0.675-0.168,1.239-0.506,1.692
		c-0.337,0.454-0.828,0.753-1.476,0.897l2.022,4.287h-1.214l-1.982-4.207h-0.229h-0.916v4.207H41.656z M42.776,54.595h1.173
		c0.396,0,0.722-0.051,0.977-0.154c0.257-0.104,0.462-0.231,0.614-0.385c0.153-0.153,0.261-0.323,0.324-0.513
		c0.062-0.188,0.095-0.368,0.095-0.539c0-0.197-0.053-0.389-0.155-0.573c-0.104-0.184-0.243-0.345-0.418-0.485
		c-0.176-0.14-0.387-0.249-0.634-0.33c-0.248-0.081-0.512-0.121-0.789-0.121h-1.187V54.595z"/>
	<path d="M57.057,59.881h-1.12c-0.26-0.62-0.522-1.242-0.788-1.867s-0.529-1.247-0.789-1.868h-2.967
		c-0.261,0.621-0.523,1.243-0.789,1.868s-0.527,1.247-0.788,1.867h-1.12c0.701-1.653,1.398-3.299,2.09-4.936
		c0.692-1.635,1.39-3.28,2.091-4.935c0.702,1.654,1.398,3.3,2.09,4.935C55.658,56.582,56.354,58.228,57.057,59.881z M52.997,52.937
		l-0.121-0.445c-0.126,0.45-0.282,0.887-0.473,1.309c-0.188,0.423-0.372,0.85-0.552,1.281H53.9
		c-0.152-0.359-0.303-0.717-0.451-1.072S53.15,53.296,52.997,52.937z"/>
	<path d="M59.199,50.011c0.828,1.069,1.65,2.138,2.468,3.202c0.819,1.065,1.641,2.134,2.468,3.203
		c0.828-1.069,1.65-2.138,2.468-3.203c0.819-1.064,1.641-2.133,2.468-3.202v9.87h-1.119v-6.338c0.01-0.071,0.016-0.143,0.021-0.215
		c0.004-0.072,0.011-0.145,0.021-0.216c-0.594,0.88-1.223,1.737-1.888,2.569c-0.666,0.831-1.321,1.67-1.97,2.515
		c-0.602-0.792-1.204-1.578-1.806-2.36c-0.604-0.782-1.206-1.568-1.808-2.359l-0.243-0.364c0.009,0.071,0.016,0.144,0.021,0.216
		s0.012,0.144,0.02,0.215v6.338h-1.119V50.011z"/>
	<path d="M79.67,59.881h-1.12c-0.26-0.62-0.523-1.242-0.788-1.867c-0.266-0.625-0.529-1.247-0.789-1.868h-2.967
		c-0.261,0.621-0.523,1.243-0.789,1.868s-0.527,1.247-0.789,1.867h-1.119c0.701-1.653,1.398-3.299,2.09-4.936
		c0.692-1.635,1.39-3.28,2.091-4.935c0.702,1.654,1.397,3.3,2.09,4.935C78.271,56.582,78.968,58.228,79.67,59.881z M75.61,52.937
		l-0.121-0.445c-0.126,0.45-0.283,0.887-0.473,1.309c-0.188,0.423-0.372,0.85-0.552,1.281h2.049
		c-0.152-0.359-0.304-0.717-0.451-1.072C75.914,53.653,75.763,53.296,75.61,52.937z"/>
	<path d="M81.248,59.881v-9.438h2.225c0.307,0,0.645,0.047,1.018,0.141c0.374,0.096,0.723,0.246,1.045,0.452
		c0.324,0.208,0.594,0.472,0.81,0.796c0.216,0.323,0.323,0.715,0.323,1.173c0,0.675-0.168,1.239-0.506,1.692
		c-0.336,0.454-0.828,0.753-1.476,0.897l2.022,4.287h-1.214l-1.981-4.207h-0.23h-0.916v4.207H81.248z M82.367,54.595h1.174
		c0.395,0,0.721-0.051,0.977-0.154s0.461-0.231,0.613-0.385c0.153-0.153,0.262-0.323,0.324-0.513
		c0.062-0.188,0.095-0.368,0.095-0.539c0-0.197-0.052-0.389-0.155-0.573c-0.104-0.184-0.242-0.345-0.418-0.485
		c-0.176-0.14-0.387-0.249-0.634-0.33c-0.248-0.081-0.511-0.121-0.789-0.121h-1.187V54.595z"/>
	<path d="M97.104,56.9v-1.064h1.86c0.262,0,0.434,0.065,0.52,0.195c0.085,0.131,0.129,0.336,0.129,0.614v2.669
		c-0.359,0.207-0.744,0.371-1.154,0.493c-0.409,0.121-0.842,0.182-1.301,0.182c-0.666,0-1.289-0.126-1.874-0.378
		c-0.585-0.251-1.094-0.596-1.53-1.031s-0.78-0.946-1.031-1.531c-0.252-0.584-0.378-1.208-0.378-1.873s0.126-1.293,0.378-1.882
		c0.251-0.589,0.595-1.102,1.031-1.536c0.437-0.438,0.945-0.783,1.53-1.039c0.585-0.257,1.208-0.385,1.874-0.385
		c0.459,0,0.892,0.059,1.301,0.176c0.41,0.117,0.799,0.282,1.167,0.499c-0.099,0.153-0.202,0.304-0.31,0.452
		c-0.108,0.148-0.211,0.299-0.311,0.451c-0.279-0.162-0.571-0.288-0.877-0.378c-0.305-0.09-0.629-0.134-0.971-0.134
		c-0.512,0-0.99,0.098-1.436,0.296c-0.445,0.197-0.836,0.47-1.173,0.815c-0.338,0.346-0.604,0.749-0.796,1.207
		c-0.194,0.458-0.291,0.944-0.291,1.457c0,0.512,0.097,0.997,0.291,1.455c0.192,0.459,0.458,0.857,0.796,1.193
		c0.337,0.338,0.728,0.605,1.173,0.803c0.445,0.198,0.924,0.297,1.436,0.297c0.467,0,0.912-0.081,1.335-0.242v-1.376
		c0-0.152-0.015-0.259-0.047-0.317c-0.031-0.059-0.119-0.088-0.263-0.088H97.104z"/>
	<path d="M101.622,59.881v-9.438h2.225c0.307,0,0.646,0.047,1.019,0.141c0.373,0.096,0.722,0.246,1.045,0.452
		c0.323,0.208,0.594,0.472,0.809,0.796c0.217,0.323,0.324,0.715,0.324,1.173c0,0.675-0.168,1.239-0.506,1.692
		c-0.337,0.454-0.828,0.753-1.477,0.897l2.023,4.287h-1.214l-1.982-4.207h-0.229h-0.916v4.207H101.622z M102.742,54.595h1.173
		c0.396,0,0.722-0.051,0.977-0.154c0.257-0.104,0.462-0.231,0.614-0.385s0.261-0.323,0.324-0.513
		c0.062-0.188,0.094-0.368,0.094-0.539c0-0.197-0.052-0.389-0.154-0.573c-0.104-0.184-0.243-0.345-0.418-0.485
		c-0.176-0.14-0.387-0.249-0.634-0.33c-0.248-0.081-0.512-0.121-0.79-0.121h-1.186V54.595z"/>
	<path d="M108.675,55.176c0-0.656,0.126-1.279,0.378-1.869c0.252-0.588,0.595-1.102,1.031-1.543c0.437-0.44,0.945-0.789,1.53-1.045
		c0.585-0.257,1.209-0.385,1.875-0.385c0.656,0,1.278,0.128,1.867,0.385c0.589,0.256,1.104,0.604,1.544,1.045
		c0.44,0.441,0.789,0.955,1.045,1.543c0.256,0.59,0.384,1.213,0.384,1.869c0,0.665-0.128,1.289-0.384,1.873
		c-0.256,0.585-0.604,1.096-1.045,1.531s-0.955,0.78-1.544,1.031c-0.589,0.252-1.211,0.378-1.867,0.378
		c-0.666,0-1.29-0.126-1.875-0.378c-0.585-0.251-1.094-0.596-1.53-1.031s-0.779-0.946-1.031-1.531
		C108.801,56.465,108.675,55.841,108.675,55.176z M109.794,55.176c0,0.521,0.097,1.009,0.29,1.463s0.458,0.85,0.796,1.186
		c0.337,0.338,0.73,0.605,1.18,0.803c0.449,0.198,0.931,0.297,1.442,0.297c0.513,0,0.993-0.099,1.443-0.297
		c0.449-0.197,0.843-0.465,1.18-0.803c0.337-0.336,0.603-0.731,0.795-1.186c0.194-0.454,0.291-0.942,0.291-1.463
		c0-0.522-0.097-1.01-0.291-1.464c-0.192-0.453-0.458-0.851-0.795-1.193c-0.337-0.341-0.73-0.61-1.18-0.809
		c-0.45-0.197-0.931-0.297-1.443-0.297c-0.512,0-0.993,0.1-1.442,0.297c-0.449,0.198-0.843,0.468-1.18,0.809
		c-0.338,0.343-0.603,0.74-0.796,1.193C109.891,54.166,109.794,54.653,109.794,55.176z"/>
	<path d="M123.589,59.989c-0.485,0-0.937-0.067-1.349-0.202c-0.414-0.136-0.773-0.335-1.079-0.6
		c-0.306-0.266-0.544-0.596-0.714-0.991c-0.172-0.396-0.258-0.851-0.258-1.362v-6.392h1.12v6.351c0,0.342,0.056,0.646,0.168,0.91
		c0.112,0.266,0.27,0.488,0.473,0.668c0.202,0.18,0.442,0.316,0.721,0.411c0.278,0.094,0.585,0.142,0.918,0.142
		c0.332,0,0.638-0.048,0.916-0.142c0.279-0.095,0.52-0.231,0.723-0.411c0.201-0.18,0.361-0.402,0.478-0.668
		c0.117-0.264,0.176-0.568,0.176-0.91v-6.351H127v6.392c0,0.512-0.088,0.967-0.263,1.362c-0.176,0.396-0.416,0.726-0.722,0.991
		c-0.306,0.265-0.665,0.464-1.078,0.6C124.523,59.922,124.074,59.989,123.589,59.989z"/>
	<path d="M128.74,59.881v-9.438h2.225c0.306,0,0.645,0.047,1.018,0.141c0.373,0.096,0.723,0.246,1.045,0.452
		c0.324,0.208,0.594,0.472,0.809,0.796c0.217,0.323,0.324,0.715,0.324,1.173c0,0.818-0.242,1.468-0.728,1.948
		c-0.485,0.481-1.187,0.722-2.104,0.722h-1.47v4.207H128.74z M129.859,54.595h1.173c0.396,0,0.722-0.051,0.978-0.154
		s0.461-0.231,0.613-0.385c0.153-0.153,0.262-0.323,0.324-0.513c0.062-0.188,0.094-0.368,0.094-0.539
		c0-0.197-0.051-0.389-0.154-0.573c-0.104-0.184-0.242-0.345-0.418-0.485c-0.176-0.14-0.387-0.249-0.634-0.33
		c-0.248-0.081-0.511-0.121-0.79-0.121h-1.186V54.595z"/>
</g>
</svg>
