<?xml version="1.0" encoding="utf-8"?>
<!-- Generator: Adobe Illustrator 16.0.3, SVG Export Plug-In . SVG Version: 6.00 Build 0)  -->
<!DOCTYPE svg PUBLIC "-//W3C//DTD SVG 1.1//EN" "http://www.w3.org/Graphics/SVG/1.1/DTD/svg11.dtd">
<svg version="1.1" id="Layer_2" xmlns="http://www.w3.org/2000/svg" xmlns:xlink="http://www.w3.org/1999/xlink" x="0px" y="0px"
	 width="160px" height="110px" viewBox="0 0 160 110" enable-background="new 0 0 160 110" xml:space="preserve">
<g>
	<g>
		<path d="M44.042,56.277c-0.094,0.631-1.371,9.558-1.489,10.391c0.638,0,2.362,0,2.862,0c0.088-0.629,1.369-9.56,1.488-10.391
			C46.261,56.277,44.538,56.277,44.042,56.277"/>
		<path d="M67.467,56.277c-0.093,0.631-1.372,9.558-1.491,10.391c0.775,0,6.115,0,6.711,0c0.064-0.457,0.234-1.66,0.319-2.242
			c-0.706,0-4.065,0-4.065,0l0.274-1.922c0,0,3.132,0,3.69,0c0.064-0.444,0.221-1.528,0.301-2.094c-0.681,0-3.689,0-3.689,0
			l0.271-1.894c0,0,3.389,0,3.957,0c0.066-0.455,0.24-1.659,0.322-2.239C73.293,56.277,68.058,56.277,67.467,56.277"/>
		<path d="M35.588,62.231c0,0,2.394-5.478,2.581-5.954c0.423,0,3.005,0,3.603,0c0.002,0.728-0.48,9.651-0.474,10.391
			c-0.541,0-2.041,0-2.594,0l0.431-7.276c0,0-2.919,6.813-3.112,7.276c-0.334,0-1.621,0-2.046,0l-0.921-7.276
			c-0.068,0.33-1.041,5.191-1.572,7.276c-0.432,0-1.895,0-2.582,0c0.273-0.927,2.246-9.857,2.4-10.391c0.465,0,2.916,0,3.471,0
			L35.588,62.231z"/>
		<path d="M62.433,64.564c0,0,0.184,1.692,0.25,2.104c0.489,0,2.088,0,2.744,0c-0.151-0.856-1.649-9.784-1.76-10.391
			c-0.535,0-3.055,0-3.475,0c-0.199,0.433-4.164,9.368-4.633,10.391c0.812,0,2.4,0,2.785,0c0.146-0.348,0.855-2.1,0.855-2.1
			L62.433,64.564z M59.985,62.422l1.641-3.856l0.533,3.856H59.985z"/>
		<path d="M50.893,58.227h0.642c0.435,0,0.924,0.048,1.226,0.396c0.214,0.247,0.292,0.598,0.227,1.04c0,0-0.087,0.795-0.609,1.046
			c0,0-0.36,0.234-0.956,0.249h-1.293l2.44,5.71c0.385,0,1.958,0,2.777,0l-2.099-4.38c1.271-0.234,2.264-0.612,2.516-2.585
			c0.035-0.249,0.057-0.485,0.057-0.707c0-0.73-0.191-1.32-0.574-1.759c-0.689-0.796-1.873-0.96-2.746-0.96c0,0-3.328,0-3.925,0
			c-0.092,0.631-1.37,9.558-1.493,10.391c0.622,0,2.125,0,2.607,0C49.776,66.087,50.893,58.227,50.893,58.227"/>
		<path d="M131.099,42.995c-1.671,6.913-7.666,10.683-11.189,12.694l-0.15-0.203c1.447-1.175,6.404-4.835,7.99-10.898
			L131.099,42.995z"/>
		<path d="M103.332,61.155L103.332,61.155c-0.03,0.005-0.061,0.008-0.093,0.016C103.271,61.163,103.302,61.16,103.332,61.155"/>
		<path d="M107.081,60.41c0.051-0.014,0.101-0.022,0.154-0.038c-0.054,0.016-0.105,0.024-0.161,0.038
			C107.074,60.41,107.077,60.41,107.081,60.41"/>
		<path d="M102.517,61.288c-0.062,0.01-0.122,0.02-0.18,0.027C102.395,61.308,102.455,61.298,102.517,61.288"/>
		<path d="M108.185,60.149c-0.2,0.049-0.399,0.096-0.6,0.146C107.785,60.245,107.984,60.198,108.185,60.149"/>
		<path d="M101.503,61.442c0.02-0.003,0.039-0.004,0.059-0.007C101.542,61.438,101.522,61.439,101.503,61.442L101.503,61.442z"/>
		<path d="M109.552,59.802c-0.121,0.03-0.246,0.064-0.374,0.099C109.306,59.866,109.431,59.832,109.552,59.802"/>
		<path d="M97.018,61.966L97.018,61.966c-0.01,0-0.017,0-0.024,0C97.001,61.966,97.008,61.966,97.018,61.966"/>
		<path d="M112.715,58.86h-0.005c-0.284,0.094-0.578,0.188-0.881,0.282C112.132,59.048,112.429,58.954,112.715,58.86"/>
		<path d="M111.644,59.198c-0.121,0.039-0.244,0.075-0.367,0.113C111.399,59.273,111.522,59.237,111.644,59.198"/>
		<path d="M111.078,59.37c-0.412,0.122-0.839,0.243-1.278,0.364C110.239,59.613,110.666,59.492,111.078,59.37"/>
		<path d="M108.903,59.97c-0.123,0.031-0.251,0.062-0.377,0.096C108.652,60.032,108.78,60.001,108.903,59.97"/>
		<path d="M84.907,62.153c0.008,0,0.014,0,0.021,0c-0.008,0-0.014,0-0.021-0.003V62.153z"/>
		<path d="M89.671,62.281v-0.003c-0.039,0-0.078,0-0.116,0C89.593,62.278,89.632,62.281,89.671,62.281"/>
		<path d="M88.616,62.275c-0.064-0.003-0.131-0.003-0.198-0.005C88.485,62.272,88.552,62.272,88.616,62.275"/>
		<path d="M96.271,62.023c-0.026,0.003-0.051,0.005-0.078,0.006C96.221,62.028,96.245,62.026,96.271,62.023"/>
		<path d="M94.634,62.137c-0.018,0.001-0.036,0.004-0.057,0.005C94.598,62.141,94.616,62.138,94.634,62.137"/>
		<path d="M95.46,62.084c-0.023,0-0.048,0.004-0.068,0.005C95.412,62.088,95.437,62.084,95.46,62.084"/>
		<path d="M93.769,62.182c0.013,0,0.021-0.003,0.03-0.003C93.79,62.179,93.781,62.179,93.769,62.182"/>
		<path d="M100.068,60.366c-0.018-0.008-0.757-0.38-0.757-0.38l-0.01-0.005l-0.012-0.007c-0.242-0.138-0.814-0.471-0.814-1.025
			c0.003-0.27,0.107-0.505,0.301-0.666c0.233-0.199,0.601-0.274,0.986-0.2c0.493,0.075,1.058,0.396,1.678,0.925
			c0.295-0.563,0.857-1.646,1.059-2.033c-0.71-0.585-1.398-0.903-2.425-1.082c-1.271-0.187-2.495,0.082-3.356,0.733
			c-0.723,0.555-1.174,1.368-1.294,2.351c-0.021,0.166-0.03,0.329-0.03,0.485c0,0.542,0.117,1.008,0.344,1.402
			c1.547-0.038,3.176-0.113,4.82-0.244C100.405,60.529,100.243,60.442,100.068,60.366"/>
		<path d="M111.65,56.278c-0.063,0.433-0.265,1.8-0.361,2.473c2.021-0.566,4.462-1.378,6.722-2.473
			C116.185,56.278,112.134,56.278,111.65,56.278"/>
		<path d="M112.71,58.86h0.005c-0.286,0.094-0.583,0.188-0.886,0.282c-0.062,0.019-0.123,0.038-0.186,0.056
			c-0.121,0.039-0.244,0.075-0.367,0.113c-0.066,0.019-0.13,0.039-0.198,0.059c-0.412,0.122-0.839,0.243-1.278,0.364
			c-0.08,0.019-0.164,0.042-0.248,0.067c-0.121,0.03-0.246,0.064-0.374,0.099c-0.093,0.023-0.183,0.045-0.274,0.069
			c-0.123,0.031-0.251,0.062-0.377,0.096c-0.115,0.028-0.23,0.056-0.342,0.084c-0.2,0.049-0.399,0.096-0.6,0.146
			c-0.117,0.025-0.233,0.054-0.35,0.077c-0.054,0.016-0.104,0.024-0.154,0.038c-0.004,0-0.004,0-0.004,0
			c-1.175,0.267-2.424,0.519-3.745,0.745c-0.03,0.005-0.061,0.008-0.093,0.016c-0.238,0.04-0.482,0.08-0.723,0.117
			c-0.062,0.01-0.122,0.02-0.18,0.027c-0.259,0.04-0.516,0.082-0.775,0.12c-0.02,0.003-0.039,0.004-0.059,0.007l0,0
			c-1.42,0.205-2.916,0.386-4.485,0.523c-0.01,0-0.017,0-0.024,0c-0.238,0.021-0.479,0.043-0.722,0.058
			c-0.026,0.003-0.051,0.005-0.078,0.006c-0.243,0.021-0.486,0.039-0.733,0.055c-0.023,0-0.048,0.004-0.068,0.005
			c-0.25,0.017-0.502,0.033-0.758,0.048c-0.018,0.001-0.036,0.004-0.057,0.005c-0.258,0.014-0.518,0.028-0.778,0.037
			c-0.009,0-0.018,0.003-0.03,0.003c-1.321,0.062-2.688,0.097-4.098,0.097v0.003c-0.039,0-0.078-0.003-0.116-0.003
			c-0.308,0-0.624-0.002-0.938-0.003c-0.064-0.003-0.131-0.003-0.198-0.005c-1.136-0.015-2.3-0.055-3.489-0.117
			c-0.008,0-0.014,0-0.021,0V62.15c-1.805-0.095-3.67-0.246-5.596-0.466l2.219-2.08c0,0,1.287,0.387,3.066,0.704
			c-0.34-2.008-0.635-3.773-0.683-4.031c-0.537,0-3.058,0-3.474,0c-0.201,0.433-4.165,9.368-4.635,10.391c0.812,0,2.402,0,2.787,0
			c0.149-0.348,1.086-2.582,1.086-2.582l2.902-0.003c0,0,0.283,2.174,0.346,2.585c0.494,0,2.088,0,2.747,0
			c-0.06-0.335-0.325-1.902-0.633-3.723c1.956,0.108,3.921,0.133,5.749,0.102c0.092,0.156,0.141,0.322,0.141,0.501
			c0,0.062-0.006,0.125-0.018,0.189c-0.039,0.236-0.16,0.429-0.352,0.559c-0.377,0.267-0.918,0.21-1.293,0.144
			c-0.891-0.155-1.592-0.828-2.16-1.386c-0.359,0.582-1.104,1.798-1.349,2.195c1.048,0.949,2.181,1.535,3.378,1.701
			c1.209,0.181,2.41-0.09,3.301-0.745c0.773-0.575,1.262-1.41,1.416-2.423c0.047-0.285,0.07-0.562,0.057-0.824
			c1.957-0.084,3.586-0.207,4.629-0.298c0.344,0.252,0.521,0.548,0.521,0.888c0,0.062-0.01,0.125-0.02,0.189
			c-0.039,0.236-0.164,0.429-0.352,0.559c-0.377,0.267-0.922,0.21-1.295,0.144c-0.889-0.155-1.596-0.828-2.156-1.386
			c-0.359,0.582-1.106,1.798-1.351,2.195c1.049,0.949,2.179,1.535,3.376,1.701c1.211,0.181,2.413-0.09,3.297-0.745
			c0.781-0.575,1.271-1.41,1.422-2.423c0.093-0.561,0.071-1.068-0.062-1.517c0.445-0.064,0.871-0.131,1.279-0.197
			c-0.312,2.181-0.603,4.222-0.66,4.6c0.776,0,6.113,0,6.712,0c0.063-0.457,0.236-1.66,0.319-2.242c-0.704,0-4.065,0-4.065,0
			l0.274-1.922c0,0,3.133,0,3.689,0c0.057-0.398,0.188-1.308,0.274-1.901c0.501-0.155,0.752-0.254,0.752-0.254
			s1.249-0.375,2.864-0.974c-0.232,1.63-0.943,6.604-1.042,7.293c0.645,0,2.421,0,2.903,0c0.09-0.613,1.121-7.808,1.121-7.808
			s1.625,0,2.105,0c0.062-0.447,0.262-1.875,0.354-2.521C117.714,56.945,115.651,57.896,112.71,58.86"/>
		<path d="M92.823,60.885c-0.254-0.194-0.546-0.367-0.883-0.519c-0.018-0.008-0.754-0.38-0.754-0.38l-0.014-0.005l-0.012-0.007
			c-0.244-0.138-0.812-0.471-0.812-1.025c0-0.27,0.106-0.505,0.298-0.666c0.241-0.199,0.601-0.274,0.989-0.2
			c0.49,0.075,1.059,0.396,1.676,0.925c0.295-0.563,0.859-1.646,1.06-2.033c-0.712-0.585-1.399-0.903-2.427-1.082
			c-1.27-0.187-2.497,0.082-3.354,0.733c-0.727,0.555-1.176,1.368-1.295,2.351c-0.021,0.166-0.029,0.329-0.029,0.485
			c0,0.457,0.082,0.864,0.244,1.219c0.061,0.004,0.121,0.006,0.18,0.01C88.993,60.79,90.772,60.872,92.823,60.885"/>
		<path d="M106.354,58.517c0,0,3.388,0,3.958,0c0.065-0.455,0.238-1.659,0.321-2.239c-0.776,0-6.01,0-6.601,0
			c-0.039,0.267-0.295,2.037-0.58,4.046c0.911-0.115,1.815-0.25,2.701-0.407L106.354,58.517z"/>
	</g>
</g>
</svg>
