<?xml version="1.0" encoding="utf-8"?>
<!-- Generator: Adobe Illustrator 16.0.3, SVG Export Plug-In . SVG Version: 6.00 Build 0)  -->
<!DOCTYPE svg PUBLIC "-//W3C//DTD SVG 1.1//EN" "http://www.w3.org/Graphics/SVG/1.1/DTD/svg11.dtd">
<svg version="1.1" id="Layer_2" xmlns="http://www.w3.org/2000/svg" xmlns:xlink="http://www.w3.org/1999/xlink" x="0px" y="0px"
	 width="160px" height="110px" viewBox="0 0 160 110" enable-background="new 0 0 160 110" xml:space="preserve">
<g>
	<g>
		<polygon fill="#020202" points="64.876,47.874 64.876,47.873 64.876,47.873 		"/>
		<path fill="#020202" d="M88.121,42.192c-2.389-3.004-3.479-6.22-3.94-8.039l-0.008-0.042l-0.002,0.007l-0.002-0.004l-0.011,0.035
			l-1.404,3.572h-0.002L80,44.717l-2.755-6.995l0,0l-1.404-3.569l-0.011-0.038l-0.001,0.005l-0.002-0.008l-0.009,0.044
			c-0.463,1.819-1.551,5.034-3.942,8.037c-2.421,3.041-5.321,4.813-7,5.681c1.928,1.534,6.058-1.464,8.479-4.505
			c1.057-1.328,1.861-2.698,2.468-3.971l2.461,6.256l0.003-0.001c0.223,0.572,0.459,1.12,0.698,1.642l-1.916,4.871h0.002
			c0.657,0.259,1.786-0.923,2.93-2.903c1.142,1.98,2.271,3.162,2.93,2.903h0.002l-1.917-4.871c0.241-0.521,0.476-1.069,0.699-1.642
			l0.001,0.001l2.462-6.256c0.607,1.272,1.409,2.643,2.468,3.971c2.421,3.041,6.55,6.039,8.477,4.505
			C93.444,47.006,90.543,45.233,88.121,42.192z"/>
		<polygon fill="#020202" points="95.121,47.873 95.121,47.873 95.123,47.874 		"/>
	</g>
	<g>
		<path fill="#020202" d="M110.751,63.773v2.71c0,0.715-0.282,3.049-3.896,3.049c-3.689,0-3.971-2.372-3.971-3.105
			c0-1.863,1.655-2.975,4.422-2.975c0.603,0,1.167,0.039,1.713,0.114c-0.061-1.237-0.416-1.971-1.544-2.191
			c-0.276-0.055-0.418-0.072-0.781-0.072c-1.073,0-2.14-0.223-2.6-0.578c-0.22-0.17-0.268-0.377-0.268-0.377
			c0.694-0.264,1.635-0.508,2.839-0.508C109.283,59.84,110.751,61.232,110.751,63.773z M109.02,64.939
			c-0.452-0.074-1.016-0.112-1.637-0.112c-0.81,0-2.786,0.245-2.786,1.581c0,1.071,0.771,1.6,2.259,1.6
			c1.431,0,2.164-0.509,2.164-1.544V64.939z"/>
		<path fill="#020202" d="M77.177,59.82c-2.203,0-3.935,0.942-4.008,0.979v3.671v0.072v4.984l0,0c0.948,0,1.717-2.225,1.731-4.984
			l0,0v-0.034c0-0.013,0-0.025,0-0.038l0,0l0,0V61.76c0.582-0.189,1.355-0.34,2.201-0.34c1.883,0,2.126,0.904,2.126,1.788v6.173
			h1.732v-6.06C80.96,61.139,79.549,59.82,77.177,59.82z"/>
		<path fill="#020202" d="M122.457,61.42v-1.58c-2.521,0-4.479,0.903-4.574,0.94v3.69v5.057h0.002c0.956,0,1.729-2.263,1.729-5.057
			l0,0l0,0v-2.656C120.35,61.628,121.345,61.439,122.457,61.42z"/>
		<path fill="#020202" d="M47.404,59.82c-1.487,0-2.747,0.434-3.445,0.716c-0.621-0.452-1.467-0.716-2.502-0.716
			c-1.995,0-3.575,0.771-3.914,0.942v3.708v0.038v5.019h0.001c0.951,0,1.722-2.243,1.73-5.019l0,0v-0.038l0,0v-2.729
			c0.563-0.149,1.28-0.283,2.053-0.283c1.918,0,2.163,0.903,2.163,1.788v6.135h1.73V63.34c0-0.509-0.075-0.979-0.226-1.392
			c0.545-0.227,1.449-0.528,2.521-0.528c1.695,0,1.939,0.924,1.939,1.807v6.154h1.713V63.34
			C51.168,61.139,49.774,59.82,47.404,59.82z"/>
		<path fill="#020202" d="M96.051,56.414c-0.811,0-1.495,1.558-1.726,3.704c-0.653-0.185-1.308-0.278-1.998-0.278
			c-1.958,0-4.31,0.828-4.31,4.724c0,4.327,2.596,4.969,4.159,4.969c3.594,0,3.876-2.334,3.876-3.049v-4.786v-5.283H96.051z
			 M94.341,66.597c0,0.94-0.734,1.411-2.164,1.411c-1.15,0-2.449-0.396-2.449-3.444c0-2.804,1.264-3.199,2.6-3.199
			c0.695,0,1.372,0.132,2.014,0.396V66.597z"/>
		<path fill="#020202" d="M66.577,59.992l-0.003-0.001c-0.875-0.33-2.366,1.475-3.332,4.031l-1.065,3.007l-2.521-7.038h-1.845
			l3.538,9.39c-0.339,1.036-0.941,2.165-1.882,2.165c-0.338,0-0.696-0.058-1.054-0.15v1.543c0.431,0.094,0.885,0.15,1.318,0.15
			c0.883,0,2.086-0.472,2.916-2.71l2.168-5.76l0.011,0.003L66.577,59.992z"/>
	</g>
</g>
</svg>
