<?xml version="1.0" encoding="utf-8"?>
<!-- Generator: Adobe Illustrator 16.0.3, SVG Export Plug-In . SVG Version: 6.00 Build 0)  -->
<!DOCTYPE svg PUBLIC "-//W3C//DTD SVG 1.1//EN" "http://www.w3.org/Graphics/SVG/1.1/DTD/svg11.dtd">
<svg version="1.1" id="Layer_2" xmlns="http://www.w3.org/2000/svg" xmlns:xlink="http://www.w3.org/1999/xlink" x="0px" y="0px"
	 width="160px" height="110px" viewBox="0 0 160 110" enable-background="new 0 0 160 110" xml:space="preserve">
<g>
	<polygon fill="#020202" points="126.794,48.077 126.794,47.147 126.447,47.147 126.447,47.022 127.284,47.022 127.284,47.147 
		126.934,47.147 126.934,48.077 	"/>
	<g>
		<path fill="#020202" d="M127.421,48.077v-1.055h0.21l0.251,0.747c0.021,0.069,0.039,0.122,0.05,0.156
			c0.013-0.038,0.03-0.095,0.056-0.169l0.252-0.734h0.189v1.055h-0.136v-0.883l-0.306,0.883h-0.126l-0.305-0.897v0.897H127.421z"/>
		<path fill="#020202" d="M54.418,52.824c-1.499,0-2.743,0.512-3.804,1.566c-1.061,1.052-1.575,2.292-1.575,3.791v5.057h2.157
			v-5.057c0-0.885,0.32-1.647,0.95-2.269c0.628-0.618,1.396-0.932,2.282-0.932c0.872,0,1.633,0.318,2.262,0.944
			c0.63,0.628,0.947,1.386,0.947,2.256v5.057h2.158v-5.057c0-1.499-0.515-2.738-1.574-3.791
			C57.162,53.336,55.917,52.824,54.418,52.824"/>
		<path fill="#020202" d="M91.093,60.456c-0.619,0.628-1.383,0.945-2.268,0.945s-1.649-0.316-2.276-0.942
			c-0.628-0.628-0.946-1.395-0.946-2.277c0-0.885,0.318-1.647,0.948-2.269c0.626-0.618,1.392-0.932,2.274-0.932
			c0.869,0,1.629,0.318,2.255,0.945c0.628,0.626,0.945,1.385,0.945,2.255C92.026,59.064,91.712,59.83,91.093,60.456 M92.618,54.389
			c-1.052-1.054-2.294-1.565-3.792-1.565c-1.499,0-2.743,0.512-3.803,1.566c-1.061,1.052-1.576,2.293-1.576,3.791
			c0,1.513,0.513,2.761,1.565,3.813s2.301,1.565,3.813,1.565c1.498,0,2.739-0.516,3.792-1.575c1.052-1.06,1.565-2.305,1.565-3.804
			C94.183,56.681,93.669,55.441,92.618,54.389"/>
	</g>
	<rect x="94.831" y="47.013" fill="#020202" width="2.157" height="16.225"/>
	<g>
		<path fill="#020202" d="M105.494,57.241h-4.997h-0.608l0.281-0.538c0.595-1.143,1.549-1.722,2.836-1.722
			c1.273,0,2.219,0.579,2.814,1.721l0.281,0.539H105.494z M103.005,52.845c-1.5,0-2.743,0.511-3.804,1.562
			c-1.062,1.051-1.575,2.288-1.575,3.784c0,1.51,0.512,2.756,1.564,3.806c1.054,1.051,2.301,1.562,3.814,1.562
			c1.32,0,2.445-0.407,3.428-1.244l-1.293-1.719c-0.591,0.549-1.306,0.828-2.135,0.828c-0.707,0-1.35-0.211-1.914-0.625
			c-0.561-0.415-0.953-0.971-1.162-1.652l-0.145-0.477h0.498h8.058c0.015-0.164,0.022-0.325,0.022-0.486
			c0-1.495-0.512-2.729-1.564-3.778C105.746,53.355,104.505,52.845,103.005,52.845"/>
		<path fill="#020202" d="M116.268,60.509c-0.626,0.621-1.394,0.937-2.275,0.937c-0.662,0-1.275-0.198-1.821-0.586
			c-0.914-0.627-1.379-1.511-1.379-2.625c0-0.662,0.193-1.28,0.578-1.844c0.613-0.907,1.496-1.366,2.622-1.366
			c0.672,0,1.29,0.188,1.837,0.558c0.92,0.648,1.384,1.539,1.384,2.652C117.213,59.122,116.896,59.887,116.268,60.509
			 M119.049,56.398c-0.386-1.066-1.045-1.934-1.958-2.58c-0.91-0.645-1.946-0.973-3.078-0.973c-0.61,0-1.23,0.115-1.845,0.342
			c-1.067,0.387-1.933,1.045-2.571,1.957c-0.639,0.911-0.962,1.947-0.962,3.08c0,0.639,0.107,1.253,0.319,1.822
			c0.387,1.068,1.046,1.934,1.958,2.571c0.911,0.64,1.949,0.963,3.081,0.963c1.676,0,3.014-0.617,4.096-1.886l0.41-0.484
			l0.217,0.598l0.52,1.43h2.295L119.049,56.398z"/>
		<path fill="#020202" d="M122.817,63.238v-3.898v-0.37h0.368h2.484v-1.729h-2.484h-0.368v-0.368v-4.494
			c0-0.882,0.318-1.646,0.944-2.273c0.538-0.535,1.178-0.846,1.908-0.922v-2.161c-1.35,0.078-2.479,0.588-3.445,1.554
			c-1.053,1.051-1.564,2.298-1.564,3.808v7.372l1.262,3.482H122.817z"/>
		<path fill="#020202" d="M67.81,60.509c-0.627,0.621-1.393,0.937-2.276,0.937c-0.661,0-1.274-0.198-1.822-0.586
			c-0.913-0.627-1.377-1.511-1.377-2.625c0-0.662,0.194-1.282,0.578-1.845c0.613-0.906,1.495-1.365,2.621-1.365
			c0.673,0,1.29,0.188,1.837,0.558c0.92,0.648,1.385,1.539,1.385,2.652C68.755,59.122,68.437,59.887,67.81,60.509 M70.591,56.398
			c-0.388-1.066-1.046-1.935-1.957-2.58c-0.912-0.645-1.948-0.973-3.08-0.973c-0.61,0-1.23,0.115-1.844,0.342
			c-1.068,0.387-1.933,1.045-2.572,1.957c-0.638,0.911-0.961,1.947-0.961,3.08c0,0.639,0.107,1.253,0.319,1.822
			c0.388,1.068,1.046,1.934,1.956,2.571c0.912,0.64,1.95,0.963,3.083,0.963c1.675,0,3.015-0.617,4.095-1.886l0.41-0.484l0.217,0.598
			l0.52,1.43h2.295L70.591,56.398z"/>
		<path fill="#020202" d="M74.388,63.238v-5.057c0-0.885,0.318-1.647,0.949-2.269c0.63-0.618,1.397-0.932,2.283-0.932
			c0.872,0,1.633,0.318,2.262,0.944c0.629,0.628,0.949,1.387,0.949,2.256v5.057h2.156v-5.057c0-1.499-0.514-2.738-1.574-3.791
			c-1.061-1.055-2.304-1.566-3.804-1.566c-1.499,0-2.744,0.512-3.804,1.566c-1.061,1.052-1.575,2.292-1.575,3.791v1.657l1.232,3.399
			H74.388z"/>
		<path fill="#020202" d="M41.8,55.504c0.487,0.772,1.414,1.074,2.072,0.673c0.658-0.4,0.797-1.352,0.311-2.125
			c-0.484-0.773-1.414-1.073-2.071-0.673C41.455,53.781,41.314,54.732,41.8,55.504 M37.477,58.137
			c0.487,0.773,1.415,1.075,2.071,0.674c0.658-0.4,0.797-1.353,0.312-2.125c-0.485-0.773-1.414-1.073-2.071-0.673
			S36.992,57.365,37.477,58.137 M37.243,53.013c0.487,0.773,1.415,1.075,2.071,0.674c0.658-0.4,0.797-1.353,0.311-2.125
			c-0.484-0.773-1.413-1.074-2.07-0.674C36.897,51.291,36.757,52.242,37.243,53.013 M45.415,63.506
			c-0.958,0.473-0.958-2.391-1.653-1.871c-3.107,2.034-3.373,1.525-4.624,1.092c-1.667-0.493-5.681-2.128-6.953-4.705
			c-1.245-3.229-0.238-8.105-0.062-8.833c0.508-2.093,1.76-2.466,2.734-2.679c3.622-0.532,9.119,1.408,10.225,2.385
			c1.433,1.19,3.097,8.175,2.451,10.23c-0.216,0.657-2.389,1.242-2.627,1.73C44.488,61.433,46.457,63.065,45.415,63.506"/>
	</g>
</g>
</svg>
