<?xml version="1.0" encoding="utf-8"?>
<!-- Generator: Adobe Illustrator 16.0.3, SVG Export Plug-In . SVG Version: 6.00 Build 0)  -->
<!DOCTYPE svg PUBLIC "-//W3C//DTD SVG 1.1//EN" "http://www.w3.org/Graphics/SVG/1.1/DTD/svg11.dtd">
<svg version="1.1" id="Layer_2" xmlns="http://www.w3.org/2000/svg" xmlns:xlink="http://www.w3.org/1999/xlink" x="0px" y="0px"
	 width="160px" height="110px" viewBox="0 0 160 110" enable-background="new 0 0 160 110" xml:space="preserve">
<g>
	<path d="M41.711,52.842c0-0.546,0.186-0.7,0.629-0.7c0,0,0.897,0,1.34,0c0.443,0,0.63,0.154,0.63,0.7c0,0.549,0,6.609,0,7.629
		c0,1.425,0.961,3.474,3.278,3.474c1.451,0,4.747,0,4.747,0v-2.335c0,0-3.169,0-3.892,0c-1.068,0-1.316-0.665-1.316-1.339
		c0-1.131,0-7.381,0-8.534c0-1.245-0.558-1.836-1.748-1.836c-1.19,0-3.517,0-4.769,0c-1.255,0-1.716,0.715-1.716,1.809
		c0,1.094,0,7.575,0,8.5c0,0.871-0.286,1.404-1.402,1.404c-0.932,0-3.955,0-4.842,0c-0.882,0-1.352-0.387-1.352-1.396
		c0-0.925,0-13.142,0-13.142h2.391v11.722h2.816c0,0,0-8.371,0-9.523c0-1.216,0.929-2.188,2.156-2.188c1.248,0,7.583,0,8.723,0
		c1.202,0,2.133,1.043,2.133,2.079c0,1.427,0,9.631,0,9.631h2.816c0,0,0-9.247,0-10.489c0-1.822-1.303-3.466-3.276-3.466
		c-1.768,0-20.571,0-20.571,0s0,14.034,0,15.533c0,1.608,0.961,3.567,3.383,3.567c1.798,0,4.488,0,6.483,0
		c2.009,0,3.356-1.508,3.356-3.574C41.709,58.238,41.711,52.842,41.711,52.842"/>
	<g>
		<g>
			<path d="M58.064,63.939v-4.751h0.681l1.515,2.394c0.345,0.557,0.621,1.058,0.846,1.549l0.016-0.008
				c-0.056-0.635-0.067-1.215-0.067-1.953v-1.982h0.581v4.751h-0.627l-1.503-2.402c-0.326-0.533-0.646-1.077-0.883-1.594
				l-0.02,0.007c0.036,0.604,0.044,1.178,0.044,1.965v2.025H58.064"/>
			<path d="M63.037,61.896c0.049-0.43,0.318-1,0.949-1c0.694,0,0.86,0.611,0.854,1H63.037z M65.423,62.351
				c0.014-0.074,0.023-0.167,0.023-0.296c0-0.631-0.295-1.605-1.411-1.605c-0.998,0-1.604,0.808-1.604,1.839
				c0,1.02,0.628,1.716,1.678,1.716c0.542,0,0.921-0.118,1.141-0.216l-0.107-0.444c-0.232,0.095-0.504,0.174-0.948,0.174
				c-0.622,0-1.153-0.343-1.166-1.173L65.423,62.351"/>
			<path d="M66.462,60.532l0.455,1.724c0.099,0.38,0.184,0.734,0.254,1.089h0.017c0.074-0.346,0.188-0.715,0.304-1.083l0.554-1.729
				h0.527l0.528,1.698c0.119,0.403,0.221,0.765,0.301,1.114h0.016c0.062-0.348,0.153-0.707,0.264-1.109l0.484-1.703h0.616
				l-1.1,3.407h-0.568l-0.518-1.623c-0.122-0.381-0.219-0.722-0.3-1.123h-0.014c-0.086,0.411-0.192,0.765-0.312,1.127l-0.545,1.618
				h-0.573l-1.028-3.407H66.462"/>
			<path d="M73.442,63.939l-1.203-4.751h0.655l0.564,2.401c0.137,0.595,0.264,1.184,0.348,1.646h0.016
				c0.077-0.475,0.227-1.041,0.384-1.652l0.637-2.395h0.643l0.578,2.406c0.13,0.569,0.259,1.13,0.333,1.63h0.016
				c0.095-0.52,0.225-1.052,0.374-1.643l0.625-2.393h0.636L76.7,63.939h-0.646l-0.596-2.464c-0.15-0.613-0.249-1.074-0.313-1.556
				h-0.013c-0.08,0.478-0.19,0.941-0.365,1.555l-0.671,2.465H73.442"/>
			<path d="M79.776,63.548c-0.594,0-1.021-0.56-1.021-1.305c0-0.642,0.315-1.317,1.04-1.317c0.733,0,1.023,0.725,1.023,1.3
				c0,0.769-0.442,1.322-1.034,1.322H79.776z M79.772,64.018c0.813,0,1.69-0.554,1.69-1.813c0-1.036-0.664-1.75-1.644-1.75
				c-0.943,0-1.694,0.669-1.694,1.808c0,1.08,0.715,1.755,1.64,1.755H79.772"/>
			<path d="M82.249,61.596c0-0.404-0.011-0.747-0.029-1.063h0.549l0.024,0.67h0.022c0.158-0.458,0.535-0.747,0.95-0.747
				c0.067,0,0.117,0.005,0.173,0.016v0.592c-0.07-0.014-0.134-0.019-0.22-0.019c-0.436,0-0.745,0.328-0.829,0.79
				c-0.014,0.086-0.024,0.188-0.024,0.289v1.817H82.24L82.249,61.596"/>
			<rect x="84.578" y="58.936" width="0.621" height="5.003"/>
			<path d="M88.558,62.507c0,0.098-0.007,0.185-0.029,0.267c-0.115,0.465-0.49,0.742-0.904,0.742c-0.665,0-1.01-0.573-1.01-1.264
				c0-0.748,0.382-1.31,1.024-1.31c0.465,0,0.8,0.322,0.894,0.711c0.02,0.082,0.026,0.185,0.026,0.265V62.507z M88.558,58.936v2.031
				h-0.013c-0.153-0.27-0.504-0.512-1.028-0.512c-0.829,0-1.536,0.689-1.53,1.83c0,1.036,0.636,1.733,1.463,1.733
				c0.555,0,0.964-0.284,1.155-0.665h0.017l0.032,0.586h0.556c-0.017-0.234-0.028-0.576-0.028-0.88v-4.123H88.558"/>
			<path d="M92.348,59.706c0.163-0.033,0.399-0.062,0.715-0.062c1.288,0,1.921,0.692,1.913,1.824c0,1.282-0.707,2.013-2.015,2.009
				c-0.233,0-0.458-0.004-0.614-0.028V59.706z M91.726,63.933c0.312,0.029,0.677,0.047,1.116,0.047c0.919,0,1.654-0.243,2.102-0.687
				c0.441-0.438,0.686-1.068,0.686-1.847c0-0.767-0.249-1.323-0.675-1.708c-0.415-0.388-1.043-0.589-1.922-0.589
				c-0.482,0-0.929,0.041-1.307,0.103V63.933"/>
			<path d="M96.804,61.896c0.049-0.43,0.317-1,0.949-1c0.695,0,0.859,0.611,0.854,1H96.804z M99.19,62.351
				c0.013-0.074,0.021-0.167,0.021-0.296c0-0.631-0.295-1.605-1.41-1.605c-0.998,0-1.604,0.808-1.604,1.839
				c0,1.02,0.629,1.716,1.68,1.716c0.542,0,0.923-0.118,1.142-0.216l-0.11-0.444c-0.23,0.095-0.502,0.174-0.946,0.174
				c-0.621,0-1.152-0.343-1.165-1.173L99.19,62.351"/>
			<path d="M100.214,60.532l0.666,1.907c0.115,0.316,0.203,0.598,0.278,0.881h0.018c0.079-0.284,0.176-0.568,0.285-0.881
				l0.665-1.907h0.655l-1.341,3.407h-0.598l-1.295-3.407H100.214"/>
			<path d="M103.646,61.896c0.05-0.43,0.318-1,0.951-1c0.693,0,0.859,0.611,0.852,1H103.646z M106.034,62.351
				c0.012-0.074,0.021-0.167,0.021-0.296c0-0.631-0.294-1.605-1.409-1.605c-1,0-1.604,0.808-1.604,1.839
				c0,1.02,0.628,1.716,1.679,1.716c0.541,0,0.921-0.118,1.141-0.216l-0.11-0.444c-0.232,0.095-0.503,0.174-0.945,0.174
				c-0.623,0-1.154-0.343-1.168-1.173L106.034,62.351"/>
			<rect x="106.82" y="58.936" width="0.624" height="5.003"/>
			<path d="M109.88,63.548c-0.594,0-1.021-0.56-1.021-1.305c0-0.642,0.315-1.317,1.04-1.317c0.733,0,1.023,0.725,1.023,1.3
				c0,0.769-0.442,1.322-1.035,1.322H109.88z M109.877,64.018c0.812,0,1.688-0.554,1.688-1.813c0-1.036-0.66-1.75-1.641-1.75
				c-0.945,0-1.694,0.669-1.694,1.808c0,1.08,0.715,1.755,1.639,1.755H109.877"/>
			<path d="M112.967,61.966c0-0.082,0.02-0.172,0.039-0.251c0.117-0.466,0.515-0.764,0.936-0.764c0.654,0,1.008,0.584,1.008,1.262
				c0,0.78-0.377,1.319-1.033,1.319c-0.439,0-0.813-0.293-0.924-0.727c-0.017-0.077-0.026-0.163-0.026-0.25V61.966z M112.346,65.342
				h0.622v-1.856h0.015c0.203,0.337,0.593,0.534,1.049,0.534c0.796,0,1.548-0.604,1.548-1.835c0-1.036-0.622-1.729-1.446-1.729
				c-0.553,0-0.962,0.241-1.209,0.656h-0.013l-0.036-0.579h-0.56c0.018,0.322,0.03,0.677,0.03,1.113V65.342"/>
			<path d="M116.364,61.457c0-0.357-0.011-0.641-0.029-0.924h0.545l0.033,0.548h0.017c0.189-0.323,0.507-0.625,1.075-0.625
				c0.461,0,0.814,0.28,0.961,0.682h0.014c0.111-0.194,0.244-0.34,0.388-0.443c0.206-0.154,0.427-0.238,0.748-0.238
				c0.457,0,1.125,0.295,1.125,1.479v2.006h-0.61v-1.925c0-0.659-0.243-1.048-0.736-1.048c-0.354,0-0.625,0.258-0.735,0.556
				c-0.029,0.09-0.05,0.201-0.05,0.31v2.107h-0.613v-2.042c0-0.542-0.239-0.931-0.705-0.931c-0.385,0-0.666,0.306-0.769,0.617
				c-0.029,0.089-0.047,0.198-0.047,0.304v2.053h-0.611V61.457"/>
			<path d="M122.61,61.896c0.048-0.43,0.32-1,0.95-1c0.693,0,0.86,0.611,0.853,1H122.61z M124.997,62.351
				c0.013-0.074,0.019-0.167,0.019-0.296c0-0.631-0.291-1.605-1.406-1.605c-1,0-1.605,0.808-1.605,1.839
				c0,1.02,0.629,1.716,1.678,1.716c0.542,0,0.923-0.118,1.142-0.216l-0.11-0.444c-0.231,0.095-0.501,0.174-0.946,0.174
				c-0.622,0-1.152-0.343-1.165-1.173L124.997,62.351"/>
			<path d="M125.784,61.457c0-0.357-0.011-0.641-0.027-0.924h0.551l0.034,0.559h0.019c0.168-0.319,0.565-0.636,1.132-0.636
				c0.472,0,1.205,0.283,1.205,1.451v2.033h-0.623v-1.964c0-0.549-0.208-1.009-0.788-1.009c-0.409,0-0.726,0.288-0.835,0.634
				c-0.027,0.075-0.045,0.185-0.045,0.286v2.053h-0.622V61.457"/>
			<path d="M130.43,59.714v0.818h0.889v0.474h-0.889v1.824c0,0.424,0.123,0.663,0.469,0.663c0.165,0,0.265-0.016,0.358-0.045
				l0.029,0.477c-0.122,0.047-0.314,0.086-0.558,0.086c-0.284,0-0.522-0.094-0.671-0.263c-0.171-0.189-0.239-0.49-0.239-0.89v-1.852
				h-0.528v-0.474h0.528v-0.631L130.43,59.714"/>
		</g>
		<g>
			<path d="M98.202,45.443c0.359,0.827-0.077,3.011-1.315,3.849c0.229,0.875,3.91,1.515,3.849,2.249
				c-0.042,0.512-0.989,0.69-1.635,0.617c-0.982-0.111-1.905-0.684-2.214-1.092c-0.309-0.41,0.02,3.163-0.057,4.591
				c-0.268,0.477-0.725,0.705-1.24,0.687c-0.228,0-0.456-0.172-0.551-0.4c-0.077-0.438,0.239-0.899,0.286-1.314
				c0.047-0.418-0.115-2.821,0-4.174c0.17-0.438,0.578-0.395,0.876-0.344l-0.611-0.818c-0.787-0.143-1.883-0.042-2.531,0.192
				c0.417,0.38,0.037,0.914,0.055,1.37c1.143,0.687,1.226,2.246,0.972,3.087s-0.553,1.221-1.24,1.373
				c-0.227,0.018-0.495,0-0.476-0.268c0.021-0.477,0.43-0.863,0.493-1.254c0.064-0.39,0.094-2.267-0.117-2.038
				c-0.471,0.505-2.478,2.662-3.061,2.187c-0.287-0.232,2.389-2.365,2.734-4.667c-0.486-1.22-1.032-3.7-0.793-3.938
				c0.237-0.239,0.977-0.378,1.234-0.236C95.32,44.628,97.696,44.28,98.202,45.443z M95.172,45.303
				c-0.402,0.048-0.617,0.35-0.596,0.751c0.085,0.439,0.979,0.278,0.983,0.621c0.002,0.343-0.595,0.374-0.803,0.597
				c-0.164,0.176-0.106,0.842,0.042,0.917c0.399,0.038,0.881-0.047,1.036-0.446c0.217-0.811,0.357-1.955,0.312-2.268
				C96.103,45.16,95.574,45.256,95.172,45.303z M92.662,46.113c0.133,0.782,0.015,1.694,0.453,2.341c0,0,0.461-0.122,0.5-0.24
				c0.028-0.073-0.002-0.758-0.028-0.971c-0.029-0.226-0.36-0.142-0.377-0.304c-0.023-0.227,0.455-0.366,0.248-0.885
				C93.249,45.882,92.853,45.866,92.662,46.113"/>
			<path d="M83.055,45.849c0.001,0.362-0.114,1.911-0.151,2.204c0.698,0.024,1.538-0.175,1.9,0.529
				c0.189,0.381-0.305,0.648-0.552,0.745c-0.267,0.123-1.083,0.069-1.614,0.107c-0.378,1.24-0.877,2.472-1.384,2.905
				c-0.503,0.434-2.229,0.638-2.414,0.238c-0.217-0.467-0.452-1.742-0.53-2.6c-0.267-0.11-1.062,0.023-1.372,0.169
				c0.097,0.484,0.326,2.345,0.477,3.452c0.038,0.342,0.373,0.333,0.61,0.284c1.082-0.218,4.13-0.4,4.394-0.169
				c0.26,0.227,0.408,0.868-0.021,1.103c-0.455,0.25-3.339-0.117-4.648,0.451c-0.467,0.203-0.77,0.231-1.082-0.309
				c-0.425-0.737-0.872-2.601-1.043-4.295l-0.132-0.153c-0.572,0.224-0.935,0.875-1.581,0.629c-0.419-0.21-0.575-0.648-0.744-1.031
				c-0.116-0.436,0.133-0.96,0.572-0.875c0.438,0.086,1.031-0.133,1.543-0.287c0.209-0.838-0.458-1.98,0.418-2.552
				c0.38-0.02,0.685,0.114,0.952,0.343c0.458,0.475,0.263,1.275,0.319,1.886c0.386,0.01,0.806-0.078,1.132-0.229
				c0.011-1.158-0.128-2.527,0.246-2.611c0.589-0.132,1.328,0.624,1.328,0.853c0,0.23-0.072,1.072-0.072,1.683
				c0.577-0.011,1.278-0.091,1.658-0.211c0-0.208-0.039-2.742,0.533-2.933C82.298,45.01,83.055,45.587,83.055,45.849z
				 M79.606,49.825l0.134,1.658c0.286,0,0.59,0.019,0.839-0.077c0.324-0.535,0.285-1.201,0.475-1.771
				C80.596,49.597,80.065,49.654,79.606,49.825"/>
			<path d="M129.543,46.055c0.076,0.951-1.421,0.984-1.209,1.521c0.166,0.383,1.543,0.893,1.627,1.164
				c0.087,0.273-0.132,0.515-0.342,0.61c-0.629,0-1.574,0.662-1.457,0.938c0.194,0.463,1.944-0.532,2.062,0.163
				c0.182,1.062-1.312,0.263-1.577,1.509c-0.075,0.35-0.438,0.496-0.342,0.895c0.78,1.221,2.766,1.655,2.949,1.878
				c0.89,1.09-0.744,1.225-1.369,1.21c-1.026-0.023-2.018-1.544-2.875-2.478c-0.397,0.019-0.595-0.068-0.371-0.471
				c-0.063-0.312-0.229-0.986-0.55-1.035c-0.228-0.018-0.436,0.096-0.55,0.305c-0.144,0.924-0.109,1.601-0.531,2.305
				c0.33,0.361,1.034-0.353,1.183,0.344c-0.251,0.742-1.917,1.466-2.267,1.294c-0.354-0.17-0.459-0.572-0.025-0.949
				c0.182-0.154,0.594-0.326,0.544-0.624c0.125-0.56-0.092-1.335-0.067-1.94c-0.116-0.25-0.299-0.506-0.319-0.812
				c0.02-0.42,0.5-0.416,0.687-0.476c0.186-0.062,1.161-0.137,1.136-0.482c-0.022-0.342-0.013-0.642-0.317-0.815
				c-0.304,0.038-0.691,0.011-0.819-0.208c-0.589,0.418-0.667,1.47-1.015,2.004c-0.348,0.535-1.329,2.338-2.625,2.93
				c-0.304-0.228,0-0.553,0-0.821c1.01-2.361,2.516-4.591,2.401-7.334c-0.005-0.337,0.019-0.59,0.343-0.762
				c1.467,0.02,2.973-0.247,4.401-0.552C128.762,45.368,129.314,45.595,129.543,46.055z M127.353,45.92
				c-0.746,0.342-1.591,0.671-2.24,0.934c-0.133,0.23-0.182,0.805,0.02,0.814c0.214,0.011,1.494-0.355,2.277-0.49
				c0.323-0.153,0.36-0.621,0.437-0.924C127.829,46.043,127.562,45.882,127.353,45.92z M126.96,48.062
				c-0.533,0.114-0.49,0.283-0.372,0.749c0.124,0.485,0.795,0.31,1.068-0.066C127.929,48.368,127.495,47.949,126.96,48.062z
				 M124.937,48.43c-0.267,0.285-0.324,0.695-0.344,1.077c0,0,0.329,0.09,0.581-0.023c0.255-0.115,0.335-0.462,0.354-0.658
				C125.548,48.63,125.167,48.43,124.937,48.43z M126.838,49.588c-0.362,0.189-0.371,0.699-0.429,1.099
				c0.019,0.249,0.466,0.197,0.619,0.135c0.271-0.313,0.553-0.743,0.455-1.087C127.404,49.473,127.067,49.569,126.838,49.588"/>
			<path d="M67.052,45.712c0.114,0.437-0.133,0.78-0.478,0.97c-0.647,0.209-1.713,0.566-2.034,0.375
				c-0.396-0.236,0.636-1.571,1.349-1.958C66.422,44.949,66.804,45.349,67.052,45.712"/>
			<path d="M62.955,46.181c0.795,0.477-0.154,0.71-0.208,0.978c0.208,0.29,0.637,0.479,0.461,0.975
				c-0.081,0.223-0.35,0.557-0.398,0.742c0.032,0.25,0.013,0.428-0.159,0.632c-0.184,0.218-0.553,0.384-0.764,0.441
				c-0.23,0.062-0.188,0.343-0.074,0.572c0.39,0.047,0.933-0.086,1.05,0.357c0.071,0.263-0.403,0.391-0.631,0.643
				c-0.028,0.188-0.092,0.438-0.039,0.647c0.39,0.153,0.967,0.305,1.295,0.134c0.309-0.181,0.291-0.697,0.286-0.982
				c-0.006-0.286-0.109-2.533-0.154-2.79c-0.042-0.258-0.018-0.615,0.286-0.686c0.722-0.168,0.604,0.942,1.378,0.867
				c0.995-0.097,2.113-0.664,2.597-0.683c0.484-0.018,0.912,0.387,0.96,0.768c0.047,0.382-0.244,0.762-0.513,0.786
				c-0.271,0.024-1.088,0.072-1.62,0.243c-0.267,0.322,0.128,0.71,0.186,1.054c0.496,1.504,0.41,4.043,0.356,4.482
				c-0.052,0.438-0.399,0.867-0.809,1.056c-0.41,0.191-0.895,0.309-1.057-0.546c-0.063-0.333,0.237-0.87,0.296-1.624
				c0.027-1.315-0.053-3.002-0.134-4.08c-0.153-0.15-0.287-0.342-0.553-0.265c-0.192,0.456-0.196,1.766-0.378,2.438
				c-0.18,0.671-0.477,2.144-0.947,2.073c-0.281-0.045-0.999-0.949-1.419-1.35c0.01,0.507,0.072,1.564-0.181,2.007
				c-0.207,0.362-0.963,0.733-1.285,0.6c-0.325-0.134-0.362-0.601-0.651-0.81c-0.931-0.339-1.312-0.796-0.712-1.873
				c-0.019-0.151,0.01-0.359-0.105-0.476c-0.457,0.038-0.719,0.548-1.213,0.471c-0.287-0.17-0.387-0.528-0.445-0.814
				c0.058-0.343,0.559-0.667,0.9-0.629c0.611-0.195,1.306-0.419,2.01-0.624c0.058-0.171-0.01-0.324-0.09-0.438
				c-0.496-0.076-0.771,0.59-1.276,0.228c-0.398-0.284-0.449-0.637-0.277-0.905c0.382-0.172,0.98-0.258,1.062-0.422
				c0.039-0.328-0.033-0.939-0.471-1.228c-0.571-0.375-0.766-1.078-0.48-1.242c0.398-0.226,1.306-0.458,1.97-0.46
				c0.094-0.188,0.026-0.41-0.051-0.62c-0.114-0.096-0.212-0.711,0.595-0.686C62.495,45.174,62.747,46.056,62.955,46.181z
				 M61.383,47.449c-0.209,0.039-0.657,0.166-0.562,0.604c0.162,0.42,0.138,0.968,0.709,0.814c0.229-0.344,0.43-0.748,0.446-1.186
				C62.054,47.339,61.593,47.41,61.383,47.449z M60.136,52.169c-0.134,0.19-0.496,0.095-0.477,0.343
				c0.858,0.381,0.609,1.315,0.539,2.034c0,0,0.2,0.147,0.458,0.009c0.336-0.18,0.257-1.662,0.167-2.225
				C60.688,52.007,60.365,52.207,60.136,52.169"/>
			<path d="M110.261,45.863c0.067,0.219-0.454,1.618-0.764,2.558c0.31,0.176,0.668,0.338,0.918,0.586
				c0.266,0.818-0.458,1.182-0.687,1.79c-0.421,0.209-0.916,0.19-1.24,0.61c-0.189,0.916,1.202,0.706,1.24,1.505
				c0.037,1.01,0.323,2.325-0.763,2.896c-0.361,0.134-0.705,0.324-1.104,0.343c-0.362-0.173-0.67-0.836-0.531-1.039
				c0.139-0.203,0.798-0.009,0.95-0.543c0.227-0.495,0.263-1.288,0.093-1.808c-0.286-0.113-0.679,0.188-0.888,0.022
				c-0.276-0.269,0.314-1.318-0.026-1.644c-0.646,0.483-1.991,1.487-2.133,0.952c-0.143-0.534,2.353-2.588,2.391-3.314
				c0.029-0.542-1.039-0.443-1.285-1.203c-0.136-0.247-0.306-0.551-0.136-0.836c0.115-0.058,0.172-0.269,0.344-0.193
				c0.362,0.325,0.935,0.153,1.221,0.688c0.133,0.094,0.227,0.266,0.419,0.189c0.132-0.284,0.418-0.61,0.208-0.953
				c-0.304-0.209-0.286-0.608-0.208-0.894c0.475-0.345,1.382-0.233,1.58-0.135C110.058,45.543,110.196,45.644,110.261,45.863z
				 M108.821,49.645c-0.222,0.057-0.43,0.405-0.264,0.541c0.184,0.151,0.727-0.153,0.613-0.4
				C109.113,49.67,109.042,49.588,108.821,49.645"/>
			<path d="M112.948,45.521c-0.021,0.342-0.134,0.684-0.476,0.817c-0.171,0.058-0.439,0.114-0.496,0.343
				c0.039,0.19,0.133,0.42,0.344,0.478c1.18,0.037,1.028-2.078,2.401-1.296c0.246,0.209,0.419,0.628,0.15,0.876
				c-0.364,0.578-1.109,0.419-1.704,0.863c0.096,0.856,1.078,0.94,1.628,1.194c0.549,0.254,2.349,0.524,1.981,1.239
				c-0.333,0.645-1.504,0.875-2.323,0.553c-0.534-0.306-1.283-0.674-1.912-0.312c-0.268,0.19-0.566,0.407-0.415,0.788
				c0.344,0.476,1.602-0.173,1.03,0.818c-0.554,0.532-0.038,1.525-0.554,2.058c0.495,1.125,2.735,0.915,2.326,1.791
				c-0.188,0.4-0.668,0.419-1.029,0.554c-0.913-0.172-2.007-0.781-2.4-1.372c-0.169,0.032-0.687,0-0.687,0
				c-0.019-0.286,0.255-0.742,0.045-1.122c-0.134-0.628-0.866-1.185-0.387-1.909c0.191-0.19,0.456-0.343,0.342-0.686
				c-0.171-0.153-0.309-0.385-0.25-0.613c0.4-0.188,1.203,0.233,1.223-0.474c-0.116-0.266-0.4-0.093-0.552-0.208
				c-0.135,0.018-0.287,0.265-0.42,0.076c-0.191-0.324-0.061-0.747,0.077-0.971c0.136-0.226,0.643-0.185,0.91-0.088
				c0.077,0.114,0.175,0.183,0.327,0.163c0.116-0.075,0.039-0.228,0.059-0.342c-0.112-0.361-0.88-1.153-1.478-1.689
				c-0.231-0.414,0.239-0.883,0.54-1.203c0.301-0.32,0.653-0.974,1.281-0.748C112.641,45.29,112.912,45.29,112.948,45.521z
				 M111.41,52.371c-0.046,0.299-0.082,0.624,0.268,0.605c0.35-0.02,0.22-0.367,0.213-0.519
				C111.884,52.311,111.563,52.371,111.41,52.371"/>
		</g>
	</g>
</g>
</svg>
