<?xml version="1.0" encoding="utf-8"?>
<!-- Generator: Adobe Illustrator 16.0.3, SVG Export Plug-In . SVG Version: 6.00 Build 0)  -->
<!DOCTYPE svg PUBLIC "-//W3C//DTD SVG 1.1//EN" "http://www.w3.org/Graphics/SVG/1.1/DTD/svg11.dtd">
<svg version="1.1" id="Layer_2" xmlns="http://www.w3.org/2000/svg" xmlns:xlink="http://www.w3.org/1999/xlink" x="0px" y="0px"
	 width="160px" height="110px" viewBox="0 0 160 110" enable-background="new 0 0 160 110" xml:space="preserve">
<g>
	<g>
		<g>
			<path d="M66.658,44.888v22.398l7.442-9.236V37.503L66.658,44.888z M73.623,57.881L66.9,66.225V44.979l6.723-6.665V57.881z"/>
		</g>
	</g>
	<g>
		<g>
			<path d="M71.948,37.501l-7.445,7.389h2.155l7.444-7.389H71.948z M66.557,44.648h-1.129l6.724-6.667h1.127L66.557,44.648z"/>
		</g>
	</g>
	<path d="M50.945,62.608v0.591c0,0.652-0.164,1.244-0.488,1.771c-0.325,0.533-0.806,0.91-1.438,1.133
		c-0.309,0.1-0.659,0.221-1.053,0.358c-0.394,0.14-0.775,0.269-1.143,0.398c-0.369,0.131-0.689,0.244-0.964,0.346
		c-0.273,0.106-0.445,0.164-0.512,0.183c-0.07,0.033-0.154,0.079-0.259,0.14c-0.103,0.06-0.204,0.15-0.309,0.271
		c-0.103,0.119-0.191,0.254-0.27,0.411c-0.077,0.152-0.114,0.333-0.114,0.537v0.462v3.29h-2.184V56.753
		c0.017-0.875,0.372-1.606,1.065-2.193c0.693-0.594,1.793-0.885,3.3-0.885c0.771,0,1.429,0.081,1.978,0.242
		c0.548,0.162,1.001,0.385,1.362,0.667c0.36,0.288,0.62,0.612,0.783,0.991c0.162,0.375,0.244,0.777,0.244,1.204v0.619V62.608z
		 M48.787,57.267c-0.017-0.225-0.064-0.435-0.142-0.644c-0.078-0.206-0.195-0.385-0.359-0.54c-0.161-0.152-0.385-0.272-0.666-0.36
		c-0.285-0.085-0.631-0.127-1.042-0.127c-0.427,0-0.781,0.05-1.063,0.142c-0.284,0.094-0.508,0.219-0.668,0.373
		c-0.164,0.152-0.28,0.321-0.347,0.502c-0.07,0.177-0.104,0.36-0.104,0.552v5.443v0.129v3.187c0.033-0.189,0.114-0.329,0.244-0.412
		c0.129-0.086,0.26-0.146,0.396-0.182c0.273-0.083,0.557-0.183,0.85-0.292c0.291-0.115,0.563-0.21,0.82-0.3
		c0.308-0.1,0.6-0.2,0.873-0.306c0.221-0.085,0.427-0.206,0.618-0.358c0.152-0.14,0.29-0.312,0.409-0.529
		c0.119-0.212,0.18-0.481,0.18-0.808v-0.129V57.267z"/>
	<path d="M57.389,53.674c1.506,0,2.612,0.292,3.314,0.885c0.701,0.587,1.053,1.331,1.053,2.218v1.235v5.624v0.746
		c0,0.306-0.057,0.646-0.167,1.015c-0.112,0.367-0.33,0.706-0.655,1.012c-0.324,0.308-0.771,0.566-1.336,0.771
		c-0.566,0.208-1.302,0.311-2.209,0.311c-0.906,0-1.644-0.102-2.209-0.311c-0.564-0.204-1.01-0.462-1.334-0.771
		c-0.327-0.306-0.546-0.646-0.655-1.012c-0.113-0.369-0.167-0.708-0.167-1.015v-1.208c0-0.648,0.167-1.239,0.5-1.772
		c0.336-0.529,0.81-0.908,1.425-1.129c0.309-0.104,0.658-0.223,1.054-0.36c0.395-0.138,0.775-0.269,1.142-0.398
		c0.369-0.127,0.689-0.244,0.964-0.348c0.274-0.102,0.444-0.163,0.515-0.179c0.067-0.033,0.159-0.082,0.27-0.144
		c0.111-0.058,0.219-0.147,0.32-0.267c0.104-0.121,0.193-0.258,0.273-0.412c0.073-0.152,0.112-0.331,0.112-0.542v-0.488
		c0-0.168-0.035-0.346-0.104-0.522c-0.067-0.181-0.188-0.35-0.358-0.502c-0.173-0.154-0.396-0.279-0.68-0.373
		c-0.282-0.092-0.639-0.142-1.066-0.142c-0.855,0-1.433,0.177-1.733,0.527c-0.299,0.352-0.449,0.772-0.449,1.272h-2.183v-0.619
		c0-0.427,0.081-0.829,0.244-1.204c0.162-0.379,0.423-0.704,0.782-0.991c0.359-0.281,0.812-0.504,1.361-0.667
		C55.96,53.755,56.618,53.674,57.389,53.674z M59.598,60.477c-0.035,0.171-0.122,0.3-0.256,0.385
		c-0.138,0.085-0.267,0.146-0.387,0.179c-0.256,0.085-0.534,0.186-0.831,0.296c-0.303,0.11-0.581,0.21-0.838,0.295
		c-0.31,0.103-0.6,0.207-0.874,0.309c-0.205,0.087-0.401,0.206-0.589,0.358c-0.155,0.139-0.297,0.312-0.427,0.524
		c-0.125,0.217-0.19,0.488-0.19,0.812c0,0.652,0.152,1.133,0.462,1.454c0.308,0.314,0.884,0.473,1.721,0.473
		c0.857,0,1.44-0.167,1.746-0.498c0.309-0.339,0.463-0.814,0.463-1.429V60.477z"/>
	<path d="M91.389,67.49c-1.506,0-2.609-0.296-3.313-0.887c-0.7-0.594-1.054-1.333-1.054-2.221v-1.235v-5.622v-0.748
		c0-0.311,0.056-0.644,0.168-1.012c0.11-0.371,0.329-0.706,0.654-1.015c0.327-0.308,0.771-0.564,1.337-0.771
		c0.562-0.208,1.3-0.306,2.208-0.306s1.644,0.098,2.208,0.306c0.564,0.206,1.01,0.462,1.335,0.771
		c0.327,0.309,0.544,0.644,0.654,1.015c0.112,0.369,0.166,0.702,0.166,1.012v1.21c0,0.648-0.166,1.24-0.5,1.769
		c-0.333,0.533-0.808,0.908-1.427,1.131c-0.308,0.104-0.656,0.221-1.052,0.36c-0.394,0.135-0.774,0.271-1.142,0.4
		c-0.366,0.125-0.689,0.242-0.966,0.346c-0.273,0.1-0.441,0.161-0.509,0.179c-0.07,0.036-0.16,0.082-0.272,0.142
		c-0.112,0.06-0.217,0.149-0.318,0.271c-0.103,0.117-0.194,0.252-0.271,0.41c-0.077,0.152-0.114,0.331-0.114,0.538v0.485
		c0,0.175,0.035,0.352,0.102,0.531c0.067,0.177,0.19,0.346,0.36,0.5c0.169,0.154,0.396,0.275,0.678,0.373
		c0.285,0.096,0.642,0.142,1.068,0.142c0.854,0,1.435-0.179,1.73-0.525c0.3-0.354,0.45-0.779,0.45-1.272h2.183v0.616
		c0,0.427-0.081,0.831-0.241,1.206c-0.163,0.377-0.425,0.708-0.783,0.992c-0.36,0.279-0.814,0.502-1.364,0.667
		C92.817,67.407,92.159,67.49,91.389,67.49z M89.181,60.683c0.035-0.17,0.119-0.302,0.254-0.387
		c0.138-0.085,0.267-0.146,0.386-0.177c0.258-0.089,0.537-0.185,0.835-0.295c0.3-0.11,0.579-0.21,0.835-0.294
		c0.309-0.108,0.601-0.208,0.873-0.312c0.206-0.083,0.402-0.202,0.59-0.358c0.153-0.137,0.296-0.314,0.425-0.527
		c0.129-0.214,0.191-0.483,0.191-0.806c0-0.654-0.154-1.135-0.463-1.454c-0.308-0.317-0.879-0.475-1.718-0.475
		c-0.856,0-1.438,0.169-1.746,0.5c-0.308,0.335-0.462,0.808-0.462,1.429V60.683z"/>
	<path d="M64.501,44.89h2.157v22.396h-2.157V44.89z"/>
	<path d="M84.481,67.286H82.3v-9.867v-0.231c0-0.15-0.021-0.319-0.067-0.5c-0.042-0.18-0.136-0.35-0.281-0.513
		s-0.359-0.298-0.642-0.41c-0.284-0.11-0.664-0.169-1.141-0.169c-0.482,0-0.869,0.059-1.17,0.169
		c-0.299,0.112-0.531,0.241-0.695,0.397c-0.16,0.152-0.27,0.319-0.318,0.5c-0.052,0.179-0.08,0.34-0.08,0.473v0.284v9.867h-2.182
		v-9.867v-0.231c0-0.15-0.021-0.319-0.064-0.5c-0.041-0.18-0.139-0.35-0.28-0.513c-0.149-0.163-0.363-0.298-0.645-0.41
		c-0.281-0.11-0.662-0.169-1.142-0.169c-0.481,0-0.869,0.059-1.171,0.169c-0.298,0.112-0.529,0.241-0.693,0.397
		c-0.16,0.152-0.267,0.319-0.321,0.5c-0.052,0.179-0.074,0.34-0.074,0.473v0.284v9.867h-2.156V57.244v-0.466
		c0-0.204,0.031-0.479,0.1-0.821c0.072-0.342,0.249-0.683,0.54-1.027c0.293-0.344,0.729-0.637,1.31-0.887
		c0.582-0.248,1.389-0.369,2.416-0.369c0.819,0,1.493,0.081,2.015,0.242c0.521,0.162,0.946,0.364,1.271,0.604
		c0.327-0.24,0.75-0.442,1.271-0.604c0.523-0.161,1.196-0.242,2.019-0.242c1.028,0,1.83,0.121,2.413,0.369
		c0.583,0.25,1.018,0.543,1.31,0.887c0.291,0.344,0.472,0.691,0.539,1.04c0.068,0.352,0.104,0.621,0.104,0.808v0.26V67.286z"/>
	<path d="M104.384,57.396v-0.261c0-0.168-0.035-0.346-0.103-0.522c-0.068-0.181-0.187-0.35-0.36-0.502
		c-0.173-0.154-0.397-0.279-0.679-0.373c-0.283-0.092-0.642-0.142-1.066-0.142c-0.858,0-1.435,0.177-1.735,0.527
		c-0.3,0.352-0.445,0.772-0.445,1.272v6.24c0,0.652,0.152,1.133,0.458,1.454c0.309,0.314,0.884,0.473,1.723,0.473
		c0.856,0,1.438-0.167,1.745-0.498c0.309-0.339,0.463-0.814,0.463-1.429h2.156v0.746c0,0.306-0.055,0.646-0.165,1.015
		c-0.11,0.367-0.329,0.706-0.656,1.012c-0.325,0.308-0.769,0.566-1.335,0.771c-0.564,0.208-1.302,0.311-2.208,0.311
		c-0.908,0-1.644-0.102-2.212-0.311c-0.561-0.204-1.006-0.462-1.333-0.771c-0.323-0.306-0.542-0.646-0.656-1.012
		c-0.11-0.369-0.167-0.708-0.167-1.015v-1.208v-5.778v-0.619c0-0.427,0.084-0.829,0.246-1.204c0.162-0.379,0.421-0.704,0.785-0.991
		c0.358-0.281,0.812-0.504,1.358-0.667c0.548-0.161,1.206-0.242,1.979-0.242c1.522,0,2.631,0.292,3.326,0.885
		c0.691,0.587,1.038,1.331,1.038,2.218v0.619H104.384z"/>
	<path d="M117.787,63.97v0.412c0,0.207-0.035,0.479-0.102,0.821c-0.069,0.342-0.246,0.683-0.538,1.027
		c-0.291,0.344-0.729,0.64-1.312,0.887c-0.581,0.244-1.386,0.373-2.412,0.373c-1.027,0-1.831-0.129-2.412-0.373
		c-0.585-0.248-1.025-0.543-1.312-0.887c-0.291-0.344-0.471-0.689-0.539-1.042c-0.069-0.352-0.104-0.621-0.104-0.806v-0.281v-7.324
		c0-0.188,0.035-0.456,0.104-0.808c0.068-0.348,0.248-0.696,0.539-1.04c0.287-0.344,0.728-0.637,1.312-0.887
		c0.581-0.248,1.385-0.369,2.412-0.369c1.026,0,1.831,0.121,2.412,0.369c0.583,0.25,1.021,0.543,1.312,0.887
		c0.292,0.344,0.469,0.685,0.538,1.027c0.066,0.342,0.102,0.617,0.102,0.821V63.97z M115.606,63.712v-6.266v-0.281
		c0-0.154-0.025-0.323-0.077-0.502c-0.052-0.181-0.16-0.348-0.32-0.5c-0.163-0.156-0.39-0.285-0.682-0.397
		c-0.291-0.11-0.683-0.169-1.183-0.169c-0.461,0-0.831,0.059-1.112,0.169c-0.285,0.112-0.502,0.248-0.656,0.41
		c-0.156,0.163-0.254,0.335-0.298,0.523c-0.044,0.191-0.062,0.352-0.062,0.489v0.258v6.266v0.258c0,0.137,0.019,0.3,0.062,0.485
		c0.044,0.192,0.142,0.369,0.298,0.529c0.154,0.163,0.371,0.302,0.656,0.413c0.281,0.11,0.651,0.167,1.112,0.167
		c0.5,0,0.892-0.056,1.183-0.167c0.292-0.11,0.519-0.248,0.682-0.4c0.16-0.152,0.269-0.321,0.32-0.5s0.077-0.348,0.077-0.5V63.712z"
		/>
</g>
</svg>
