<?xml version="1.0" encoding="utf-8"?>
<!-- Generator: Adobe Illustrator 16.0.3, SVG Export Plug-In . SVG Version: 6.00 Build 0)  -->
<!DOCTYPE svg PUBLIC "-//W3C//DTD SVG 1.1//EN" "http://www.w3.org/Graphics/SVG/1.1/DTD/svg11.dtd">
<svg version="1.1" id="Layer_2" xmlns="http://www.w3.org/2000/svg" xmlns:xlink="http://www.w3.org/1999/xlink" x="0px" y="0px"
	 width="160px" height="110px" viewBox="0 0 160 110" enable-background="new 0 0 160 110" xml:space="preserve">
<g>
	<g>
		<path d="M38.283,69.663c0-0.414,0.078-0.806,0.235-1.176c0.155-0.368,0.374-0.69,0.653-0.964c0.28-0.273,0.602-0.489,0.965-0.646
			c0.364-0.156,0.759-0.234,1.183-0.234c0.414,0,0.807,0.078,1.176,0.234c0.369,0.157,0.69,0.373,0.965,0.646
			c0.273,0.274,0.492,0.596,0.654,0.965s0.243,0.761,0.243,1.175v2.417c0,0.414-0.079,0.805-0.235,1.174
			c-0.157,0.369-0.375,0.691-0.654,0.965c-0.28,0.275-0.604,0.49-0.973,0.646c-0.37,0.156-0.762,0.234-1.176,0.234
			c-0.324,0-0.638-0.05-0.939-0.15c-0.302-0.102-0.576-0.241-0.823-0.42v2.819c0,0.179-0.063,0.33-0.192,0.453
			s-0.277,0.185-0.445,0.185c-0.179,0-0.331-0.062-0.452-0.185c-0.124-0.123-0.185-0.274-0.185-0.453v-5.136L38.283,69.663z
			 M39.556,72.079c0,0.235,0.048,0.459,0.144,0.671c0.096,0.213,0.22,0.4,0.378,0.562c0.157,0.163,0.344,0.288,0.562,0.377
			c0.218,0.091,0.445,0.135,0.68,0.135c0.246,0,0.477-0.044,0.688-0.135c0.212-0.088,0.4-0.214,0.562-0.376
			c0.163-0.163,0.288-0.351,0.378-0.562c0.089-0.213,0.135-0.437,0.135-0.671v-2.417c0-0.234-0.048-0.458-0.143-0.671
			s-0.222-0.4-0.378-0.562S42.217,68.142,42,68.053c-0.218-0.09-0.444-0.135-0.681-0.135c-0.245,0-0.475,0.045-0.687,0.134
			c-0.213,0.09-0.4,0.216-0.563,0.378c-0.161,0.162-0.287,0.35-0.377,0.562c-0.09,0.213-0.136,0.437-0.136,0.672V72.079z"/>
		<path d="M45.331,69.663c0-0.414,0.078-0.806,0.234-1.175c0.157-0.369,0.375-0.69,0.654-0.965c0.28-0.273,0.602-0.488,0.966-0.646
			c0.363-0.157,0.757-0.235,1.183-0.235c0.414,0,0.806,0.078,1.175,0.235s0.69,0.372,0.965,0.646S51,68.12,51.163,68.489
			c0.161,0.368,0.242,0.761,0.242,1.175v4.732c0,0.179-0.065,0.329-0.193,0.453c-0.129,0.123-0.277,0.185-0.444,0.184
			c-0.157,0-0.295-0.047-0.411-0.142c-0.118-0.096-0.188-0.216-0.21-0.361c-0.515,0.38-1.108,0.57-1.778,0.57
			c-0.414,0-0.807-0.079-1.175-0.235c-0.369-0.156-0.691-0.371-0.966-0.646c-0.273-0.273-0.492-0.595-0.654-0.964
			c-0.162-0.37-0.243-0.761-0.243-1.175L45.331,69.663z M46.605,72.08c0,0.234,0.048,0.459,0.144,0.671
			c0.094,0.213,0.22,0.399,0.377,0.562c0.156,0.162,0.344,0.288,0.562,0.377c0.218,0.09,0.444,0.135,0.68,0.135
			c0.234,0,0.459-0.042,0.67-0.126c0.213-0.084,0.398-0.201,0.555-0.352c0.156-0.151,0.282-0.328,0.377-0.529
			c0.096-0.201,0.148-0.419,0.16-0.654v-2.5c0-0.235-0.047-0.459-0.143-0.672c-0.097-0.212-0.221-0.399-0.377-0.562
			c-0.157-0.161-0.345-0.287-0.562-0.377s-0.444-0.135-0.68-0.135c-0.246,0-0.476,0.045-0.688,0.135
			c-0.213,0.09-0.4,0.215-0.562,0.377c-0.163,0.163-0.289,0.35-0.378,0.562s-0.135,0.437-0.135,0.672V72.08z"/>
		<path d="M52.461,69.664c0-0.414,0.077-0.806,0.235-1.175c0.156-0.369,0.375-0.69,0.655-0.965c0.279-0.274,0.601-0.489,0.965-0.646
			c0.363-0.157,0.757-0.235,1.183-0.235c0.414,0,0.805,0.078,1.174,0.235c0.37,0.156,0.691,0.372,0.966,0.646
			c0.273,0.274,0.492,0.597,0.654,0.966c0.161,0.368,0.243,0.76,0.243,1.174v2.417c0,0.414-0.08,0.806-0.235,1.175
			c-0.156,0.369-0.375,0.69-0.654,0.965s-0.604,0.489-0.974,0.646c-0.369,0.157-0.761,0.235-1.175,0.235
			c-0.325,0-0.637-0.051-0.939-0.151c-0.304-0.101-0.576-0.241-0.822-0.42v2.819c0,0.179-0.065,0.33-0.193,0.453
			c-0.129,0.123-0.276,0.185-0.444,0.185c-0.18,0-0.33-0.062-0.453-0.185s-0.185-0.274-0.185-0.453v-5.135V69.664z M53.737,72.08
			c0,0.235,0.048,0.46,0.143,0.672c0.096,0.213,0.221,0.399,0.378,0.562c0.156,0.162,0.344,0.288,0.562,0.378
			c0.218,0.09,0.444,0.135,0.679,0.135c0.246,0,0.477-0.045,0.688-0.135s0.399-0.215,0.562-0.377s0.288-0.35,0.379-0.562
			c0.089-0.212,0.134-0.436,0.134-0.671l0.001-2.417c0-0.234-0.049-0.458-0.144-0.67c-0.096-0.214-0.221-0.401-0.377-0.563
			c-0.157-0.161-0.345-0.288-0.562-0.378c-0.218-0.089-0.444-0.134-0.68-0.134c-0.246,0-0.477,0.045-0.688,0.134
			c-0.213,0.09-0.399,0.216-0.562,0.378c-0.163,0.162-0.288,0.35-0.379,0.562c-0.089,0.213-0.133,0.438-0.133,0.672L53.737,72.08z"
			/>
		<path d="M59.51,69.665c0-0.415,0.077-0.806,0.235-1.175c0.156-0.369,0.374-0.691,0.654-0.965c0.279-0.274,0.602-0.49,0.965-0.646
			s0.758-0.234,1.184-0.234c0.413,0,0.805,0.078,1.175,0.234c0.368,0.157,0.689,0.373,0.965,0.646
			c0.273,0.274,0.491,0.596,0.654,0.965c0.161,0.369,0.242,0.761,0.242,1.176v1.207c0,0.18-0.062,0.33-0.185,0.453
			c-0.122,0.123-0.274,0.185-0.453,0.185l-4.161-0.001v0.571c0,0.235,0.047,0.459,0.143,0.671c0.095,0.213,0.221,0.4,0.376,0.562
			c0.158,0.162,0.345,0.288,0.563,0.377c0.219,0.091,0.445,0.135,0.68,0.135c0.357,0,0.68-0.092,0.965-0.276s0.5-0.434,0.646-0.747
			l0.015-0.051c0.046-0.122,0.122-0.22,0.228-0.293c0.107-0.073,0.227-0.109,0.361-0.109c0.179,0,0.33,0.064,0.453,0.193
			S65.4,72.82,65.4,72.987c0,0.079-0.017,0.157-0.05,0.235l-0.034,0.066c-0.235,0.537-0.599,0.975-1.091,1.31
			s-1.052,0.503-1.678,0.503c-0.415,0-0.808-0.078-1.177-0.234c-0.367-0.157-0.688-0.372-0.963-0.646s-0.493-0.596-0.654-0.965
			c-0.163-0.369-0.243-0.761-0.243-1.175V69.665z M60.786,70.234l3.523,0.001v-0.57c0-0.235-0.047-0.458-0.143-0.671
			c-0.095-0.213-0.221-0.4-0.377-0.562s-0.344-0.288-0.562-0.378c-0.217-0.089-0.444-0.134-0.68-0.134
			c-0.246-0.001-0.475,0.045-0.688,0.134c-0.213,0.09-0.4,0.216-0.562,0.378s-0.288,0.35-0.378,0.562
			c-0.089,0.212-0.134,0.436-0.134,0.671V70.234z"/>
		<path d="M66.625,67.35c0-0.179,0.062-0.33,0.185-0.453s0.274-0.185,0.453-0.185c0.146,0,0.277,0.048,0.395,0.143
			c0.118,0.095,0.192,0.221,0.227,0.377c0.526-0.391,1.142-0.587,1.846-0.587c0.392,0.034,0.702,0.084,0.932,0.151
			c0.229,0.067,0.438,0.165,0.629,0.294s0.285,0.311,0.285,0.546c0,0.189-0.062,0.343-0.186,0.461
			c-0.122,0.117-0.273,0.177-0.453,0.177c-0.145,0-0.272-0.04-0.386-0.118c-0.278-0.157-0.575-0.235-0.889-0.235
			c-0.246,0-0.474,0.045-0.68,0.135c-0.207,0.09-0.392,0.209-0.554,0.361c-0.162,0.149-0.289,0.326-0.378,0.528
			c-0.09,0.2-0.14,0.419-0.15,0.653l-0.001,4.8c0,0.179-0.062,0.33-0.185,0.453c-0.123,0.124-0.274,0.185-0.453,0.185
			c-0.168,0-0.316-0.061-0.445-0.185c-0.128-0.123-0.191-0.274-0.191-0.453v-4.85V67.35z"/>
		<path d="M71.66,69.666c0-0.426,0.08-0.822,0.243-1.192c0.162-0.368,0.386-0.688,0.671-0.956c0.286-0.268,0.615-0.48,0.991-0.638
			c0.375-0.156,0.774-0.235,1.199-0.235c0.078,0,0.232,0.015,0.462,0.043c0.229,0.027,0.483,0.104,0.764,0.227
			c0.278,0.123,0.556,0.311,0.831,0.562c0.273,0.252,0.5,0.602,0.679,1.049c0.034,0.089,0.05,0.167,0.05,0.234
			c0,0.179-0.061,0.33-0.184,0.453c-0.124,0.123-0.274,0.185-0.453,0.185c-0.135,0-0.255-0.036-0.361-0.108
			c-0.106-0.073-0.182-0.17-0.228-0.295c-0.155-0.335-0.38-0.598-0.67-0.788c-0.291-0.189-0.609-0.286-0.957-0.286
			c-0.246,0-0.477,0.045-0.688,0.135s-0.399,0.216-0.562,0.378c-0.161,0.162-0.287,0.349-0.377,0.562s-0.134,0.438-0.134,0.672
			v2.416c0,0.235,0.047,0.459,0.143,0.671c0.094,0.214,0.22,0.4,0.377,0.562c0.156,0.162,0.345,0.288,0.562,0.378
			s0.444,0.135,0.679,0.135c0.359,0,0.684-0.096,0.975-0.286c0.291-0.189,0.508-0.453,0.653-0.788
			c0.057-0.123,0.136-0.221,0.235-0.294c0.102-0.072,0.219-0.108,0.353-0.108c0.179,0,0.33,0.064,0.454,0.192
			c0.122,0.129,0.184,0.276,0.184,0.444c0,0.079-0.016,0.157-0.051,0.235c-0.224,0.493-0.492,0.867-0.805,1.124
			c-0.314,0.258-0.62,0.441-0.915,0.555c-0.297,0.111-0.548,0.172-0.756,0.184c-0.206,0.012-0.316,0.017-0.327,0.017
			c-0.414,0-0.806-0.078-1.175-0.235c-0.368-0.156-0.69-0.371-0.965-0.646c-0.273-0.273-0.491-0.596-0.653-0.965
			c-0.163-0.369-0.244-0.761-0.244-1.175L71.66,69.666z"/>
		<path d="M78.523,64.598c0-0.179,0.062-0.329,0.186-0.452c0.122-0.124,0.273-0.185,0.453-0.185c0.167,0,0.315,0.061,0.443,0.185
			c0.13,0.123,0.194,0.274,0.194,0.453l-0.001,9.8c0,0.18-0.062,0.33-0.185,0.453c-0.124,0.123-0.274,0.185-0.453,0.185
			c-0.168,0-0.316-0.062-0.445-0.185s-0.194-0.273-0.194-0.453L78.523,64.598z"/>
		<path d="M80.739,67.351c0-0.179,0.061-0.33,0.184-0.453s0.276-0.185,0.453-0.185c0.168,0,0.316,0.062,0.445,0.185
			c0.128,0.124,0.192,0.274,0.192,0.453v7.048c0,0.18-0.062,0.33-0.185,0.453s-0.274,0.185-0.453,0.185
			c-0.169,0-0.316-0.062-0.445-0.185c-0.128-0.123-0.192-0.273-0.192-0.453L80.739,67.351z"/>
		<path d="M82.936,69.667c0-0.414,0.078-0.806,0.235-1.175s0.375-0.691,0.654-0.965c0.279-0.274,0.602-0.489,0.965-0.646
			c0.363-0.156,0.758-0.234,1.184-0.234c0.413,0,0.806,0.078,1.175,0.234c0.369,0.157,0.69,0.373,0.965,0.646
			c0.273,0.274,0.491,0.596,0.654,0.965c0.162,0.37,0.243,0.761,0.243,1.175v2.417c0,0.414-0.079,0.805-0.235,1.174
			c-0.156,0.37-0.375,0.691-0.655,0.965c-0.278,0.275-0.604,0.49-0.973,0.646c-0.369,0.157-0.761,0.235-1.176,0.235
			c-0.323,0-0.637-0.051-0.938-0.151c-0.303-0.102-0.577-0.241-0.822-0.42v2.819c0,0.179-0.065,0.33-0.193,0.453
			c-0.13,0.123-0.278,0.185-0.444,0.185c-0.179,0-0.331-0.062-0.454-0.185s-0.184-0.274-0.184-0.454v-5.134V69.667z M84.211,72.083
			c0,0.235,0.048,0.459,0.142,0.671c0.096,0.213,0.221,0.401,0.378,0.562c0.157,0.163,0.343,0.288,0.562,0.378
			c0.219,0.09,0.445,0.134,0.679,0.134c0.247,0,0.477-0.044,0.689-0.134c0.212-0.089,0.399-0.215,0.562-0.377
			s0.289-0.351,0.378-0.563c0.09-0.212,0.134-0.436,0.134-0.67v-2.417c0-0.235-0.047-0.458-0.141-0.671
			c-0.097-0.213-0.222-0.4-0.379-0.562c-0.156-0.162-0.345-0.288-0.562-0.378c-0.218-0.089-0.444-0.134-0.68-0.134
			c-0.246,0-0.476,0.045-0.688,0.134c-0.212,0.09-0.399,0.216-0.562,0.378c-0.162,0.162-0.287,0.35-0.377,0.562
			c-0.091,0.212-0.135,0.436-0.135,0.671V72.083z"/>
		<path d="M90.051,74.802V63.995c0-0.156,0.073-0.235,0.218-0.235c0.157,0,0.236,0.079,0.234,0.235v4.077
			c0.27-0.436,0.633-0.782,1.092-1.039c0.459-0.258,0.957-0.387,1.492-0.387c0.404,0,0.787,0.076,1.151,0.228
			c0.363,0.151,0.685,0.36,0.964,0.629c0.28,0.269,0.504,0.588,0.672,0.956c0.166,0.369,0.251,0.772,0.251,1.209v5.151
			c0,0.146-0.078,0.219-0.235,0.219c-0.146,0-0.219-0.073-0.219-0.219v-5.151c0-0.369-0.071-0.714-0.217-1.032
			s-0.341-0.59-0.587-0.813c-0.246-0.225-0.523-0.4-0.831-0.529c-0.308-0.128-0.624-0.193-0.949-0.193
			c-0.334,0-0.655,0.062-0.965,0.185c-0.306,0.124-0.577,0.294-0.812,0.513c-0.236,0.218-0.425,0.478-0.57,0.779
			c-0.146,0.303-0.225,0.633-0.236,0.99v5.235c0,0.157-0.078,0.235-0.234,0.235C90.123,75.037,90.051,74.959,90.051,74.802z"/>
		<path d="M97.216,74.82l0.001-10.623c0-0.157,0.078-0.235,0.234-0.235c0.146,0,0.219,0.078,0.219,0.235l-0.001,6.041
			c0.795-0.57,1.544-1.154,2.249-1.753c0.704-0.599,1.426-1.194,2.164-1.787c0.057-0.045,0.116-0.064,0.178-0.06
			c0.061,0.006,0.108,0.031,0.142,0.076c0.101,0.124,0.09,0.229-0.034,0.318l-3.355,2.769c0.738,0.874,1.438,1.704,2.098,2.492
			c0.659,0.789,1.336,1.581,2.029,2.376c0.045,0.056,0.062,0.113,0.05,0.176c-0.011,0.062-0.036,0.108-0.074,0.143
			c-0.041,0.033-0.094,0.05-0.16,0.05s-0.123-0.028-0.168-0.084c-0.224-0.257-0.456-0.528-0.696-0.813
			c-0.24-0.286-0.517-0.615-0.83-0.99c-0.312-0.375-0.68-0.809-1.099-1.301c-0.42-0.492-0.922-1.08-1.501-1.762
			c-0.337,0.257-0.667,0.52-0.991,0.788v3.944c0,0.145-0.079,0.218-0.235,0.218C97.29,75.038,97.216,74.965,97.216,74.82z"/>
	</g>
	<g>
		<g>
			<path fill-rule="evenodd" clip-rule="evenodd" d="M83.526,63.922C83.468,63.962,83.583,63.884,83.526,63.922L83.526,63.922z"/>
			<path fill-rule="evenodd" clip-rule="evenodd" d="M106.653,42.439c-0.004,0.002-0.008,0.005-0.008,0.005
				C106.692,42.423,106.74,42.4,106.653,42.439z"/>
			<path fill-rule="evenodd" clip-rule="evenodd" d="M106.087,34.28C106.045,34.334,106.099,34.291,106.087,34.28L106.087,34.28z"/>
			<path fill-rule="evenodd" clip-rule="evenodd" d="M111.489,45.817C111.51,45.782,111.48,45.79,111.489,45.817L111.489,45.817z"/>
			<path fill-rule="evenodd" clip-rule="evenodd" d="M121.688,47.365c0.015,0.045,0.023,0.064-0.003-0.012
				c-0.093-0.255-0.042-0.112-0.007-0.015c-0.28-0.743-1.045-0.787-1.724-0.779c-0.739,0.011-1.469,0.103-2.204,0.177
				c-0.708,0.072-1.468,0.224-2.152,0.422c-0.724,0.209-1.465,0.277-2.172,0.543l-0.115,0.03c-0.326,0.085-0.652,0.101-0.938,0.291
				l-0.102-0.032c-0.065-0.004-0.116,0.011-0.142,0.02l-0.202,0.057c-0.812,0.225-1.604,0.52-2.41,0.768l-0.069,0.017
				c-0.269,0.061-0.572,0.13-0.848,0.316c-0.183-0.003-0.317,0.075-0.402,0.131c-0.209-0.01-0.38,0.071-0.505,0.128
				c-0.005,0.002-0.01,0.004-0.014,0.006c0.043-0.062,0.074-0.122,0.093-0.182l0.129,0.044l0.032-0.021
				c0.033-0.021,0.076-0.049,0.118-0.09l0.053-0.051c0.089-0.082,0.164-0.172,0.245-0.26c0.187-0.035,0.373-0.168,0.462-0.338
				l0.123,0.041c0.018-0.022,0.032-0.043,0.045-0.062c0.165-0.095,0.298-0.23,0.402-0.411l0.035,0.043
				c0.06-0.019,0.205-0.066,0.292-0.215c0.144-0.018,0.244-0.109,0.342-0.208c0.107-0.063,0.23-0.146,0.309-0.245
				c0.137-0.027,0.262-0.12,0.3-0.27l0.052-0.01l0.002-0.004c0.167-0.024,0.305-0.136,0.365-0.292
				c0.053-0.034,0.102-0.074,0.145-0.121c0,0,0.138-0.116,0.062-0.079l-0.019-0.04l0.211,0.032
				c-0.022,0.045-0.058,0.071-0.072,0.079l0.023-0.01c0.057-0.025,0.184-0.082,0.268-0.214c0.178-0.072,0.359-0.17,0.518-0.277
				l0.018-0.012c0.095-0.062,0.162-0.127,0.206-0.193h0.034c0.34-0.224,0.693-0.46,1.058-0.641c0.067-0.021,0.224-0.072,0.311-0.217
				l0.095-0.02c0.045-0.034,0.094-0.092,0.145-0.122c0.137-0.06,0.226-0.136,0.283-0.216c0.139-0.03,0.242-0.109,0.338-0.182
				l0.027-0.021c0.021-0.018,0.051-0.04,0.07-0.054c0.206-0.018,0.374-0.103,0.507-0.257c0.011-0.004,0.02-0.008,0.026-0.013
				c0.188-0.075,0.338-0.216,0.529-0.29c0.254-0.098,0.56-0.238,0.75-0.438c0.055-0.025,0.152-0.071,0.229-0.164
				c0.125-0.058,0.197-0.165,0.31-0.235c0.213-0.09,0.388-0.169,0.591-0.283c0.257-0.139,0.626-0.257,0.806-0.497l0.005-0.002
				c0.209-0.128,0.464-0.2,0.608-0.408c0.681-0.312,1.334-0.796,1.955-1.21l0.046-0.029c0.613-0.399,0.584-1.143-0.021-1.559
				c-0.38-0.261-0.782-0.162-1.203-0.102c-0.46,0.064-0.923,0.166-1.359,0.326l-0.012-0.006l-0.027,0.021
				c-0.02,0.007-0.039,0.014-0.057,0.021l-0.007-0.03c-0.49,0.092-1.044,0.123-1.479,0.385c0,0-0.014-0.001-0.02-0.001l-0.031-0.001
				c-0.022,0-0.047,0.002-0.063,0.004l0.006,0.042l-0.055,0.098l-0.037,0.011l0.007-0.089h-0.003l-0.005,0.09l-0.042,0.011
				l-0.045-0.095l-0.17,0.032c-0.21,0.039-0.463,0.056-0.638,0.19c-0.011,0-0.02-0.003-0.03-0.004l-0.066,0.002
				c-0.222,0.022-0.436,0.101-0.62,0.229c-0.159-0.01-0.273,0.043-0.354,0.109l-0.073-0.01l-0.168,0.055
				c-0.386,0.127-0.754,0.29-1.132,0.438c0.465-0.361,0.91-0.752,1.38-1.105c0.252-0.191,0.508-0.379,0.764-0.568
				c0.204-0.152,0.457-0.295,0.556-0.544c0.175-0.439-0.217-0.933-0.595-1.115c-0.441-0.212-1.004-0.071-1.413,0.163
				c-0.154-0.002-0.259,0.079-0.397,0.125c-0.153,0.054-0.307,0.062-0.446,0.156c-0.144,0.021-0.292,0.097-0.377,0.219l-0.106,0.015
				l-0.086,0.087l-0.142,0.012l-0.493,0.168l-0.455,0.154l-0.059,0.134c-0.313,0.033-0.541,0.07-0.771,0.305
				c-0.126,0.103-0.258,0.152-0.343,0.307c-0.143,0.048-0.285,0.091-0.431,0.133c-0.121,0.035-0.271,0.177-0.394,0.182l-0.106,0.104
				c-0.037-0.015-0.075-0.023-0.118-0.026l-0.223,0.054c-0.108,0.063-0.213,0.155-0.312,0.269c0.049-0.05,0.155-0.063,0.214-0.026
				l-0.457,0.071c-0.009,0.011-0.018,0.02-0.024,0.029l-0.199,0.001l-0.118,0.093l-0.037,0.074l-0.144,0.042l-0.022,0.019
				l-0.083,0.071l0.013,0.097c-0.198,0.07-0.314,0.167-0.47,0.296l-0.008,0.002c-0.036,0.021-0.093,0.051-0.144,0.102l-0.025-0.006
				l-0.434,0.334c0-0.017,0.007-0.045,0.02-0.076c0.021,0.002,0.041,0.005,0.06,0.01c-0.015-0.004-0.032-0.014-0.052-0.023
				c0.048-0.087,0.149-0.158,0.253-0.152l-0.061-0.007c-0.154-0.01-0.356,0.074-0.438,0.252l-0.187,0.073
				c-0.116,0.005-0.224,0.029-0.328,0.081l0.018-0.13c0.034-0.047,0.055-0.061,0.055-0.061s-0.023,0.01-0.05,0.01l0.003-0.013
				l0.301-0.066c0.203-0.181,0.441-0.302,0.592-0.539c0.093-0.04,0.191-0.118,0.258-0.272c0.162-0.154,0.357-0.264,0.421-0.49
				c0.062-0.034,0.132-0.088,0.181-0.176l0.117,0.025c0.323-0.283,0.778-0.574,0.949-0.986h0.053c0.145-0.1,0.284-0.168,0.353-0.344
				c0.214-0.131,0.49-0.349,0.59-0.588c0.345-0.1,0.667-0.588,0.897-0.843l0.187-0.205c0.33-0.36,0.638-0.741,0.962-1.106
				c0.317-0.358,0.84-0.756,0.638-1.295c-0.14-0.381-0.484-0.504-0.824-0.654c-0.323-0.143-0.951,0.029-1.192,0.299l-0.065-0.052
				c-0.109,0.021-0.216,0.056-0.296,0.136l-0.045,0.014l-0.078,0.024l-0.192,0.145c-0.082,0.127-0.156,0.319-0.293,0.394
				l-0.267-0.111l-0.081,0.053c-0.119,0.076-0.228,0.151-0.311,0.27l-0.01,0.015c-0.015,0.014-0.045,0.035-0.066,0.05l-0.016,0.007
				c-0.108,0.057-0.184,0.151-0.288,0.212c-0.1,0.031-0.186,0.091-0.262,0.16c-0.051,0.047-0.159,0.106-0.087,0.111l-0.139,0.315
				l-0.128-0.081c-0.048,0.076-0.186,0.103-0.265,0.135c-0.151,0.063-0.297,0.15-0.399,0.283l0.001,0.003l-0.062,0.028
				c-0.036,0.033-0.071,0.067-0.103,0.104c-0.338,0.075-0.521,0.354-0.721,0.608l-0.034,0.044l-0.189,0.007
				c-0.021,0.038-0.043,0.076-0.064,0.116c-0.119,0.109-0.248,0.207-0.372,0.312c-0.048,0.036-0.088,0.092-0.114,0.156
				c-0.09-0.001-0.162,0.024-0.204,0.041l-0.25,0.35c-0.354,0.29-0.608,0.649-1.009,0.884l-0.176,0.345
				c-0.003,0.048-0.335,0.284-0.387,0.346l-0.041,0.046c-0.062,0.07-0.104,0.172-0.175,0.234c-0.271,0.172-0.425,0.439-0.597,0.7
				l-0.027,0.042c-0.01,0.014-0.018,0.027-0.026,0.041c0.054-0.072,0.158-0.106,0.244-0.101l-0.494,0.393
				c-0.005-0.018,0.004-0.05,0.016-0.065c-0.021,0.029-0.058,0.049-0.084,0.07c0.041-0.046,0.067-0.09,0.083-0.115l0.012-0.019
				c0.096-0.153,0.194-0.303,0.297-0.456l0.125-0.188l-0.003-0.073c0.088-0.059,0.233-0.169,0.289-0.352l0.011-0.007
				c0.197-0.156,0.321-0.428,0.48-0.622c0.201-0.244,0.381-0.504,0.57-0.756l-0.004-0.102c0.367-0.313,0.633-0.733,0.966-1.084
				l-0.006-0.145c0.164-0.066,0.233-0.19,0.345-0.314c0.363-0.365,0.646-0.828,0.974-1.228l0.123-0.147
				c0.422-0.513,0.842-1.028,1.269-1.538c0.307-0.365,1.171-0.947,1.003-1.516c-0.12-0.407-0.882-0.808-1.288-0.696
				c-0.27,0.073-0.376,0.356-0.533,0.557c-0.157,0.201-0.37,0.37-0.552,0.549c-0.586,0.405-1.137,0.84-1.667,1.314
				c-0.188,0.076-0.232,0.217-0.246,0.291c-0.219,0.207-0.444,0.416-0.676,0.607c-0.193,0.159-0.532,0.33-0.623,0.576
				c-0.12,0.086-0.276,0.199-0.376,0.395c-0.089,0.065-0.184,0.13-0.265,0.207l-0.022,0.021c-0.287,0.279-0.546,0.557-0.772,0.888
				c-0.185,0.076-0.262,0.233-0.404,0.358c-0.193,0.165-0.359,0.362-0.48,0.588c-0.024,0.019-0.042,0.035-0.06,0.051l-0.122,0.128
				c-0.249,0.254-0.474,0.522-0.699,0.795c-0.057,0.037-0.104,0.081-0.144,0.137l0.048,0.313l-0.022,0.001c0,0,0,0.013,0.002,0.019
				c-0.076,0.001-0.183,0.017-0.279,0.104l-0.032,0.028c-0.275,0.255-0.652,0.631-0.762,1.004c-0.235,0.182-0.475,0.533-0.603,0.801
				c-0.068,0.139-0.11,0.304-0.21,0.423c-0.101,0.12-0.209,0.229-0.266,0.379c-0.16,0.075-0.219,0.209-0.29,0.356
				c-0.117,0.192-0.238,0.39-0.362,0.586l-0.137,0.221c-0.175,0.135-0.227,0.219-0.275,0.438c-0.008,0.012-0.016,0.023-0.021,0.033
				l-0.013,0.02c-0.041,0.062-0.078,0.128-0.096,0.201c0.025-0.101-0.266,0.241-0.266,0.241l0.003,0.037
				c0.001,0.019-0.227,0.362-0.246,0.554c-0.126,0.157-0.173,0.334-0.334,0.468c-0.158,0.132-0.305,0.277-0.375,0.478
				c-0.172,0.135-0.304,0.483-0.391,0.683l-0.021,0.047l0.043,0.109c-0.06,0.082-0.106,0.171-0.159,0.259
				c-0.021,0.007-0.041,0.016-0.06,0.025c0.046-0.134,0.086-0.27,0.135-0.401c0.017-0.045,0.056-0.081,0.079-0.123
				c0.043-0.078,0.086-0.158,0.126-0.239c0.012-0.025,0.008-0.06,0.021-0.084c0.085-0.172,0.183-0.338,0.259-0.513
				c0.16-0.37,0.31-0.746,0.465-1.118c0.084-0.201,0.17-0.4,0.257-0.6c0.024-0.053,0.054-0.104,0.083-0.152
				c0.03-0.05,0.069-0.095,0.094-0.146c0.045-0.107,0.075-0.222,0.124-0.326c0.04-0.084,0.106-0.156,0.146-0.239
				c0.083-0.169,0.16-0.341,0.231-0.514c0.053-0.13,0.146-0.253,0.125-0.403c-0.003-0.014,0.025-0.039,0.041-0.059
				c0.036-0.045,0.088-0.083,0.111-0.133c0.051-0.116,0.079-0.241,0.132-0.355c0.083-0.177,0.182-0.347,0.269-0.522
				c0.051-0.104,0.087-0.216,0.137-0.32c0.042-0.085,0.099-0.16,0.142-0.242c0.047-0.083,0.089-0.167,0.128-0.253
				c0.021-0.048,0.031-0.1,0.051-0.149c0.033-0.096,0.063-0.193,0.105-0.286c0.055-0.121,0.121-0.239,0.18-0.36
				c0.081-0.169,0.162-0.338,0.238-0.508c0.047-0.104,0.086-0.21,0.13-0.315c0.015-0.038,0.022-0.087,0.048-0.11
				c0.185-0.178,0.206-0.439,0.328-0.649c0.069-0.12,0.104-0.26,0.166-0.387c0.112-0.244,0.235-0.483,0.346-0.729
				c0.054-0.12,0.086-0.251,0.135-0.375c0.027-0.073,0.062-0.145,0.102-0.213c0.029-0.051,0.081-0.092,0.103-0.145
				c0.086-0.212,0.142-0.434,0.271-0.631c0.06-0.089,0.072-0.211,0.117-0.312c0.12-0.271,0.246-0.538,0.367-0.808
				c0.062-0.138,0.119-0.277,0.179-0.415c0.034-0.079,0.071-0.156,0.104-0.234c0.047-0.12,0.083-0.244,0.138-0.361
				c0.1-0.217,0.212-0.428,0.312-0.645c0.057-0.122,0.101-0.25,0.15-0.375c0.052-0.13,0.109-0.259,0.156-0.391
				c0.092-0.267,0.171-0.538,0.27-0.802c0.152-0.409,1.414-3.288,1.568-3.697c0.073-0.198,0.12-0.404,0.19-0.604
				c0.09-0.256,0.196-0.508,0.287-0.765c0.069-0.193,0.124-0.393,0.192-0.586c0.061-0.173,0.137-0.34,0.196-0.511
				c0.073-0.21,0.132-0.425,0.205-0.635c0.067-0.19,0.157-0.374,0.219-0.565c0.084-0.27,0.152-0.543,0.229-0.813
				c0.062-0.22-0.055-0.104,0.001-0.323c0.044-0.172,0.102-0.354,0.095-0.518c-0.011-0.239-0.043-0.489-0.283-0.573
				c-0.039-0.013-0.066-0.06-0.102-0.086c-0.049-0.034-0.581-0.925-1.983-0.509c-0.101,0.029-0.2,0.087-0.3,0.131
				c-0.168,0.075-0.337,0.152-0.505,0.224c-0.237,0.1-0.406,0.364-0.658,0.425c-0.008,0.002-0.013,0.012-0.02,0.018
				c-0.223,0.195-0.446,0.387-0.664,0.589c-0.056,0.051-0.097,0.127-0.139,0.196c-0.054,0.092-0.093,0.194-0.155,0.276
				c-0.055,0.073-0.134,0.124-0.205,0.188c-0.032-0.024-0.063-0.049-0.095-0.072c-0.093,0.092-0.18,0.166-0.209,0.317
				c-0.026,0.129-0.114,0.266-0.2,0.375c-0.228,0.292-0.473,0.567-0.706,0.856c-0.12,0.151-0.226,0.319-0.342,0.476
				c-0.085,0.113-0.185,0.214-0.267,0.328c-0.281,0.392-0.561,0.787-0.839,1.182c-0.148,0.211-0.302,0.42-0.438,0.641
				c-0.236,0.39-0.463,0.788-0.691,1.185c-0.141,0.245-1.365,2.97-1.508,3.214c-0.072,0.128-0.164,0.244-0.235,0.373
				c-0.137,0.249-0.266,0.503-0.396,0.756c-0.063,0.123-0.126,0.248-0.188,0.373c-0.087,0.174-0.173,0.348-0.257,0.523
				c-0.091,0.189-0.18,0.381-0.269,0.571c-0.041,0.087-0.075,0.178-0.116,0.265c-0.027,0.057-0.062,0.109-0.09,0.164
				c-0.157,0.314-0.312,0.628-0.47,0.942c-0.014,0.028-0.029,0.056-0.042,0.085c-0.072,0.172-0.125,0.357-0.223,0.512
				c-0.145,0.228-0.137,0.513-0.318,0.72l-0.005,0.013c-0.095,0.208-0.194,0.416-0.284,0.627c-0.092,0.214-0.18,0.431-0.262,0.648
				c-0.07,0.187-0.125,0.38-0.2,0.565c-0.111,0.272-0.231,0.539-0.349,0.809c-0.048,0.111-0.107,0.219-0.147,0.333
				c-0.023,0.068-0.002,0.152-0.029,0.217c-0.116,0.279-0.263,0.543-0.356,0.836c-0.057,0.176-0.104,0.355-0.163,0.531
				c-0.029,0.09-0.045,0.183-0.075,0.309c0.073-0.066,0.118-0.105,0.168-0.15c0.018,0.075,0.047,0.135,0.038,0.192
				c-0.011,0.065-0.06,0.13-0.086,0.196c-0.01,0.026-0.003,0.059-0.007,0.089c-0.006,0.037-0.006,0.081-0.024,0.11
				c-0.065,0.1-0.128,0.209-0.211,0.287c-0.104,0.1-0.123,0.21-0.135,0.334c-0.004,0.038-0.015,0.076-0.023,0.115
				c-0.022-0.036-0.058-0.068-0.065-0.109c-0.006-0.037,0.017-0.086,0.03-0.128c0.023-0.072,0.055-0.143,0.076-0.215
				c0.038-0.133,0.08-0.259,0.199-0.342c0.018-0.013,0.026-0.045,0.04-0.069c-0.041-0.016-0.082-0.035-0.125-0.042
				c-0.009-0.002-0.035,0.042-0.047,0.068c-0.033,0.075-0.061,0.155-0.098,0.229c-0.033,0.067-0.106,0.133-0.109,0.193
				c-0.01,0.154-0.09,0.274-0.15,0.407c-0.062,0.132-0.109,0.269-0.176,0.396c-0.045,0.09-0.088,0.173-0.117,0.275
				c-0.103,0.356-0.229,0.709-0.344,1.062c-0.007,0.017-0.008,0.034-0.011,0.051c-0.009,0.05-0.011,0.103-0.028,0.149
				c-0.045,0.122-0.103,0.24-0.144,0.363c-0.031,0.088-0.054,0.18-0.067,0.27c-0.014,0.098-0.015,0.196-0.024,0.318
				c0.005,0.01,0.015,0.047,0.024,0.084c-0.011,0.006-0.022,0.012-0.034,0.019c-0.017-0.031-0.032-0.062-0.049-0.095
				c-0.012,0.001-0.025,0.001-0.035,0.001c-0.044,0.135-0.084,0.271-0.132,0.403c-0.065,0.184-0.137,0.365-0.195,0.522
				c0.082,0.06,0.156,0.092,0.201,0.154c0.032,0.046,0.082,0.122-0.008,0.206c-0.023,0.023-0.026,0.081-0.037,0.122
				c-0.023,0.082-0.022,0.18-0.136,0.223c-0.021-0.153-0.042-0.3-0.062-0.453c-0.081,0.054-0.137,0.128-0.148,0.24
				c-0.004,0.043-0.014,0.089-0.027,0.13c-0.138,0.414-0.243,0.838-0.428,1.239c-0.009,0.021-0.015,0.043-0.018,0.063
				c-0.014,0.086-0.017,0.174-0.04,0.256c-0.06,0.201-0.074,0.419-0.243,0.583c-0.038,0.04-0.057,0.116-0.075,0.178
				c-0.02,0.062-0.026,0.124-0.04,0.187c-0.018,0.078-0.074,0.195-0.051,0.226c0.053,0.062,0.017,0.082-0.016,0.124
				c-0.018,0.022-0.032,0.05-0.037,0.076c-0.025,0.135-0.024,0.277-0.074,0.402c-0.065,0.166-0.168,0.317-0.161,0.503
				c0.005,0.198-0.181,0.364-0.154,0.568c0,0.007-0.007,0.022-0.012,0.024c-0.097,0.023-0.058,0.107-0.079,0.166
				c-0.033,0.096-0.073,0.189-0.11,0.283c-0.013,0.033-0.032,0.068-0.035,0.102c-0.01,0.133-0.016,0.265-0.021,0.396
				c-0.004,0.098-0.043,0.136-0.126,0.12c0.006-0.143,0.012-0.276,0.017-0.411c-0.018,0-0.035,0.001-0.054,0.002
				c-0.058,0.32-0.116,0.641-0.176,0.961c0.012-0.005,0.022-0.01,0.033-0.016c0.021,0.05,0.07,0.104,0.06,0.148
				c-0.047,0.191-0.114,0.38-0.172,0.569c-0.011,0.038-0.012,0.079-0.018,0.118l0.001-0.001l0.002-0.004v0.003
				c0.038-0.021,0.078-0.041,0.156-0.084c-0.021,0.129-0.039,0.226-0.058,0.322c-0.021,0.004-0.042,0.008-0.063,0.011
				c-0.012-0.083-0.023-0.165-0.035-0.249l-0.002,0.001c-0.021,0.097-0.038,0.193-0.059,0.29c-0.077,0.364-0.046,0.703,0.058,1.025
				c0.072,0.228,0.132,0.463,0.278,0.641c0.117,0.14,0.209,0.311,0.344,0.424c0.158,0.134,0.348,0.226,0.529,0.327
				c0.053,0.029,0.119,0.032,0.181,0.047c0.13,0.03,0.28,0.027,0.388,0.097c0.184,0.116,0.387,0.059,0.576,0.007
				c0.148-0.04,0.297-0.099,0.444-0.163c-0.181,0.148-0.401,0.282-0.526,0.484c-0.313,0.062-0.489,0.354-0.393,0.662l0.009,0.032
				c0.123,0.404,0.43,0.835,0.89,0.864l0.028,0.001c0.736,0.02,1.445-0.165,2.165-0.29c-0.25,0.152-0.485,0.33-0.725,0.503
				c-0.22,0.159-0.476,0.303-0.532,0.591c-0.536,0.148-1.053,0.354-1.592,0.496l-0.18,0.049c-0.34,0.092-0.679,0.197-1.021,0.288
				c-0.351,0.093-0.82,0.133-1.133,0.323c-0.652,0.399,0.016,1.475,0.618,1.513l0.051,0.001l0.146-0.008
				c1.527-0.074,3.049-0.453,4.525-0.836c1.527-0.397,3.07-0.739,4.586-1.179c2.871-0.834,5.737-1.711,8.627-2.484l0.16-0.043
				l0.394-0.104c0.155-0.042,0.309-0.083,0.463-0.125l0.049-0.014c1.096-0.297,2.187-0.665,3.268-1.011
				c0.521-0.167,1.038-0.352,1.558-0.525c0.548-0.185,1.104-0.372,1.652-0.57l0.145-0.052c0.49-0.174,2.009-0.394,1.536-1.237
				l-0.013-0.021c-0.221-0.646-0.854-0.725-1.446-0.758c-0.725-0.042-1.449-0.059-2.174-0.01l-0.108,0.009
				c-0.253,0.016-0.504,0.038-0.756,0.062l-0.198,0.019c-0.043,0.003-0.085,0.014-0.126,0.024l-0.013,0.003
				c-0.375,0.01-0.857-0.051-1.212,0.087c-0.094-0.015-0.189-0.017-0.285-0.008c1.458-0.57,2.922-1.125,4.397-1.642l0.157-0.054
				c0.778-0.282,1.557-0.579,2.324-0.892c0.025-0.004,0.046-0.011,0.065-0.018l0.142-0.043c0.709-0.211,1.424-0.475,2.112-0.744
				c0.769-0.307,1.564-0.543,2.335-0.848l0.165-0.064c0.539-0.209,1.065-0.45,1.604-0.659l0.022-0.009
				C121.321,48.176,121.85,47.854,121.688,47.365z M113.631,39.273l-0.041-0.001l-0.054-0.086
				C113.574,39.191,113.605,39.216,113.631,39.273z M106.087,34.28c0.012,0.011,0.022,0.022,0.034,0.032
				c-0.041,0.053-0.081,0.104-0.123,0.157c-0.012-0.01-0.026-0.021-0.037-0.03C106.003,34.387,106.045,34.334,106.087,34.28z
				 M111.489,45.817c-0.009-0.027-0.018-0.051-0.027-0.071c0.02-0.021,0.04-0.043,0.065-0.072
				C111.525,45.736,111.51,45.782,111.489,45.817z M106.64,42.446c-0.058,0.026-0.12,0.055,0.013-0.007
				c0.564-0.257,1.05-0.657,1.619-0.908c0.267-0.117,0.511-0.265,0.76-0.416c0.283-0.172,0.604-0.289,0.897-0.444
				c0.534-0.281,1.165-0.427,1.671-0.763c0.217-0.146,0.438-0.177,0.671-0.275c0.134-0.057,0.284-0.068,0.423-0.107
				c0.127-0.037,0.181-0.163,0.293-0.194l0.006,0.049l0.005,0.006L113,39.44l0.033-0.005l0.133,0.186
				c-0.028,0.016-0.052,0.038-0.047,0.095c-0.037-0.02-0.073-0.038-0.146-0.073c-0.018,0.048-0.039,0.116-0.066,0.2
				c-0.11-0.008-0.205,0.056-0.231,0.19c-0.133,0.033-0.121,0.086-0.214,0.187c-0.106,0.115-0.245,0.192-0.362,0.291
				c-0.097-0.064-0.144-0.052-0.128,0.068c0.002,0.02-0.025,0.051-0.039,0.061c-0.103-0.046-0.122,0.151-0.198,0.107
				c-0.171-0.088-0.319,0.198-0.439,0.286c-0.148,0.108-0.416,0.309-0.39,0.518c-0.332-0.064-0.328,0.32-0.654,0.249
				c-0.016,0.252-0.186,0.473-0.442,0.53c0.051-0.108,0.153-0.181,0.25-0.259c0.012-0.011,0.007-0.043,0.009-0.059
				c-0.093,0.044-0.319,0.102-0.353,0.214c-0.031,0.113-0.116,0.194-0.238,0.149c-0.118,0.084-0.234,0.174-0.359,0.248
				c-0.062,0.035-0.017,0.105-0.079,0.148c-0.058,0.039-0.13,0.011-0.192,0.04c-0.107,0.053-0.146,0.207-0.254,0.271
				c-0.192,0.11-0.346,0.252-0.513,0.41c-0.171,0.171-0.419,0.252-0.59,0.428c-0.199,0.205-0.442,0.348-0.647,0.548l-0.09-0.058
				l-0.217,0.154l-0.116,0.084l0.014,0.045c-0.1,0.155-0.216,0.22-0.393,0.227c0,0.247-0.224,0.311-0.34,0.469
				c-0.038-0.018-0.072-0.035-0.072-0.035c-0.126,0.1-0.25,0.2-0.369,0.309c-0.067,0.062-0.06,0.182-0.128,0.252
				c-0.006-0.041-0.012-0.084-0.026-0.172c-0.102,0.079-0.202,0.285-0.347,0.264c-0.06-0.004-0.195,0.227-0.229,0.271
				c-0.049-0.005-0.111-0.011-0.173-0.016c-0.041,0.129-0.066,0.257-0.235,0.236c-0.142-0.01-0.173,0.127-0.244,0.208
				c-0.08,0.091-0.207,0.118-0.293,0.214c-0.092,0.106-0.057,0.23-0.224,0.266c-0.099,0.021-0.27-0.016-0.189,0.146
				c0.034,0.078-0.402,0.261-0.458,0.289c-0.13,0.019-0.3,0.054-0.39,0.166c-0.085,0.11,0.016,0.206-0.175,0.14
				c-0.029,0.106-0.133,0.148-0.219,0.212c-0.141,0.101-0.215,0.188-0.314,0.324c-0.077,0.104-0.12,0.07-0.229,0.114
				c-0.105,0.043-0.014,0.153-0.06,0.219c-0.185-0.113-0.408,0.063-0.532,0.183c0.021,0.02,0.04,0.04,0.062,0.062
				c-0.135,0.148-0.334,0.229-0.509,0.314c-0.156,0.076-0.114,0.152-0.247,0.262c0.009-0.03,0.019-0.062,0.027-0.093
				c-0.015,0.001-0.03,0.001-0.045,0.001c-0.075,0.094-0.144,0.25-0.289,0.191c-0.049-0.022-0.14,0.124-0.158,0.15
				c-0.118,0.043-0.141,0.037-0.134,0.167c-0.117,0.097-0.396,0.431-0.546,0.446c-0.231,0.024-0.356,0.192-0.379,0.417
				c-0.512-0.083-0.632,0.379-0.962,0.653c-0.009-0.055-0.016-0.094-0.026-0.15c-0.186,0.123-0.309,0.295-0.478,0.435
				c-0.199,0.162-0.375,0.364-0.561,0.543c-0.016-0.005-0.049-0.015-0.085-0.024c-0.031,0.063-0.059,0.122-0.091,0.188
				c-0.198-0.145-0.891,0.615-1.101,0.728c0.147-0.349,0.428-0.659,0.629-0.981c0.203-0.328,0.4-0.661,0.604-0.99
				c0.191-0.309,0.415-0.597,0.605-0.909c0.085-0.14,0.226-0.19,0.31-0.318c0.088-0.131,0.126-0.238,0.283-0.3
				c0.103-0.113,0.264-0.212,0.339-0.336c0.055-0.088,0.113-0.375,0.266-0.316c0.15-0.141,0.298-0.291,0.46-0.418
				c0.066-0.052,0.06-0.15,0.094-0.221c0.045-0.094,0.148-0.187,0.238-0.236c0.014-0.175,0.062-0.058,0.166-0.112
				c0.22-0.114,0.425-0.411,0.601-0.585c0.367-0.364,0.771-0.703,1.114-1.082c0.171-0.188,0.419-0.331,0.611-0.501
				c0.224-0.196,0.479-0.353,0.702-0.547c0.36-0.311,0.75-0.572,1.138-0.848c-0.027-0.013-0.062-0.029-0.117-0.058
				c0.053-0.06,0.104-0.111,0.153-0.164c0.01,0.008,0.019,0.015,0.029,0.023c-0.012,0.042-0.025,0.086-0.048,0.165
				c0.121-0.068,0.244-0.218,0.387-0.216c0.069,0.004,0.133-0.117,0.181-0.15c0.146-0.104,0.295-0.209,0.442-0.312
				c0.253-0.177,0.522-0.446,0.805-0.566l0.006,0.007l0.244-0.111l0.001-0.057c0.16-0.137,0.33-0.241,0.521-0.322
				C106.257,42.715,106.429,42.547,106.64,42.446z M110.937,42.539c0.018-0.025-0.021,0.02-0.012,0.015
				c-0.01,0.006-0.02,0.014-0.028,0.021c-0.009-0.183,0.026-0.216,0.241-0.264c0.001,0.061,0.001,0.125-0.002,0.196
				c-0.017,0-0.035,0.002-0.055,0.004C111.026,42.429,110.978,42.486,110.937,42.539z M110.985,42.734c0,0-0.011,0.012-0.014,0.018
				c-0.061,0.032-0.118,0.064-0.178,0.096l-0.018-0.001c-0.003-0.062,0.014-0.111,0.035-0.157l0.158,0.049L110.985,42.734z
				 M110.622,42.837c-0.149,0.083-0.265,0.147-0.377,0.211C110.311,42.892,110.425,42.828,110.622,42.837z M106.852,44.887
				c-0.039,0.027-0.089,0.043-0.15,0.049c0.008-0.013,0.017-0.025,0.021-0.035l0.006-0.004c0.056-0.002,0.104-0.014,0.148-0.03
				C106.845,44.878,106.838,44.893,106.852,44.887z M96.903,49.087c0.047-0.078,0.092-0.157,0.141-0.235l0.163-0.026
				c-0.085,0.107-0.155,0.227-0.283,0.282C96.917,49.101,96.909,49.094,96.903,49.087z M97.284,48.195
				c0.016,0.026,0.033,0.055,0.048,0.081c0.086-0.054,0.108-0.177,0.18-0.25l0.038,0.062c0.02,0.01,0.044,0.02,0.066,0.029
				c0.031,0.054-0.082,0.348-0.128,0.418l-0.233-0.172c-0.02-0.062-0.021-0.102,0.018-0.152
				C97.262,48.232,97.297,48.218,97.284,48.195z M98.306,47.314l-0.01-0.047c-0.007-0.003-0.013-0.006-0.019-0.009
				c-0.012-0.018-0.025-0.031-0.039-0.048c0.091-0.104,0.164-0.229,0.161-0.314c-0.085,0.076-0.102,0.264-0.25,0.145
				c-0.012,0.024-0.02,0.044-0.03,0.068c-0.055-0.029-0.11-0.045-0.173-0.049l0.038-0.09l0.182-0.047
				c0.035-0.058,0.062-0.115,0.115-0.161l0.297,0.128c0.006,0.146-0.11,0.343-0.255,0.488
				C98.318,47.357,98.315,47.333,98.306,47.314z M98.324,47.381h-0.002l-0.003-0.012C98.321,47.373,98.321,47.377,98.324,47.381z
				 M98.023,47.565c0.011-0.002,0.022-0.008,0.031-0.009c0.028,0.01,0.06,0.02,0.085,0.031c-0.023,0.029-0.055,0.07-0.091,0.117
				c-0.028-0.021-0.056-0.041-0.084-0.061c-0.051,0.063-0.083,0.104-0.111,0.127l-0.029-0.137c-0.039-0.01-0.078-0.016-0.117-0.019
				c0-0.081,0.003-0.163,0.004-0.246c0.017-0.003,0.032-0.006,0.048-0.008c0.021,0.029,0.04,0.06,0.062,0.093
				c0.032-0.018,0.065-0.032,0.093-0.036L98.023,47.565z M104.566,43.1c-0.151-0.01-0.188,0.098-0.236,0.215
				c-0.001-0.089-0.036-0.193-0.152-0.302l-0.02-0.019l-0.097,0.018c-0.005-0.044,0.013-0.082,0.049-0.127
				c0.033,0.023,0.063,0.046,0.097,0.068c0.03-0.056,0.061-0.112,0.098-0.181c0.012,0.005,0.025,0.008,0.04,0.011l-0.006,0.059
				L104.566,43.1z M105.181,42.894c0.031-0.036,0.073-0.062,0.122-0.052c-0.036,0.031-0.072,0.062-0.107,0.092l-0.002-0.001
				L105.181,42.894z M106.612,40.314l-0.192,0.01l0.002-0.001c0.029-0.029,0.057-0.059,0.082-0.087l0.127,0.023
				C106.625,40.281,106.62,40.3,106.612,40.314z M108.613,37.926l-0.027-0.039l0.054,0.016
				C108.639,37.902,108.622,37.918,108.613,37.926z M102.684,42.031l0.015,0.007l0.128-0.091l0.152-0.108l-0.02-0.162
				c0.525-0.601,1.055-1.207,1.6-1.792c0.008-0.132,0.218-0.206,0.303-0.279c0.062-0.055,0.06-0.146,0.125-0.206
				c0.074-0.068,0.161-0.126,0.24-0.188c0.309-0.242,0.548-0.539,0.867-0.774c0.009-0.005,0.018-0.008,0.018-0.008
				c0.502-0.543,1.12-0.993,1.709-1.426c0.302-0.222,0.615-0.43,0.916-0.653c0.158-0.117,0.506-0.378,0.699-0.362
				c0.066-0.104,0.123-0.207,0.264-0.201c0.102,0.004,0.147-0.186,0.25-0.179c0.15,0.01,0.206,0.018,0.344-0.068
				c0.144-0.092,0.303-0.17,0.441-0.024c-0.137,0.076-0.275,0.138-0.326,0.297c-0.052,0.169-0.164,0.152-0.281,0.253
				c0.027,0.029,0.075,0.066,0.071,0.077c-0.061,0.121-0.112,0.257-0.284,0.26c0.084,0.235-0.062,0.287-0.221,0.404
				c-0.146,0.108-0.139,0.215-0.358,0.188c0.121,0.296-0.364,0.349-0.542,0.403c0.042,0.052,0.062,0.073,0.081,0.097
				c-0.009,0.012-0.021,0.02-0.031,0.031l-0.242-0.082c-0.073,0.027-0.148,0.057-0.222,0.086l-0.006,0.013l-0.004-0.009h-0.004
				l0.005,0.014l-0.185,0.465l0.027,0.063l0.02,0.044h0.002c-0.076,0.071-0.148,0.142-0.225,0.214
				c-0.018-0.024-0.033-0.049-0.066-0.097c0.006,0.183-0.065,0.291-0.206,0.352c-0.05,0.024-0.148,0.221-0.217,0.278
				c-0.098,0.082-0.186,0.306-0.338,0.162c-0.08,0.17-0.211,0.274-0.364,0.383c-0.283-0.044-0.146,0.435-0.316,0.546
				c-0.015-0.011-0.024-0.021-0.043-0.03c0.002,0.001,0.018,0.015,0.033,0.036c-0.005,0.003-0.009,0.006-0.013,0.009l-0.028-0.008
				c-0.02-0.032-0.041-0.067-0.072-0.118c-0.022,0.025-0.049,0.053-0.075,0.081l-0.07-0.02c-0.092,0.048-0.144,0.124-0.137,0.23
				c-0.146,0.131-0.224,0.321-0.318,0.49c-0.167-0.149-0.45,0.253-0.552,0.379c0.071,0.008,0.12,0.013,0.17,0.02
				c0.002,0.007,0.006,0.016,0.006,0.016c-0.113,0.057-0.304,0.045-0.348,0.176c-0.198,0.101-0.335,0.245-0.463,0.394
				c-0.138-0.069-0.286-0.115-0.435-0.047l-0.007,0.007l0.03,0.242l-0.078-0.019l-0.013,0.031c-0.006,0.014-0.01,0.026-0.017,0.039
				l-0.173,0.043c-0.008,0.025-0.017,0.051-0.023,0.073l0.288,0.207c-0.033-0.004-0.069-0.012-0.104-0.028
				c-0.213,0.266-0.432,0.509-0.664,0.755c0.105,0.046,0.098,0.042,0.161,0.097c-0.17,0.145-0.29,0.25-0.523,0.269
				c0.072-0.093,0.147-0.187,0.221-0.28c-0.177,0.082-0.299,0.229-0.354,0.414c-0.072,0.24-0.14,0.331-0.316,0.521
				c-0.009-0.018-0.021-0.041-0.033-0.064c-0.149,0.11-0.217,0.326-0.443,0.358c0.04,0.019,0.08,0.038,0.157,0.073
				c-0.075,0.045-0.123,0.093-0.177,0.098c-0.028-0.002-0.087-0.111-0.092-0.117c-0.258,0.134,0.083,0.266-0.163,0.403
				c0.003-0.075,0.005-0.124,0.008-0.172c-0.01-0.01-0.019-0.018-0.025-0.026c-0.055,0.06-0.11,0.118-0.162,0.176
				c0.044,0.027,0.077,0.049,0.111,0.071c-0.061,0.042-0.184,0.218-0.266,0.212c-0.236-0.045-0.552,0.428-0.7,0.575
				c0.028,0.054,0.052,0.101,0.077,0.146c-0.082,0.053-0.208,0.079-0.242,0.185c-0.042,0.133-0.016,0.1-0.141,0.172
				c-0.041-0.078-0.067-0.133-0.094-0.186c-0.237,0.302-0.438,0.634-0.709,0.908c-0.103,0.107-0.158-0.116-0.115-0.19
				c0.086-0.142,0.107-0.288,0.224-0.417c0.021-0.111,0.359-0.703,0.463-0.618c0.116-0.207,0.337-0.363,0.379-0.643
				c0.105-0.024,0.196-0.089,0.228-0.197c0.049-0.172,0.15-0.257,0.275-0.389c0.145-0.152,0.042-0.136,0.098-0.308
				c0.037-0.114,0.161-0.17,0.227-0.266c-0.009,0.037-0.02,0.073-0.029,0.109c0.012,0.006,0.023,0.009,0.034,0.014
				c0.058-0.174,0.091-0.496,0.318-0.512c0.016-0.05,0.035-0.115,0.057-0.181c0.2,0.075,0.122-0.165,0.185-0.266
				c0.082-0.134,0.189-0.241,0.302-0.347c0.015,0.029,0.021,0.048,0.037,0.078c0.147-0.166,0.286-0.233,0.213-0.453
				C102.618,42.122,102.651,42.076,102.684,42.031z M102.629,41.512c-0.049,0.061-0.093,0.12-0.136,0.181
				C102.499,41.566,102.538,41.508,102.629,41.512z M103.804,35.742c0.007-0.004,0.025-0.008,0.06-0.01
				c-0.02,0.034-0.04,0.066-0.06,0.101c-0.019,0.021-0.04,0.042-0.061,0.063l-0.019-0.002
				C103.694,35.812,103.72,35.762,103.804,35.742z M103.469,36.122c0.009,0.01,0.017,0.019,0.024,0.027
				c-0.044,0.043-0.089,0.087-0.133,0.132c-0.011-0.011-0.022-0.022-0.033-0.035C103.375,36.205,103.422,36.164,103.469,36.122z
				 M102.811,36.74C102.801,36.746,102.772,36.762,102.811,36.74L102.811,36.74L102.811,36.74c0.031-0.011,0.062-0.011,0.093-0.001
				c-0.043,0.05-0.085,0.097-0.128,0.146c-0.019,0.009-0.036,0.018-0.053,0.025c-0.012-0.008-0.023-0.016-0.032-0.025
				C102.73,36.835,102.76,36.77,102.811,36.74z M101.959,37.652c-0.01,0.008-0.02,0.015,0.007-0.006
				C101.966,37.646,101.961,37.65,101.959,37.652c0.004-0.002,0.006-0.005,0.006-0.005c0.033-0.021,0.086-0.016,0.122-0.014
				c-0.017,0.026-0.036,0.046-0.051,0.077l-0.148,0.02c-0.011,0.017-0.024,0.031-0.036,0.046l-0.013-0.009h-0.001
				C101.877,37.727,101.917,37.688,101.959,37.652z M101.57,38.095l0.032,0.025c-0.058,0.104-0.148,0.178-0.212,0.276
				c-0.003,0.005-0.009,0.01-0.013,0.016c-0.017-0.014-0.033-0.025-0.051-0.039C101.408,38.28,101.489,38.188,101.57,38.095z
				 M100.002,40.01c0.015,0.001,0.029,0.006,0.045,0.017c-0.016,0.012-0.032,0.023-0.049,0.034l-0.012,0.047
				c-0.038,0.015-0.078,0.03-0.123,0.049C99.918,40.053,99.957,40.007,100.002,40.01z M98.184,42.655
				c-0.025,0.039-0.051,0.077-0.075,0.116c-0.015,0.009-0.03,0.012-0.046,0.008C98.103,42.739,98.145,42.696,98.184,42.655z
				 M97.195,44.22c-0.03,0.013-0.036,0.013,0.068-0.037c-0.008,0.014-0.012,0.026-0.017,0.041c-0.019,0.029-0.036,0.058-0.054,0.084
				c-0.063,0.063-0.115,0.135-0.147,0.219c0,0-0.007,0.005-0.008,0.008C97.001,44.411,97.052,44.305,97.195,44.22z M95.449,48.297
				c-0.232-0.161,0.077-0.199,0.128-0.27c0.03-0.043,0.016-0.105,0.015-0.153c-0.004-0.113,0.087-0.203,0.14-0.295
				c-0.004,0.068-0.006,0.106-0.011,0.185c0.062-0.125,0.107-0.217,0.163-0.329c-0.086,0.015-0.139,0.023-0.207,0.034
				c0.085-0.095,0.159-0.178,0.258-0.286c0.186-0.015,0.164-0.3,0.199-0.431c0.012,0,0.024,0.001,0.036,0.002
				c0.013,0.025,0.026,0.051,0.044,0.083c0.071-0.148,0.114-0.273,0.217-0.402c0.098-0.124,0.072-0.277,0.157-0.404
				c0.091-0.134,0.19-0.217,0.233-0.371c0.05-0.178,0.23-0.275,0.334-0.419c-0.069,0.039-0.105,0.059-0.144,0.08
				c-0.01-0.01-0.017-0.02-0.025-0.029c0.082-0.069,0.264-0.162,0.283-0.276c0.021-0.112-0.098-0.224,0.088-0.223
				c-0.001-0.038,0.005-0.072,0.013-0.104l0.069-0.106l0.031-0.048c0.036-0.028,0.077-0.054,0.128-0.071
				c-0.1-0.238,0.4-0.868,0.533-1.038c0.004,0.034,0.009,0.067,0.012,0.103c0.012,0.005,0.021,0.008,0.03,0.013
				c0.06-0.134,0.052-0.087,0.019-0.216c-0.019-0.079,0.084-0.08,0.119-0.124c0.016-0.048,0.028-0.097,0.049-0.143
				c0.196-0.113,0.34-0.318,0.345-0.55c0.103-0.163,0.179-0.304,0.336-0.416c-0.022-0.094,0.129-0.111,0.182-0.19
				c0.054-0.079,0.214-0.396,0.298-0.492c0.085-0.097,0.262-0.488,0.46-0.705c0.12-0.011,0.256-0.177,0.235-0.303l0.01-0.003
				l0.015-0.07c0.084-0.057,0.169-0.115,0.257-0.177c-0.042-0.042-0.061-0.063-0.081-0.085c0.175-0.223,0.316-0.403,0.548-0.562
				c0.047-0.029,0.026-0.11,0.024-0.152c-0.003-0.094,0.075-0.133,0.144-0.182c-0.014,0.043-0.026,0.082-0.038,0.12
				c0.016,0.007,0.032,0.014,0.047,0.021c0.061-0.158,0.105-0.299,0.233-0.416c0.098-0.091,0.207-0.131,0.281-0.241
				c0.006-0.01,0.012-0.017,0.017-0.027c0.132-0.077,0.25-0.183,0.308-0.328l0.083,0.025c0.124-0.079,0.165-0.182,0.178-0.257
				c0.096-0.027,0.242-0.107,0.267-0.355l0.003-0.023c0.172-0.161,0.329-0.339,0.487-0.514l0.007-0.004l0.127-0.062l0.131-0.223
				c0.113-0.102,0.219-0.201,0.323-0.313l0.021,0.002l0.039-0.033c0.036-0.028,0.072-0.058,0.106-0.087l0.005-0.062
				c0.092-0.089,0.181-0.18,0.271-0.271h0.028l0.039-0.07c0.294-0.295,0.608-0.59,0.928-0.855c0.102-0.082,0.356-0.377,0.495-0.368
				c0.159,0.01-0.03,0.264-0.09,0.292c0.07,0.123-0.063,0.113-0.13,0.186c0.067,0.006,0.109,0.009,0.16,0.013
				c-0.061,0.078-0.091,0.179-0.161,0.248c-0.108,0.109-0.178,0.116-0.268,0.255c0.011,0.014,0.024,0.026,0.036,0.039
				c-0.043,0.008-0.086,0.019-0.118,0.024c-0.022,0.041-0.041,0.078-0.071,0.134c0.09,0.152-0.155,0.195-0.224,0.242
				c-0.113,0.078-0.219,0.285-0.312,0.394c-0.013-0.008-0.027-0.016-0.039-0.022c0.014,0.029,0.028,0.06,0.033,0.068
				c-0.07,0.052-0.131,0.097-0.193,0.144c0.154,0.112-0.186,0.444-0.328,0.461c-0.013,0.049-0.024,0.098-0.042,0.175
				c-0.052-0.05-0.082-0.079-0.114-0.107c-0.169,0.046-0.148,0.222-0.244,0.34c0.237,0.042-0.145,0.498-0.262,0.522
				c-0.24,0.05-0.179,0.5-0.384,0.486c-0.025-0.001-0.106,0.13-0.113,0.136c-0.108,0.127-0.236,0.141-0.316,0.309
				c-0.056,0.121,0.048,0.21-0.005,0.309c-0.072,0.134-0.274,0.117-0.28,0.3c-0.127,0.019-0.212,0.07-0.168,0.212
				c0.05,0.154-0.066,0.259-0.163,0.357c-0.307,0.305-0.502,0.742-0.747,1.094c-0.143-0.156-0.16-0.036-0.245,0.081
				c0.028,0.027,0.059,0.056,0.09,0.087c-0.032,0.06-0.065,0.114-0.098,0.171c-0.079-0.027-0.15-0.054-0.221-0.08
				c0.012,0.126,0.118,0.361-0.05,0.351c0.03,0.178,0.041,0.18-0.119,0.254c-0.018,0.298-0.28,0.427-0.51,0.602
				c0.021,0.227-0.106,0.54-0.255,0.713l-0.167-0.102l-0.013,0.012c-0.024,0.024-0.05,0.049-0.07,0.077l-0.058,0.071
				c-0.13,0.16-0.242,0.308-0.316,0.502l0.079,0.077c-0.088,0.045-0.17,0.096-0.251,0.142c0.117,0.354,0.013,0.45-0.248,0.706
				c-0.04,0.041-0.263,0.198-0.234,0.28c0.053,0.139-0.009,0.224-0.15,0.233c-0.06,0.161-0.115,0.302-0.167,0.446
				c0,0-0.016,0.005-0.024,0.006c0.01-0.038,0.021-0.076,0.032-0.117c-0.067,0.004-0.104,0.006-0.104,0.006
				c-0.096,0.117-0.174,0.216-0.242,0.302c0.026,0.074,0.045,0.141,0.067,0.208c-0.05-0.01-0.099-0.021-0.187-0.037
				c-0.08,0.16-0.156,0.32-0.264,0.466c-0.133,0.18-0.154,0.372-0.233,0.575c-0.012,0.096-0.022,0.172-0.032,0.248
				c-0.128-0.041-0.396,0.311-0.498,0.391c0,0.112-0.001,0.259,0,0.361c-0.236,0.238-0.453,0.457-0.659,0.663
				c0.11,0.202-0.189,0.345-0.002,0.497c-0.145,0.012-0.374,0.137-0.411,0.291c-0.022,0.094-0.101,0.103-0.164,0.153
				c-0.072,0.06-0.033,0.13-0.062,0.204c-0.043,0.101-0.021,0.236-0.095,0.308c-0.135,0.126-0.154,0.204-0.146,0.391
				c-0.09,0.023-0.168,0.044-0.257,0.067c0.033,0.048,0.155,0.114-0.011,0.132c-0.007,0.001-0.011,0.001-0.011,0.001
				c-0.104,0.137-0.204,0.269-0.305,0.4c-0.094,0.122-0.113,0.223-0.177,0.345c-0.086,0.167-0.365,0.313-0.484,0.478
				c-0.097,0.133-0.283,0.421-0.438,0.48c-0.143,0.054-0.297,0.476-0.379,0.599c-0.051-0.024-0.088-0.04-0.131-0.061
				c0.026-0.073,0.047-0.147,0.081-0.215c-0.003,0.007-0.003,0.007,0.002-0.004c0.064-0.123,0.067-0.129,0.053-0.101
				c0.345-0.656,0.702-1.307,1.01-1.981c0.144-0.317,0.369-0.589,0.505-0.907c0.082-0.199,0.16-0.359,0.273-0.539
				c0.105-0.167,0.24-0.352,0.249-0.557C95.134,48.846,95.213,48.537,95.449,48.297z M99.315,25.214
				c0.072-0.098,0.134-0.206,0.208-0.3c0.132-0.164,0.274-0.317,0.407-0.48c0.096-0.118,0.177-0.25,0.275-0.364
				c0.243-0.281,0.488-0.562,0.741-0.831c0.1-0.106,0.227-0.177,0.335-0.274c0.066-0.061,0.115-0.149,0.181-0.21
				c0.125-0.113,0.244-0.238,0.397-0.312c0.116-0.056,0.254-0.101,0.318-0.263c0.007-0.016,0.041-0.032,0.061-0.032
				c0.233,0,0.408-0.157,0.575-0.343c0.103,0.08,0.207-0.029,0.308-0.071c0.295-0.124,0.312,0.053,0.616,0.068
				c0.06,0.003,0.124-0.021,0.185-0.022c0.086-0.002,0.027,0.082,0.111,0.151c0.224,0.184,0.116,0.57,0.079,0.709
				c-0.104,0.393-0.109,0.191-0.223,0.581c-0.088,0.302-0.201,0.599-0.294,0.899c-0.041,0.13-0.061,0.265-0.094,0.397
				c-0.02,0.074-0.048,0.148-0.076,0.221c-0.122,0.309-0.246,0.616-0.364,0.912c-0.095-0.131-0.188-0.262-0.286-0.394
				c-0.011-0.015-0.023-0.032-0.038-0.039c-0.217-0.096-0.427-0.212-0.653-0.278c-0.24-0.069-0.492-0.127-0.749-0.123
				c-0.223,0.004-0.468-0.001-0.685,0.204c-0.007-0.018-0.015-0.026-0.015-0.036c0.002-0.012,0.009-0.025,0.019-0.052
				c-0.322,0.039-0.623,0.163-0.915,0.342c-0.179,0.11-0.353,0.236-0.533,0.347c-0.062,0.038-0.135,0.049-0.204,0.073
				c-0.004-0.028-0.013-0.046-0.007-0.052C99.102,25.499,99.211,25.358,99.315,25.214z M98.921,25.732
				c0.01,0.012,0.02,0.024,0.029,0.036c-0.063,0.083-0.127,0.167-0.188,0.251C98.751,26.01,98.74,26,98.73,25.99
				C98.793,25.904,98.857,25.818,98.921,25.732z M97.862,26.146c0.02,0.004,0.04,0.008,0.061,0.012
				c-0.018,0.069-0.035,0.139-0.054,0.208c-0.021-0.004-0.042-0.009-0.064-0.013C97.824,26.284,97.842,26.215,97.862,26.146z
				 M96.628,28.111c0.061-0.036,0.199-0.124,0.153-0.282c-0.021-0.071,0.126-0.251,0.21-0.278c0.054-0.016,0.067-0.019,0.056-0.092
				c-0.014-0.078,0.053-0.126,0.165-0.143c-0.049,0.095-0.083,0.166-0.121,0.235c-0.062,0.118-0.125,0.237-0.192,0.353
				c-0.101,0.172-1.295,2.82-1.404,2.985c-0.041,0.061-0.107,0.101-0.186,0.171C95.324,30.84,96.449,28.218,96.628,28.111z
				 M94.78,31.888c0.082-0.174,0.16-0.35,0.252-0.517c0.061-0.11,0.136-0.109,0.171-0.006c0.006,0.018-0.022,0.068-0.045,0.088
				c-0.019,0.014-0.051,0.003-0.095,0.002c0.024,0.2-0.112,0.316-0.189,0.459c-0.012,0.023-0.059,0.027-0.09,0.041
				C94.782,31.932,94.772,31.905,94.78,31.888z M94.564,32.273c0.099-0.018,0.106-0.147,0.18-0.188
				c0.024-0.014,0.063-0.01,0.083,0.006c0.012,0.009,0.009,0.065-0.005,0.083c-0.038,0.049-0.085,0.094-0.133,0.13
				c-0.037,0.027-0.084,0.038-0.138,0.062C94.555,32.333,94.559,32.274,94.564,32.273z M94.822,35.55
				c0.336-0.825,0.677-1.648,1.018-2.472c0.237-0.566,0.534-1.1,0.88-1.604c0.235-0.346,1.562-3.171,1.807-3.51
				c0.345-0.48,0.7-0.96,1.12-1.362c0.222-0.214,0.477-0.386,0.727-0.554c0.337-0.229,0.696-0.357,1.063-0.373
				c0.129-0.005,0.255,0.05,0.368,0.104c0.04,0.02,0.066,0.122,0.056,0.185c-0.061,0.355-0.145,0.707-0.278,1.053
				c-0.104,0.269-0.17,0.552-0.282,0.816c-0.084,0.2-1.209,2.885-1.331,3.083c-0.173,0.282-0.284,0.604-0.423,0.909
				c-0.059,0.132-0.115,0.266-0.177,0.396c-0.069,0.148-0.142,0.296-0.216,0.442c-0.03,0.06-0.073,0.111-0.101,0.171
				c-0.025,0.06-0.038,0.125-0.058,0.188c-0.006,0.021-0.006,0.047-0.018,0.063c-0.16,0.216-0.23,0.478-0.359,0.709
				c-0.097,0.173-0.217,0.333-0.316,0.505c-0.048,0.081-0.068,0.18-0.11,0.266c-0.068,0.143-0.144,0.281-0.219,0.421
				c-0.105,0.2-0.21,0.4-0.321,0.598c-0.092,0.16-0.17,0.341-0.291,0.464c-0.105,0.107-0.115,0.232-0.177,0.344
				c-0.121,0.218-0.237,0.437-0.361,0.651c-0.021,0.037-0.07,0.055-0.093,0.091c-0.069,0.109-0.13,0.227-0.197,0.338
				c-0.031,0.053-0.077,0.098-0.109,0.151c-0.061,0.103-0.115,0.209-0.174,0.312c-0.042,0.071-0.087,0.141-0.138,0.203
				c-0.03,0.076-0.055,0.156-0.092,0.228c-0.079,0.146-0.15,0.307-0.255,0.428c-0.137,0.158-0.19,0.359-0.317,0.518
				c-0.024,0.031-0.055,0.058-0.076,0.091c-0.044,0.078-0.084,0.16-0.126,0.238c-0.027,0.046-0.057,0.09-0.087,0.133
				c-0.055,0.079-0.119,0.153-0.165,0.236c-0.137,0.251-0.266,0.508-0.405,0.758c-0.091,0.162-0.194,0.317-0.294,0.476l-0.007,0.009
				c0.032,0.216-0.171,0.308-0.243,0.471c-0.095,0.218-0.215,0.426-0.331,0.634c-0.063,0.113-0.133,0.23-0.217,0.324
				c-0.135,0.15-0.212,0.329-0.294,0.508c-0.013,0.025-0.02,0.057-0.037,0.07c-0.14,0.109-0.175,0.277-0.247,0.428
				c-0.038,0.077-0.106,0.139-0.148,0.216c-0.125,0.233-0.237,0.475-0.366,0.706c-0.118,0.215-0.261,0.418-0.377,0.635
				c-0.1,0.186-0.176,0.384-0.263,0.577c-0.015,0.032-0.021,0.08-0.044,0.095c-0.204,0.138-0.268,0.388-0.407,0.578
				c-0.144,0.195-0.296,0.383-0.444,0.574c-0.017-0.007-0.032-0.015-0.048-0.021c0.004-0.045,0.001-0.092,0.014-0.134
				c0.138-0.46,0.273-0.921,0.422-1.378c0.158-0.489,0.327-0.975,0.491-1.462c0.172-0.513,0.341-1.026,0.518-1.538
				c0.119-0.35,0.249-0.697,0.371-1.046c0.145-0.413,0.284-0.826,0.43-1.239c0.171-0.488,0.34-0.978,0.518-1.464
				c0.129-0.352,0.273-0.697,0.404-1.048c0.068-0.181,0.123-0.366,0.187-0.549c0.025-0.067,0.059-0.132,0.085-0.199
				C94.446,36.51,94.627,36.028,94.822,35.55z M93.993,33.313c0.018-0.025,0.037-0.06,0.059-0.069
				c0.062-0.026,0.085-0.064,0.097-0.138c0.007-0.046,0.052-0.093,0.101-0.129c-0.035,0.396-0.156,0.76-0.411,1.085
				c-0.009-0.013-0.019-0.021-0.021-0.031C93.794,33.781,93.831,33.538,93.993,33.313z M93.875,35.16
				c0.013,0.005,0.025,0.01,0.039,0.015c-0.015,0.062-0.012,0.143-0.046,0.179c-0.12,0.129-0.177,0.275-0.192,0.445
				c-0.043-0.082-0.046-0.162,0.012-0.259c0.039-0.066,0.059-0.147,0.093-0.219C93.807,35.265,93.844,35.213,93.875,35.16z
				 M93.623,34.332c-0.028,0.031-0.059,0.064-0.09,0.1c-0.032-0.11,0.06-0.316,0.21-0.461c-0.014,0.058-0.029,0.095-0.027,0.129
				c0,0.032,0.021,0.061,0.027,0.093c0.008,0.035,0.018,0.074,0.01,0.11c-0.02,0.095-0.037,0.194-0.076,0.281
				c-0.04,0.087-0.105,0.162-0.158,0.242c-0.015-0.004-0.025-0.007-0.039-0.011c0.022-0.078,0.041-0.159,0.069-0.235
				c0.028-0.079,0.069-0.154,0.104-0.23C93.643,34.344,93.633,34.338,93.623,34.332z M93.432,34.641
				c-0.07,0.274-0.06,0.566-0.243,0.822C93.107,35.303,93.255,34.767,93.432,34.641z M92.745,36.078
				c0.018,0.004,0.034,0.01,0.051,0.015c-0.02,0.092-0.021,0.191-0.104,0.26c-0.012-0.004-0.023-0.008-0.034-0.012
				C92.686,36.253,92.715,36.165,92.745,36.078z M92.659,36.604c0.019,0.086-0.043,0.164-0.121,0.236
				c-0.012-0.006-0.023-0.012-0.035-0.017C92.556,36.745,92.613,36.667,92.659,36.604z M92.618,37.593
				c0.012,0.003,0.022,0.006,0.034,0.009c-0.023,0.049-0.04,0.104-0.073,0.143c-0.015,0.018-0.061,0.002-0.096,0.002
				C92.538,37.684,92.579,37.639,92.618,37.593z M92.332,37.233c0.003-0.008,0.044-0.015,0.052-0.005
				c0.012,0.016,0.021,0.048,0.014,0.068c-0.038,0.098-0.082,0.195-0.131,0.309c-0.029-0.031-0.052-0.045-0.052-0.045
				C92.252,37.446,92.291,37.339,92.332,37.233z M91.931,37.93c0.039-0.075,0.09-0.143,0.143-0.221
				c0.109,0.11,0.081,0.306-0.053,0.473c-0.034-0.041-0.077-0.078-0.102-0.128C91.908,38.023,91.913,37.964,91.931,37.93z
				 M91.776,38.455c-0.003,0.139-0.003,0.264-0.009,0.389c-0.001,0.023-0.028,0.057-0.05,0.071
				c-0.015,0.011-0.048,0.005-0.058-0.009C91.587,38.814,91.639,38.542,91.776,38.455z M91.594,39.047
				c0.017,0.006,0.033,0.012,0.051,0.017c-0.031,0.085-0.061,0.171-0.093,0.256c-0.015-0.005-0.029-0.009-0.044-0.013
				C91.536,39.22,91.565,39.133,91.594,39.047z M91.319,39.405c0.013-0.038,0.045-0.072,0.071-0.104
				c0.003-0.003,0.044,0.02,0.044,0.034c0.002,0.047,0.003,0.103-0.018,0.146c-0.018,0.038-0.063,0.065-0.127,0.128
				C91.301,39.514,91.302,39.458,91.319,39.405z M91.193,39.902c-0.042,0.147,0.151,0.246-0.008,0.425
				C91.102,40.235,91.101,40.004,91.193,39.902z M90.361,43.198c0.085,0.061,0.072,0.136-0.062,0.314
				C90.324,43.39,90.342,43.297,90.361,43.198z M88.967,46.078c0,0.091,0,0.154-0.001,0.238
				C88.864,46.231,88.864,46.196,88.967,46.078z M88.506,51.389c0.005,0.022-0.017,0.059-0.029,0.087
				c-0.095,0.218-0.191,0.437-0.293,0.666c0,0-0.035-0.024-0.031-0.031c0.069-0.143-0.01-0.307,0.11-0.444
				c0.018-0.021-0.001-0.081-0.02-0.122c-0.121,0.366-0.251,0.726-0.295,1.128c-0.075,0.044-0.082,0.137-0.057,0.213
				c-0.042,0.109-0.079,0.192-0.107,0.279c-0.006,0.02,0.006,0.062,0.019,0.066c0.169,0.051,0.072,0.195,0.044,0.312
				c-0.013,0.058-0.043,0.113-0.081,0.168c0.003-0.063,0.009-0.128,0.013-0.191c-0.01-0.003-0.019-0.006-0.027-0.009
				c-0.031,0.045-0.061,0.089-0.097,0.143c-0.038-0.113-0.041-0.221-0.003-0.353c0.048-0.161,0.05-0.329,0.083-0.494
				c0.047-0.229,0.127-0.46,0.152-0.688c0.047-0.427,0.213-0.83,0.318-1.244c0.093-0.357,0.214-0.709,0.32-1.065
				c0.081-0.279,0.156-0.56,0.236-0.84c0.02-0.068,0.047-0.136,0.073-0.202c0.027-0.062,0.068-0.121,0.009-0.175
				c-0.012-0.01,0-0.056,0.006-0.083c0.016-0.069,0.035-0.138,0.055-0.206c0.006-0.024,0.018-0.065,0.028-0.069
				c0.105-0.031,0.116-0.139,0.141-0.22c0.022-0.083,0.018-0.172,0.011-0.259c0.2-0.25,0.228-0.578,0.342-0.869
				c0.124-0.313,0.21-0.64,0.313-0.96c0.096-0.297,0.197-0.593,0.287-0.892c0.028-0.094,0.024-0.193,0.047-0.289
				c0.011-0.049,0.046-0.094,0.066-0.142c0.025-0.05,0.061-0.103,0.065-0.153c0.02-0.173,0.047-0.338,0.165-0.483
				c0.024-0.028,0.018-0.086,0.022-0.104c0.043-0.056,0.088-0.091,0.104-0.136c0.095-0.277,0.184-0.557,0.275-0.835
				c0.014-0.038,0.03-0.08,0.056-0.105c0.071-0.073,0.096-0.145,0.067-0.237c-0.017-0.052,0.064-0.189,0.121-0.222
				c0.013-0.008,0.033-0.022,0.035-0.034c0.011-0.158,0.15-0.295,0.113-0.468c-0.012-0.06,0.024-0.18,0.07-0.213
				c0.121-0.091,0.144-0.209,0.132-0.324c-0.014-0.112,0.021-0.173,0.107-0.226c0.013-0.008,0.021-0.027,0.039-0.052
				c-0.034-0.003-0.062,0-0.084-0.008c-0.019-0.006-0.044-0.021-0.047-0.038c-0.002-0.016,0.017-0.048,0.032-0.062
				c0.039-0.037,0.081-0.068,0.122-0.103v-0.003c0,0,0.002-0.008,0.004-0.011c0.022-0.139,0.036-0.279,0.136-0.39
				c0.01,0.003,0.02,0.006,0.029,0.01c-0.014,0.058-0.027,0.115-0.041,0.174l0,0l0.002-0.004v0.001
				c0.024-0.034,0.056-0.065,0.07-0.102c0.066-0.162,0.165-0.329,0.181-0.489c0.034-0.355,0.275-0.635,0.354-0.969
				c0.023-0.101,0.09-0.194,0.126-0.294c0.025-0.071,0.034-0.146,0.056-0.239c0.032-0.045,0.081-0.111,0.129-0.178
				c-0.009-0.008-0.017-0.016-0.024-0.023c-0.023,0.014-0.046,0.027-0.069,0.041c-0.006-0.01-0.013-0.02-0.013-0.02
				c0.033-0.049,0.072-0.134,0.098-0.133c0.081,0.005,0.095-0.061,0.117-0.114c0.048-0.112,0.095-0.225,0.133-0.34
				c0.012-0.039,0-0.085-0.003-0.141c0.017-0.011,0.04-0.036,0.063-0.04c0.069-0.012,0.086-0.06,0.104-0.129
				c0.037-0.137,0.09-0.271,0.137-0.407c0.044-0.123,0.133-0.239,0.094-0.377c-0.006-0.019,0.004-0.06,0.019-0.075
				c0.162-0.178,0.226-0.401,0.298-0.62c0.003-0.011,0.017-0.02,0.031-0.035c0.068,0.039,0.063,0.114,0.04,0.186
				c-0.076,0.238-0.128,0.477-0.268,0.704c-0.126,0.211-0.222,0.467-0.257,0.705c-0.028,0.185-0.11,0.344-0.152,0.517
				c-0.036,0.151-0.082,0.327-0.176,0.438c-0.155,0.183-0.139,0.4-0.227,0.594c-0.093,0.2-0.14,0.421-0.207,0.632
				c-0.017,0.051-0.03,0.105-0.057,0.151c-0.139,0.234-0.186,0.492-0.256,0.745c-0.029,0.111-0.096,0.216-0.123,0.326
				c-0.09,0.372-0.278,0.708-0.419,1.06c-0.066,0.167-0.152,0.34-0.17,0.507c-0.015,0.139-0.018,0.26-0.104,0.379
				c-0.008,0.011,0.019,0.045,0.014,0.066c-0.02,0.106-0.021,0.221-0.133,0.293c-0.024,0.016-0.046,0.079-0.045,0.116
				c0.005,0.175-0.021,0.229-0.158,0.301c0.015,0.025,0.026,0.051,0.041,0.079c-0.062,0.071-0.164,0.133-0.085,0.248
				c0.009,0.012-0.009,0.062-0.025,0.084c-0.107,0.141-0.174,0.287-0.133,0.46c0.005,0.026-0.011,0.069-0.028,0.101
				c-0.035,0.073-0.119,0.158-0.109,0.212c0.035,0.212-0.178,0.323-0.199,0.507c-0.005,0.04-0.045,0.081-0.065,0.121
				c-0.013-0.004-0.026-0.008-0.039-0.013c0.01-0.118,0.021-0.237,0.031-0.36c-0.137,0.095-0.145,0.321-0.01,0.477
				c-0.078,0.252-0.168,0.515-0.238,0.78c-0.039,0.143-0.045,0.291-0.064,0.437c-0.002,0.021,0,0.044-0.006,0.064
				c-0.059,0.177-0.127,0.352-0.177,0.53c-0.048,0.17-0.077,0.343-0.119,0.513c-0.008,0.033-0.032,0.066-0.054,0.094
				c-0.02,0.024-0.061,0.04-0.064,0.062c-0.026,0.136-0.04,0.271-0.069,0.406c-0.01,0.056-0.038,0.114-0.068,0.165
				c-0.036,0.062-0.095,0.113-0.122,0.178c-0.074,0.18-0.147,0.36-0.201,0.545c-0.027,0.095-0.101,0.207-0.02,0.3
				c0.011,0.013,0.003,0.072-0.011,0.083c-0.124,0.098-0.122,0.25-0.165,0.376c-0.111,0.335-0.198,0.678-0.308,1.013
				C88.526,51.182,88.481,51.279,88.506,51.389z M88.678,55.38c0.062-0.507,0.121-1.014,0.192-1.521
				c0.042-0.281,0.095-0.564,0.163-0.844c0.089-0.359,0.201-0.715,0.302-1.073c0.149-0.526,0.294-1.055,0.448-1.581
				c0.148-0.503,0.311-1.003,0.461-1.507c0.086-0.286,0.16-0.574,0.239-0.862c0.026-0.099,0.046-0.201,0.09-0.293
				c0.014-0.036,0.093-0.076,0.126-0.066c0.204,0.056,0.404,0.127,0.604,0.188c0.031,0.009,0.069-0.002,0.104-0.007
				c0.056-0.009,0.113-0.033,0.166-0.029c0.25,0.016,0.353-0.046,0.493-0.303c0.133-0.242,0.272-0.479,0.401-0.725
				c0.216-0.416,0.425-0.836,0.637-1.253c0.017-0.03,0.042-0.057,0.061-0.086c0.031-0.05,0.065-0.098,0.09-0.15
				c0.029-0.056,0.049-0.115,0.072-0.173c0.042-0.104,0.08-0.208,0.126-0.31c0.021-0.047,0.05-0.097,0.087-0.128
				c0.11-0.095,0.171-0.21,0.226-0.353c0.084-0.222,0.205-0.431,0.318-0.642c0.022-0.047,0.083-0.071,0.115-0.115
				c0.021-0.029,0.016-0.078,0.032-0.112c0.062-0.126,0.121-0.251,0.19-0.372c0.142-0.254,0.287-0.505,0.431-0.757
				c0.034-0.06,0.07-0.117,0.104-0.177c0.082-0.142,0.182-0.277,0.242-0.426c0.043-0.109,0.096-0.188,0.179-0.256
				c0.037-0.031,0.089-0.082,0.093-0.123c0.012-0.111,0.059-0.197,0.117-0.289c0.078-0.123,0.144-0.253,0.216-0.379
				c0.146-0.256,0.287-0.512,0.436-0.764c0.105-0.178,0.225-0.347,0.328-0.525c0.092-0.156,0.172-0.321,0.257-0.482
				c0.01-0.02,0.012-0.046,0.024-0.062c0.141-0.192,0.283-0.384,0.425-0.576c0.017-0.021,0.046-0.053,0.042-0.066
				c-0.046-0.158,0.108-0.242,0.153-0.368c0.024-0.068,0.112-0.118,0.168-0.178c0.024-0.024,0.065-0.062,0.062-0.077
				c-0.036-0.182,0.128-0.275,0.188-0.413c0.073-0.167,0.184-0.319,0.278-0.478c0.093-0.156,0.184-0.313,0.279-0.469
				c0.102-0.167,0.242-0.305,0.303-0.504c0.022-0.079,0.102-0.144,0.142-0.222c0.066-0.122,0.12-0.25,0.183-0.374
				c0.069-0.143,0.132-0.289,0.215-0.424c0.066-0.108,0.156-0.202,0.234-0.303c0,0,0.021,0.004,0.03,0.006
				c-0.231,0.531-0.446,1.072-0.698,1.594c-0.259,0.537-0.476,1.092-0.729,1.631c-0.252,0.529-0.482,1.066-0.753,1.587
				c-0.272,0.521-0.505,1.064-0.754,1.597c0.018,0.041,0.049,0.086,0.053,0.139c0.002,0.053-0.019,0.115-0.093,0.099
				c-0.078-0.018-0.104,0.038-0.134,0.117c-0.046,0.122-0.114,0.235-0.169,0.354c-0.106,0.232-0.209,0.466-0.312,0.699
				c-0.018,0.039-0.031,0.081-0.049,0.119c-0.07,0.152-0.145,0.305-0.213,0.457c-0.026,0.057-0.039,0.121-0.068,0.176
				c-0.11,0.207-0.233,0.407-0.335,0.618c-0.144,0.302-0.271,0.611-0.408,0.917c-0.084,0.184-0.173,0.366-0.252,0.553
				c-0.029,0.07-0.022,0.155-0.055,0.225c-0.123,0.272-0.265,0.54-0.381,0.816c-0.052,0.125-0.107,0.243-0.173,0.363
				c-0.104,0.189-0.162,0.404-0.25,0.604c-0.079,0.178-0.178,0.346-0.259,0.522c-0.073,0.159-0.129,0.327-0.198,0.488
				c-0.053,0.118-0.129,0.227-0.176,0.347c-0.068,0.168-0.12,0.344-0.18,0.515c-0.015,0.038-0.028,0.079-0.051,0.108
				c-0.23,0.299-0.358,0.653-0.512,0.992c-0.09,0.197-0.149,0.408-0.24,0.604c-0.104,0.225-0.236,0.437-0.345,0.658
				c-0.124,0.251-0.237,0.507-0.354,0.76c-0.01,0.021-0.023,0.039-0.035,0.059c-0.162,0.279-0.319,0.562-0.491,0.837
				c-0.189,0.306-0.392,0.604-0.591,0.903c-0.123,0.188-0.241,0.382-0.377,0.557c-0.172,0.218-0.347,0.439-0.547,0.619
				c-0.193,0.175-0.419,0.302-0.633,0.443C88.714,55.506,88.665,55.482,88.678,55.38z M92.019,56.852
				c-0.405,0.083-0.826,0.217-1.239,0.226c0.537-0.789,1.311-1.365,1.863-2.121c0.079-0.082,0.157-0.163,0.236-0.244
				c0.055-0.057,0.15-0.039,0.22-0.087c0.2-0.139,0.335-0.403,0.497-0.585c0.188-0.211,0.401-0.381,0.622-0.558
				c0.113-0.093,0.495,0.107,0.62,0.146c-0.288,0.305-0.659,0.544-1.046,0.773c-0.168,0.091-0.273,0.227-0.428,0.323
				c-0.032,0.021-0.21,0.188-0.222,0.187c-0.209-0.038-0.319,0.202-0.488,0.273c-0.242,0.104-0.125,0.296-0.062,0.473
				c0.076,0.208,0.358,0.388,0.568,0.4c0.291,0.019,0.533-0.141,0.759-0.306c0.235-0.171,0.423-0.436,0.666-0.584
				c0.282-0.172,0.542-0.441,0.778-0.671c0.256-0.249,0.544-0.463,0.828-0.678c0.11-0.083,0.168-0.207,0.287-0.284
				s0.23-0.129,0.32-0.241c0.739-0.464,1.347-1.096,2.033-1.609c0.122,0.079,0.402-0.27,0.486-0.352
				c0.198-0.194,0.459-0.298,0.662-0.485c0.222-0.207,0.456-0.391,0.665-0.613c0.145-0.153,0.386-0.245,0.561-0.371
				c-0.001-0.029,0.009-0.051,0.028-0.066c0.013,0.01,0.027,0.02,0.04,0.029c0.131-0.105,0.266-0.205,0.39-0.32
				c0.107-0.099,0.179-0.25,0.303-0.329c0.124-0.077,0.253-0.177,0.395-0.22c0.17-0.053,0.145-0.234,0.26-0.314
				c0.121-0.084,0.228-0.158,0.34-0.257c0.106-0.096,0.219-0.101,0.332-0.182c0.277-0.197,0.518-0.45,0.783-0.663
				c0.104-0.083,0.199-0.104,0.31-0.164c0.066-0.035,0.081-0.156,0.147-0.207c0.272-0.204,0.543-0.404,0.84-0.57
				c0.311-0.173,0.594-0.423,0.882-0.632c0.271-0.193,0.62-0.359,0.823-0.618c0.268-0.023,0.363-0.098,0.365-0.337
				c0.023,0.06,0.035,0.089,0.049,0.122c0.048-0.023,0.129-0.048,0.179-0.075c0.056-0.03-0.024-0.112,0.045-0.167
				c0.134-0.106,0.265-0.007,0.391-0.086c0.162-0.101,0.071-0.271,0.312-0.256c0.166,0.011,0.252-0.242,0.349-0.342l0.097,0.035
				c-0.003,0.014-0.008,0.025-0.01,0.038c0.016-0.009,0.035-0.015,0.054-0.021l0.174,0.063l0.078-0.032l0.154-0.068l0.113-0.308
				l0.002,0.002c0.296,0.02,0.56-0.265,0.795-0.431c-0.011,0.046-0.016,0.067-0.019,0.088c0.648-0.36,1.314-0.683,1.972-1.025
				c0.304-0.157,0.636-0.259,0.944-0.407c0.224-0.106,0.503-0.139,0.451-0.436c0.016-0.003,0.03-0.004,0.045-0.009
				c0.018,0.046,0.039,0.092,0.07,0.167c0.189-0.035,0.314-0.127,0.488-0.203c0.218-0.096,0.436-0.136,0.653-0.251
				c0.208,0.128,0.748-0.149,0.955-0.219c0.381-0.126,0.77-0.233,1.161-0.321c0.753-0.17,1.503-0.347,2.269-0.425
				c0.005,0.014,0.01,0.029,0.014,0.044c-0.149,0.162-0.318,0.305-0.485,0.449c-0.188,0.162-0.435,0.191-0.67,0.254
				c0.023,0.084,0.036,0.136,0.041,0.151c-0.035,0.013-0.33,0.067-0.286,0.149c0.073,0.126-0.145,0.14-0.213,0.151
				c-0.161,0.012-0.232,0.167-0.34,0.261c-0.1,0.088-0.334,0.19-0.467,0.186c-0.155-0.005-0.328,0.233-0.414,0.336
				c-0.097,0.115-0.374,0.229-0.408,0.374c-0.035,0.142-0.158,0.006-0.271,0.084c-0.105,0.074-0.206-0.182-0.306-0.017
				c-0.031,0.051-0.01,0.13-0.062,0.169c-0.063,0.05-0.188,0.04-0.266,0.076c-0.175,0.082-0.343,0.194-0.509,0.298
				c0.017,0.132-0.094,0.162-0.198,0.124c-0.092,0.068-0.173,0.125-0.25,0.184c0,0-0.01-0.015-0.014-0.022
				c-0.016,0.045-0.029,0.089-0.043,0.135c-0.039-0.013-0.073-0.024-0.086-0.027c-0.233,0.141-0.427,0.315-0.644,0.472l-0.056-0.044
				l-0.09-0.071l-0.538,0.112l-0.009,0.017l-0.013,0.322l0.005,0.007c-0.113,0.115-0.256,0.209-0.379,0.312
				c-0.089,0.067-0.102,0.227-0.234,0.094c-0.115,0.107-0.237,0.208-0.342,0.328c-0.106,0.126-0.105,0.234-0.259,0.334
				c-0.073-0.109-0.179-0.15-0.226-0.168l-0.018-0.006l-0.307,0.29l-0.04-0.036l-0.018,0.02l-0.152,0.169
				c-0.003-0.013-0.005-0.026-0.008-0.039l-0.025,0.001c-0.122,0.085-0.244,0.169-0.365,0.256c-0.074,0.053-0.048,0.137-0.114,0.198
				c-0.13,0.117-0.513,0.187-0.484,0.418l-0.059-0.013c-0.005-0.025-0.01-0.048-0.022-0.079c-0.022,0.02-0.047,0.039-0.068,0.058
				l-0.316-0.07c-0.043,0.057-0.077,0.101-0.112,0.145l0.021,0.139l-0.146,0.094l-0.043,0.202c-0.169,0.071-0.213,0.136-0.346,0.264
				c0.093,0.062,0.145-0.009,0.191-0.083c0.168,0.051-0.2,0.473-0.292,0.467c-0.035-0.004-0.066-0.057-0.12-0.105
				c0.092-0.039,0.154-0.064,0.223-0.092c-0.024-0.088-0.046-0.178-0.068-0.257c-0.253,0.214-0.509,0.43-0.762,0.644
				c0.017,0.004,0.055,0.015,0.103,0.027c-0.045,0.036-0.085,0.069-0.115,0.094c-0.013-0.012-0.055-0.07-0.081-0.071
				c-0.091,0.007-0.206,0.262-0.251,0.329c-0.084-0.021-0.138-0.033-0.189-0.047c0.034,0.289,0.142,0.211,0.335,0.074
				c-0.042,0.247-0.272,0.295-0.436,0.446c-0.038-0.048-0.076-0.094-0.119-0.146c0.06-0.051,0.089-0.114,0.131-0.181
				c-0.018-0.01-0.063-0.056-0.089-0.049c-0.135,0.028-0.127,0.127-0.234,0.171c-0.145,0.058-0.248,0.183-0.362,0.282
				c-0.169-0.007-0.178,0-0.173,0.166c-0.17-0.093-0.098,0.057-0.172,0.126c-0.203,0.169-0.348,0.353-0.616,0.335
				c0.017,0.026,0.031,0.054,0.043,0.082l-0.257-0.123l-0.063,0.04l-0.199,0.13l0.046,0.26l-0.019-0.035l-0.06-0.004l-0.127-0.01
				l-0.38,0.409l0.004,0.03c0.01,0.065,0.018,0.117,0.026,0.171l0.048,0.047c-0.044,0.115-0.135,0.37-0.301,0.36
				c-0.198-0.014,0.077-0.312,0.114-0.358c-0.029-0.025-0.059-0.049-0.066-0.058c-0.143,0.084-0.272,0.16-0.407,0.239
				c0.124,0.118-0.021,0.184-0.057,0.293c-0.11-0.117-0.311,0.001-0.396,0.102c-0.153,0.18-0.389,0.174-0.551,0.35
				c-0.055,0.06-0.106,0.228-0.207,0.231c-0.106,0.002-0.277,0.059-0.373,0.11c-0.233,0.127-0.475,0.27-0.644,0.475
				c-0.007,0.011-0.015,0.024-0.023,0.032c-0.139,0.103-0.28,0.204-0.43,0.312c-0.018-0.03-0.039-0.071-0.059-0.104
				c-0.287,0.109-0.536,0.256-0.802,0.406c-0.315,0.179-0.684,0.254-0.887,0.57c-0.266,0.078-0.596,0.18-0.818,0.348
				c-0.199,0.151-0.325,0.436-0.62,0.394c-0.192-0.037-0.502,0.326-0.637,0.433c-0.086,0.071-0.229,0.073-0.323,0.14
				c-0.126,0.087-0.262,0.153-0.397,0.22c-0.156,0.078-0.14,0.244-0.296,0.285c-0.231,0.061-0.443,0.167-0.647,0.292
				c-0.524,0.321-1.104,0.487-1.695,0.647c-0.649,0.176-1.304,0.334-1.964,0.468C92.079,56.839,92.077,56.839,92.019,56.852z
				 M107.503,49.453l0.091,0.017l-0.008,0.003c-0.059,0.022-0.115,0.046-0.169,0.07l0.103-0.063L107.503,49.453z M108.49,54.308
				c0.812-0.066,1.63-0.12,2.442-0.138c0.05,0.004,0.094,0.047,0.135,0.069c-0.154,0.153-0.361,0.214-0.561,0.296
				c-0.176,0.07-0.385,0.084-0.521,0.196c-0.123,0.102-0.374,0.139-0.52,0.2c-0.278,0.115-0.561,0.258-0.858,0.316
				c-0.535,0.104-1.028,0.331-1.555,0.478c-0.283,0.08-0.567,0.15-0.851,0.229c-0.07,0.021-0.393,0.269-0.417,0.234
				c-0.091-0.11-0.233,0.048-0.31,0.104c-0.146-0.222-1.077,0.212-1.295,0.281c-0.264,0.084-0.528,0.158-0.792,0.246
				c-0.207,0.07-0.442,0.196-0.665,0.172c-0.045-0.003-0.155,0.06-0.191,0.072c-0.137,0.048-0.284,0.052-0.425,0.074
				c-0.26,0.043-0.454,0.15-0.675,0.285c-0.135-0.215-0.669,0.172-0.854,0.189c-0.364,0.031-0.69,0.217-1.041,0.294
				c-0.167,0.038-0.337,0.074-0.47,0.187c-0.06,0.049-0.195,0.033-0.265,0.034c-0.115,0.001-0.231,0.059-0.339,0.095
				c-0.438,0.146-0.891,0.213-1.321,0.37c-0.672,0.243-1.344,0.367-2.038,0.531c-0.421,0.101-0.786,0.301-1.215,0.343
				c-0.409,0.038-0.799,0.18-1.184,0.311c-0.144-0.088-0.123-0.218-0.228-0.343c0.676-0.405,1.313-0.919,2.022-1.267
				c0.125-0.061,0.201-0.164,0.312-0.224c0.129-0.07,0.241-0.048,0.322-0.19c0.052-0.086,0.29-0.155,0.379-0.216
				c0.134-0.09,0.268-0.187,0.427-0.224c0.023-0.098,0.123-0.113,0.198-0.153c0.093-0.048,0.117-0.15,0.209-0.202
				c0.097-0.055,0.207-0.106,0.312-0.142c0.107-0.036,0.15-0.123,0.247-0.177c0.252-0.139,0.571-0.201,0.843-0.291
				c0.382-0.127,0.766-0.246,1.152-0.358c0.688-0.199,1.376-0.354,2.077-0.503c0.121-0.025,0.219-0.092,0.348-0.103
				c0.143-0.012,0.276-0.006,0.42-0.04c0.29-0.072,0.683-0.104,0.928-0.278c0.375,0.093,0.885-0.086,1.261-0.154
				c0.218-0.04,0.36-0.114,0.577-0.112c0.248,0.001,0.506-0.057,0.75-0.09C106.339,54.566,107.41,54.396,108.49,54.308z
				 M118.784,47.834c-0.221,0.094-0.053,0.022-0.008,0.004c-0.779,0.329-1.557,0.687-2.362,0.941
				c-0.448,0.143-0.88,0.328-1.317,0.503c-0.386,0.154-0.938,0.287-1.233,0.583c-0.119-0.061-0.235-0.066-0.303,0.069
				c-0.008,0.019-0.02,0.025-0.032,0.023c-0.125-0.034-0.348,0.093-0.48,0.113c-0.191,0.029-0.348,0.163-0.527,0.223
				c-0.091,0.03-0.277,0.198-0.353,0.169c-0.167-0.071-0.244-0.001-0.344,0.133c-0.285-0.086-0.562,0.167-0.82,0.244
				c-0.301,0.09-0.496,0.214-0.749,0.408c-0.004-0.014-0.007-0.029-0.01-0.045c-0.34-0.031-0.866,0.197-1.14,0.407
				c-0.138,0.106-0.266,0.112-0.424,0.175c-0.149,0.059-0.311,0.219-0.45,0.309c-0.126-0.272-0.309,0.104-0.39-0.056
				c-0.254,0.051-0.476,0.14-0.706,0.257c-0.107,0.055-0.217,0.107-0.334,0.141c-0.128,0.037-0.239,0.154-0.369,0.174
				c-0.166,0.026-0.274,0.095-0.439,0.131c-0.12,0.026-0.248,0.032-0.362,0.081c-0.074,0.034-0.211,0.153-0.296,0.148
				c-0.187-0.012-0.326,0.094-0.469,0.196c-0.174,0.127-0.362,0.068-0.539,0.156c-0.169,0.084-0.361,0.072-0.522,0.156
				c-0.23,0.12-0.444,0.291-0.678,0.401c-0.013-0.058-0.017-0.092-0.051-0.13c-0.28,0.043-0.513,0.229-0.789,0.267
				c-0.342,0.048-0.609,0.191-0.898,0.353c-0.303,0.17-0.755,0.188-1.087,0.307c-0.294,0.104-0.418,0.32-0.709,0.145
				c0.206-0.17,0.454-0.268,0.681-0.404c0.103-0.063,0.405-0.32,0.354-0.458c0.014-0.005,0.032-0.015,0.047-0.021l0.055,0.062
				l0.515,0.022l0.1-0.096l0.108-0.104l0.013-0.293c0.243-0.173,0.469-0.382,0.726-0.535c0.274-0.163,0.602-0.274,0.765-0.559
				c0.259-0.059,0.508-0.145,0.725-0.341c0.006,0.01,0.015,0.016,0.024,0.017c0.1-0.123,0.306-0.035,0.396-0.156
				c0.121-0.157,0.254-0.208,0.438-0.297c-0.005,0.047-0.008,0.07-0.013,0.115c0.323-0.135,0.647-0.428,0.995-0.467
				c0.211-0.024,0.443-0.11,0.633-0.204c0.171-0.085,0.379-0.311,0.581-0.233c0.149-0.069,0.381-0.231,0.548-0.221
				c0.098,0.006,0.084-0.026,0.155-0.095c0.095-0.091,0.226-0.085,0.344-0.06c0.022,0.009,0.095-0.071,0.095-0.071
				c-0.003-0.016-0.009-0.026-0.015-0.038c0.245-0.034,0.416-0.127,0.645-0.198c0.229-0.069,0.46-0.097,0.685-0.181
				c0.22-0.082,0.405-0.152,0.634-0.204c0.086-0.021,0.162-0.052,0.204-0.135c0.015-0.034,0.24-0.033,0.278-0.038
				c0.005-0.011,0.009-0.021,0.013-0.032c0.019,0.005,0.101,0.05,0.122,0.028c0.122-0.111,0.46-0.145,0.62-0.195
				c0.25-0.078,0.491-0.184,0.736-0.27c0.434-0.156,0.934-0.148,1.334-0.387c0.132-0.076,0.427-0.212,0.58-0.149
				c0.21,0.088,0.342-0.229,0.559-0.148c0.194,0.068,0.477-0.081,0.655-0.149c0.158-0.059,0.325-0.077,0.49-0.113
				c0.07-0.016,0.208-0.091,0.274-0.074c0.48,0.073,1.07-0.145,1.545-0.229c0.522-0.094,1.097-0.205,1.628-0.168
				C118.824,47.785,118.811,47.823,118.784,47.834z"/>
			<path fill-rule="evenodd" clip-rule="evenodd" d="M98.184,42.655C98.145,42.696,98.159,42.694,98.184,42.655L98.184,42.655z"/>
			<path fill-rule="evenodd" clip-rule="evenodd" d="M103.864,35.732c-0.022,0.002-0.04,0.005-0.06,0.01
				C103.785,35.751,103.849,35.758,103.864,35.732z"/>
			<path fill-rule="evenodd" clip-rule="evenodd" d="M97.195,44.22c0.024-0.012,0.065-0.03,0.065-0.03
				C97.238,44.194,97.215,44.207,97.195,44.22z"/>
			<path fill-rule="evenodd" clip-rule="evenodd" d="M103.469,36.122C103.422,36.164,103.478,36.132,103.469,36.122L103.469,36.122z
				"/>
			<path fill-rule="evenodd" clip-rule="evenodd" d="M92.019,56.852c0.013-0.003,0.026-0.006,0.037-0.009
				C92.01,56.853,91.846,56.886,92.019,56.852z"/>
			<path fill-rule="evenodd" clip-rule="evenodd" d="M92.837,53.194l-0.002,0.003c0.009-0.015,0.04-0.075,0.055-0.104
				C92.873,53.127,92.855,53.16,92.837,53.194z"/>
		</g>
		<path d="M84.081,61.811c-0.482-0.09-0.724,0.336-1.144,0.41c-0.629,0.109-1.219,0.079-1.332,0.841
			c-0.208,0.156,0.495,0.772,0.63,0.837c0.279,0.125,1.021,0.208,1.291,0.023c0.418-0.282,1.02-0.696,0.861-1.271
			C84.322,62.413,84.452,61.878,84.081,61.811z"/>
	</g>
</g>
</svg>
