<?xml version="1.0" encoding="utf-8"?>
<!-- Generator: Adobe Illustrator 16.0.3, SVG Export Plug-In . SVG Version: 6.00 Build 0)  -->
<!DOCTYPE svg PUBLIC "-//W3C//DTD SVG 1.1//EN" "http://www.w3.org/Graphics/SVG/1.1/DTD/svg11.dtd">
<svg version="1.1" id="Layer_2" xmlns="http://www.w3.org/2000/svg" xmlns:xlink="http://www.w3.org/1999/xlink" x="0px" y="0px"
	 width="160px" height="110px" viewBox="0 0 160 110" enable-background="new 0 0 160 110" xml:space="preserve">
<g>
	<g>
		<path d="M88.817,47.808c-0.133,0-0.211,0.093-0.225,0.263c-1.064-0.657-2.248-0.986-3.537-0.999
			c-2.196-0.026-3.918,0.696-5.181,2.156c-0.934,1.092-1.565,2.143-1.906,3.155c-0.499,1.735-0.671,3.498-0.499,5.286
			c0.105,1.17,0.355,2.313,0.736,3.471c0.434,1.341,0.986,2.393,1.656,3.143c0.645,0.75,1.38,1.275,2.209,1.578
			c0.631,0.236,1.42,0.381,2.354,0.421c1.078,0.039,2.17-0.236,3.287-0.803c1.013,0,1.709,0.013,2.078,0.039
			c0.354,0.027,0.524-0.092,0.5-0.381v-8.453c0-0.186,0.038-0.316,0.117-0.396l-6.798-0.024v0.631l1.973,0.091
			c0.564,0.065,0.999,0.198,1.288,0.382c0.435,0.29,0.631,0.735,0.566,1.341l-0.014,4.062c-0.014,0.264-0.132,0.579-0.354,0.934
			l-0.619,0.934c-0.196,0.329-0.406,0.539-0.644,0.658c-0.276,0.145-0.672,0.223-1.195,0.223c-0.553,0.014-1.053-0.117-1.514-0.367
			c-0.461-0.277-0.907-0.724-1.328-1.329c-0.367-0.524-0.657-1.551-0.867-3.09c-0.053-0.433-0.158-1.472-0.291-3.102
			c-0.091-1.001-0.104-1.776-0.078-2.328c0.053-1.157,0.304-2.511,0.71-4.063c0.619-2.366,1.828-3.509,3.617-3.418
			c0.695-0.013,1.367,0.132,2.011,0.46c0.447,0.237,0.946,0.592,1.513,1.092c0.368,0.328,0.749,0.894,1.13,1.671l0.566,1.235
			l0.196,0.328c0.078,0.104,0.172,0.145,0.265,0.118c0.156-0.039,0.17-0.21,0.064-0.499C89.552,49.279,88.96,47.808,88.817,47.808z"
			/>
		<path d="M92.931,48.137c0.486-0.041,0.842,0.014,1.078,0.157l0.276,0.236l0.25,0.276c0.25,0.263,0.381,0.592,0.407,1.025
			l-0.026,2.394c0.04,6.64,0.054,10.255,0.026,10.847c-0.04,0.605-0.342,1.157-0.934,1.631c-0.197,0.17-0.552,0.263-1.064,0.289
			c-0.25,0-0.369,0.118-0.369,0.354c0,0.237,0.093,0.343,0.29,0.315l11.414-0.013c1.523-3.773,2.3-5.732,2.325-5.89l0.04-0.316
			c0-0.118-0.026-0.197-0.105-0.25c-0.105-0.078-0.249-0.091-0.42-0.065c-0.447,1.092-1.066,2.209-1.867,3.34
			c-0.513,0.737-1.211,1.327-2.078,1.788c-0.617,0.316-1.17,0.513-1.671,0.578l-1.155,0.027c-0.461-0.027-0.789-0.079-0.974-0.185
			c-0.275-0.132-0.407-0.486-0.407-1.065l-0.052-6.758c1.944-0.066,3.089-0.053,3.43,0.013c0.251,0.052,0.448,0.118,0.605,0.211
			c0.146,0.079,0.355,0.236,0.632,0.46c0.172,0.159,0.395,0.434,0.631,0.867c0.196,0.329,0.328,0.487,0.42,0.461
			c0.158-0.065,0.238-0.184,0.225-0.382l-1.735-5.613c-0.105-0.119-0.25-0.119-0.46,0c0.065,0.302,0.091,0.735,0.065,1.314
			c-0.026,0.617-0.104,1.038-0.236,1.236c-0.198,0.302-0.619,0.512-1.251,0.631l-2.312-0.039l0.039-7.285
			c0-0.434,0.223-0.632,0.657-0.591c0.854-0.053,1.749,0.025,2.696,0.236c0.604,0.131,1.274,0.565,2.01,1.275
			c0.238,0.236,0.607,0.644,1.08,1.209l0.236,0.475c0.105,0.195,0.21,0.327,0.328,0.367c0.342-0.064,0.434-0.263,0.289-0.592
			l-1.275-3.511l-5.68-0.104l-5.996,0.039C92.196,47.979,92.392,48.176,92.931,48.137z"/>
		<path d="M50.278,41.613l-1.984-0.091h-7.732l0.053,0.605c0.512,0.013,0.933,0.065,1.25,0.184c0.329,0.104,0.644,0.303,0.973,0.564
			c0.434,0.369,0.656,0.881,0.684,1.513l0.052,1.577c0.027,11.755,0.04,18.026,0.027,18.829c-0.014,0.696-0.079,1.223-0.198,1.578
			c-0.157,0.473-0.445,0.842-0.854,1.117c-0.592,0.382-1.25,0.539-1.986,0.486v0.631l4.654,0.027l4.418-0.079l0.039-0.67
			c-0.381,0.024-1.012-0.079-1.879-0.33c-0.868-0.262-1.275-1.21-1.223-2.853v-7.706c2.603,0.159,4.681-0.235,6.246-1.222
			c2.287-1.42,3.456-3.774,3.509-7.048c0.027-1.485-0.262-2.787-0.867-3.918c-0.566-1.025-1.328-1.814-2.313-2.34
			C52.355,42.035,51.409,41.745,50.278,41.613z M46.623,42.798c-0.066-0.224,0.026-0.354,0.251-0.382
			c0.512-0.065,1.17-0.065,1.945,0.014c1.235,0.105,2.103,0.421,2.616,0.908c0.618,0.604,1.065,1.419,1.354,2.471
			c0.289,1.092,0.38,2.328,0.276,3.734c-0.105,1.434-0.579,2.801-1.407,4.114c-0.395,0.619-0.828,1.132-1.288,1.526
			c-0.487,0.421-0.973,0.697-1.46,0.802c-1.342,0.316-2.143,0.355-2.419,0.131l0.079-12.528L46.623,42.798z"/>
		<path d="M56.628,47.649v0.46c0.448,0.053,0.802,0.157,1.092,0.316c0.275,0.171,0.421,0.735,0.435,1.695
			c0.064,7.652,0.078,11.847,0.064,12.569c0,0.54-0.092,0.961-0.263,1.276c-0.145,0.315-0.394,0.578-0.736,0.802
			c-0.448,0.289-0.854,0.407-1.196,0.355l-0.026,0.434l10.229,0.092l-0.024-0.592l-1.119-0.092c-0.367-0.066-0.63-0.157-0.788-0.289
			c-0.21-0.158-0.197-0.5,0.039-1.025l2.223-6.692l3.432,0.038c1.038,3.156,1.644,4.918,1.802,5.273
			c0.184,0.407,0.287,0.789,0.327,1.157c0.04,0.539-0.091,0.934-0.406,1.195c-0.475,0.382-1.145,0.553-2.012,0.501l-0.04,0.46h7.836
			l-0.052-0.46c-0.079-0.066-0.474-0.198-1.17-0.421c-0.698-0.224-1.197-1.013-1.5-2.395L69.409,45.94l-1.945,5.456L63.794,62.23
			c-0.289,0.829-0.565,1.487-0.854,1.973c-0.275,0.486-0.525,0.736-0.723,0.736c-0.262,0-0.487-0.105-0.684-0.303
			c-0.435-0.249-0.605-0.895-0.5-1.946c0.012-7.849,0-12.044-0.027-12.621c-0.025-0.396,0-0.697,0.053-0.881l0.277-0.619
			c0.184-0.328,0.657-0.474,1.434-0.433l0.012-0.487H56.628z M69.75,56.037l-2.905-0.052l1.367-4.482L69.75,56.037z"/>
		<path d="M102.792,45.743c0.685-1.158,1.474-2.025,2.381-2.617c0.947-0.604,2.235-0.894,3.879-0.881l-0.08,24.009
			c-0.012,0.224-0.117,0.46-0.301,0.71c-0.211,0.251-0.475,0.474-0.814,0.671c-0.461,0.263-1.053,0.354-1.803,0.251
			c-0.145,0.024-0.223,0.144-0.21,0.354c0.026,0.21,0.145,0.328,0.368,0.341l4.746,0.015c3.313,0.012,5.01,0,5.076-0.055
			c0.053-0.052,0.078-0.156,0.078-0.301c0-0.159-0.053-0.251-0.171-0.289l-0.776-0.065c-0.592-0.027-1.064-0.171-1.434-0.448
			c-0.131-0.104-0.262-0.223-0.394-0.368l-0.289-0.355c-0.236-0.275-0.382-1.013-0.434-2.221l0.079-22.222l1.84,0.198
			c0.711,0.131,1.341,0.367,1.894,0.696c0.815,0.513,1.591,1.446,2.34,2.841c0.066,0.314,0.171,0.46,0.316,0.433
			c0.157-0.025,0.275-0.157,0.355-0.394l-1.802-4.681l-13.99,0.053l-1.604,4.589c-0.053,0.144,0,0.249,0.144,0.301
			c0.198,0.093,0.329,0.054,0.396-0.104L102.792,45.743z"/>
	</g>
</g>
</svg>
