<?xml version="1.0" encoding="utf-8"?>
<!-- Generator: Adobe Illustrator 21.0.2, SVG Export Plug-In . SVG Version: 6.00 Build 0)  -->
<svg version="1.1" id="Layer_2" xmlns="http://www.w3.org/2000/svg" xmlns:xlink="http://www.w3.org/1999/xlink" x="0px" y="0px"
	 viewBox="0 0 160 110" style="enable-background:new 0 0 160 110;" xml:space="preserve">
<style type="text/css">
	.st0{fill:none;}
	.st1{fill:#FFFFFF;}
</style>
<rect class="st0" width="160" height="110"/>
<g>
	<path d="M112.6,55c0,18-14.6,32.6-32.6,32.6C62,87.6,47.4,73,47.4,55S62,22.4,80,22.4C98,22.4,112.6,37,112.6,55"/>
	<path class="st1" d="M71.9,52.5l0,0.5h2.4l0-0.5c-0.5-0.1-0.7-0.5-0.7-1.2l0-1.6l0-1.6c0-0.6,0.2-1.1,0.7-1.2l0-0.5h-2.4V47
		c0.5,0.1,0.7,0.5,0.7,1.2l0,3.1C72.6,51.9,72.4,52.4,71.9,52.5"/>
	<path class="st1" d="M91.1,47.6c0.2,0,0.3,0.2,0.3,0.3c0.1,0.3,0.3,0.6,0.4,1.1c-0.7,0.4-1.3,1.2-1.9,2.4c-0.3-0.3-0.5-0.8-0.5-1.3
		C89.4,48.7,90.5,47.6,91.1,47.6 M88.9,53h1.8c0-1.5,0.7-2.6,1.5-3.1c0.2,0.7,0.5,1.4,0.6,1.7c0.2,0.6,0.1,0.9-0.4,1l0,0.5h2.8v-0.5
		c-0.7-0.2-0.9-0.3-1.2-1.2c-0.3-0.7-0.5-1.2-0.6-1.7c0.5,0.1,0.5,0.4,0.8,0.4c0.3,0,0.4-0.3,0.4-0.6c0-0.5-0.3-0.8-1-0.8
		c-0.2,0-0.4,0-0.6,0.1c0-0.1,0-0.1-0.1-0.2c-0.4-1.1-0.3-1.3,0.3-1.4l0-0.5h-3.6V47c0.2,0,0.3,0.1,0.3,0.3c0,0.3-1.5,1.1-1.5,3.6
		C88.3,51.5,88.5,52.2,88.9,53"/>
	<path class="st1" d="M67,60.1l0,0.5h2.8v-0.5c-0.4-0.2-0.6-0.4-1.4-1.3c-0.4-0.5-0.9-1.1-1.3-1.6c0.5-0.6,1-1.3,1.2-1.6
		c0.6-0.7,0.9-0.9,1.4-1v-0.5h-2.8l0,0.5c0.5,0.1,0.6,0.3,0,1.1c-0.1,0.2-0.3,0.4-0.5,0.7c-0.2-0.3-0.4-0.5-0.5-0.7
		c-0.6-0.7-0.5-1,0-1.1v-0.5h-3v0.5c0.5,0.1,1,0.2,1.6,1c0.2,0.3,0.7,0.9,1.2,1.6c-0.4,0.6-0.9,1.2-1.3,1.6c-0.8,0.9-1,1.1-1.4,1.3
		v0.5h2.8l0-0.5c-0.5-0.1-0.7-0.4-0.4-0.8c0.1-0.2,0.5-0.7,0.9-1.2c0.4,0.6,0.8,1.1,0.9,1.2C67.7,59.8,67.5,60.1,67,60.1"/>
	<path class="st1" d="M71.8,56c0-1,0.5-1.4,1.6-1.4c0.8,0,1.4,0.3,1.4,0.9c0,0.9-0.9,1.7-2.2,1.7c-0.4,0-0.8-0.1-0.8-0.8V56z
		 M72.3,57.8c0.2,0,0.4,0,0.7,0c2.3,0,3.6-1.4,3.6-2.6c0-0.8-0.5-1.1-2-1.1c-0.5,0-1.5,0.1-2.1,0.1h-2.4v0.5
		c0.5,0.1,0.7,0.5,0.7,1.2l0,3.1c0,0.6-0.1,1.1-0.7,1.2l0,0.5h2.4l0-0.5C72,60,71.8,59.6,71.8,59v-0.6
		C71.8,57.9,72.1,57.8,72.3,57.8"/>
	<path class="st1" d="M80.6,60.1v0.5h2.6v-0.5c-1.2-0.2-1.9-1.5-2.7-2.7c0.1,0,0.2,0,0.3,0c1.3,0,2.4-1,2.4-2.2
		c0-0.8-0.4-1.1-2.1-1.1c-0.5,0-1.5,0.1-2.1,0.1h-2.4v0.5c0.5,0.1,0.7,0.5,0.7,1.2l0,3.1c0,0.6-0.2,1.1-0.7,1.2l0,0.5h2.4l0-0.5
		c-0.5-0.1-0.7-0.5-0.7-1.2l0-1.6l0-1.4c0-1,0.5-1.4,1.6-1.4c0.8,0,1.6,0.2,1.6,0.9c0,0.9-0.7,1.1-1.2,1.1c-0.7,0-1.1-0.3-1.4-0.6
		c-0.1,0.2-0.2,0.3-0.4,0.5c1,1.4,1.7,2.6,2,3C80.9,59.8,80.9,60.1,80.6,60.1"/>
	<path class="st1" d="M94.7,56.2c0.2,0.1,0.3,0.2,0.5,0.3c0.6-0.2,1.4-0.6,1.4-1.3c0-0.5-0.4-1.2-2.4-1.2c-2,0-2.8,0.8-2.8,1.3
		c0,1.6,3.8,2.4,3.8,3.8c0,0.5-0.3,1-1.6,1c-0.8,0-1.5-0.3-1.5-0.8c0-0.8,0.5-0.9,0.5-1.3c0-0.2-0.1-0.2-0.2-0.2
		c-0.4,0-1.8,0.9-1.8,2.1c0,0.5,0.4,0.7,1.2,0.7c0.5,0,0.7,0,2,0c1.3,0,1.5,0,2,0c0.8,0,1.2-0.2,1.2-0.7c0-2.2-4.1-3.3-4.1-4.3
		c0-0.3,0.4-0.5,1.2-0.5c0.7,0,1.1,0.2,1.1,0.5C95.2,55.8,94.9,56,94.7,56.2"/>
	<path class="st1" d="M80.8,47.3c0.3-0.3,0.4-0.7,0.3-0.8c-0.2,0-1.1,0-1.9,0c-0.8,0-2.4-0.1-2.9-0.1c-1.1,0-1.6,0.1-1.6,0.6
		c0,1,1.1,2,1.5,2.2c0.1-0.1,0.3-0.2,0.4-0.4c-0.2-0.2-0.3-0.6-0.3-0.9c0-0.6,0.6-1,1.4-1c0.7,0,0.9,0.3,0.9,0.7
		c0,0.3-0.1,0.5-0.4,0.8c-0.2,0.3-3,3.3-3.2,3.6c-0.3,0.3-0.2,0.8-0.2,0.8H81c0.1-0.2,0.2-0.2,0.2-0.7c0-1.2-1.4-2.1-1.8-2.1
		c-0.2,0-0.2,0.1-0.2,0.2c0,0.3,0.5,0.5,0.5,1.3c0,0.5-0.6,0.8-1.4,0.8c-0.5,0-1.1-0.2-1.1-0.7c0-0.2,0.2-0.5,0.5-0.8
		C77.8,50.6,80.4,47.8,80.8,47.3"/>
	<path class="st1" d="M80,84c-16,0-29-13-29-29c0-16,13-29,29-29s29,13,29,29C109,71,96,84,80,84 M80,24.5
		c-16.8,0-30.5,13.7-30.5,30.5c0,16.8,13.7,30.5,30.5,30.5c16.8,0,30.5-13.7,30.5-30.5C110.5,38.2,96.8,24.5,80,24.5"/>
	<path class="st1" d="M73,76.7c0-0.4,0.4-0.7,1.3-0.7c0.4,0,1.1,0.1,1.5,0.4c0.2,0.1,0.3,0.2,0.5,0.3c-0.6,0.5-1.5,0.7-2.1,0.7
		C73.4,77.4,73,77.1,73,76.7 M59.9,45c0.3,0,0.5,0,0.7,0.1c-2.6,1.7-4.9,3.9-6.3,6.7c-0.1,0.2-0.1,0.2-0.1-0.1
		C54.3,48.4,56.8,45,59.9,45 M65.2,40.5c-1,0-1.5-0.4-1.5-1.1c0-0.8,0.8-0.9,0.8-1.8c0-0.5-0.5-1-0.9-1c-0.2,0-0.3,0-0.3,0.1
		c0,0.1,0.2,0.1,0.2,0.4c0,0.9-1.9,0.6-1.9,1.9c0,0.8,0.5,1.5,2.2,1.8c0.3,0.1,0.2,0.1,0,0.1c-0.3,0.1-0.7,0.1-1.3,0.1
		c-1.7,0-2.5-0.6-2.5-1.4c0-1.9,3.3-5.4,6.7-7.4c4.2-2.5,7.1-3.1,8.8-3.1c1.4,0,1.9,0.3,1.9,1.4c0,0.5-0.2,1-0.5,1.5
		c-0.2,0-0.5,0-0.7,0c-3,0-4.1,1.1-4.1,2.4c-1,0-1.6-0.3-1.6-0.9c0-1.3,2.5-1,2.5-2.4c0-0.2-0.1-0.4-0.2-0.4c-0.3,0,0.1,0.8-2.2,1.1
		c-1.5,0.2-2.3,0.6-2.3,1.4c0,1.3,1.5,1.8,3.8,1.8c0,0,0.1,0,0.1,0c0.4,1.2,1.9,1.6,3.5,1.6c1.2-0.1,2,0,2,0.5
		c0,0.6-1.2,0.7-2.5,0.7c-0.1,0-0.3,0-0.4,0c-2.2-1.3-5-2.4-6.9-2.4c-1.3,0-2.3,0.4-2.3,1.5c0,1.1,1.3,1.7,2.1,1.7
		c0.5,0,0.9,0,0.9-0.3c0-0.2-0.9-0.4-0.9-1c0-0.5,0.4-0.7,1.1-0.7c1.3,0,2.9,0.6,4.3,1.3C70.1,38.8,67.6,40.5,65.2,40.5 M73.4,34.4
		C73.4,34.4,73.4,34.4,73.4,34.4c0-1,1.3-1.6,2.4-1.6c0.2,0,0.4,0,0.5,0C75.6,33.6,74.6,34.1,73.4,34.4 M77.8,76.8
		c0.9-0.8,1.4-1.7,1.4-2.6c0-1.1-0.9-1.9-2.4-1.9c-2.5,0-3.1,0.8-6,0.8c-0.6,0-1.4-0.2-1.4-0.8c0-0.7,1-1.1,2.9-1.3
		c2.9-0.3,6.2-1.3,6.2-3.7c0-1.2-0.8-1.9-2.1-1.9c-2.1,0-2.5,1.7-2.8,2.2c-0.5,0.7-0.9,0.1-0.9,0.5c0,0.3,0.5,0.4,0.6,0.4
		c1.5,0,1.2-1.7,2.6-1.7c0.3,0,0.6,0.3,0.6,0.7c0,1.9-2.9,2.6-5.7,2.6c-3.7,0-6.1-0.5-8.2-1.4c0.7,0.1,1.4,0.1,2.1,0.1
		c5.9,0,8.7-2.3,8.7-4c0-1.4-1-2.2-2.5-2.2c-3.7,0-5.2,2.3-7.8,2.3c-0.8,0-1.3-0.1-1.3-0.7c0-0.7,1-1,1-1.8c0-0.4-0.3-0.6-0.5-0.6
		c-0.1,0-0.2,0-0.2,0.1c0,0.1,0.1,0.1,0.1,0.3c0,1.1-2.7,1.1-2.7,2.4c0,1,1.4,1.4,2.4,1.4c3.6,0,5.9-2.2,7.7-2.2
		c1,0,1.6,0.4,1.6,1.5c0,1.3-1.6,2.7-6.5,2.7c-7.8,0-10.4-4.7-10.4-10.8c0-4.9,3.2-8.8,7.4-11.6c0.3,0.3,0.5,0.6,0.5,1
		c0,1.9-3.1,1.5-3.1,2.9c0,1.6,3,1,3,2.1c0,0.5-0.4,0.7-0.4,0.8c0,0.1,0.1,0.1,0.2,0.1c0.5,0,1.3-0.5,1.3-1.5c0-1.2-1.9-0.9-1.9-1.6
		c0-1,3.1-0.7,3.1-3.3c0-0.6-0.3-1.2-0.8-1.7c3.6-1.9,7.7-3,11.2-3c2.3,0,2.4,0.9,2.4,1.2c0,0.4-0.2,0.7-0.5,0.8
		c-0.1,0-0.1,0-0.1,0.1c0,0.1,0.1,0.1,0.2,0.1c1.2,0,2.1-0.7,2.1-1.8c0-1-1.1-2.2-2.7-3.3c0.3,0,0.7,0,1,0c1.2,0,2.3-0.5,2.3-1.2
		c0-2.2-4.6-0.7-5.5-2.4c1.5-0.3,2.8-0.9,3.9-1.8c0.4,0.3,0.6,0.6,0.6,0.9c0,1.1-1.1,0.8-1.1,1.1c0,0.2,0.3,0.4,0.7,0.4
		c0.9,0,1.8-0.6,1.8-1.4c0-0.7-0.5-1.3-1.2-1.6c0.8-0.8,1.2-1.7,1.2-2.4c0-1.5-1.2-2.1-3.2-2.1c-2.3,0-5.6,0.9-9.4,3
		c-2.5,1.4-4.7,3-6.4,4.6c-1.6,1.6-2.7,3.2-2.7,4.4c0,1.4,1.4,2,4.4,2c3.3,0,5.7-1.3,8.2-2.3c1.3-0.5,2.3-0.8,3.5-1
		c1.1,0.7,2,1.4,2.4,1.9c0.1,0.1,0.1,0.1-0.1,0.1c-0.5-0.1-1.1-0.2-1.9-0.2c-2.9,0-7.7,1.1-12,3.5c-0.7-0.4-1.5-0.6-2.2-0.6
		c-5.2,0-7.7,5.7-7.7,11.8c0,1.5,0.1,2.9,0.3,4.2c0.5,2.7,1.6,5.1,3.7,6.9c2,1.8,5.5,4.2,13.3,4.7c-0.4,0-2.1,0.6-2.1,1.6
		c0,0.8,0.9,1.3,2.6,1.3c2.2,0,3.6-0.7,5-0.7c1.4,0,2,0.6,2,1.7c0,0.5-0.2,1-0.4,1.3c-1.3-0.9-3.1-1.6-5.2-1.6
		c-1.8,0-3.6,0.8-3.6,2.1c0,1.2,1.4,1.8,2.5,1.8c0.6,0,0.9-0.2,0.9-0.4c0-0.1-0.1-0.1-0.2-0.1c-0.5,0-1.4-0.5-1.4-1.3
		c0-0.8,0.7-1.3,2-1.3c0.5,0,0.7,0,1,0.1c0.1,0,0.1,0.1,0,0.1c-0.5,0.1-1.2,0.5-1.2,1.3c0,1,1,1.6,2.4,1.6c1,0,2.1-0.4,2.9-1
		c0.5,0.6,0.8,1.2,0.8,1.7c0,0.9-0.8,1.6-2.2,1.6c-0.8,0-1.8-0.2-3-0.5c-1.8-0.5-4.2-1.4-6.3-2.8c-2.9-1.9-4.5-3.2-4.5-4.5
		c0-0.6,0.4-0.9,0.8-0.9c1.6,0,1.4,2.4,3.3,2.4c0.6,0,0.9-0.4,0.9-0.8c0-0.1-0.1-0.2-0.1-0.2c-0.1,0-0.3,0.2-0.6,0.2
		c-0.5,0-0.8-0.4-1-0.8c-0.7-1.3-1.5-2.5-3.2-2.5c-1.2,0-2.1,0.6-2.1,1.7c0,2.3,2.7,4.2,5.4,5.9c2.9,1.8,6.2,3.2,7.9,3.6
		c1.5,0.4,2.8,0.5,3.6,0.5c1.6,0,2.7-0.8,2.7-2.2C79.5,79,78.8,77.8,77.8,76.8"/>
	<path class="st1" d="M85.7,76c0.9,0,1.3,0.3,1.3,0.7c0,0.4-0.4,0.7-1.2,0.7c-0.6,0-1.5-0.2-2.1-0.7c0.1-0.1,0.3-0.2,0.5-0.3
		C84.6,76.1,85.3,76,85.7,76 M105.6,51.9c-1.4-2.8-3.7-5-6.3-6.7c0.2-0.1,0.5-0.1,0.7-0.1c3.1,0,5.6,3.4,5.6,6.8
		C105.8,52.1,105.7,52.1,105.6,51.9 M84.9,38c-1.4,0-2.5-0.1-2.5-0.7c0-0.5,0.9-0.6,2-0.5c1.6,0.1,3.1-0.3,3.5-1.6c0,0,0.1,0,0.1,0
		c2.3,0,3.8-0.5,3.8-1.8c0-0.9-0.8-1.2-2.3-1.4c-2.2-0.3-1.9-1.1-2.2-1.1c-0.1,0-0.2,0.2-0.2,0.4c0,1.4,2.5,1.1,2.5,2.4
		c0,0.6-0.6,0.9-1.6,0.9c0-1.2-1.2-2.4-4.1-2.4c-0.2,0-0.5,0-0.7,0c-0.3-0.5-0.5-1-0.5-1.5c0-1,0.5-1.4,1.9-1.4
		c1.7,0,4.6,0.6,8.8,3.1c3.4,2,6.7,5.5,6.7,7.4c0,0.8-0.8,1.4-2.5,1.4c-0.7,0-1.1,0-1.3-0.1c-0.2,0-0.3-0.1,0-0.1
		c1.6-0.3,2.2-1,2.2-1.8c0-1.3-1.9-1-1.9-1.9c0-0.3,0.2-0.3,0.2-0.4c0-0.1-0.1-0.1-0.3-0.1c-0.4,0-0.9,0.4-0.9,1
		c0,0.8,0.8,1,0.8,1.8c0,0.7-0.5,1.1-1.5,1.1c-2.4,0-4.9-1.7-7.9-2.3c1.4-0.7,3-1.3,4.3-1.3c0.6,0,1.1,0.2,1.1,0.7
		c0,0.6-0.9,0.8-0.9,1c0,0.2,0.4,0.3,0.9,0.3c0.9,0,2.1-0.6,2.1-1.7c0-1.1-1.1-1.5-2.3-1.5c-1.9,0-4.7,1-6.9,2.4
		C85.1,38,85,38,84.9,38 M83.6,32.9c0.2,0,0.3,0,0.5,0c1.1,0,2.4,0.5,2.4,1.5v0C85.5,34.1,84.4,33.6,83.6,32.9 M99.8,43.4
		c-0.8,0-1.6,0.2-2.2,0.6c-4.3-2.4-9.1-3.5-12-3.5c-0.7,0-1.4,0.1-1.9,0.2c-0.1,0-0.1,0-0.1-0.1c0.4-0.5,1.2-1.2,2.4-1.9
		c1.1,0.1,2.2,0.4,3.5,1c2.5,1,5,2.3,8.2,2.3c3,0,4.4-0.7,4.4-2c0-1.2-1-2.8-2.7-4.4c-1.6-1.6-3.9-3.3-6.4-4.6c-3.7-2.1-7.1-3-9.4-3
		c-2,0-3.2,0.6-3.2,2.1c0,0.8,0.5,1.6,1.2,2.4c-0.8,0.4-1.2,0.9-1.2,1.6c0,0.8,0.9,1.4,1.8,1.4c0.4,0,0.7-0.1,0.7-0.4
		c0-0.2-1.1,0-1.1-1.1c0-0.3,0.2-0.6,0.6-0.9c1,0.8,2.4,1.5,3.9,1.8c-0.9,1.7-5.5,0.3-5.5,2.4c0,0.6,1.1,1.2,2.3,1.2
		c0.4,0,0.7,0,1,0c-1.6,1.1-2.7,2.4-2.7,3.3c0,1.1,0.9,1.8,2.1,1.8c0.1,0,0.2-0.1,0.2-0.1c0,0-0.1-0.1-0.1-0.1
		c-0.2-0.1-0.5-0.4-0.5-0.8c0-0.3,0.1-1.2,2.4-1.2c3.4,0,7.6,1.1,11.2,3c-0.5,0.5-0.8,1.1-0.8,1.7c0,2.6,3.1,2.3,3.1,3.3
		c0,0.7-1.9,0.4-1.9,1.6c0,0.9,0.9,1.5,1.3,1.5c0.1,0,0.2,0,0.2-0.1c0-0.2-0.4-0.3-0.4-0.8c0-1.1,3-0.5,3-2.1c0-1.5-3.1-1-3.1-2.9
		c0-0.4,0.2-0.7,0.5-1c4.2,2.7,7.4,6.7,7.4,11.6c0,6.1-2.6,10.8-10.4,10.8c-4.9,0-6.5-1.4-6.5-2.7c0-1.1,0.7-1.5,1.6-1.5
		c1.9,0,4.1,2.2,7.7,2.2c1,0,2.4-0.3,2.4-1.4c0-1.3-2.7-1.3-2.7-2.4c0-0.2,0.1-0.2,0.1-0.3c0-0.1-0.1-0.1-0.2-0.1
		c-0.2,0-0.5,0.2-0.5,0.6c0,0.8,1,1.1,1,1.8c0,0.6-0.5,0.7-1.3,0.7c-2.6,0-4.1-2.3-7.8-2.3c-1.6,0-2.5,0.8-2.5,2.2
		c0,1.7,2.8,4,8.7,4c0.8,0,1.5,0,2.1-0.1c-2.1,0.9-4.5,1.4-8.2,1.4c-2.8,0-5.7-0.7-5.7-2.6c0-0.4,0.3-0.7,0.6-0.7
		c1.4,0,1.1,1.7,2.6,1.7c0.1,0,0.6-0.1,0.6-0.4c0-0.3-0.4,0.3-0.9-0.5c-0.4-0.5-0.7-2.2-2.8-2.2c-1.3,0-2.1,0.7-2.1,1.9
		c0,2.4,3.3,3.4,6.2,3.7c1.9,0.2,2.9,0.6,2.9,1.3c0,0.6-0.8,0.8-1.4,0.8c-2.9,0-3.5-0.8-6-0.8c-1.5,0-2.4,0.7-2.4,1.9
		c0,0.8,0.6,1.8,1.4,2.6c-1.1,1-1.7,2.2-1.7,3.1c0,1.4,1.1,2.2,2.7,2.2c0.8,0,2.1-0.1,3.6-0.5c1.7-0.4,5-1.8,7.9-3.6
		c2.7-1.7,5.4-3.6,5.4-5.9c0-1.1-0.9-1.7-2.1-1.7c-1.7,0-2.5,1.1-3.2,2.5c-0.2,0.4-0.4,0.8-1,0.8c-0.3,0-0.4-0.2-0.6-0.2
		c-0.1,0-0.1,0-0.1,0.2c0,0.4,0.3,0.8,0.9,0.8c1.8,0,1.6-2.4,3.2-2.4c0.4,0,0.8,0.3,0.8,0.9c0,1.2-1.6,2.5-4.5,4.5
		c-2.1,1.4-4.5,2.3-6.3,2.8c-1.2,0.3-2.3,0.5-3,0.5c-1.4,0-2.2-0.6-2.2-1.6c0-0.6,0.3-1.2,0.8-1.7c0.8,0.6,1.9,1,2.9,1
		c1.4,0,2.4-0.5,2.4-1.6c0-0.8-0.7-1.2-1.2-1.3c-0.1,0-0.1-0.1,0-0.1c0.3-0.1,0.5-0.1,1-0.1c1.3,0,2,0.5,2,1.3
		c0,0.8-0.9,1.3-1.4,1.3c-0.1,0-0.2,0-0.2,0.1c0,0.2,0.3,0.4,0.9,0.4c1.1,0,2.5-0.6,2.5-1.8c0-1.3-1.7-2.1-3.6-2.1
		c-2,0-3.8,0.7-5.2,1.6c-0.3-0.4-0.4-0.8-0.4-1.3c0-1.1,0.6-1.7,2-1.7c1.4,0,2.8,0.7,5,0.7c1.7,0,2.6-0.4,2.6-1.3
		c0-0.9-1.7-1.6-2.1-1.6c7.8-0.5,11.3-2.8,13.3-4.7c2.1-1.7,3.2-4.2,3.7-6.9c0.2-1.3,0.3-2.7,0.3-4.2C107.5,49.1,105,43.4,99.8,43.4
		"/>
	<path class="st1" d="M87.6,47.4c0.3-0.3,0.4-0.7,0.3-0.8c-0.2,0-1.1,0-1.9,0c-0.8,0-2.4-0.1-2.9-0.1c-1.1,0-1.6,0.1-1.6,0.6
		c0,1,1.1,2,1.5,2.2c0.1-0.1,0.3-0.2,0.4-0.4c-0.2-0.2-0.3-0.6-0.3-0.9c0-0.6,0.6-1,1.4-1c0.7,0,0.9,0.3,0.9,0.7
		c0,0.3-0.1,0.5-0.4,0.8c-0.2,0.3-3,3.3-3.2,3.6c-0.3,0.3-0.2,0.8-0.2,0.8h6.2c0.1-0.2,0.2-0.2,0.2-0.7c0-1.2-1.4-2.1-1.8-2.1
		c-0.2,0-0.2,0.1-0.2,0.2c0,0.3,0.5,0.5,0.5,1.3c0,0.5-0.6,0.8-1.4,0.8c-0.5,0-1.1-0.2-1.1-0.7c0-0.2,0.2-0.5,0.5-0.8
		C84.6,50.6,87.2,47.8,87.6,47.4"/>
	<path class="st1" d="M99.1,57.7c-0.4,0-1.8,0.9-1.8,2.1c0,0.5,0.4,0.7,1.2,0.7c0.5,0,0.7,0,2,0c1.3,0,1.5,0,2,0
		c0.8,0,1.2-0.2,1.2-0.7c0-2.2-4.1-3.3-4.1-4.3c0-0.3,0.4-0.5,1.2-0.5c0.7,0,1.1,0.2,1.1,0.5c0,0.2-0.2,0.5-0.5,0.7
		c0.2,0.1,0.3,0.2,0.5,0.3c0.6-0.2,1.4-0.6,1.4-1.3c0-0.5-0.4-1.2-2.4-1.2c-2,0-2.8,0.8-2.8,1.3c0,1.6,3.8,2.4,3.8,3.8
		c0,0.5-0.3,1-1.6,1c-0.8,0-1.5-0.3-1.5-0.8c0-0.8,0.5-0.9,0.5-1.3C99.3,57.8,99.2,57.7,99.1,57.7"/>
	<path class="st1" d="M67.7,49.6c-0.4,0-0.8-0.1-0.8-0.8v-0.4c0-1,0.5-1.4,1.6-1.4c0.8,0,1.4,0.3,1.4,0.9
		C69.9,48.8,69,49.6,67.7,49.6 M71.7,47.6c0-0.8-0.5-1.1-2-1.1c-0.5,0-1.5,0.1-2.1,0.1h-2.4V47c0.5,0.1,0.7,0.5,0.7,1.2l0,3.1
		c0,0.6-0.2,1.1-0.7,1.2l0,0.5h2.4l0-0.5c-0.5-0.1-0.7-0.5-0.7-1.2v-0.6c0-0.4,0.3-0.5,0.5-0.5c0.2,0,0.4,0,0.7,0
		C70.4,50.2,71.7,48.8,71.7,47.6"/>
	<path class="st1" d="M83.8,54.2v0.5c0.5,0.1,0.7,0.5,0.7,1.2l0,3.1c0,0.6-0.1,1.1-0.7,1.2l0,0.5h2.4c1.3,0,2.3,0,2.8,0
		c0.8,0,1.2-0.3,1.2-0.8c0-1.2-1.4-2.1-1.8-2.1c-0.2,0-0.2,0.1-0.2,0.2c0,0.3,0.5,0.5,0.5,1.3c0,0.5-0.5,0.9-1.3,0.9
		c-1.3,0-1.8-0.6-1.8-2.1l0-0.7l0-0.2c0.1,0,0.4-0.1,0.7-0.1c0.4,0,1.2,0.1,2,0.1c0.7,0,1.1-0.2,1.1-0.5c0-0.3-0.2-0.5-0.3-0.6
		c-0.1-0.1-0.1,0-0.2,0.1c-0.2,0.2-0.5,0.3-1.1,0.3c-0.7,0-1.5-0.1-2.1-0.1l0-0.5c0-1,0.5-1.4,1.6-1.4c0.6,0,1,0.2,1,0.5
		c0,0.1-0.1,0.2-0.1,0.3c0.1,0.1,0.2,0.2,0.3,0.3c0.6-0.3,1.1-0.8,1.1-1.3c0-0.3-0.1-0.4-0.5-0.4c-0.5,0-2.1,0-2.8,0H83.8z"/>
	<path class="st1" d="M56.4,60.1l0,0.5h2.4c1.3,0,2.3,0,2.8,0c0.8,0,1.2-0.3,1.2-0.8c0-1.2-1.4-2.1-1.8-2.1c-0.2,0-0.3,0.1-0.3,0.2
		c0,0.3,0.5,0.5,0.5,1.3c0,0.5-0.4,0.9-1.3,0.9c-1.3,0-1.8-0.6-1.8-2.1l0-0.7l0-0.2c0.1,0,0.4-0.1,0.7-0.1c0.4,0,1.2,0.1,2,0.1
		c0.7,0,1.1-0.2,1.1-0.5c0-0.3-0.2-0.5-0.3-0.6c-0.1-0.1-0.1,0-0.2,0.1c-0.2,0.2-0.5,0.3-1.1,0.3c-0.7,0-1.5-0.1-2.1-0.1l0-0.5
		c0-1,0.5-1.4,1.6-1.4c0.6,0,1,0.2,1,0.5c0,0.1-0.1,0.2-0.1,0.3c0.1,0.1,0.2,0.2,0.3,0.3c0.6-0.3,1.1-0.8,1.1-1.3
		c0-0.3-0.1-0.4-0.5-0.4c-0.5,0-2.1,0-2.8,0h-2.4v0.5c0.5,0.1,0.7,0.5,0.7,1.2l0,3.1C57.1,59.6,57,60.1,56.4,60.1"/>
	<rect x="47.4" y="22.4" class="st0" width="65.2" height="65.2"/>
</g>
</svg>
