<?xml version="1.0" encoding="utf-8"?>
<!-- Generator: Adobe Illustrator 21.0.2, SVG Export Plug-In . SVG Version: 6.00 Build 0)  -->
<svg version="1.1" id="Layer_2" xmlns="http://www.w3.org/2000/svg" xmlns:xlink="http://www.w3.org/1999/xlink" x="0px" y="0px"
	 viewBox="0 0 160 110" style="enable-background:new 0 0 160 110;" xml:space="preserve">
<style type="text/css">
	.st0{fill:none;}
</style>
<rect class="st0" width="160" height="110"/>
<g>
	<path d="M44.7,46.5C44.7,46.5,44.7,46.6,44.7,46.5C44.7,46.6,44.7,46.6,44.7,46.5c-0.4,1-1,2.2-1.6,3.1c-1.3,1.9-3.1,3-4,2.6
		c-1-0.4-0.7-2.3,0.5-4.1c0.3-0.4,0.6-0.8,0.9-1.1c0,0,0,0,0,0c0,0,0,0,0,0h0c-0.4,0.1-0.8,0.1-1.2,0.2c0,0,0,0,0,0
		c-4.2,5.2-6,11.9-5.8,18v0c0,0,0,0,0,0c0,0,0,0,0,0c-2.5-1-4.3-3.4-4.5-6.5l0,0c-0.3-5.4,4-11,9.7-12.4
		C40.9,45.7,42.9,45.8,44.7,46.5 M39.7,49.6c-0.4,0.9-0.2,1.6,0.4,1.6c0.6,0,1.4-0.7,1.8-1.5c0.4-0.9,0.2-1.6-0.4-1.6
		C41,48.1,40.1,48.8,39.7,49.6"/>
	<path d="M43.1,61.2c-0.4,0.3-0.8,0.5-1.3,0.8c0,0,0,0,0,0c0,0,0,0,0,0c-0.1-1.3-0.4-2.6-0.9-3.6c-1.3-2.8-3.6-3-5.1-0.5
		c-0.9,1.6-1.3,3.8-1.2,5.9c0,0,0,0,0,0c1.6,0.5,3.4,0.6,5.4,0.1c5.7-1.4,10-7,9.7-12.4c-0.3-4.8-4-7.9-8.8-7.6c0,0,0,0,0,0
		c-0.5,0.5-0.9,0.9-1.3,1.4c0,0,0,0,0,0c0,0,0,0,0,0h0c2.8-0.4,5,0.2,6.5,1.4c0,0,0,0,0,0c0,0,0,0,0,0
		C41.1,53.8,41.7,57.8,43.1,61.2C43.1,61.2,43.1,61.2,43.1,61.2C43.1,61.2,43.1,61.2,43.1,61.2"/>
	<path d="M89.8,53.1c1.2,0,2.1,0.3,2.5,0.5c0,0,0,0,0,0l-0.4,2.1c0,0,0,0,0,0s0,0,0,0c-0.5-0.3-1.3-0.5-2.2-0.5
		c-0.7,0-1.2,0.3-1.2,0.8c0,0.4,0.4,0.7,1.2,1.1c1,0.5,2.2,1.3,2.2,2.6c0,0.9-0.3,1.6-0.9,2.2c-0.8,0.8-2,1.2-3.6,1.2
		c-1.2,0-2.4-0.3-3-0.8c0,0,0,0,0,0l0.4-2.2c0,0,0,0,0,0c0,0,0,0,0,0c0.6,0.4,1.9,0.8,2.8,0.8c0.7,0,1.2-0.3,1.2-0.9
		c0-0.5-0.3-0.8-1.2-1.2c-1.4-0.7-2-1.5-2-2.6C85.5,54.5,87.2,53.1,89.8,53.1"/>
	<path d="M58.4,53.1c0.2,0,0.4,0,0.5,0c0,0,0,0,0,0c0,0,0,0,0,0L58.4,56c0,0,0,0,0,0c0,0,0,0,0,0c-0.1,0-0.3,0-0.4,0
		c-2,0-2.7,1.9-3,3.5l-0.7,3.7c0,0,0,0,0,0h-2.8c0,0,0,0,0,0c0,0,0,0,0,0l1.9-9.8c0,0,0,0,0,0h2.5c0,0,0,0,0,0c0,0,0,0,0,0L55.4,55
		c0,0,0,0,0,0c0,0,0,0,0,0C56.2,53.8,57.3,53.1,58.4,53.1"/>
	<path d="M63.3,63C63.3,63,63.3,63,63.3,63l0.2-1.2c0,0,0,0,0,0c0,0,0,0,0,0c-0.5,0.9-1.6,1.5-2.7,1.5c-1.9,0-2.8-1.7-2.8-3.4
		c0-1.9,0.8-3.8,2-5.1c1.1-1.1,2.4-1.6,4-1.6c1.2,0,2,0.3,2.6,1c0.8,1,0.7,2.4,0.5,3.5L66,63c0,0,0,0,0,0L63.3,63
		C63.3,63,63.3,63,63.3,63 M62.2,55.9c-0.8,0.8-1.4,2.2-1.4,3.4c0,1,0.4,1.6,1,1.6c1,0,1.9-1.1,2.3-2.7c0.1-0.4,0.1-0.7,0.2-1
		c0.1-0.3,0.1-0.6,0.1-0.8c0-0.7-0.4-1.1-1-1.1C63,55.3,62.6,55.5,62.2,55.9"/>
	<path d="M99,53.1c1.9,0,3.1,1.4,3.1,3.7c0,2.4-1.1,4.8-3.2,5.9c-1.9,1-3.5,0.6-4-0.2c0,0,0,0,0,0l-0.7,3.7c0,0,0,0,0,0h-2.8
		c0,0,0,0,0,0c0,0,0,0,0,0l2.4-12.8c0,0,0,0,0,0l2.5,0c0,0,0,0,0,0c0,0,0,0,0,0l-0.2,1.3c0,0,0,0,0,0c0,0,0,0,0,0l0,0
		C96.9,53.7,97.9,53.1,99,53.1 M96.5,61.1c1.5,0,2.6-2.1,2.6-4c0-0.5-0.1-1.6-1.2-1.6c-1.1,0-2,1.2-2.3,3.1
		C95.5,59.2,95.2,61.1,96.5,61.1"/>
	<path d="M77.7,49.9h2.8c0,0,0,0,0,0c0,0,0,0,0,0L79,57.7c0,0,0,0,0,0c0,0,0,0,0,0l3.8-4.4c0,0,0,0,0,0h3.1c0,0,0,0,0,0c0,0,0,0,0,0
		c0,0,0,0,0,0L82,57.8l2.4,5.2c0,0,0,0,0,0c0,0,0,0,0,0c0,0,0,0,0,0h-3.1c0,0,0,0,0,0L79,57.9c0,0,0,0,0,0c0,0,0,0,0,0L78,63
		c0,0,0,0,0,0h-2.8c0,0,0,0,0,0c0,0,0,0,0,0L77.7,49.9C77.6,49.9,77.6,49.9,77.7,49.9"/>
	<path d="M125.3,53.1c2,0,3.4,1.2,3.4,2.9c0,0.8-0.3,1.5-0.8,2c-0.9,0.9-2.7,1.3-5.4,1.3h0c0,0,0,0,0,0l0,0c0,0.3,0.1,0.7,0.3,0.9
		c0.4,0.5,1,0.7,1.8,0.7c1.2,0,2.2-0.3,3.3-0.9c0,0,0,0,0,0c0,0,0,0,0,0l-0.5,2.4c0,0,0,0,0,0c-1.4,0.7-3,0.8-3.6,0.8
		c-2.7,0-4.2-1.5-4.2-4.1c0-1.5,0.6-3,1.5-4.1C122.2,53.8,123.7,53.1,125.3,53.1 M126,56c0-0.5-0.4-0.8-1-0.8c-1.2,0-2,1-2.2,1.9
		l0,0c0,0,0,0,0,0h0h0c1.7,0,2.6-0.2,3-0.6C125.9,56.5,126,56.3,126,56"/>
	<path d="M129.8,61.4h-0.1l-0.1,0.3l-0.1,0.3h0.1h0c0.1,0,0.1,0,0.2,0c0,0,0.1,0,0.1,0c0.1,0,0.2-0.1,0.2-0.3c0-0.1,0-0.2-0.1-0.3
		c0,0-0.1,0-0.1,0C129.9,61.4,129.9,61.4,129.8,61.4L129.8,61.4z M129.5,61.3C129.5,61.3,129.5,61.3,129.5,61.3l0.3,0l0,0
		c0.1,0,0.1,0,0.2,0c0.1,0,0.1,0,0.1,0c0.2,0.1,0.2,0.2,0.2,0.3c0,0,0,0.1,0,0.1c0,0.2-0.2,0.4-0.4,0.4l0.2,0.6c0,0,0,0,0,0
		c0,0,0,0,0,0c0,0,0,0,0,0H130c0,0,0,0,0,0l-0.2-0.6l-0.1,0h0h-0.1l-0.1,0.6c0,0,0,0,0,0h-0.2c0,0,0,0,0,0c0,0,0,0,0,0l0.1-0.6v0
		l0.1-0.4L129.5,61.3z M128.5,62c0.1-0.7,0.7-1.3,1.4-1.3c0.7,0,1.2,0.6,1.1,1.3c-0.1,0.7-0.7,1.3-1.4,1.3
		C129,63.3,128.4,62.7,128.5,62 M128.7,62c-0.1,0.6,0.4,1.1,1,1.1c0.6,0,1.1-0.5,1.2-1.1c0.1-0.6-0.4-1.1-1-1.1
		C129.3,60.9,128.7,61.4,128.7,62"/>
	<path d="M107.6,63C107.6,63,107.6,63,107.6,63l0.2-1.2c0,0,0,0,0,0c0,0,0,0,0,0c-0.5,0.9-1.6,1.5-2.7,1.5c-1.9,0-2.8-1.7-2.8-3.4
		c0-1.9,0.8-3.8,2-5.1c1.1-1.1,2.4-1.6,4-1.6c1.2,0,2,0.3,2.6,1c0.8,1,0.7,2.4,0.5,3.5l-1,5.4c0,0,0,0,0,0L107.6,63
		C107.6,63,107.6,63,107.6,63 M106.6,55.9c-0.8,0.8-1.4,2.2-1.4,3.4c0,1,0.4,1.6,1,1.6c1,0,1.9-1.1,2.3-2.7c0.1-0.4,0.1-0.7,0.2-1
		c0.1-0.3,0.1-0.6,0.1-0.8c0-0.7-0.4-1.1-1-1.1C107.3,55.3,106.9,55.5,106.6,55.9"/>
	<path d="M118.2,53.1c0.7,0,1.5,0.1,2,0.3c0,0,0,0,0,0l-0.4,2.3c0,0,0,0,0,0c0,0,0,0,0,0c-0.4-0.2-1-0.4-1.6-0.4
		c-2,0-3.3,1.8-3.3,3.5c0,1.5,1,2,1.9,2c0.8,0,1.5-0.2,2.4-0.6c0,0,0,0,0,0c0,0,0,0,0,0l-0.4,2.4c0,0,0,0,0,0
		c-0.7,0.3-1.7,0.5-2.8,0.5c-2.5,0-4.1-1.6-4.1-4C111.9,55.8,114.6,53.1,118.2,53.1"/>
	<path d="M73.8,53.1c0.7,0,1.5,0.1,2,0.3c0,0,0,0,0,0l-0.4,2.3c0,0,0,0,0,0c0,0,0,0,0,0c-0.4-0.2-1-0.4-1.6-0.4
		c-2,0-3.3,1.8-3.3,3.5c0,1.5,1,2,1.9,2c0.8,0,1.5-0.2,2.4-0.6c0,0,0,0,0,0c0,0,0,0,0,0l-0.4,2.4c0,0,0,0,0,0
		c-0.7,0.3-1.7,0.5-2.8,0.5c-2.5,0-4.1-1.6-4.1-4C67.5,55.8,70.2,53.1,73.8,53.1"/>
</g>
</svg>
