<?xml version="1.0" encoding="utf-8"?>
<!-- Generator: Adobe Illustrator 16.0.3, SVG Export Plug-In . SVG Version: 6.00 Build 0)  -->
<!DOCTYPE svg PUBLIC "-//W3C//DTD SVG 1.1//EN" "http://www.w3.org/Graphics/SVG/1.1/DTD/svg11.dtd">
<svg version="1.1" id="Layer_2" xmlns="http://www.w3.org/2000/svg" xmlns:xlink="http://www.w3.org/1999/xlink" x="0px" y="0px"
	 width="160px" height="110px" viewBox="0 0 160 110" enable-background="new 0 0 160 110" xml:space="preserve">
<g>
	<rect x="81.002" y="43.067" fill="#999999" width="8.503" height="2.293"/>
	<g>
		<path d="M48.757,45.25c0.971,0,1.315,0.661,1.315,1.227c0,0.254-0.096,1.088-1.315,1.088H45.35V45.25H48.757z M43.185,43.067
			v11.594h2.165v-4.913h1.919l3.309,4.913h2.554c0,0-3.293-4.67-3.489-5.017c1.67-0.322,2.594-1.435,2.594-3.168
			c0-2.167-1.329-3.409-3.647-3.409H43.185z"/>
		<path d="M74.371,45.185c0.867,0,1.254,0.612,1.254,1.218c0,0.7-0.468,1.117-1.254,1.117h-3.706v-2.335H74.371z M74.753,49.683
			c0.842,0,1.453,0.58,1.453,1.38c0,0.816-0.652,1.48-1.453,1.48h-4.088v-2.86H74.753z M68.553,43.077v4.655v1.976v4.942h6.416
			c1.941,0,3.35-1.486,3.35-3.536c0-1.286-0.609-2.274-1.674-2.764c0.706-0.45,1.093-1.187,1.093-2.108
			c0-2.187-1.582-3.165-3.15-3.165H68.553z"/>
		<path d="M101.271,46.766l-0.095-0.136c-0.737-1.07-1.723-1.614-2.93-1.614c-2.066,0-3.812,1.764-3.812,3.849
			c0,2.084,1.746,3.847,3.812,3.847c1.193,0,2.221-0.532,2.968-1.542l0.094-0.127l1.862,1.346l-0.104,0.131
			c-1.237,1.554-2.904,2.375-4.82,2.375c-3.484,0-6.212-2.648-6.212-6.029c0-3.382,2.728-6.031,6.212-6.031
			c1.916,0,3.583,0.823,4.82,2.377l0.103,0.127L101.271,46.766z"/>
		<path d="M60.108,44.989c2.082,0,3.841,1.773,3.841,3.875c0,2.1-1.759,3.875-3.841,3.875c-2.081,0-3.841-1.775-3.841-3.875
			C56.268,46.763,58.027,44.989,60.108,44.989 M53.897,48.864c0,3.381,2.728,6.029,6.211,6.029c3.484,0,6.212-2.648,6.212-6.029
			c0-3.382-2.728-6.031-6.212-6.031C56.625,42.833,53.897,45.482,53.897,48.864"/>
		<path d="M110.641,44.989c2.081,0,3.84,1.773,3.84,3.875c0,2.1-1.759,3.875-3.84,3.875c-2.082,0-3.84-1.775-3.84-3.875
			C106.801,46.763,108.559,44.989,110.641,44.989 M104.428,48.864c0,3.381,2.729,6.029,6.213,6.029c3.483,0,6.212-2.648,6.212-6.029
			c0-3.382-2.729-6.031-6.212-6.031C107.156,42.833,104.428,45.482,104.428,48.864"/>
		<polygon points="89.505,49.982 89.505,47.688 81.002,47.688 81.002,49.982 81.003,49.982 81.003,52.377 81.002,52.377 
			81.002,54.671 89.505,54.671 89.505,52.377 83.1,52.377 83.1,49.982 		"/>
		<path d="M110.162,59.794h5.934l-0.009,6.11l-5.942-0.009L110.162,59.794z M110.162,66.526h5.934v0.548l0.695-0.009v-7.894h-7.343
			l0.008,7.902h0.706V66.526z M114.814,64.121v-0.27l0.418-0.009c0.057,0.064,0.111,0.195,0.158,0.278H114.814z M114.592,63.221
			l0.13,0.11l-1.253,0.039v-0.232l1.29,0.018L114.592,63.221z M112.781,61.809h-1.264l-0.009-0.195h1.272V61.809z M114.777,62.553
			h-1.309V62.32l1.309,0.008V62.553z M112.781,62.553h-1.272V62.32h1.272V62.553z M114.777,61.809h-1.309v-0.195h1.309V61.809z
			 M115.9,64.121l-0.39-0.019l0.483-0.185c-0.204-0.372-0.483-0.679-0.604-0.78h0.037V61.03l-1.95-0.011l-0.009-0.185h2.395V60.24
			h-2.404l0.01-0.372h-0.649l-0.011,0.372h-2.404v0.595h2.396l0.009,0.176h-1.959v2.127l1.941,0.008v0.271l-2.518,0.019l0.325,0.557
			l3.558-0.14v0.279h-3.781v0.576l0.967,0.009l-0.27,0.25c0.455,0.195,0.872,0.475,1.151,0.744l0.445-0.456
			c-0.353-0.324-0.715-0.529-0.733-0.547l2.229,0.009c0,0.315-0.028,0.455-0.14,0.474c-0.288,0.019-0.613-0.037-1.013-0.037
			l0.213,0.614h1.106c0.223,0,0.482-0.196,0.482-0.522v-0.528h1.096L115.9,64.121z M104.107,67.104l0.02-2.202
			c0.696,0.994,2.098,1.515,3.473,1.755c0.102-0.212,0.203-0.371,0.363-0.641c-0.957-0.139-1.756-0.399-2.48-0.826
			c-0.251-0.147-0.464-0.344-0.557-0.437l2.646-0.009v-0.65h-3.455v-0.511h-0.732v0.5l-3.418,0.011v0.659h2.591
			c-0.695,0.584-1.801,1.086-3.017,1.291c0.186,0.241,0.261,0.435,0.399,0.641c1.363-0.288,2.655-0.836,3.453-1.802v2.201
			L104.107,67.104z M103.625,62.449v0.429l-2.08,0.009l-0.018-0.456L103.625,62.449z M103.634,60.77l-2.053,0.01l-0.008-0.409
			l2.061,0.019V60.77z M101.555,61.429h2.079v0.362h-2.079V61.429z M104.488,59.683l0.187-0.131
			c-0.241-0.314-0.854-0.77-1.271-0.937l-0.511,0.454c0.426,0.214,0.778,0.429,0.938,0.633l-2.016,0.009
			c0.028-0.057,0.215-0.344,0.354-0.696l-0.633-0.251c-0.436,0.965-1.03,1.912-1.969,2.591c0.251,0.158,0.373,0.271,0.576,0.417
			c0.381-0.286,0.613-0.52,0.715-0.631v2.842h0.688l0.01-0.456l5.888,0.011v-0.659l-3.103,0.009l-0.009-0.438l2.396,0.01l0.01-0.668
			h-2.405V61.42h2.377v-0.65l-2.368,0.01l-0.009-0.409h2.962v-0.668L104.488,59.683z M93.216,64.81v-0.697
			c-0.455,0.167-0.854,0.353-1.122,0.455v-1.876h0.909v-0.659l-0.909,0.01l0.009-1.839h1.03v-0.659l-2.879-0.009v0.678l1.114-0.01
			l-0.01,1.839l-0.919-0.01l-0.009,0.659h0.946v2.146c-0.398,0.148-0.826,0.324-1.402,0.492c0.242,0.241,0.419,0.381,0.612,0.557
			L93.216,64.81z M95.24,61.597l-0.01,1.076h-1.207v-1.067L95.24,61.597z M95.964,59.952l1.218,0.01l-0.02,0.992h-1.188
			L95.964,59.952z M97.153,61.625v1.048l-1.198-0.009v-1.051L97.153,61.625z M94.023,60.945v-0.993l1.217,0.01l-0.01,0.983H94.023z
			 M93.317,59.283v4.048h1.923l-0.01,0.893h-1.848v0.669h1.857l-0.01,1.067h-2.441v0.658h5.637V65.96h-2.479v-1.067h1.848v-0.669
			h-1.83v-0.893h1.886l0.019-4.038L93.317,59.283z M87.151,65.264v0.622l-3.973,0.01l-0.009-0.613L87.151,65.264z M83.16,62.896
			h3.583l0.009,0.576H83.16V62.896z M88.927,60.101v-0.658h-2.535c0.036-0.104,0.093-0.308,0.13-0.55l-0.623-0.231
			c-0.157,0.688-0.417,1.226-0.918,1.765c0.204,0.157,0.353,0.25,0.548,0.398c0.259-0.222,0.435-0.511,0.557-0.714h0.613
			c0.24,0.223,0.426,0.51,0.603,0.881c0.242-0.102,0.428-0.193,0.632-0.324c-0.158-0.288-0.372-0.51-0.428-0.566H88.927z
			 M81.376,61.085c0.474-0.324,0.752-0.631,0.976-0.938h0.539c0.213,0.241,0.372,0.52,0.529,0.892l0.632-0.344
			c-0.149-0.224-0.28-0.501-0.317-0.548l1.402-0.01v-0.659h-2.404c0.028-0.074,0.13-0.278,0.232-0.511
			c-0.223-0.102-0.381-0.186-0.604-0.287c-0.343,0.742-0.761,1.42-1.513,1.902L81.376,61.085z M81.229,62.878l0.697,0.009
			l0.008-1.124h6.093v1.077l0.704,0.009v-1.746h-3.324c-0.11-0.166-0.335-0.547-0.631-0.843l-0.669,0.212
			c0.278,0.27,0.465,0.502,0.53,0.631h-3.408V62.878z M83.17,66.535h3.981v0.549h0.716v-2.479H83.16V64.14l4.299-0.009l-0.01-1.894
			h-4.995l-0.009,4.875h0.733L83.17,66.535z M73.446,60.667c-0.603,0.679-1.206,1.096-1.986,1.328l0.427,0.586
			c0.706-0.344,1.503-0.921,2.033-1.479L73.446,60.667z M71.719,59.544c0.661,0.139,1.208,0.585,1.589,0.947l0.418-0.529
			c-0.492-0.455-0.985-0.762-1.569-0.947L71.719,59.544z M73.568,64.679h4.038v0.397l-4.029-0.007L73.568,64.679z M77.606,63.053
			l-4.029-0.009v-0.361l4.029,0.009V63.053z M77.606,64.075h-4.038V63.64l4.038,0.009V64.075z M76.047,66.239
			c1.226,0.092,2.181,0.361,3.166,0.892l0.391-0.585c-0.826-0.41-1.663-0.707-2.554-0.846l1.263,0.01l-0.009-3.678l-3.771-0.02
			c0.752-0.121,1.458-0.388,2.006-0.982c0.789,0.741,1.568,0.975,2.748,1.17l0.354-0.65c-1.402-0.121-2.109-0.409-2.759-1.059
			c0.065-0.121,0.131-0.269,0.196-0.417l1.234,0.009c-0.037,0.14-0.094,0.268-0.335,0.574l0.604,0.307
			c0.259-0.473,0.492-0.938,0.631-1.56h-3.416c0.027-0.046,0.111-0.241,0.147-0.455l-0.539-0.24
			c-0.296,0.695-0.779,1.438-1.504,1.837l0.594,0.418c0.391-0.25,0.677-0.585,0.892-0.881l0.994-0.009
			c-0.233,0.815-1.339,1.28-2.546,1.363l0.326,0.595h-1.292L72.88,65.7l1.718,0.019c-0.938,0.465-1.94,0.669-3.12,0.726l0.362,0.668
			c1.198-0.094,2.266-0.39,3.296-0.957L74.747,65.7l1.661,0.01L76.047,66.239z M68.524,63.267c-0.193,0.613-0.51,1.021-0.937,1.449
			c-0.287-0.204-0.752-1.039-0.892-1.449H68.524z M65.08,67.056c1.012-0.325,1.839-0.816,2.471-1.346
			c0.548,0.445,1.652,1.178,2.45,1.383l0.456-0.648c-0.91-0.252-1.754-0.633-2.367-1.2c0.677-0.677,1.197-1.542,1.271-2.655h-3.9
			v0.678h0.483c0.251,0.696,0.621,1.375,1.104,1.932c-0.65,0.568-1.486,0.929-2.442,1.235L65.08,67.056z M65.22,62.646
			c0.5-0.307,0.863-0.678,1.087-1.096c0.269-0.502,0.277-1.124,0.306-1.644l1.745,0.009v1.328c0,0.362,0.149,0.762,0.753,0.873
			h1.143v-0.65h-0.929c-0.187,0-0.261-0.083-0.261-0.232l-0.009-1.996h-3.167c-0.009,0.688-0.019,1.346-0.13,1.765
			c-0.12,0.483-0.557,0.835-1.096,1.086L65.22,62.646z M63.548,66.192c0.019,0.111-0.12,0.224-0.213,0.215
			c-0.308,0.009-0.558,0.009-0.976-0.039c0.103,0.288,0.158,0.475,0.232,0.697c0.436,0,0.883,0.065,1.254-0.073
			c0.213-0.085,0.408-0.317,0.408-0.522v-2.654c0.288-0.131,0.659-0.195,1.04-0.372v-0.678l-1.04,0.344v-1.857h1.068v-0.669h-1.068
			v-1.726h-0.706v1.726h-1.207v0.669h1.207v2.099c-0.428,0.148-0.91,0.289-1.513,0.428c0.176,0.25,0.296,0.409,0.436,0.613
			c0.418-0.112,0.817-0.271,1.077-0.354V66.192z M55.971,65.812c-0.992,0.408-2.006,0.539-3.185,0.613l0.333,0.641
			c1.125-0.102,2.138-0.335,3.14-0.789L55.971,65.812z M58.172,61.057h-0.789c-0.01,0,0.009-0.018,0.027-0.046
			c0.027-0.037,0.065-0.082,0.093-0.13h0.669V61.057z M58.831,61.939l0.009-0.334h1.598v-0.549h-1.606v-0.185h0.863v-0.559H57.81
			l0.121-0.278h1.912v0.894l0.706,0.008l0.008-1.578h-3.332c-0.204-0.289-0.539-0.558-0.909-0.743l-0.559,0.437
			c0.362,0.139,0.604,0.251,0.669,0.307h-3.36l-0.011,1.615h0.706v-0.149h0.743l0.009,0.289H53.39v0.565h1.123l-0.009,0.326
			c-0.417,0.027-0.928,0.055-1.532,0.093l0.343,0.548l3.288-0.27v-0.53c-0.557,0.028-1.013,0.094-1.42,0.094v-0.27l1.011,0.009
			v-0.557l-1.011-0.009v-0.298h1.263v-0.529l-2.685,0.009v-0.26l3.584-0.009c-0.084,0.25-0.277,0.576-0.659,0.874l0.214,0.156
			h-0.354v0.549l1.635,0.008l-0.009,0.326h-0.669l-0.01-0.232H56.88v0.771h3.224v-0.789l-0.613,0.009l-0.009,0.242H58.831z
			 M60.854,66.563c-1.029-0.492-2.163-0.779-3.37-0.752l-0.315,0.557c1.281,0.011,2.34,0.223,3.354,0.753L60.854,66.563z
			 M54.708,63.331h4.215v0.252h-4.215V63.331z M58.923,64.893v0.278l-4.215,0.01v-0.288H58.923z M58.914,64.103l0.009,0.271h-4.215
			v-0.279L58.914,64.103z M59.629,65.773l-0.01-3.026h-5.626l0.01,3.026H59.629z M48.366,64.753h-1.438l0.008-1.263h1.421
			L48.366,64.753z M48.356,65.896l0.705-0.01l0.01-3.072H46.23v3.082h0.705l-0.008-0.465h1.429V65.896z M49.962,62.042l-0.008,4.132
			c0,0.14-0.074,0.242-0.205,0.242l-1.206-0.028l0.214,0.696h1.225c0.455,0,0.677-0.361,0.677-0.725v-4.317h0.875v-0.67
			l-5.646-0.009v0.679H49.962z M49.415,61.057v-0.622l1.894-0.009v-0.678l-1.885,0.009v-0.993l-0.714-0.009v1.002h-1.198v0.669
			h1.198v0.631H49.415z M45.265,60.937c-0.399,1.142-1.03,2.182-2.117,2.915l0.593,0.493c0.298-0.232,0.559-0.446,0.661-0.558v3.38
			h0.695v-4.354c0.315-0.438,0.567-1.014,0.8-1.552l-0.371-0.205h0.556v-0.631h1.227v-0.678l-1.217,0.009l-0.01-1.002h-0.695v1.002
			l-1.96-0.009v0.678h1.95l0.01,0.557L45.265,60.937z"/>
	</g>
</g>
</svg>
