<?xml version="1.0" encoding="utf-8"?>
<!-- Generator: Adobe Illustrator 16.0.3, SVG Export Plug-In . SVG Version: 6.00 Build 0)  -->
<!DOCTYPE svg PUBLIC "-//W3C//DTD SVG 1.1//EN" "http://www.w3.org/Graphics/SVG/1.1/DTD/svg11.dtd">
<svg version="1.1" id="Layer_2" xmlns="http://www.w3.org/2000/svg" xmlns:xlink="http://www.w3.org/1999/xlink" x="0px" y="0px"
	 width="160px" height="110px" viewBox="0 0 160 110" enable-background="new 0 0 160 110" xml:space="preserve">
<g>
	<rect x="52.733" y="27.735" fill="#B3B3B3" width="54.533" height="54.53"/>
	<g>
		<path fill="#231F20" d="M57.908,69.848c0-1.364,1.391-1.871,2.586-1.871c1.702,0,2.754,0.883,2.754,2.378v0.103h1.531v-0.103
			c0-2.313-1.689-3.742-4.172-3.742c-2.11,0-4.231,1.021-4.231,3.301c0,4.526,7.28,2.28,7.28,5.443c0,1.636-1.941,2.075-2.962,2.075
			c-1.903,0-3.162-1.019-3.162-2.752v-0.071H56v0.104c0,2.651,1.892,4.079,4.685,4.079c2.242,0,4.499-1.086,4.499-3.5
			C65.184,70.73,57.908,72.803,57.908,69.848z"/>
		<path fill="#231F20" d="M75.455,70.154c0-2.482-1.529-3.541-4.179-3.541c-2.449,0-4.594,1.091-4.594,3.779v0.1h1.533v-0.1
			c0-1.734,1.292-2.415,2.89-2.415c1.904,0,2.788,0.681,2.788,2.209c0,1.188-0.58,1.325-1.663,1.461l-0.584,0.071
			c-2.684,0.306-5.438,0.611-5.438,3.67c0,2.112,1.425,3.403,3.809,3.403c2.077,0,3.4-0.917,3.979-2.176c0,0,0,1.229,0.169,1.837
			h1.518c-0.137-0.343-0.229-1.499-0.229-2.039V70.154z M73.894,73.998c0,0.885-0.307,1.701-0.884,2.312
			c-0.713,0.716-1.733,1.123-2.891,1.123c-1.123,0-2.383-0.614-2.383-2.075c0-1.769,1.902-2.177,3.948-2.417l1.086-0.137
			c0.306-0.032,0.883-0.137,1.123-0.337C73.894,72.803,73.894,73.998,73.894,73.998z"/>
		<polygon fill="#231F20" points="83.923,66.957 80.799,76.698 77.641,66.957 75.867,66.957 79.948,78.453 81.616,78.453 
			85.56,66.957 85.423,66.957 		"/>
		<path fill="#231F20" d="M87.093,62.855c-0.573,0-1.07,0.463-1.07,1.037c0,0.611,0.497,1.074,1.07,1.074
			c0.566,0,1.061-0.454,1.071-1.056C88.153,63.309,87.659,62.855,87.093,62.855z"/>
		<polygon fill="#231F20" points="86.312,66.957 86.312,78.453 87.909,78.453 87.909,66.957 87.807,66.957 		"/>
		<polygon fill="#231F20" points="89.476,62.599 89.476,78.453 91.073,78.453 91.073,62.599 90.97,62.599 		"/>
		<polygon fill="#231F20" points="92.606,62.599 92.606,78.453 94.204,78.453 94.204,62.599 94.101,62.599 		"/>
		<path fill="#231F20" d="M96.991,69.848c0-1.364,1.396-1.871,2.618-1.871c1.7,0,2.76,0.883,2.76,2.378v0.103h1.526v-0.103
			c0-2.313-1.686-3.742-4.205-3.742c-2.104,0-4.231,1.021-4.231,3.301c0,4.526,7.312,2.28,7.312,5.443
			c0,1.636-1.969,2.075-2.989,2.075c-1.869,0-3.161-1.019-3.161-2.752v-0.071h-1.532v0.104c0,2.651,1.891,4.079,4.71,4.079
			c2.247,0,4.506-1.086,4.506-3.5C104.305,70.73,96.991,72.803,96.991,69.848z"/>
	</g>
</g>
</svg>
