<?xml version="1.0" encoding="utf-8"?>
<!-- Generator: Adobe Illustrator 16.0.3, SVG Export Plug-In . SVG Version: 6.00 Build 0)  -->
<!DOCTYPE svg PUBLIC "-//W3C//DTD SVG 1.1//EN" "http://www.w3.org/Graphics/SVG/1.1/DTD/svg11.dtd">
<svg version="1.1" id="Layer_2" xmlns="http://www.w3.org/2000/svg" xmlns:xlink="http://www.w3.org/1999/xlink" x="0px" y="0px"
	 width="160px" height="110px" viewBox="0 0 160 110" enable-background="new 0 0 160 110" xml:space="preserve">
<g>
	<g>
		<polygon points="79.338,58.888 75.727,58.888 75.727,61.462 79.204,61.462 79.204,62.565 75.727,62.565 75.727,65.207 
			79.438,65.207 79.438,66.31 74.523,66.31 74.523,57.786 79.338,57.786 79.338,58.888 		"/>
		<polygon points="82.095,57.786 83.198,57.786 83.198,66.31 82.095,66.31 82.095,57.786 		"/>
		<path d="M87.478,63.669h3.943c0-2.074-0.969-3.076-2.44-3.076c-1.537,0-2.607,1.137-2.607,2.842c0,1.537,0.97,2.975,2.708,2.975
			c0.936,0,1.537-0.235,2.24-0.669v-1.069c-0.67,0.434-1.305,0.668-1.973,0.668C88.279,65.339,87.644,64.771,87.478,63.669
			L87.478,63.669z M89.013,61.529c0.771,0,1.271,0.535,1.307,1.404h-2.809C87.644,62.031,88.146,61.529,89.013,61.529L89.013,61.529
			z"/>
		<path d="M98.424,62.164c-0.636-0.434-1.069-0.568-1.537-0.568c-1.036,0-1.705,0.77-1.705,1.906c0,1.17,0.735,1.873,1.872,1.873
			c0.467,0,0.935-0.135,1.504-0.369v1.069c-0.401,0.167-1.104,0.335-1.671,0.335c-1.673,0-2.843-1.17-2.843-2.809
			c0-1.838,1.069-3.008,2.742-3.008c0.668,0,1.104,0.133,1.638,0.369V62.164L98.424,62.164z"/>
		<path d="M103.403,60.695h1.773v1.002h-1.773v2.874c0,0.636,0.469,0.836,0.804,0.836c0.401,0,0.802-0.134,1.27-0.401v1.037
			c-0.4,0.199-1.001,0.367-1.37,0.367c-1.203,0-1.805-0.768-1.805-1.771v-2.941h-0.97v-0.135l2.071-2.038V60.695L103.403,60.695z"/>
		<path d="M109.171,60.695v1.302l0,0c0.567-1.003,1.102-1.403,1.638-1.403c0.435,0,0.868,0.201,1.337,0.635l-0.604,0.971
			c-0.333-0.335-0.768-0.535-1.034-0.535c-0.77,0-1.337,0.77-1.337,1.704v2.942h-1.104v-5.615H109.171L109.171,60.695z"/>
		<polygon points="115.286,60.695 116.39,60.695 116.39,66.31 115.286,66.31 115.286,60.695 		"/>
		<path d="M123.56,62.164c-0.634-0.434-1.069-0.568-1.537-0.568c-1.036,0-1.704,0.77-1.704,1.906c0,1.17,0.734,1.873,1.87,1.873
			c0.469,0,0.937-0.135,1.506-0.369v1.069c-0.401,0.167-1.104,0.335-1.672,0.335c-1.672,0-2.841-1.17-2.841-2.809
			c0-1.838,1.068-3.008,2.742-3.008c0.667,0,1.102,0.133,1.636,0.369V62.164L123.56,62.164z"/>
	</g>
	<g>
		<g>
			<path d="M44.366,45.271c-2.111-0.938-3.377-1.267-4.596-1.267c-1.312,0-2.157,0.47-2.157,1.173c0,2.203,7.408,1.594,7.408,6.658
				c0,2.766-2.345,4.406-5.579,4.406c-2.58,0-3.845-0.656-5.251-1.406v-3.141c2.062,1.406,3.329,1.875,4.97,1.875
				c1.406,0,2.156-0.469,2.156-1.358c0-2.347-7.455-1.501-7.455-6.706c0-2.532,2.204-4.174,5.58-4.174
				c1.641,0,3.094,0.328,4.924,1.126V45.271L44.366,45.271z"/>
			<path d="M54.774,55.585c-1.266,0.423-2.298,0.656-3.33,0.656c-3.469,0-5.72-2.016-5.72-5.109c0-3.002,2.345-5.111,5.58-5.111
				c0.983,0,2.298,0.234,3.33,0.656v2.297c-0.845-0.422-1.784-0.703-2.534-0.703c-1.873,0-3.045,1.125-3.045,2.861
				c0,1.734,1.172,2.906,2.952,2.906c0.751,0,1.407-0.188,2.767-0.703V55.585L54.774,55.585z"/>
			<path d="M62.792,54.367v-3.939c0-1.453-0.609-2.156-1.594-2.156c-0.704,0-1.312,0.469-2.062,1.5v6.283H56.04V41.519h3.096v6.143
				h0.047c0.891-1.125,1.874-1.641,3.094-1.641c1.83,0,3.609,1.078,3.609,3.75v3.986C64.854,53.757,63.589,54.132,62.792,54.367
				L62.792,54.367z"/>
			<path d="M67.341,53.57c0-1.783,0-7.361,0-7.361h3.093v1.406c0.986-1.125,1.971-1.594,3.237-1.594c1.547,0,3.562,0.891,3.562,3.75
				v6.283h-3.096v-6c0-1.408-0.656-1.971-1.546-1.971c-0.751,0-1.313,0.424-2.158,1.643c0,0,0,2.719,0,4.312
				C69.403,53.757,68.325,53.664,67.341,53.57L67.341,53.57z"/>
			<path d="M83.657,46.021c-3.047,0-5.205,2.158-5.205,5.158c0,3.047,2.251,5.062,5.721,5.062c0.797,0,2.626,0,4.406-1.312v-1.922
				c-1.453,1.031-2.437,1.406-3.656,1.406c-1.923,0-3.141-1.031-3.235-2.766h7.034C88.908,48.039,86.518,46.021,83.657,46.021
				L83.657,46.021z M81.734,50.007c0.141-1.361,0.938-2.158,2.157-2.158c1.174,0,2.016,0.846,2.109,2.158H81.734L81.734,50.007z"/>
			<polygon points="89.939,46.208 93.034,46.208 93.034,56.054 89.939,56.054 89.939,46.208 			"/>
			<path d="M101.616,41.519v5.111c-0.799-0.375-1.643-0.609-2.533-0.609c-2.814,0-4.782,2.062-4.782,5.111
				c0,2.953,1.968,5.109,4.595,5.109c1.031,0,1.874-0.28,2.721-0.984v0.797h3.094V41.519H101.616L101.616,41.519z M101.616,53.382
				c-0.61,0.563-1.173,0.797-1.83,0.797c-1.453,0-2.391-1.219-2.391-3c0-1.971,0.938-3.096,2.486-3.096
				c0.562,0,1.311,0.236,1.734,0.562V53.382L101.616,53.382z"/>
			<path d="M111.227,46.021c-3.048,0-5.204,2.158-5.204,5.158c0,3.047,2.251,5.062,5.721,5.062c0.75,0,2.623,0,4.407-1.312v-1.922
				c-1.453,1.031-2.438,1.406-3.657,1.406c-1.971,0-3.142-1.031-3.282-2.766h7.079C116.431,48.039,114.087,46.021,111.227,46.021
				L111.227,46.021z M109.306,50.007c0.139-1.361,0.891-2.158,2.109-2.158s2.016,0.846,2.155,2.158H109.306L109.306,50.007z"/>
			<path d="M120.933,49.023h0.046c0.892-2.064,1.923-3.002,3.142-3.002c0.609,0,1.127,0.234,2.018,0.891l-0.844,2.721
				c-0.798-0.518-1.313-0.705-1.828-0.705c-1.127,0-1.876,1.08-2.533,2.859v4.268h-3.096v-9.846h3.096V49.023L120.933,49.023z"/>
		</g>
		<path d="M93.175,42.035c0.282,0.797-0.234,1.876-1.172,2.393c-0.939,0.562-1.922,0.375-2.204-0.375s0.235-1.83,1.173-2.393
			C91.91,41.098,92.893,41.285,93.175,42.035L93.175,42.035z"/>
	</g>
	<path d="M116.457,58.688c0.101,0.267-0.1,0.636-0.435,0.836s-0.668,0.134-0.77-0.135c-0.1-0.267,0.068-0.634,0.401-0.835
		C115.988,58.353,116.323,58.421,116.457,58.688L116.457,58.688z"/>
	<g>
		<path d="M67.472,63.267h0.41h2.801c0.192-1,0.354-1,0.488-1h-3.104l0.409-2h3.037c0.345-1-0.066-3.563-1.32-4.641
			c-2.406-2.061-6.996-0.998-10.22,2.354c-3.223,3.346-3.89,7.765-1.484,9.827c2.405,2.061,6.997,0.656,10.22-2.696
			c0.459-0.478,0.859-0.845,1.213-1.845H67.472z M58.946,59.267h1.859l-0.409,1h-2.248C58.378,60.267,58.644,60.267,58.946,59.267z
			 M57.243,63.267c0.09-1,0.218-1,0.381-1h2.587l-0.411,1H57.243z M66.985,59.654l-1.008,3.944
			c-0.383,1.447-2.216,2.669-3.713,2.669h-3.236l0.512-2.12l1.805-0.053c0.289,0,0.661-0.231,0.724-0.513l0.797-3.619
			c0.326-1.441,2.129-2.695,3.607-2.695h3.2l-0.424,1.885l-1.68,0.065C67.194,59.221,67.064,59.355,66.985,59.654z"/>
	</g>
</g>
</svg>
