<?xml version="1.0" encoding="utf-8"?>
<!-- Generator: Adobe Illustrator 16.0.3, SVG Export Plug-In . SVG Version: 6.00 Build 0)  -->
<!DOCTYPE svg PUBLIC "-//W3C//DTD SVG 1.1//EN" "http://www.w3.org/Graphics/SVG/1.1/DTD/svg11.dtd">
<svg version="1.1" id="Layer_2" xmlns="http://www.w3.org/2000/svg" xmlns:xlink="http://www.w3.org/1999/xlink" x="0px" y="0px"
	 width="160px" height="110px" viewBox="0 0 160 110" enable-background="new 0 0 160 110" xml:space="preserve">
<g>
	<polygon fill="#231F20" points="66.055,46.109 93.613,46.109 93.613,51.784 66.055,51.784 66.055,46.109 	"/>
	<polygon fill="#231F20" points="66.062,70.978 93.613,70.978 93.613,71.796 66.062,71.796 66.062,70.978 	"/>
	<path fill-rule="evenodd" clip-rule="evenodd" fill="#231F20" d="M72.184,82.637h-2.875v-2.67
		c-0.099,0.169-0.268,0.406-0.509,0.711l-0.237-0.34l0.007,0.441h-2.204v-0.88h2.099c0.334-0.427,0.604-0.853,0.812-1.276
		c-0.176-0.396-0.397-0.701-0.661-0.92l0.074-0.035v-0.029h-2.627v-0.874h1.146c-0.059-0.344-0.276-0.781-0.652-1.311l0.501-0.464
		c0.308,0.429,0.557,0.967,0.747,1.614l-0.192,0.137v0.023h1.147v0.78l0.318-0.389c0.158,0.164,0.328,0.409,0.51,0.737
		c0.16-0.359,0.278-0.794,0.357-1.3h-1.299v-0.872h1.952c-0.042,0.956-0.214,1.84-0.518,2.646h1.291
		c-0.332-0.924-0.558-1.949-0.676-3.074l0.572-0.256c0.025,0.536,0.099,1.034,0.217,1.495c0.278-0.361,0.5-0.722,0.669-1.078
		l0.42,0.533c-0.215,0.476-0.521,0.911-0.915,1.312c0.066,0.262,0.119,0.432,0.16,0.512c0.18-0.171,0.415-0.539,0.708-1.105
		l0.411,0.558c-0.347,0.622-0.633,1.024-0.858,1.207c0.275,0.636,0.649,1.146,1.123,1.53l-0.501,0.618
		c-0.078-0.066-0.25-0.276-0.517-0.629V82.637L72.184,82.637z M69.876,78.843H69.86c-0.155,0.421-0.327,0.772-0.517,1.057h2.759
		c-0.192-0.292-0.356-0.61-0.494-0.956l-0.015,0.026l0.008,0.277h-1.726V78.843L69.876,78.843z M69.915,80.802v0.963h1.664v-0.963
		H69.915L69.915,80.802z M66.366,79.187v-0.878h2.188v0.878H66.366L66.366,79.187z M68.508,85.736h-0.575v-0.803h-0.835v0.844
		h-0.571v-4.102h1.982V85.736L68.508,85.736z M67.933,84.062v-1.507h-0.835v1.507H67.933L67.933,84.062z M68.691,85.469v-0.872
		h1.466c-0.042-0.364-0.278-0.878-0.704-1.544l0.559-0.333c0.353,0.483,0.593,1.017,0.724,1.597l-0.404,0.256v0.024h0.381
		c0.38-0.668,0.613-1.305,0.698-1.901l0.575,0.404c-0.167,0.602-0.354,1.102-0.559,1.497h1.427v0.872H68.691L68.691,85.469z
		 M83.508,78.147h-2.113c-0.163,0.655-0.357,1.216-0.583,1.687l-0.606-0.433c0.51-1.151,0.847-2.562,1.01-4.234l0.653,0.327
		c-0.065,0.717-0.157,1.304-0.276,1.764h1.916V78.147L83.508,78.147z M79.125,80.179v0.766h1.474v0.886h-3.591v-5.943h3.517v0.884
		h-1.422v0.777h1.065v2.631H79.125L79.125,80.179z M77.636,77.548h0.891v-0.777h-0.891V77.548L77.636,77.548z M77.636,79.289h1.928
		v-0.85h-1.928V79.289L77.636,79.289z M78.527,80.179h-0.891v0.766h0.891V80.179L78.527,80.179z M80.909,79.834h2.289v0.926h-2.289
		V79.834L80.909,79.834z M77.221,82.339h5.565v2.375h0.772V85.6h-7.107v-0.861h0.77V82.339L77.221,82.339z M79.491,84.714h1.057
		v-1.484h-1.057V84.714L79.491,84.714z M82.211,84.714v-1.484h-1.057v1.484H82.211L82.211,84.714z M77.827,84.738h1.058v-1.509
		h-1.058V84.738L77.827,84.738z M90.219,74.556l0.548,0.458l-0.151,0.196c1.315,1.625,2.457,2.563,3.422,2.817l-0.38,0.803
		c-0.104-0.036-0.285-0.117-0.544-0.244v2.493h-5.751v-2.612c-0.13,0.1-0.301,0.208-0.517,0.327l-0.326-0.802
		C88.178,77.019,89.41,75.872,90.219,74.556L90.219,74.556z M89.367,76.812v0.017h1.734v-0.017
		c-0.327-0.373-0.603-0.721-0.828-1.046C89.843,76.301,89.542,76.649,89.367,76.812L89.367,76.812z M92.551,78.225v-0.036
		c-0.233-0.132-0.567-0.415-1.003-0.85v0.375h-2.596v-0.512c-0.391,0.386-0.796,0.713-1.216,0.986v0.036H92.551L92.551,78.225z
		 M89.939,80.194v-1.132H88.77v0.035c0.267,0.304,0.497,0.67,0.692,1.097H89.939L89.939,80.194z M88.649,79.098v-0.035h-0.684v1.132
		h0.828c-0.036-0.079-0.221-0.337-0.556-0.776C88.393,79.274,88.529,79.169,88.649,79.098L88.649,79.098z M90.546,80.194h0.516
		c0.208-0.312,0.388-0.69,0.54-1.132h-1.056V80.194L90.546,80.194z M91.699,79.062v0.023l0.404,0.344l-0.283,0.765h0.692v-1.132
		H91.699L91.699,79.062z M88.435,85.178v0.586h-0.602v-4.279h4.823v4.279H92.05v-0.586H88.435L88.435,85.178z M92.05,82.368h-3.615
		v0.487h3.615V82.368L92.05,82.368z M88.435,84.292h3.615v-0.546h-3.615V84.292L88.435,84.292z"/>
	<polygon fill="#231F20" points="66.055,24.223 93.613,24.223 93.613,29.896 66.055,29.896 66.055,24.223 	"/>
	<polygon fill="#231F20" points="80.642,31.517 93.613,31.517 93.613,37.19 80.642,37.19 80.642,31.517 	"/>
	<polygon fill="#231F20" points="80.642,38.812 93.613,38.812 93.613,44.483 80.642,44.483 80.642,38.812 	"/>
	<polygon fill="#231F20" points="66.053,44.483 66.053,31.521 71.727,31.521 71.727,44.483 66.053,44.483 	"/>
	<polygon fill="#231F20" points="73.348,44.483 73.348,31.521 79.021,31.521 79.021,44.483 73.348,44.483 	"/>
	<g>
		<path fill="#231F20" d="M69.166,67.301c-2.786,0-3.308-1.639-3.188-3.5h2.25c0,1.026,0.044,1.89,1.282,1.89
			c0.76,0,1.132-0.49,1.132-1.222c0-1.936-4.528-2.055-4.528-5.257c0-1.686,0.804-3.025,3.545-3.025c2.19,0,3.277,0.982,3.129,3.233
			h-2.19c0-0.805-0.134-1.625-1.042-1.625c-0.73,0-1.162,0.403-1.162,1.148c0,2.04,4.528,1.861,4.528,5.242
			C72.92,66.973,70.879,67.301,69.166,67.301z"/>
		<path fill="#231F20" d="M77.345,67.121V56.367h5.586v1.651h-3.337v2.757h3.188v1.654h-3.188v4.691H77.345z"/>
		<path fill="#231F20" d="M86.76,61.744c0-2.847,0-5.558,3.71-5.558c2.294,0,3.218,1.266,3.129,3.575h-2.206
			c0-1.431-0.253-1.967-0.923-1.967c-1.266,0-1.43,1.191-1.43,3.949c0,2.755,0.164,3.946,1.43,3.946c1.043,0,0.999-1.34,1.028-2.19
			h2.22c0,2.876-1.147,3.801-3.248,3.801C86.76,67.301,86.76,64.56,86.76,61.744z"/>
	</g>
</g>
</svg>
