<?xml version="1.0" encoding="utf-8"?>
<!-- Generator: Adobe Illustrator 16.0.3, SVG Export Plug-In . SVG Version: 6.00 Build 0)  -->
<!DOCTYPE svg PUBLIC "-//W3C//DTD SVG 1.1//EN" "http://www.w3.org/Graphics/SVG/1.1/DTD/svg11.dtd">
<svg version="1.1" id="Layer_2" xmlns="http://www.w3.org/2000/svg" xmlns:xlink="http://www.w3.org/1999/xlink" x="0px" y="0px"
	 width="160px" height="110px" viewBox="0 0 160 110" enable-background="new 0 0 160 110" xml:space="preserve">
<g>
	<g>
		<path d="M34.257,62.975c0.324,0.919,1.193,1.608,2.133,1.608c0.979,0,2.029-0.771,2.029-2.098c0-2.297-3.965-1.383-3.965-4.387
			c0-1.715,1.415-2.552,2.868-2.552c0.574,0,1.486,0.198,1.936,0.638c-0.004,0.521,0.006,1.158,0.006,1.158
			c-0.326-0.862-0.996-1.38-1.709-1.38c-0.83,0-1.629,0.489-1.689,1.71c-0.113,2.221,3.988,1.461,3.988,4.293
			c0,1.898-1.809,3.029-3.453,3.029c-0.59,0-1.73-0.281-2.143-0.771C34.257,63.653,34.257,62.975,34.257,62.975"/>
		<rect x="102.507" y="59.867" width="3.77" height="0.821"/>
		<path d="M48.851,59.899c0,0,0,4.151,0,4.544c-0.035,0.214-0.385,0.391-0.385,0.391c0.596,0.003,1.98,0.003,2.383,0
			c0,0-0.369-0.193-0.385-0.391c0-0.483,0-7.826,0-8.307c0.016-0.193,0.385-0.391,0.385-0.391c-0.402-0.004-1.787-0.004-2.383,0
			c0,0,0.35,0.18,0.383,0.391c0,0.397,0.002,3.322,0.002,3.322c-0.66-0.006-3.201-0.006-3.861,0c0,0,0-2.925,0-3.322
			c0.035-0.211,0.385-0.391,0.385-0.391c-0.592-0.004-1.979-0.004-2.385,0c0,0,0.367,0.197,0.385,0.391c0,0.48,0,7.823,0,8.312
			c-0.018,0.191-0.385,0.385-0.385,0.385c0.41,0.004,1.793,0.004,2.385,0c0,0-0.352-0.177-0.385-0.391c0-0.392,0-4.543,0-4.543
			C45.929,59.89,47.913,59.89,48.851,59.899"/>
		<path d="M98.47,59.681c0,0,0-3.15,0-3.551c0.033-0.207,0.381-0.385,0.381-0.385c-0.594-0.004-1.977-0.004-2.379,0
			c0,0,0.361,0.193,0.377,0.385c0,0.486,0.004,7.829,0.004,8.312c-0.02,0.197-0.381,0.391-0.381,0.391c0.402,0,1.785,0,2.379,0
			c0,0-0.348-0.182-0.381-0.391C98.47,64.048,98.47,59.681,98.47,59.681"/>
		<path d="M109.981,64.833c0,0,0.367-0.193,0.381-0.391c0-0.483,0-7.829,0-8.312c-0.014-0.191-0.383-0.385-0.383-0.385
			c0.406-0.004,1.789-0.004,2.377,0c0,0-0.344,0.18-0.383,0.385c0,0.4,0,3.551,0,3.551s0,4.333,0,4.73l0.014,0.002
			c0.73,0.029,1.889-0.082,2.613-0.072c0.215,0,0.602-0.068,0.727-0.221c-0.01,0.188-0.059,0.511-0.17,0.711
			C115.157,64.832,110.386,64.834,109.981,64.833"/>
		<path d="M70.54,61.787c-0.227-0.278-5.082-6.045-5.082-6.045s-1.316,0-1.67,0c0,0,0.344,0.082,0.572,0.549
			c0,0-0.012,7.76-0.012,8.152c-0.037,0.213-0.385,0.391-0.385,0.391c0.596,0,0.766,0,1.172,0c0,0-0.361-0.194-0.379-0.391
			c0-0.484,0.006-6.941,0.006-6.941s-0.07-0.469,0.291,0c0.438,0.543,6.424,7.657,6.424,7.657s0.004-8.533,0.004-9.021
			c0.023-0.184,0.387-0.375,0.387-0.375c-0.4-0.01-1.014-0.01-1.611,0c0,0,0.352,0.171,0.389,0.375c0,0.402,0,5.647,0,5.647"/>
		<path d="M57.528,55.455c0,0,3.42,8.668,3.609,8.965c0.18,0.302,0.475,0.417,0.475,0.417c-0.326,0.001-2,0.001-2.334,0
			c-0.008-0.027,0.299-0.153,0.197-0.413c-0.23-0.618-0.752-1.829-0.98-2.484h-3.031c-0.219,0.605-0.775,2.195-0.873,2.495
			c-0.09,0.296,0.135,0.346,0.236,0.402c-0.244,0.001-1.207,0.001-1.48,0c0,0,0.35-0.127,0.4-0.402c0.047-0.28,3.5-8.979,3.5-8.979
			 M55.622,61.499h2.707l-1.357-3.462L55.622,61.499z"/>
		<path d="M121.476,55.454c0,0,3.424,8.666,3.605,8.967c0.184,0.296,0.482,0.414,0.482,0.414c-0.334,0.003-2.004,0-2.34,0
			c-0.006-0.025,0.299-0.156,0.207-0.413c-0.242-0.616-0.758-1.826-0.992-2.482h-3.027c-0.213,0.605-0.781,2.193-0.873,2.495
			c-0.09,0.298,0.135,0.344,0.23,0.4c-0.236,0.003-1.234,0.003-1.473,0c0,0,0.344-0.124,0.395-0.405
			c0.043-0.275,3.498-8.976,3.498-8.976 M119.569,61.494h2.713l-1.359-3.458L119.569,61.494z"/>
		<path d="M81.847,64.074c-0.615,0.36-1.393,0.451-2.123,0.451c-1.617,0-3.332-1.634-3.332-4.266c0-2.686,1.451-4.172,3.199-4.172
			c1.18,0,2.57,0.681,3.178,1.865c0,0,0-1.013-0.002-1.461c-0.66-0.279-1.535-0.818-3.119-0.818c-2.686,0-4.859,1.547-4.859,4.649
			c0,2.702,1.893,4.612,4.6,4.612c1.264,0,2.381-0.126,3.4-0.516c0,0,0-2.44,0-2.926c0.018-0.19,0.383-0.385,0.383-0.385
			c-0.404-0.004-1.113-0.004-1.705,0c0,0,0.346,0.176,0.381,0.385C81.847,61.895,81.847,64.074,81.847,64.074"/>
		<path d="M88.54,64.443c0.02,0.197,0.381,0.391,0.381,0.391c-0.398,0-1.137-0.012-1.33,0c-0.193-0.012-0.662,0-1.064,0
			c0,0,0.361-0.194,0.379-0.391c0-0.484,0-7.827,0-8.312c-0.018-0.191-0.379-0.385-0.379-0.385c0.496-0.004,2.533,0,2.533,0
			c1.857,0,3.273,0.885,3.273,2.226c0,1.545-1.455,2.249-1.834,2.414c0.387,0.229,0.852,0.795,1.029,1.044
			c0.492,0.705,0.879,1.439,1.113,1.824c0.799,1.343,1.252,1.468,1.252,1.468c-0.549,0.171-1.066,0.221-1.391,0.144
			c-1.088-0.258-2.119-3.861-2.898-4.122c-0.232-0.081-1.064-0.069-1.064-0.069 M88.54,60.238c0.27,0.021,0.793,0.073,1.305-0.064
			c0.947-0.271,1.322-1.008,1.322-2.043c0-0.91-0.48-1.809-1.383-1.988c-0.676-0.121-0.793-0.103-1.244-0.007V60.238z"/>
		<polyline points="46.19,76.002 46.19,77.789 46.56,77.789 46.56,77.908 45.269,77.908 45.269,77.791 45.603,77.791 45.603,74.232 
			45.269,74.232 45.269,74.117 46.56,74.117 46.56,74.232 46.19,74.232 46.19,75.886 47.646,75.886 47.646,74.232 47.288,74.232 
			47.288,74.117 48.569,74.117 48.569,74.232 48.237,74.232 48.237,77.789 48.569,77.789 48.569,77.908 47.288,77.908 
			47.288,77.789 47.646,77.789 47.646,76.002 		"/>
		<path d="M55.374,77.789h0.408v-3.557h-0.357c-0.248,0-0.301,0.057-0.527,1.094h-0.125v-1.211h2.615v1.211h-0.119
			c-0.229-1.037-0.289-1.094-0.533-1.094h-0.357v3.557h0.412v0.119h-1.416"/>
		<path d="M59.048,77.908v-0.119h0.328v-3.557h-0.328v-0.117h2.789v1.219h-0.123c-0.291-1.027-0.387-1.102-0.654-1.102h-1.09v1.654
			h0.426c0.281,0,0.416-0.173,0.512-0.762h0.127v1.633h-0.127C60.812,76.17,60.677,76,60.396,76H59.97v1.789h0.969
			c0.389,0,0.5-0.148,0.824-1.282h0.125v1.401"/>
		<path d="M64.706,77.789h0.816c0.361,0,0.465-0.062,0.787-1.398h0.127v1.518h-2.652v-0.119h0.33v-3.557h-0.33v-0.117h1.471v0.117
			h-0.549"/>
		<path d="M68.181,76.482c0.227,1.026,0.438,1.395,0.971,1.395c0.5,0,0.893-0.331,0.893-0.801c0-1.084-2.039-0.662-2.039-1.963
			c0-0.648,0.5-1.088,1.246-1.088c0.412,0,0.754,0.096,1.033,0.217v1.104h-0.123c0,0-0.055-0.202-0.193-0.635
			c-0.137-0.439-0.404-0.562-0.76-0.562c-0.486,0-0.834,0.322-0.834,0.723c0,0.414,0.291,0.523,1.031,0.805
			c0.811,0.302,1.102,0.51,1.102,1.116c0,0.687-0.58,1.203-1.428,1.203c-0.32,0-0.783-0.145-1.021-0.306v-1.207"/>
		<path d="M76.888,75.729h0.607l-0.068,0.286h0.008c0.139-0.18,0.385-0.354,0.682-0.354c0.336,0,0.547,0.161,0.443,0.629
			l-0.32,1.525h0.227l-0.016,0.092h-0.887l0.025-0.092h0.238l0.344-1.574c0.068-0.321-0.008-0.428-0.213-0.428
			c-0.232,0-0.498,0.201-0.59,0.65l-0.291,1.352h0.251l-0.019,0.092h-0.885l0.018-0.092h0.234l0.418-1.993H76.87"/>
		<path d="M80.696,77.908l0.055-0.266h-0.006c-0.125,0.196-0.303,0.336-0.594,0.336c-0.408,0-0.713-0.405-0.555-1.158
			c0.158-0.742,0.613-1.158,1.053-1.158c0.217,0,0.369,0.117,0.42,0.327h0.012l0.199-0.956h-0.211l0.029-0.096h0.607l-0.611,2.879
			h0.199l-0.014,0.092 M80.255,77.882c0.287,0,0.516-0.337,0.662-1.023c0.172-0.77,0.057-1.08-0.223-1.08
			c-0.26,0-0.479,0.21-0.652,1.08C79.866,77.641,79.978,77.882,80.255,77.882z"/>
		<path d="M74.015,76.507l0.148-0.693c0.24-0.088,0.459-0.152,0.688-0.152c0.535,0,0.719,0.283,0.664,0.549l-0.34,1.605h0.207
			l-0.023,0.092h-0.59l0.082-0.374h-0.006c-0.164,0.263-0.445,0.447-0.748,0.447c-0.383,0-0.604-0.229-0.523-0.599
			c0.152-0.75,0.988-0.532,1.48-0.794l0.1-0.45c0.059-0.272-0.062-0.381-0.297-0.381c-0.297,0-0.416,0.152-0.746,0.75 M75.03,76.699
			c-0.533,0.231-0.898,0.064-1.029,0.684c-0.068,0.322,0.031,0.441,0.256,0.441c0.316-0.008,0.6-0.324,0.703-0.798L75.03,76.699z"/>
		<path d="M51.79,74.025c0.824,0,1.582,0.783,1.582,1.987c0,1.206-0.758,1.986-1.582,1.986c-0.832,0-1.584-0.78-1.584-1.986
			C50.206,74.808,50.958,74.027,51.79,74.025 M51.79,77.879c0.605,0,0.893-0.43,0.893-1.867c0-1.435-0.287-1.864-0.893-1.864
			c-0.611,0-0.9,0.43-0.9,1.864C50.89,77.45,51.179,77.879,51.79,77.879z"/>
		<path d="M84.897,77.908v-0.119h0.33v-3.557h-0.33v-0.117h1.6c0.916,0,1.242,0.439,1.242,0.916c0,0.529-0.42,0.898-1.209,0.947
			l1.307,1.809h0.271v0.121h-0.871l-1.402-1.931h-0.018v1.81h0.418v0.121 M85.817,75.894h0.322c0.654,0,0.975-0.319,0.975-0.863
			c0-0.385-0.191-0.799-0.793-0.799h-0.504V75.894L85.817,75.894z"/>
		<path d="M94.438,76.482c0.225,1.018,0.43,1.395,0.971,1.395c0.498,0,0.889-0.331,0.889-0.801c0-1.087-2.033-0.662-2.033-1.963
			c0-0.648,0.506-1.088,1.244-1.088c0.414,0,0.754,0.096,1.035,0.217v1.1h-0.119l-0.199-0.631c-0.139-0.439-0.406-0.564-0.762-0.564
			c-0.482,0-0.828,0.324-0.828,0.725c0,0.414,0.287,0.52,1.029,0.803c0.812,0.305,1.096,0.512,1.096,1.119
			c0,0.686-0.58,1.203-1.426,1.203c-0.318,0-0.775-0.146-1.02-0.307v-1.207"/>
		<path d="M99.954,74.041c0.828,0,1.58,0.773,1.58,1.985c0,1.205-0.752,1.981-1.58,1.981c-0.826,0-1.582-0.776-1.582-1.981
			C98.372,74.814,99.128,74.041,99.954,74.041 M99.954,77.887c0.613,0,0.902-0.429,0.902-1.861c0-1.437-0.295-1.87-0.902-1.87
			c-0.609,0-0.898,0.434-0.898,1.87C99.056,77.458,99.345,77.887,99.954,77.887z"/>
		<path d="M103.069,77.908v-0.119h0.338v-3.557h-0.338v-0.12h1.602c0.922,0,1.244,0.442,1.244,0.916c0,0.533-0.41,0.901-1.209,0.95
			l1.311,1.809h0.268v0.121h-0.873l-1.393-1.931h-0.021v1.81h0.414v0.121 M103.997,75.894h0.326c0.65,0,0.971-0.326,0.971-0.866
			c0-0.382-0.195-0.796-0.797-0.796h-0.5V75.894z"/>
		<path d="M108.161,77.789h0.416v-3.557h-0.367c-0.246,0-0.305,0.055-0.52,1.089h-0.127v-1.209h2.615v1.209h-0.121
			c-0.227-1.034-0.291-1.089-0.533-1.089h-0.357v3.557h0.412v0.119h-1.418"/>
		<path d="M112.036,76.482c0.227,1.018,0.438,1.394,0.969,1.394c0.502,0,0.896-0.33,0.896-0.8c0-1.087-2.041-0.662-2.041-1.967
			c0-0.645,0.5-1.084,1.252-1.084c0.412,0,0.75,0.096,1.027,0.217v1.1h-0.121l-0.193-0.636c-0.139-0.435-0.41-0.56-0.764-0.56
			c-0.484,0-0.828,0.324-0.828,0.725c0,0.414,0.287,0.52,1.027,0.803c0.816,0.305,1.094,0.512,1.094,1.119
			c0,0.686-0.568,1.203-1.42,1.203c-0.322,0-0.781-0.146-1.02-0.307v-1.207"/>
		<path d="M89.478,77.908v-0.119h0.326v-3.557h-0.326v-0.117h2.781v1.216h-0.111c-0.307-1.024-0.389-1.099-0.666-1.099h-1.084v1.648
			h0.431c0.274,0,0.403-0.169,0.514-0.756h0.119v1.633h-0.119C91.231,76.17,91.103,76,90.829,76h-0.431v1.789h0.967
			c0.385,0,0.508-0.149,0.826-1.285h0.123v1.404"/>
		<path d="M85.026,42.138c-1.494,0.559-3.594,1.52-4.828,3.156c-0.143,0.186-0.352,0.205-0.533-0.018
			c-0.342-0.422-2.117-2.266-4.629-2.266c-0.625,0-1.559,0.156-2.176,0.347c0,0.873,0,4.284,0,6.164
			c0.383-0.282,1.242-0.579,2.072-0.579c1.271,0,3.719,1.094,4.611,1.91c0.334,0.299,0.586,0.282,0.883,0
			c1.314-1.281,3.658-2.411,6.646-2.406c0-1.053,0-7.517,0-7.517s-10.986,0-12.168,0c1.498-0.561,3.602-1.522,4.824-3.157
			c0.148-0.191,0.355-0.203,0.533,0.017c0.348,0.421,2.125,2.261,4.635,2.265c0.613,0,1.556-0.157,2.176-0.35
			c0-0.869,0-4.282,0-6.164c-0.387,0.291-1.246,0.582-2.072,0.582c-1.275,0-3.721-1.098-4.617-1.912
			c-0.326-0.303-0.594-0.276-0.877,0c-1.32,1.284-3.66,2.41-6.646,2.41c0,1.046,0,7.518,0,7.518S83.843,42.138,85.026,42.138"/>
		<rect x="34.12" y="69.328" width="91.76" height="0.336"/>
	</g>
</g>
</svg>
