<?xml version="1.0" encoding="utf-8"?>
<!-- Generator: Adobe Illustrator 16.0.3, SVG Export Plug-In . SVG Version: 6.00 Build 0)  -->
<!DOCTYPE svg PUBLIC "-//W3C//DTD SVG 1.1//EN" "http://www.w3.org/Graphics/SVG/1.1/DTD/svg11.dtd">
<svg version="1.1" id="Layer_2" xmlns="http://www.w3.org/2000/svg" xmlns:xlink="http://www.w3.org/1999/xlink" x="0px" y="0px"
	 width="160px" height="110px" viewBox="0 0 160 110" enable-background="new 0 0 160 110" xml:space="preserve">
<g>
	<rect x="35.447" y="42.863" width="62.284" height="24.371"/>
	<g>
		<path d="M109.632,52.704l-0.377,0.457c-0.961-0.444-1.961-0.808-3.024-1.12l0.336-0.404
			C107.683,51.95,108.698,52.299,109.632,52.704 M107.673,44.933h-4.262v0.908h4.262V44.933z M108.229,46.348h-5.38v-1.922h5.38
			V46.348z M108.334,50.105h-5.536v0.769h5.536V50.105z M108.334,48.739h-5.536v0.859h5.536V48.739z M108.334,47.52h-5.536v0.715
			h5.536V47.52z M108.892,51.377h-6.652v-4.364h6.652V51.377z M104.955,52.056c-0.962,0.451-2.026,0.816-3.196,1.104l-0.248-0.483
			c1.039-0.233,2.079-0.571,3.132-1.041L104.955,52.056z M110.114,43.814h-9.045v9.593h9.045V43.814z M110.672,54.73h-0.558v-0.819
			h-9.045v0.819h-0.559V43.307h10.161V54.73z"/>
		<path fill="none" stroke="#000000" stroke-width="0.0689" d="M109.632,52.704l-0.377,0.457c-0.961-0.444-1.961-0.808-3.024-1.12
			l0.336-0.404C107.683,51.95,108.698,52.299,109.632,52.704z M107.673,44.933h-4.262v0.908h4.262V44.933z M108.229,46.348h-5.38
			v-1.922h5.38V46.348z M108.334,50.105h-5.536v0.769h5.536V50.105z M108.334,48.739h-5.536v0.859h5.536V48.739z M108.334,47.52
			h-5.536v0.715h5.536V47.52z M108.892,51.377h-6.652v-4.364h6.652V51.377z M104.955,52.056c-0.962,0.451-2.026,0.816-3.196,1.104
			l-0.248-0.483c1.039-0.233,2.079-0.571,3.132-1.041L104.955,52.056z M110.114,43.814h-9.045v9.593h9.045V43.814z M110.672,54.73
			h-0.558v-0.819h-9.045v0.819h-0.559V43.307h10.161V54.73z"/>
		<path d="M123.786,48.846c-0.571,1.129-1.197,2.064-1.897,2.817c0.831,0.701,1.648,1.521,2.456,2.432l-0.479,0.479
			c-0.677-0.843-1.47-1.662-2.406-2.482c-0.144,0.131-0.272,0.247-0.401,0.352c-1.027,0.884-2.289,1.613-3.768,2.234l-0.301-0.559
			c1.443-0.608,2.652-1.311,3.627-2.13c0.959-0.831,1.816-1.964,2.572-3.404L123.786,48.846z M121.253,44.712l-0.366,0.273h3.614
			v0.507h-4.082c-0.142,0.337-0.377,0.764-0.687,1.26c-0.288,0.442-0.56,0.805-0.808,1.093c0.963-0.029,1.859-0.092,2.691-0.194
			c0.219-0.341,0.416-0.691,0.596-1.042l0.561,0.223c-0.546,1.155-1.313,2.221-2.301,3.183c-0.936,0.987-2.002,1.816-3.182,2.481
			l-0.403-0.455c1.321-0.831,2.415-1.69,3.262-2.572c0.402-0.416,0.768-0.844,1.089-1.287c-1.038,0.182-2.312,0.261-3.844,0.261
			l-0.104-0.56c0.312,0,0.622,0,0.918-0.012c0.289-0.327,0.575-0.727,0.888-1.197c0.271-0.417,0.492-0.817,0.649-1.181h-2.858
			v-0.507h3.794c-0.338-0.639-0.793-1.249-1.352-1.846l0.453-0.339C120.355,43.375,120.849,44.01,121.253,44.712 M117.394,49.898
			l-0.507,0.363c-0.3-0.833-0.7-1.626-1.224-2.391l0.467-0.351C116.626,48.248,117.056,49.04,117.394,49.898 M114.884,45.75v-3
			h0.561v3h1.599v0.506h-1.599v8.474h-0.561v-6.629c-0.169,0.666-0.365,1.264-0.572,1.797c-0.311,0.805-0.715,1.584-1.219,2.349
			l-0.469-0.439c0.518-0.74,0.986-1.65,1.402-2.729c0.351-0.91,0.609-1.859,0.768-2.822h-2.014V45.75H114.884z"/>
		<path fill="none" stroke="#000000" stroke-width="0.0689" d="M123.786,48.846c-0.571,1.129-1.197,2.064-1.897,2.817
			c0.831,0.701,1.648,1.521,2.456,2.432l-0.479,0.479c-0.677-0.843-1.47-1.662-2.406-2.482c-0.144,0.131-0.272,0.247-0.401,0.352
			c-1.027,0.884-2.289,1.613-3.768,2.234l-0.301-0.559c1.443-0.608,2.652-1.311,3.627-2.13c0.959-0.831,1.816-1.964,2.572-3.404
			L123.786,48.846z M121.253,44.712l-0.366,0.273h3.614v0.507h-4.082c-0.142,0.337-0.377,0.764-0.687,1.26
			c-0.288,0.442-0.56,0.805-0.808,1.093c0.963-0.029,1.859-0.092,2.691-0.194c0.219-0.341,0.416-0.691,0.596-1.042l0.561,0.223
			c-0.546,1.155-1.313,2.221-2.301,3.183c-0.936,0.987-2.002,1.816-3.182,2.481l-0.403-0.455c1.321-0.831,2.415-1.69,3.262-2.572
			c0.402-0.416,0.768-0.844,1.089-1.287c-1.038,0.182-2.312,0.261-3.844,0.261l-0.104-0.56c0.312,0,0.622,0,0.918-0.012
			c0.289-0.327,0.575-0.727,0.888-1.197c0.271-0.417,0.492-0.817,0.649-1.181h-2.858v-0.507h3.794
			c-0.338-0.639-0.793-1.249-1.352-1.846l0.453-0.339C120.355,43.375,120.849,44.01,121.253,44.712z M117.394,49.898l-0.507,0.363
			c-0.3-0.833-0.7-1.626-1.224-2.391l0.467-0.351C116.626,48.248,117.056,49.04,117.394,49.898z M114.884,45.75v-3h0.561v3h1.599
			v0.506h-1.599v8.474h-0.561v-6.629c-0.169,0.666-0.365,1.264-0.572,1.797c-0.311,0.805-0.715,1.584-1.219,2.349l-0.469-0.439
			c0.518-0.74,0.986-1.65,1.402-2.729c0.351-0.91,0.609-1.859,0.768-2.822h-2.014V45.75H114.884z"/>
		<path d="M111.505,66.691l-0.196,0.559c-1.479-0.519-2.989-0.895-4.522-1.13l0.17-0.493
			C108.49,65.86,110.011,66.212,111.505,66.691 M106.021,55.504c-0.131,0.312-0.298,0.621-0.507,0.908h5.588
			c-0.235,0.703-0.664,1.38-1.288,2.053l-0.596-0.337c0.469-0.392,0.816-0.819,1.025-1.259h-2.754
			c-0.105,0.467-0.262,0.867-0.469,1.192c1.559,0.602,3.002,1.263,4.328,2.015l-0.403,0.468c-1.311-0.793-2.742-1.47-4.274-2.039
			c-0.35,0.375-0.753,0.676-1.197,0.887c-0.673,0.336-1.531,0.566-2.584,0.7l-0.169-0.494c0.96-0.119,1.74-0.325,2.351-0.61
			c0.533-0.233,0.975-0.56,1.341-1.001c0.233-0.299,0.399-0.678,0.507-1.117h-1.742c-0.04,0.05-0.078,0.103-0.105,0.129
			c-0.441,0.493-0.921,0.923-1.467,1.273l-0.377-0.441c0.544-0.362,1.002-0.755,1.377-1.171c0.379-0.415,0.661-0.87,0.844-1.337
			L106.021,55.504z M108.945,63.714h-6.651v1.053h6.651V63.714z M108.945,62.248h-6.651v1.014h6.651V62.248z M108.945,60.753h-6.651
			v1.037h6.651V60.753z M109.501,65.276h-7.768v-5.029h7.768V65.276z M103.175,56.934l-0.325,0.467
			c-0.677-0.493-1.495-0.921-2.455-1.312l0.221-0.465C101.63,55.997,102.473,56.438,103.175,56.934 M103.384,58.623
			c-0.961,0.674-2.055,1.288-3.275,1.832l-0.324-0.416c1.223-0.532,2.301-1.142,3.247-1.818L103.384,58.623z M104.657,66.108
			c-1.521,0.519-3.094,0.896-4.705,1.142l-0.223-0.559c1.665-0.261,3.186-0.621,4.537-1.064L104.657,66.108z"/>
		<path fill="none" stroke="#000000" stroke-width="0.0689" d="M111.505,66.691l-0.196,0.559c-1.479-0.519-2.989-0.895-4.522-1.13
			l0.17-0.493C108.49,65.86,110.011,66.212,111.505,66.691z M106.021,55.504c-0.131,0.312-0.298,0.621-0.507,0.908h5.588
			c-0.235,0.703-0.664,1.38-1.288,2.053l-0.596-0.337c0.469-0.392,0.816-0.819,1.025-1.259h-2.754
			c-0.105,0.467-0.262,0.867-0.469,1.192c1.559,0.602,3.002,1.263,4.328,2.015l-0.403,0.468c-1.311-0.793-2.742-1.47-4.274-2.039
			c-0.35,0.375-0.753,0.676-1.197,0.887c-0.673,0.336-1.531,0.566-2.584,0.7l-0.169-0.494c0.96-0.119,1.74-0.325,2.351-0.61
			c0.533-0.233,0.975-0.56,1.341-1.001c0.233-0.299,0.399-0.678,0.507-1.117h-1.742c-0.04,0.05-0.078,0.103-0.105,0.129
			c-0.441,0.493-0.921,0.923-1.467,1.273l-0.377-0.441c0.544-0.362,1.002-0.755,1.377-1.171c0.379-0.415,0.661-0.87,0.844-1.337
			L106.021,55.504z M108.945,63.714h-6.651v1.053h6.651V63.714z M108.945,62.248h-6.651v1.014h6.651V62.248z M108.945,60.753h-6.651
			v1.037h6.651V60.753z M109.501,65.276h-7.768v-5.029h7.768V65.276z M103.175,56.934l-0.325,0.467
			c-0.677-0.493-1.495-0.921-2.455-1.312l0.221-0.465C101.63,55.997,102.473,56.438,103.175,56.934z M103.384,58.623
			c-0.961,0.674-2.055,1.288-3.275,1.832l-0.324-0.416c1.223-0.532,2.301-1.142,3.247-1.818L103.384,58.623z M104.657,66.108
			c-1.521,0.519-3.094,0.896-4.705,1.142l-0.223-0.559c1.665-0.261,3.186-0.621,4.537-1.064L104.657,66.108z"/>
		<path d="M118.265,57.609v-2.338h0.611v2.338h5.377v0.611h-5.001c1.118,2.234,2.884,4.303,5.301,6.21l-0.493,0.586
			c-2.302-1.858-4.029-3.926-5.184-6.187v4.457h2.828v0.609h-2.828v3.354h-0.611v-3.354h-2.795v-0.609h2.795v-4.445
			c-0.549,1.041-1.236,2.055-2.055,3.056c-1.168,1.339-2.272,2.34-3.313,3.014l-0.272-0.583c0.961-0.613,1.975-1.547,3.053-2.794
			c0.922-1.079,1.649-2.186,2.184-3.313h-4.936v-0.611H118.265z"/>
		<path fill="none" stroke="#000000" stroke-width="0.0689" d="M118.265,57.609v-2.338h0.611v2.338h5.377v0.611h-5.001
			c1.118,2.234,2.884,4.303,5.301,6.21l-0.493,0.586c-2.302-1.858-4.029-3.926-5.184-6.187v4.457h2.828v0.609h-2.828v3.354h-0.611
			v-3.354h-2.795v-0.609h2.795v-4.445c-0.549,1.041-1.236,2.055-2.055,3.056c-1.168,1.339-2.272,2.34-3.313,3.014l-0.272-0.583
			c0.961-0.613,1.975-1.547,3.053-2.794c0.922-1.079,1.649-2.186,2.184-3.313h-4.936v-0.611H118.265z"/>
		<path fill="#FFFFFF" d="M39.845,52.654c-0.01-0.289,0.016-0.552,0.077-0.784c0.062-0.233,0.148-0.438,0.26-0.617
			c0.11-0.178,0.239-0.328,0.378-0.455s0.285-0.231,0.433-0.316c0.345-0.206,0.749-0.335,1.208-0.392
			c0.082-0.009,0.176-0.016,0.279-0.02c0.101-0.005,0.189-0.009,0.265-0.009c0.478,0,0.852,0.056,1.127,0.163
			c0.276,0.106,0.47,0.197,0.581,0.272c0.012,0,0.037,0.013,0.08,0.035c0.041,0.022,0.086,0.052,0.132,0.092
			c0.046,0.036,0.091,0.075,0.134,0.119c0.041,0.039,0.062,0.08,0.062,0.118c0.02,0.131,0.027,0.246,0.027,0.345v0.229v0.17
			c-0.047,0.091-0.103,0.158-0.17,0.202c-0.062,0.04-0.129,0.043-0.195,0.003c-0.035-0.015-0.074-0.038-0.111-0.074
			c-0.038-0.032-0.073-0.074-0.109-0.119c-0.103-0.269-0.252-0.486-0.443-0.643c-0.191-0.16-0.382-0.283-0.568-0.366
			c-0.223-0.104-0.462-0.166-0.715-0.196c-0.392,0.058-0.694,0.164-0.909,0.323c-0.214,0.158-0.372,0.315-0.476,0.475
			c-0.122,0.188-0.186,0.396-0.198,0.617c-0.021,0.103-0.022,0.238-0.013,0.408c0.01,0.166,0.025,0.3,0.043,0.402
			c0.046,0.179,0.137,0.369,0.272,0.571c0.136,0.198,0.356,0.384,0.665,0.553c0.272,0.159,0.557,0.321,0.855,0.496
			c0.299,0.174,0.582,0.333,0.854,0.482c0.093,0.065,0.232,0.155,0.414,0.266c0.182,0.112,0.355,0.273,0.525,0.479
			c0.167,0.206,0.309,0.463,0.426,0.776c0.119,0.312,0.162,0.695,0.133,1.155c0,0.486-0.121,0.931-0.362,1.332
			c-0.104,0.169-0.237,0.336-0.407,0.505c-0.166,0.168-0.379,0.315-0.63,0.454c-0.251,0.135-0.55,0.245-0.896,0.33
			c-0.346,0.082-0.747,0.126-1.205,0.126c-0.245,0-0.456-0.02-0.638-0.063c-0.18-0.043-0.34-0.091-0.477-0.147
			c-0.136-0.055-0.252-0.117-0.35-0.184c-0.098-0.064-0.189-0.121-0.273-0.168c-0.018-0.02-0.049-0.04-0.084-0.062
			c-0.035-0.024-0.069-0.044-0.098-0.064c-0.039-0.027-0.074-0.053-0.111-0.082c-0.104-0.104-0.148-0.196-0.141-0.279
			c0.01-0.208,0.01-0.426,0-0.659l-0.03-0.364c0.04-0.093,0.087-0.146,0.141-0.162c0.058-0.012,0.108,0.008,0.154,0.064l0.185,0.266
			c0.158,0.279,0.348,0.524,0.575,0.726c0.185,0.181,0.42,0.337,0.697,0.472c0.283,0.137,0.614,0.19,0.995,0.163
			c0.447-0.068,0.783-0.214,1.01-0.441c0.221-0.229,0.387-0.474,0.49-0.739c0.056-0.146,0.098-0.332,0.125-0.55
			c0.029-0.221,0.044-0.424,0.044-0.61c0-0.261-0.052-0.477-0.155-0.644c-0.104-0.169-0.225-0.319-0.365-0.448
			c-0.084-0.075-0.174-0.15-0.271-0.226c-0.1-0.075-0.2-0.145-0.301-0.21l-1.611-1.021c-0.328-0.217-0.582-0.447-0.766-0.694
			c-0.182-0.247-0.312-0.474-0.398-0.681C39.911,53.111,39.854,52.88,39.845,52.654"/>
		<path fill="#FFFFFF" d="M46.653,59.827c0.008-0.934,0.021-1.919,0.028-2.957c0.01-0.886,0.013-1.889,0.013-3.004
			c0-1.117-0.008-2.252-0.029-3.413c-0.008-0.055-0.004-0.105,0.017-0.154c0.01-0.035,0.027-0.07,0.055-0.103
			c0.03-0.034,0.069-0.05,0.127-0.05h0.952c0.03,0,0.078,0.006,0.148,0.021c0.068,0.013,0.105,0.112,0.105,0.286
			c-0.029,1.123-0.047,2.233-0.05,3.336c-0.005,1.103-0.005,2.105,0.008,3.01c0.008,1.058,0.022,2.064,0.042,3.028
			c0,0.027-0.004,0.05-0.015,0.071c-0.02,0.036-0.054,0.055-0.099,0.055H46.78c-0.059,0-0.094-0.019-0.115-0.055
			C46.657,59.876,46.653,59.854,46.653,59.827"/>
		<path fill="#FFFFFF" d="M57.776,50.413c-0.02,0.737-0.029,1.479-0.035,2.228c-0.004,0.746-0.008,1.467-0.008,2.156v1.939
			c0,0.594,0.006,1.115,0.016,1.563c0.008,0.515,0.018,0.989,0.027,1.429c-0.01,0.094-0.051,0.158-0.126,0.195
			c-0.035,0.022-0.075,0.03-0.111,0.03H57.09h-0.041c-0.027,0-0.052-0.008-0.071-0.03l-0.127-0.182
			c-0.69-0.849-1.35-1.652-1.973-2.417c-0.626-0.76-1.205-1.458-1.736-2.094c-0.534-0.636-1.014-1.194-1.445-1.686
			c-0.432-0.496-0.789-0.901-1.076-1.228c-0.013,0.399-0.016,0.803-0.016,1.203v1.164c0,0.708,0.003,1.373,0.008,1.983
			c0.004,0.608,0.012,1.144,0.02,1.604c0.01,0.532,0.018,1.017,0.027,1.456c0,0.131-0.035,0.202-0.109,0.21
			c-0.076,0.013-0.119,0.016-0.127,0.016h-0.618c-0.036,0-0.073-0.016-0.111-0.043c-0.065-0.049-0.099-0.146-0.099-0.293
			c0.012-0.317,0.025-0.697,0.041-1.135c0.01-0.365,0.021-0.813,0.03-1.346c0.008-0.532,0.013-1.134,0.013-1.807
			c0-1.366-0.028-2.966-0.084-4.807c0-0.148,0.033-0.247,0.099-0.293c0.038-0.029,0.075-0.047,0.111-0.06h0.546
			c0.02,0,0.048,0.013,0.088,0.03c0.016,0.018,0.041,0.042,0.074,0.071c0.034,0.025,0.066,0.069,0.107,0.125v-0.014
			c1.417,1.735,2.654,3.221,3.709,4.449c1.057,1.225,1.874,2.158,2.45,2.795c0-0.337,0.007-0.707,0.01-1.106
			c0.005-0.402,0.008-0.852,0.008-1.346c0-0.653-0.005-1.367-0.018-2.138c-0.008-0.769-0.025-1.607-0.053-2.515
			c0-0.148,0.03-0.247,0.099-0.293c0.025-0.029,0.06-0.047,0.098-0.06l0.631,0.017h0.047c0.022,0,0.05,0.008,0.077,0.022
			c0.028,0.014,0.052,0.033,0.071,0.062C57.767,50.298,57.776,50.347,57.776,50.413"/>
		<path fill="#FFFFFF" d="M64.206,59.463c0.562-0.028,1.045-0.155,1.451-0.372c0.404-0.218,0.737-0.511,1.003-0.876
			c0.257-0.364,0.451-0.782,0.571-1.261c0.123-0.477,0.186-0.979,0.186-1.513c0-0.233-0.018-0.477-0.045-0.729
			c-0.064-0.615-0.218-1.183-0.455-1.702c-0.237-0.516-0.535-0.96-0.896-1.329c-0.359-0.371-0.771-0.644-1.233-0.828
			c-0.462-0.183-0.946-0.245-1.451-0.19c-0.473,0.048-0.908,0.183-1.301,0.408c-0.394,0.224-0.734,0.519-1.022,0.883
			c-0.292,0.364-0.513,0.785-0.674,1.267c-0.157,0.483-0.237,0.993-0.237,1.536c0,0.083,0.002,0.168,0.006,0.251
			c0.007,0.084,0.012,0.169,0.021,0.251v-0.015c0.065,0.608,0.189,1.179,0.371,1.711c0.184,0.531,0.437,0.992,0.766,1.378
			c0.323,0.39,0.729,0.688,1.212,0.889C62.958,59.429,63.532,59.508,64.206,59.463 M63.269,49.963
			c0.094-0.009,0.182-0.015,0.264-0.02c0.088-0.006,0.176-0.009,0.268-0.009c0.655,0,1.273,0.107,1.857,0.324
			c0.583,0.213,1.104,0.522,1.561,0.923c0.46,0.402,0.832,0.89,1.121,1.464c0.29,0.574,0.473,1.22,0.548,1.928
			c0.008,0.075,0.018,0.15,0.028,0.23c0.007,0.079,0.014,0.161,0.014,0.245c0,0.663-0.119,1.291-0.359,1.877
			c-0.236,0.589-0.566,1.107-0.986,1.562c-0.42,0.451-0.918,0.826-1.494,1.112c-0.573,0.29-1.194,0.468-1.867,0.534
			c-0.104,0.009-0.2,0.017-0.287,0.02c-0.09,0.005-0.187,0.009-0.287,0.009c-0.645,0-1.258-0.106-1.836-0.316
			c-0.581-0.21-1.098-0.515-1.549-0.919c-0.455-0.399-0.827-0.887-1.12-1.455c-0.295-0.567-0.479-1.212-0.552-1.934
			c-0.01-0.085-0.017-0.169-0.021-0.251c-0.005-0.085-0.008-0.171-0.008-0.254c0-0.643,0.119-1.256,0.357-1.842
			c0.24-0.582,0.568-1.104,0.988-1.562s0.914-0.832,1.484-1.119c0.568-0.293,1.189-0.473,1.862-0.549H63.269z"/>
		<path fill="#FFFFFF" d="M74.405,49.935c0.233,0,0.515,0.031,0.842,0.09c0.326,0.062,0.652,0.151,0.98,0.271
			c0.325,0.114,0.634,0.265,0.922,0.447c0.292,0.179,0.52,0.399,0.689,0.648c0.027,0.06,0.05,0.134,0.067,0.233
			c0.021,0.096,0.016,0.198-0.013,0.308c-0.027,0.108-0.092,0.203-0.188,0.287c-0.097,0.087-0.245,0.14-0.439,0.17
			c-0.144,0.007-0.235-0.008-0.282-0.06c-0.028-0.016-0.045-0.04-0.055-0.069c-0.115-0.354-0.273-0.646-0.479-0.88
			c-0.204-0.234-0.425-0.421-0.665-0.561c-0.236-0.142-0.479-0.239-0.721-0.296c-0.242-0.055-0.452-0.082-0.631-0.082
			c-0.484-0.009-0.94,0.095-1.365,0.32c-0.424,0.224-0.799,0.538-1.119,0.938c-0.324,0.401-0.582,0.871-0.771,1.408
			c-0.189,0.539-0.297,1.112-0.316,1.73c-0.018,0.617,0.043,1.199,0.182,1.75c0.143,0.551,0.35,1.037,0.63,1.452
			c0.283,0.415,0.637,0.748,1.065,1.001c0.43,0.254,0.926,0.391,1.485,0.419c0.179,0.01,0.376,0,0.599-0.028
			c0.215-0.025,0.451-0.083,0.699-0.168c0.246-0.084,0.504-0.206,0.777-0.364c0.271-0.159,0.541-0.372,0.811-0.644l0.086-0.085
			c0.055-0.055,0.096-0.077,0.126-0.069l0.519,0.449c0.008,0.008,0.018,0.023,0.027,0.041c0.018,0.031,0,0.07-0.057,0.126
			c-0.447,0.28-0.83,0.499-1.141,0.66c-0.314,0.157-0.6,0.278-0.86,0.365c-0.266,0.082-0.521,0.136-0.774,0.157
			c-0.251,0.024-0.539,0.038-0.869,0.038c-0.829,0-1.539-0.144-2.133-0.428c-0.594-0.286-1.08-0.665-1.457-1.142
			c-0.38-0.479-0.655-1.026-0.827-1.64c-0.173-0.618-0.25-1.257-0.231-1.922c0.018-0.688,0.16-1.336,0.428-1.939
			c0.266-0.603,0.616-1.124,1.059-1.569c0.437-0.443,0.947-0.783,1.533-1.029C73.12,50.03,73.742,49.917,74.405,49.935"/>
		<path fill="#FFFFFF" d="M83.987,55.695c0.074,0,0.123-0.024,0.141-0.071c0-0.028-0.005-0.057-0.015-0.084
			c-0.14-0.448-0.29-0.897-0.447-1.354c-0.159-0.451-0.305-0.854-0.435-1.209c-0.158-0.422-0.317-0.824-0.477-1.205
			c-0.207,0.411-0.404,0.835-0.601,1.274c-0.171,0.373-0.353,0.783-0.549,1.234c-0.196,0.447-0.378,0.881-0.544,1.301
			c-0.02,0.027-0.029,0.05-0.029,0.069c0,0.047,0.021,0.067,0.068,0.055c0.254,0.013,0.535,0.017,0.842,0.017h0.912
			C83.199,55.722,83.575,55.714,83.987,55.695 M87.098,59.728c0.028,0.076,0.036,0.126,0.021,0.154
			c-0.014,0.028-0.033,0.052-0.063,0.071c-0.037,0.019-0.073,0.022-0.111,0.012c-0.13-0.008-0.257-0.012-0.378-0.012h-0.336
			c-0.113,0-0.22,0.004-0.323,0.012c-0.083,0-0.147-0.031-0.194-0.099c-0.029-0.024-0.049-0.06-0.057-0.095
			c-0.227-0.636-0.43-1.222-0.615-1.763c-0.187-0.533-0.376-1.025-0.562-1.476c0-0.009-0.01-0.021-0.026-0.039
			c-0.021-0.013-0.038-0.021-0.058-0.029c-0.02-0.011-0.043-0.015-0.07-0.015c-0.408-0.018-0.809-0.032-1.189-0.035
			c-0.382-0.005-0.73-0.005-1.043,0c-0.314,0.003-0.584,0.011-0.809,0.021c-0.221,0.009-0.381,0.018-0.475,0.028
			c-0.056,0.009-0.094,0.021-0.113,0.04c-0.01,0.011-0.018,0.024-0.027,0.044c-0.045,0.084-0.116,0.229-0.211,0.439
			c-0.092,0.21-0.198,0.459-0.32,0.744c-0.123,0.286-0.252,0.606-0.393,0.957c-0.141,0.357-0.275,0.72-0.407,1.094
			c-0.009,0.038-0.022,0.07-0.04,0.099c-0.037,0.056-0.079,0.083-0.127,0.083c-0.045-0.008-0.096-0.012-0.139-0.012h-0.156
			c-0.057,0-0.121,0.004-0.195,0.012c-0.065,0.011-0.107,0.005-0.119-0.02c-0.014-0.024-0.02-0.053-0.02-0.092
			c0-0.037,0.008-0.082,0.025-0.142c0.58-1.271,1.108-2.454,1.591-3.555c0.481-1.105,0.897-2.066,1.253-2.886
			c0.412-0.965,0.785-1.845,1.123-2.65c0.046-0.12,0.094-0.212,0.146-0.273c0.049-0.06,0.094-0.104,0.133-0.132
			c0.045-0.028,0.09-0.037,0.14-0.028c0.046,0.009,0.092,0.031,0.142,0.071c0.045,0.036,0.092,0.107,0.139,0.21
			c0.336,0.859,0.71,1.785,1.119,2.772c0.356,0.85,0.768,1.833,1.234,2.942C86.052,57.296,86.556,58.477,87.098,59.728"/>
		<path fill="#FFFFFF" d="M92.435,52.681c0-0.449-0.084-0.812-0.251-1.092c-0.169-0.281-0.379-0.499-0.63-0.661
			c-0.254-0.156-0.521-0.266-0.8-0.327c-0.28-0.061-0.532-0.092-0.757-0.092c-0.102,0-0.191,0.003-0.264,0.01
			c-0.078,0.003-0.141,0.01-0.196,0.02c-0.068,0.01-0.124,0.014-0.169,0.014c-0.074,0.02-0.146,0.059-0.211,0.118
			s-0.1,0.146-0.1,0.258v4.065c0,0.104,0.014,0.158,0.043,0.168c0.02,0.01,0.038,0.015,0.057,0.015h1.092
			c0.059,0,0.15-0.008,0.281-0.024c0.131-0.012,0.275-0.047,0.436-0.103c0.158-0.056,0.324-0.134,0.495-0.237
			c0.175-0.104,0.331-0.249,0.478-0.437c0.146-0.185,0.264-0.415,0.357-0.691C92.388,53.409,92.435,53.074,92.435,52.681
			 M90.265,50.035c0.428,0,0.811,0.039,1.141,0.114c0.332,0.07,0.617,0.169,0.863,0.29c0.24,0.121,0.447,0.26,0.617,0.414
			c0.166,0.154,0.301,0.313,0.403,0.471c0.243,0.372,0.384,0.799,0.42,1.275c0,0.598-0.119,1.124-0.362,1.581
			c-0.105,0.195-0.241,0.388-0.413,0.576c-0.173,0.186-0.389,0.353-0.646,0.502c-0.258,0.151-0.564,0.27-0.926,0.359
			c-0.359,0.088-0.777,0.132-1.252,0.132h-0.868c-0.03,0-0.052,0.01-0.069,0.028c-0.047,0.027-0.072,0.089-0.072,0.182l0.142,3.867
			c0,0.027-0.005,0.052-0.015,0.069c-0.02,0.038-0.055,0.058-0.112,0.058h-1.161c-0.078,0-0.124-0.02-0.142-0.058
			c-0.01-0.018-0.01-0.042,0-0.069c0.027-1.262,0.044-2.456,0.048-3.586c0.006-1.132,0.004-2.13-0.006-2.999
			c-0.01-1.01-0.027-1.951-0.058-2.829c0-0.074,0.033-0.132,0.099-0.169c0.028-0.016,0.061-0.033,0.098-0.042
			c0.178-0.03,0.383-0.053,0.617-0.085c0.195-0.017,0.432-0.036,0.707-0.056C89.593,50.042,89.908,50.035,90.265,50.035"/>
	</g>
</g>
</svg>
