<?xml version="1.0" encoding="utf-8"?>
<!-- Generator: Adobe Illustrator 16.0.3, SVG Export Plug-In . SVG Version: 6.00 Build 0)  -->
<!DOCTYPE svg PUBLIC "-//W3C//DTD SVG 1.1//EN" "http://www.w3.org/Graphics/SVG/1.1/DTD/svg11.dtd">
<svg version="1.1" id="Layer_2" xmlns="http://www.w3.org/2000/svg" xmlns:xlink="http://www.w3.org/1999/xlink" x="0px" y="0px"
	 width="160px" height="110px" viewBox="0 0 160 110" enable-background="new 0 0 160 110" xml:space="preserve">
<g>
	<g>
		<g>
			<path d="M35.188,56.732c0.026,0.006,0.834,0.337,1.686,0.686l2.619,1.062c0.619,0.243,0.939,0.896,0.764,1.561
				c-0.212,0.831-1.207,1.619-3.34,1.331c-0.85-0.117-2.824-0.535-2.845-0.54l0.015,0.005c-0.048-0.017-1.236-0.445-1.971-0.051
				c-0.262,0.141-0.432,0.362-0.51,0.673c-0.277,1.106,0.865,1.493,0.871,1.497c0.409,0.146,0.859,0.25,1.221,0.324l0.307,0.082
				c0.021,0.002,2.614,0.613,4.666,0.589c1.35-0.021,4.629-0.326,5.91-2.678c0.189-0.347,0.453-1.555,0.322-2.324
				c-0.157-0.888-0.422-1.774-1.965-2.774c-0.391-0.246-1.604-0.653-2.682-1.01c-0.565-0.182-1.107-0.363-1.391-0.479
				c-1.889-0.76-2.227-1.454-2.258-1.801c-0.023-0.198,0.042-0.657,0.402-1.066c0.455-0.488,1.209-0.744,2.244-0.744
				c1.557,0,2.157,0.184,2.802,0.37c0.12,0.044,0.242,0.081,0.376,0.116c0.484,0.127,0.869,0.109,1.146-0.059
				c0.323-0.203,0.392-0.547,0.417-0.667c0.037-0.214,0.088-0.93-1.044-1.388c-0.094-0.036-2.408-0.938-6.056-0.432
				c-0.51,0.07-1.514,0.267-2.455,0.795c-1.379,0.756-2.096,1.939-2.07,3.406c0.019,1.062,0.512,1.997,1.434,2.727
				c0.689,0.545,1.366,0.783,1.393,0.789"/>
		</g>
	</g>
	<path d="M58.479,45.381c-5.982,0-10.822,4.844-10.822,10.825c0,5.977,4.84,10.822,10.822,10.822
		c5.978,0,10.825-4.846,10.825-10.822C69.304,50.225,64.457,45.381,58.479,45.381z M58.481,60.07c-2.129,0-3.871-1.731-3.871-3.863
		c0-2.137,1.742-3.869,3.871-3.869c2.127,0,3.864,1.732,3.864,3.869C62.345,58.338,60.608,60.07,58.481,60.07z"/>
	<path d="M72.673,51.035c0,0-0.087-1.725,1.759-1.725c1.054,0,1.719,0.956,2.957,0.956c1.586,0,2.008-0.956,4.155-0.956
		c2.455,0,2.595,0.956,4.11,0.956c1.602,0,1.892-0.956,4.713-0.956c1.498,0,3.15,0.873,3.15,2.753c0,2.562,0.006,9.341,0.006,9.383
		c0,0.964-0.785,1.759-1.76,1.759c-0.972,0-1.756-0.795-1.756-1.759c0,0,0-7.016,0-7.688c0-0.857,0.01-2.574-1.492-2.61
		c0,0-3.662-0.503-3.662,5.908c0,0.103,0.004,4.356,0.004,4.391c0,0.964-0.789,1.759-1.758,1.759c-0.954,0-1.732-0.76-1.759-1.705
		l0,0c0,0,0-6.123,0-7.744c0-0.564,0.097-2.608-1.518-2.608c-3.119,0-3.633,3.188-3.633,5.804v4.495
		c0,0.964-0.788,1.759-1.759,1.759c-0.953,0-1.732-0.76-1.759-1.705V51.035"/>
	<g>
		<g>
			<g>
				<g>
					<path d="M104.028,54.917c0.027-0.81,0.682-1.435,1.5-1.435h-0.003h0.003h0.004h0.01h0.012h-0.021h-0.01c0.006,0,0.02,0,1.909,0
						c0.618,0,1.111-0.183,1.461-0.539c0.554-0.553,0.575-1.364,0.575-1.517c0.002-0.213-0.028-0.896-0.529-1.396
						c-0.346-0.35-0.838-0.531-1.464-0.531h-1.936c-1.315,0-1.315-0.302-1.315-1.098c0-0.016,0.04-1.634,1.336-2.09
						c0.409-0.151,0.869-0.223,1.359-0.225h0.02h2.285h0.028c0.81,0,1.538-0.543,1.767-1.316c0.054-0.174,0.081-0.352,0.081-0.527
						c0-1.018-0.831-1.843-1.848-1.843c-0.036,0-2.228,0.006-2.228,0.006c-0.307,0-0.637,0.021-0.979,0.057
						c-1.042,0.11-1.976,0.351-2.786,0.709c-3.412,1.512-3.572,4.599-3.572,4.632l-0.004,0.048
						c-0.171,1.069-0.447,1.647-1.463,1.647c-0.506,0-0.908,0.161-1.205,0.484c-0.523,0.555-0.502,1.418-0.502,1.43v-0.012
						c0,1.752,1.656,2.081,1.682,2.083c0.783,0.065,1.373,0.698,1.373,1.468l0,0c0,0.041-0.01,3.985-0.01,6.066
						c0,0.733,0.201,1.299,0.582,1.688c0.506,0.502,1.154,0.506,1.178,0.506h0.893c0.052,0,0.54-0.008,0.998-0.328
						c0.373-0.252,0.82-0.783,0.82-1.846V54.917z"/>
				</g>
			</g>
		</g>
	</g>
	<g>
		<path d="M116.734,60.623c0.132,0.289,0.198,0.599,0.198,0.926c0,1.725-0.958,2.467-1.423,2.854
			c-1.169,0.966-2.831,0.896-2.85,0.896l0,0h-0.905c-0.569,0-1.202,0.473-1.202,1.146c0,0.718,0.481,1.153,1.288,1.153h0.824
			c0.044,0,1.201,0.047,2.445-0.352c1.256-0.4,2.989-1.343,4.189-3.556c0.284-0.523,2.756-6.091,4.557-10.149l1.375-3.084
			c0.08-0.19,0.089-0.377,0.035-0.546c-0.06-0.192-0.203-0.353-0.409-0.464c-0.354-0.185-0.85-0.193-1.336-0.041
			c-0.501,0.161-0.923,0.491-1.086,0.86c-0.015,0.048-2.055,4.455-2.202,4.759c-0.398,0.794-0.879,1.259-1.319,1.259
			c-0.518,0-0.841-0.064-1.584-1.331c-0.056-0.096-2.286-4.031-2.644-4.648c-0.201-0.389-0.636-0.718-1.162-0.886
			c-0.529-0.165-1.072-0.158-1.455,0.04c-0.226,0.12-0.385,0.296-0.448,0.501c-0.06,0.187-0.043,0.393,0.042,0.599
			C111.68,50.599,116.448,60.026,116.734,60.623z"/>
	</g>
	<g>
		<g>
			<g>
				<g>
					<g>
						<g>
							<path d="M126.367,63.119c-1.217,0-2.039-0.879-2.039-2.057c0-1.177,0.83-2.066,2.048-2.066c1.178,0,2.062,0.89,2.062,2.066
								C128.438,62.24,127.542,63.119,126.367,63.119z M126.367,59.475c-0.875,0-1.502,0.69-1.502,1.587
								c0,0.893,0.627,1.584,1.502,1.584c0.871,0,1.501-0.691,1.501-1.584C127.868,60.166,127.238,59.475,126.367,59.475z
								 M126.704,62.061c-0.28-0.501-0.443-0.81-0.517-0.81h-0.05v0.81h-0.451v-2.054h0.683c0.455,0,0.701,0.238,0.701,0.557
								c0,0.335-0.284,0.504-0.464,0.563v0.005c0.098,0,0.38,0.478,0.629,0.929H126.704z M126.212,60.356h-0.075v0.543h0.066
								c0.213,0,0.383-0.08,0.383-0.294C126.586,60.409,126.452,60.356,126.212,60.356z"/>
						</g>
					</g>
				</g>
			</g>
		</g>
	</g>
</g>
</svg>
