<?xml version="1.0" encoding="utf-8"?>
<!-- Generator: Adobe Illustrator 16.0.3, SVG Export Plug-In . SVG Version: 6.00 Build 0)  -->
<!DOCTYPE svg PUBLIC "-//W3C//DTD SVG 1.1//EN" "http://www.w3.org/Graphics/SVG/1.1/DTD/svg11.dtd">
<svg version="1.1" id="Layer_2" xmlns="http://www.w3.org/2000/svg" xmlns:xlink="http://www.w3.org/1999/xlink" x="0px" y="0px"
	 width="160px" height="110px" viewBox="0 0 160 110" enable-background="new 0 0 160 110" xml:space="preserve">
<g>
	<g>
		<rect x="65.552" y="73.389" width="1.899" height="0.905"/>
		<path d="M67.451,77.564v-0.402v-2.615h-1.899v0.812h0.445v2.905h-0.445v0.908h1.041c0.266,0,0.515-0.09,0.744-0.267
			c0.234,0.174,0.532,0.261,0.896,0.261l5.897,0.006v-0.883h-4.953h-1.014h-0.712V77.68V77.564z"/>
		<g>
			<polygon points="88.481,73.324 88.481,73.939 89.113,73.939 89.113,74.897 88.481,74.897 88.481,78.328 89.123,78.328 
				89.123,79.192 86.142,79.192 86.142,78.328 86.879,78.328 86.879,74.897 86.219,74.897 86.219,73.939 86.879,73.939 
				86.879,73.324 			"/>
			<path d="M93.796,73.709h-0.049c-0.01,0.002-0.018,0.002-0.026,0.002c-0.004,0-0.007,0-0.009,0h-0.995v-0.449h-1.613v0.447l0,0
				v0.002h-0.995c-0.002,0-0.005,0-0.007,0c-0.009,0-0.018,0-0.026-0.002h-0.05c-0.355,0.014-0.642,0.302-0.651,0.659v2.12l0,0v1.4
				v0.004c0,0.374,0.304,0.677,0.678,0.677c0.017,0,0.032-0.001,0.051-0.002c0.002,0,0.006,0,0.008,0h0.995v0.61h1.613v-0.61h0.991
				c0.002,0,0.004,0,0.005,0c0.015,0.001,0.029,0.002,0.042,0.002c0.368,0,0.667-0.292,0.678-0.657c0-0.004,0.002-0.008,0.002-0.012
				l0.012-3.521C94.445,74.017,94.157,73.723,93.796,73.709z M91.105,77.644H91.1v0.026h-0.363v-0.971H91.1h0.006V77.644z
				 M91.105,75.684h-0.364v-1.053h0.364V75.684z M93.084,77.392v0.278h-0.365v-0.971h0.365V77.392z M93.084,75.684h-0.365v-1.053
				h0.365V75.684z"/>
		</g>
		<path d="M79.14,78.229h-1.166h-0.392v-0.346v-1.145v-1.766h2.141v-0.971h-2.141V73.29h-1.653v5.07c0,0.387,0.123,0.631,0.365,0.73
			c0.245,0.1,0.537,0.15,0.88,0.15l2.635,0.006v-1.019H79.14z"/>
		<path d="M83.038,73.914h-0.512l-0.514,0.007v-0.718h-1.768v4.991c0,0.154,0.023,0.292,0.07,0.414
			c0.048,0.124,0.103,0.222,0.17,0.297c0.067,0.077,0.191,0.134,0.373,0.177c0.182,0.042,0.415,0.073,0.699,0.096h2.632v-0.983
			h-0.624h-1.08H82.01v-1.456h0.003v-1.841h1.025h0.22h0.968v-0.591v-0.393H83.038z"/>
		<path d="M69.54,76.762h-1.335v0.562h-0.317c-0.008,0-0.013,0.001-0.021,0.001v0.719h0.807c0.142,0,0.205,0,0.229,0
			c0,0,0.006-0.003,0.018-0.005c0.306-0.009,0.559-0.231,0.609-0.524l0,0c0.003-0.005,0.005-0.018,0.007-0.032
			c0.002-0.026,0.004-0.053,0.004-0.08c0-0.006,0-0.011,0-0.017C69.546,77.169,69.54,76.762,69.54,76.762z"/>
		<path d="M72.217,76.762h1.337v0.562h0.318c0.005,0,0.012,0.001,0.02,0.001v0.719h-0.806c-0.145,0-0.206,0-0.229,0
			c0,0-0.007-0.003-0.018-0.005c-0.307-0.009-0.559-0.231-0.611-0.524l0,0c-0.002-0.005-0.003-0.018-0.004-0.032
			c-0.005-0.026-0.007-0.053-0.007-0.08c0-0.006,0.001-0.011,0.002-0.017C72.212,77.169,72.217,76.762,72.217,76.762z"/>
		<path d="M74.049,74.273v-0.717h-2.327v-0.289h-1.613v0.289H67.71v0.717h2.398v0.205h-2.23v1.442
			c0.001,0.003,0.001,0.005,0.002,0.006c0.024,0.353,0.317,0.631,0.675,0.631c0.009,0,0.018,0,0.027-0.001
			c0.009,0.001,0.015,0.003,0.022,0.003h1.504v0.311v0.202V77.3v0.763h0.969h0.645v-0.564V76.56h1.491
			c0.016,0,0.029-0.002,0.043-0.003c0.353-0.022,0.636-0.315,0.636-0.674c0-0.006-0.003-0.013-0.003-0.016v-1.389h-2.167v-0.205
			H74.049z M69.147,75.592v-0.347h0.961v0.347H69.147z M72.675,75.245v0.228v0.119h-0.072h-0.881v-0.347H72.675z"/>
	</g>
	<g>
		<path fill-rule="evenodd" clip-rule="evenodd" d="M74.512,39.604c-0.528,0-0.973,0.444-0.973,0.991
			c0,0.548,0.444,0.993,0.973,0.993c0.547,0,0.993-0.445,0.993-0.993C75.505,40.049,75.059,39.604,74.512,39.604"/>
		<path fill-rule="evenodd" clip-rule="evenodd" d="M78.298,39.604c-0.545,0-0.99,0.444-0.99,0.991c0,0.548,0.445,0.993,0.99,0.993
			c0.527,0,0.974-0.445,0.974-0.993C79.271,40.049,78.825,39.604,78.298,39.604"/>
		<path fill-rule="evenodd" clip-rule="evenodd" d="M81.986,39.604c-0.548,0-0.993,0.444-0.993,0.991
			c0,0.548,0.445,0.993,0.993,0.993c0.546,0,0.991-0.445,0.991-0.993C82.978,40.049,82.532,39.604,81.986,39.604"/>
		<path fill-rule="evenodd" clip-rule="evenodd" d="M88.851,53.862c5.064-2.187,8.486-6.158,8.486-10.673
			c0-6.847-7.797-12.437-17.337-12.437c-9.539,0-17.339,5.59-17.339,12.437c0,6.823,7.8,12.416,17.339,12.416
			c0.265,0,0.547,0,0.83-0.021c0.446,0,0.506,0.021,0.71,0.424c0.203,0.406,0.446,0.912,0.566,1.176
			c0.364,0.711,1.073,2.35,3.545,2.369c1.862-0.039,3.688-0.02,5.55-0.039c0.364,0,0.426-0.285,0.283-0.406
			c-0.588-0.446-1.134-0.95-1.439-1.578c-0.363-0.75-0.931-1.945-1.377-2.878C88.427,54.206,88.507,54.003,88.851,53.862
			 M87.353,50.521c-0.364,0.304-0.527-0.143-0.607-0.284c-1.135-2.431-2.351-4.819-3.444-7.25c-0.059-0.143-0.04-0.182-0.223-0.182
			c-0.181,0-0.343,0-0.526,0c0.143,0.282,0.284,0.584,0.426,0.869c0.811,1.823-0.852,2.715-2.248,1.015
			c-0.222-0.266-0.345-0.446-0.548-0.75c-0.182-0.305-0.363-0.628-0.546-0.952c-0.062-0.123-0.102-0.182-0.264-0.182
			s-0.324,0-0.485,0c0.122,0.263,0.264,0.546,0.405,0.81c1.174,2.531-1.562,2.673-2.513,1.032c-0.323-0.547-0.648-1.115-0.952-1.66
			c-0.1-0.182-0.223-0.182-0.384-0.204c-0.102,0-0.224,0.022-0.344,0.022c1.538,3.139,3.098,6.318,4.657,9.498
			c0.182,0.363,0.101,0.527-0.242,0.506c-6.34-0.103-11.404-4.415-11.404-9.661c0-5.326,5.246-9.682,11.708-9.682
			c6.44,0,11.706,4.355,11.706,9.682C91.524,46.146,89.985,48.737,87.353,50.521z"/>
		<polygon fill-rule="evenodd" clip-rule="evenodd" points="92.027,58.299 92.421,58.299 92.421,58.402 92.28,58.402 92.28,59.059 
			92.17,59.059 92.17,58.402 92.027,58.402 		"/>
		<polygon fill-rule="evenodd" clip-rule="evenodd" points="92.602,59.059 92.496,59.059 92.496,58.299 92.659,58.299 
			92.879,58.888 93.1,58.299 93.261,58.299 93.261,59.059 93.156,59.059 93.165,58.4 92.917,59.059 92.839,59.059 92.595,58.4 		"/>
	</g>
	<g>
		<path d="M53.976,68.814c-1.295,0-2.871-0.056-2.871-2.021V66.66h2.465v0.889h0.463V66.7c-0.406-0.143-0.879-0.275-1.352-0.435
			c-0.755-0.265-1.473-0.604-1.501-1.654c-0.028-1.398,0.974-1.965,2.636-1.965c2.162,0,2.654,0.823,2.654,1.795v0.227h-2.438
			v-0.735h-0.463v0.735c0.312,0.095,0.766,0.228,1.274,0.378c0.87,0.246,1.748,0.615,1.748,1.748
			C56.592,68.334,55.469,68.814,53.976,68.814z"/>
		<path d="M61.805,68.041c-0.255,0.453-0.688,0.736-1.323,0.736c-0.604,0-1-0.198-1.227-0.5v1.907h-2.259v-6.026h2.238v0.473
			c0.181-0.292,0.578-0.567,1.277-0.557c0.442,0,0.764,0.132,1.019,0.377c0.415,0.396,0.51,0.964,0.51,1.928
			C62.04,67.066,62.021,67.644,61.805,68.041z M59.735,65.415h-0.48v1.974h0.48V65.415z"/>
		<path d="M66.582,68.476c-0.558,0.283-1.182,0.311-1.663,0.311c-2.05,0-2.53-0.944-2.53-2.38c0-1.605,0.689-2.39,2.616-2.39
			c1.151,0,1.842,0.293,2.219,0.896c0.15,0.256,0.283,0.598,0.283,1.398c0,0,0,0.077,0,0.332h-2.796v1.049h0.481v-0.586h2.314
			C67.507,67.672,67.11,68.211,66.582,68.476z M65.192,65.008h-0.481v0.852h0.481V65.008z"/>
		<path d="M72.048,68.476c-0.557,0.283-1.18,0.311-1.663,0.311c-2.049,0-2.53-0.944-2.53-2.38c0-1.605,0.688-2.39,2.616-2.39
			c1.151,0,1.842,0.293,2.22,0.896c0.151,0.256,0.284,0.598,0.284,1.398c0,0,0,0.077,0,0.332h-2.796v1.049h0.481v-0.586h2.314
			C72.975,67.672,72.577,68.211,72.048,68.476z M70.66,65.008h-0.481v0.852h0.481V65.008z"/>
		<path d="M76.068,68.645v-0.424c-0.255,0.283-0.65,0.519-1.235,0.519c-0.368,0-0.698-0.065-1.011-0.367
			c-0.425-0.407-0.492-1.143-0.502-1.871c-0.009-0.859,0.067-1.446,0.303-1.812c0.283-0.445,0.688-0.625,1.238-0.625
			c0.565,0,0.942,0.17,1.207,0.453v-1.7h2.269v5.828H76.068z M76.068,65.404h-0.472v1.947h0.472V65.404z"/>
		<g>
			<path d="M84.208,68.814c-0.982,0-1.577-0.235-2.002-0.623c-0.548-0.5-0.623-1.342-0.623-2.465c0-2.39,0.576-3.089,2.711-3.089
				c2.134,0,2.711,0.699,2.711,3.089c0,0.596-0.039,1.397-0.227,1.853h0.518v1.235C84.596,68.814,84.208,68.814,84.208,68.814z
				 M84.519,63.979h-0.461v3.601h0.461V63.979z"/>
			<path d="M90.287,68.645V68.2c-0.331,0.331-0.755,0.559-1.342,0.539c-0.547-0.01-0.98-0.282-1.188-0.651
				c-0.114-0.199-0.227-0.509-0.227-1.076v-2.854h2.285v3.212h0.472v-3.212h2.267v4.486H90.287z"/>
			<path d="M97.112,68.476c-0.557,0.283-1.181,0.311-1.661,0.311c-2.051,0-2.531-0.944-2.531-2.38c0-1.605,0.689-2.39,2.616-2.39
				c1.152,0,1.841,0.293,2.219,0.896c0.15,0.256,0.284,0.598,0.284,1.398c0,0,0,0.077,0,0.332h-2.796v1.049h0.481v-0.586h2.314
				C98.039,67.672,97.642,68.211,97.112,68.476z M95.725,65.008h-0.481v0.852h0.481V65.008z"/>
			<path d="M102.58,68.476c-0.559,0.283-1.183,0.311-1.663,0.311c-2.049,0-2.531-0.944-2.531-2.38c0-1.605,0.69-2.39,2.616-2.39
				c1.151,0,1.841,0.293,2.22,0.896c0.15,0.256,0.284,0.598,0.284,1.398c0,0,0,0.077,0,0.332h-2.796v1.049h0.48v-0.586h2.315
				C103.506,67.672,103.108,68.211,102.58,68.476z M101.19,65.008h-0.48v0.852h0.48V65.008z"/>
			<path d="M106.609,68.645v-3.229h-0.482v3.229h-2.257v-4.486h2.191v0.435c0.179-0.254,0.622-0.576,1.35-0.576
				c0.955-0.01,1.484,0.614,1.484,1.53v3.098H106.609z"/>
		</g>
	</g>
</g>
</svg>
