<?xml version="1.0" encoding="utf-8"?>
<!-- Generator: Adobe Illustrator 16.0.3, SVG Export Plug-In . SVG Version: 6.00 Build 0)  -->
<!DOCTYPE svg PUBLIC "-//W3C//DTD SVG 1.1//EN" "http://www.w3.org/Graphics/SVG/1.1/DTD/svg11.dtd">
<svg version="1.1" id="Layer_2" xmlns="http://www.w3.org/2000/svg" xmlns:xlink="http://www.w3.org/1999/xlink" x="0px" y="0px"
	 width="160px" height="110px" viewBox="0 0 160 110" enable-background="new 0 0 160 110" xml:space="preserve">
<g>
	<path d="M48.552,59.575c-0.917,0-1.915-0.282-2.61-0.716l-0.412-1.531h0.04c1.148,1.119,2.065,1.521,2.982,1.521
		s1.714-0.492,1.714-1.642c0-0.837-0.574-1.119-1.936-1.845c-1.582-0.847-2.59-1.511-2.59-2.872c0-1.502,1.482-1.996,2.923-1.996
		c0.776,0,1.542,0.131,2.065,0.293l0.354,1.35h-0.03c-0.555-0.514-1.553-0.957-2.49-0.957c-0.755,0-1.511,0.363-1.511,1.179
		c0,0.695,0.383,1.06,2.227,1.995c1.854,0.949,2.409,1.645,2.409,2.844C51.687,58.899,50.074,59.575,48.552,59.575"/>
	<path d="M60.908,53.315l-1.611,6.149h-0.081c-0.354,0-0.646-0.191-0.907-0.898l-1.744-4.605l-1.562,4.477
		c-0.212,0.604-0.474,1.027-1.028,1.027h-0.08l-1.523-5.877c-0.211-0.814-0.342-0.977-0.734-1.289v-0.03h2.126v0.03
		c-0.19,0.181-0.262,0.361-0.262,0.563c0,0.191,0.051,0.403,0.111,0.655l1.017,4.031l1.594-4.676
		c0.15-0.434,0.361-0.655,0.806-0.655h0.161l1.975,5.14l0.969-3.88c0.051-0.182,0.07-0.333,0.07-0.474
		c0-0.271-0.111-0.474-0.362-0.705v-0.03h1.692v0.03C61.23,52.601,61.06,52.732,60.908,53.315"/>
	<path fill="#221F1F" d="M63.59,53.377v4.898c0,0.494,0.06,0.796,0.443,1.078v0.029h-2.086v-0.029
		c0.383-0.282,0.452-0.584,0.452-1.078v-4.898c0-0.494-0.069-0.797-0.452-1.078v-0.03h2.097v0.03
		C63.66,52.58,63.59,52.883,63.59,53.377"/>
	<path fill="#221F1F" d="M67.127,52.812h-0.474c-0.312,0-0.403,0.061-0.403,0.434v2.309h0.756c0.877,0,1.603-0.475,1.603-1.462
		C68.608,53.104,68.004,52.812,67.127,52.812 M69.818,59.383c-0.524,0-0.969-0.039-1.463-0.896l-1.148-2.005
		c-0.211-0.374-0.232-0.383-0.554-0.383H66.25v2.176c0,0.495,0.061,0.796,0.443,1.079v0.029h-2.086v-0.029
		c0.382-0.283,0.453-0.584,0.453-1.079v-4.897c0-0.494-0.071-0.797-0.453-1.078v-0.03h2.68c1.604,0,2.602,0.514,2.602,1.824
		c0,0.997-0.666,1.632-1.634,1.885l1.251,2.167c0.393,0.676,0.846,0.967,1.41,1.209v0.029H69.818z"/>
	<path fill="#221F1F" d="M75.814,59.383h-5.029v-0.029c0.383-0.283,0.475-0.584,0.475-1.079v-4.897c0-0.494-0.092-0.797-0.475-1.078
		v-0.03h4.656l0.252,1.038h-0.02c-0.414-0.332-0.655-0.494-1.482-0.494h-1.34c-0.333,0-0.415,0.241-0.415,0.373v2.187h2.52
		l0.072,0.807h-0.031c-0.131-0.11-0.352-0.263-0.726-0.263h-1.835v2.238c0,0.584,0.092,0.686,0.415,0.686h1.34
		c1.029,0,1.28-0.143,1.916-0.686h0.02L75.814,59.383"/>
	<path fill="#221F1F" d="M80.809,52.812h-0.475c-0.362,0-0.402,0.09-0.402,0.463v2.359h0.877c0.877,0,1.502-0.443,1.502-1.432
		C82.311,53.217,81.776,52.812,80.809,52.812 M80.899,56.179h-0.968v2.097c0,0.494,0.061,0.796,0.443,1.078v0.029h-2.086v-0.029
		c0.383-0.282,0.453-0.584,0.453-1.078v-5c0-0.493-0.07-0.695-0.453-0.977v-0.03h2.73c1.604,0,2.57,0.624,2.57,1.935
		S82.502,56.179,80.899,56.179z"/>
	<path fill="#221F1F" d="M86.603,52.812h-0.474c-0.312,0-0.402,0.061-0.402,0.434v2.309h0.756c0.877,0,1.602-0.475,1.602-1.462
		C88.084,53.104,87.479,52.812,86.603,52.812 M89.294,59.383c-0.523,0-0.968-0.039-1.461-0.896l-1.149-2.005
		c-0.211-0.374-0.232-0.383-0.555-0.383h-0.402v2.176c0,0.495,0.061,0.796,0.443,1.079v0.029h-2.086v-0.029
		c0.383-0.283,0.453-0.584,0.453-1.079v-4.897c0-0.494-0.07-0.797-0.453-1.078v-0.03h2.68c1.604,0,2.601,0.514,2.601,1.824
		c0,0.997-0.665,1.632-1.633,1.885l1.25,2.167c0.394,0.676,0.847,0.967,1.411,1.209v0.029H89.294z"/>
	<path fill="#221F1F" d="M93.83,52.682c-1.693,0-2.49,1.501-2.49,2.993c0,1.593,0.887,3.296,2.5,3.296
		c1.693,0,2.488-1.502,2.488-2.993C96.328,54.385,95.443,52.682,93.83,52.682 M93.779,59.575c-2.479,0-3.719-1.854-3.719-3.72
		c0-1.885,1.26-3.779,3.82-3.779c2.479,0,3.728,1.855,3.728,3.72C97.608,57.68,96.338,59.575,93.779,59.575z"/>
	<path fill="#221F1F" d="M100.733,52.812h-0.474c-0.363,0-0.404,0.09-0.404,0.463v2.359h0.878c0.877,0,1.503-0.443,1.503-1.432
		C102.236,53.217,101.701,52.812,100.733,52.812 M100.824,56.179h-0.969v2.097c0,0.494,0.062,0.796,0.444,1.078v0.029h-2.087v-0.029
		c0.383-0.282,0.455-0.584,0.455-1.078v-5c0-0.493-0.072-0.695-0.455-0.977v-0.03h2.731c1.603,0,2.571,0.624,2.571,1.935
		S102.426,56.179,100.824,56.179z"/>
	<path fill="#221F1F" d="M109.018,59.383h-5.029v-0.029c0.383-0.283,0.475-0.584,0.475-1.079v-4.897
		c0-0.494-0.092-0.797-0.475-1.078v-0.03h4.656l0.253,1.038h-0.021c-0.414-0.332-0.654-0.494-1.482-0.494h-1.339
		c-0.333,0-0.414,0.241-0.414,0.373v2.187h2.52l0.07,0.807h-0.029c-0.132-0.11-0.353-0.263-0.727-0.263h-1.834v2.238
		c0,0.584,0.091,0.686,0.414,0.686h1.339c1.028,0,1.281-0.143,1.916-0.686h0.02L109.018,59.383"/>
	<path fill="#221F1F" d="M112.304,52.812h-0.474c-0.312,0-0.402,0.061-0.402,0.434v2.309h0.756c0.876,0,1.602-0.475,1.602-1.462
		C113.785,53.104,113.181,52.812,112.304,52.812 M114.995,59.383c-0.524,0-0.969-0.039-1.462-0.896l-1.148-2.005
		c-0.213-0.374-0.232-0.383-0.555-0.383h-0.402v2.176c0,0.495,0.061,0.796,0.442,1.079v0.029h-2.085v-0.029
		c0.383-0.283,0.453-0.584,0.453-1.079v-4.897c0-0.494-0.07-0.797-0.453-1.078v-0.03h2.681c1.603,0,2.599,0.514,2.599,1.824
		c0,0.997-0.665,1.632-1.631,1.885l1.249,2.167c0.394,0.676,0.847,0.967,1.411,1.209v0.029H114.995z"/>
	<path fill="#221F1F" d="M121.637,53.518c-0.475-0.494-0.777-0.705-1.321-0.705h-0.655c-0.322,0-0.412,0.05-0.412,0.635v4.827
		c0,0.495,0.08,0.796,0.463,1.079v0.029h-2.127v-0.029c0.383-0.283,0.474-0.584,0.474-1.079v-4.827c0-0.585-0.08-0.635-0.403-0.635
		H117c-0.544,0-0.848,0.211-1.32,0.705h-0.04l0.292-1.249h5.453l0.293,1.249H121.637"/>
	<path fill="#221F1F" d="M123.824,53.377v4.898c0,0.494,0.06,0.796,0.443,1.078v0.029h-2.088v-0.029
		c0.383-0.282,0.455-0.584,0.455-1.078v-4.898c0-0.494-0.072-0.797-0.455-1.078v-0.03h2.098v0.03
		C123.894,52.58,123.824,52.883,123.824,53.377"/>
	<path fill="#221F1F" d="M129.86,59.383h-5.029v-0.029c0.383-0.283,0.474-0.584,0.474-1.079v-4.897c0-0.494-0.091-0.797-0.474-1.078
		v-0.03h4.657l0.25,1.038h-0.019c-0.415-0.332-0.655-0.494-1.481-0.494h-1.34c-0.334,0-0.414,0.241-0.414,0.373v2.187h2.52
		l0.07,0.807h-0.031c-0.131-0.11-0.352-0.263-0.726-0.263h-1.833v2.238c0,0.584,0.09,0.686,0.414,0.686h1.34
		c1.027,0,1.279-0.143,1.914-0.686h0.021L129.86,59.383"/>
	<path fill="#221F1F" d="M133.105,59.575c-0.826,0-1.531-0.192-2.177-0.564l-0.353-1.3h0.03c0.917,0.887,1.733,1.26,2.499,1.26
		s1.481-0.312,1.481-1.27c0-0.646-0.484-0.969-1.683-1.603c-1.26-0.677-2.066-1.241-2.066-2.37c0-1.37,1.371-1.652,2.348-1.652
		c0.828,0,1.351,0.142,1.885,0.263l0.272,1.099h-0.021c-0.686-0.514-1.299-0.756-2.137-0.756c-0.705,0-1.189,0.303-1.189,0.896
		c0,0.525,0.111,0.797,1.693,1.613c1.473,0.756,2.107,1.391,2.107,2.389C135.797,58.98,134.547,59.575,133.105,59.575"/>
	<polyline points="24.351,49.271 33.096,55 24.351,60.73 24.351,49.271 	"/>
	<polyline points="41.84,49.271 33.096,55 41.84,60.73 41.84,49.271 	"/>
	<rect x="31.91" y="49.22" width="2.371" height="11.561"/>
	<path d="M41.69,60.633H24.5V49.369h17.19V60.633 M41.988,49.072H24.203v11.855h17.785V49.072z"/>
</g>
</svg>
