<?xml version="1.0" encoding="utf-8"?>
<!-- Generator: Adobe Illustrator 16.0.3, SVG Export Plug-In . SVG Version: 6.00 Build 0)  -->
<!DOCTYPE svg PUBLIC "-//W3C//DTD SVG 1.1//EN" "http://www.w3.org/Graphics/SVG/1.1/DTD/svg11.dtd">
<svg version="1.1" id="Layer_2" xmlns="http://www.w3.org/2000/svg" xmlns:xlink="http://www.w3.org/1999/xlink" x="0px" y="0px"
	 width="160px" height="110px" viewBox="0 0 160 110" enable-background="new 0 0 160 110" xml:space="preserve">
<g>
	<rect x="40.994" y="35.497" width="78.012" height="39.007"/>
	<path fill="#FFFFFF" d="M77.699,41.602l0.047,1.9l-0.439,0.024c-0.037-1.164-0.283-1.323-2.049-1.323h-0.379v6.705
		c0,0.919,0.232,1.164,1.141,1.189l0.023,0.318c-0.857-0.012-1.508-0.012-1.938-0.012c-0.439,0-1.115,0-1.998,0.012l0.025-0.318
		c0.906-0.025,1.141-0.271,1.141-1.189v-6.705h-0.441c-1.814,0-2.061,0.159-2.086,1.323l-0.453-0.024l0.049-1.9
		c1.668,0.013,2.906,0.024,3.74,0.024C74.879,41.626,76.092,41.615,77.699,41.602"/>
	<path fill="#FFFFFF" d="M78.027,50.123c0.82,0,0.932-0.159,0.943-1.312v-0.771V43.98v-0.772c-0.012-1.151-0.123-1.312-0.943-1.312
		l-0.025-0.294c1.115-0.062,1.373-0.098,2.379-0.282v3.801c0.648-0.724,1.201-1.005,1.924-1.005c1.201,0,1.863,0.76,1.863,2.157
		v1.766v0.771c0.014,1.153,0.123,1.312,0.943,1.312l0.025,0.294c-0.711-0.024-1.25-0.049-1.605-0.049
		c-0.344,0-0.846,0.024-1.521,0.049l0.025-0.294c0.65-0.098,0.711-0.221,0.723-1.312v-0.771v-1.091c0-1.545-0.27-2.061-1.078-2.061
		c-0.453,0-0.92,0.282-1.115,0.711c-0.074,0.147-0.123,0.308-0.172,0.466c-0.012,0.062-0.012,0.111-0.012,0.136v1.839v0.771
		c0,1.092,0.072,1.215,0.723,1.312l0.025,0.294c-0.688-0.024-1.189-0.049-1.533-0.049c-0.355,0-0.895,0.024-1.594,0.049
		L78.027,50.123z"/>
	<path fill="#FFFFFF" d="M87.404,46.494c1.127-0.024,1.471-0.049,2.611-0.171c-0.148-1.189-0.602-1.778-1.373-1.778
		C87.906,44.544,87.525,45.158,87.404,46.494 M91.314,49.215c-0.76,0.943-1.508,1.336-2.488,1.336c-1.705,0-2.857-1.25-2.857-3.102
		c0-1.974,1.189-3.334,2.906-3.334c0.943,0,1.605,0.343,2.061,1.091c0.305,0.515,0.391,0.87,0.402,1.753h-3.896
		c0.047,1.863,0.723,2.918,1.85,2.918c0.674,0,1.238-0.307,1.84-1.006L91.314,49.215z"/>
	<path fill="#FFFFFF" d="M45.418,62.211c0.992-0.027,1.25-0.3,1.25-1.319v-6.431c0-1.02-0.258-1.292-1.25-1.318l-0.041-0.354
		l2.107,0.026l3.316-0.04l0.871,0.014l0.055,1.998l-0.545,0.041c-0.094-1.237-0.326-1.373-2.283-1.373H48.6l-0.137,0.013v3.698
		c0.258,0,0.463,0.014,0.586,0.014c0.217,0.014,0.42,0.027,0.625,0.027c1.086,0,1.332-0.231,1.346-1.264h0.461
		c-0.041,0.829-0.041,1.25-0.041,1.658c0,0.326,0,0.788,0.014,1.4H51.02c-0.055-0.979-0.273-1.17-1.318-1.184l-0.734-0.014
		l-0.518,0.027v2.869c0,1.155,0.068,1.21,1.211,1.21c1.535,0,1.984-0.34,2.121-1.658l0.543,0.027l-0.312,2.283l-1.047,0.014
		l-3.33-0.027l-2.258,0.014L45.418,62.211z"/>
	<path fill="#FFFFFF" d="M59.338,61.599c-0.775,0.802-1.416,1.114-2.312,1.114c-1.795,0-2.963-1.4-2.963-3.534
		c0-2.203,1.236-3.604,3.193-3.604c0.518,0,1.049,0.096,1.863,0.313l0.027,1.632l-0.611,0.04c-0.244-1.224-0.49-1.509-1.279-1.509
		c-1.018,0-1.549,0.911-1.549,2.665c0,2.066,0.639,3.222,1.795,3.222c0.598,0,1.102-0.258,1.631-0.829L59.338,61.599z"/>
	<path fill="#FFFFFF" d="M62.475,59.26c0.137,1.944,0.775,2.991,1.822,2.991c0.98,0,1.564-1.02,1.564-2.732
		c0-2.013-0.803-3.426-1.918-3.426c-0.992,0-1.494,0.855-1.494,2.556C62.449,58.853,62.449,59.056,62.475,59.26 M60.791,59.411
		v-0.205c0-2.297,1.236-3.63,3.357-3.63c1.971,0,3.357,1.469,3.357,3.576c0,2.134-1.346,3.562-3.398,3.562
		C62.164,62.713,60.857,61.409,60.791,59.411"/>
	<path fill="#FFFFFF" d="M69.164,62.238c0.91,0,1.045-0.177,1.045-1.454v-0.857v-1.428v-0.869c0-1.265-0.135-1.441-1.045-1.455
		l-0.027-0.312c1.209-0.068,1.48-0.109,2.514-0.326l0.068,1.224c0.775-0.87,1.373-1.184,2.203-1.184
		c1.318,0,2.066,0.856,2.066,2.394v1.645v1.17c-0.014,0.108-0.014,0.217-0.014,0.326c0,0.87,0.23,1.128,1.061,1.128l0.027,0.326
		c-0.789-0.027-1.387-0.054-1.781-0.054c-0.381,0-0.953,0.026-1.699,0.054l0.025-0.326c0.721-0.108,0.803-0.245,0.803-1.454
		l0.014-0.857v-1.209c0-1.714-0.312-2.285-1.195-2.285c-0.531,0-0.98,0.286-1.252,0.789c-0.107,0.204-0.203,0.53-0.203,0.666v2.039
		v0.857c0.014,1.209,0.082,1.346,0.803,1.454l0.041,0.326c-0.762-0.027-1.332-0.054-1.715-0.054c-0.393,0-0.979,0.026-1.766,0.054
		L69.164,62.238z"/>
	<path fill="#FFFFFF" d="M79.945,59.26c0.135,1.944,0.773,2.991,1.822,2.991c0.977,0,1.562-1.02,1.562-2.732
		c0-2.013-0.803-3.426-1.918-3.426c-0.992,0-1.494,0.855-1.494,2.556C79.918,58.853,79.918,59.056,79.945,59.26 M78.26,59.411
		v-0.205c0-2.297,1.236-3.63,3.357-3.63c1.971,0,3.357,1.469,3.357,3.576c0,2.134-1.346,3.562-3.398,3.562
		C79.633,62.713,78.326,61.409,78.26,59.411"/>
	<path fill="#FFFFFF" d="M86.631,62.238c0.912,0,1.049-0.177,1.049-1.454v-0.857v-1.428v-0.869c0-1.265-0.137-1.441-1.049-1.455
		l-0.027-0.312c1.211-0.068,1.482-0.109,2.516-0.326l0.068,1.224c0.775-0.856,1.373-1.184,2.176-1.184
		c0.924,0,1.467,0.381,1.875,1.292c0.83-0.951,1.441-1.292,2.271-1.292c1.291,0,2.025,0.87,2.025,2.394v1.645v1.17
		c0,0.108-0.014,0.217-0.014,0.326c0,0.87,0.244,1.128,1.061,1.128l0.027,0.326c-0.789-0.027-1.387-0.054-1.781-0.054
		c-0.381,0-0.938,0.026-1.686,0.054l0.027-0.326c0.721-0.108,0.789-0.245,0.803-1.454v-0.857v-1.209
		c0-1.687-0.301-2.285-1.143-2.285c-0.504,0-1.02,0.327-1.238,0.789c-0.068,0.163-0.135,0.326-0.176,0.517
		c-0.014,0.067-0.027,0.122-0.027,0.149v2.039v0.857c0,1.209,0.082,1.346,0.803,1.454l0.025,0.326
		c-0.719-0.027-1.264-0.054-1.631-0.054c-0.354,0-0.883,0.026-1.59,0.054l0.027-0.326c0.721-0.108,0.789-0.245,0.803-1.454v-0.857
		v-1.209c0-1.687-0.301-2.285-1.143-2.285c-0.518,0-0.979,0.3-1.238,0.789c-0.107,0.218-0.203,0.53-0.203,0.666v2.039v0.857
		c0.014,1.209,0.082,1.346,0.803,1.454l0.025,0.326c-0.746-0.027-1.318-0.054-1.699-0.054c-0.395,0-0.979,0.026-1.768,0.054
		L86.631,62.238z"/>
	<path fill="#FFFFFF" d="M100.797,53.265c0-0.517,0.408-0.925,0.91-0.925c0.504,0,0.912,0.422,0.912,0.925
		c0,0.517-0.395,0.924-0.912,0.924C101.191,54.189,100.797,53.795,100.797,53.265 M102.551,55.536v4.391l0.014,0.857
		c0,1.277,0.121,1.454,1.047,1.454l0.027,0.326c-0.844-0.027-1.455-0.054-1.877-0.054c-0.408,0-1.02,0.026-1.85,0.054l0.027-0.326
		c0.912,0,1.047-0.177,1.047-1.454L101,59.926v-1.428l-0.014-0.869c0-1.265-0.135-1.441-1.047-1.455l-0.027-0.312
		C101.164,55.78,101.449,55.739,102.551,55.536"/>
	<path fill="#FFFFFF" d="M105.309,62.32l-0.055-1.387l0.693-0.027c0.312,1.047,0.516,1.251,1.236,1.251
		c0.627,0,1.035-0.327,1.035-0.816c0-0.462-0.287-0.815-1.143-1.4c-0.436-0.299-0.734-0.502-0.896-0.625
		c-0.355-0.272-0.613-0.598-0.748-0.966c-0.082-0.203-0.123-0.448-0.123-0.733c0-1.237,0.844-2.04,2.121-2.04
		c0.475,0,0.748,0.041,1.848,0.3l0.027,1.373l-0.693,0.027c-0.162-0.911-0.447-1.224-1.086-1.224c-0.613,0-1.047,0.354-1.047,0.856
		c0,0.476,0.217,0.761,0.924,1.21c0.639,0.421,1.141,0.802,1.482,1.101c0.379,0.367,0.598,0.83,0.598,1.359
		c0,1.21-1.02,2.135-2.324,2.135C106.654,62.713,106.18,62.605,105.309,62.32"/>
	<path fill="#FFFFFF" d="M110.924,55.971c1.074-0.082,1.496-0.545,1.809-1.958h0.611v1.835h1.713l-0.191,0.748h-1.521v3.344
		c0,1.673,0.217,2.066,1.143,2.066c0.217,0,0.42-0.026,0.748-0.122v0.395c-0.463,0.258-1.102,0.408-1.754,0.408
		c-0.6,0-1.17-0.34-1.416-0.844c-0.203-0.421-0.27-0.843-0.27-1.767v-3.48h-0.871V55.971z"/>
</g>
</svg>
