<?xml version="1.0" encoding="utf-8"?>
<!-- Generator: Adobe Illustrator 16.0.3, SVG Export Plug-In . SVG Version: 6.00 Build 0)  -->
<!DOCTYPE svg PUBLIC "-//W3C//DTD SVG 1.1//EN" "http://www.w3.org/Graphics/SVG/1.1/DTD/svg11.dtd">
<svg version="1.1" id="Layer_2" xmlns="http://www.w3.org/2000/svg" xmlns:xlink="http://www.w3.org/1999/xlink" x="0px" y="0px"
	 width="160px" height="110px" viewBox="0 0 160 110" enable-background="new 0 0 160 110" xml:space="preserve">
<g>
	<path d="M79.953,36.845c-5.498,0-9.959,4.462-9.959,9.96c0,5.505,4.461,9.959,9.959,9.961c5.497-0.002,9.96-4.456,9.962-9.961
		C89.913,41.307,85.45,36.845,79.953,36.845z M80.74,56.064c-0.155,0.013-0.311,0.022-0.467,0.028l0.001-3.659h3.35
		C82.9,53.822,81.92,55.052,80.74,56.064z M76.284,52.433h3.323l-0.002,3.658c-0.146-0.007-0.291-0.017-0.438-0.027
		C77.991,55.053,77.008,53.821,76.284,52.433z M72.13,51.812c-0.869-1.356-1.397-2.955-1.462-4.673h3.579
		c0.043,1.637,0.39,3.198,0.989,4.629H72.13V51.812z M79.155,37.55c0.155-0.014,0.309-0.022,0.466-0.028l-0.004,3.66h-3.34
		C77,39.794,77.979,38.561,79.155,37.55z M83.63,41.182h-3.346l0.004-3.66c0.155,0.006,0.31,0.015,0.463,0.028
		C81.929,38.562,82.908,39.792,83.63,41.182z M83.951,41.848c0.63,1.42,0.998,2.98,1.041,4.624H80.28l0.004-4.624H83.951z
		 M79.617,41.848l-0.004,4.624h-4.698c0.043-1.643,0.409-3.205,1.041-4.624H79.617z M74.247,46.472h-3.579
		c0.064-1.696,0.58-3.278,1.434-4.624h3.131C74.635,43.278,74.29,44.837,74.247,46.472z M74.915,47.139h4.698l-0.004,4.629h-3.648
		C75.328,50.348,74.959,48.785,74.915,47.139z M80.276,51.768l0.004-4.629h4.712c-0.045,1.646-0.413,3.209-1.047,4.629H80.276z
		 M85.659,47.139h3.579c-0.063,1.699-0.579,3.28-1.434,4.629h-3.133C85.272,50.337,85.616,48.776,85.659,47.139z M85.659,46.472
		c-0.041-1.635-0.387-3.194-0.983-4.624h3.131c0.853,1.346,1.368,2.928,1.432,4.624H85.659z M87.343,41.182h-2.968
		c-0.626-1.286-1.457-2.453-2.455-3.456C84.115,38.203,86.023,39.454,87.343,41.182z M77.991,37.726
		c-0.998,1.001-1.832,2.169-2.458,3.456h-2.97C73.881,39.453,75.791,38.201,77.991,37.726z M72.563,52.433h2.974
		c0.63,1.289,1.465,2.455,2.467,3.457C75.798,55.417,73.885,54.165,72.563,52.433z M81.906,55.89
		c1.002-1.003,1.837-2.17,2.465-3.457h2.972C86.021,54.165,84.109,55.416,81.906,55.89z"/>
	<g>
		<path d="M69.097,54.399l16.812-14.932c-0.105-0.083-0.229-0.181-0.324-0.257l0,0c-1.573-1.167-3.517-1.86-5.625-1.86l0,0
			c-5.226,0.01-9.447,4.237-9.457,9.456l0,0v0.02h-1.405V35.942h21.725v3.182v0.08L73.982,54.138
			c0.104,0.087,0.233,0.187,0.328,0.262l0,0c1.574,1.165,3.514,1.856,5.63,1.856l0,0c5.218-0.01,9.443-4.228,9.453-9.458l0,0v0.013
			h1.428v10.854H69.097V54.399z"/>
	</g>
	<g>
		<path d="M70.659,46.805c0.011-5.129,4.164-9.284,9.294-9.293c2.215,0.003,4.246,0.781,5.843,2.076l0.51-0.451
			c-1.725-1.43-3.939-2.292-6.353-2.292c-5.498,0-9.959,4.462-9.959,9.96c0,1.983,0.581,3.829,1.581,5.381l0.506-0.451
			C71.185,50.307,70.665,48.618,70.659,46.805z"/>
		<path d="M88.324,41.415l-0.506,0.451c0.902,1.432,1.426,3.124,1.43,4.939c-0.01,5.136-4.166,9.285-9.295,9.294
			c-2.215-0.004-4.246-0.78-5.842-2.072l-0.509,0.45c1.724,1.43,3.938,2.289,6.351,2.289c5.497-0.002,9.96-4.457,9.962-9.961
			C89.913,44.819,89.328,42.969,88.324,41.415z"/>
	</g>
	<g>
		<path d="M37.321,69.852l-0.32,0.096c-0.381-0.676-1.091-1.209-1.96-1.209c-0.327,0-0.344,0.138-0.344,0.363v3.674
			c0,0.202,0.007,0.452,0.078,0.613c0.125,0.258,0.417,0.266,0.675,0.282h0.187v0.25h-2.749v-0.242l0.168-0.008
			c0.249-0.017,0.531-0.024,0.656-0.258c0.088-0.169,0.098-0.443,0.098-0.653v-3.602c0-0.274-0.01-0.411-0.372-0.411
			c-0.904,0-1.57,0.5-1.97,1.2l-0.292-0.096l0.497-1.42h5.153L37.321,69.852z"/>
		<path d="M38.066,69.464c0-0.427-0.045-0.741-0.656-0.782l-0.132-0.007v-0.243h2.5v0.243h-0.097
			c-0.249,0.015-0.507,0.039-0.632,0.266c-0.088,0.169-0.098,0.442-0.098,0.661v1.2h3.185v-1.329c0-0.428-0.045-0.75-0.665-0.791
			l-0.133-0.007v-0.243h2.482v0.243h-0.088c-0.239,0.023-0.497,0.048-0.611,0.266c-0.09,0.146-0.097,0.387-0.097,0.58v3.368
			c0,0.42,0.043,0.741,0.663,0.782l0.133,0.008v0.242h-2.482v-0.242h0.09c0.239-0.016,0.488-0.049,0.611-0.266
			c0.088-0.169,0.097-0.443,0.097-0.653v-1.619h-3.185v1.725c0,0.443,0.036,0.765,0.675,0.806l0.151,0.008v0.242h-2.5v-0.242h0.087
			c0.241-0.024,0.488-0.049,0.611-0.266c0.081-0.146,0.09-0.38,0.09-0.572v-0.178V69.464z"/>
		<path d="M50.067,69.876l-0.284,0.104c-0.72-0.821-1.456-1.208-2.626-1.208c-0.249,0-0.665,0.008-0.869,0.152
			c-0.223,0.154-0.229,0.387-0.229,0.62v1.241h0.594c0.896,0,1.063-0.192,1.17-0.99h0.303v2.408h-0.303
			c-0.026-0.248-0.07-0.491-0.231-0.7c-0.229-0.321-0.566-0.339-0.957-0.339h-0.575v1.604c0,0.16,0.017,0.427,0.133,0.563
			c0.187,0.226,0.62,0.241,0.904,0.241c1.366,0,2.174-0.506,2.972-1.481l0.282,0.111l-0.808,1.718h-5.17v-0.242l0.088-0.008
			c0.239-0.024,0.497-0.033,0.623-0.258c0.078-0.137,0.087-0.37,0.087-0.572v-3.377c0-0.419-0.044-0.741-0.665-0.782l-0.133-0.007
			v-0.243h5.084L50.067,69.876z"/>
		<path d="M58.492,73.921h-4.913l-0.169-0.25l4.213-4.804c-0.329-0.063-0.665-0.096-1.011-0.096c-1.198,0-1.942,0.314-2.626,1.216
			l-0.301-0.096l0.646-1.46h4.444l0.088,0.3L54.68,73.51l1.144,0.088c1.319,0,2.439-0.241,3.041-1.426l0.274,0.097L58.492,73.921z"
			/>
		<path d="M65.684,68.432v0.243h-0.078c-0.239,0.015-0.489,0.048-0.613,0.266c-0.088,0.161-0.097,0.442-0.097,0.652v2.587
			c0,0.621-0.053,1.056-0.621,1.467c-0.479,0.338-1.144,0.411-1.737,0.411c-0.611,0-1.234-0.056-1.757-0.37
			c-0.656-0.396-0.746-0.832-0.746-1.491v-2.708c0-0.443-0.034-0.766-0.673-0.807l-0.143-0.007v-0.243h2.582v0.243l-0.124,0.007
			c-0.248,0.008-0.532,0.017-0.665,0.259c-0.082,0.138-0.09,0.37-0.09,0.571v2.137c0,0.137-0.01,0.297-0.01,0.459
			c0,0.355,0.038,0.733,0.223,0.991c0.329,0.45,0.969,0.556,1.525,0.556c0.513,0,1.162-0.12,1.473-0.54
			c0.248-0.33,0.268-0.838,0.268-1.264v-2.362c0-0.451-0.045-0.774-0.701-0.807l-0.178-0.007v-0.243H65.684z"/>
		<path d="M71.885,69.876l-0.283,0.104c-0.72-0.821-1.455-1.208-2.626-1.208c-0.249,0-0.666,0.008-0.869,0.152
			c-0.223,0.154-0.23,0.387-0.23,0.62v1.241h0.595c0.895,0,1.063-0.192,1.17-0.99h0.303v2.408h-0.303
			c-0.026-0.248-0.071-0.491-0.23-0.7c-0.231-0.321-0.567-0.339-0.958-0.339h-0.576v1.604c0,0.16,0.017,0.427,0.133,0.563
			c0.187,0.226,0.62,0.241,0.904,0.241c1.366,0,2.172-0.506,2.972-1.481l0.284,0.111l-0.808,1.718H66.19v-0.242l0.088-0.008
			c0.241-0.024,0.497-0.033,0.62-0.258c0.081-0.137,0.09-0.37,0.09-0.572v-3.377c0-0.419-0.045-0.741-0.665-0.782l-0.133-0.007
			v-0.243h5.082L71.885,69.876z"/>
		<path d="M77.17,73.921h-4.594v-0.242l0.081-0.008c0.229-0.008,0.479-0.041,0.602-0.258c0.08-0.137,0.09-0.37,0.09-0.572v-3.368
			c0-0.428-0.045-0.741-0.658-0.791l-0.114-0.007v-0.243h2.52v0.243l-0.115,0.007c-0.249,0.017-0.515,0.032-0.647,0.259
			c-0.089,0.146-0.099,0.387-0.099,0.588v3.304c0,0.153,0,0.428,0.09,0.557c0.115,0.185,0.469,0.225,0.675,0.225
			c1.16,0,2.029-0.676,2.633-1.515l0.249,0.104L77.17,73.921z"/>
		<path d="M82.491,73.921h-4.594v-0.242l0.08-0.008c0.23-0.008,0.479-0.041,0.604-0.258c0.078-0.137,0.087-0.37,0.087-0.572v-3.368
			c0-0.428-0.044-0.741-0.655-0.791l-0.116-0.007v-0.243h2.52v0.243l-0.116,0.007c-0.246,0.017-0.514,0.032-0.648,0.259
			c-0.088,0.146-0.096,0.387-0.096,0.588v3.304c0,0.153,0,0.428,0.088,0.557c0.114,0.185,0.472,0.225,0.675,0.225
			c1.163,0,2.032-0.676,2.636-1.515l0.246,0.104L82.491,73.921z"/>
		<path d="M83.974,69.538c0-0.459-0.028-0.814-0.646-0.862h-0.106v-0.243h2.394v0.243h-0.106c-0.62,0.048-0.646,0.403-0.646,0.862
			v3.359c0,0.42,0.045,0.726,0.62,0.774l0.133,0.008v0.242h-2.394v-0.242l0.132-0.008c0.576-0.049,0.621-0.354,0.621-0.774v-0.233
			V69.538z"/>
		<path d="M92.026,70.15l-0.338,0.088c-0.523-0.749-1.268-1.539-2.331-1.539c-1.43,0-1.943,1.387-1.943,2.466
			c0,0.564,0.116,1.145,0.443,1.628c0.364,0.524,0.966,0.862,1.65,0.862c0.878,0,1.782-0.435,1.782-1.329
			c0-0.556-0.293-0.717-0.859-0.774v-0.242h2.43v0.242l-0.071,0.009c-0.223,0.016-0.471,0.058-0.587,0.258
			c-0.078,0.146-0.088,0.379-0.088,0.573v1.53h-0.426l-0.274-0.557c-0.56,0.444-1.251,0.693-1.985,0.693
			c-1.818,0-3.078-1.282-3.078-2.894c0-0.725,0.229-1.41,0.763-1.958c0.54-0.548,1.364-0.91,2.183-0.91
			c0.603,0,1.268,0.192,1.746,0.522l0.168-0.387h0.276L92.026,70.15z"/>
		<path d="M101.96,70.15l-0.338,0.088c-0.523-0.749-1.268-1.539-2.331-1.539c-1.43,0-1.943,1.387-1.943,2.466
			c0,0.564,0.115,1.145,0.443,1.628c0.364,0.524,0.966,0.862,1.649,0.862c0.879,0,1.783-0.435,1.783-1.329
			c0-0.556-0.293-0.717-0.859-0.774v-0.242h2.43v0.242l-0.071,0.009c-0.223,0.016-0.471,0.058-0.585,0.258
			c-0.08,0.146-0.09,0.379-0.09,0.573v1.53h-0.426l-0.275-0.557c-0.559,0.444-1.25,0.693-1.986,0.693
			c-1.818,0-3.076-1.282-3.076-2.894c0-0.725,0.229-1.41,0.763-1.958c0.54-0.548,1.366-0.91,2.181-0.91
			c0.604,0,1.268,0.192,1.748,0.522l0.168-0.387h0.274L101.96,70.15z"/>
		<path d="M108.699,73.075c0.275,0.347,0.533,0.531,1.002,0.604v0.242h-1.48l-1.977-2.595h-1.241v1.529
			c0,0.453,0.043,0.782,0.691,0.823h0.185v0.242h-2.616v-0.242l0.116-0.008c0.248-0.017,0.514-0.033,0.646-0.258
			c0.08-0.146,0.09-0.38,0.09-0.572v-3.377c0-0.443-0.045-0.75-0.683-0.782l-0.17-0.007v-0.243h3.53
			c1.019,0,2.119,0.282,2.119,1.411c0,0.838-0.781,1.339-1.631,1.41L108.699,73.075z M106.332,70.989
			c0.399,0,0.798-0.009,1.146-0.227c0.334-0.209,0.504-0.556,0.504-0.927c0-0.911-0.888-1.097-1.712-1.097
			c-0.258,0-0.816,0.024-1.046,0.146c-0.214,0.112-0.221,0.25-0.221,0.451v1.653H106.332z"/>
		<path d="M116.097,71.222c0,1.627-1.401,2.836-3.175,2.836c-1.774,0-3.157-1.257-3.157-2.868c0-1.646,1.393-2.894,3.192-2.894
			C114.811,68.296,116.097,69.553,116.097,71.222z M110.828,71.222c0,1.184,0.621,2.433,2.112,2.433
			c1.479,0,2.091-1.217,2.091-2.401c0-1.41-0.663-2.555-2.048-2.555h-0.062C111.556,68.732,110.828,69.698,110.828,71.222z"/>
		<path d="M123.156,68.432v0.243h-0.081c-0.239,0.015-0.485,0.048-0.611,0.266c-0.087,0.161-0.097,0.442-0.097,0.652v2.587
			c0,0.621-0.053,1.056-0.621,1.467c-0.479,0.338-1.144,0.411-1.737,0.411c-0.611,0-1.233-0.056-1.755-0.37
			c-0.658-0.396-0.748-0.832-0.748-1.491v-2.708c0-0.443-0.035-0.766-0.673-0.807l-0.142-0.007v-0.243h2.581v0.243l-0.126,0.007
			c-0.246,0.008-0.53,0.017-0.665,0.259c-0.078,0.138-0.088,0.37-0.088,0.571v2.137c0,0.137-0.009,0.297-0.009,0.459
			c0,0.355,0.037,0.733,0.222,0.991c0.327,0.45,0.967,0.556,1.525,0.556c0.514,0,1.162-0.12,1.473-0.54
			c0.249-0.33,0.266-0.838,0.266-1.264v-2.362c0-0.451-0.043-0.774-0.701-0.807l-0.178-0.007v-0.243H123.156z"/>
		<path d="M125.329,72.849c0,0.185,0.01,0.396,0.081,0.54c0.123,0.249,0.407,0.266,0.665,0.282l0.178,0.008v0.242h-2.591v-0.242
			l0.08-0.008c0.239-0.017,0.488-0.049,0.604-0.258c0.087-0.169,0.097-0.443,0.097-0.661v-3.288c0-0.427-0.045-0.741-0.658-0.782
			l-0.123-0.007v-0.243h2.9c0.515,0,1.037,0.048,1.49,0.291c0.487,0.267,0.771,0.718,0.771,1.232c0,0.468-0.229,0.92-0.648,1.202
			c-0.443,0.306-1.082,0.362-1.622,0.362h-1.225V72.849z M126.421,71.222c0.442,0,0.833-0.024,1.153-0.34
			c0.274-0.266,0.354-0.563,0.354-0.919c0-0.346-0.132-0.691-0.418-0.926c-0.282-0.226-0.701-0.29-1.063-0.29
			c-0.232,0-0.808,0.024-0.992,0.152c-0.116,0.073-0.126,0.249-0.126,0.387v1.936H126.421z"/>
	</g>
</g>
</svg>
