<?xml version="1.0" encoding="utf-8"?>
<!-- Generator: Adobe Illustrator 16.0.3, SVG Export Plug-In . SVG Version: 6.00 Build 0)  -->
<!DOCTYPE svg PUBLIC "-//W3C//DTD SVG 1.1//EN" "http://www.w3.org/Graphics/SVG/1.1/DTD/svg11.dtd">
<svg version="1.1" id="Layer_2" xmlns="http://www.w3.org/2000/svg" xmlns:xlink="http://www.w3.org/1999/xlink" x="0px" y="0px"
	 width="160px" height="110px" viewBox="0 0 160 110" enable-background="new 0 0 160 110" xml:space="preserve">
<g>
	<path fill="#231F20" d="M107.098,34.068c0-1.031-0.85-1.873-1.881-1.873h-50.44c-1.033,0-1.875,0.842-1.875,1.873v41.854
		c0,1.035,0.842,1.883,1.875,1.883h50.44c1.031,0,1.881-0.848,1.881-1.883V34.068"/>
	<path fill="#6D6E70" d="M105.217,32.195h-50.44c-1.033,0-1.875,0.842-1.875,1.873v41.854l0.004,0.045
		c10.014-2.033,18.203-5.5,23.676-10.83c1.111-1.08,2.178-1.658,3.287-1.65h0.016c1.111-0.008,2.176,0.57,3.283,1.65
		c5.523,5.377,13.797,8.857,23.923,10.883l0.008-0.098V34.068C107.098,33.037,106.249,32.195,105.217,32.195"/>
	<polyline fill="#FFFFFF" points="82.501,48.232 82.894,48.232 82.894,50.025 85.343,50.025 85.343,48.232 85.736,48.232 
		85.736,52.363 85.343,52.363 85.343,50.361 82.894,50.361 82.894,52.363 82.501,52.363 82.501,48.232 	"/>
	<path fill="#FFFFFF" d="M88.378,52.111c1.084,0,1.545-0.916,1.545-1.814c0-0.904-0.461-1.816-1.545-1.816
		c-1.092,0-1.557,0.912-1.557,1.816C86.822,51.195,87.287,52.111,88.378,52.111 M88.378,48.145c1.293,0,1.945,1.025,1.945,2.152
		s-0.652,2.148-1.945,2.148c-1.297,0-1.947-1.021-1.947-2.148S87.082,48.145,88.378,48.145"/>
	<polyline fill="#FFFFFF" points="90.578,48.232 93.843,48.232 93.843,48.57 92.404,48.57 92.404,52.363 92.011,52.363 
		92.011,48.57 90.578,48.57 90.578,48.232 	"/>
	<polyline fill="#FFFFFF" points="94.468,48.232 97.312,48.232 97.312,48.57 94.857,48.57 94.857,50.061 97.154,50.061 
		97.154,50.396 94.857,50.396 94.857,52.021 97.339,52.021 97.339,52.363 94.468,52.363 94.468,48.232 	"/>
	<polyline fill="#FFFFFF" points="97.97,48.232 98.369,48.232 98.369,52.021 100.671,52.021 100.671,52.363 97.97,52.363 
		97.97,48.232 	"/>
	<path fill="#FFFFFF" d="M101.625,51c-0.014,0.852,0.594,1.111,1.341,1.111c0.437,0,1.098-0.238,1.098-0.84
		c0-0.469-0.473-0.652-0.849-0.746l-0.92-0.223c-0.482-0.121-0.932-0.355-0.932-0.996c0-0.4,0.262-1.162,1.424-1.162
		c0.815,0,1.53,0.439,1.524,1.285h-0.395c-0.025-0.629-0.542-0.949-1.126-0.949c-0.532,0-1.032,0.215-1.032,0.818
		c0,0.391,0.288,0.553,0.622,0.635l1.008,0.248c0.581,0.156,1.065,0.408,1.065,1.086c0,0.287-0.115,1.178-1.575,1.178
		c-0.98,0-1.695-0.439-1.648-1.445H101.625"/>
	<path fill="#FFFFFF" d="M57.869,45.615c0.035-2.211,0.062-4.1,0.062-5.662v-2.016h-0.332c-0.957,0-1.696,0.047-2.215,0.143
		c0.011-0.143,0.021-0.254,0.021-0.336c0-0.092-0.01-0.215-0.021-0.379c0.914,0.025,1.875,0.037,2.881,0.037
		c1.022,0,2.093-0.012,3.216-0.037c-0.029,0.105-0.041,0.221-0.041,0.352c0,0.121,0.012,0.24,0.041,0.363
		c-0.543-0.096-1.257-0.143-2.15-0.143h-0.348c-0.045,0.664-0.062,1.57-0.062,2.705c0,1.467,0.021,3.125,0.071,4.973H57.869"/>
	<path fill="#FFFFFF" d="M63.728,41.211c0.092,0.004,0.229,0.012,0.395,0.012c1.791,0,2.688-0.592,2.688-1.777
		c0-1.088-0.695-1.633-2.078-1.633c-0.24,0-0.547,0.014-0.934,0.035c-0.047,0.357-0.07,0.771-0.07,1.234V41.211 M62.652,45.615
		c0.057-0.934,0.088-2.303,0.088-4.113c0-1.748-0.031-3.129-0.088-4.137h2.482c1.818,0,2.723,0.652,2.723,1.953
		c0,0.562-0.209,1.035-0.621,1.428c-0.412,0.395-1.018,0.652-1.793,0.801c0.566,0.752,1.65,2.113,3.236,4.068
		c-0.268-0.037-0.51-0.059-0.723-0.059c-0.209,0-0.441,0.021-0.697,0.059c-0.639-0.926-1.137-1.623-1.51-2.098l-1.314-1.693
		c-0.136-0.174-0.293-0.264-0.477-0.264c-0.043,0-0.119,0.01-0.23,0.023v2.211c0,0.469,0.01,1.076,0.049,1.82
		c-0.199-0.037-0.387-0.059-0.557-0.059C63.056,45.557,62.869,45.578,62.652,45.615"/>
	<path fill="#FFFFFF" d="M71.98,41.861h2.537l-0.211-0.535c-0.104-0.264-0.449-1.09-1.037-2.461L71.98,41.861 M69.732,45.615
		c1.424-3.117,2.666-5.918,3.727-8.406h0.232c1.129,2.822,2.295,5.621,3.506,8.406c-0.219-0.037-0.414-0.059-0.596-0.059
		s-0.386,0.021-0.615,0.059c-0.297-0.906-0.635-1.82-1.021-2.742l-0.209-0.482c-0.332-0.018-0.826-0.025-1.486-0.025
		c-0.666,0-1.17,0.008-1.502,0.025c-0.377,0.865-0.787,1.939-1.24,3.225c-0.137-0.037-0.269-0.059-0.398-0.059
		C70.039,45.557,69.908,45.578,69.732,45.615"/>
	<path fill="#FFFFFF" d="M79.332,45.086c0.508,0.041,0.924,0.061,1.268,0.061c2.641,0,3.959-1.229,3.959-3.689
		c0-1.293-0.268-2.225-0.812-2.799c-0.535-0.57-1.408-0.855-2.605-0.855c-0.65,0-1.262,0.023-1.822,0.059
		c-0.02,1.119-0.033,2.225-0.033,3.307C79.285,42.645,79.302,43.949,79.332,45.086 M78.248,45.615
		c0.029-0.857,0.045-2.23,0.045-4.113c0-1.934-0.016-3.316-0.045-4.137h0.898c0.166,0,0.502-0.002,1.023-0.018
		c0.523-0.01,0.963-0.018,1.324-0.018c1.221,0,2.121,0.195,2.689,0.576c1.032,0.695,1.549,1.801,1.549,3.326
		c0,1.422-0.41,2.51-1.215,3.26c-0.814,0.752-1.996,1.123-3.543,1.123H78.248z"/>
	<path fill="#FFFFFF" d="M86.941,45.615c0.067-0.986,0.092-2.395,0.092-4.217c0-1.641-0.021-2.984-0.078-4.033
		c0.457,0.025,0.949,0.037,1.475,0.037c0.535,0,1.457-0.012,2.762-0.037v0.17l-0.01,0.182l0.01,0.168v0.184
		c-0.922-0.08-1.873-0.119-2.857-0.119h-0.285c-0.014,0.953-0.018,1.807-0.018,2.545v0.482h0.213c0.746,0,1.619-0.029,2.619-0.094
		c-0.014,0.158-0.02,0.283-0.02,0.373c0,0.082,0.006,0.189,0.02,0.338c-0.35-0.062-1.111-0.092-2.272-0.092h-0.56v3.525h0.303
		c0.727,0,1.693-0.043,2.906-0.135v0.18l-0.014,0.184l0.014,0.184v0.176H86.941"/>
	<path fill="#FFFFFF" d="M93.576,41.211c0.099,0.004,0.227,0.012,0.398,0.012c1.789,0,2.678-0.592,2.678-1.777
		c0-1.088-0.684-1.633-2.068-1.633c-0.234,0-0.547,0.014-0.936,0.035c-0.049,0.357-0.072,0.771-0.072,1.234V41.211 M92.501,45.615
		c0.059-0.934,0.086-2.303,0.086-4.113c0-1.748-0.027-3.129-0.086-4.137h2.49c1.808,0,2.713,0.652,2.713,1.953
		c0,0.562-0.207,1.035-0.619,1.428c-0.414,0.395-1.014,0.652-1.793,0.801c0.57,0.752,1.648,2.113,3.234,4.068
		c-0.264-0.037-0.504-0.059-0.723-0.059c-0.205,0-0.439,0.021-0.697,0.059c-0.635-0.926-1.137-1.623-1.504-2.098l-1.312-1.693
		c-0.139-0.174-0.301-0.264-0.482-0.264c-0.041,0-0.119,0.01-0.232,0.023v2.211c0,0.469,0.018,1.076,0.049,1.82
		c-0.2-0.037-0.387-0.059-0.559-0.059C92.91,45.557,92.722,45.578,92.501,45.615"/>
	<path fill="#FFFFFF" d="M99.554,45.137c0.145-0.428,0.236-0.854,0.264-1.281c0.381,0.965,1.043,1.453,1.992,1.453
		c0.514,0,0.932-0.168,1.25-0.484c0.316-0.316,0.481-0.75,0.481-1.299c0-0.385-0.104-0.697-0.306-0.932
		c-0.176-0.207-0.48-0.404-0.92-0.598l-0.976-0.406c-1.067-0.445-1.608-1.127-1.608-2.031c0-0.686,0.24-1.248,0.707-1.684
		c0.477-0.436,1.09-0.652,1.846-0.652c0.633,0,1.245,0.148,1.837,0.443c-0.123,0.252-0.242,0.562-0.342,0.934
		c-0.427-0.615-0.983-0.934-1.671-0.934c-0.438,0-0.793,0.139-1.051,0.412c-0.26,0.264-0.393,0.629-0.393,1.09
		c0,0.629,0.402,1.117,1.217,1.475l0.98,0.422c0.557,0.24,0.972,0.525,1.216,0.842c0.254,0.328,0.375,0.746,0.375,1.258
		c0,0.785-0.26,1.416-0.781,1.893c-0.522,0.479-1.224,0.717-2.091,0.717C100.775,45.773,100.103,45.562,99.554,45.137"/>
</g>
</svg>
