<?xml version="1.0" encoding="utf-8"?>
<!-- Generator: Adobe Illustrator 16.0.3, SVG Export Plug-In . SVG Version: 6.00 Build 0)  -->
<!DOCTYPE svg PUBLIC "-//W3C//DTD SVG 1.1//EN" "http://www.w3.org/Graphics/SVG/1.1/DTD/svg11.dtd">
<svg version="1.1" id="Layer_2" xmlns="http://www.w3.org/2000/svg" xmlns:xlink="http://www.w3.org/1999/xlink" x="0px" y="0px"
	 width="160px" height="110px" viewBox="0 0 160 110" enable-background="new 0 0 160 110" xml:space="preserve">
<g>
	<g>
		<path d="M51.332,51.289c-1.008,0.877-2.404,1.313-4.182,1.313c-1.807,0-3.202-0.434-4.192-1.305
			c-0.99-0.873-1.483-2.217-1.483-4.032v-8.29h2.93v8.29c0,0.36,0.029,0.714,0.095,1.063c0.061,0.348,0.192,0.655,0.392,0.925
			c0.197,0.268,0.476,0.484,0.832,0.651c0.354,0.169,0.828,0.252,1.428,0.252c1.045,0,1.766-0.231,2.166-0.698
			c0.396-0.468,0.596-1.197,0.596-2.193v-8.29h2.933v8.29C52.845,49.071,52.34,50.409,51.332,51.289"/>
		<path d="M57.605,42.652v1.346h0.055c0.335-0.561,0.771-0.97,1.307-1.224c0.535-0.256,1.085-0.383,1.643-0.383
			c0.711,0,1.291,0.097,1.746,0.29c0.454,0.192,0.812,0.46,1.074,0.802c0.26,0.343,0.444,0.76,0.549,1.251
			c0.107,0.493,0.16,1.037,0.16,1.635v5.936h-2.65v-5.452c0-0.795-0.125-1.389-0.375-1.782c-0.248-0.392-0.689-0.588-1.326-0.588
			c-0.719,0-1.242,0.215-1.568,0.645c-0.322,0.429-0.483,1.136-0.483,2.119v5.059h-2.65v-9.652H57.605z"/>
	</g>
	<path d="M68.881,52.305h-2.651v-9.652h2.651V52.305z M66.229,38.976h2.651v2.184h-2.651V38.976z"/>
	<g>
		<path d="M76.274,42.652v1.774h-1.94v4.779c0,0.448,0.074,0.745,0.225,0.896c0.147,0.149,0.447,0.224,0.893,0.224
			c0.15,0,0.295-0.006,0.432-0.02c0.137-0.012,0.268-0.03,0.392-0.055v2.053c-0.224,0.038-0.474,0.062-0.747,0.074
			s-0.541,0.02-0.803,0.02c-0.41,0-0.801-0.027-1.166-0.084c-0.369-0.055-0.691-0.164-0.973-0.325
			c-0.279-0.164-0.5-0.394-0.662-0.691c-0.162-0.299-0.242-0.691-0.242-1.179v-5.692h-1.604v-1.774h1.604v-2.894h2.652v2.894H76.274
			z"/>
		<path d="M83.137,47.815c-0.17,0.056-0.352,0.102-0.545,0.14c-0.19,0.039-0.395,0.068-0.604,0.093
			c-0.212,0.026-0.424,0.058-0.636,0.093c-0.2,0.039-0.395,0.088-0.588,0.149c-0.192,0.062-0.363,0.146-0.504,0.253
			c-0.143,0.105-0.259,0.24-0.344,0.401c-0.088,0.163-0.133,0.366-0.133,0.616c0,0.236,0.045,0.436,0.133,0.597
			c0.085,0.164,0.203,0.29,0.353,0.384c0.149,0.093,0.323,0.158,0.522,0.195s0.404,0.055,0.618,0.055
			c0.521,0,0.925-0.084,1.212-0.26c0.287-0.173,0.498-0.382,0.637-0.626c0.137-0.242,0.219-0.487,0.25-0.737
			c0.031-0.248,0.047-0.447,0.047-0.598v-0.987C83.442,47.682,83.303,47.758,83.137,47.815 M77.897,44.072
			c0.274-0.41,0.624-0.741,1.046-0.99c0.422-0.247,0.897-0.424,1.429-0.53c0.528-0.106,1.062-0.16,1.597-0.16
			c0.484,0,0.975,0.034,1.474,0.103c0.499,0.067,0.953,0.202,1.363,0.401c0.409,0.201,0.748,0.476,1.007,0.832
			c0.264,0.354,0.393,0.824,0.393,1.409v5.021c0,0.438,0.025,0.854,0.076,1.253c0.048,0.397,0.137,0.696,0.262,0.895h-2.689
			c-0.049-0.148-0.09-0.3-0.121-0.457c-0.031-0.154-0.054-0.314-0.066-0.476c-0.422,0.436-0.922,0.739-1.493,0.915
			c-0.571,0.175-1.158,0.261-1.755,0.261c-0.459,0-0.891-0.056-1.289-0.169c-0.396-0.111-0.746-0.286-1.045-0.522
			c-0.297-0.235-0.531-0.533-0.701-0.894c-0.166-0.364-0.25-0.793-0.25-1.289c0-0.549,0.096-1,0.289-1.354
			c0.191-0.356,0.441-0.639,0.748-0.85c0.305-0.213,0.651-0.371,1.046-0.478c0.39-0.105,0.785-0.188,1.183-0.251
			c0.398-0.062,0.791-0.112,1.178-0.15c0.385-0.035,0.729-0.093,1.027-0.167c0.298-0.075,0.535-0.186,0.709-0.327
			c0.176-0.142,0.254-0.352,0.242-0.626c0-0.285-0.047-0.512-0.139-0.683c-0.096-0.166-0.219-0.299-0.375-0.391
			c-0.156-0.093-0.337-0.153-0.541-0.187c-0.206-0.032-0.426-0.048-0.663-0.048c-0.522,0-0.935,0.113-1.231,0.338
			c-0.299,0.224-0.473,0.597-0.522,1.12h-2.65C77.469,45,77.623,44.482,77.897,44.072"/>
		<path d="M90.489,49.905c0.118,0.206,0.271,0.374,0.46,0.504c0.186,0.132,0.4,0.228,0.643,0.29
			c0.242,0.063,0.496,0.092,0.757,0.092c0.187,0,0.384-0.02,0.587-0.063c0.207-0.042,0.393-0.113,0.562-0.205
			c0.167-0.094,0.308-0.216,0.42-0.373c0.11-0.155,0.168-0.353,0.168-0.589c0-0.397-0.265-0.695-0.793-0.896
			c-0.53-0.199-1.269-0.397-2.212-0.598c-0.387-0.087-0.764-0.189-1.131-0.307c-0.367-0.12-0.694-0.275-0.98-0.467
			c-0.286-0.193-0.516-0.437-0.691-0.728c-0.173-0.294-0.26-0.652-0.26-1.073c0-0.624,0.121-1.134,0.363-1.533
			c0.242-0.397,0.562-0.711,0.961-0.942c0.398-0.229,0.848-0.392,1.345-0.484c0.497-0.094,1.009-0.141,1.532-0.141
			c0.521,0,1.027,0.05,1.52,0.149s0.93,0.27,1.316,0.503c0.386,0.239,0.706,0.553,0.963,0.943c0.254,0.393,0.406,0.889,0.455,1.484
			h-2.52c-0.036-0.51-0.23-0.855-0.578-1.035c-0.35-0.179-0.758-0.272-1.232-0.272c-0.148,0-0.311,0.011-0.482,0.028
			c-0.178,0.02-0.336,0.06-0.479,0.121c-0.144,0.062-0.265,0.153-0.365,0.272c-0.099,0.118-0.148,0.276-0.148,0.475
			c0,0.238,0.086,0.432,0.26,0.578c0.176,0.151,0.402,0.271,0.684,0.365c0.278,0.094,0.6,0.18,0.961,0.253
			c0.361,0.075,0.727,0.156,1.102,0.242c0.385,0.089,0.764,0.192,1.131,0.317c0.365,0.124,0.691,0.291,0.979,0.495
			s0.516,0.461,0.689,0.766c0.176,0.304,0.263,0.682,0.263,1.129c0,0.635-0.128,1.167-0.383,1.597
			c-0.256,0.428-0.589,0.774-0.997,1.035c-0.412,0.262-0.881,0.447-1.412,0.551c-0.528,0.107-1.068,0.159-1.615,0.159
			c-0.557,0-1.106-0.056-1.642-0.169c-0.536-0.111-1.011-0.298-1.427-0.559c-0.417-0.261-0.76-0.607-1.027-1.037
			c-0.27-0.429-0.416-0.968-0.44-1.615h2.521C90.312,49.455,90.371,49.701,90.489,49.905"/>
		<path d="M50.347,60.396c-0.179-0.285-0.403-0.54-0.673-0.757c-0.268-0.217-0.57-0.387-0.91-0.508
			c-0.337-0.123-0.693-0.181-1.062-0.181c-0.678,0-1.252,0.13-1.729,0.392c-0.471,0.264-0.855,0.613-1.148,1.054
			c-0.295,0.441-0.508,0.943-0.643,1.506c-0.133,0.563-0.2,1.145-0.2,1.744c0,0.576,0.067,1.136,0.2,1.679
			c0.135,0.543,0.348,1.032,0.643,1.466c0.293,0.435,0.678,0.784,1.148,1.046c0.477,0.264,1.051,0.393,1.729,0.393
			c0.918,0,1.64-0.281,2.156-0.844c0.518-0.562,0.834-1.304,0.949-2.223h2.914c-0.076,0.855-0.275,1.628-0.596,2.319
			c-0.318,0.69-0.74,1.276-1.263,1.763c-0.524,0.487-1.14,0.858-1.843,1.113s-1.477,0.382-2.318,0.382
			c-1.049,0-1.992-0.18-2.829-0.545c-0.839-0.364-1.542-0.866-2.119-1.505c-0.575-0.641-1.014-1.39-1.323-2.254
			c-0.305-0.862-0.459-1.793-0.459-2.79c0-1.021,0.154-1.972,0.459-2.847c0.31-0.876,0.748-1.64,1.323-2.29
			c0.577-0.654,1.28-1.164,2.119-1.535c0.837-0.37,1.78-0.556,2.829-0.556c0.752,0,1.466,0.109,2.137,0.326
			c0.67,0.216,1.271,0.532,1.804,0.947c0.528,0.417,0.968,0.932,1.311,1.545c0.347,0.614,0.564,1.317,0.653,2.108h-2.914
			C50.641,61.001,50.525,60.683,50.347,60.396"/>
		<path d="M61.229,65.821c-0.173,0.058-0.359,0.106-0.557,0.146c-0.199,0.038-0.406,0.069-0.625,0.093
			c-0.215,0.027-0.434,0.061-0.651,0.099c-0.204,0.038-0.405,0.087-0.604,0.151c-0.197,0.064-0.37,0.151-0.516,0.26
			c-0.148,0.108-0.267,0.246-0.356,0.411c-0.087,0.167-0.134,0.376-0.134,0.634c0,0.244,0.047,0.446,0.134,0.613
			c0.09,0.167,0.213,0.298,0.365,0.393c0.152,0.097,0.333,0.163,0.536,0.203c0.205,0.038,0.416,0.055,0.633,0.055
			c0.538,0,0.953-0.087,1.247-0.267c0.292-0.179,0.511-0.392,0.653-0.642c0.138-0.251,0.225-0.503,0.258-0.758
			c0.032-0.256,0.047-0.461,0.047-0.612v-1.017C61.545,65.687,61.4,65.765,61.229,65.821 M55.849,61.978
			c0.282-0.421,0.64-0.759,1.073-1.015c0.435-0.256,0.926-0.438,1.469-0.548c0.542-0.108,1.088-0.161,1.64-0.161
			c0.497,0,1.003,0.034,1.515,0.104c0.51,0.071,0.977,0.209,1.398,0.414s0.768,0.487,1.035,0.853
			c0.27,0.363,0.404,0.846,0.404,1.448v5.156c0,0.449,0.024,0.877,0.076,1.284c0.049,0.411,0.141,0.716,0.266,0.921h-2.76
			c-0.051-0.154-0.093-0.311-0.124-0.471c-0.032-0.16-0.056-0.322-0.068-0.488c-0.434,0.449-0.945,0.762-1.532,0.941
			c-0.588,0.178-1.189,0.267-1.804,0.267c-0.472,0-0.913-0.058-1.321-0.172c-0.41-0.117-0.768-0.294-1.074-0.536
			c-0.307-0.243-0.547-0.551-0.721-0.921c-0.17-0.372-0.258-0.813-0.258-1.323c0-0.563,0.099-1.024,0.298-1.39
			c0.198-0.364,0.455-0.654,0.767-0.874c0.313-0.217,0.672-0.379,1.072-0.488c0.404-0.108,0.81-0.192,1.219-0.258
			c0.408-0.064,0.812-0.114,1.209-0.153c0.396-0.038,0.748-0.098,1.055-0.174s0.549-0.188,0.729-0.335
			c0.179-0.147,0.26-0.36,0.248-0.643c0-0.294-0.047-0.525-0.145-0.699c-0.096-0.172-0.223-0.306-0.382-0.403
			c-0.16-0.097-0.345-0.16-0.556-0.191s-0.439-0.048-0.682-0.048c-0.537,0-0.959,0.115-1.266,0.345s-0.486,0.614-0.535,1.15h-2.723
			C55.408,62.93,55.568,62.401,55.849,61.978"/>
		<path d="M72.615,68.382c0.301-0.18,0.544-0.411,0.729-0.7c0.188-0.287,0.315-0.622,0.392-1.006
			c0.079-0.383,0.118-0.771,0.118-1.168c0-0.398-0.042-0.789-0.126-1.171c-0.082-0.385-0.219-0.726-0.412-1.027
			c-0.191-0.3-0.438-0.542-0.738-0.728c-0.3-0.186-0.668-0.277-1.103-0.277c-0.447,0-0.821,0.092-1.12,0.277
			c-0.303,0.186-0.545,0.425-0.73,0.72c-0.186,0.294-0.316,0.632-0.393,1.016s-0.113,0.78-0.113,1.19
			c0,0.396,0.037,0.785,0.123,1.168c0.082,0.384,0.216,0.719,0.402,1.006c0.186,0.289,0.433,0.521,0.737,0.7
			c0.308,0.179,0.677,0.27,1.112,0.27C71.941,68.651,72.315,68.561,72.615,68.382 M69.078,60.521v1.265h0.041
			c0.331-0.538,0.752-0.927,1.263-1.17s1.075-0.364,1.689-0.364c0.777,0,1.45,0.147,2.012,0.44c0.563,0.296,1.028,0.685,1.4,1.17
			c0.37,0.487,0.646,1.054,0.823,1.697c0.18,0.646,0.27,1.32,0.27,2.024c0,0.665-0.09,1.303-0.27,1.917
			c-0.178,0.613-0.45,1.156-0.812,1.631c-0.365,0.471-0.819,0.847-1.361,1.128c-0.546,0.283-1.182,0.423-1.909,0.423
			c-0.614,0-1.18-0.123-1.697-0.373c-0.517-0.249-0.942-0.617-1.276-1.104h-0.037v4.698H66.49V60.521H69.078z"/>
	</g>
	<path d="M81.004,70.434h-2.723v-9.912h2.723V70.434z M78.281,56.744h2.725v2.244h-2.725V56.744z"/>
	<g>
		<path d="M88.599,60.521v1.821h-1.995v4.909c0,0.459,0.076,0.767,0.232,0.92c0.152,0.152,0.459,0.229,0.918,0.229
			c0.152,0,0.301-0.005,0.441-0.019c0.139-0.013,0.275-0.031,0.403-0.058v2.109c-0.231,0.038-0.486,0.062-0.769,0.077
			c-0.28,0.012-0.557,0.018-0.822,0.018c-0.424,0-0.822-0.026-1.199-0.085c-0.377-0.058-0.709-0.169-0.998-0.336
			c-0.289-0.166-0.515-0.402-0.68-0.709c-0.168-0.308-0.25-0.709-0.25-1.208v-5.848h-1.65v-1.821h1.65V57.55h2.723v2.972H88.599z"/>
		<path d="M95.645,65.821c-0.173,0.058-0.359,0.106-0.559,0.146c-0.197,0.038-0.404,0.069-0.622,0.093
			c-0.218,0.027-0.435,0.061-0.652,0.099c-0.204,0.038-0.405,0.087-0.604,0.151c-0.196,0.064-0.37,0.151-0.517,0.26
			c-0.148,0.108-0.267,0.246-0.355,0.411c-0.089,0.167-0.133,0.376-0.133,0.634c0,0.244,0.044,0.446,0.133,0.613
			s0.21,0.298,0.365,0.393c0.152,0.097,0.331,0.163,0.537,0.203c0.203,0.038,0.414,0.055,0.632,0.055
			c0.536,0,0.952-0.087,1.245-0.267c0.295-0.179,0.512-0.392,0.652-0.642c0.141-0.251,0.229-0.503,0.26-0.758
			c0.031-0.256,0.047-0.461,0.047-0.612v-1.017C95.961,65.687,95.816,65.765,95.645,65.821 M90.268,61.978
			c0.279-0.421,0.637-0.759,1.07-1.015c0.436-0.256,0.926-0.438,1.468-0.548c0.544-0.108,1.091-0.161,1.64-0.161
			c0.498,0,1.003,0.034,1.516,0.104c0.512,0.071,0.977,0.209,1.399,0.414c0.421,0.205,0.767,0.487,1.035,0.853
			c0.271,0.363,0.403,0.846,0.403,1.448v5.156c0,0.449,0.024,0.877,0.076,1.284c0.051,0.411,0.141,0.716,0.27,0.921h-2.764
			c-0.051-0.154-0.092-0.311-0.123-0.471c-0.033-0.16-0.056-0.322-0.068-0.488c-0.434,0.449-0.946,0.762-1.533,0.941
			c-0.589,0.178-1.188,0.267-1.803,0.267c-0.471,0-0.912-0.058-1.321-0.172c-0.409-0.117-0.769-0.294-1.075-0.536
			c-0.309-0.243-0.546-0.551-0.719-0.921c-0.174-0.372-0.26-0.813-0.26-1.323c0-0.563,0.1-1.024,0.299-1.39
			c0.197-0.364,0.452-0.654,0.766-0.874c0.314-0.217,0.671-0.379,1.074-0.488c0.402-0.108,0.808-0.192,1.218-0.258
			c0.409-0.064,0.812-0.114,1.208-0.153c0.396-0.038,0.748-0.098,1.055-0.174s0.549-0.188,0.729-0.335
			c0.178-0.147,0.262-0.36,0.248-0.643c0-0.294-0.047-0.525-0.143-0.699c-0.095-0.172-0.225-0.306-0.385-0.403
			c-0.158-0.097-0.344-0.16-0.555-0.191s-0.438-0.048-0.681-0.048c-0.536,0-0.959,0.115-1.267,0.345
			c-0.305,0.229-0.484,0.614-0.535,1.15h-2.722C89.824,62.93,89.984,62.401,90.268,61.978"/>
	</g>
	<rect x="100.984" y="56.744" width="2.721" height="13.689"/>
	<path d="M107.449,52.746l0.004,0.018l-0.85,0.154c-0.302,0.034-0.607,0.058-0.927,0.058c-0.657,0-1.255-0.089-1.823-0.233
		c0.208,0.413,0.459,0.804,0.759,1.169c0.997,1.212,2.353,1.818,4.066,1.818h10.351v-2.667h-9.963
		C108.45,53.062,107.917,52.947,107.449,52.746 M106.367,51.948c-0.507-0.592-0.773-1.359-0.773-2.326
		c0-0.032,0.004-0.062,0.007-0.095c-0.022,0-0.042,0.004-0.063,0.004c-1.023,0-1.803-0.258-2.366-0.748l-0.039-0.038v-0.008
		c-0.657-0.601-1.001-1.535-1.001-2.837v-9.805h-2.669v10.479c0,1.67,0.589,3.01,1.768,4.017c0.639,0.54,1.382,0.909,2.212,1.14
		c0.617,0.173,1.276,0.275,1.999,0.275C105.76,52.007,106.066,51.983,106.367,51.948 M108.975,43.549v2.511
		c0,0.061-0.01,0.113-0.012,0.172c0.09-0.006,0.168-0.019,0.263-0.019h9.804v-2.664H108.975z M111.645,36.096h-2.67v6.484h2.67
		V36.096z M106.508,49.524c0,0.936,0.256,1.683,0.73,2.269c0.963-0.232,1.829-0.654,2.591-1.28c1.032-0.85,1.621-1.963,1.772-3.338
		h-2.376c-0.085,0-0.303,0.012-0.407,0.018c-0.14,0.55-0.384,1.027-0.758,1.408c-0.408,0.414-0.929,0.679-1.544,0.815
		C106.515,49.448,106.508,49.491,106.508,49.524 M105.715,48.562l0.004,0.006c0.27-1.215,1.047-1.952,2.32-2.221
		c-0.008-0.001-0.023-0.006-0.023-0.006c0.002-0.058,0-0.222-0.001-0.282V43.57c-1.424,0.117-2.585,0.695-3.481,1.744
		c-0.606,0.718-1.004,1.563-1.216,2.524c0.562,0.475,1.329,0.729,2.333,0.729C105.672,48.568,105.691,48.562,105.715,48.562"/>
</g>
</svg>
