<?xml version="1.0" encoding="utf-8"?>
<!-- Generator: Adobe Illustrator 16.0.3, SVG Export Plug-In . SVG Version: 6.00 Build 0)  -->
<!DOCTYPE svg PUBLIC "-//W3C//DTD SVG 1.1//EN" "http://www.w3.org/Graphics/SVG/1.1/DTD/svg11.dtd">
<svg version="1.1" id="Layer_2" xmlns="http://www.w3.org/2000/svg" xmlns:xlink="http://www.w3.org/1999/xlink" x="0px" y="0px"
	 width="160px" height="110px" viewBox="0 0 160 110" enable-background="new 0 0 160 110" xml:space="preserve">
<g>
	<g>
		<path fill="#231F20" d="M57.24,55.142c-0.06,0.226-0.121,0.456-0.19,0.684c-0.337,0.934-1.149,2.298-2.923,2.298
			c-2.197,0-3.656-2.881-3.656-5.021c0-1.869,0.742-5.362,3.721-5.165c0.558,0.036,1.007,0.168,1.371,0.348
			c1.172,0.628,1.437,1.707,1.471,1.873c0.001,0.007,0.004,0.017,0.005,0.023h0.093v-1.005c0-0.096-0.094-0.228-0.25-0.373
			c-0.459-0.463-1.519-1.142-2.909-1.142c-0.046,0-0.094,0.002-0.145,0.004c-2.878,0.082-5.021,2.59-5.021,5.437
			c0,1.692,0.725,2.979,1.664,3.92c1.013,0.999,2.185,1.417,3.4,1.417c1.514,0,3.463-0.954,3.463-1.038v-2.26H57.24z"/>
		<path fill="#231F20" d="M61.115,58.005V47.907h-2.094v0.088c0.085,0,0.85,0.151,0.85,0.644v9.367c0,0.288-0.261,0.331-0.329,0.331
			v0.09h1.884v-0.09C61.355,58.336,61.115,58.3,61.115,58.005z"/>
		<path fill="#231F20" d="M133.661,58.005V47.907h-2.095v0.088c0.086,0,0.85,0.151,0.85,0.644v9.367c0,0.288-0.26,0.331-0.328,0.331
			v0.09h1.885v-0.09C133.9,58.336,133.661,58.3,133.661,58.005z"/>
		<path fill="#231F20" d="M28.096,48.038v0.089c0.419,0,0.611,0.265,0.494,0.575l-2.949,7.814l-2.918-7.619
			c-0.224-0.583,0.162-0.771,0.631-0.771v-0.089h-3.632v0.089c0.583,0,1.248,0.273,1.524,0.997l3.553,9.317h0.363l3.639-9.644
			c0.15-0.402,0.592-0.671,0.967-0.671v-0.089H28.096z"/>
		<path fill="#231F20" d="M137.979,58.426c-1.156,0-2.261-0.8-2.261-0.862v-1.366h0.075c0.262,0.911,0.825,2.026,2.287,2.026
			c0.621,0,1.186-0.362,1.186-1.201c0-0.738-0.448-0.955-0.939-1.128l-1.129-0.391c-0.594-0.202-1.432-0.492-1.432-1.766
			c0-1.084,0.881-1.909,2.083-1.909c0.896,0,1.704,0.545,1.704,0.62v1.217h-0.084c-0.275-0.867-0.637-1.635-1.62-1.635
			c-0.926,0-1.462,0.449-1.462,1.144c0,0.622,0.448,0.882,1.287,1.143l1.057,0.349c0.897,0.302,1.548,0.823,1.548,1.705
			C140.278,57.428,139.439,58.426,137.979,58.426z"/>
		<path fill="#231F20" d="M108.363,57.702c0-0.002,0-0.003-0.002-0.005l-3.691-9.716h-0.346l-3.74,9.918
			c0,0.001-0.001,0.002-0.002,0.004c-0.139,0.369-0.576,0.435-0.737,0.435v0.089h1.417v-0.089c-0.109,0-0.58-0.086-0.43-0.483
			l1.265-3.347h3.499l1.213,3.21c0.182,0.487-0.338,0.62-0.457,0.62v0.089h2.937v-0.089
			C109.035,58.337,108.527,58.132,108.363,57.702z M105.396,54.005h-3.101l1.551-4.102L105.396,54.005z"/>
		<path fill="#231F20" d="M114.168,51.859c-1.216,0-1.736,1.056-1.896,1.62h-0.029v-1.461h-1.527v0.088
			c0.066,0,0.314,0.079,0.314,0.276v5.704c0,0.2-0.239,0.25-0.314,0.25v0.09h1.858v-0.09c-0.084,0-0.302-0.032-0.302-0.225v-3.403
			c0-1.605,0.898-2.561,1.506-2.561c0.332,0,0.506,0.225,0.506,0.622c0,0.493,0,0.333,0,0.68c0,0.246,0.166,0.404,0.586,0.404
			c0.377,0,0.586-0.158,0.586-0.404C115.455,52.32,115.064,51.859,114.168,51.859z"/>
		<path fill="#231F20" d="M35.924,57.987c-0.203,0.145-0.578,0.144-0.725,0.109c-0.311-0.071-0.507-0.214-0.507-0.765v-3.506
			c0-1.026-0.624-1.996-2.402-1.996c-1.476,0-2.519,0.753-2.519,1.605c0,0.362-0.014,0.622,0.623,0.622
			c0.361,0,0.564-0.216,0.564-0.478c0-0.159,0-0.326,0-0.658c0-0.704,0.693-0.89,1.331-0.89c0.954,0,1.202,0.564,1.202,1.49
			c0,0.31,0.005,0.803,0.008,1.309h-0.051c-1.367-0.077-3.798,0.302-3.798,2.111c0,0.972,0.668,1.473,1.579,1.473
			c0.852,0,1.671-0.41,2.219-1.078l0.016-0.072c0,0.021-0.002,0.033-0.002,0.033c0.159,0.709,0.506,1.129,1.433,1.129
			c0.492,0,0.839-0.175,1.085-0.362L35.924,57.987z M33.395,56.953c-0.182,0.486-0.629,0.896-1.161,0.896
			c-0.714,0-1.333-0.459-1.333-1.375c0-1.241,1.659-1.442,2.602-1.442c0,0.005,0,0.009,0,0.016v0.714
			c0,0.029-0.002,0.06-0.002,0.088c0,0.227-0.005,0.432-0.008,0.61C33.479,56.638,33.454,56.805,33.395,56.953z"/>
		<path fill="#231F20" d="M43.374,58.005v-4.208c0-1.345-0.883-1.938-2.155-1.938c-0.092,0-0.183,0.004-0.271,0.013
			c-0.027,0.002-0.055,0.005-0.081,0.008c-0.06,0.007-0.12,0.015-0.178,0.025c-0.028,0.005-0.056,0.01-0.083,0.015
			c-0.057,0.013-0.113,0.027-0.168,0.042c-0.022,0.007-0.045,0.012-0.066,0.018c-0.062,0.02-0.125,0.042-0.186,0.065
			c-0.01,0.004-0.021,0.007-0.031,0.013c-0.259,0.106-0.498,0.26-0.715,0.463c-0.001,0.002-0.002,0.003-0.004,0.003
			c-0.043,0.041-0.085,0.084-0.127,0.13c-0.004,0.005-0.01,0.011-0.016,0.018c-0.107,0.117-0.207,0.25-0.3,0.397
			c-0.005,0.009-0.011,0.018-0.016,0.025c-0.021,0.033-0.041,0.066-0.062,0.101v-1.176h-0.215h-0.141h-1.371v0.088
			c0.049,0,0.297,0.033,0.297,0.268v5.669c0,0.217-0.244,0.294-0.297,0.294v0.09h1.841v-0.09c-0.042,0-0.3-0.099-0.3-0.338v-3.247
			c0-0.108,0.007-0.212,0.015-0.314c0.005-0.036,0.011-0.072,0.016-0.109c0.009-0.066,0.018-0.133,0.031-0.197
			c0.007-0.029,0.013-0.06,0.02-0.09c0.285-1.207,1.276-1.82,2.046-1.803c0.004,0,0.007-0.001,0.01-0.001c0.006,0,0.01,0,0.016,0
			c0.004,0.001,0.008,0,0.012,0.001c0.905,0.005,1.144,0.279,1.201,1.205c0.023,0.167,0.031,0.345,0.033,0.526v4.028
			c0,0.264-0.255,0.339-0.325,0.339v0.09h1.862v-0.09C43.596,58.336,43.374,58.276,43.374,58.005z"/>
		<path fill="#231F20" d="M81.37,47.701c-0.839,0-1.634,0.55-2.142,1.186c-0.375,0.478-0.649,1.056-0.649,2.401v0.374
			c-0.067,0.298-0.383,0.743-0.702,0.743c0,0,0.516-0.002,0.702-0.192v0.045v0.057v5.804c0,0.176-0.23,0.257-0.302,0.257v0.088
			h1.832l0,0v-0.088l0,0c-0.059,0-0.285-0.038-0.287-0.243v-5.688h1.426v-0.389h-1.426v-2.012c0-1.476,0.666-2.142,1.462-2.142
			c0.362,0,0.796,0.145,0.796,0.667c0,0.333,0,0.418,0,0.751c0,0.247,0.166,0.405,0.586,0.405c0.375,0,0.586-0.158,0.586-0.405
			C83.252,48.458,82.947,47.701,81.37,47.701z"/>
		<path fill="#231F20" d="M96.037,54.053v-0.125H94.65h-0.264h-0.135H94.04c0,0-0.052,1.34-0.713,2.547
			c-0.052,0.079-0.104,0.158-0.159,0.234c-0.636-0.748-1.113-1.384-1.759-2.219h-0.001l-0.506-0.649
			c0.498-0.146,0.982-0.326,1.379-0.771c0.047-0.051,0.094-0.104,0.135-0.163c0.018-0.026,0.035-0.055,0.051-0.084
			c0.004-0.005,0.006-0.01,0.01-0.015c0.064-0.116,0.113-0.238,0.143-0.365c0.002-0.007,0.004-0.016,0.006-0.023
			c0.006-0.032,0.012-0.063,0.018-0.096c0.006-0.055,0.012-0.111,0.012-0.17c0-1.023-0.709-1.703-1.895-1.703
			c-1.113,0-1.98,0.775-1.98,1.923c0,0.667,0.339,1.135,0.602,1.425l0,0c0,0,0.009,0.011,0.189,0.231
			c-0.047,0.013-0.096,0.026-0.145,0.04c-0.064,0.014-0.14,0.032-0.223,0.06c-0.006,0.001-0.01,0.003-0.016,0.005v0.001
			c-0.64,0.208-1.69,0.798-1.69,2.076c0,0.937,0.606,2.401,2.902,2.307c1.126-0.045,1.655-0.383,2.14-0.811
			c0.025,0.027,0.051,0.052,0.077,0.079c0.003,0.003,0.005,0.005,0.009,0.008l0,0c0.414,0.41,0.855,0.667,1.612,0.667
			c0.704,0,1.12-0.306,1.479-0.608l-0.058-0.098c-0.795,0.595-1.596-0.029-2.352-0.887c0.273-0.422,0.705-1.193,0.919-1.479
			C94.677,54.784,95.43,54.063,96.037,54.053z M90.34,53.13c-1.164-1.448-0.515-2.416,0.113-2.514
			c0.035-0.003,0.068-0.009,0.104-0.009c0.744,0,1.17,0.811,1.17,1.53c-0.083,0.885-0.334,1.247-0.968,1.519
			C90.627,53.49,90.49,53.318,90.34,53.13z M92.309,57.691c-0.074,0.058-0.154,0.108-0.234,0.159
			c-0.036,0.022-0.072,0.046-0.108,0.065c-0.014,0.008-0.028,0.015-0.042,0.022c-0.934,0.498-1.82,0.149-2.381-0.396
			c-0.443-0.529-0.773-1.195-0.777-1.665c-0.002-0.254,0.032-0.49,0.096-0.702c0.002-0.005,0.002-0.008,0.004-0.01
			c0.001-0.004,0.002-0.006,0.003-0.009c0.098-0.253,0.256-0.46,0.449-0.63c0.136-0.115,0.278-0.205,0.427-0.281
			c0.373,0.459,1.129,1.39,2.661,3.28c0.011,0.017,0.021,0.032,0.032,0.049C92.388,57.622,92.345,57.662,92.309,57.691z"/>
		<path fill="#231F20" d="M68.587,57.06c-0.175,0.349-0.361,0.589-0.56,0.755c-0.287,0.195-0.621,0.322-1,0.322
			c-1.155,0-2.081-1.199-2.261-2.537c-0.036-0.274-0.062-0.661-0.066-0.87h4.487v-0.058c0-1.51-0.916-2.434-2.147-2.715h0.001
			l-0.019-0.003c-0.18-0.04-0.365-0.067-0.557-0.079h-0.011h-0.008c-0.078-0.004-0.156-0.009-0.234-0.009
			c-0.227,0-0.443,0.032-0.653,0.087l-0.009,0.001l-0.002,0.003c-1.334,0.359-2.277,1.765-2.277,3.236
			c0,1.968,1.441,3.269,2.941,3.269c1.609,0,2.369-0.769,2.746-1.402H68.587z M65.285,52.844c0.244-0.449,0.597-0.695,0.969-0.742
			V52.1c0.021-0.003,0.045-0.002,0.065-0.003c0.019-0.001,0.038-0.005,0.056-0.005c0.004,0,0.008,0.002,0.01,0.002
			c0.012,0,0.021,0.001,0.029,0.002c0.004-0.001,0.006-0.001,0.012-0.001c1.116,0,1.502,1.321,1.518,2.326h-0.232h-0.879h-1.883
			C65.007,53.764,65.113,53.233,65.285,52.844z"/>
		<path fill="#231F20" d="M75.812,57.06c-0.175,0.349-0.361,0.589-0.561,0.755c-0.287,0.195-0.621,0.322-0.999,0.322
			c-1.156,0-2.081-1.199-2.261-2.537c-0.037-0.274-0.062-0.661-0.066-0.87h4.487v-0.058c0-1.51-0.916-2.434-2.147-2.715l0,0
			l-0.019-0.003c-0.179-0.04-0.366-0.067-0.556-0.079H73.68h-0.008c-0.078-0.004-0.154-0.009-0.233-0.009
			c-0.228,0-0.444,0.032-0.653,0.087l-0.01,0.001l-0.003,0.003c-1.331,0.359-2.275,1.765-2.275,3.236
			c0,1.968,1.441,3.269,2.941,3.269c1.608,0,2.368-0.769,2.745-1.402H75.812z M72.51,52.844c0.244-0.449,0.596-0.695,0.971-0.742
			V52.1c0.021-0.003,0.041-0.002,0.064-0.003c0.019-0.001,0.037-0.005,0.056-0.005c0.003,0,0.007,0.002,0.011,0.002
			c0.009,0,0.018,0.001,0.027,0.002c0.004-0.001,0.008-0.001,0.012-0.001c1.115,0,1.503,1.321,1.519,2.326h-0.232h-0.88h-1.883
			C72.231,53.764,72.339,53.233,72.51,52.844z"/>
		<path fill="#231F20" d="M129.932,57.014c-0.174,0.348-0.36,0.588-0.559,0.755c-0.288,0.196-0.621,0.321-1,0.321
			c-1.156,0-2.081-1.199-2.261-2.535c-0.037-0.274-0.062-0.663-0.065-0.871h4.486v-0.057c0-1.512-0.916-2.436-2.148-2.715
			l0.002-0.001l-0.018-0.002c-0.18-0.041-0.367-0.067-0.559-0.079l-0.009-0.002l-0.009,0.001c-0.078-0.005-0.156-0.009-0.234-0.009
			c-0.227,0-0.443,0.031-0.653,0.088h-0.009l-0.002,0.003c-1.332,0.359-2.278,1.765-2.278,3.236c0,1.967,1.443,3.27,2.942,3.27
			c1.609,0,2.37-0.77,2.746-1.403H129.932z M126.631,52.799c0.244-0.45,0.596-0.697,0.969-0.742v-0.003
			c0.022-0.004,0.044-0.001,0.066-0.004c0.018,0,0.037-0.003,0.055-0.004c0.004,0.001,0.008,0.001,0.01,0.001
			c0.01,0,0.02,0.002,0.029,0.003c0.004-0.001,0.007-0.002,0.011-0.002c1.116,0,1.504,1.323,1.519,2.327h-0.232h-0.881h-1.881
			C126.352,53.718,126.461,53.186,126.631,52.799z"/>
		<path fill="#231F20" d="M122.291,52.895c-0.454-0.547-1.134-0.91-1.802-0.896c-1.036,0-1.773,0.526-2.017,0.844v-0.762h-1.496
			v0.089c0.068,0,0.282-0.006,0.282,0.22v9.217c0,0.494-0.765,0.643-0.85,0.643h-0.003v0.089h2.062l0.034-0.001v-0.088v-3.646
			v-0.499c0-0.442,0-0.444,0-0.444s0.17,0.383,0.691,0.607c0.217,0.078,0.426,0.134,0.666,0.152
			c0.057,0.005,0.115,0.008,0.177,0.008c1.671,0.014,2.981-1.375,2.981-3.313C123.018,54.299,122.768,53.485,122.291,52.895z
			 M119.666,58.087c-0.146,0-0.262-0.026-0.368-0.072c-0.304-0.112-0.585-0.366-0.712-0.79c-0.041-0.121-0.068-0.249-0.085-0.382
			l-0.022-2.983c0.003-0.063,0.007-0.127,0.016-0.19c0,0,0-0.001,0-0.002c0-0.731,0.844-1.235,1.303-1.235
			c0.537,0,0.928,0.122,1.297,0.571c0.443,0.548,0.633,1.306,0.633,2.05C121.727,56.513,121.037,58.087,119.666,58.087z"/>
	</g>
</g>
</svg>
