<?xml version="1.0" encoding="utf-8"?>
<!-- Generator: Adobe Illustrator 16.0.3, SVG Export Plug-In . SVG Version: 6.00 Build 0)  -->
<!DOCTYPE svg PUBLIC "-//W3C//DTD SVG 1.1//EN" "http://www.w3.org/Graphics/SVG/1.1/DTD/svg11.dtd">
<svg version="1.1" id="Layer_2" xmlns="http://www.w3.org/2000/svg" xmlns:xlink="http://www.w3.org/1999/xlink" x="0px" y="0px"
	 width="160px" height="110px" viewBox="0 0 160 110" enable-background="new 0 0 160 110" xml:space="preserve">
<g>
	<g>
		<g>
			<path fill="#231F20" d="M42.777,43.098c-6.571,0-11.899,5.329-11.899,11.902c0,6.568,5.328,11.902,11.899,11.902
				c6.573,0,11.902-5.333,11.902-11.902C54.679,48.427,49.351,43.098,42.777,43.098 M42.836,61.808
				c1.466-1.632,2.93-3.865,2.551-5.694c-0.312-1.852-1.692-2.465-2.61-2.447c-0.918-0.018-2.295,0.596-2.607,2.447
				c-0.386,1.829,1.081,4.06,2.546,5.692c-4.629-0.051-8.361-3.816-8.361-8.458c0-4.671,3.784-8.456,8.458-8.456
				c4.67,0,8.459,3.785,8.459,8.456C51.273,58.015,47.499,61.795,42.836,61.808z"/>
			<path fill="#231F20" d="M92.291,62.125c-1.795,0-3.514-0.454-4.581-1.222c-1.36-0.959-2.108-2.764-2.108-5.057
				c0-4.323,2.108-6.409,6.493-6.409c4.378,0,6.491,2.106,6.491,6.502C98.585,60.001,96.436,62.125,92.291,62.125 M92.112,51.543
				c-2.387,0-3.413,1.275-3.413,4.21c-0.019,2.933,1.068,4.263,3.431,4.263c2.332,0,3.377-1.331,3.377-4.281
				C95.507,52.858,94.44,51.543,92.112,51.543z"/>
			<path fill="#231F20" d="M106.899,59.671c-1.725,0-2.288-0.106-2.755-0.499c-0.451-0.394-0.569-0.658-0.625-1.875v-6.241
				c-0.007-0.638-0.536-1.149-1.201-1.16h-1.588v6.692c0,2.084,0.205,3.012,0.918,3.834c0.807,0.943,2.008,1.373,3.898,1.373h3.747
				v-2.124"/>
			<path fill="#231F20" d="M123.95,49.893h-1.881c-0.729,0.018-1.35,0.437-1.625,1.042l-4.719,10.858h1.911
				c0.744-0.004,1.379-0.436,1.655-1.05l0.743-1.716h4.759l0.748,1.732c0.282,0.605,0.911,1.03,1.651,1.034h1.929 M120.633,56.922
				l1.782-4.175l1.777,4.175H120.633z"/>
			<path fill="#231F20" d="M112.483,49.891c-0.654,0.014-1.182,0.521-1.197,1.145v10.752h1.55c0.658-0.006,1.197-0.512,1.211-1.141
				V49.891"/>
			<path fill="#231F20" d="M70.19,49.906c-0.732,0.016-1.354,0.443-1.628,1.041l-2.919,7.326L62.52,50.96
				c-0.271-0.609-0.9-1.041-1.64-1.054h-1.908l5.269,11.902h1.513c0.715-0.016,1.328-0.421,1.606-1.007l4.927-10.895"/>
			<path fill="#231F20" d="M76.481,53.334c0.46-0.943,1.413-1.293,3.146-1.315c0.025,0,3.632,0,3.632,0v-2.126h-4.722
				c-0.754,0-1.343,0.056-1.833,0.169c0,0-0.016,0.002-0.019,0.004c-0.357,0.086-0.658,0.204-0.938,0.352
				c-0.695,0.354-1.078,0.771-1.078,0.771l0,0c-0.431,0.418-0.792,0.954-1.063,1.574c-0.423,0.862-0.613,1.812-0.613,2.983v0.195
				c0,1.167,0.19,2.12,0.613,2.979c0.283,0.651,0.662,1.207,1.123,1.639c0.003,0,0.253,0.23,0.383,0.328
				c0.338,0.252,0.687,0.425,0.971,0.539c0.116,0.048,0.233,0.09,0.364,0.13c0.123,0.037,0.197,0.053,0.197,0.053l0,0
				c0.503,0.122,1.109,0.184,1.893,0.184h4.722v-2.122c0,0-3.607,0-3.632,0c-1.733-0.024-2.686-0.378-3.146-1.322
				c-0.178-0.367-0.286-0.819-0.339-1.375v-0.106h6.816v-2.049h-6.816v-0.106C76.195,54.156,76.303,53.702,76.481,53.334"/>
		</g>
	</g>
</g>
</svg>
