<?xml version="1.0" encoding="utf-8"?>
<!-- Generator: Adobe Illustrator 16.0.3, SVG Export Plug-In . SVG Version: 6.00 Build 0)  -->
<!DOCTYPE svg PUBLIC "-//W3C//DTD SVG 1.1//EN" "http://www.w3.org/Graphics/SVG/1.1/DTD/svg11.dtd">
<svg version="1.1" id="Layer_2" xmlns="http://www.w3.org/2000/svg" xmlns:xlink="http://www.w3.org/1999/xlink" x="0px" y="0px"
	 width="160px" height="110px" viewBox="0 0 160 110" enable-background="new 0 0 160 110" xml:space="preserve">
<g>
	<g>
		<g>
			<path d="M43.077,53.882c-0.148,0.012-0.001,0.332-0.043,0.508c-0.042,0.175-0.145,0.938-0.16,1.104
				c-0.171,1.668,1.156,1.414,2.237,1.752c0.64,0.083,3.396-0.338,6.8-3.548c1.396-1.316,2.729-2.432,4.68-4.928
				c2.299-2.944,1.511-2.641,3.619-5.564c0.518-0.798,1.03-1.599,1.544-2.399c0.737-1.059,1.742-2.231,2.079-3.455
				c0.307-1.116-0.463-3.064-1.646-3.146c-0.024-0.09-0.82,0.164-0.762,0.605c0.156,0.791,0.23,1.993-0.059,2.669
				c-0.671,1.557-1.785,2.921-2.607,4.46c-3.562,6.667-7.797,10.547-11.871,13.164c-0.304,0.197-1.843,0.74-2.121,0.178
				c-0.852-1.713,3.006-5.57,3.556-7.117c0.02-0.222,0.033-0.445,0.053-0.671c-0.075-0.161-0.153-0.325-0.229-0.489
				c-0.218-0.188-0.545-0.208-0.849-0.182c-0.05,0.007-0.103,0.014-0.153,0.021c-0.055,0.018-0.109,0.035-0.164,0.052
				c-1.101,0.434-1.684,1.661-2.562,2.437c-1.126,0.981-2.37,1.902-3.602,2.691c-0.706,0.45-1.768,1.243-2.139,1.526
				c-0.37,0.283-1.617,1.17-2.463,0.917c-0.419-0.123-0.465-0.661-0.37-1.031c0.325-1.339,1.775-2.543,2.744-3.473
				c1.02-0.988,1.981-2.335,2.688-3.532c0.303-0.522,0.735-1.075,0.726-1.712c-0.055-2.558-3.275,0.742-3.648,1.559
				c0.03,0,0.056-0.003,0.085-0.004c-0.258,0.277-0.512,0.552-0.771,0.826c-1.503,2.468-6.357,7.333-2.579,9.772
				c0.565,0.341,1.387,0.472,2.751-0.334C38.869,55.933,42.1,53.658,43.077,53.882"/>
			<path d="M60.692,60.979c-0.88,5.848-2.817,9.62-8.602,11.709c-0.389,0.147-1.744,0.525-1.941,0.531
				c-2.981,0.233-5.182,0.296-7.396-1.21c-0.467-0.318-0.944-1.376-0.842-2.04c0.295-1.999,1.916-3.309,3.328-4.71
				c1.975-1.971,4.02-3.779,6.191-5.439c1.309-0.979,2.62-1.959,3.932-2.934c0.446-0.037,0.891,0.131,1.404,0.059
				c1.021-0.149,3.09-1.008,3.887-1.617c0.039-0.105,0.608-0.299,0.683-0.051c0.061,0.3,0.116,0.595,0.174,0.895
				C61.501,57.867,60.932,59.388,60.692,60.979 M97.05,57.152c0.457-0.076,6.912-1.843,9.887-1.532c1.354,0,5.346,1.237,6.624,1.313
				c1.062,0.124,4.907,0.204,4.989,0.204c1.268,0.003,2.611,0.089,3.438-1.073c0.178-0.255-0.03-0.456-0.262-0.532
				c-1.08-0.354-3.17-0.238-3.723-0.146c-5.164,0.4-6.555-0.848-11.421-1.193c-1.306-0.094-9.406,1.466-9.657,1.511
				c0,0-1.033,0.208-2.109,0.496s-1.159-0.744-1.201-1.076c-0.039-0.332,0.416-2.409,0.541-2.897
				c0.248-0.991-0.249-1.695-0.704-1.737c-0.497-0.046-1.448,0.58-1.821,0.91c-0.371,0.331-3.104,2.194-3.888,2.855
				c-0.786,0.663-1.032-0.205-0.827-0.537c0.206-0.331,0.662-1.531,0.909-2.236c0.25-0.703-0.247-1.158-0.659-1.363
				c-0.414-0.209-1.283,0.33-1.532,0.578c-0.249,0.25-1.57,1.159-2.44,1.78c-0.869,0.621-3.186,1.902-4.22,2.399
				c-1.035,0.496-1.035-0.745-0.951-1.324c0.082-0.58,0.326-1.508,0.456-2.525c0.164-1.323-1.118-1.032-1.613-0.784
				c-0.5,0.247-4.511,3.061-5.047,3.476c-0.537,0.413-0.537-0.292-0.496-0.54c0.041-0.247,0.125-0.743,0.58-1.736
				c0.452-0.993,0.082-1.283,0-1.738c-0.084-0.455-1.076-0.25-1.863,0.082c-0.434,0.184-5.217,1.912-5.395,1.954
				c-0.15,0.012-0.304,0.024-0.453,0.035c-0.004-0.023-0.084-0.047-0.086-0.146c-0.017-0.524-0.24-0.919-0.832-0.833
				c-1.242,0.168-1.915,1.3-2.822,2.026c-1.271,1.021-2.579,2.126-4.041,2.835c-0.446,0.24-0.361-0.796-0.042-1.175
				c2-2.39,1.237-1.574,2.189-2.595c0.719-0.93,1.686-1.945,2.05-3.039c0.33-0.999-0.163-2.627-1.229-2.756
				c-0.396-0.021-0.686,0.314-0.685,0.6c0.054,0.704-0.051,1.535-0.332,2.155c-0.638,1.402-1.549,2.719-2.573,3.927
				c-1.481,1.748-1.562,3.218-1.562,3.218s-2.286,1.511-3.178,2.292c-1.441,1.192-2.886,2.382-4.33,3.575
				c-2.494,2.249-8.63,6.403-6.592,10.444c0.431,0.858,1.146,1.625,2.02,2.092c1.341,0.715,3.112,1.492,4.77,1.362
				c0.107,0.031,0.258,0.053,0.382,0.054c1.306,0.022,2.74-0.146,3.93-0.526c7.889-2.53,12.854-11.142,12.201-19.561
				c-0.037-0.474,0.229-1.034,0.584-1.352c0.81-0.728,3.96-2.718,4.95-2.891c1.2-0.208,0.661,1.615,0.497,2.193
				c-0.166,0.58-0.664,1.409-0.746,2.112c-0.082,0.701,0.639,1.015,1.158,1.199c0.704,0.25,1.738-0.662,2.069-0.951
				c0.33-0.289,3.349-2.897,3.887-3.27c0.537-0.371,0.621,0.457,0.537,0.828c-0.082,0.372-0.328,1.365-0.371,1.985
				c-0.04,0.62,0.082,1.284,0.619,1.613c0.539,0.332,1.076,0.083,1.697-0.288c0.62-0.373,4.51-2.938,4.841-3.105
				c0.332-0.164,1.282-0.908,1.902-1.074c0.621-0.166,0.58,0.537,0.289,1.157c-0.105,0.229-0.37,1.409-0.495,1.987
				c-0.126,0.579-0.166,1.201,0.536,1.779c0.546,0.448,1.822-0.785,2.153-1.077c0.328-0.288,3.183-2.854,3.721-3.185
				c0.539-0.332,0.785,0.48,0.578,1.24c-0.247,0.912-0.302,1.762-0.137,2.072c0.373,0.704,1.1,1.076,2.825,0.907
				C94.816,57.579,97.05,57.152,97.05,57.152"/>
			<path d="M123.796,56.391c0.183,0.523,0.488,0.929,1.346,1.09c0.396,0.073,0.891-0.163,0.961-0.421
				c0.093-0.34,0.275-0.518,0.194-0.945c-0.101-0.539-0.487-0.93-1.349-1.089c-0.39-0.073-0.89,0.163-0.956,0.421
				C123.898,55.786,123.653,55.975,123.796,56.391"/>
		</g>
	</g>
</g>
</svg>
